<svg xmlns="http://www.w3.org/2000/svg" xmlns:xlink="http://www.w3.org/1999/xlink" viewBox="0 0 48 48"><path fill="#bcaaa4" d="M33.055,43h-19.11C12.871,43,12,42.129,12,41.055v-27.11C12,12.871,12.871,12,13.945,12h19.11C34.129,12,35,12.871,35,13.945v27.11C35,42.129,34.129,43,33.055,43z"/><path fill="#8d6e63" d="M36.308,19H11.692C11.31,19,11,18.69,11,18.308v-3.372C11,13.314,12.314,12,13.935,12h20.129C35.686,12,37,13.314,37,14.935v3.372C37,18.69,36.69,19,36.308,19z"/><path fill="#8d6e63" d="M11.692,37h24.615C36.69,37,37,37.31,37,37.692v3.372C37,42.686,35.686,44,34.065,44H13.935C12.314,44,11,42.686,11,41.065v-3.372C11,37.31,11.31,37,11.692,37z"/><path fill="#9ccc65" d="M37,12H11V5.886C11,5.397,11.397,5,11.886,5h24.228C36.603,5,37,5.397,37,5.886V12z"/><rect width="26" height="2" x="11" y="10" fill="#7cb342"/><rect width="2" height="6" x="13" y="5" fill="#7cb342"/><rect width="2" height="6" x="17" y="5" fill="#7cb342"/><rect width="2" height="6" x="21" y="5" fill="#7cb342"/><rect width="2" height="6" x="25" y="5" fill="#7cb342"/><rect width="2" height="6" x="29" y="5" fill="#7cb342"/><rect width="2" height="6" x="33" y="5" fill="#7cb342"/><rect width="24" height="18" x="12" y="19" fill="#dce775"/><path fill="#a1887f" d="M16,19h-2v-4c0-1.105,0.895-2,2-2h0V19z"/><circle cx="24" cy="28" r="9" fill="#fff"/><rect width="2" height="7" x="14" y="37" fill="#a1887f"/><path fill="#ff9800" d="M28,30c0,2.209-1.791,4-4,4s-4-1.791-4-4c0-4,1.791-9,4-9S28,26,28,30z"/><path fill="#e65100" d="M24,21c-0.038,0-0.075,0.013-0.112,0.016C25.13,22.873,26,26.947,26,30.385c0,1.432-0.505,2.696-1.282,3.543C26.583,33.588,28,31.963,28,30C28,26,26.209,21,24,21z"/><circle cx="22" cy="30" r="1" fill="#e65100"/><circle cx="26" cy="28" r="1" fill="#e65100"/><circle cx="23" cy="26" r="1" fill="#e65100"/><circle cx="25" cy="23" r="1" fill="#e65100"/><circle cx="25" cy="32" r="1" fill="#e65100"/></svg>