<svg xmlns="http://www.w3.org/2000/svg"  viewBox="0 0 48 48" width="48px" height="48px"><path fill="#795548" d="M29.496,13.913l1.125-1.654c0.085,0.056,2.083,1.433,2.755,4.598l-1.956,0.415	C30.925,14.936,29.555,13.952,29.496,13.913z"/><path fill="#4caf50" d="M37.319,15.337c-4.446-2.777-5.99,1.862-5.99,1.862S35.695,20.157,37.319,15.337z"/><path fill="#b71c1c" d="M23.565,20.031c0.088-4.085,3.875-7.425,7.942-3.197c5.435-2.211,7.546,2.341,5.958,6.148	c-1.549,3.816-6.385,6.687-8.017,3.55C26.681,28.736,23.429,24.147,23.565,20.031z"/><path fill="#795548" d="M17.121,17.272l-1.956-0.415c0.672-3.165,2.67-4.542,2.755-4.598l1.125,1.654	C18.986,13.952,17.616,14.936,17.121,17.272z"/><path fill="#e64a19" d="M19.093,26.532c-1.632,3.137-6.468,0.266-8.017-3.55c-1.588-3.807,0.523-8.359,5.958-6.148	c4.067-4.228,7.854-0.888,7.942,3.197C25.112,24.147,21.86,28.736,19.093,26.532z"/><path fill="#5d4037" d="M38.452,24.272l-1.956-0.415c0.672-3.165,2.67-4.542,2.755-4.598l1.125,1.654	C40.317,20.952,38.947,21.936,38.452,24.272z"/><path fill="#d32f2f" d="M29.565,26.031c0.088-4.085,3.875-7.425,7.942-3.197c5.435-2.211,7.546,2.341,5.958,6.148	c-1.549,3.816-6.385,6.687-8.017,3.55C32.681,34.736,29.429,30.147,29.565,26.031z"/><path fill="#1e88e5" d="M31,39c0,1.104-0.896,2-2,2H19c-1.104,0-2-0.896-2-2v-2c0-1.104,0.896-2,2-2h10c1.104,0,2,0.896,2,2	V39z"/><path fill="#4caf50" d="M14.851,19.413c-5.108-1.178-5.058,3.71-5.058,3.71S14.884,24.499,14.851,19.413z"/><path fill="#5d4037" d="M8.319,19.983l1.709-1.039c0.054,0.087,1.302,2.167,0.603,5.326l-1.953-0.432	C9.194,21.506,8.355,20.044,8.319,19.983z"/><path fill="#5d4037" d="M25,24h-2c0-2.256,0.699-4.147,2.2-5.953l1.538,1.278C25.536,20.771,25,22.213,25,24z"/><path fill="#d32f2f" d="M4.578,29.118c-1.586-3.695,0.445-8.23,5.811-6.1c3.967-4.195,7.713-0.978,7.842,3.079	c0.168,4.049-2.994,8.592-5.734,6.447C10.917,35.645,6.134,32.86,4.578,29.118z"/><path fill="#ef5350" d="M16.068,27.654c-0.912-4.464,2.367-9.034,7.815-5.441c5.342-3.749,8.751,0.679,7.969,5.213	c-0.737,4.533-5.268,8.852-7.809,5.844C21.59,36.35,16.936,32.163,16.068,27.654z"/><path fill="#90caf9" d="M31,38H17c-3.866,0-13-4.134-13-8l0,0h40l0,0C44,33.866,34.866,38,31,38z"/></svg>