<svg xmlns="http://www.w3.org/2000/svg" xmlns:xlink="http://www.w3.org/1999/xlink" viewBox="0 0 48 48"><path fill="#558b2f" d="M19 37H29V48H19z"/><path fill="#33691e" d="M26.946,4.954c-1.732-1.272-4.132-1.272-5.865,0c-3.358,2.465-5.539,6.437-5.539,10.922 c0,4.485,2.181,8.457,5.539,10.922c1.732,1.272,4.132,1.272,5.865,0c3.358-2.465,5.539-6.437,5.539-10.922 C32.485,11.391,30.304,7.419,26.946,4.954z"/><path fill="#689f38" d="M32.929,7.739c-1.124-0.922-2.714-1.079-4.012-0.423c-3.911,1.976-6.594,6.023-6.594,10.704 c0,3.74,1.712,7.08,4.394,9.281c1.124,0.922,2.714,1.079,4.012,0.423c3.911-1.976,6.594-6.023,6.594-10.704 C37.323,13.28,35.611,9.94,32.929,7.739z"/><path fill="#689f38" d="M18.536,7.25c-1.334-0.577-2.906-0.289-3.973,0.698c-3.215,2.976-4.68,7.606-3.391,12.106 c1.03,3.596,3.595,6.335,6.78,7.712c1.334,0.577,2.906,0.289,3.973-0.698c3.215-2.976,4.68-7.606,3.391-12.106 C24.286,11.366,21.72,8.627,18.536,7.25z"/><path fill="#7cb342" d="M40.548 23.282c-.665 2.141-2.007 3.893-3.737 5.138-3.166-2.719-4.635-6.966-3.386-10.985.558-1.797 1.593-3.32 2.934-4.499.443-.39 1.155-.345 1.579.093C40.56 15.743 41.691 19.607 40.548 23.282zM25.729 11.461c-1.072-.581-2.359-.581-3.43 0-3.741 2.03-6.285 5.983-6.285 10.539 0 4.556 2.543 8.509 6.285 10.539 1.072.581 2.359.581 3.43 0 3.741-2.03 6.285-5.983 6.285-10.539C32.014 17.444 29.47 13.491 25.729 11.461zM7.452 23.282c.665 2.141 2.007 3.893 3.737 5.138 3.166-2.719 4.635-6.966 3.386-10.985-.558-1.797-1.593-3.32-2.934-4.499-.443-.39-1.155-.345-1.579.093C7.44 15.743 6.309 19.607 7.452 23.282z"/><path fill="#689f38" d="M17.697,30.022c-2.187,0.078-8.16-5.948-10.395-7.745c-0.249-0.2-1.026-0.686-1.302-0.098 c-1.808,3.852-1.301,8.744,2.689,12.491c1.237,1.162,2.823,1.941,4.521,2.2c7.33,1.117,12.592-3.838,13.135-9.552 c0.057-0.605-0.689-0.947-1.123-0.51C23.371,28.669,20.79,29.912,17.697,30.022z"/><path fill="#558b2f" d="M16.116,16.919c-0.934-0.743-2.284-0.596-3.027,0.338c-1.014,1.274-1.783,2.776-2.217,4.454 c-1.399,5.416,1.14,10.911,5.822,13.494c1.689-1.522,2.967-3.536,3.578-5.902C21.495,24.571,19.71,19.777,16.116,16.919z"/><path fill="#689f38" d="M30.199,29.925c2.206,0.084,8.212-5.93,10.461-7.722c0.251-0.2,1.033-0.683,1.313-0.095 c1.834,3.861,1.337,8.756-2.676,12.495c-1.244,1.16-2.841,1.935-4.553,2.189c-7.39,1.097-12.711-3.878-13.275-9.599 c-0.06-0.605,0.692-0.946,1.131-0.508C24.474,28.554,27.08,29.806,30.199,29.925z"/><path fill="#558b2f" d="M31.884,16.919c0.934-0.743,2.284-0.596,3.027,0.338c1.014,1.274,1.783,2.776,2.217,4.454 c1.399,5.416-1.14,10.911-5.822,13.494c-1.689-1.522-2.967-3.536-3.578-5.902C26.505,24.571,28.29,19.777,31.884,16.919z"/><path fill="#689f38" d="M26.946,22.518c-1.732-1.272-4.132-1.272-5.865,0c-3.358,2.465-5.539,6.437-5.539,10.922 c0,0.622,0.051,1.231,0.132,1.83c2.557,1.108,5.375,1.73,8.339,1.73s5.782-0.621,8.339-1.73c0.081-0.599,0.132-1.208,0.132-1.83 C32.485,28.955,30.304,24.983,26.946,22.518z"/><path fill="#33691e" d="M29,37H19v4.683c0.294,0.031,0.592,0.047,0.896,0.047c0.685,0,1.37-0.068,2.035-0.204 c0.789-0.16,1.505-0.492,2.113-0.956c0.633,0.489,1.385,0.832,2.213,0.986c0.613,0.115,1.245,0.173,1.876,0.173 c0.294,0,0.583-0.017,0.868-0.046V37z"/><path fill="#7cb342" d="M14.078,30.34l-0.024,0c-1.34,0.001-2.352,1.27-1.998,2.562c0.99,3.611,4.094,6.828,7.839,6.828 c0.561,0,1.108-0.056,1.636-0.164c2.48-0.504,3.415-3.618,1.638-5.42C20.854,31.798,17.639,30.34,14.078,30.34z"/><path fill="#7cb342" d="M33.95,30.34l0.024,0c1.34,0.001,2.352,1.27,1.998,2.562c-0.99,3.611-4.094,6.828-7.839,6.828 c-0.516,0-1.02-0.048-1.509-0.139c-2.543-0.475-3.509-3.713-1.674-5.536C27.258,31.76,30.435,30.34,33.95,30.34z"/></svg>