<?xml version="1.0" encoding="utf-8"?><!-- Generator: Adobe Illustrator 15.0.0, SVG Export Plug-In . SVG Version: 6.00 Build 0)  --><!DOCTYPE svg PUBLIC "-//W3C//DTD SVG 1.1//EN" "http://www.w3.org/Graphics/SVG/1.1/DTD/svg11.dtd"><svg xmlns="http://www.w3.org/2000/svg" xmlns:xlink="http://www.w3.org/1999/xlink" version="1.1" x="0px" y="0px" width="528" height="528" viewBox="0 0 48 48" enable-background="new 0 0 48 48" xml:space="preserve">
<g>
	<path fill="#FFC107" d="M36.519,19.881c-0.772,0.774-2.026,0.774-2.8,0l-5.601-5.601c-0.774-0.773-0.774-2.027,0-2.8l2.1-2.1   c2.102-2.102,4.201,2.799,8.401-2.801l2.801,2.801c-5.601,4.199-0.7,6.299-2.801,8.4L36.519,19.881z"/>
	<circle fill="#FFC107" cx="40.02" cy="7.981" r="1.98"/>
</g>
<path fill="#BBDEFB" d="M34.17,29.23c2.263-2.262,1.226-5.775-0.699-7.7l-3.5-3.501l-3.502-3.501  c-1.925-1.925-5.438-2.962-7.7-0.699c-1.4,1.399-2.8,5.601-4.901,7.701c-2.1,2.1-4.2,1.4-7,4.2c-4.201,4.201,0,8.402,0,8.402  l3.499,3.5l3.5,3.5c0,0,4.202,4.201,8.402,0c2.8-2.801,2.101-4.9,4.2-7C28.569,32.031,32.771,30.631,34.17,29.23z"/>
<path fill="#42A5F5" d="M35.119,24.083L23.918,12.881l2.101-2.102c0.772-0.772,2.027-0.772,2.799,0l8.402,8.402  c0.772,0.771,0.772,2.027,0,2.801L35.119,24.083z"/>
<g>
	
		<rect x="17.972" y="17.199" transform="matrix(0.7074 0.7069 -0.7069 0.7074 24.0713 -5.7436)" fill="#64B5F6" width="2" height="18"/>
	
		<rect x="22.897" y="21.31" transform="matrix(0.7071 0.7071 -0.7071 0.7071 23.5088 -12.1307)" fill="#64B5F6" width="7" height="2"/>
	
		<rect x="20.361" y="23.432" transform="matrix(0.7073 0.707 -0.707 0.7073 23.9648 -9.0093)" fill="#64B5F6" width="5" height="2"/>
	
		<rect x="17.532" y="26.26" transform="matrix(0.7071 0.7071 -0.7071 0.7071 25.143 -6.1806)" fill="#64B5F6" width="4.999" height="1.999"/>
	
		<rect x="14.704" y="29.088" transform="matrix(0.7071 0.7071 -0.7071 0.7071 26.3143 -3.3526)" fill="#64B5F6" width="4.999" height="2"/>
	
		<rect x="11.582" y="32.624" transform="matrix(0.707 0.7072 -0.7072 0.707 28.1969 -0.8158)" fill="#64B5F6" width="7.001" height="2"/>
</g>
</svg>