<svg xmlns="http://www.w3.org/2000/svg" xmlns:xlink="http://www.w3.org/1999/xlink" viewBox="0 0 48 48"><path fill="#e88705" d="M30.5 4A13.5 13.5 0 1 0 30.5 31A13.5 13.5 0 1 0 30.5 4Z"/><path fill="#d84315" d="M44.28,23.499L34,33L11,16.855l5.66-9.59c0.73-1.246,2.35-1.651,3.6-0.919 c0.16,0.099,0.36,0.069,0.46-0.079l0.8-1.137c0.82-1.177,2.44-1.483,3.65-0.682l0.16,0.109l1.66,1.107l1.49,0.999 c0.79,0.524,1.21,1.355,1.2,2.274c-0.01,0.89,0.78,1.572,1.65,1.325h0.01c0.6-0.168,1.22-0.267,1.83-0.277 c0.76-0.03,1.53,0.059,2.26,0.257c1.49,0.395,2.86,1.246,3.89,2.472c0.78,0.929,1.54,1.869,2.04,2.6 c0.28,0.395,0.48,0.732,0.58,0.979l0.38,0.939l0.61,1.513c0.02,0.02,0.03,0.04,0.05,0.069l1.3,1.285 C45.23,21.037,45.23,22.559,44.28,23.499z"/><path fill="#e26847" d="M35.43 10.24L24.31 25.634l-1.66-1.098L33.17 9.983C33.93 9.953 34.7 10.042 35.43 10.24zM26.99 5.662L16.53 20.503 14.87 19.405 25.33 4.555zM42.32 17.23L30.83 29.925l-1.69-1.107 12.22-13.506c.28.395.48.732.58.979L42.32 17.23z"/><path fill="#ffeb3b" d="M26,8c-5.27,2.11-9.99,5.33-13.27,7.91l16.33,19.03L40,24L26,8z"/><path fill="#689f38" d="M33.96,28.498c0,1.37,1.32,2.88,0.99,4.14c-0.35,1.3-2.26,1.96-2.92,3.09 c-0.67,1.16-0.29,3.14-1.23,4.08c-0.77,0.77-2.75,0.62-4.07,0.92L7.27,21.268c0.3-1.31,0.15-3.29,0.93-4.07 c0.93-0.94,2.91-0.56,4.07-1.23c1.14-0.66,1.79-2.57,3.09-2.91c1.26-0.34,2.78,0.98,4.14,0.98s2.88-1.32,4.14-0.98 c1.3,0.34,1.95,2.25,3.09,2.91c1.16,0.67,3.14,0.29,4.07,1.23c0.94,0.94,0.56,2.91,1.23,4.07c0.66,1.14,2.57,1.79,2.92,3.09 C35.28,25.618,33.96,27.138,33.96,28.498z"/><path fill="#ff9800" d="M17,16.998c-7.73,0-14,6.27-14,14c0,7.73,6.27,14,14,14s14-6.27,14-14 C31,23.268,24.73,16.998,17,16.998z M17,35.998c-2.76,0-5-2.24-5-5s2.24-5,5-5s5,2.24,5,5S19.76,35.998,17,35.998z"/><path fill="#ffecb3" d="M17 19A1 1 0 1 0 17 21 1 1 0 1 0 17 19zM28 31A1 1 0 1 0 28 33 1 1 0 1 0 28 31zM24 34A1 1 0 1 0 24 36 1 1 0 1 0 24 34zM21 23A1 1 0 1 0 21 25 1 1 0 1 0 21 23zM20 41A1 1 0 1 0 20 43 1 1 0 1 0 20 41zM15 38A1 1 0 1 0 15 40 1 1 0 1 0 15 38zM8 34A1 1 0 1 0 8 36 1 1 0 1 0 8 34zM13 21A1 1 0 1 0 13 23 1 1 0 1 0 13 21zM6 29A1 1 0 1 0 6 31 1 1 0 1 0 6 29z"/></svg>