<svg xmlns="http://www.w3.org/2000/svg" xmlns:xlink="http://www.w3.org/1999/xlink" viewBox="0 0 48 48"><path fill="#ffb300" d="M39.203 2.7970000000000006A7.5 6 0 1 0 39.203 14.797A7.5 6 0 1 0 39.203 2.7970000000000006Z" transform="rotate(-45.001 39.203 8.798)"/><path fill="#ffb300" d="M8.797 33.203A7.5 6 0 1 0 8.797 45.203A7.5 6 0 1 0 8.797 33.203Z" transform="rotate(-45.001 8.797 39.203)"/><path fill="#ffb300" d="M18 2H30V46H18z" transform="rotate(45.001 24 24)"/><path fill="#ffa000" d="M26,16.99c0,0,1.469-1.444,2-1.99c1.262-0.667,2.509-0.498,4.486-0.849C34.584,13.779,39.317,12.929,41,13c-0.125,0.391-0.531,1-0.531,1s-1.232,2.069-3.74,2.99c-2.25,0.827-4.258,1.01-6,1.01C27.666,18,26,16.99,26,16.99z"/><path fill="#ffe082" d="M28,15c0,0,3.167-2.189,6.757-2.825S41,13,41,13s-3.167,2.189-6.756,2.825C30.654,16.462,28,15,28,15z"/><path fill="#ffa000" d="M17,25.976c0,0,1.469-1.444,2-1.99c1.262-0.667,2.509-0.498,4.486-0.849c2.098-0.372,6.831-1.222,8.514-1.151c-0.125,0.391-0.531,1-0.531,1s-1.232,2.069-3.74,2.99c-2.25,0.827-4.258,1.01-6,1.01C18.666,26.986,17,25.976,17,25.976z"/><path fill="#ffe082" d="M19,23.986c0,0,3.167-2.189,6.757-2.825C29.347,20.524,32,21.986,32,21.986s-3.167,2.189-6.756,2.825S19,23.986,19,23.986z"/><g><path fill="#ffa000" d="M8,34.99c0,0,1.469-1.444,2-1.99c1.262-0.667,2.509-0.498,4.486-0.849C16.584,31.779,21.317,30.929,23,31c-0.125,0.391-0.531,1-0.531,1s-1.232,2.069-3.74,2.99c-2.25,0.827-4.258,1.01-6,1.01C9.666,36,8,34.99,8,34.99z"/><path fill="#ffe082" d="M10,33c0,0,3.167-2.189,6.757-2.825C20.347,29.538,23,31,23,31s-3.167,2.189-6.756,2.825S10,33,10,33z"/></g></svg>