<svg xmlns="http://www.w3.org/2000/svg" xmlns:xlink="http://www.w3.org/1999/xlink" viewBox="0 0 48 48"><path fill="#546e7a" d="M37.292,42h-2.584C33.767,42,33,41.233,33,40.292v-2.417h6v2.417C39,41.233,38.233,42,37.292,42z M13.375,42h-2.666C9.767,42,9,41.233,9,40.292v-2.417h6.083v2.417C15.083,41.233,14.316,42,13.375,42z"/><path fill="#cfd8dc" d="M39.583,40H8.416C7.084,40,6,38.999,6,37.666v-27.25C6,9.084,7.084,8,8.416,8h31.167C40.916,8,42,9.084,42,10.416v27.25C42,38.999,40.916,40,39.583,40z"/><path fill="#ff1744" d="M36.5,10c-0.828,0-1.5,0.672-1.5,1.5s0.672,1.5,1.5,1.5s1.5-0.672,1.5-1.5S37.328,10,36.5,10z"/><rect width="32" height="21" x="8" y="15" fill="#37474f"/><circle cx="11.5" cy="11.5" r="1.5" fill="#37474f"/><circle cx="15.5" cy="11.5" r="1.5" fill="#37474f"/><circle cx="19.5" cy="11.5" r="1.5" fill="#37474f"/><circle cx="23.5" cy="11.5" r="1.5" fill="#37474f"/><path fill="#37474f" d="M22.167,8V7.708C22.167,6.767,21.4,6,20.458,6h-8.5c-0.942,0-1.708,0.767-1.708,1.708V8H22.167z"/><path fill="#37474f" d="M37.75,8V7.708C37.75,6.767,36.983,6,36.042,6h-6.375c-0.942,0-1.709,0.767-1.709,1.708V8H37.75z"/><path fill="#546e7a" d="M8,32h32v2H8V32z"/><path fill="#ffd54f" d="M33.157,32H14.843C13.825,32,13,31.175,13,30.157v-0.67C13,25.352,16.352,22,20.487,22h7.027C31.648,22,35,25.352,35,29.487v0.67C35,31.175,34.175,32,33.157,32z"/><path fill="#ff8f00" d="M21,26L21,26c-0.552,0-1-0.448-1-1v-3h2v3C22,25.552,21.552,26,21,26z"/><path fill="#ff8f00" d="M27,26L27,26c-0.552,0-1-0.448-1-1v-3h2v3C28,25.552,27.552,26,27,26z"/></svg>