<?xml version="1.0" encoding="utf-8"?><!-- Generator: Adobe Illustrator 15.0.0, SVG Export Plug-In . SVG Version: 6.00 Build 0)  --><!DOCTYPE svg PUBLIC "-//W3C//DTD SVG 1.1//EN" "http://www.w3.org/Graphics/SVG/1.1/DTD/svg11.dtd"><svg xmlns="http://www.w3.org/2000/svg" xmlns:xlink="http://www.w3.org/1999/xlink" version="1.1" x="0px" y="0px" width="528" height="528" viewBox="0 0 48 48" enable-background="new 0 0 48 48" xml:space="preserve">
<path fill="none" stroke="#8D6E63" stroke-width="2" stroke-linecap="round" d="M24,13c0,0-1-6,5-6"/>
<circle fill="#FF80AB" cx="13" cy="26" r="8"/>
<circle fill="#E91E63" cx="35" cy="26" r="8"/>
<circle fill="#FFF8E1" cx="24" cy="26" r="8"/>
<path fill="#FFE082" d="M45,29.216c0-1.444-1.236-2.616-2.764-2.616c-0.545,0-1.053,0.154-1.48,0.415  c-0.049,0.02-0.102,0.031-0.148,0.06c-1.656,1.011-3.405,1.866-5.223,2.544c-3.626,1.363-7.5,2.107-11.38,2.065  c-3.881,0.045-7.754-0.703-11.38-2.065c-1.695-0.63-3.395-1.377-4.961-2.294C7.168,26.877,6.502,26.6,5.764,26.6  C4.236,26.6,3,27.771,3,29.216c0,0.156,0.021,0.308,0.048,0.459c0.001,0.084,0.019,0.184,0.079,0.323  c0.012,0.027,0.025,0.053,0.038,0.078c0.051,0.139,0.114,0.269,0.187,0.395c1.312,2.801,3.408,5.188,5.876,7.091  C13.376,40.687,18.686,42.014,24,42c5.314,0.033,10.641-1.29,14.791-4.415c2.066-1.575,3.849-3.481,5.146-5.696  c0.275-0.479,0.531-0.967,0.764-1.465c0.01-0.018,0.008-0.045,0.011-0.064C44.891,30.014,45,29.628,45,29.216z"/>
<g>
	<path fill="#4C2114" d="M19.987,22.109C18.62,19.658,16.005,18,13,18c-1.796,0-3.447,0.599-4.782,1.598   c0.243,0.055,0.457,0.17,0.574,0.358c0.346,0.556,0.255,1.565,0.292,2.211c0.038,0.68,0.301,1.491,1.083,1.668   c0.82,0.186,1.475-0.515,1.876-1.086c0.404-0.576,0.873-1.289,1.53-1.593c0.914-0.422,1.401,0.256,1.645,0.68S15.398,23.154,16,24   c0.482,0.678,1.171-1.362,2-2C18.949,21.271,19.869,23.228,19.987,22.109z"/>
	<path fill="#4C2114" d="M24,18c-2.087,0-4.054,0.863-5.5,2.194c-0.296,0.272-0.797,0.138-1.046,0.446   C17.134,21.035,16.219,21.453,16,24c0.828,1,1.125-1.797,1.688-1.594c0.604,0.218,0.201,1.157,0.104,1.677   c-0.136,0.729-0.227,1.46,0.206,1.884c0.561,0.551,1.013,0.045,1.369-0.467c0.863-1.239,1.139-2.755,2.761-3.293   c1.674-0.556,2.866,1.094,3.404,2.458c0.309,0.782,0.514,1.677,0.604,2.502c0.077,0.716,0.082,1.619,0.332,2.292   c0.362,0.977,1.133,0.386,1.521-0.25c0.402-0.657,0.568-1.377,0.604-2.127c0.04-0.827,0.078-1.665,0.116-2.509   c0.029-0.681,0.166-1.494,0.799-1.854c1.484-0.846,1.439,1.561,2.381,2.005C31.276,20.913,27.983,18,24,18z"/>
	<g>
		<path fill="#4C2114" d="M41.298,21.129c0.014,0,0.019-0.01,0.027-0.015C39.861,19.223,37.576,18,35,18    c-2.412,0-4.569,1.072-6.036,2.76l2.021,1.662l0.844,2.266c0.194,0.148,0.585,0.026,0.734-0.125    c0.206-0.206,0.279-0.455,0.328-0.731c0.105-0.603,0.215-1.241,0.541-1.771c0.313-0.508,0.973-1.003,1.568-1.123    c1.291-0.261,2.255,0.535,2.791,1.688c0.535,1.152,1.07,2.884,1.963,2.733s0.851-1.67,0.768-2.441    C40.438,22.146,40.125,21.042,41.298,21.129z"/>
		<polygon fill="#4C2114" points="41.332,21.124 41.328,21.125 41.334,21.126   "/>
	</g>
</g>
<path fill="#F44336" d="M20,15.742c0-2.248,1.6-3.308,4-2.441c2.4-0.866,4,0.193,4,2.441C28,17.992,26.209,19,24,19  S20,17.992,20,15.742z"/>
</svg>