<svg xmlns="http://www.w3.org/2000/svg" xmlns:xlink="http://www.w3.org/1999/xlink" viewBox="0 0 48 48"><path fill="#8d6e63" d="M24,14c-0.5,0-0.9-0.3-1-0.8c0-0.1-0.5-3.2,1.3-5.3C25.4,6.6,26.9,6,29,6c0.6,0,1,0.4,1,1 s-0.4,1-1,1c-1.4,0-2.5,0.4-3.2,1.2c-1.2,1.4-0.8,3.6-0.8,3.7c0.1,0.5-0.3,1.1-0.8,1.2C24.1,14,24.1,14,24,14z"/><path fill="#ff80ab" d="M21,26c0,4.4-3.6,8-8,8s-8-3.6-8-8s3.6-8,8-8S21,21.6,21,26z"/><path fill="#e91e63" d="M43,26c0,4.4-3.6,8-8,8s-8-3.6-8-8s3.6-8,8-8S43,21.6,43,26z"/><path fill="#fff8e1" d="M32,26c0,4.4-3.6,8-8,8s-8-3.6-8-8s3.6-8,8-8S32,21.6,32,26z"/><path fill="#ffe082" d="M45,29.2c0-1.4-1.2-2.6-2.8-2.6c-0.5,0-1.1,0.2-1.5,0.4c-0.1,0-0.1,0-0.1,0.1 c-1.7,1-3.4,1.9-5.2,2.5c-3.6,1.4-7.5,2.1-11.4,2.1c-3.9,0-7.8-0.7-11.4-2.1c-1.7-0.6-3.4-1.4-5-2.3c-0.5-0.4-1.2-0.7-1.9-0.7 c-1.5,0-2.8,1.2-2.8,2.6c0,0.2,0,0.3,0,0.5c0,0.1,0,0.2,0.1,0.3c0,0,0,0.1,0,0.1c0.1,0.1,0.1,0.3,0.2,0.4c1.3,2.8,3.4,5.2,5.9,7.1 C13.4,40.7,18.7,42,24,42c5.3,0,10.6-1.3,14.8-4.4c2.1-1.6,3.9-3.5,5.1-5.7c0.3-0.5,0.5-1,0.8-1.5c0,0,0,0,0-0.1 C44.9,30,45,29.6,45,29.2z"/><path fill="#4c2114" d="M20,22.1c-1.4-2.5-4-4.1-7-4.1c-1.8,0-3.4,0.6-4.8,1.6c0.2,0.1,0.5,0.2,0.6,0.4 c0.3,0.6,0.3,1.6,0.3,2.2c0,0.7,0.3,1.5,1.1,1.7c0.8,0.2,1.5-0.5,1.9-1.1c0.4-0.6,0.9-1.3,1.5-1.6c0.9-0.4,1.4,0.3,1.6,0.7 c0.2,0.4,0.2,1.3,0.8,2.2c0.5,0.7,1.2-1.4,2-2C18.9,21.3,19.9,23.2,20,22.1z"/><path fill="#4c2114" d="M24,18c-2.1,0-4.1,0.9-5.5,2.2c-0.3,0.3-0.8,0.1-1,0.4C17.1,21,16.2,21.5,16,24 c0.8,1,1.1-1.8,1.7-1.6c0.6,0.2,0.2,1.2,0.1,1.7c-0.1,0.7-0.2,1.5,0.2,1.9c0.6,0.6,1,0,1.4-0.5c0.9-1.2,1.1-2.8,2.8-3.3 c1.7-0.6,2.9,1.1,3.4,2.5c0.3,0.8,0.5,1.7,0.6,2.5c0.1,0.7,0.1,1.6,0.3,2.3c0.4,1,1.1,0.4,1.5-0.3c0.4-0.7,0.6-1.4,0.6-2.1 c0-0.8,0.1-1.7,0.1-2.5c0-0.7,0.2-1.5,0.8-1.9c1.5-0.8,1.4,1.6,2.4,2C31.3,20.9,28,18,24,18z"/><path fill="#4c2114" d="M41.3,21.1C41.3,21.1,41.3,21.1,41.3,21.1C39.9,19.2,37.6,18,35,18c-2.4,0-4.6,1.1-6,2.8l2,1.7 l0.8,2.3c0.2,0.1,0.6,0,0.7-0.1c0.2-0.2,0.3-0.5,0.3-0.7c0.1-0.6,0.2-1.2,0.5-1.8c0.3-0.5,1-1,1.6-1.1c1.3-0.3,2.3,0.5,2.8,1.7 s1.1,2.9,2,2.7s0.9-1.7,0.8-2.4C40.4,22.1,40.1,21,41.3,21.1z"/><path fill="#f44336" d="M20,15.7c0-2.3,1.6-3.3,4-2.4c2.4-0.9,4,0.2,4,2.4S26.2,19,24,19S20,18,20,15.7z"/></svg>