<svg xmlns="http://www.w3.org/2000/svg" xmlns:xlink="http://www.w3.org/1999/xlink" viewBox="0 0 48 48"><path fill="#ffc107" d="M41.609,19.391H5.391c0,4.696-2.348,5.205-2.348,10.391S12.261,40,24,40s20.957-5.031,20.957-10.217 S41.609,24.087,41.609,19.391z"/><path fill="#fb8c00" d="M39,18H9c-1.214,4.696-3,5.545-3,9.435C6,31,14,36,24,36s18-5,18-8.565 C42,23.545,40.214,22.696,39,18z"/><path fill="#68362b" d="M8.405,24.233L8,26c0,3,7.467,6,16,6c9.6,0,16-3,16-6l-0.405-1.767H8.405z"/><path fill="#ffab91" d="M40,24.233c0-2.122-15.576-3.835-16-3.825c-0.424-0.01-16,1.703-16,3.825S15.873,29,24,29 S40,26.355,40,24.233z"/><path fill="#689f38" d="M41,23c-0.223-0.884-0.857-3.182-1.425-3.909H8.903C8.022,19.584,7.161,22.292,7,23 c-0.379,1.653-0.137,3.337,1.614,3.177c0.822-0.075,1.596-0.481,2.247-1.1c1.014-0.964,1.435-1.24,2.193-0.01 c0.737,1.195,1.323,2.227,2.258,0.786c0.971-1.497,1.095-2.323,2.755-1.88c1.74,0.465,3.197,2.044,4.972,2.412 c0.862,0.177,1.24,0.155,1.75-0.816c0.418-0.792,0.799-2.501,1.608-2.663c1.318-0.264,0.324,1.665,0.285,2.538 c-0.097,2.21,1.754,0.322,2.247-0.434c0.309-0.472,0.765-1.449,1.326-1.262c0.611,0.206,0.299,0.631,0.432,1.291 c0.124,0.614,0.543,1.666,1.109,1.656c0.695-0.012,1.021-1.617,1.372-2.268c0.283-0.525,0.814-1.437,1.369-1.392 c0.616,0.051,0.785,1.06,1.093,1.722c0.635,1.359,3.612,2.613,4.746,1.528C41.105,25.59,41.299,24.168,41,23z"/><path fill="#ffc107" d="M23.935,9C39.87,9,44.87,17,45,21.333C45.102,24.707,35.569,22,23.935,22S2.768,24.707,2.87,21.333 C3,17,8,9,23.935,9z"/></svg>