<?xml version="1.0" encoding="utf-8"?><!-- Generator: Adobe Illustrator 15.0.0, SVG Export Plug-In . SVG Version: 6.00 Build 0)  --><!DOCTYPE svg PUBLIC "-//W3C//DTD SVG 1.1//EN" "http://www.w3.org/Graphics/SVG/1.1/DTD/svg11.dtd"><svg xmlns="http://www.w3.org/2000/svg" xmlns:xlink="http://www.w3.org/1999/xlink" version="1.1" x="0px" y="0px" width="528" height="528" viewBox="0 0 48 48" enable-background="new 0 0 48 48" xml:space="preserve">
<g>
	<path fill="#90CAF9" d="M33,43H15v-1c0,0,8-1,8-3s2-2,2,0s8,3,8,3V43z"/>
	<path fill="#90CAF9" d="M27,32.675c2,0-8,0.017-6,0.017s2,6.308,2,6.308h2C25,38.999,25,32.675,27,32.675z"/>
	<path fill="#90CAF9" d="M16.096,5C15.108,11-1.195,33,24,33s8.893-22,7.904-28H16.096z"/>
</g>
<path fill="#9B2310" d="M10.479,20C8.931,26.748,10.568,33,24,33s15.068-6.252,13.521-13H10.479z"/>
<path fill="#FAFAFA" d="M15.393,20c0.792-3.133,2.075-6.352,3.172-8.787C19.296,9.589,19.926,8.191,20.341,7h-2.82  c-0.415,1.191-1.044,2.589-1.776,4.213C14.548,13.868,13.13,17.025,12.37,20H15.393z"/>
<path fill="#FF3D00" d="M15.393,20H12.37c-0.722,2.822-0.853,5.479,0.376,7.381c0.724,1.12,1.955,1.972,3.64,2.573  c-0.315-0.296-0.597-0.609-0.82-0.954C14.23,26.933,14.501,23.521,15.393,20z"/>
</svg>