<?xml version="1.0" encoding="utf-8"?><!-- Generator: Adobe Illustrator 19.1.1, SVG Export Plug-In . SVG Version: 6.00 Build 0)  --><svg xmlns="http://www.w3.org/2000/svg" xmlns:xlink="http://www.w3.org/1999/xlink" version="1.1" x="0px" y="0px" viewBox="0 0 48 48" enable-background="new 0 0 48 48" xml:space="preserve" width="528" height="528">
<path fill="#BBDEFB" d="M34,11c0-5.6-3-9-3-9h-7h-7c0,0-3,3.4-3,9c0,3.6,6,16.8,6,21c0,3.3-2.9,9.3-3.9,12.3  c-0.3,0.8,0.3,1.7,1.2,1.7h13.4c0.9,0,1.5-0.9,1.2-1.7c-1.1-3-3.9-9-3.9-12.3C28,27.8,34,14.6,34,11z"/>
<path fill="#F57F17" d="M19,42H29c1,0,1.6-1,1.3-1.9C29.4,37.8,28,33.9,28,32c0-4.3,6-17.4,6-21c0-5.6-3-9-3-9h-7h-7c0,0-3,3.4-3,9  c0,3.6,6,16.8,6,21c0,1.9-1.4,5.8-2.3,8.1C17.4,41,18.1,42,19,42z"/>
<path fill="#FFECB3" d="M24,2h-7c0,0-3,3.4-3,9h20c0-5.6-3-9-3-9H24z"/>
<path fill="#FFFDE7" d="M18.2,4c-0.5,1-0.9,2.4-1.2,3.9c-0.2,0.9-0.2,2-0.1,3.1h2.3c-0.1-0.9,0-1.8,0.2-2.6c0.4-1.8,1.2-3.2,1.8-4.1  c0.1-0.1,0.1-0.2,0.2-0.3H18.2z"/>
<path fill="#FBC02D" d="M17.9,15.4c0.8,2.5,1.7,5.1,2.5,7.7c0.4,1.3,0.8,2.6,1.2,3.9c0.3,1.3,0.7,2.6,0.8,3.8  c0.2,1.2,0.2,2.5,0.1,3.6c-0.1,1.2-0.3,2.2-0.5,3.2c-0.4,1.9-0.9,3.4-1.3,4.5h0.2c0.5-1.1,1-2.6,1.6-4.4c0.3-1,0.5-2.1,0.7-3.3  c0.2-1.2,0.3-2.4,0.2-3.8c-0.1-1.3-0.3-2.6-0.6-4c-0.3-1.3-0.6-2.7-0.9-4c-0.7-2.7-1.4-5.3-2-7.8c-0.3-1.2-0.5-2.5-0.6-3.5  c0-0.1,0-0.2,0-0.4h-2.3c0,0.2,0,0.4,0.1,0.6C17.2,12.9,17.5,14.1,17.9,15.4z"/>
</svg>