<svg xmlns="http://www.w3.org/2000/svg" xmlns:xlink="http://www.w3.org/1999/xlink" viewBox="0 0 48 48"><path fill="#6d4c41" d="M23,37C11.038,37,3,32.981,3,27v-6c2-4,4.668-4.974,6.999-5c1.822-0.021,3.93,0.561,7.001,1c5.631,0.804,10.148-5,16-5c4,0,10,2,12,8v6C45,31.018,41.183,37,23,37z"/><path fill="#4e342e" d="M12.508 13.997H14.508V32.711H12.508z" transform="rotate(-44.749 13.508 23.354)"/><path fill="#4e342e" d="M21.629 14.134H23.629V32.722H21.629z" transform="rotate(-45.001 22.628 23.429)"/><path fill="#4e342e" d="M29.061 12.149H31.061V31.393H29.061z" transform="rotate(-45.941 30.06 21.772)"/><path fill="#4e342e" d="M34.833 9.712H36.833V27.552H34.833z" transform="rotate(-45.001 35.833 18.633)"/><g><path fill="#8d6e63" d="M23,31C11.038,31,3,26.981,3,21c0-4.145,3.516-6,7-6c1.694,0,2.976,0.3,4.107,0.565C15.103,15.799,15.962,16,17,16c3.301,0,5.483-1.184,7.793-2.438C27.113,12.302,29.512,11,33,11c7.29,0,12,3.533,12,9C45,25.018,41.183,31,23,31z M10,17c-0.835,0-5,0.193-5,4c0,4.71,7.402,8,18,8c9.124,0,20-1.562,20-9c0-4.318-3.832-7-10-7c-2.98,0-5.056,1.127-7.253,2.32C23.319,16.637,20.809,18,17,18c-1.27,0-2.327-0.248-3.349-0.487C12.575,17.261,11.463,17,10,17z"/></g></svg>