<?xml version="1.0" encoding="iso-8859-1"?><!-- Generator: Adobe Illustrator 19.1.1, SVG Export Plug-In . SVG Version: 6.00 Build 0)  --><svg xmlns="http://www.w3.org/2000/svg" xmlns:xlink="http://www.w3.org/1999/xlink" version="1.1" id="Layer_1" x="0px" y="0px" viewBox="0 0 48 48" enable-background="new 0 0 48 48" xml:space="preserve" width="528" height="528">
<path fill="#9FA8DA" d="M31,43H17c-1.925,0-3.5-1.575-3.5-3.5v0c0-1.925,1.575-3.5,3.5-3.5h14c1.925,0,3.5,1.575,3.5,3.5v0  C34.5,41.425,32.925,43,31,43z"/>
<path fill="#689F38" d="M36,14c0-1.935-4-5.968-4-7H16c0,1.097-4,5.129-4,7s0,25,0,25h24C36,39,36,15.935,36,14z"/>
<path fill="#C5CAE9" d="M34,41H14c-1.65,0-2-2-2-2h24C36,39,35.65,41,34,41z M33,6L33,6c0-0.552-0.448-1-1-1H16  c-0.552,0-1,0.448-1,1l0,0c0,0.552,0.448,1,1,1h16C32.552,7,33,6.552,33,6z"/>
<g>
	<rect x="12" y="20" fill="#33691E" width="24" height="10"/>
	<path fill="#33691E" d="M24,16c-4.971,0-9,4.029-9,9s4.029,9,9,9s9-4.029,9-9S28.971,16,24,16L24,16z"/>
</g>
<path fill="#FFECB3" d="M24,19c-3.308,0-6,2.692-6,6s2.692,6,6,6s6-2.692,6-6S27.308,19,24,19z"/>
<rect x="17" y="23" fill="#FF3D00" width="14" height="4"/>
</svg>