<svg xmlns="http://www.w3.org/2000/svg" xmlns:xlink="http://www.w3.org/1999/xlink" viewBox="0 0 48 48"><path fill="#d18a2e" d="M15,39c1,0,4-2,9-2c5.038,0,10,3,11,3V20H15V39z"/><path fill="#ffab40" d="M43.007,19.423L35,23.951V40l7.357-4.759C42.899,35.031,43.164,34.469,43,34L43.007,19.423z"/><path fill="#ffab40" d="M7,11l0.019,17c0.021,0.411,0.159,0.824,0.47,1.178L15,39V20L7,11z"/><path fill="#ffcc80" d="M35,24l7.357-3.759c0.774-0.3,0.873-1.323,0.169-1.756L25.781,6.93 c-1.336-0.823-2.948-1.115-4.5-0.814L8.647,8.951c-1.53,0.296-2.168,2.076-1.158,3.228L15,23c2.263-0.706,4.913-1.495,8.189-1.495 C28.226,21.505,32.915,22.524,35,24z"/><circle cx="23" cy="9" r="1" fill="#ffa726"/><circle cx="17" cy="11" r="1" fill="#ffa726"/><circle cx="11" cy="11" r="1" fill="#ffa726"/><circle cx="14" cy="15" r="1" fill="#ffa726"/><circle cx="24" cy="14" r="1" fill="#ffa726"/><circle cx="28" cy="18" r="1" fill="#ffa726"/><circle cx="33" cy="15" r="1" fill="#ffa726"/><circle cx="37" cy="19" r="1" fill="#ffa726"/><circle cx="20" cy="19" r="1" fill="#ffa726"/><path fill="#f44336" d="M7,15l8,11.25c0,0,10-3,20,1L43,23v4l-8,4c0,0-10.906-3.519-20-0.943L7,19V15z"/><path fill="#8bc34a" d="M7,22l8,10c0,0,10-2,20,2l8-4v3l-8,4c0,0-11-4-20-1L7,25V22z"/><path fill="#fff3e0" d="M7,19l8,11c0,0,10-3,20,1l8-4v4l-8,4c0,0-11-4-20-1L7,23V19z"/><path fill="#d32f2f" d="M15,26.25V30c9,0,20,1,20,1v-3.75C25,23.25,15,26.25,15,26.25z"/><path fill="#689f38" d="M15,33.546V36c9-3,20,1,20,1v-2.351C25,30.649,15,33.546,15,33.546z"/><path fill="#ffcc80" d="M15,30v4c9-3,20,1,20,1v-4C25,27,15,30,15,30z"/></svg>