<svg xmlns="http://www.w3.org/2000/svg" xmlns:xlink="http://www.w3.org/1999/xlink" viewBox="0 0 48 48"><polygon fill="#616161" points="6,23 7,22 24,5 41,22 41,23"/><path fill="#616161" d="M5,22.5C5,23.328,5.672,24,6.5,24S8,23.328,8,22.5S7.328,21,6.5,21S5,21.671,5,22.5z"/><path fill="#616161" d="M7,20.5C7,21.328,7.672,22,8.5,22s1.5-0.672,1.5-1.5S9.328,19,8.5,19S7,19.671,7,20.5z"/><path fill="#616161" d="M9,18.5c0,0.828,0.672,1.5,1.5,1.5s1.5-0.672,1.5-1.5S11.328,17,10.5,17S9,17.671,9,18.5z"/><path fill="#616161" d="M11,16.5c0,0.828,0.672,1.5,1.5,1.5s1.5-0.672,1.5-1.5c0-0.828-0.672-1.5-1.5-1.5S11,15.671,11,16.5 z"/><path fill="#616161" d="M13,14.5c0,0.828,0.672,1.5,1.5,1.5s1.5-0.672,1.5-1.5S15.328,13,14.5,13S13,13.671,13,14.5z"/><path fill="#616161" d="M15,12.5c0,0.828,0.672,1.5,1.5,1.5c0.828,0,1.5-0.672,1.5-1.5S17.328,11,16.5,11S15,11.671,15,12.5 z"/><path fill="#616161" d="M17,10.5c0,0.828,0.672,1.5,1.5,1.5s1.5-0.672,1.5-1.5S19.328,9,18.5,9S17,9.671,17,10.5z"/><path fill="#616161" d="M19,8.5c0,0.828,0.672,1.5,1.5,1.5S22,9.328,22,8.5S21.328,7,20.5,7S19,7.671,19,8.5z"/><path fill="#616161" d="M21,6.5C21,7.328,21.672,8,22.5,8S24,7.328,24,6.5S23.328,5,22.5,5S21,5.671,21,6.5z"/><path fill="#616161" d="M22.5,5.5C22.5,6.328,23.172,7,24,7s1.5-0.672,1.5-1.5S24.828,4,24,4S22.5,4.671,22.5,5.5z"/><path fill="#616161" d="M43,22.5c0,0.828-0.672,1.5-1.5,1.5S40,23.328,40,22.5s0.672-1.5,1.5-1.5S43,21.671,43,22.5z"/><path fill="#616161" d="M41,20.5c0,0.828-0.672,1.5-1.5,1.5S38,21.328,38,20.5s0.672-1.5,1.5-1.5S41,19.671,41,20.5z"/><path fill="#616161" d="M39,18.5c0,0.828-0.672,1.5-1.5,1.5S36,19.328,36,18.5s0.672-1.5,1.5-1.5S39,17.671,39,18.5z"/><path fill="#616161" d="M37,16.5c0,0.828-0.672,1.5-1.5,1.5S34,17.328,34,16.5c0-0.828,0.672-1.5,1.5-1.5S37,15.671,37,16.5 z"/><path fill="#616161" d="M35,14.5c0,0.828-0.672,1.5-1.5,1.5S32,15.328,32,14.5s0.672-1.5,1.5-1.5S35,13.671,35,14.5z"/><path fill="#616161" d="M33,12.5c0,0.828-0.672,1.5-1.5,1.5S30,13.328,30,12.5s0.672-1.5,1.5-1.5S33,11.671,33,12.5z"/><path fill="#616161" d="M31,10.5c0,0.828-0.672,1.5-1.5,1.5S28,11.328,28,10.5S28.672,9,29.5,9S31,9.671,31,10.5z"/><path fill="#616161" d="M29,8.5c0,0.828-0.672,1.5-1.5,1.5S26,9.328,26,8.5S26.672,7,27.5,7S29,7.671,29,8.5z"/><path fill="#616161" d="M27,6.5C27,7.328,26.328,8,25.5,8S24,7.328,24,6.5S24.672,5,25.5,5S27,5.671,27,6.5z"/><path fill="#424242" d="M22,8.5c0,0.828,0.672,1.5,1.5,1.5S25,9.328,25,8.5S24.328,7,23.5,7S22,7.671,22,8.5z"/><path fill="#424242" d="M26,13.5c0,0.828,0.672,1.5,1.5,1.5s1.5-0.672,1.5-1.5S28.328,12,27.5,12S26,12.671,26,13.5z"/><path fill="#757575" d="M28,19.5c0,0.828,0.672,1.5,1.5,1.5s1.5-0.672,1.5-1.5S30.328,18,29.5,18S28,18.671,28,19.5z"/><path fill="#757575" d="M24,17.5c0,0.828,0.672,1.5,1.5,1.5s1.5-0.672,1.5-1.5S26.328,16,25.5,16S24,16.671,24,17.5z"/><path fill="#757575" d="M22,10.5c0,0.828,0.672,1.5,1.5,1.5s1.5-0.672,1.5-1.5S24.328,9,23.5,9S22,9.671,22,10.5z"/><path fill="#757575" d="M33,19.5c0,0.828,0.672,1.5,1.5,1.5s1.5-0.672,1.5-1.5S35.328,18,34.5,18S33,18.671,33,19.5z"/><path fill="#757575" d="M17,18.5c0,0.828,0.672,1.5,1.5,1.5s1.5-0.672,1.5-1.5S19.328,17,18.5,17S17,17.671,17,18.5z"/><path fill="#757575" d="M10,21.5c0,0.828,0.672,1.5,1.5,1.5s1.5-0.672,1.5-1.5S12.328,20,11.5,20S10,20.671,10,21.5z"/><path fill="#757575" d="M17,13.5c0,0.828,0.672,1.5,1.5,1.5s1.5-0.672,1.5-1.5S19.328,12,18.5,12S17,12.671,17,13.5z"/><path fill="#757575" d="M30,12.5c0,0.828,0.672,1.5,1.5,1.5s1.5-0.672,1.5-1.5S32.328,11,31.5,11S30,11.671,30,12.5z"/><path fill="#757575" d="M11,16.5c0,0.828,0.672,1.5,1.5,1.5s1.5-0.672,1.5-1.5c0-0.828-0.672-1.5-1.5-1.5S11,15.671,11,16.5 z"/><path fill="#757575" d="M21,6.5C21,7.328,21.672,8,22.5,8S24,7.328,24,6.5S23.328,5,22.5,5S21,5.671,21,6.5z"/><path fill="#424242" d="M19,14.5c0,0.828,0.672,1.5,1.5,1.5s1.5-0.672,1.5-1.5S21.328,13,20.5,13S19,13.671,19,14.5z"/><path fill="#424242" d="M13,18.5c0,0.828,0.672,1.5,1.5,1.5s1.5-0.672,1.5-1.5S15.328,17,14.5,17S13,17.671,13,18.5z"/><path fill="#424242" d="M19,21.5c0,0.828,0.672,1.5,1.5,1.5s1.5-0.672,1.5-1.5S21.328,20,20.5,20S19,20.671,19,21.5z"/><path fill="#424242" d="M22,17.5c0,0.828,0.672,1.5,1.5,1.5s1.5-0.672,1.5-1.5S24.328,16,23.5,16S22,16.671,22,17.5z"/><path fill="#424242" d="M28,21.5c0,0.828,0.672,1.5,1.5,1.5s1.5-0.672,1.5-1.5S30.328,20,29.5,20S28,20.671,28,21.5z"/><path fill="#424242" d="M30,17.5c0,0.828,0.672,1.5,1.5,1.5s1.5-0.672,1.5-1.5S32.328,16,31.5,16S30,16.671,30,17.5z"/><path fill="#424242" d="M35,21.5c0,0.828,0.672,1.5,1.5,1.5s1.5-0.672,1.5-1.5S37.328,20,36.5,20S35,20.671,35,21.5z"/><path fill="#8d6e63" d="M20,10.5c0,0.828,0.672,1.5,1.5,1.5s1.5-0.672,1.5-1.5S22.328,9,21.5,9S20,9.672,20,10.5z"/><path fill="#8d6e63" d="M15,17.5c0,0.828,0.672,1.5,1.5,1.5c0.828,0,1.5-0.672,1.5-1.5S17.328,16,16.5,16S15,16.672,15,17.5 z"/><path fill="#8d6e63" d="M26,21.5c0,0.828,0.672,1.5,1.5,1.5s1.5-0.672,1.5-1.5S28.328,20,27.5,20S26,20.672,26,21.5z"/><path fill="#8d6e63" d="M24,15.5c0,0.828,0.672,1.5,1.5,1.5s1.5-0.672,1.5-1.5c0-0.828-0.672-1.5-1.5-1.5S24,14.672,24,15.5 z"/><path fill="#8d6e63" d="M31,18.5c0,0.828,0.672,1.5,1.5,1.5s1.5-0.672,1.5-1.5S33.328,17,32.5,17S31,17.672,31,18.5z"/><path fill="#bcaaa4" d="M3,22c-0.552,0-1,0.448-1,1v0.5C2,31.426,7.339,37.951,15,41l1,1h16l1-1 c7.661-3.049,13-9.574,13-17.5V23c0-0.552-0.448-1-1-1H3z"/><path fill="#795548" d="M15,41v3h18v-3H15z"/></svg>