<svg xmlns="http://www.w3.org/2000/svg" xmlns:xlink="http://www.w3.org/1999/xlink" viewBox="0 0 48 48"><ellipse cx="24" cy="23.5" fill="#616161" rx="20" ry="17.5"/><path fill="#bcaaa4" d="M3,22c-0.552,0-1,0.448-1,1v0.5C2,31.426,7.339,37.951,15,41l1,1h16l1-1 c7.661-3.049,13-9.574,13-17.5V23c0-0.552-0.448-1-1-1H3z"/><path fill="#795548" d="M15,41v3h18v-3H15z"/><path fill="#424242" d="M27.841,6.159c-0.37-0.37-1.271-0.07-2.012,0.671c-0.741,0.741-1.041,1.642-0.671,2.012 c0.37,0.37,1.271,0.07,2.012-0.671C27.911,7.43,28.212,6.529,27.841,6.159z"/><path fill="#424242" d="M18.171,7.829c-0.741-0.741-1.642-1.041-2.012-0.671c-0.37,0.37-0.07,1.271,0.671,2.012 c0.741,0.741,1.642,1.041,2.012,0.671C19.212,9.471,18.911,8.57,18.171,7.829z"/><path fill="#424242" d="M40.841,13.159c-0.37-0.37-1.271-0.07-2.012,0.671c-0.741,0.741-1.041,1.642-0.671,2.012 c0.37,0.37,1.271,0.07,2.012-0.671C40.911,14.43,41.212,13.529,40.841,13.159z"/><ellipse cx="7" cy="17" fill="#424242" rx="2" ry="1"/><path fill="#424242" d="M29.841,17.159c-0.37-0.37-1.271-0.07-2.012,0.671c-0.741,0.741-1.041,1.642-0.671,2.012 c0.37,0.37,1.271,0.07,2.012-0.671C29.911,18.43,30.212,17.529,29.841,17.159z"/><ellipse cx="38" cy="19" fill="#424242" rx="2" ry="1"/><path fill="#424242" d="M15.841,15.159c-0.37-0.37-1.271-0.07-2.012,0.671c-0.741,0.741-1.041,1.642-0.671,2.012 c0.37,0.37,1.271,0.07,2.012-0.671C15.911,16.43,16.212,15.529,15.841,15.159z"/><path fill="#424242" d="M33.171,13.829c-0.741-0.741-1.642-1.041-2.012-0.671c-0.37,0.37-0.07,1.271,0.671,2.012 c0.741,0.741,1.642,1.041,2.012,0.671C34.212,15.471,33.911,14.57,33.171,13.829z"/><path fill="#424242" d="M12.171,10.829c-0.741-0.741-1.642-1.041-2.012-0.671c-0.37,0.37-0.07,1.271,0.671,2.012 c0.741,0.741,1.642,1.041,2.012,0.671C13.212,12.471,12.911,11.57,12.171,10.829z"/><path fill="#424242" d="M20.841,17.159c-0.37-0.37-1.271-0.07-2.012,0.671c-0.741,0.741-1.041,1.642-0.671,2.012 c0.37,0.37,1.271,0.07,2.012-0.671C20.911,18.43,21.212,17.529,20.841,17.159z"/><path fill="#424242" d="M34.841,8.159c-0.37-0.37-1.271-0.07-2.012,0.671c-0.741,0.741-1.041,1.642-0.671,2.012 c0.37,0.37,1.271,0.07,2.012-0.671C34.911,9.43,35.212,8.529,34.841,8.159z"/><path fill="#424242" d="M24.171,12.829c-0.741-0.741-1.642-1.041-2.012-0.671c-0.37,0.37-0.07,1.271,0.671,2.012 c0.741,0.741,1.642,1.041,2.012,0.671C25.212,14.471,24.911,13.57,24.171,12.829z"/></svg>