<svg xmlns="http://www.w3.org/2000/svg" xmlns:xlink="http://www.w3.org/1999/xlink" viewBox="0 0 48 48"><path fill="#558b2f" d="M17,3C13,3,7,6,7,13c0,7.981,11,10,14,18c0,0,7-9,7-18S21,3,17,3z"/><path fill="#689f38" d="M15.77,15.472c-2.388-3.891-6.19-5.049-6.19-5.049c0.027,0.025,2.729,2.563,4.876,6.792c0.111,0.219,0.216,0.457,0.321,0.695L15.77,15.472z"/><path fill="#9ccc65" d="M24,25h-3c0,9-6,11-6,16c0,3.314,2.686,6,6,6s6-2.686,6-6C27,38,24,31,24,25z"/><path fill="#558b2f" d="M31,3c4,0,10,3,10,10c0,7.981-10,10-14,18c0,0-7-9-7-18S27,3,31,3z"/><path fill="#689f38" d="M32.23,15.472c2.388-3.891,6.19-5.049,6.19-5.049c-0.027,0.025-2.729,2.563-4.876,6.792c-0.111,0.219-0.216,0.457-0.321,0.695L32.23,15.472z"/><path fill="#9ccc65" d="M23,25h3c0,9,6,11,6,16c0,3.314-2.686,6-6,6s-6-2.686-6-6C20,38,23,31,23,25z"/><path fill="#7cb342" d="M24,36c0,0-10-12.065-10-21.935S20,2,24,2C24,5.29,24,36,24,36z"/><path fill="#7cb342" d="M24,36c0,0,10-12.065,10-21.935S28,2,24,2C24,5.29,24,36,24,36z"/><path fill="#9ccc65" d="M24.016,32.179c-0.315-1.738-1.447-4.255-2.645-6.918c-1.407-3.13-2.862-6.366-3.355-9.083c-0.915-5.038,1.745-8.715,1.745-8.715c-0.006,0.036-0.624,3.692,0.223,8.358c0.45,2.477,1.854,5.6,3.211,8.62c1.25,2.778,2.43,5.402,2.789,7.381L24.016,32.179z"/><path fill="#9ccc65" d="M23.792,32.179c0.315-1.738,1.447-4.255,2.645-6.918c1.407-3.13,2.862-6.366,3.355-9.083c0.915-5.038-1.745-8.715-1.745-8.715c0.006,0.036,0.624,3.692-0.223,8.358c-0.45,2.477-1.854,5.6-3.211,8.62c-1.25,2.778-2.43,5.402-2.789,7.381L23.792,32.179z"/><path fill="#c5e1a5" d="M25,24h-3c0,9-4,13-4,16c0,3.314,2.462,6,5.5,6s5.5-2.686,5.5-6C29,37,25,30,25,24z"/><path fill="#c5e1a5" d="M25,5c0,0-3,9-3,19h3C25,20,24.25,11,25,5z"/></svg>