<svg xmlns="http://www.w3.org/2000/svg" xmlns:xlink="http://www.w3.org/1999/xlink" viewBox="0 0 48 48"><polygon fill="#ffcc80" points="7,23 7,22 24,5 41,22 41,23"/><circle cx="24" cy="7" r="3" fill="#ffcc80"/><circle cx="27" cy="8" r="2" fill="#ffcc80"/><circle cx="29" cy="10" r="2" fill="#ffcc80"/><circle cx="31" cy="12" r="2" fill="#ffcc80"/><circle cx="33" cy="14" r="2" fill="#ffcc80"/><circle cx="35" cy="16" r="2" fill="#ffcc80"/><circle cx="37" cy="18" r="2" fill="#ffcc80"/><circle cx="39" cy="20" r="2" fill="#ffcc80"/><circle cx="41" cy="22" r="2" fill="#ffcc80"/><circle cx="21" cy="8" r="2" fill="#ffcc80"/><circle cx="19" cy="10" r="2" fill="#ffcc80"/><circle cx="17" cy="12" r="2" fill="#ffcc80"/><circle cx="15" cy="14" r="2" fill="#ffcc80"/><circle cx="13" cy="16" r="2" fill="#ffcc80"/><circle cx="11" cy="18" r="2" fill="#ffcc80"/><circle cx="9" cy="20" r="2" fill="#ffcc80"/><circle cx="7" cy="22" r="2" fill="#ffcc80"/><circle cx="24" cy="8" r="1" fill="#ffb74d"/><circle cx="25" cy="18" r="1" fill="#ffb74d"/><circle cx="27" cy="12" r="1" fill="#ffa726"/><circle cx="17" cy="15" r="1" fill="#ffa726"/><circle cx="20" cy="11" r="1" fill="#ffb74d"/><circle cx="31" cy="15" r="1" fill="#ffa726"/><circle cx="30" cy="19" r="1" fill="#ffa726"/><circle cx="36" cy="19" r="1" fill="#ffb74d"/><circle cx="23" cy="14" r="1" fill="#ffa726"/><circle cx="13" cy="19" r="1" fill="#ffa726"/><circle cx="20" cy="19" r="1" fill="#ffb74d"/><path fill="#bcaaa4" d="M3,22c-0.552,0-1,0.448-1,1v0.5C2,31.426,7.339,37.951,15,41l1,1h16l1-1 c7.661-3.049,13-9.574,13-17.5V23c0-0.552-0.448-1-1-1H3z"/><path fill="#795548" d="M15,41v3h18v-3H15z"/></svg>