<svg xmlns="http://www.w3.org/2000/svg" xmlns:xlink="http://www.w3.org/1999/xlink" viewBox="0 0 48 48"><path fill="#ffeacf" d="M5,35V9.18C5,6.871,6.871,5,9.18,5h29.64C41.129,5,43,6.871,43,9.18V35H5z"/><path fill="#b0bec5" d="M32.5 23A1.5 1.5 0 1 0 32.5 26A1.5 1.5 0 1 0 32.5 23Z"/><path fill="#94a3a8" d="M40,33H25c-0.552,0-1-0.448-1-1v0c0-0.552,0.448-1,1-1h15c0.552,0,1,0.448,1,1v0 C41,32.552,40.552,33,40,33z"/><path fill="#b0bec5" d="M39.975,31c-0.228-3.903-3.456-7-7.415-7s-7.188,3.097-7.415,7H39.975z"/><path fill="#fff" d="M28.5,28.5c-0.09,0-0.18-0.023-0.261-0.073c-0.235-0.145-0.31-0.452-0.166-0.688 c0.304-0.496,1.182-1.704,2.774-2.216c0.261-0.082,0.544,0.06,0.629,0.324c0.084,0.263-0.061,0.544-0.324,0.629 c-1.309,0.42-2.034,1.472-2.226,1.784C28.832,28.415,28.668,28.5,28.5,28.5z"/><path fill="#7bbdea" d="M28.262 21.5c-.087 0-.174-.022-.254-.069-.238-.14-.317-.446-.177-.685l.133-.224c.368-.614.536-.894.536-1.768 0-.455-.223-.838-.459-1.243-.186-.319-.378-.65-.462-1.026-.2-.904-.029-1.801.524-2.739.14-.238.447-.315.685-.177.238.14.317.446.177.685-.419.71-.553 1.369-.409 2.015.05.225.195.475.35.739.265.456.595 1.022.595 1.747 0 1.15-.284 1.625-.678 2.281l-.13.218C28.6 21.412 28.433 21.5 28.262 21.5zM32.262 21.5c-.087 0-.174-.022-.254-.069-.238-.14-.317-.446-.177-.685l.133-.224c.368-.614.536-.894.536-1.768 0-.455-.223-.838-.459-1.243-.186-.319-.378-.65-.462-1.026-.2-.904-.029-1.801.524-2.739.14-.238.446-.315.685-.177.238.14.317.446.177.685-.419.71-.553 1.369-.409 2.015.05.225.195.475.35.739.265.456.595 1.022.595 1.747 0 1.15-.284 1.625-.678 2.281l-.13.218C32.6 21.412 32.433 21.5 32.262 21.5zM36.262 21.5c-.087 0-.174-.022-.254-.069-.238-.14-.317-.446-.177-.685l.133-.224c.368-.614.536-.894.536-1.768 0-.455-.223-.838-.459-1.243-.186-.319-.378-.65-.462-1.026-.2-.904-.029-1.801.524-2.739.141-.238.447-.315.685-.177.238.14.317.446.177.685-.419.71-.553 1.369-.409 2.015.05.225.195.475.35.739.265.456.595 1.022.595 1.747 0 1.15-.284 1.625-.678 2.281l-.13.218C36.6 21.412 36.433 21.5 36.262 21.5z"/><path fill="#ffc107" d="M14.5 33.5c-.276 0-.5-.224-.5-.5v-9c0-.276.224-.5.5-.5S15 23.724 15 24v9C15 33.276 14.776 33.5 14.5 33.5zM15.234 32.772L10.747 25"/><path fill="#ffc107" d="M15.234 33.272c-.172 0-.341-.09-.433-.25l-4.487-7.772c-.139-.239-.057-.545.183-.683.238-.14.545-.057.683.183l4.487 7.772c.139.239.057.545-.183.683C15.405 33.251 15.319 33.272 15.234 33.272zM16.242 32.544L8.061 27.643"/><path fill="#ffc107" d="M16.242 33.044c-.088 0-.177-.022-.257-.071l-8.181-4.901c-.237-.142-.314-.449-.172-.686.142-.237.449-.316.686-.172l8.181 4.901c.237.142.314.449.172.686C16.577 32.957 16.412 33.044 16.242 33.044zM13.393 33.417L18.253 25"/><path fill="#ffc107" d="M13.394 33.917c-.085 0-.171-.021-.25-.067-.239-.138-.321-.443-.183-.683l4.859-8.417c.138-.239.445-.32.683-.183.239.138.321.443.183.683l-4.859 8.417C13.734 33.827 13.565 33.917 13.394 33.917zM11.553 33.265L20.939 27.643"/><path fill="#ffc107" d="M11.553,33.766c-0.17,0-0.335-0.087-0.429-0.243c-0.143-0.236-0.065-0.544,0.172-0.686l9.386-5.623 c0.234-0.145,0.543-0.065,0.686,0.172c0.143,0.236,0.065,0.544-0.172,0.686l-9.386,5.623 C11.729,33.743,11.641,33.766,11.553,33.766z"/><g><path fill="#ffc107" d="M22,32H7c-0.276,0-0.5-0.224-0.5-0.5S6.724,31,7,31h15c0.276,0,0.5,0.224,0.5,0.5S22.276,32,22,32z"/></g><g><path fill="#ffc107" d="M18.512,33.5c0.302-0.605,0.488-1.278,0.488-2c0-2.485-2.015-4.5-4.5-4.5S10,29.015,10,31.5 c0,0.722,0.186,1.395,0.488,2H18.512z"/></g><g><path fill="#39dee2" d="M43,33H5v5.723C5,41.085,6.915,43,9.277,43h29.445C41.085,43,43,41.085,43,38.723V33z"/></g></svg>