<svg xmlns="http://www.w3.org/2000/svg" xmlns:xlink="http://www.w3.org/1999/xlink" width="48" height="48" viewBox="0 0 48 48"><path fill="#FF9800" d="M9.711,39c-1.197,0-2.291-0.812-2.61-2.034c-0.378-1.456,0.482-2.946,1.923-3.33c0.056-0.017,1.23-0.352,2.902-1.007C7.494,29.203,6.028,24.123,6,20.844C6.107,12.14,13.124,9,17.812,9c1.901,0,4.177,0.518,6.214,1.701C25.693,9.657,27.799,9,30.412,9c3.402,0,6.169,1.065,8.225,3.168c3.33,3.406,3.369,8.155,3.363,8.686c0.002,0.188,0.002,6.056-4.393,10.535c-0.473,0.479-0.976,0.928-1.507,1.337c0.946,0.319,1.966,0.623,3.065,0.901c1.447,0.365,2.327,1.845,1.965,3.307c-0.361,1.461-1.83,2.354-3.273,1.982c-3.416-0.862-6.223-1.947-8.531-3.159c-1.606,0.341-3.346,0.513-5.213,0.513c-2.114,0-3.999-0.22-5.676-0.618c-4.031,2.165-7.698,3.168-8.037,3.257C10.17,38.968,9.938,39,9.711,39z M27.467,27.836c0.703,0.685,1.553,1.371,2.58,2.041c6.293-2.327,6.548-8.236,6.553-9.055c-0.002-1.079-0.307-6.365-6.188-6.365c-0.901,0-1.674,0.121-2.337,0.334c0.892,1.613,1.437,3.605,1.437,6.029C29.512,23.485,28.723,25.816,27.467,27.836z M17.794,14.457c-1.025,0.013-6.32,0.394-6.395,6.397c0.019,0.745,0.366,6.445,6.362,8.875c0.975-0.62,1.924-1.309,2.779-2.075c-1.844-3.348-1.859-6.195-1.828-6.908c0.011-1.802,0.468-3.922,1.495-5.861C19.147,14.516,18.184,14.463,17.794,14.457z"/><path fill="#FF9800" d="M38.514,39c-0.217,0-0.438-0.029-0.656-0.084c-19.063-4.813-19.211-16.61-19.145-18.169C18.744,15.995,21.872,9,30.412,9c1.49,0,2.7,1.223,2.7,2.73c0,1.504-1.21,2.727-2.7,2.727c-6.123,0-6.299,5.711-6.299,6.363c0,0.073-0.003,0.147-0.01,0.224c-0.014,0.311-0.246,8.717,15.063,12.583c1.447,0.365,2.327,1.845,1.965,3.307C40.824,38.172,39.724,39,38.514,39z"/><path fill="#D66100" d="M30.053 29.873c1.566 1.026 3.549 2.002 6.051 2.849.531-.408 1.033-.855 1.504-1.333.023-.024.041-.047.061-.068-2.324-.71-4.193-1.523-5.691-2.378C31.406 29.289 30.773 29.608 30.053 29.873zM20.208 14.885c-.007.01-.013.023-.018.037.988-1.888 2.519-3.604 4.697-4.696-.298.149-.587.304-.861.476-.614-.356-1.253-.647-1.897-.886-1.67 1.286-2.89 2.931-3.728 4.678C18.875 14.537 19.52 14.645 20.208 14.885zM11.925 32.629c1.659-.652 3.804-1.619 5.833-2.9-.706-.287-1.326-.623-1.885-.986-2.007 1.146-4.063 1.994-5.487 2.519C10.855 31.737 11.367 32.196 11.925 32.629zM25.253 33.119c1.353-1.203 2.589-2.566 3.587-4.103-.508-.392-.968-.787-1.373-1.181.076-.123.146-.252.219-.377-2.299 3.946-6.386 6.75-10.017 8.593.255-.13.511-.263.769-.4.864.204 1.788.361 2.765.467 1.893.134 2.798.288 5.247.05 1.001-.082 1.963-.218 2.878-.411.291.152.592.302.9.452C28.246 35.254 26.611 34.205 25.253 33.119zM28.828 16.555c-.213-.626-.455-1.225-.753-1.764.049-.016.108-.021.159-.036l-.053-.114c-.162.074-3.989 1.868-4.896 6.336-.559 2.75-2.876 4.491-3.551 4.947.223.558.477 1.132.807 1.73-.013.012-.027.021-.04.032l.051.088c.157-.092 3.857-2.295 4.692-6.399C25.853 18.383 28.149 16.926 28.828 16.555z"/><g><path fill="#FFF9C4" d="M10.053 23.002c.552.031.974.502.943 1.054S10.494 25.029 9.941 25C9.39 24.969 8 23.89 8 23.89S9.5 22.971 10.053 23.002zM40 20c0 .553-.447 1-1 1s-1-.447-1-1 1-2 1-2S40 19.447 40 20zM12.888 13.236c-.254.49-.858.682-1.348.428s-.682-.857-.427-1.348C11.367 11.825 12.921 11 12.921 11S13.143 12.746 12.888 13.236zM31.398 12.545c-.375.406-1.007.434-1.413.06-.407-.374-.435-1.006-.06-1.413.373-.406 2.09-.796 2.09-.796S31.771 12.138 31.398 12.545zM37.469 13.484c.553-.018 1.014.416 1.03.969.018.552-.415 1.014-.968 1.031S35.5 14.547 35.5 14.547 36.916 13.502 37.469 13.484zM21.968 17c.553-.018 1.014.416 1.031.969.018.552-.416 1.014-.968 1.031C21.478 19.017 20 18.063 20 18.063S21.416 17.018 21.968 17zM20.002 20.918c.05-.551.536-.956 1.086-.906s.956.535.906 1.086C21.944 21.648 20.818 23 20.818 23S19.952 21.468 20.002 20.918zM15.969 11c.553-.018 1.014.416 1.031.969.018.552-.416 1.014-.968 1.031-.552.017-2.03-.938-2.03-.938S15.417 11.018 15.969 11zM38.258 26.977c-.539.117-1.072-.224-1.189-.764-.117-.539.225-1.072.764-1.189C38.373 24.906 40 25.574 40 25.574S38.799 26.859 38.258 26.977zM25.213 14.977c-.54.117-1.072-.224-1.189-.764-.118-.539.224-1.072.764-1.189s2.168.551 2.168.551S25.754 14.859 25.213 14.977zM9.258 17.967c-.54.117-1.072-.224-1.189-.764-.118-.539.224-1.072.764-1.189S11 16.564 11 16.564 9.799 17.85 9.258 17.967zM33.999 11.959c.022.55-.405 1.017-.957 1.041-.552.021-1.019-.405-1.042-.957-.022-.554.916-2.041.916-2.041S33.976 11.405 33.999 11.959z"/></g></svg>