<svg xmlns="http://www.w3.org/2000/svg" xmlns:xlink="http://www.w3.org/1999/xlink" viewBox="0 0 48 48"><circle cx="24" cy="21" r="17" fill="#795548"/><path fill="#ffeb3b" d="M29.974,12c-0.3,0-0.6-0.1-0.8-0.4c-0.3-0.4-0.2-1.1,0.2-1.4l2.3-1.8c0.4-0.3,1.1-0.2,1.4,0.2s0.2,1.1-0.2,1.4l-2.3,1.8C30.374,11.9,30.174,12,29.974,12z"/><path fill="#ffeb3b" d="M10.969,17c-0.2,0-0.3,0-0.5-0.1c-0.5-0.3-0.6-0.9-0.3-1.4l1.7-2.8c0.3-0.5,0.9-0.6,1.4-0.4c0.5,0.3,0.6,0.9,0.4,1.4l-1.7,2.8C11.669,16.8,11.369,17,10.969,17z"/><path fill="#8bc34a" d="M18.015,16.615c-0.5,0-0.9-0.3-1-0.8c-0.1-0.5,0.3-1.1,0.8-1.2l3.3-0.6c0.5-0.1,1.1,0.3,1.2,0.8s-0.3,1.1-0.8,1.2l-3.3,0.6C18.115,16.615,18.115,16.615,18.015,16.615z"/><path fill="#ff4081" d="M24.226,10c-0.2,0-0.4-0.1-0.6-0.2c-0.4-0.3-0.5-1-0.2-1.4l1.8-2.4c0.3-0.4,1-0.5,1.4-0.2s0.5,1,0.2,1.4l-1.8,2.4C24.826,9.8,24.526,10,24.226,10z"/><path fill="#4dd0e1" d="M19.055,12c-0.3,0-0.5-0.1-0.7-0.3l-2.1-2.3c-0.4-0.4-0.3-1,0.1-1.4c0.4-0.4,1-0.3,1.4,0.1l2.1,2.3c0.4,0.4,0.3,1-0.1,1.4C19.555,11.9,19.255,12,19.055,12z"/><path fill="#4dd0e1" d="M28.945,17.255c-0.3,0-0.5-0.1-0.7-0.3l-2.1-2.3c-0.4-0.4-0.3-1,0.1-1.4c0.4-0.4,1-0.3,1.4,0.1l2.1,2.3c0.4,0.4,0.3,1-0.1,1.4C29.445,17.155,29.145,17.255,28.945,17.255z"/><path fill="#fff" d="M36.226,17.9C36.226,17.9,36.126,17.9,36.226,17.9c-0.6,0-1-0.5-1-1l0.2-3.4c0-0.6,0.5-1,1-0.9c0.6,0,1,0.5,1,1l-0.2,3.4C37.226,17.5,36.726,17.9,36.226,17.9z"/><path fill="#ff80ab" d="M36,42H12L4,22l3.594,2.991L10.875,22l3.281,2.991L17.438,22l3.281,2.991L24,22l3.281,2.991L30.563,22l3.281,2.991L37.125,22l3.281,2.991L44,22L36,42z"/><path fill="#5d4037" d="M7.594,24.991L10.875,22l3.281,2.991L17.437,22l3.281,2.991L24,22l3.281,2.991L30.562,22l3.281,2.991L37.125,22l3.281,2.991l0.11-0.092c0.226-0.961,0.381-1.949,0.436-2.965l-0.487,0.405l-3.341-3.046l-3.281,2.991l-3.281-2.991l-3.281,2.991L24,19.293l-3.281,2.991l-3.281-2.991l-3.281,2.991l-3.281-2.991l-3.341,3.046l-0.487-0.405c0.055,1.016,0.211,2.004,0.436,2.965L7.594,24.991z"/><path fill="#f8bbd0" d="M17.438,22l-3.281,2.991L18,42h2L17.438,22z M10.875,22l-3.281,2.991L14,42h2L10.875,22z M30.543,22l-3.262,2.991L26,42h2L30.543,22z M37.105,22l-3.262,2.991L30,42h2L37.105,22z M44,22l-3.594,2.991L34,42h2L44,22z M24,22l-3.281,2.991L22,42l2,0V22z"/></svg>