<svg xmlns="http://www.w3.org/2000/svg" xmlns:xlink="http://www.w3.org/1999/xlink" viewBox="0 0 48 48"><path fill="#8bc34a" d="M22 23H26V43H22z"/><path fill="#8bc34a" d="M29 43h-4c0-12.6 6.2-20 6.5-20.3l3 2.6C34.5 25.4 29 32 29 43zM23 43h-4c0-11-5.5-17.6-5.5-17.7l3-2.6C16.8 23 23 30.4 23 43z"/><path fill="#558b2f" d="M37,20c0,3.9-3.1,7-7,7s-7-3.1-7-7s3.1-7,7-7S37,16.1,37,20z"/><path fill="#558b2f" d="M43 19c0 3.9-3.1 7-7 7s-7-3.1-7-7 3.1-7 7-7S43 15.1 43 19zM19 19c0 3.9-3.1 7-7 7s-7-3.1-7-7 3.1-7 7-7S19 15.1 19 19z"/><path fill="#558b2f" d="M28,21c0,4.4-3.6,8-8,8s-8-3.6-8-8s3.6-8,8-8S28,16.6,28,21z"/><path fill="#558b2f" d="M25,12c0,3.9-3.1,7-7,7s-7-3.1-7-7s3.1-7,7-7S25,8.1,25,12z"/><path fill="#558b2f" d="M36,13c0,3.9-3.1,7-7,7s-7-3.1-7-7s3.1-7,7-7S36,9.1,36,13z"/><path fill="#689f38" d="M22 34.5c-1.8-7.3-5.3-11.5-5.5-11.8L16 22c5 9 6 20 6 20V34.5zM26 34.5c1.8-7.3 5.3-11.5 5.5-11.8L32 22c-5 9-6 20-6 20V34.5z"/><path fill="#689f38" d="M28,21c0,4.4-3.6,8-8,8s-8-3.6-8-8s3.6-8,8-8S28,16.6,28,21z"/><path fill="#689f38" d="M12.9 25.9C11.7 24.4 11 22.4 11 20c0-3.3 1.6-5.8 4-7.3-.9-.4-1.9-.7-3-.7-3.9 0-7 3.1-7 7s3.1 7 7 7c.3 0 .7 0 1-.1 0 0 0 0 0 0C13 25.9 12.9 25.9 12.9 25.9zM36 12c-.7 0-1.3.1-1.9.3 2.4 1.3 3.9 3.7 3.9 6.7 0 3.2-1.2 5.5-3.4 6.9-.2 0-.4-.1-.5-.1.6.2 1.3.3 2 .3 3.9 0 7-3.1 7-7S39.9 12 36 12z"/><path fill="#689f38" d="M30,13c-1.5,0-3.7,1-3.4,0.9c1.5,1.5,2.4,3.6,2.4,6.1c0,2.6-0.8,4.7-2.1,6.2c0.9,0.5,2,0.8,3.1,0.8 c3.9,0,7-3.1,7-7S33.9,13,30,13z"/><path fill="#33691e" d="M16 11c0 .6-.4 1-1 1s-1-.4-1-1 .4-1 1-1S16 10.4 16 11zM18 8c0 .6-.4 1-1 1s-1-.4-1-1 .4-1 1-1S18 7.4 18 8zM20 11c0 .6-.4 1-1 1s-1-.4-1-1 .4-1 1-1S20 10.4 20 11zM32 9c0 .6-.4 1-1 1s-1-.4-1-1 .4-1 1-1S32 8.4 32 9zM34 23c0 .6-.4 1-1 1s-1-.4-1-1 .4-1 1-1S34 22.4 34 23zM36 20c0 .6-.4 1-1 1s-1-.4-1-1 .4-1 1-1S36 19.4 36 20zM32 20c0 .6-.4 1-1 1s-1-.4-1-1 .4-1 1-1S32 19.4 32 20zM39 15c0 .6-.4 1-1 1s-1-.4-1-1 .4-1 1-1S39 14.4 39 15zM41 18c0 .6-.4 1-1 1s-1-.4-1-1 .4-1 1-1S41 17.4 41 18zM18 18c0 .6-.4 1-1 1s-1-.4-1-1 .4-1 1-1S18 17.4 18 18zM16 21c0 .6-.4 1-1 1s-1-.4-1-1 .4-1 1-1S16 20.4 16 21zM20 21c0 .6-.4 1-1 1s-1-.4-1-1 .4-1 1-1S20 20.4 20 21zM18 24c0 .6-.4 1-1 1s-1-.4-1-1 .4-1 1-1S18 23.4 18 24zM24.6 14.4c.2.2.4.3.6.5.5-1.1.8-2.4.8-3.9 0-1.5-.3-2.8-.8-3.9-.5.3-.9.7-1.3 1.1C24.6 9.3 25 10.6 25 12 25 12.9 24.8 13.7 24.6 14.4z"/></svg>