<svg xmlns="http://www.w3.org/2000/svg" xmlns:xlink="http://www.w3.org/1999/xlink" viewBox="0 0 48 48"><rect width="5" height="21" x="18" y="16" fill="#558b2f"/><path fill="none" stroke="#9ccc65" stroke-width="2" d="M35,20c-3,2-7.61,6.175-9,12"/><path fill="none" stroke="#9bcb67" stroke-width="2" d="M10,17c3,3,6,6,9,11"/><path fill="#7cb342" d="M20,46h-3c0.716-2.689,1.075-5.392,1-8.11c0-8.89-1-15.698-2.929-20.519l1.857-0.743C19,21.807,21,28,21,37.89C21,41,21,43,20,46z"/><path fill="#7cb342" d="M28,46h-3c-0.617-3.808-0.981-7.523-1-11.11c0-5.947,1-11.083,3.071-16.262l1.857,0.743C27,24.192,27,29.15,27,34.89C27.01,38.567,27.362,42.272,28,46z"/><path fill="#558b2f" d="M32,12.714c0-1.589-1.029-2.929-2.451-3.426c0.004-0.073,0.022-0.143,0.022-0.217c0-2.009-1.634-3.643-3.643-3.643c-0.936,0-1.783,0.365-2.429,0.947c-0.646-0.583-1.492-0.947-2.429-0.947c-2.009,0-3.643,1.634-3.643,3.643c0,0.074,0.018,0.144,0.022,0.217C16.029,9.785,15,11.125,15,12.714s1.029,2.929,2.451,3.426c-0.004,0.073-0.022,0.143-0.022,0.217c0,2.009,1.634,3.643,3.643,3.643c0.936,0,1.783-0.365,2.429-0.947C24.146,19.635,24.992,20,25.929,20c2.009,0,3.643-1.634,3.643-3.643c0-0.074-0.018-0.144-0.022-0.217C30.971,15.643,32,14.303,32,12.714z"/><path fill="#c5e1a5" d="M25,46h-3c-0.634-3.322-1-6-1-11.11C21,28,24,18,28.293,13.293l1.414,1.414C26,19,24,27.93,24,32.89C23.97,37.702,24.209,42.188,25,46z"/><path fill="#558b2f" d="M23,10.714c0-1.589-1.029-2.929-2.451-3.426c0.004-0.073,0.022-0.143,0.022-0.217c0-2.009-1.634-3.643-3.643-3.643c-0.936,0-1.783,0.365-2.429,0.947c-0.646-0.583-1.492-0.947-2.429-0.947c-2.009,0-3.643,1.634-3.643,3.643c0,0.074,0.018,0.144,0.022,0.217C7.029,7.785,6,9.125,6,10.714s1.029,2.929,2.451,3.426c-0.004,0.073-0.022,0.143-0.022,0.217c0,2.009,1.634,3.643,3.643,3.643c0.936,0,1.783-0.365,2.429-0.947C15.146,17.635,15.992,18,16.929,18c2.009,0,3.643-1.634,3.643-3.643c0-0.074-0.018-0.144-0.022-0.217C21.971,13.643,23,12.303,23,10.714z"/><path fill="#558b2f" d="M42,14.714c0-1.589-1.029-2.929-2.451-3.426c0.004-0.073,0.022-0.143,0.022-0.217c0-2.009-1.634-3.643-3.643-3.643c-0.936,0-1.783,0.365-2.429,0.947c-0.646-0.583-1.492-0.947-2.429-0.947c-2.009,0-3.643,1.634-3.643,3.643c0,0.074,0.018,0.144,0.022,0.217C26.029,11.785,25,13.125,25,14.714s1.029,2.929,2.451,3.426c-0.004,0.073-0.022,0.143-0.022,0.217c0,2.009,1.634,3.643,3.643,3.643c0.936,0,1.783-0.365,2.429-0.947C34.146,21.635,34.992,22,35.929,22c2.009,0,3.643-1.634,3.643-3.643c0-0.074-0.018-0.144-0.022-0.217C40.971,17.643,42,16.303,42,14.714z"/><path fill="#7cb342" d="M17,12c0-1.654-1.346-3-3-3c-0.771,0-1.468,0.301-2,0.78C11.468,9.3,10.771,9,10,9S8.532,9.3,8,9.78 C7.468,9.3,6.771,9,6,9c-1.654,0-3,1.346-3,3c0,1.309,0.847,2.412,2.018,2.821C5.014,14.882,5,14.939,5,15c0,1.654,1.346,3,3,3 c0.771,0,1.468-0.301,2-0.78c0.532,0.48,1.229,0.78,2,0.78c1.654,0,3-1.346,3-3c0-0.061-0.014-0.118-0.018-0.179 C16.153,14.412,17,13.308,17,12z"/><circle cx="14" cy="12" r="1" fill="#c5e1a5"/><circle cx="12" cy="15" r="1" fill="#c5e1a5"/><circle cx="8" cy="15" r="1" fill="#c5e1a5"/><circle cx="10" cy="12" r="1" fill="#c5e1a5"/><circle cx="6" cy="12" r="1" fill="#c5e1a5"/><g><path fill="#9aca68" d="M31,6c0-1.654-1.346-3-3-3c-0.771,0-1.468,0.301-2,0.78C25.468,3.3,24.771,3,24,3 S22.532,3.3,22,3.78C21.468,3.3,20.771,3,20,3c-1.654,0-3,1.346-3,3c0,1.309,0.847,2.412,2.018,2.821C19.014,8.882,19,8.939,19,9 c0,1.654,1.346,3,3,3c0.771,0,1.468-0.301,2-0.78c0.532,0.48,1.229,0.78,2,0.78c1.654,0,3-1.346,3-3 c0-0.061-0.014-0.118-0.018-0.179C30.153,8.412,31,7.308,31,6z"/><circle cx="28" cy="6" r="1" fill="#689f38"/><circle cx="26" cy="9" r="1" fill="#689f38"/><circle cx="22" cy="9" r="1" fill="#689f38"/><circle cx="24" cy="6" r="1" fill="#689f38"/><circle cx="20" cy="6" r="1" fill="#689f38"/></g><g><path fill="#7cb342" d="M41,13c0-1.654-1.346-3-3-3c-0.771,0-1.468,0.301-2,0.78C35.468,10.3,34.771,10,34,10 s-1.468,0.301-2,0.78C31.468,10.3,30.771,10,30,10c-1.654,0-3,1.346-3,3c0,1.309,0.847,2.412,2.018,2.821 C29.014,15.882,29,15.939,29,16c0,1.654,1.346,3,3,3c0.771,0,1.468-0.301,2-0.78c0.532,0.48,1.229,0.78,2,0.78c1.654,0,3-1.346,3-3 c0-0.061-0.014-0.118-0.018-0.179C40.153,15.412,41,14.308,41,13z"/><circle cx="38" cy="13" r="1" fill="#c5e1a5"/><circle cx="36" cy="16" r="1" fill="#c5e1a5"/><circle cx="32" cy="16" r="1" fill="#c5e1a5"/><circle cx="34" cy="13" r="1" fill="#c5e1a5"/><circle cx="30" cy="13" r="1" fill="#c5e1a5"/></g><g><path fill="#7cb342" d="M30,18c0-1.654-1.346-3-3-3c-0.771,0-1.468,0.301-2,0.78C24.468,15.3,23.771,15,23,15 s-1.468,0.301-2,0.78C20.468,15.3,19.771,15,19,15c-1.654,0-3,1.346-3,3c0,1.309,0.847,2.412,2.018,2.821 C18.014,20.882,18,20.939,18,21c0,1.654,1.346,3,3,3c0.771,0,1.468-0.301,2-0.78c0.532,0.48,1.229,0.78,2,0.78c1.654,0,3-1.346,3-3 c0-0.061-0.014-0.118-0.018-0.179C29.153,20.412,30,19.308,30,18z"/><circle cx="27" cy="18" r="1" fill="#c5e1a5"/><circle cx="25" cy="21" r="1" fill="#c5e1a5"/><circle cx="21" cy="21" r="1" fill="#c5e1a5"/><circle cx="23" cy="18" r="1" fill="#c5e1a5"/><circle cx="19" cy="18" r="1" fill="#c5e1a5"/></g></svg>