<svg xmlns="http://www.w3.org/2000/svg" xmlns:xlink="http://www.w3.org/1999/xlink" viewBox="0 0 48 48"><path fill="#455a64" d="M19,12V8h10v4h2V8c0-1.105-0.896-2-2-2H19c-1.105,0-2,0.895-2,2v4H19z"/><path fill="#546e7a" d="M44,37c0,2.762-2.238,5-5,5H9c-2.762,0-5-2.238-5-5V17c0-2.762,2.238-5,5-5h30c2.762,0,5,2.238,5,5 V37z"/><path fill="#ffd600" d="M12 33l.003 1.431c0 .866.638 1.569 1.426 1.569h21.146C35.362 36 36 35.297 36 34.431L35.997 33H12zM24.053 18c-8.884 0-12.033 3.581-12.033 8h24C36.02 21.581 33.168 18 24.053 18z"/><path fill="#ce8106" d="M20 20A1 1 0 1 0 20 22 1 1 0 1 0 20 20zM17 22A1 1 0 1 0 17 24 1 1 0 1 0 17 22z"/><path fill="#8d6e63" d="M35,28H13c-0.55,0-1-0.45-1-1v0c0-0.55,0.45-1,1-1h22c0.55,0,1,0.45,1,1v0C36,27.55,35.55,28,35,28z"/><path fill="#ff5722" d="M12 30H36V33H12z"/><path fill="#8bc34a" d="M12,29v1c1,0,2.167,1,3.5,1s2.684-1,3.976-1C21,30,22.208,31,24,31s3-1,4.524-1 c1.292,0,2.642,1,3.976,1s2.5-1,3.5-1v-1c0-0.552-0.448-1-1-1H13C12.448,28,12,28.448,12,29z"/></svg>