<svg xmlns="http://www.w3.org/2000/svg" xmlns:xlink="http://www.w3.org/1999/xlink" viewBox="0 0 48 48"><path fill="#ffc107" d="M38.917,24H5.083C4.485,24,4,24.485,4,25.083v15.833C4,41.515,4.485,42,5.083,42h33.833 C39.515,42,40,41.515,40,40.917V25.083C40,24.485,39.515,24,38.917,24z"/><path fill="#ffb300" d="M22.23,15.933L37,16c0.021-3.974-3.446-8-7.681-8H18.597C21.019,9.133,22.111,11.975,22.23,15.933z"/><path fill="#ffd008" d="M16.371,8h14.921c-7.527,0.647-10.625,13.75-0.458,16.042l-15.625,0.015 C7.875,24.057,7.843,8,16.371,8L16.371,8z"/><path fill="#ffe57f" d="M30.783,24.002l-3.802,0.233c-0.189-0.157-0.432-0.25-0.698-0.233l-2.477,0.152 c-1.317-0.307-2.406-1.016-3.244-2.129c-1.045-1.389-1.621-3.318-1.621-5.433c0-4.27,2.3-8.592,6.695-8.592h-4.282 c-3.125,0.938-4.414,5.375-4.414,8.592c0,2.546,0.719,4.903,2.023,6.636c0.287,0.382,0.974,1.335,2.989,1.991 c-3.406-0.547-4.821-1.888-5.738-3.114c-1.006-1.344-1.56-3.233-1.56-5.318c0-3.791,1.825-7.779,5.236-8.786h-2.87 c-3.25,1.396-4.366,5.525-4.366,8.786c0,2.515,0.808,5.161,2.329,6.62C16.965,25.307,18.322,26,21,26 c0.002,0-0.056,0.331-0.054,0.331l2.747-0.168c0.557,0.106,1.136,0.168,1.746,0.168c0.003,0,0.005,0,0.007,0l5.458-0.333 c0.552-0.033,0.972-0.508,0.938-1.059C31.809,24.388,31.338,23.967,30.783,24.002z"/><path fill="#ffe57f" d="M42.854,24H9.146C8.513,24,8,24.513,8,25.146v15.708C8,41.487,8.513,42,9.146,42h33.708 C43.487,42,44,41.487,44,40.854V25.146C44,24.513,43.487,24,42.854,24z"/><path fill="#ffecae" d="M8,41V25c0-0.552,0.448-1,1-1h0c0.552,0,1,0.448,1,1v16c0,0.552-0.448,1-1,1h0 C8.448,42,8,41.552,8,41z"/><path fill="#ffd008" d="M43,42H9c-0.552,0-1-0.448-1-1l0,0c0-0.552,0.448-1,1-1h34c0.552,0,1,0.448,1,1l0,0 C44,41.552,43.552,42,43,42z"/><path fill="#ffecae" d="M38,26h-5.5c-6.111,0-9.31-4.894-9.31-9.728c0-2.207,0.68-4.251,1.912-5.756 c1.415-1.728,3.44-2.641,5.855-2.641c5.267,0,6.908,4.625,7.041,7.071c0.029,0.552-0.394,1.023-0.945,1.053 c-0.553,0.019-1.022-0.393-1.053-0.944c-0.012-0.209-0.365-5.179-5.043-5.179c-1.796,0-3.285,0.66-4.308,1.908 c-0.941,1.149-1.46,2.743-1.46,4.489c0,3.84,2.511,7.728,7.31,7.728H38c0.553,0,1,0.448,1,1C39,25.553,38.553,26,38,26z"/><path fill="#ffecae" d="M43,26H9c-0.552,0-1-0.448-1-1v0c0-0.552,0.448-1,1-1h34c0.552,0,1,0.448,1,1v0 C44,25.552,43.552,26,43,26z"/></svg>