<svg xmlns="http://www.w3.org/2000/svg" xmlns:xlink="http://www.w3.org/1999/xlink" viewBox="0 0 48 48"><path fill="#f44336" d="M24 5A6 6 0 1 0 24 17A6 6 0 1 0 24 5Z"/><path fill="#f8bbd0" d="M33,9c-1.991,0-3.696,1.172-4.5,2.857C27.696,10.172,25.991,9,24,9s-3.696,1.172-4.5,2.857 C18.696,10.172,16.991,9,15,9c-2.761,0-5,2.239-5,5h28C38,11.239,35.761,9,33,9z"/><path fill="#ffe0b2" d="M5 17H43V43H5z"/><path fill="#ef5350" d="M5 33H43V40H5zM5 26H43V29H5z"/><path fill="#ffcc80" d="M5 40H43V43H5z"/><path fill="#795548" d="M7,14c-1.105,0-2,0.895-2,2v2h22c1.105,0,2,0.895,2,2c0,0,0,1.324,0,1.5c0,0.828,0.672,1.5,1.5,1.5 s1.5-0.672,1.5-1.5c0-0.176,0-1.5,0-1.5c0-1.105,0.895-2,2-2s2,0.895,2,2c0,0.553,0.447,1,1,1s1-0.447,1-1c0-1.105,0.895-2,2-2h3v-4 H7z"/></svg>