<svg xmlns="http://www.w3.org/2000/svg" xmlns:xlink="http://www.w3.org/1999/xlink" width="48" height="48" viewBox="0 0 48 48"><path fill="#8BC34A" d="M6,10c0-2.209,1.791-4,4-4h28c2.209,0,4,1.791,4,4v28c0,2.209-1.791,4-4,4H10c-2.209,0-4-1.791-4-4V10z"/><path fill="#FFF" d="M14.837 26.35l-.601.709v2.774H12V17h2.237v6.935l.277-.435 1.549-2.707h2.664l-2.482 3.727 2.719 5.313h-2.561L14.837 26.35zM22.678 28.054c.648 0 .977-.451.988-1.354h2.103c-.011.985-.298 1.782-.861 2.39C24.343 29.696 23.616 30 22.726 30c-1.102 0-1.942-.362-2.521-1.086s-.875-1.791-.885-3.2v-.718c0-1.421.286-2.504.858-3.25.571-.747 1.416-1.12 2.533-1.12.943 0 1.686.308 2.229.923.542.615.819 1.488.83 2.619h-2.103c-.005-.512-.084-.906-.237-1.182-.153-.275-.406-.414-.759-.414-.391 0-.669.147-.838.442-.169.293-.258.863-.269 1.71v.925c0 .739.034 1.257.103 1.551.068.294.182.51.34.647C22.165 27.984 22.388 28.054 22.678 28.054zM31.096 29.833c-.063-.139-.127-.373-.189-.702-.4.58-.943.869-1.629.869-.717 0-1.311-.25-1.781-.752-.473-.501-.708-1.149-.708-1.946 0-.947.286-1.68.857-2.197.571-.519 1.396-.782 2.47-.794h.68v-.727c0-.406-.065-.693-.197-.861-.132-.167-.324-.25-.576-.25-.56 0-.838.346-.838 1.035h-2.237c0-.835.296-1.524.89-2.067.592-.543 1.342-.814 2.248-.814.938 0 1.664.258 2.178.772.514.516.771 1.253.771 2.21v4.253c.01.78.115 1.39.316 1.83v.142H31.096zM29.775 28.146c.248 0 .459-.054.633-.159s.303-.23.387-.376v-1.88h-.537c-.379 0-.679.129-.896.385-.219.256-.328.599-.328 1.027C29.033 27.811 29.28 28.146 29.775 28.146zM37 29.833h-2.245V17H37V29.833z"/></svg>