<svg xmlns="http://www.w3.org/2000/svg" xmlns:xlink="http://www.w3.org/1999/xlink" viewBox="0 0 48 48"><path fill="#ffcc80" d="M16.326,21.578c-5.606-2.386-0.423-13.211,7.78-16.365c5.947-2.287,12.755-1.258,17.534,2.392 c2.634,2.011,3.139,5.775,1.128,8.409c-2.011,2.635-5.809,2.301-8.87,1.03C23.043,12.54,22.801,24.334,16.326,21.578z"/><path fill="#ffcc80" d="M31.656,26.418c5.606,2.386,0.423,13.211-7.78,16.365c-5.947,2.287-12.755,1.258-17.534-2.392 c-2.634-2.011-3.139-5.775-1.128-8.409c2.011-2.635,5.809-2.301,8.87-1.03C24.94,35.457,25.181,23.662,31.656,26.418z"/><path fill="#ffb74d" d="M33.112,27.49C33.686,31.035,30.377,41,18,41C6.46,41,4.434,36.247,4.078,34.576 c-0.377,2.138,0.419,4.407,2.263,5.815c4.78,3.65,11.587,4.679,17.534,2.392C31.18,39.974,36.083,31.089,33.112,27.49z"/><path fill="#ffb74d" d="M39.584,15.976c-3.8,0-5.343-1.976-9.32-1.976c-3.885,0-5.933,1.441-8.132,3.919 c-3.206,3.612-4.558,3.876-6.487,3.284c0.208,0.139,0.43,0.268,0.681,0.375c6.475,2.756,6.716-9.039,17.573-4.533 c3.061,1.27,6.859,1.604,8.87-1.03c0.475-0.623,0.805-1.31,1.005-2.021C43.742,14.027,41.823,15.976,39.584,15.976z"/></svg>