<svg xmlns="http://www.w3.org/2000/svg" xmlns:xlink="http://www.w3.org/1999/xlink" viewBox="0 0 48 48"><path fill="#efebe9" d="M25 10A14 14 0 1 0 25 38A14 14 0 1 0 25 10Z"/><path fill="#558b2f" d="M22,32c-0.173,0-0.344,0.012-0.513,0.026C20.388,30.786,18.787,30,17,30c-3.314,0-6,2.686-6,6 s2.686,6,6,6c0.173,0,0.344-0.012,0.513-0.026C18.612,43.214,20.213,44,22,44c3.314,0,6-2.686,6-6S25.314,32,22,32z"/><path fill="#689f38" d="M43,31.5c0-3.038-2.462-5.5-5.5-5.5S32,28.462,32,31.5c0,0.401,0.045,0.791,0.127,1.167 C31.346,32.242,30.451,32,29.5,32c-3.038,0-5.5,2.462-5.5,5.5c0,3.038,2.462,5.5,5.5,5.5c1.39,0,2.657-0.52,3.625-1.371 C33.705,41.864,34.336,42,35,42c2.761,0,5-2.239,5-5c0-0.198-0.036-0.385-0.058-0.577C41.753,35.523,43,33.659,43,31.5z"/><path fill="#7cb342" d="M24,13.5C24,9.91,21.09,7,17.5,7S11,9.91,11,13.5c0,0.218,0.012,0.433,0.033,0.646 C7.593,14.828,5,17.86,5,21.5c0,2.208,0.96,4.187,2.478,5.559C7.172,27.813,7,28.636,7,29.5c0,3.59,2.91,6.5,6.5,6.5 s6.5-2.91,6.5-6.5c0-1.437-0.472-2.761-1.262-3.838C19.534,24.471,20,23.04,20,21.5c0-0.66-0.094-1.297-0.254-1.907 C22.227,18.678,24,16.299,24,13.5z"/><path fill="#aed581" d="M43,17c0-3.314-2.686-6-6-6c0-3.866-3.134-7-7-7c-1.866,0-3.556,0.734-4.811,1.924 C24.265,5.342,23.173,5,22,5c-3.314,0-6,2.686-6,6s2.686,6,6,6c1.173,0,2.264-0.342,3.189-0.924C26.444,17.266,28.134,18,30,18 c0.367,0,0.724-0.037,1.076-0.091c0.21,1.379,0.897,2.596,1.877,3.498C32.352,22.289,32,23.353,32,24.5c0,3.038,2.462,5.5,5.5,5.5 s5.5-2.462,5.5-5.5c0-1.404-0.531-2.682-1.397-3.654C42.474,19.805,43,18.464,43,17z"/><path fill="#33691e" d="M24.203,38.96C24.075,38.494,24,38.007,24,37.5c0-0.185,0.01-0.368,0.028-0.549 c-0.281-0.021-6.321-2.198-6.521-2.339c0,0,0,0,0,0c-0.576,0.452-1.233,0.804-1.941,1.043C14.916,35.874,14.224,36,13.5,36 c-0.753,0-1.473-0.135-2.146-0.37C11.979,37.025,13.373,38,15,38c0.596,0,1.151-0.148,1.656-0.386 c0.116,0.079,0.221,0.171,0.344,0.242c0.909,0.525,1.943,0.802,2.989,0.802c0.371,0,0.744-0.035,1.11-0.104 c0.346,0.296,0.73,0.535,1.132,0.742C22.77,40.867,24.247,42,26,42c0.104,0,0.202-0.022,0.304-0.03 C25.293,41.246,24.543,40.188,24.203,38.96z"/><path fill="#e7e0de" d="M33.464,30.66c-1.105-1.913-3.551-2.569-5.464-1.464c-0.011,0.006-0.018,0.015-0.029,0.021 C27.83,27.972,26.784,27,25.5,27c-0.64,0-1.218,0.248-1.66,0.644C23.489,26.687,22.578,26,21.5,26c-0.727,0-1.376,0.315-1.832,0.811 c-1.156-1.757-3.483-2.34-5.328-1.275c-1.913,1.105-2.569,3.551-1.464,5.464c0.682,1.182,1.877,1.879,3.141,1.983 c0.104,1.264,0.802,2.459,1.983,3.141s2.565,0.689,3.712,0.147C22.434,37.314,23.636,38,25,38s2.566-0.686,3.288-1.729 c1.147,0.542,2.53,0.535,3.712-0.147C33.913,35.02,34.569,32.573,33.464,30.66z"/><path fill="#f5f3f2" d="M23.464,13.34c-1.105-1.913-3.551-2.569-5.464-1.464c-1.182,0.682-1.879,1.877-1.983,3.141 c-1.264,0.104-2.459,0.802-3.141,1.983c-0.682,1.182-0.689,2.565-0.147,3.712C11.686,21.434,11,22.636,11,24c0,2.209,1.791,4,4,4 c0.495,0,0.963-0.1,1.4-0.265C16.733,27.899,17.103,28,17.5,28c0.816,0,1.533-0.397,1.99-1.001c0.004,0,0.007,0.001,0.01,0.001 c1.381,0,2.5-1.119,2.5-2.5c0-0.159-0.017-0.313-0.047-0.463c-0.028-0.148-0.071-0.289-0.124-0.426l0-0.001 c0.583-0.368,1.002-0.968,1.127-1.673C23.132,21.976,23.313,22,23.5,22c1.381,0,2.5-1.119,2.5-2.5 C26,18.462,23.858,14.022,23.464,13.34z"/><path fill="#689f38" d="M12.876,31c-0.125-0.216-0.221-0.439-0.3-0.666v0c-0.039-0.109-0.062-0.218-0.091-0.329 c-0.001-0.006-0.003-0.012-0.004-0.018c-0.234-0.914-0.146-1.868,0.248-2.7C11.686,26.566,11,25.364,11,24s0.686-2.566,1.729-3.288 c-0.542-1.147-0.535-2.53,0.147-3.712c0.682-1.182,1.877-1.879,3.141-1.983c0.046-0.56,0.227-1.099,0.497-1.594 c-0.13-0.294-0.23-0.602-0.313-0.918c0.006-0.008,0.01-0.017,0.016-0.025c-0.044-0.174-0.102-0.343-0.131-0.523 C16.035,11.644,16,11.327,16,11c0-1.385,0.474-2.656,1.262-3.672C15.361,8.036,14,9.852,14,12c0,0.49,0.096,0.952,0.23,1.397 c-1.285,0.483-2.385,1.388-3.086,2.603c-0.723,1.252-0.959,2.708-0.698,4.1C9.523,21.175,9,22.555,9,24 c0,1.487,0.547,2.847,1.447,3.897c-0.266,1.408-0.027,2.849,0.697,4.103c0.723,1.252,1.866,2.184,3.201,2.655 c0.147,0.418,0.354,0.808,0.588,1.181c0.684-0.154,1.325-0.417,1.908-0.768c-0.464-0.612-0.762-1.328-0.824-2.085 C14.753,32.879,13.558,32.182,12.876,31z"/><path fill="#fff8e1" d="M39,24c0-1.364-0.686-2.566-1.729-3.288c0.542-1.147,0.535-2.53-0.147-3.712 c-0.682-1.182-1.877-1.879-3.141-1.983c-0.104-1.264-0.802-2.459-1.983-3.141c-1.182-0.682-2.565-0.689-3.712-0.147 C27.566,10.686,26.364,10,25,10c-2.209,0-4,1.791-4,4c0,1.893,1.319,3.47,3.085,3.885C24.035,18.083,24,18.287,24,18.5 c0,1.381,1.119,2.5,2.5,2.5c0.315,0,0.613-0.065,0.89-0.171C27.833,21.531,28.609,22,29.5,22c0.004,0,0.008-0.001,0.012-0.001 C29.195,22.418,29,22.934,29,23.5c0,1.247,0.917,2.273,2.111,2.461C30.76,26.25,30.437,26.582,30.196,27 c-1.105,1.913-0.449,4.359,1.464,5.464c1.913,1.105,4.359,0.449,5.464-1.464c0.682-1.182,0.689-2.565,0.147-3.712 C38.314,26.566,39,25.364,39,24z"/><path fill="#558b2f" d="M41,29c0-0.081-0.022-0.156-0.029-0.235c-0.461,0.376-1.141,0.728-1.363,0.815 c-0.043,0.017-1.636,0.418-2.091,0.419c-0.087,0.342-0.207,0.68-0.392,1.001c-0.682,1.182-1.877,1.879-3.141,1.983 c-0.104,1.264-0.802,2.459-1.983,3.141c-0.628,0.363-1.313,0.534-1.989,0.534c-0.596,0-1.185-0.133-1.722-0.387 C27.566,37.314,26.364,38,25,38c-0.339,0-0.667-0.043-0.981-0.122c0.019,0.274,0.078,0.535,0.135,0.797 c-0.003,0.001-0.007,0.002-0.01,0.002c0.02,0.087,0.033,0.177,0.055,0.263c0.096,0.356,0.226,0.699,0.388,1.023 C24.726,39.972,24.86,40,25,40c1.445,0,2.825-0.523,3.901-1.445c0.366,0.069,0.739,0.104,1.11,0.104c1.046,0,2.08-0.277,2.989-0.802 c1.243-0.718,2.17-1.852,2.643-3.176c0.033-0.021,0.063-0.043,0.095-0.063c1.299-0.48,2.411-1.393,3.118-2.617 c0.031-0.054,0.054-0.11,0.083-0.165C40.133,31.439,41,30.327,41,29z"/><path fill="#8bc34a" d="M19.99,9.341c-1.046,0-2.08,0.277-2.989,0.802c-0.362,0.209-0.689,0.462-0.994,0.736 C16.005,10.92,16,10.959,16,11c0,0.863,0.186,1.681,0.514,2.423c0.339-0.621,0.829-1.168,1.486-1.547 c0.628-0.363,1.313-0.534,1.989-0.534c0.596,0,1.185,0.133,1.722,0.388C22.434,10.686,23.636,10,25,10s2.566,0.686,3.288,1.729 c0.537-0.254,1.126-0.388,1.722-0.388c0.676,0,1.361,0.172,1.989,0.534c1.182,0.682,1.879,1.877,1.983,3.141 c1.264,0.104,2.459,0.802,3.141,1.983c0.682,1.182,0.689,2.565,0.147,3.712C38.314,21.434,39,22.636,39,24s-0.686,2.566-1.729,3.288 c0.395,0.835,0.494,1.794,0.258,2.71c0.736-0.004,1.438-0.153,2.078-0.419c0.054-0.559,0.051-1.124-0.053-1.68 C40.477,26.825,41,25.445,41,24c0-1.445-0.523-2.825-1.445-3.9c0.261-1.392,0.024-2.848-0.698-4.1 c-0.723-1.252-1.866-2.184-3.201-2.655c-0.47-1.336-1.403-2.479-2.655-3.202c-0.909-0.525-1.943-0.802-2.99-0.802 c-0.371,0-0.744,0.035-1.11,0.104C27.825,8.523,26.445,8,25,8s-2.825,0.523-3.9,1.445C20.733,9.376,20.361,9.341,19.99,9.341z"/></svg>