<svg xmlns="http://www.w3.org/2000/svg" xmlns:xlink="http://www.w3.org/1999/xlink" viewBox="0 0 48 48"><circle cx="20" cy="9" r="3" fill="#e53935"/><circle cx="24" cy="9" r="3" fill="#ef5350"/><circle cx="28" cy="9" r="3" fill="#e53935"/><circle cx="16" cy="9" r="3" fill="#ef5350"/><circle cx="32" cy="9" r="3" fill="#ef5350"/><circle cx="40" cy="17" r="3" fill="#ef5350"/><circle cx="12" cy="13" r="3" fill="#ef5350"/><circle cx="20" cy="13" r="3" fill="#ef5350"/><circle cx="24" cy="13" r="3" fill="#e53935"/><circle cx="28" cy="13" r="3" fill="#ef5350"/><circle cx="36" cy="13" r="3" fill="#ef5350"/><circle cx="16" cy="13" r="3" fill="#e53935"/><circle cx="32" cy="13" r="3" fill="#e53935"/><circle cx="8" cy="17" r="3" fill="#ef5350"/><circle cx="12" cy="17" r="3" fill="#e53935"/><circle cx="20" cy="17" r="3" fill="#e53935"/><circle cx="24" cy="17" r="3" fill="#ef5350"/><circle cx="28" cy="17" r="3" fill="#e53935"/><circle cx="36" cy="17" r="3" fill="#e53935"/><circle cx="16" cy="17" r="3" fill="#ef5350"/><rect width="36" height="22" x="6" y="19" fill="#9fa8da"/><rect width="40" height="3" x="4" y="39" fill="#5c6bc0"/><rect width="36" height="8" x="6" y="26" fill="#b2dfdb"/><ellipse cx="24" cy="30" fill="#b2dfdb" rx="10" ry="7"/><circle cx="32" cy="17" r="3" fill="#ef5350"/><rect width="40" height="3" x="4" y="18" fill="#5c6bc0"/><circle cx="15" cy="12" r="1" fill="#ff8a65"/><circle cx="15" cy="8" r="1" fill="#ff8a65"/><circle cx="23" cy="8" r="1" fill="#ff8a65"/><circle cx="31" cy="8" r="1" fill="#ff8a65"/><circle cx="31" cy="16" r="1" fill="#ff8a65"/><circle cx="11" cy="12" r="1" fill="#ff8a65"/><circle cx="31" cy="12" r="1" fill="#ff8a65"/><circle cx="27" cy="12" r="1" fill="#ff8a65"/><circle cx="23" cy="16" r="1" fill="#ff8a65"/><circle cx="15" cy="16" r="1" fill="#ff8a65"/><circle cx="11" cy="16" r="1" fill="#ff8a65"/><circle cx="7" cy="16" r="1" fill="#ff8a65"/><circle cx="23" cy="12" r="1" fill="#ff8a65"/><circle cx="27" cy="16" r="1" fill="#ff8a65"/><circle cx="27" cy="8" r="1" fill="#ff8a65"/><path fill="#1976d2" d="M30,27l-2.696,2.022C26.247,27.787,24.717,27,23,27c-2.138,0-4,1.208-5,3c1,1.792,2.862,3,5,3c1.717,0,3.247-0.787,4.304-2.022L30,33V27z"/></svg>