<svg xmlns="http://www.w3.org/2000/svg" xmlns:xlink="http://www.w3.org/1999/xlink" viewBox="0 0 48 48"><polygon fill="#c60" points="27,6 29,12 7,12 5,6"/><rect width="23" height="29" x="14" y="12" fill="#ffa726"/><rect width="8" height="29" x="7" y="12" fill="#fb8c00"/><path fill="#c60" d="M25,27L25,27c-2.761,0-5-2.239-5-5v-1h0c2.761,0,5,2.239,5,5V27z"/><path fill="#c60" d="M27,27L27,27c2.761,0,5-2.239,5-5v-1h0c-2.761,0-5,2.239-5,5V27z"/><path fill="#c60" d="M28,18.5c0,1.933-2,3.5-2,3.5s-2-1.567-2-3.5s2-3.5,2-3.5S28,16.567,28,18.5z"/><path fill="#2196f3" d="M42.593,23.807l-0.87-0.625c-0.436-0.313-1.042-0.212-1.353,0.225L34,33l2,1l6.817-8.845C43.126,24.72,43.026,24.118,42.593,23.807z"/><path fill="#90caf9" d="M19,30.983h24c0,0,0.659,11.795-12,11.795C18.415,42.777,19,30.983,19,30.983z"/><path fill="#64b5f6" d="M26,42h10v2H26V42z"/><polygon fill="#fb8c00" points="17,6 15,12 37,12 39,6"/><polygon fill="#c60" points="13.236,20 15,14 15,12 7,12 7,20"/><polygon fill="#fb8c00" points="4,18 12,18 15,12 7,12"/></svg>