<svg xmlns="http://www.w3.org/2000/svg" xmlns:xlink="http://www.w3.org/1999/xlink" viewBox="0 0 48 48"><path fill="#388e3c" d="M27.775,9.23C29.4,5.88,32.899,5.815,35.45,6.113c1.209,0.216,5.074,0.669,6.009,4.405c2.211,1.183,3.315,5.93,1.165,8.144c1.484,3.542,0.234,7.108-2.711,8.682c-0.055,1.82-1.347,4.569-3.976,5.379c-0.204,2.949-4.537,3.959-4.537,3.959s-3.333-1.504-4.055-4.361c-2.945-1.438-2.93-5.117-2.862-6.593c-2.194-2.562-1.917-6.959,0.083-9.666C24.275,13.827,25.567,10.262,27.775,9.23z"/><path fill="#d81b60" d="M31.733,29.118C38,27,40,23,40,23c-0.023,0.024-4,3-7.978,3.944L31.733,29.118z"/><path fill="#d81b60" d="M31.733,21.951C37.651,19.164,39,15,39,15c-0.023,0.024-2.828,3.261-6.978,4.777L31.733,21.951z"/><path fill="#9ccc65" d="M31.508,29.051c-5.673-3.258-6.449-8.684-6.449-8.684c0.021,0.025,2.313,4.771,6.327,6.618L31.508,29.051z"/><path fill="#388e3c" d="M17.027,13.733c-1.658-2.193-4.42-1.861-6.395-1.376c-0.927,0.283-3.919,1.02-4.233,3.761C4.793,17.193,4.46,20.667,6.403,22c-0.768,2.663-0.381,5.049,2.115,5.843c0.249,1.28,1.576,4.084,3.738,4.373C12.704,34.804,15,35.074,18,36c0,0,5-2.777,4-5.554c2.156-1.334-0.296-4.374-0.517-5.41c1.437-2.047,0.722-5.125-1.158-6.822C20.302,16.604,18.882,14.223,17.027,13.733z"/><path fill="#d81b60" d="M17.244,30.059c-6.443-1.134-9.018-5.973-9.018-5.973c0.028,0.017,3.798,3.7,8.201,4.072L17.244,30.059z"/><path fill="#d81b60" d="M15.244,24.059c-6.443-1.134-9.018-5.973-9.018-5.973c0.028,0.017,3.798,3.7,8.201,4.072L15.244,24.059z"/><path fill="#d81b60" d="M19,42.202V46h-2v-3.735c0-10.64-1.313-17.062-4.313-26.062C17.687,24.202,18.81,32.664,19,42.202z"/><path fill="#d81b60" d="M30,38.578V46h2v-7.36C32,32.307,33,18,36,9C31,17,30.19,29.039,30,38.578z"/><path fill="#66bb6a" d="M25.285,4.191c-3.23-4.307-10.767-3.231-11.549,1.849c-2.381,1.264-4.646,6.337-2.331,8.703C9.808,18.529,9,22.339,12.171,24.021c0.059,1.945,3.45,6.96,6.281,7.825C17,37,21,35,24,39c1-3,6-4,4.591-8.42c4.486-1.38,6.159-6.732,5.576-8.286c2.961-3.026-0.297-10.33-3.32-11.398C31.161,8.508,29.591,5.268,25.285,4.191z"/><path fill="#ec407a" d="M23.096,23.998c7.816-4.016,7.827-9.016,7.827-9.016c-0.021,0.027-2.242,5.005-7.822,6.822L23.096,23.998z"/><path fill="#ec407a" d="M24,23.963C15.287,21.941,14,17,14,17c0.031,0.023,2.575,3.911,9.479,4.871L24,23.963z"/><path fill="#ec407a" d="M23.076,16.977C28.939,12.999,28,7.999,28,7.999c-0.016,0.026-0.74,4.994-4.93,6.785L23.076,16.977z"/><path fill="#ec407a" d="M22.899,16.963C15.146,14.941,14,10,14,10c0.028,0.023,2.291,3.911,8.435,4.871L22.899,16.963z"/><path fill="#ec407a" d="M23.917,30.5c8.083-3.5,8-9,8-9c-0.019,0.026-1.917,5.5-8,6.807V30.5z"/><path fill="#ec407a" d="M23.684,30.463C16,29,14,23,14,23c0.024,0.022,4,5,9.284,5.509L23.684,30.463z"/><path fill="#ec407a" d="M25,31.578V46h-2V31.64C23,21,22,14,21,5C24,13,24.81,22.039,25,31.578z"/></svg>