<svg xmlns="http://www.w3.org/2000/svg" xmlns:xlink="http://www.w3.org/1999/xlink" viewBox="0 0 48 48"><path fill="#616161" d="M44,34.5L44,34.5c0,5.247-4.253,9.5-9.5,9.5h-12c-5.247,0-9.5-4.253-9.5-9.5l0,0 c0-5.247,4.253-9.5,9.5-9.5h12C39.747,25,44,29.253,44,34.5z"/><polygon fill="#4b4b4b" points="24,44 25,42 25,37 28,34 28,38 29,40 32,42 32,44"/><path fill="#4b4b4b" d="M41.023,27.606c-1.135-1.074-2.532-1.867-4.088-2.279L36,30l-3,3v3l6-3L41.023,27.606z"/><g><path fill="#a1887f" d="M37.335,6.665c-3.553-3.553-9.314-3.553-12.867,0l-8.804,8.804c-3.553,3.553-3.553,9.314,0,12.867 l0,0c3.553,3.553,9.314,3.553,12.867,0l8.804-8.804C40.888,15.979,40.888,10.218,37.335,6.665z"/><polygon fill="#8d6e63" points="24.133,7 28,7 32,9 34,12 30,11 27,13 26,10 21.137,10"/><polygon fill="#8d6e63" points="29.867,27 28,24 28,21 33,15 33,19 32,21 32,22 32.868,24"/></g><g><path fill="#e0e0e0" d="M13.5,39L13.5,39C8.253,39,4,34.747,4,29.5v-11C4,13.253,8.253,9,13.5,9l0,0 c5.247,0,9.5,4.253,9.5,9.5v11C23,34.747,18.747,39,13.5,39z"/><polygon fill="#9e9e9e" points="4,19 8,19 12,15 17,15 14,17 10,22 4,22"/><polygon fill="#9e9e9e" points="4,26 7,26 11,31 18,31 16,33 9,33 6,29 4,29"/><polygon fill="#9e9e9e" points="23,23 21,23 18,21 15,23 12,27 17,25 20,27 23,27"/></g></svg>