<svg xmlns="http://www.w3.org/2000/svg" xmlns:xlink="http://www.w3.org/1999/xlink" viewBox="0 0 48 48"><path fill="#ffa000" d="M38.771,35.664l-21.78,10.081c-1.002,0.464-2.191,0.027-2.655-0.975L4.254,22.991 C3.79,21.988,4.227,20.8,5.229,20.336l21.78-10.081c1.002-0.464,2.191-0.027,2.655,0.975l10.081,21.78 C40.21,34.012,39.773,35.2,38.771,35.664z"/><path fill="#fdd835" d="M16.152,46.932c-0.349,0-0.698-0.062-1.036-0.186c-0.752-0.276-1.352-0.829-1.688-1.556 L3.347,23.411c-0.695-1.501-0.039-3.288,1.463-3.982L26.59,9.347c0.728-0.336,1.54-0.37,2.294-0.093 c0.752,0.276,1.352,0.829,1.688,1.556l10.082,21.78c0.695,1.501,0.039,3.288-1.463,3.982v0L17.41,46.653 C17.009,46.839,16.581,46.932,16.152,46.932z M27.849,11.069c-0.143,0-0.285,0.031-0.419,0.093L5.649,21.243 c-0.501,0.231-0.72,0.827-0.488,1.328l10.082,21.78c0.112,0.242,0.313,0.427,0.563,0.519c0.251,0.093,0.522,0.082,0.765-0.031 l21.78-10.082v0c0.501-0.232,0.72-0.828,0.488-1.328l-10.082-21.78c-0.112-0.242-0.313-0.427-0.563-0.519 C28.082,11.089,27.965,11.069,27.849,11.069z"/><rect width="1.999" height="28" x="21" y="14" fill="#fdd835" transform="rotate(-24.838 21.999 27.997)"/><rect width="1.999" height="28" x="27.353" y="11.059" fill="#fdd835" transform="rotate(-24.838 28.35 25.056)"/><rect width="1.999" height="28" x="14.648" y="16.94" fill="#fdd835" transform="rotate(-24.838 15.647 30.937)"/><rect width="28" height="2" x="10.94" y="33.352" fill="#fdd835" transform="rotate(-24.828 24.938 34.35)"/><rect width="28" height="2" x="8" y="27" fill="#fdd835" transform="rotate(-24.828 21.998 27.998)"/><rect width="28" height="2" x="5.059" y="20.647" fill="#fdd835" transform="rotate(-24.828 19.058 21.646)"/><rect width="7.209" height="6" x="12.028" y="28.25" fill="#fff59d" transform="rotate(35.221 15.633 31.252)"/><path fill="#ffb300" d="M39.42,29.93c-0.16,0.02-0.32,0.03-0.48,0.03h-1.66c-3.86,0-7-3.14-7-7v-3.2l-8.13-0.57 c-3-0.03-5.65-1.95-6.66-4.7l11.1-5.14c0.73-0.34,1.54-0.37,2.29-0.1c0.76,0.28,1.36,0.83,1.69,1.56L39.42,29.93z"/><path fill="#ffa000" d="M25.9,17.38l-2.1-4.54l3.63-1.68c0.13-0.06,0.28-0.09,0.42-0.09c0.11,0,0.23,0.02,0.34,0.06 c0.25,0.09,0.45,0.28,0.57,0.52l1.68,3.63L25.9,17.38z"/><path fill="#f57c00" d="M34.22,23.45l-3.6,1.67c0.56,1.7,1.75,3.12,3.29,3.98l2.41-1.12L34.22,23.45z M31.28,17.09 l-4.54,2.1l0.15,0.33l3.39,0.24v3.2c0,0.03,0,0.07,0.01,0.1l3.09-1.43L31.28,17.09z M21.98,13.68l-4.53,2.1l1.11,2.4 c1.02,0.61,2.2,0.97,3.44,1l2.08-0.96L21.98,13.68z"/><path fill="#ff6d00" d="M14.894,1.984l0.184,0.552c1.139,3.418,1.837,6.968,2.077,10.563v0 c0.512,2.389,2.623,4.096,5.067,4.096l8.201,0.574c1.048,0.073,1.86,0.945,1.86,1.995v3.195c0,2.762,2.239,5,5,5l1.66,0 c2.761,0,5-2.239,5-5V9.87c0-3.22-2.61-5.79-5.83-5.83c-1.557-0.019-2.419,0.141-6.176,1.021c-0.9,0.211-1.771,0.472-2.585,0.753 c-3.042,1.05-5.293,3.377-5.293,3.377c-1.582,0.791-2.579-0.11-3.13-2.647c-0.634-2.918-4.003-4.618-4.934-5.191 C15.394,0.982,14.67,1.313,14.894,1.984z"/><path fill="#e65100" d="M35.775,10.225c0,0.552-0.448,1-1,1s-1-0.448-1-1s0.448-1,1-1S35.775,9.673,35.775,10.225z M38.775,7.225c-0.552,0-1,0.448-1,1s0.448,1,1,1s1-0.448,1-1S39.327,7.225,38.775,7.225z M38.775,11.225c-0.552,0-1,0.448-1,1 s0.448,1,1,1s1-0.448,1-1S39.327,11.225,38.775,11.225z"/><path fill="#e65100" d="M38.94,27.96h-1.66c-2.76,0-5-2.24-5-5v-3.2c0-1.05-0.81-1.92-1.86-1.99l-8.2-0.57 c-1.22,0-2.36-0.43-3.26-1.15c-0.89-0.73-1.55-1.75-1.81-2.95c-0.21-3.33-0.83-6.61-1.82-9.78C17,4,18.6,7,18.6,10 s0.24,5.13,2.94,5.3c2.97,0.18,8.326-1.191,11.02,0.02c2.469,1.11,1.472,4.286,1.06,6.94C33.112,25.538,36.367,27.841,38.94,27.96z"/><path fill="#e65100" d="M20.93,6.544c-0.025,1.926-0.194,3.935,1.599,3.656c1.309-0.204,2.479-1.641,4.112-2.7 s2.713-1.686,2.713-1.686s-2.777,1.06-4.445,1.915c-1.644,0.842-2.042,1.024-2.569,0.919C21.57,8.494,21.233,7.849,20.93,6.544z"/><path fill="#e65100" d="M43.94,9.87v13.09c0,1.45-0.62,2.75-1.6,3.66c1.85-4.06,0.06-6.97-0.24-10 C41.81,13.59,43.56,13.41,43.94,9.87z"/></svg>