<svg xmlns="http://www.w3.org/2000/svg" xmlns:xlink="http://www.w3.org/1999/xlink" viewBox="0 0 48 48"><path fill="#ffc107" d="M30,17c0,1-0.3,2.7-1,2c0,0,0,3-2,2c-1.6-0.8-3-4,0-7c-1,0-3.4,2.1-4,4c-1,3,0.3,4.2,1,6 c0.7,2,1,3,1,5c0,1.2-0.6,3-2,3c-3,0-1.3-3.4-1.3-4.3C21.8,26.2,21,25,20,24c1,1,0.4,2.4-0.3,3c-0.6,0.5-1,0.5-1.7,0 c-1.4-1.2,0-4,1-5c-1.8,1.3-3,2.7-3,5c0,3,2,6-1,7c-2.6,0.9-3-4.6-2-7c-2.2,2.9-2.6,4.4-2.2,7.4c0.4,2.6-0.8,4.8-3.1,4.9 c0,0,11.4,1.6,15.5-1.2c4.1-2.8,7.5-14.5,7.5-14.5L30,17z"/><path fill="#ff3d00" d="M29,19c0.1,4.1,0.3,7.5-4,13.5C17,41.5,6,38,6,40s7.9,2.4,12,1.8C22,41.3,33.1,39.8,39,29 c2.1-3.8,2.8-7.5,3-10l-7-4L29,19z"/><path fill="#7cb342" d="M37,13h-2c0-5.9-4.8-6-5-6V5C30.1,5,37,5.1,37,13z"/><path fill="#7cb342" d="M42,19.5c0,0-2-3-4,0c-2-2-3-2-5,0c-2-3-4,0-4,0c0-3.6,2.1-7.5,6.9-7.5C40.6,12,42,15.9,42,19.5z"/></svg>