<svg xmlns="http://www.w3.org/2000/svg" xmlns:xlink="http://www.w3.org/1999/xlink" viewBox="0 0 48 48"><path fill="#fff176" d="M11.004,3h24v40h-24V3z"/><path fill="#ffd54f" d="M17.004 5l2-2v8l-2-2V5zM25.004 5l2-2v8l-2-2V5zM33.004 5l2-2v8l-2-2V5zM17.004 13l2-2v8l-2-2V13zM25.004 13l2-2v8l-2-2V13zM33.004 13l2-2v8l-2-2V13zM17.004 21l2-2v8l-2-2V21zM25.004 21l2-2v8l-2-2V21zM33.004 21l2-2v8l-2-2V21z"/><path fill="#6d4c41" d="M17.004 29l2-2v8l-2-2V29zM25.004 29l2-2v8l-2-2V29zM33.004 29l2-2v8l-2-2V29zM17.004 37l2-2v8l-2-2V37zM25.004 37l2-2v8l-2-2V37zM33.004 37l2-2v8l-2-2V37z"/><path fill="#fff9c4" d="M21.004 5h4v4h-4V5zM29.004 5h4v4h-4V5zM13.004 5h4v4h-4V5zM21.004 13h4v4h-4V13zM29.004 13h4v4h-4V13zM13.004 13h4v4h-4V13zM21.004 21h4v4h-4V21zM29.004 21h4v4h-4V21zM13.004 21h4v4h-4V21z"/><path fill="#a1887f" d="M21.004 29h4v4h-4V29zM29.004 29h4v4h-4V29zM13.004 29h4v4h-4V29zM21.004 37h4v4h-4V37zM29.004 37h4v4h-4V37zM13.004 37h4v4h-4V37z"/><path fill="#ffca28" d="M11.004 11l2-2h4l2 2H11.004zM19.004 11l2-2h4l2 2H19.004zM27.004 11l2-2h4l2 2H27.004zM11.004 19l2-2h4l2 2H11.004zM19.004 19l2-2h4l2 2H19.004zM27.004 19l2-2h4l2 2H27.004z"/><path fill="#4e342e" d="M11.004 27l2-2h4l2 2H11.004zM19.004 27l2-2h4l2 2H19.004zM27.004 27l2-2h4l2 2H27.004zM11.004 35l2-2h4l2 2H11.004zM19.004 35l2-2h4l2 2H19.004zM27.004 35l2-2h4l2 2H27.004zM11.004 43l2-2h4l2 2H11.004zM19.004 43l2-2h4l2 2H19.004zM27.004 43l2-2h4l2 2H27.004z"/><path fill="#ff3d00" d="M35.004,45h-24c-1.105,0-2-0.895-2-2V22l28,5v16C37.004,44.102,36.105,45,35.004,45z"/><path fill="#dd2c00" d="M11.004,43V22.387l-2-0.387v21c0,1.105,0.895,2,2,2h24c1.102,0,2-0.898,2-2v-8h-2v8H11.004z"/><path fill="#dd2c00" d="M37.004,36v-8l-28-6v2l23,17L37.004,36z"/><path fill="#ffd740" d="M9.004,22l28,3l1.992,4l-5,5L9.004,22z"/><path fill="#ffe57f" d="M9.004,22l24.992,12l-4.992-8L9.004,22z"/></svg>