<svg xmlns="http://www.w3.org/2000/svg" xmlns:xlink="http://www.w3.org/1999/xlink" x="0" y="0" viewBox="0 0 48 48"><path fill="#ffee58" d="M34.5,7C40,7,41,13.8,41,23.1S40,41,34.5,41c-1.9,0-3.2-0.9-4.1-2c-0.5-0.6-1.4-0.9-2.2-0.9H10c-1.7,0-3-1.2-3-2.7V12.6c0-1.5,1.3-2.7,3-2.7h18.1c0.9,0,1.7-0.3,2.2-0.9C31.3,7.9,32.6,7,34.5,7z"/><path fill="#ffc107" d="M34.5,42c-1.9,0-3.6-0.8-4.9-2.3c-0.3-0.4-0.9-0.6-1.5-0.6H10c-2.2,0-4-1.6-4-3.7V12.6c0-2,1.8-3.7,4-3.7h18.1c0.6,0,1.2-0.2,1.5-0.6c1.3-1.6,3-2.3,4.9-2.3c6.9,0,7.5,8.8,7.5,17.1C42,31.9,41.1,42,34.5,42z M10,10.9c-1.1,0-2,0.7-2,1.7v22.9c0,0.9,0.9,1.7,2,1.7h18.1c1.2,0,2.3,0.5,3,1.3c0.9,1.1,2,1.6,3.4,1.6c3.8,0,5.5-5.4,5.5-16.9C40,12.2,38.5,8,34.5,8c-1.3,0-2.4,0.5-3.4,1.6c-0.7,0.8-1.8,1.3-3,1.3H10z"/><path fill="#7a534b" d="M34.1,20.5c-1-0.8-2-1.2-2.9-1.4c-1.4-0.3-2.7-1-3.5-2.2c-1.5-2.1-4.1-3.3-7-2.8c-2.8,0.5-5.1,2.8-5.6,5.6c-0.4,2.1,0.2,4.1,1.4,5.6c-0.5,1.3-0.7,2.8-0.3,4.3c0.6,2.6,2.8,4.7,5.5,5.2c2,0.4,3.8-0.1,5.3-1.1c0.8-0.5,1.7-0.8,2.7-0.8l0.3,0c3.9,0,7.1-3.2,7-7.2C37,23.7,35.8,21.8,34.1,20.5z"/><polygon fill="#0d47a1" points="19.5,48 18.8,40.3 18.1,36.3 14,35.9 14,40.3 14,48"/><path fill="#2196f3" d="M18.4,37.7H14V14.4c0-0.9,0.5-1.5,1.5-1.5c0.9,0,1.5,0.7,2.2,1.8c1.5,2.2,3.6,8.2,3.6,16.3C21.3,34.2,20.4,36.4,18.4,37.7z"/></svg>