<?xml version="1.0" encoding="utf-8"?><!-- Generator: Adobe Illustrator 15.0.0, SVG Export Plug-In . SVG Version: 6.00 Build 0)  --><!DOCTYPE svg PUBLIC "-//W3C//DTD SVG 1.1//EN" "http://www.w3.org/Graphics/SVG/1.1/DTD/svg11.dtd"><svg xmlns="http://www.w3.org/2000/svg" xmlns:xlink="http://www.w3.org/1999/xlink" version="1.1" x="0px" y="0px" width="528" height="528" viewBox="0 0 48 48" enable-background="new 0 0 48 48" xml:space="preserve">
<path fill="#995204" d="M7.963,21.292C7.963,12.791,15.65,9,24,9c8.351,0,14.204,5.25,14.204,12.292  c0,7.531-6.771,13.636-15.122,13.636C14.733,34.928,7.963,28.823,7.963,21.292z"/>
<path fill="#FFB300" d="M36.987,16c1.301,3.042,1,6,1,6c-0.251,5.459-8.123,12-15.995,11c-7.873-1-13.705-6.293-13.996-12  s5.998-11,14.995-11c7.498,0,11.323,4.332,11.498,7.291c0,0,1.206,5.917-4.5,7.709s-13.996-1-12.996-7c0,0,0.734-3.128,4.38-2.966  c-0.236,0.39-0.371,0.813-0.371,1.256c0,1.936,2.459,3.5,5.498,3.5c3.037,0,5.498-1.564,5.498-3.5c0-0.231-0.037-0.457-0.104-0.675  c-0.498-1.872-3.142-3.949-9.901-3.615c-0.991,0-8.989,1-9.983,6.475c0,0-1.639,8.733,9.983,10.525  c11.621,1.792,14.569-7.418,13.995-11.709C35.414,13,33.488,8,22.991,8C12.495,8,5.996,15.791,5.996,24.791  C5.996,32.29,12.481,40,22.979,40c17.995,0,19.008-15,19.008-15C42.236,18.958,37.979,16,36.987,16z"/>
<g>
	<circle fill="#CE8106" cx="15.002" cy="35" r="1"/>
	<circle fill="#CE8106" cx="13.003" cy="33" r="1"/>
	<circle fill="#CE8106" cx="38.996" cy="26" r="1"/>
	<circle fill="#CE8106" cx="37.996" cy="29" r="1"/>
	<circle fill="#CE8106" cx="25" cy="14" r="1"/>
	<circle fill="#CE8106" cx="24" cy="17" r="1"/>
	<circle fill="#CE8106" cx="26.999" cy="16" r="1"/>
</g>
</svg>