<svg xmlns="http://www.w3.org/2000/svg" xmlns:xlink="http://www.w3.org/1999/xlink" viewBox="0 0 48 48"><path fill="#ffd600" d="M44,24c0,1-1.1,3-2.5,3S39,25.7,39,24s1.1-3,2.5-3S44,23,44,24z"/><path fill="#ffd600" d="M42,24c0,19-22.6,19-24.5,19S6,39,6,24C6,8,15.6,5,17.5,5S42,5,42,24z"/><path fill="#fff59d" d="M18,9c5.4,0,10,6.9,10,15s-4.6,15-10,15S8,32.1,8,24S12.6,9,18,9 M18,5C10.3,5,4,13.5,4,24 s6.3,19,14,19s14-8.5,14-19S25.7,5,18,5z"/><path fill="#fff59d" d="M17,6h2v34h-2V6z"/><path fill="#fff59d" d="M6,23h24v2H6V23z"/><path fill="#fff59d" d="M18 25.6L9.2 13.6 10.8 12.4 18 22.4 26.2 12.4 27.8 13.6z"/><path fill="#fff59d" d="M25.2 35.6L18 25.7 10.8 35.6 9.2 34.4 18 22.3 26.8 34.4z"/><path fill="#ffa000" d="M35 29c0 .6-.4 1-1 1s-1-.4-1-1 .4-1 1-1S35 28.4 35 29zM36 33c0 .6-.4 1-1 1s-1-.4-1-1 .4-1 1-1S36 32.4 36 33zM39 30c0 .6-.4 1-1 1s-1-.4-1-1 .4-1 1-1S39 29.4 39 30z"/></svg>