<?xml version="1.0" encoding="utf-8"?><!-- Generator: Adobe Illustrator 15.0.0, SVG Export Plug-In . SVG Version: 6.00 Build 0)  --><!DOCTYPE svg PUBLIC "-//W3C//DTD SVG 1.1//EN" "http://www.w3.org/Graphics/SVG/1.1/DTD/svg11.dtd"><svg xmlns="http://www.w3.org/2000/svg" xmlns:xlink="http://www.w3.org/1999/xlink" version="1.1" x="0px" y="0px" width="528" height="528" viewBox="0 0 48 48" enable-background="new 0 0 48 48" xml:space="preserve">
<circle fill="#FFEB3B" cx="34" cy="12" r="8"/>
<g>
	<rect x="33" y="5" fill="#FFFDE7" width="2" height="14"/>
	<rect x="27" y="11" fill="#FFFDE7" width="14" height="2"/>
	<rect x="33" y="5" transform="matrix(0.7071 -0.7071 0.7071 0.7071 1.4733 27.5559)" fill="#FFFDE7" width="2" height="14"/>
	
		<rect x="33" y="5" transform="matrix(-0.7071 -0.7071 0.7071 -0.7071 49.5555 44.5266)" fill="#FFFDE7" width="2" height="14.001"/>
</g>
<path fill="#FFC107" d="M34,5.5c3.585,0,6.5,2.915,6.5,6.5c0,3.584-2.915,6.5-6.5,6.5c-3.584,0-6.5-2.916-6.5-6.5  C27.5,8.415,30.416,5.5,34,5.5 M34,4c-4.419,0-8,3.581-8,8s3.581,8,8,8s8-3.581,8-8S38.419,4,34,4L34,4z"/>
<path fill="#FFB300" d="M29.853,17h1.464L35,12h-7.5C27.5,14.009,28.416,15.807,29.853,17z"/>
<g>
	<rect x="20" y="28.531" fill="#90CAF9" width="2" height="13.469"/>
	<path fill="#90CAF9" d="M29,43c0,0-6.999-1-7-4c0-3-2.001-3-2,0c0,3-7,4-7,4c-0.553,0-1,0.447-1,1l0,0h18l0,0   C30,43.447,29.553,43,29,43z"/>
	<path fill="#90CAF9" d="M7,12l3.684,5H27.76C26.661,15.63,26,13.894,26,12H7z"/>
</g>
<path fill="#FB8C00" d="M27.5,12H26c0,1.894,0.661,3.63,1.76,5h2.093C28.416,15.807,27.5,14.009,27.5,12z"/>
<path fill="#F50057" d="M9.947,16l9.619,13.055c0,0,1.323,2.074,2.895-0.037C24.031,26.906,32.053,16,32.053,16H9.947z"/>
</svg>