<svg xmlns="http://www.w3.org/2000/svg" xmlns:xlink="http://www.w3.org/1999/xlink" viewBox="0 0 48 48"><polygon fill="#81d4fa" points="34,8 28,9 22,8 22,5 34,5"/><polygon fill="#0277bd" points="38,14 34,15 30,14 30,9 34,9"/><polygon fill="#01579b" points="34,8 32,10 38,14"/><polygon fill="#039be5" points="30,14 29,30 30,44 38,44 38,14"/><polygon fill="#81d4fa" points="24,13 18,14 18,44 30,44 30,14"/><polygon fill="#b3e5fc" points="22,8 18,14 30,14 34,8"/><path fill="#29b6f6" d="M35,30c-1-2-1-5-5-5l-1,10l1,9h8V32C38,32,36,32,35,30z"/><path fill="#b3e5fc" d="M30,25c0,0-4,0-6-2s-3-3-6-2v23h12V25z"/><path fill="#6d4c41" d="M23.11,27.858c-3.944-3.952-8.779-5.515-12.723-1.563s-4.742,11.159-0.797,15.11 s11.136,3.153,15.081-0.799S27.054,31.811,23.11,27.858z"/><path fill="#8d6e63" d="M23.286,27.666C20.879,25.282,17.927,24,15.4,24c-1.541,0-2.925,0.477-3.929,1.472 c-2.651,2.626-1.659,7.866,2.216,11.704c2.406,2.384,5.359,3.666,7.887,3.666c1.541,0,2.925-0.477,3.929-1.472 C28.153,36.744,27.161,31.504,23.286,27.666z"/><path fill="#fafafa" d="M21.998,28.963C20.143,27.108,17.812,26,15.762,26h0c-1.145,0-2.106,0.355-2.777,1.027 c-1.918,1.918-1.031,6.046,1.937,9.014c1.855,1.855,4.187,2.963,6.237,2.963c1.145,0,2.106-0.355,2.777-1.027 C25.853,36.059,24.966,31.93,21.998,28.963z"/><path fill="#cfd8dc" d="M22.49,36.532c-0.387,0.386-0.984,0.467-1.417,0.467c-1.496,0-3.322-0.898-4.767-2.342 c-1.131-1.131-1.942-2.535-2.225-3.851c-0.223-1.037-0.095-1.888,0.35-2.333c0.386-0.386,0.984-0.467,1.417-0.467h0 c1.496,0,3.322,0.898,4.767,2.342c1.131,1.131,1.942,2.535,2.225,3.851C23.062,35.236,22.935,36.086,22.49,36.532z"/></svg>