<svg xmlns="http://www.w3.org/2000/svg" xmlns:xlink="http://www.w3.org/1999/xlink" viewBox="0 0 48 48"><path fill="#558b2f" d="M27.775,9.23C29.4,5.88,32.899,5.815,35.45,6.113c1.209,0.216,5.074,0.669,6.009,4.405c2.211,1.183,3.315,5.93,1.165,8.144c1.484,3.542,0.234,7.108-2.711,8.682c-0.055,1.82-1.347,4.569-3.976,5.379c-0.204,2.949-4.537,3.959-4.537,3.959s-3.333-1.504-4.055-4.361c-2.945-1.438-2.93-5.117-2.862-6.593c-2.194-2.562-1.917-6.959,0.083-9.666C24.275,13.827,25.567,10.262,27.775,9.23z"/><path fill="#9ccc65" d="M31.733,29.118C38,27,40,23,40,23c-0.023,0.024-4,3-7.978,3.944L31.733,29.118z"/><path fill="#9ccc65" d="M31.733,21.951C37.651,19.164,39,15,39,15c-0.023,0.024-2.828,3.261-6.978,4.777L31.733,21.951z"/><path fill="#9ccc65" d="M31.508,29.051c-5.673-3.258-6.449-8.684-6.449-8.684c0.021,0.025,2.313,4.771,6.327,6.618L31.508,29.051z"/><path fill="#558b2f" d="M17.027,13.733c-1.658-2.193-4.42-1.861-6.395-1.376c-0.927,0.283-3.919,1.02-4.233,3.761C4.793,17.193,4.46,20.667,6.403,22c-0.768,2.663-0.381,5.049,2.115,5.843c0.249,1.28,1.576,4.084,3.738,4.373C12.704,34.804,15,35.074,18,36c0,0,5-2.777,4-5.554c2.156-1.334-0.296-4.374-0.517-5.41c1.437-2.047,0.722-5.125-1.158-6.822C20.302,16.604,18.882,14.223,17.027,13.733z"/><path fill="#9ccc65" d="M15.639,26.817c-6.136-2.267-7.806-7.487-7.806-7.487c0.024,0.022,3.076,4.318,7.342,5.471L15.639,26.817z"/><path fill="#9ccc65" d="M19,42.202V46h-2v-3.735c0-10.64-1.313-17.062-4.313-26.062C17.687,24.202,18.81,32.664,19,42.202z"/><path fill="#9ccc65" d="M30,38.578V46h2v-7.36C32,32.307,33,18,36,9C31,17,30.19,29.039,30,38.578z"/><path fill="#7cb342" d="M27.958,3.447c-1.625-3.325-5.124-2.397-7.676-2.102c-1.209,0.214-5.074,0.664-6.009,4.372c-2.211,1.174-3.315,5.885-1.165,8.082c-1.484,3.515-0.234,7.054,2.711,8.616c0.055,1.806,1.347,4.535,3.976,5.338c0.204,2.926,4.537,3.928,4.537,3.928s2.945-1.34,3.667-4.176c4.167-1.282,4.792-5.251,4.25-6.695c2.194-2.542,1.917-7.899-0.083-10.585C32.458,8.009,30.167,4.471,27.958,3.447z"/><path fill="#c5e1a5" d="M23,16c5.5-3.542,6-9,6-9c-0.019,0.026-2.085,4.758-6,6.807V16z"/><path fill="#c5e1a5" d="M22.768,15.963C16.529,13.48,15,8.203,15,8.203c0.024,0.023,3.01,4.425,7.363,5.728L22.768,15.963z"/><path fill="#c5e1a5" d="M23.917,24.5c5.5-3.542,6-9,6-9c-0.019,0.026-2.085,4.758-6,6.807V24.5z"/><path fill="#c5e1a5" d="M23.684,24.463C17.513,22.075,16,17,16,17c0.024,0.022,2.978,4.256,7.284,5.509L23.684,24.463z"/><path fill="#c5e1a5" d="M25,31.578V46h-2V31.64C23,21,22,14,21,5C24,13,24.81,22.039,25,31.578z"/></svg>