<svg xmlns="http://www.w3.org/2000/svg" xmlns:xlink="http://www.w3.org/1999/xlink" viewBox="0 0 48 48"><path fill="#e53935" d="M38,5H14c-2.207,0-4.816,1.066-4.984,6H9c0,0,0,19.824,0,28l0.018-0.054C9.2,42.585,11.565,43,12.607,43H36c0.188,0,0.5,0,1,0c2,0,2-2,2-2v-5.998V6C39,5.447,38.553,5,38,5z"/><path fill="#ffe0b2" d="M36,36H12.607C11.275,36,11,37.119,11,38.5c0,1.382,0.275,2.5,1.607,2.5H36V36z"/><path fill="#e0b990" d="M12.607,36c-1.167,0-1.522,0.858-1.593,2H36v-2H12.607z"/><path fill="#b71c1c" d="M38,36h-2v7c0.188,0,0.5,0,1,0c2,0,2-2,2-2v-5.998C39,35.553,38.553,36,38,36z"/><rect width="14" height="3" x="18" y="27" fill="#64b5f6"/><rect width="14" height="10" x="18" y="17" fill="#bbdefb"/><path fill="#2196f3" d="M25,22L25,22c-0.552,0-1,0.448-1,1v4h2v-4C26,22.448,25.552,22,25,22z"/><path fill="#2196f3" d="M29,22L29,22c-0.552,0-1,0.448-1,1v4h2v-4C30,22.448,29.552,22,29,22z"/><path fill="#2196f3" d="M21,22L21,22c-0.552,0-1,0.448-1,1v4h2v-4C22,22.448,21.552,22,21,22z"/><path fill="#bbdefb" d="M31,13c-0.627,0-1.212,0.157-1.74,0.414C28.382,11.972,26.811,11,25,11s-3.382,0.972-4.26,2.414C20.212,13.157,19.627,13,19,13c-2.209,0-4,1.791-4,4c0,2.209,1.791,4,4,4c1.102,0,2.1-0.446,2.824-1.168C22.69,20.551,23.787,21,25,21s2.31-0.449,3.176-1.168C28.9,20.554,29.898,21,31,21c2.209,0,4-1.791,4-4C35,14.791,33.209,13,31,13z"/></svg>