<svg xmlns="http://www.w3.org/2000/svg" xmlns:xlink="http://www.w3.org/1999/xlink" width="48" height="48" viewBox="0 0 48 48"><path fill="#3E2723" d="M23 20.959c0 .552-.447 1-1 1l0 0c-.553 0-1-.448-1-1v-2c0-.554.447-1 1-1l0 0c.553 0 1 .446 1 1V20.959zM27 20.959c0 .552-.447 1-1 1l0 0c-.553 0-1-.448-1-1v-2c0-.554.447-1 1-1l0 0c.553 0 1 .446 1 1V20.959z"/><path fill="#AA290B" d="M10.333 23.162c0 0-3-3 0-6 3-1 4 2 4 2s-3 2-2 4S10.333 23.162 10.333 23.162zM37.667 24.069c0 0 3-3 0-6-3-1-4 2-4 2s3 2 2 4S37.667 24.069 37.667 24.069zM32.004 43L32 42.959 33.806 41.302 33.193 38.853 26.528 37.9 25.293 36.666 26.707 35.252 27.472 36.016 34.807 37.063 36.194 42.614z"/><path fill="#AA290B" d="M39 39.959L39 39.959 38.855 37.229 36.646 35.019 29.764 36.002 26.445 33.79 27.555 32.127 30.236 33.914 37.354 32.897 41.145 36.688zM31.124 31.95L30.876 29.966 38.291 29.039 40 24.766 40 19.959 40 19.959 42 25.15 39.709 30.877zM15.996 43L16 42.959 14.194 41.302 14.807 38.853 21.472 37.9 22.707 36.666 21.293 35.252 20.528 36.016 13.193 37.063 11.806 42.614z"/><path fill="#AA290B" d="M9 39.959L9 39.959 9.145 37.229 11.354 35.019 18.236 36.002 21.555 33.79 20.445 32.127 17.764 33.914 10.646 32.897 6.855 36.688zM16.876 31.95L17.124 29.966 9.709 29.039 8 24.766 8 19.959 8 19.959 6 25.15 8.291 30.877z"/><g><path fill="#FF5722" d="M18,15.959c1.265-0.634,2-3,6.063-4.985c0-1.496-5.984,0-8.977,2.992C13,15.959,16,16.959,18,15.959z"/><path fill="#FF5722" d="M12.031 14.438c0 0-1.496-7.479 7.48-7.479.478 0 4.488 0 4.488 1.495-2.992 0-7.48 1.496-7.48 4.488 0 1.496-.52 3.017-.52 3.017L12.031 14.438zM29.804 14.886c-.786-1.175-.254-3.597-2.804-7.33.74-1.3 5.201 2.96 6.322 7.04C34.149 17.359 31.048 16.744 29.804 14.886z"/><path fill="#FF5722" d="M35.743 16.518c0 0 5-5.762-2.802-10.201-.415-.236-3.901-2.221-4.641-.92 2.601 1.48 5.761 5 4.281 7.601-.739 1.3-1.04 2.878-1.04 2.878L35.743 16.518zM28 35.957c0 0-.531 1.002-2 1.002-1.375 0-2.469-.002-4-.002s-2-1-2-1c-4-4.998-9-4.998-9-9 0-4.998 4.925-8 11-8h4c6.075 0 11 2.999 11 8C37 30.959 32 30.959 28 35.957z"/></g><g><path fill="#D84315" d="M37.631 18.06c-.073-.879-.293-2.32-.964-2.99-3-1-4 2-4 2s.673 1.151 1.465 2.118C34.682 18.399 35.767 17.456 37.631 18.06zM13.868 18.28c.792-.967 1.465-2.118 1.465-2.118s-1-3-4-2c-.67.67-.891 2.111-.963 2.99C12.233 16.549 13.318 17.492 13.868 18.28zM20 22.959L24 36.959 28 22.959 27 18.959 24 18.959 21 18.959z"/></g></svg>