<svg xmlns="http://www.w3.org/2000/svg" xmlns:xlink="http://www.w3.org/1999/xlink" viewBox="0 0 48 48"><path fill="#e67e22" d="M33.986,5.708c-1.549,5.044-5.316,10.03-11.761,16.517C15.737,28.67,10.752,32.437,5.708,33.986c-2.475,0.76-2.188,4.346,0.397,4.988c0.231,0.057,0.467,0.115,0.71,0.172c9.075,2.154,18.73,0.268,25.573-6.046l0.026,0.026c0.12-0.12,0.227-0.247,0.343-0.369c0.122-0.117,0.249-0.224,0.369-0.343l-0.026-0.026c6.314-6.843,8.201-16.498,6.046-25.573c-0.058-0.243-0.115-0.479-0.172-0.71C38.332,3.519,34.746,3.233,33.986,5.708z"/><path fill="#ff9800" d="M41,12c0,7.833-2.318,15.691-8.3,21.673C26.947,39.426,19.75,42,12,42L9,31L31,9L41,12z"/><path fill="#ffb74d" d="M43,21.907c-1.149,5.027-3.684,9.818-7.606,13.739c-3.663,3.663-8.065,6.112-12.741,7.354L12.413,25.591l13.645-13.645L43,21.907z"/><path fill="#ffcc80" d="M41,33.06c-1.063,1.666-2.327,3.232-3.778,4.683c-1.199,1.199-2.485,2.269-3.835,3.203L15,20.946l6-6L41,33.06z"/></svg>