<?xml version="1.0" encoding="utf-8"?><!-- Generator: Adobe Illustrator 15.0.0, SVG Export Plug-In . SVG Version: 6.00 Build 0)  --><!DOCTYPE svg PUBLIC "-//W3C//DTD SVG 1.1//EN" "http://www.w3.org/Graphics/SVG/1.1/DTD/svg11.dtd"><svg xmlns="http://www.w3.org/2000/svg" xmlns:xlink="http://www.w3.org/1999/xlink" version="1.1" x="0px" y="0px" width="528" height="528" viewBox="0 0 48 48" enable-background="new 0 0 48 48" xml:space="preserve">
<path fill="#C62828" d="M33,19h-4.583v3H33c2.206,0,4,1.794,4,4.016c0,0.017-0.142,1.747-1.425,4.313l-0.359,0.727  C33.778,33.978,33.122,35,31.417,35h-3v3h3c3.725,0,5.131-2.857,6.491-5.62l0.351-0.709C39.878,28.432,40.005,26.201,40,26  C40,22.141,36.859,19,33,19z"/>
<g>
	<path fill="#BCAAA4" d="M24.967,14.908l-0.318-0.456c-0.117-0.189-1.15-1.898-1.15-3.528c0-0.979,0.376-1.585,0.65-2.026   c0.218-0.352,0.35-0.563,0.35-0.974c0-0.898-0.613-2.09-0.851-2.474l-0.283-0.458l1.696-1.053l0.287,0.456   c0.117,0.189,1.15,1.898,1.15,3.528c0,0.98-0.376,1.586-0.65,2.028c-0.218,0.351-0.35,0.563-0.35,0.972   c0,0.898,0.613,2.09,0.851,2.474l0.314,0.458L24.967,14.908z"/>
	<path fill="#BCAAA4" d="M19.982,14.908l-0.318-0.456c-0.117-0.189-1.15-1.898-1.15-3.528c0-0.979,0.376-1.585,0.65-2.026   c0.218-0.352,0.35-0.563,0.35-0.974c0-0.898-0.613-2.09-0.851-2.474L18.38,4.992l1.696-1.053l0.287,0.456   c0.117,0.189,1.15,1.898,1.15,3.528c0,0.98-0.376,1.586-0.65,2.028c-0.218,0.351-0.35,0.563-0.35,0.972   c0,0.898,0.613,2.09,0.851,2.474l0.314,0.458L19.982,14.908z"/>
	<path fill="#BCAAA4" d="M14.998,14.908l-0.318-0.456c-0.117-0.189-1.15-1.898-1.15-3.528c0-0.979,0.376-1.585,0.65-2.026   c0.218-0.352,0.35-0.563,0.35-0.974c0-0.898-0.613-2.09-0.851-2.474l-0.283-0.458l1.696-1.053l0.287,0.456   c0.117,0.189,1.15,1.898,1.15,3.528c0,0.98-0.376,1.586-0.65,2.028c-0.218,0.351-0.35,0.563-0.35,0.972   c0,0.898,0.613,2.09,0.851,2.474l0.314,0.458L14.998,14.908z"/>
</g>
<path fill="#F44336" d="M32,14.5c0-0.828-0.672-1.5-1.5-1.5h-21C8.672,13,8,13.672,8,14.5c0,0,0,13.5,3,29.5h18  C32,28,32,14.5,32,14.5z"/>
</svg>