<svg xmlns="http://www.w3.org/2000/svg" xmlns:xlink="http://www.w3.org/1999/xlink" viewBox="0 0 48 48"><path fill="#ffa000" d="M45,23L28.71,6.711c-0.945-0.945-2.477-0.945-3.422,0L8,24h37V23z"/><path fill="#ffc107" d="M3,24h35L21.71,7.711c-0.945-0.945-2.477-0.945-3.422,0L3,23V24z"/><path fill="#ffb300" d="M38,24H3v-1l4-4c2-2,10.17-1.79,13.65-3.78c1.73-1,2.35-2.57,2.35-4.22c0-1.16-0.44-2.44-1.06-3.06 L38,24z"/><path fill="#bcaaa4" d="M3,22c-0.552,0-1,0.448-1,1v0.5C2,31.426,7.339,37.951,15,41l1,1h16l1-1 c7.661-3.049,13-9.574,13-17.5V23c0-0.552-0.448-1-1-1H3z"/><path fill="#795548" d="M15,41v3h18v-3H15z"/></svg>