<svg xmlns="http://www.w3.org/2000/svg" xmlns:xlink="http://www.w3.org/1999/xlink" viewBox="0 0 48 48"><ellipse cx="12" cy="28" fill="#ff9800" rx="8" ry="14"/><ellipse cx="17" cy="28" fill="#f57c00" rx="9" ry="14"/><ellipse cx="18" cy="28" fill="#ff9800" rx="8" ry="15"/><ellipse cx="23" cy="28" fill="#f57c00" rx="9" ry="14"/><ellipse cx="36" cy="28" fill="#ff9800" rx="8" ry="14"/><ellipse cx="31" cy="28" fill="#f57c00" rx="9" ry="14"/><ellipse cx="30" cy="28" fill="#ff9800" rx="8" ry="15"/><ellipse cx="25" cy="28" fill="#f57c00" rx="9" ry="14"/><path fill="#4caf50" d="M27,18h-6c0-5,2-10,6-12l2,2C27,10,27,14.691,27,18z"/><ellipse cx="24" cy="28" fill="#ff9800" rx="8" ry="15"/><circle cx="15" cy="27" r="3"/><circle cx="15" cy="25" r="1" fill="#fff"/><circle cx="33" cy="27" r="3"/><circle cx="33" cy="25" r="1" fill="#fff"/><path d="M24,32c1.136,0,2.156,0.359,2.884,0.929C27.621,32.198,28,31.161,28,30h-8c0,1.161,0.379,2.198,1.116,2.929 C21.844,32.359,22.864,32,24,32z"/><path fill="#ff3d00" d="M24,32c-1.136,0-2.156,0.359-2.884,0.929C21.781,33.588,22.735,34,24,34s2.219-0.412,2.884-1.071 C26.156,32.359,25.136,32,24,32z"/></svg>