<svg xmlns="http://www.w3.org/2000/svg" xmlns:xlink="http://www.w3.org/1999/xlink" viewBox="0 0 48 48"><path fill="#ff6d00" d="M8,12c0,0-0.001,0-0.001,0L8,12c-4.001,0-6.75,5.5-7.001,10c0,0.001,0,0.001,0,0.002C0.354,23.04,0,24.138,0,25.235c0,3.25,2,4.765,2,4.765v-7.009c0.002-3.132,1.23-5.162,2.403-6.393l1.597,0C6,14,8,12,8,12z"/><path fill="#ffb74d" d="M28,31c0,0,1,4,1,8v1l2.99-2L33,31v-1h-5V31z"/><path fill="#ffb74d" d="M4,35c0,2,0,2.917,0,4h3l-0.007-1c0-2.355,3.007-8,3.007-8v-1H4.925C4.698,30.789,4,32.845,4,35z"/><path fill="#ffb74d" d="M14,23v7.122C17.555,30.388,17.525,31,23,31c1.273,0,2.948,0,4,0v-8H14z"/><path fill="#ff6e40" d="M26,11c-0.009,0-0.079,0-0.51,0c-1.851,0-3.833,0.285-5.297,0.783C18.854,12.26,16.06,12.875,14,12.968V24h13V11.052C26.708,11.022,26.388,11,26,11z"/><polygon fill="#f4511e" points="29,39 32,38 33,41 29,41"/><polygon fill="#f4511e" points="4,39 7,38 8,41 4,41"/><path fill="#ffd54f" d="M38.983,20.728c-2.91-2.089-4.713-5.334-4.945-8.903l-0.015-0.231c-0.331,0.117-0.644,0.222-0.983,0.297C32.73,11.96,32.39,12,32,12c-1.418,0-2.337-0.506-4-0.802v0l0,0C27.433,11.1,26.875,11,26,11v14h11.303c0.189-0.913,0.43-2.354,1.097-3.46c0.178-0.29,0.388-0.553,0.63-0.779L38.983,20.728z"/><path fill="#d32f2f" d="M48,17.5c0,0.1-0.22,1.5-1.5,1.5C44,19,43,20,41,20c-1.26,0-2.06,0.66-2.6,1.54c-3.05-2.19-5.1-5.67-5.36-9.65c0.9-0.2,1.62-0.61,2.96-0.89c-1,0-2-2-2-3c3,0,3.53,1.52,4,2c0.02-0.02,0-2,2.5-2C42,8,42.57,7.24,43,7c-0.3,1.19-1.3,1.67-2.12,2C40.25,9.25,40,9.62,40,10c0.07,0.06,1.38,0,2.76,1.77c0.28,0.35,1.24,1.98,4.52,4.12C47.81,16.24,48,16.55,48,17.5z"/><path fill="#ff6d00" d="M26,24v7c0.366,0,7,0,7,0s3-0.12,4.25-5.75c0.075-0.332,0.154-0.769,0.261-1.25H26z"/><path fill="#bf360c" d="M15,12.892c-0.535,0.058-1.051,0.095-1.51,0.095c-1.056,0-2.174-0.309-3.16-0.581c-0.38-0.105-0.739-0.204-1.077-0.279C9.158,12.104,8.409,12,8,12c0,0-0.001,0-0.001,0l0,0c0,0-0.001,0-0.001,0c-0.015,0-0.029,0.004-0.044,0.004c-0.293,0.03-2.089,0.384-3.551,4.594C4.189,17.712,4,19.261,4,21c0,4,1,6,1,7c0,0.32-0.02,0.66-0.07,1c-0.01,0.04-0.01,0.09-0.02,0.13c0,0.02-0.01,0.04-0.02,0.07L4.737,30C6.97,30,8.756,30,10,30c1.08,0,3.957,0.12,3.957,0.12c0.384,0.028,0.731,0.06,1.043,0.096V12.892z"/></svg>