<svg xmlns="http://www.w3.org/2000/svg" xmlns:xlink="http://www.w3.org/1999/xlink" viewBox="0 0 48 48"><polygon fill="#ffb74d" points="24.875,31 28,39 32,39 32,31"/><polygon fill="#f4511e" points="28,39 32,38 33,41 28,41"/><path fill="#ffb74d" d="M9,31l-2,2v6h4c0-2,0-2,0-2s5.75-3,6.75-6H9z"/><polygon fill="#f4511e" points="7,39 11,38 12,41 7,41"/><path fill="#bf360c" d="M7.5,19C6,19,3,18,3,14.375C3,13.625,3.375,12,5.125,12C6.25,12,7,12.825,7,14c0,1.25-1.125,3-3,3c-2,0-2.8-1.3-3-2c0.3,0.7,0.9,1.16,1.6,1.36c0.7,0.2,1.4,0.04,2.1-0.16C5.4,16,6,15.25,6,14.375s-0.375-1.119-0.75-1.119c-0.224,0-0.75,0.244-0.75,1.119C4.5,15.813,6,17,8,17v2H7.5z"/><path fill="#d32f2f" d="M40,16c0,0,5-2,5-9c-4,2-10,2-10,9H40z"/><path fill="#bf360c" d="M17,10.007c-0.331,0.095-0.665,0.199-1,0.313c-0.07,0.02-0.14,0.05-0.21,0.07c-0.33,0.11-0.65,0.24-0.98,0.37C10.8,12.43,7,15.68,7,22c0,4,2,9,2,9s1.6,1.6,6.73,2.46c0.09,0.01,0.18,0.03,0.27,0.04c0.03,0.01,0.07,0.01,0.11,0.02c0.285,0.045,0.582,0.087,0.89,0.126V10.007z"/><path fill="#ffb74d" d="M16,23v10.5c0.03,0.01,0.07,0.01,0.11,0.02C17.95,33.81,20.22,34,23,34c0.68,0,1.35,0,2-0.01c0.341,0.007,0.67,0.002,1,0V23H16z"/><path fill="#d32f2f" d="M45.5,22c-2.974-0.744-4.432-7.547-11.499-10.997c0,0-0.299-0.16-0.461-0.233c-0.149-0.066-0.298-0.13-0.447-0.19C32.935,10.903,31,15.02,31,23v10.81c0.332-0.024,0.677-0.038,1-0.07c0,0,0.672-0.068,1-0.11c0.58-0.07,1.14-0.16,1.69-0.27c2.47-0.46,4.7-1.26,6.78-2.66c1.09-0.73,2.91-2.32,4.15-2.7v-0.02C46.4,27.85,47,26.61,47,25C47,23.3,46.34,22,45.5,22z"/><path fill="#ff6d00" d="M32,23v10.74c-1.44,0.14-2.97,0.2-4.58,0.22c-0.34,0.01-0.69,0.02-1.04,0.02v0.01c-0.45,0-0.91,0.01-1.38,0V23H32z"/><path fill="#ffd54f" d="M33.54,10.77c-1.71-0.77-3.78-1.35-6.33-1.61c-0.313-0.033-0.633-0.061-0.96-0.084c-0.006,0-0.015,0.006-0.022,0.008C25.521,9.029,24.78,9,24,9v15h8v-1c0-7.821,1.91-11.814,1.991-11.98l0.026-0.011C33.858,10.929,33.704,10.844,33.54,10.77z"/><path fill="#ff6e40" d="M25,24V9.02C24.67,9.01,24.34,9,24,9c-0.41,0-4.14,0-8,1.32V24H25z"/></svg>