<svg xmlns="http://www.w3.org/2000/svg" xmlns:xlink="http://www.w3.org/1999/xlink" x="0" y="0" viewBox="0 0 48 48"><path fill="#5d4037" d="M24.6,10.7h-2c0-6.2,3.1-9.6,3.3-9.7l1.4,1.4l-0.7-0.7l0.7,0.7C27.4,2.4,24.6,5.3,24.6,10.7z"/><path fill="#7a534b" d="M37,24.6c0,2.2-1,4.3-1.5,6.3c-0.5,2.2-0.4,4.6-1.3,6.4c-1.1,2.1-3,3.4-4.5,4.7C27.9,43.4,26.1,45,24,45c-2.1,0-3.9-1.6-5.7-3.1c-1.5-1.3-3.5-2.6-4.5-4.7c-0.9-1.8-0.9-4.1-1.3-6.4c-0.4-2-1.5-4.1-1.5-6.3c0-2.2,1-4.3,1.5-6.3c0.5-2.2,0.4-4.6,1.3-6.4c1.1-2.1,2.9-3.5,4.5-4.7c2.3-1.6,9.2-1.7,11.3,0c1.5,1.2,3.5,2.6,4.5,4.7c0.9,1.8,0.9,4.1,1.3,6.4C36,20.2,37,22.3,37,24.6z"/><path fill="#5d4037" d="M25.2,28.1c-0.6-1.4-0.9-2.8-1.1-4.3c-0.2-1.5-0.1-3,0.2-4.5c0.2-1.5,0.8-2.9,1.5-4.2c0.7-1.3,1.8-2.4,3-3.3l0.4,0.4c-0.6,1.3-1.3,2.5-1.7,3.7c-0.5,1.2-0.9,2.5-1.1,3.8c-0.3,1.3-0.4,2.6-0.5,4c-0.1,1.4-0.1,2.8-0.1,4.2L25.2,28.1z"/><path fill="#5d4037" d="M19.9,27.1c-0.1,0.3-0.1,0.5-0.2,0.7c0,0.2,0,0.4,0,0.6c0.1,0.4,0.1,0.7,0.3,1.1c0.4,0.7,1,1.5,1.5,2.5c0.5,1,0.7,2.4,0.3,3.5c-0.4,1.2-1.2,2-2,2.6l-0.4-0.3c0.3-1,0.7-1.8,0.7-2.7c0.1-0.8-0.1-1.5-0.4-2.3c-0.3-0.8-0.9-1.7-1.2-2.8c-0.2-0.6-0.1-1.2,0-1.8c0.1-0.3,0.3-0.6,0.4-0.8c0.2-0.2,0.4-0.4,0.6-0.6L19.9,27.1z"/><path fill="#5d4037" d="M14.9,25.8c0.7-1.2,1.1-2.4,1.2-3.7c0.1-1.3,0.1-2.7,0.2-4.1c0.1-1.4,0.3-3,1.1-4.4c0.7-1.4,2-2.5,3.5-2.9l0.3,0.4c-1,1-1.8,2-2.1,3.2c-0.4,1.2-0.5,2.5-0.6,3.8c-0.1,1.4-0.2,2.8-0.6,4.3c-0.4,1.4-1.2,2.9-2.5,3.7L14.9,25.8z"/><path fill="#5d4037" d="M32.7,19.8c0.7,0.5,1.3,1.2,1.7,2.1c0.4,0.9,0.5,1.8,0.4,2.7c-0.1,0.9-0.4,1.8-0.8,2.6c-0.5,0.8-1,1.5-1.8,1.9l-0.5-0.5c0.7-1.4,1.2-2.8,1.3-4.2c0.1-0.7,0-1.4-0.1-2.1c-0.1-0.7-0.4-1.4-0.6-2.2L32.7,19.8z"/><path fill="#5d4037" d="M29.3,32.1c0.2,1,0.1,2-0.1,3c-0.3,1-0.7,1.9-1.3,2.8c-1.2,1.7-2.9,3-4.8,3.6l-0.4-0.8c1.5-1,2.8-2.2,3.8-3.7c1-1.5,1.7-3.1,2-4.9L29.3,32.1z"/><ellipse cx="24" cy="6.4" fill="#8d6e63" rx="3" ry="1.5"/></svg>