<svg xmlns="http://www.w3.org/2000/svg" xmlns:xlink="http://www.w3.org/1999/xlink" viewBox="0 0 48 48"><path fill="#795548" d="M3,22l4.625,11.485C7.848,34.375,8.648,35,9.565,35h14.87c0.918,0,1.718-0.625,1.94-1.515L31,22v-5H3V22z"/><path fill="#5d4037" d="M30.61,20c-2.88,0.06-5.27,0.72-7.8,1.41C19.96,22.19,17.02,23,13,23c-6.5,0-10-2.32-10-4.5V22l1.39,3.46C6.56,26.41,9.41,27,13,27c4.56,0,7.91-0.92,10.87-1.73c2.21-0.61,4.15-1.14,6.32-1.24L31,22v-2.2C30.88,19.87,30.75,19.94,30.61,20z"/><path fill="#9575cd" d="M34,18c0,1-0.25,3-3,4c-6,0-10,3-18,3S1,21.81,1,18.5c0-2.47,2.03-4.59,4.97-5.27C6.61,13.08,7.29,13,8,13c0-4.81,4.17-6.59,7-8c2-1,2-3,2-3s7,4,7,8c0.83,0.1,1.59,0.24,2.29,0.41C32.39,11.81,34,15.31,34,18z"/><path fill="#5e35b1" d="M26.29,10.41c0,0-1.29,2.59-7.29,2.59c0,0,4-1,5-3C24.83,10.1,25.59,10.24,26.29,10.41z"/><path fill="#5e35b1" d="M8,13c-0.71,0-1.39,0.08-2.03,0.23C5.97,13.23,6,17,11,17c2,0,4-1,4-1C8,16,8,13,8,13z"/><path fill="#ffd54f" d="M18,29c0,0-1-0.992-1-2.336C17,23.975,20.088,17,32.221,17S47,24.017,47,26.706C47,28.05,46,29,46,29l-2,2H20L18,29z"/><path fill="#f57c00" d="M17.385,28.125l6.087,13.688C23.793,42.535,24.509,43,25.299,43h13.402c0.79,0,1.506-0.465,1.827-1.186l6.097-13.689H17.385z"/><path fill="#ef6c00" d="M38.625,28L37,43l5.5-14.875L38.625,28z"/><path fill="#ef6c00" d="M21.5,28.125L24.412,36h1.83l-0.867-8L21.5,28.125z"/><path fill="#ef6c00" d="M34,29l-2,14l-2-14.125c0-0.55,1.367,0.5,1.917,0.5S34,28.45,34,29z"/><path fill="#ffb300" d="M46.82,27.65c-0.05,0.18-0.13,0.35-0.21,0.5l-0.59,1.33l-0.76-0.3C45.22,29.17,44.74,29,44,29c-2.17,0-3.49,0.73-3.5,0.74L40,30.02l-0.5-0.28C39.49,29.73,38.17,29,36,29s-3.49,0.73-3.5,0.74L32,30.02l-0.5-0.28C31.49,29.73,30.17,29,28,29s-3.49,0.73-3.5,0.74L24,30.02l-0.5-0.28C23.49,29.73,22.17,29,20,29c-0.77,0-1.26,0.18-1.26,0.18l-0.75,0.28l-0.6-1.34c-0.08-0.14-0.15-0.3-0.21-0.47L18,27.32c0.09-0.03,0.84-0.32,2-0.32c1.9,0,3.3,0.47,4,0.77c0.7-0.3,2.1-0.77,4-0.77s3.3,0.47,4,0.77c0.7-0.3,2.1-0.77,4-0.77s3.3,0.47,4,0.77c0.7-0.3,2.1-0.77,4-0.77c1.16,0,1.91,0.29,2,0.32L46.82,27.65z"/><path fill="#ec407a" d="M26.5,38h-20C6.224,38,6,37.776,6,37.5V36c0-1,1-4,11-4c9,0,10,3,10,4v1.5C27,37.776,26.776,38,26.5,38z"/><path fill="#ec407a" d="M6.5,40h20c0.276,0,0.5,0.224,0.5,0.5V42c0,1-1,4-11,4c-9,0-10-3-10-4v-1.5C6,40.224,6.224,40,6.5,40z"/><path fill="#f48fb1" d="M26,40H7c-0.553,0-1-0.447-1-1s0.447-1,1-1h19c0.553,0,1,0.447,1,1S26.553,40,26,40z"/><path fill="#d81b60" d="M26.5,38h-20C6.224,38,6,37.776,6,37.5V36h21v1.5C27,37.776,26.776,38,26.5,38z"/><path fill="#d81b60" d="M27,42H6v-1.5C6,40.224,6.224,40,6.5,40h20c0.276,0,0.5,0.224,0.5,0.5V42z"/></svg>