<svg xmlns="http://www.w3.org/2000/svg" xmlns:xlink="http://www.w3.org/1999/xlink" viewBox="0 0 48 48"><path fill="#ffecb3" d="M32,10L32,10c-0.3-1.1-1.3-2-2.5-2c-0.2,0-0.4,0-0.5,0.1C28.8,6.9,27.7,6,26.5,6 c-0.6,0-1.1,0.2-1.5,0.5C24.6,6.2,24.1,6,23.5,6c-1.2,0-2.3,0.9-2.5,2.1C20.9,8,20.7,8,20.5,8c-1.2,0-2.2,0.9-2.4,2H18 c0,9.4-11,6.7-11,20.5C7,36.9,15.1,42,25,42s18-5.1,18-11.5C43,16.7,32,19.4,32,10z"/><path fill="#ffe082" d="M38.7,19.6c0.8,1.7,1.3,3.9,1.3,6.9C40,32.9,31.9,38,22,38c-5.9,0-11.1-1.8-14.4-4.6 c2,5,9,8.6,17.4,8.6c9.9,0,18-5.1,18-11.5C43,24.6,41,21.7,38.7,19.6z"/><path fill="#ffd54f" d="M25 22c-.6 0-1-.4-1-1V7c0-.6.4-1 1-1 .6 0 1 .4 1 1v14C26 21.6 25.6 22 25 22zM19 21c-.3 0-.6-.1-.7-.3-.4-.4-.3-1 .1-1.4 0 0 2.7-2.6 2.7-11.3 0-.6.4-1 1-1s1 .4 1 1c0 9.7-3.2 12.6-3.3 12.7C19.5 20.9 19.2 21 19 21zM31 21c-.2 0-.5-.1-.7-.3C30.2 20.6 27 17.7 27 8c0-.6.4-1 1-1s1 .4 1 1c0 8.6 2.6 11.2 2.7 11.3.4.4.5 1 .1 1.4C31.5 20.9 31.3 21 31 21z"/><path fill="#ffd54f" d="M15 19c-.3 0-.6-.1-.8-.3-.4-.4-.3-1 .1-1.4 3.9-3.4 3.7-7 3.7-7.2 0-.5.4-1 .9-1.1.5 0 1 .4 1.1.9 0 .2.3 4.7-4.3 8.8C15.5 18.9 15.2 19 15 19zM35 19c-.2 0-.4-.1-.6-.2-4.8-3.9-4.4-8.7-4.4-8.9.1-.5.5-1 1.1-.9.5 0 1 .5.9 1.1 0 .2-.3 4 3.6 7.1.4.3.5 1 .1 1.4C35.6 18.9 35.3 19 35 19z"/></svg>