<svg xmlns="http://www.w3.org/2000/svg" xmlns:xlink="http://www.w3.org/1999/xlink" viewBox="0 0 48 48"><path fill="#5c6bc0" d="M5,35V9.18C5,6.871,6.871,5,9.18,5h29.64C41.129,5,43,6.871,43,9.18V35H5z"/><path fill="#b0bec5" d="M32.5 23A1.5 1.5 0 1 0 32.5 26A1.5 1.5 0 1 0 32.5 23Z"/><path fill="#94a3a8" d="M40,33H25c-0.552,0-1-0.448-1-1v0c0-0.552,0.448-1,1-1h15c0.552,0,1,0.448,1,1v0 C41,32.552,40.552,33,40,33z"/><path fill="#b0bec5" d="M39.975,31c-0.228-3.903-3.456-7-7.415-7s-7.188,3.097-7.415,7H39.975z"/><path fill="#fff" d="M28.5,28.5c-0.09,0-0.18-0.023-0.261-0.073c-0.235-0.145-0.31-0.452-0.166-0.688 c0.304-0.496,1.182-1.704,2.774-2.216c0.263-0.082,0.544,0.06,0.629,0.324c0.084,0.263-0.061,0.544-0.324,0.629 c-1.309,0.42-2.034,1.472-2.226,1.784C28.832,28.415,28.668,28.5,28.5,28.5z"/><path fill="#7bbdea" d="M28.262 21.5c-.087 0-.174-.022-.254-.069-.238-.14-.317-.446-.177-.685l.133-.224c.368-.614.536-.894.536-1.768 0-.455-.223-.838-.459-1.243-.186-.319-.378-.65-.462-1.026-.2-.904-.029-1.801.524-2.739.14-.238.446-.315.685-.177.238.14.317.446.177.685-.419.71-.553 1.369-.409 2.015.05.225.195.475.35.739.265.456.595 1.022.595 1.747 0 1.15-.284 1.625-.678 2.281l-.13.218C28.6 21.412 28.433 21.5 28.262 21.5zM32.262 21.5c-.087 0-.174-.022-.254-.069-.238-.14-.317-.446-.177-.685l.133-.224c.368-.614.536-.894.536-1.768 0-.455-.223-.838-.459-1.243-.186-.319-.378-.65-.462-1.026-.2-.904-.029-1.801.524-2.739.14-.238.447-.315.685-.177.238.14.317.446.177.685-.419.71-.553 1.369-.409 2.015.05.225.195.475.35.739.265.456.595 1.022.595 1.747 0 1.15-.284 1.625-.678 2.281l-.13.218C32.6 21.412 32.433 21.5 32.262 21.5zM36.262 21.5c-.087 0-.174-.022-.254-.069-.238-.14-.317-.446-.177-.685l.133-.224c.368-.614.536-.894.536-1.768 0-.455-.223-.838-.459-1.243-.186-.319-.378-.65-.462-1.026-.2-.904-.029-1.801.524-2.739.14-.238.447-.315.685-.177.238.14.317.446.177.685-.419.71-.553 1.369-.409 2.015.05.225.195.475.35.739.265.456.595 1.022.595 1.747 0 1.15-.284 1.625-.678 2.281l-.13.218C36.6 21.412 36.433 21.5 36.262 21.5z"/><path fill="#39dee2" d="M43,33H5v5.723C5,41.085,6.915,43,9.277,43h29.445C41.085,43,43,41.085,43,38.723V33z"/><path fill="#ffc107" d="M13.274,7c-0.106,0-0.208,0.01-0.313,0.016c1.598,0.777,2.708,2.401,2.708,4.297 c0,2.646-2.145,4.792-4.792,4.792c-1.054,0-2.02-0.351-2.812-0.928c0.916,1.961,2.9,3.324,5.207,3.324 c3.176,0,5.75-2.574,5.75-5.75S16.449,7,13.274,7z"/></svg>