<?xml version="1.0" encoding="utf-8"?><!-- Generator: Adobe Illustrator 19.1.1, SVG Export Plug-In . SVG Version: 6.00 Build 0)  --><svg xmlns="http://www.w3.org/2000/svg" xmlns:xlink="http://www.w3.org/1999/xlink" version="1.1" x="0px" y="0px" viewBox="0 0 48 48" enable-background="new 0 0 48 48" xml:space="preserve" width="528" height="528">
<path fill="#33691E" d="M41,37H7c-3.3,0-6-2.7-6-6V17c0-3.3,2.7-6,6-6h34c3.3,0,6,2.7,6,6v14C47,34.3,44.3,37,41,37z"/>
<path fill="#689F38" d="M47.9,16c-0.5-2.8-3-5-5.9-5H6c-3,0-5.4,2.2-5.9,5C1,15.9,9,15.7,11,24c9.5-3.8,13,4,13,4s3.5-7.8,13-4  C39,15.7,47,15.9,47.9,16z"/>
<g>
	<path fill="#558B2F" d="M7.9,18.6c-1.8,3.9-4.8,6.8-6.9,8.6v2.6c2.1-1.6,5.9-4.9,8.4-9.6C8.9,19.6,8.4,19.1,7.9,18.6z"/>
	<path fill="#558B2F" d="M17.6,23.1c-0.5,4-1.6,9.4-3.9,13.9h2.2c2.1-4.4,3.2-9.4,3.7-13.3C19,23.5,18.3,23.3,17.6,23.1z"/>
	<path fill="#558B2F" d="M40.1,18.6c-0.5,0.5-1,1-1.4,1.6c2.4,4.7,6.3,8,8.4,9.6v-2.6C44.9,25.5,41.9,22.5,40.1,18.6z"/>
	<path fill="#558B2F" d="M28.4,23.7c0.5,3.9,1.5,8.8,3.7,13.3h2.2c-2.4-4.5-3.5-9.8-3.9-13.9C29.7,23.3,29,23.5,28.4,23.7z"/>
</g>
<path fill="#1B5E20" d="M47,18v-1c0-0.3,0-0.7-0.1-1c-2.4,0.1-8.2,1.1-9.9,8c-1.9-0.7-3.5-1-4.9-1c-5.8,0-8.1,5-8.1,5s-2.3-5-8.1-5  c-1.4,0-3,0.3-4.9,1c-1.7-6.9-7.5-7.9-9.9-8C1,16.3,1,16.7,1,17v1c2.2,0.1,6.7,1,8.1,6.5c0.1,0.6,0.5,1,1,1.3  c0.3,0.1,0.6,0.2,0.9,0.2c0.2,0,0.5,0,0.7-0.1c1.5-0.6,2.9-0.9,4.2-0.9c4.4,0,6.2,3.7,6.3,3.9c0.3,0.7,1,1.2,1.8,1.2c0,0,0,0,0,0  c0.8,0,1.5-0.5,1.8-1.2c0.1-0.1,1.9-3.8,6.3-3.8c1.3,0,2.7,0.3,4.2,0.9C36.5,26,36.8,26,37,26c0.3,0,0.6-0.1,0.9-0.2  c0.5-0.3,0.9-0.7,1-1.3C40.3,19,44.8,18.1,47,18z"/>
<g>
	<path fill="#33691E" d="M28.7,25.8c0.6-0.3,1.2-0.6,1.9-0.7c-0.1-0.7-0.2-1.3-0.3-2c-0.7,0.1-1.4,0.3-2,0.6   C28.5,24.4,28.6,25.1,28.7,25.8z"/>
	<path fill="#33691E" d="M39.8,22.2c0.4-0.7,0.8-1.3,1.3-1.8c-0.4-0.6-0.7-1.2-1-1.8c-0.5,0.5-1,1-1.4,1.6   C39,20.9,39.4,21.6,39.8,22.2z"/>
	<path fill="#33691E" d="M19.6,23.7c-0.6-0.3-1.2-0.5-2-0.6c-0.1,0.6-0.2,1.3-0.3,2c0.7,0.1,1.4,0.4,1.9,0.7   C19.4,25.1,19.5,24.4,19.6,23.7z"/>
	<path fill="#33691E" d="M9.4,20.3c-0.4-0.6-0.9-1.2-1.4-1.6c-0.3,0.6-0.6,1.2-1,1.8c0.5,0.5,0.9,1.1,1.3,1.8   C8.6,21.6,9,20.9,9.4,20.3z"/>
</g>
<g>
	<path fill="#7CB342" d="M31.3,11c1.5,2.2,4.3,6.8,4.7,12.6c0.3,0.1,0.7,0.2,1,0.4c0.2-0.8,0.5-1.6,0.8-2.2   c-0.6-4.6-2.6-8.4-4.1-10.8H31.3z"/>
	<path fill="#7CB342" d="M10.7,22.9c0.1,0.4,0.2,0.7,0.3,1.1c0.6-0.3,1.3-0.5,1.9-0.6c3.5-4.5,3.7-9.5,3.5-12.4h-2   C14.6,13.6,14.4,18.7,10.7,22.9z"/>
	<path fill="#7CB342" d="M23.3,26.8C23.8,27.5,24,28,24,28s0.5-1,1.5-2.2c1.3-6.5,0.2-11.9-0.7-14.8h-2.1   C23.6,13.7,25.1,19.6,23.3,26.8z"/>
</g>
</svg>