<svg xmlns="http://www.w3.org/2000/svg" xmlns:xlink="http://www.w3.org/1999/xlink" viewBox="0 0 48 48"><path fill="#ffb300" d="M24,9C13.8,9,4,14.7,4,24s9.8,15,20,15s20-5.7,20-15S34.2,9,24,9z M24,27.5c-2.9,0-5.7-1.6-5.7-4.3 S21.1,19,24,19s5.7,1.6,5.7,4.3S26.9,27.5,24,27.5z"/><path fill="#4c2114" d="M4,23.5c0.1,0.9,0.4,1.7,1.1,2.1c0.7,0.3,1.3,0,1.9-0.2c0.7-0.2,1.4,0.3,1.9,0.7 c0.7,0.7,0.8,1.6,1.2,2.6c0.4,0.9,0.8,1.6,1.6,2.3c1.3,1.1,3.3,1.7,4.7,0.5c0.6-0.6,1.5-0.6,2.4-0.6c1.3,0.1,2.2,1,3.2,1.8 c1.3,1,2.3,1.9,4.1,2c2.1,0,3.8-1.4,4.9-3c0.6-0.9,1.1-2.8,2.2-3.1c0.9-0.2,1.8,0.9,2,1.7c0.2,1.1,0.2,2.6,1.5,2.8 c0.9,0.2,1.4-0.8,1.7-1.5c0.4-1,0.8-1.9,0.9-3c0-0.8,0.2-1.8,0.7-2.5c0.2-0.3,0.5-0.6,0.9-0.5c0.3,0,0.5,0.4,0.8,0.5 c0.8,0.2,3.1-1.8,1.7-7C41,12.1,32.6,8,24,8C13.8,8,4,13.7,4,23C4,23.2,4,23.3,4,23.5z M24,13c3.6,0,7,1.9,7,4.5S27.6,22,24,22 s-7-1.9-7-4.5S20.4,13,24,13z"/><path fill="#8bc34a" d="M7.9 19.6c-.5 0-.9-.3-1-.8-.1-.5.3-1.1.8-1.2L11 17c.5-.1 1.1.3 1.2.8.1.5-.3 1.1-.8 1.2l-3.3.6C8 19.6 8 19.6 7.9 19.6zM39.9 20.7c-.3 0-.6-.1-.8-.4l-1.8-2.4c-.3-.4-.2-1.1.2-1.4.4-.3 1.1-.2 1.4.2l1.8 2.4c.3.4.2 1.1-.2 1.4C40.3 20.6 40.1 20.7 39.9 20.7z"/><path fill="#4dd0e1" d="M29.6,27.8c-0.2,0-0.4-0.1-0.6-0.2c-0.4-0.3-0.5-1-0.2-1.4l1.8-2.4c0.3-0.4,1-0.5,1.4-0.2 c0.4,0.3,0.5,1,0.2,1.4l-1.8,2.4C30.2,27.6,29.9,27.8,29.6,27.8z"/><path fill="#80deea" d="M15.2,16.1c-0.5,0-1-0.4-1-0.9l-0.2-2.6c0-0.6,0.4-1,0.9-1.1c0.6,0,1,0.4,1.1,0.9l0.2,2.6 C16.3,15.6,15.9,16,15.2,16.1C15.3,16.1,15.3,16.1,15.2,16.1z"/><path fill="#ffeb3b" d="M23.5 12.4c-.3 0-.6-.1-.8-.4-.3-.4-.2-1.1.2-1.4l2.3-1.8c.4-.3 1.1-.2 1.4.2.3.4.2 1.1-.2 1.4l-2.3 1.8C23.9 12.3 23.7 12.4 23.5 12.4zM9.8 25c-.2 0-.3 0-.5-.1C8.8 24.6 8.7 24 9 23.5l1.7-2.8c.3-.5.9-.6 1.4-.4.5.3.6.9.4 1.4l-1.7 2.8C10.5 24.8 10.2 25 9.8 25zM23.3 30.8c-.2 0-.4 0-.5-.1-.5-.3-.6-.9-.3-1.4l1.6-2.6c.3-.5.9-.6 1.4-.3.5.3.6.9.3 1.4l-1.6 2.6C24 30.7 23.7 30.8 23.3 30.8z"/><path fill="#ff4081" d="M17.6 28.3c-.3 0-.5-.1-.7-.3l-2.1-2.3c-.4-.4-.3-1 .1-1.4.4-.4 1-.3 1.4.1l2.1 2.3c.4.4.3 1-.1 1.4C18.1 28.2 17.8 28.3 17.6 28.3zM32.9 16.4c-.1 0-.2 0-.3-.1-.5-.2-.8-.8-.6-1.3l.9-2.6c.2-.5.8-.8 1.3-.6.5.2.8.8.6 1.3l-.9 2.6C33.7 16.2 33.3 16.4 32.9 16.4z"/><path fill="#fff" d="M36.1,28.2C36.1,28.2,36,28.2,36.1,28.2c-0.6,0-1-0.5-1-1l0.2-3.4c0-0.6,0.5-1,1-0.9 c0.6,0,1,0.5,1,1l-0.2,3.4C37.1,27.8,36.6,28.2,36.1,28.2z"/></svg>