<svg xmlns="http://www.w3.org/2000/svg" xmlns:xlink="http://www.w3.org/1999/xlink" viewBox="0 0 48 48"><path fill="#795548" d="M12.72,39l-0.66,2.64c-0.2,0.8-0.91,1.36-1.74,1.36H7.71c-0.82,0-1.53-0.56-1.73-1.36L5.32,39H12.72z"/><path fill="#795548" d="M22.72,39l-0.66,2.64c-0.2,0.8-0.91,1.36-1.74,1.36h-2.61c-0.82,0-1.53-0.56-1.73-1.36L15.32,39H22.72z"/><path fill="#795548" d="M32.72,39l-0.66,2.64c-0.2,0.8-0.91,1.36-1.74,1.36h-2.61c-0.82,0-1.53-0.56-1.73-1.36L25.32,39H32.72z"/><path fill="#795548" d="M42.72,39l-0.66,2.64c-0.2,0.8-0.91,1.36-1.74,1.36h-2.61c-0.82,0-1.53-0.56-1.73-1.36L35.32,39H42.72z"/><path fill="#8d6e63" d="M42,40H6c-2.209,0-4-1.791-4-4V15c0-2.209,1.791-4,4-4h36c2.209,0,4,1.791,4,4v21C46,38.209,44.209,40,42,40z"/><path fill="#a1887f" d="M42,38H6c-2.209,0-4-1.791-4-4V13c0-2.209,1.791-4,4-4h36c2.209,0,4,1.791,4,4v21C46,36.209,44.209,38,42,38z"/><path fill="#b3e5fc" d="M9,14c-3.48,0-4-2.06-4-3.222C5,8.177,6.846,5,9,5s4,3.177,4,5.778C13,11.94,12.48,14,9,14z"/><path fill="#b3e5fc" d="M19,14c-3.48,0-4-2.06-4-3.222C15,8.177,16.846,5,19,5s4,3.177,4,5.778C23,11.94,22.48,14,19,14z"/><path fill="#b3e5fc" d="M29,14c-3.48,0-4-2.06-4-3.222C25,8.177,26.846,5,29,5s4,3.177,4,5.778C33,11.94,32.48,14,29,14z"/><path fill="#b3e5fc" d="M39,14c-3.48,0-4-2.06-4-3.222C35,8.177,36.846,5,39,5s4,3.177,4,5.778C43,11.94,42.48,14,39,14z"/><path fill="#b3e5fc" d="M9,25c-3.48,0-4-2.06-4-3.222C5,19.177,6.846,16,9,16s4,3.177,4,5.778C13,22.94,12.48,25,9,25z"/><path fill="#b3e5fc" d="M19,25c-3.48,0-4-2.06-4-3.222C15,19.177,16.846,16,19,16s4,3.177,4,5.778C23,22.94,22.48,25,19,25z"/><path fill="#b3e5fc" d="M29,25c-3.48,0-4-2.06-4-3.222C25,19.177,26.846,16,29,16s4,3.177,4,5.778C33,22.94,32.48,25,29,25z"/><path fill="#b3e5fc" d="M39,25c-3.48,0-4-2.06-4-3.222C35,19.177,36.846,16,39,16s4,3.177,4,5.778C43,22.94,42.48,25,39,25z"/><path fill="#b3e5fc" d="M9,36c-3.48,0-4-2.06-4-3.222C5,30.177,6.846,27,9,27s4,3.177,4,5.778C13,33.94,12.48,36,9,36z"/><path fill="#b3e5fc" d="M19,36c-3.48,0-4-2.06-4-3.222C15,30.177,16.846,27,19,27s4,3.177,4,5.778C23,33.94,22.48,36,19,36z"/><path fill="#b3e5fc" d="M29,36c-3.48,0-4-2.06-4-3.222C25,30.177,26.846,27,29,27s4,3.177,4,5.778C33,33.94,32.48,36,29,36z"/><path fill="#b3e5fc" d="M39,36c-3.48,0-4-2.06-4-3.222C35,30.177,36.846,27,39,27s4,3.177,4,5.778C43,33.94,42.48,36,39,36z"/></svg>