<svg xmlns="http://www.w3.org/2000/svg" xmlns:xlink="http://www.w3.org/1999/xlink" viewBox="0 0 48 48"><path fill="#f57f17" d="M26,8l-2,0c0-4.1,4.3-6.9,4.5-7l1.1,1.7C29.5,2.7,26,5,26,8z"/><path fill="#cddc39" d="M24,5l1.7,1.8l2-1.3l1.4,2.1l2.2-0.8l0.9,2.4l2.3-0.3l0.5,2.6l2.3,0.2l0,2.6l2.3,0.8l-0.5,2.5 l2.1,1.3l-1,2.4l1.8,1.7L40.6,25l1.4,2.1l-1.8,1.7l1,2.4l-2.1,1.3l0.5,2.5l-2.3,0.8l0,2.6l-2.3,0.2l-0.5,2.6l-2.3-0.3l-0.9,2.4 l-2.2-0.8l-1.4,2.1l-2-1.3L24,45l-1.7-1.8l-2,1.3l-1.4-2.1l-2.2,0.8l-0.9-2.4l-2.3,0.3l-0.5-2.6l-2.3-0.2l0-2.6L8.3,35l0.5-2.5 l-2.1-1.3l1-2.4L6,27.1L7.4,25L6,22.9l1.8-1.7l-1-2.4l2.1-1.3L8.3,15l2.3-0.8l0-2.6l2.3-0.2l0.5-2.6l2.3,0.3l0.9-2.4l2.2,0.8 l1.4-2.1l2,1.3L24,5z"/><path fill="#fff9c4" d="M38,25c0-8.8-6.3-16-14-16s-14,7.2-14,16s6.3,16,14,16S38,33.8,38,25z"/><path fill="#ffc107" d="M23 20.9v-8.6c0-.6-.6-1.1-1.2-1-4.7 1-8.4 5.2-9.5 10.6C12.1 23 12.9 24 14.1 24h5.8C21.6 24 23 22.6 23 20.9zM28.1 24h5.8c1.1 0 2-1 1.7-2.2-1.1-5.4-4.8-9.6-9.5-10.6-.6-.1-1.2.3-1.2 1v8.6C25 22.6 26.4 24 28.1 24zM19.9 26h-5.8c-1.1 0-2 1-1.7 2.2 1.1 5.4 4.8 9.6 9.5 10.6.6.1 1.2-.3 1.2-1v-8.6C23 27.4 21.6 26 19.9 26zM25 29.1v8.6c0 .6.6 1.1 1.2 1 4.7-1 8.4-5.2 9.5-10.6.2-1.1-.6-2.2-1.7-2.2h-5.8C26.4 26 25 27.4 25 29.1z"/></svg>