<svg xmlns="http://www.w3.org/2000/svg" xmlns:xlink="http://www.w3.org/1999/xlink" viewBox="0 0 48 48"><path fill="#ff8f00" d="M21.324,25.172c-2.394-1.555-3.037-4.766-1.435-7.175c1.601-2.414,6.155-5.09,8.548-3.535s1.718,6.749,0.118,9.157C26.954,26.03,23.717,26.726,21.324,25.172z"/><path fill="#795548" d="M12,44h24c4.263-2.881,6.844-9.035,7-14H5.025C5.181,34.965,7.737,41.119,12,44z"/><path fill="#ffa726" d="M32.832,20.708c1.752,2.094,1.505,5.292-0.55,7.14c-2.058,1.851-6.839,3.179-8.591,1.085c-1.753-2.094,0.185-6.814,2.241-8.664C27.99,18.419,31.078,18.616,32.832,20.708z"/><path fill="#ffcc80" d="M23.234,28.276c-2.128,1.791-5.328,1.49-7.155-0.67c-1.825-2.159-3.086-7.136-0.962-8.927c2.124-1.789,6.829,0.289,8.656,2.448C25.601,23.284,25.358,26.487,23.234,28.276z"/><path fill="#5d4037" d="M43,30H5c-1.105,0-2-0.895-2-2v0c0-1.105,0.895-2,2-2h38c1.105,0,2,0.895,2,2v0C45,29.105,44.105,30,43,30z"/><path fill="#795548" d="M10,26c-0.094-0.655,0-4.319,0-5c0-7.72,6.28-14,14-14s14,6.28,14,14c0,0.681,0.094,4.345,0,5h3c0.077-0.657,0-4.322,0-5c0-9.389-7.611-17-17-17S7,11.611,7,21c0,0.678-0.077,4.343,0,5H10z"/><rect width="6" height="2" x="21" y="36" fill="#5d4037"/><rect width="6" height="2" x="25" y="40" fill="#5d4037"/><rect width="6" height="2" x="17" y="40" fill="#5d4037"/><rect width="6" height="2" x="25" y="32" fill="#5d4037"/><rect width="6" height="2" x="13" y="36" fill="#5d4037"/><rect width="6" height="2" x="9" y="32" fill="#5d4037"/><rect width="6" height="2" x="17" y="32" fill="#5d4037"/><path fill="#5d4037" d="M37,36v2h3.929c0.32-0.652,0.606-1.321,0.854-2H37z"/><path fill="#5d4037" d="M39.794,40H33v2h5.27C38.824,41.386,39.33,40.712,39.794,40z"/><path fill="#5d4037" d="M41,32v2h1.406c0.172-0.671,0.309-1.34,0.408-2H41z"/><path fill="#5d4037" d="M15,40H8.214c0.462,0.712,0.967,1.386,1.519,2H15V40z"/><rect width="6" height="2" x="33" y="32" fill="#5d4037"/><rect width="6" height="2" x="29" y="36" fill="#5d4037"/><path fill="#5d4037" d="M5.21,32c0.098,0.66,0.234,1.329,0.405,2H7v-2H5.21z"/><path fill="#5d4037" d="M11,36H6.233c0.247,0.679,0.532,1.348,0.849,2H11V36z"/></svg>