<svg xmlns="http://www.w3.org/2000/svg" xmlns:xlink="http://www.w3.org/1999/xlink" viewBox="0 0 48 48"><path fill="#4a148c" d="M12.7,45C7.3,45,3,40.6,3,35.3c0-7.6,4.6-9.3,9.4-11c2.5-0.9,5.2-1.8,7.6-3.7c1.8-1.3,3.4-2.9,5-4.6 c2.1-2.3,3.7-3.6,4-4c0.2-0.3,2.8-1.5,3-1.3c0,0,4.2-1.4,7,1.3s2,7.7,2,8C40,30.4,27,45,12.7,45z"/><path fill="#4caf50" d="M43,3l2,2c0,0-2.2,3.8-4,6c1.4,1.8,3.1,4.8,1,10c-2.1-0.6-4-5-4-5s-1.2,1.5-5,2c-0.3-3.7,1-5,1-5 s-4.6,0.4-6-1c0,0,2.8-5.3,10-3C40.8,7,43,3,43,3z"/><path fill="#9575cd" d="M7,36c-0.5,0-0.9-0.3-1-0.8c0-0.2-0.7-4.3,5.6-7.1c0.7-0.3,1.4-0.6,2.1-0.9 c5.1-2.2,10.3-4.5,14.6-9.8c0.3-0.4,1-0.5,1.4-0.2c0.4,0.3,0.5,1,0.2,1.4c-4.6,5.7-10.3,8.2-15.3,10.4c-0.7,0.3-1.4,0.6-2,0.9 C7.7,32,8,34.7,8,34.8c0.1,0.5-0.3,1-0.8,1.1C7.1,36,7,36,7,36z"/></svg>