<svg xmlns="http://www.w3.org/2000/svg" xmlns:xlink="http://www.w3.org/1999/xlink" viewBox="0 0 48 48"><path fill="#795548" d="M4,36l1.544,4.632C5.816,41.449,6.581,42,7.442,42h5.117c0.861,0,1.625-0.551,1.897-1.368L16,36v-1H4V36z"/><path fill="#795548" d="M18,36l1.544,4.632C19.816,41.449,20.581,42,21.442,42h5.117c0.861,0,1.625-0.551,1.897-1.368L30,36v-1H18V36z"/><path fill="#795548" d="M32,36l1.544,4.632C33.816,41.449,34.581,42,35.442,42h5.117c0.861,0,1.625-0.551,1.897-1.368L44,36v-1H32V36z"/><path fill="#8d6e63" d="M42,6H6c-2.209,0-4,1.791-4,4v22h44V10C46,7.791,44.209,6,42,6z M33,12h-4V9h4V12z M19,12h-4V9h4V12z"/><path fill="#a1887f" d="M41,32H7V15c0-1.657,1.343-3,3-3h28c1.657,0,3,1.343,3,3V32z"/><path fill="#b3e5fc" d="M10,21c1.267,0,2.8,1.159,4,2.932s2,4.091,2,5.932c0,2.114-0.667,3.614-1.733,4.568C13.2,35.455,11.733,36,10,36s-3.2-0.545-4.267-1.568C4.667,33.409,4,31.909,4,29.864c0-1.909,0.8-4.159,2-5.932S8.733,21,10,21z"/><path fill="#b3e5fc" d="M24,21c1.267,0,2.8,1.159,4,2.932s2,4.091,2,5.932c0,2.114-0.667,3.614-1.733,4.568C27.2,35.455,25.733,36,24,36s-3.2-0.545-4.267-1.568C18.667,33.409,18,31.909,18,29.864c0-1.909,0.8-4.159,2-5.932S22.733,21,24,21z"/><path fill="#b3e5fc" d="M38,21c1.267,0,2.8,1.159,4,2.932s2,4.091,2,5.932c0,2.114-0.667,3.614-1.733,4.568C41.2,35.455,39.733,36,38,36s-3.2-0.545-4.267-1.568C32.667,33.409,32,31.909,32,29.864c0-1.909,0.8-4.159,2-5.932S36.733,21,38,21z"/><path fill="#bcaaa4" d="M46,36H2c-0.552,0-1-0.448-1-1v-3c0-0.552,0.448-1,1-1h44c0.552,0,1,0.448,1,1v3C47,35.552,46.552,36,46,36z"/></svg>