<svg xmlns="http://www.w3.org/2000/svg" xmlns:xlink="http://www.w3.org/1999/xlink" viewBox="0 0 48 48"><path fill="#689f38" d="M34.999,25c0,0,2.719-4.859,2.97-7.601c0.079-0.86-0.229-1.707-0.947-2.186l-0.597-0.398 c-0.74-0.493-1.109-1.384-0.934-2.256L35.956,11c0.238-1.188-0.533-2.344-1.721-2.581l-1.671-0.146 c-0.831-0.166-1.492-0.797-1.698-1.619l0,0c-0.34-1.362-1.854-2.058-3.109-1.43l-0.14,0.07c-0.845,0.422-1.95,0.111-2.618-0.557 l-0.093-0.093C23.962,3.699,22.401,3.81,21.6,4.878C21.6,4.878,20,7,19,7c-2.151,4.242-1.001,19-1.001,19l15.937,1.438L34.999,25z"/><path fill="#fafafa" d="M33,35V25c0-3.928-3-3.541-3-12c0,0-3.778,0-5,0c0,8.459-3,8.072-3,12v10H33z"/><path fill="#f48fb1" d="M30,15h-5c-0.55,0-1-0.45-1-1v-1c0-0.55,0.45-1,1-1h5c0.55,0,1,0.45,1,1v1C31,14.55,30.55,15,30,15z"/><path fill="#fafafa" d="M31,25c0-1.072-0.293-1.597-0.825-2.551c-0.477-0.855-1.043-1.887-1.479-3.449h-2.391 c-0.436,1.562-1.002,2.594-1.479,3.449C24.293,23.403,24,23.928,24,25v8h7V25z"/><path fill="#ffd54f" d="M12.001,9c0.053-4.033,1.776-7,4-7s4,2.967,4,7c0,2.78-1.776,5-4,5S11.964,11.779,12.001,9z"/><path fill="#ffd54f" d="M12.001 9H20.000999999999998V27H12.001z"/><path fill="#ffb300" d="M13.001 15.003c0 0 .875-2.188 2.478-3.658s3.522-1.342 3.522-1.342-.912 2.127-2.515 3.596C14.883 15.068 13.001 15.003 13.001 15.003zM13.001 22.002c0 0 .875-2.188 2.478-3.658 1.603-1.469 3.522-1.342 3.522-1.342s-.912 2.127-2.515 3.596C14.883 22.068 13.001 22.002 13.001 22.002z"/><path fill="#ffab40" d="M13.283,29.438l-3.245,14.179C9.796,44.851,10.742,46,12.001,46h23.998 c1.217,0,2.152-1.078,1.98-2.283L36.305,32L13.283,29.438z"/><path fill="#ffab40" d="M34.999,40.117l2.986-15.097c0.099-0.53-0.308-1.02-0.848-1.02H10.864 c-0.525,0-0.928,0.465-0.854,0.984L12.001,38L34.999,40.117z"/><path fill="#fb8c00" d="M30.999 32.5L36.508 33.418 36.431 32.879 36.693 31.551zM17.002 35.535L11.483 34.616 11.729 36.225 11.684 36.422z"/></svg>