<svg xmlns="http://www.w3.org/2000/svg" xmlns:xlink="http://www.w3.org/1999/xlink" viewBox="0 0 48 48"><path fill="#8bc34a" d="M15.1,15c-2,0.3-4.9-1.1-5.1-3.2c-0.1-0.9,0.3-1.7,1.3-1.7c0.9,0,1.6,0.8,1.7-0.5 c0.1-0.7-0.8-1.5-0.1-2.3c1.3-1.5,2.7,1.2,3.9,0.6c0.8-0.4,0-4,1.5-3.6c0.4,0.1,0.4,0.8,0.6,1.1c0.5,0.8,1.5,1,1.9-0.1 c0.2-0.8-0.1-1.5,0.3-2.3c0.4-0.8,1.1-1.1,2-0.9c1.4,0.3,0.8,1,1.1,1.9c0.1,0.3,0.6,1,1,1C25.8,5,26,4.3,26.5,4 c1.6-0.8,1,0.8,1.7,1.4c0.4,0.3,0.9-0.2,1.3,0c0.4,0.2,0.5,1,1,1.1c0.4,0,1.3-0.9,1.8-1.1c0.7-0.3,1.9-0.4,2.6-0.1 c0.6,0.3,1.4,1.3,1.4,1.9c0,0.6-0.6,1.1-0.8,1.7c-0.2,0.7-0.2,1.6,0.7,1.8c0.5,0.1,0.9-0.3,1.5-0.2c0.8,0.1,1.4,1.6,1.2,2.3 c-0.6,2.2-3.8,3.4-5.5,3.3c-1.7-0.2-6.7,2.1-8.4,2c-3.6-0.1-4.7-3.2-8.4-3.2C15.8,14.8,15.9,15,15.1,15z"/><path fill="#dce775" d="M36,16c0,3.3-2.7,6-6,6s-6-2.7-6-6s2.7-6,6-6S36,12.7,36,16z"/><path fill="#2e7d32" d="M30,11c2.8,0,5,2.2,5,5s-2.2,5-5,5s-5-2.2-5-5S27.2,11,30,11 M30,10c-3.3,0-6,2.7-6,6s2.7,6,6,6 s6-2.7,6-6S33.3,10,30,10z"/><path fill="#ff3d00" d="M26,15c0,3.3-2.7,6-6,6s-6-2.7-6-6s2.7-6,6-6S26,11.7,26,15z"/><path fill="#ffeb3b" d="M21.4,23.4c-6.9-5.6-4.6-11.5-4.5-11.8l1.9,0.8L17.8,12l0.9,0.4c-0.1,0.2-1.8,4.8,3.9,9.5L21.4,23.4 z"/><path fill="#ffeb3b" d="M20,19.2c-2.2-8.6,3.2-12,3.5-12.1l1,1.7L24,8l0.5,0.9c-0.2,0.1-4.3,2.8-2.6,9.9L20,19.2z"/><path fill="#ffc107" d="M33.7,14L33.7,14l1.6,0c0.9,0,1.6,0.7,1.6,1.6L35,44c0,0.6-0.4,1-1,1H23c-5.1-3-6-7.5-6-13.7 C17,22,24.6,14.5,33.7,14z"/><path fill="#ffc107" d="M16.3,14L16.3,14l-1.6,0c-0.9,0-1.6,0.7-1.6,1.6L15,44c0,0.6,0.4,1,1,1h8.4c5.1-3,8.6-7.5,8.6-13.7 C33,22,25.4,14.5,16.3,14z"/><path fill="#ffa000" d="M26.9,15.8c-0.7,0.3-1.3,0.7-1.9,1.1c4.8,3.1,8,8.4,8,14.4c0,6.3-3.5,10.7-8.6,13.8h3.5 c4.4-3.6,7.1-8.1,7.1-13.7C35,25,31.8,19.3,26.9,15.8z"/><path fill="#f57c00" d="M21 23c0 .6-.4 1-1 1s-1-.4-1-1c0-.6.4-1 1-1S21 22.4 21 23zM23 26c0 .6-.4 1-1 1s-1-.4-1-1 .4-1 1-1S23 25.4 23 26zM19 26c0 .6-.4 1-1 1s-1-.4-1-1 .4-1 1-1S19 25.4 19 26z"/></svg>