<svg xmlns="http://www.w3.org/2000/svg" xmlns:xlink="http://www.w3.org/1999/xlink" width="48" height="48" viewBox="0 0 48 48"><path fill="#4FC3F7" d="M22,40c0,1.104-0.896,2-2,2h8c-1.104,0-2-0.896-2-2l0,0c0-1.104,0.896-2,2-2h-8C21.104,38,22,38.896,22,40L22,40z"/><path fill="#E91E63" d="M24 4A8 8 0 1 0 24 20A8 8 0 1 0 24 4Z"/><path fill="#FFE0B2" d="M32 12A8 8 0 1 0 32 28A8 8 0 1 0 32 12Z"/><path fill="#FF80AB" d="M16 12A8 8 0 1 0 16 28A8 8 0 1 0 16 12Z"/><path fill="#43A047" d="M28,26.241c0,0-1.071-10.074-12-6.458C17.179,30.265,28,26.241,28,26.241z"/><path fill="#8BC34A" d="M35,22.474c0,0-0.714,6.295-8,4.037C27.786,19.96,35,22.474,35,22.474z"/><path fill="#B3E5FC" d="M37,26c0,7.18-5.82,13-13,13s-13-5.82-13-13H37z"/><path fill="#81D4FA" d="M31,44c-0.491-1.696-3.435-3-7-3s-6.509,1.304-7,3H31z"/></svg>