<svg xmlns="http://www.w3.org/2000/svg" xmlns:xlink="http://www.w3.org/1999/xlink" viewBox="0 0 48 48"><path fill="#bbdefb" d="M36.3,10H11.7C11.3,10,11,9.7,11,9.3V6.7C11,6.3,11.3,6,11.7,6h24.5C36.7,6,37,6.3,37,6.7v2.5 C37,9.7,36.7,10,36.3,10z"/><path fill="#e3f2fd" d="M34,44H14c-2.2,0-4-1.8-4-4V17.5c0-1,0.2-2,0.5-3l1.4-4.5H36l1.6,4.6c0.3,0.9,0.4,1.9,0.4,2.9V40 C38,42.2,36.2,44,34,44z"/><path fill="#ec407a" d="M15.5 22A1.5 1.5 0 1 0 15.5 25 1.5 1.5 0 1 0 15.5 22zM22.5 19A2.5 2.5 0 1 0 22.5 24 2.5 2.5 0 1 0 22.5 19zM37 36c0 0-2 1-5 1-4.4 0-5.1-1-7.3-1-2.8 0-3.5 2-5 2s-2.1-1.4-2.8-2.4c-1.6-2.4-3-3.6-6-3.6h-1v10h28v-7L37 36z"/><path fill="#c2185b" d="M15,40c-1-2-1.8-3-4-3h-1v2.5c0,0,0,0.2,0,0.3c0.2,2.3,2.1,4.2,4.5,4.2h19c2.5,0,4.5-2,4.5-4.5V38h-1 c0,0-2,2-14,2c-3,0-4.9,1-6,1C16,41,15.3,40.7,15,40z"/><path fill="#ec407a" d="M20.5 29A1.5 1.5 0 1 0 20.5 32A1.5 1.5 0 1 0 20.5 29Z"/><path fill="#90caf9" d="M34,45H14c-2.8,0-5-2.2-5-5V17.5c0-1.1,0.2-2.2,0.5-3.3L11.1,9h25.6l1.8,5.3c0.3,1.1,0.5,2.1,0.5,3.2 V40C39,42.8,36.8,45,34,45z M12.6,11l-1.2,3.8c-0.3,0.9-0.4,1.8-0.4,2.7V40c0,1.7,1.3,3,3,3h20c1.7,0,3-1.3,3-3V17.5 c0-0.9-0.1-1.7-0.4-2.6L35.3,11H12.6z"/><path fill="#90caf9" d="M36.3,11H11.7c-1,0-1.7-0.8-1.7-1.7V6.7c0-1,0.8-1.7,1.7-1.7h24.5c1,0,1.7,0.8,1.7,1.7v2.5 C38,10.2,37.2,11,36.3,11z M12,9h24V7H12V9z"/><path fill="#ec407a" d="M29,16c0,1.1,0.9,2,2,2s2-0.9,2-2c0-0.4-0.1-0.8-0.4-1.1c-0.5-0.7-0.6-1.5-0.6-2.3v-2.4 c0-0.7,0.4-1.4,0.9-1.9C33.6,7.7,34,6.9,34,6c0-1.7-1.3-3-3-3v0c0,0-4.8,0-5,0c-0.6,0-1,0.4-1,1s0.4,1,1,1c0.4,0,1,0,1,0 c1,0,1,1.8,1,2c0,1.1,0.7,1.6,1.4,2c0.5,0.3,0.6,0.8,0.6,1.3v1.6c0,1.1-0.2,2.2-0.7,3.1C29.1,15.3,29,15.6,29,16z"/></svg>