<?xml version="1.0" encoding="iso-8859-1"?><!-- Generator: Adobe Illustrator 19.1.1, SVG Export Plug-In . SVG Version: 6.00 Build 0)  --><svg xmlns="http://www.w3.org/2000/svg" xmlns:xlink="http://www.w3.org/1999/xlink" version="1.1" id="Layer_1" x="0px" y="0px" viewBox="0 0 48 48" style="enable-background:new 0 0 48 48;" xml:space="preserve" width="528" height="528">
<path style="fill:none;stroke:#BF360C;stroke-width:2;stroke-miterlimit:10;" d="M31,29c9.938,0,13-5.239,13-8s-2.239-5-5-5  s-5,2.239-5,5"/>
<path style="fill:#FF3D00;" d="M7,7c0,13.746,7,29,7,29h16c0,0,7-15.254,7-29H7z"/>
<path style="fill:#CFD8DC;" d="M4,35v1c0,0,4.346,5,8,5h20c3.654,0,8-5,8-5v-1H4z"/>
<path style="fill:#BF360C;" d="M31.252,33H12.748c0.324,0.823,0.604,1.501,0.816,2h16.873C30.648,34.501,30.928,33.823,31.252,33z"/>
</svg>