<svg xmlns="http://www.w3.org/2000/svg" xmlns:xlink="http://www.w3.org/1999/xlink" viewBox="0 0 48 48"><path fill="#dcedc8" d="M6,10c0-2.2,1.8-4,4-4h28c2.2,0,4,1.8,4,4v28c0,2.2-1.8,4-4,4H10c-2.2,0-4-1.8-4-4V10z"/><path fill="#7cb342" d="M14.9,36.4c-0.2,0-0.5-0.1-0.7-0.2c-0.7-0.4-1-1.3-0.6-2c0.2-0.4,4.9-8.7,12.5-12.5 c0.7-0.4,1.6-0.1,2,0.7c0.4,0.7,0.1,1.6-0.7,2c-6.8,3.4-11.2,11.2-11.3,11.3C16,36.2,15.5,36.4,14.9,36.4z"/><path fill="#7cb342" d="M30.8,31.9c5.7-4.9,2.5-16.2,5.2-19.9h0c-3,1.5-8.6,5.6-16.5,16.4c0,0,0,0,0,0 C22.2,35,26.7,35.4,30.8,31.9z"/><path fill="#558b2f" d="M36,12.1L36,12.1c-2.7,0-15-0.5-19.9,5.2c-3.5,4-2.2,10.4,3.5,11.2c0,0,0,0,0,0 C27.4,17.6,33,13.6,36,12.1z"/></svg>