<svg xmlns="http://www.w3.org/2000/svg" xmlns:xlink="http://www.w3.org/1999/xlink" viewBox="0 0 48 48"><path fill="#558b2f" d="M29,19c0-8-1-10-3-10c-0.455,0-0.981,0.545-1,1c-0.019,0.444,0.17,0.838,0.421,1.204 C25.218,10.651,24.083,10,23,10s-2,1-2,2c0,2,1.425,1.732,1.735,1.811c-0.145,0.077-0.282,0.167-0.394,0.288 c-0.324,0.345-0.45,0.893-0.23,1.312c0.28,0.534,1.005,0.691,1.585,0.527C24.189,15.799,24.725,15.431,25,15 c0,1,0.682,1.224,1,0.815c-0.121,3.911-1,5.185-1.677,7.059C24.207,23.197,28.052,24.301,28,24L29,19z"/><path fill="#dcedc8" d="M37.917,32.17c-0.047-0.408-0.117-0.808-0.206-1.201c0,0,0,0,0,0C37.435,29.393,37.019,28.169,37,27 c-0.096-6,2-9,2-9s-3.323,2.704-8.438,4.752c0,0-0.001,0-0.001,0c-0.313-0.118-0.63-0.224-0.955-0.315 c-0.016-0.005-0.033-0.008-0.049-0.013c-0.306-0.084-0.614-0.16-0.93-0.219c-0.097-0.019-0.196-0.029-0.294-0.045 c-0.244-0.039-0.487-0.081-0.736-0.104C27.237,22.02,29,15.938,29,15.938C26.625,19.563,23.063,21.5,21.5,22 c-0.371,0-0.737,0.02-1.098,0.055c-0.249,0.024-0.492,0.065-0.736,0.104c-0.098,0.016-0.197,0.026-0.294,0.045 c-0.315,0.059-0.624,0.135-0.93,0.219c-0.016,0.005-0.033,0.008-0.049,0.013c-0.325,0.091-0.642,0.197-0.955,0.315 c0,0-0.001,0-0.001,0C12.323,20.704,9,18,9,18s2.096,3,2,9c-0.019,1.169-0.435,2.393-0.711,3.968c0,0,0,0,0,0 c-0.089,0.394-0.159,0.794-0.206,1.201c-0.002,0.018-0.006,0.035-0.008,0.052C10.029,32.642,10,33.068,10,33.5 C10,39.851,15.149,45,21.5,45h5C32.851,45,38,39.851,38,33.5c0-0.432-0.029-0.858-0.075-1.278 C37.923,32.204,37.919,32.187,37.917,32.17z"/><path fill="#aed581" d="M27.598,22.055C27.237,22.02,29,15.938,29,15.938c-2.375,3.625-6.75,5.146-8.833,5.563 c-0.371,0-0.792,0.954-0.792,1c0.003,0.295,4.063,2.375,4.063,2.375S27.847,22.079,27.598,22.055z"/><path fill="#689f38" d="M34.5 3A2.5 1 0 1 0 34.5 5A2.5 1 0 1 0 34.5 3Z"/><path fill="#689f38" d="M37 4l-5 20c0 0-5 1-5 0s5-20 5-20H37zM13.5 3A2.5 1 0 1 0 13.5 5 2.5 1 0 1 0 13.5 3z"/><path fill="#689f38" d="M11,4l5,20c0,0,5,1,5,0S16,4,16,4H11z"/><path fill="#9ccc65" d="M25.818,24.361C21.537,21.436,16.224,19.336,14,16l2,9c0,0,1.839,0.312,5.165,1.934 C22.545,25.827,24.134,24.963,25.818,24.361z"/><path fill="#689f38" d="M44.988 6.635L39 17.941 34 24 31 23.941 41.035 4.294z"/><path fill="#689f38" d="M43 3.183A0.938 2.317 0 1 0 43 7.817A0.938 2.317 0 1 0 43 3.183Z" transform="rotate(-56.468 43 5.499)"/><path fill="#c5e1a5" d="M22,45c-0.545-1.341-0.962-2.74-1.17-4.215c-0.17-1.457-0.154-3.093,0.618-4.564 c0.72-1.504,2.065-2.511,3.273-3.329c1.247-0.812,2.497-1.479,3.654-2.247c2.356-1.462,4.411-3.271,6.144-5.442 C36.244,23.028,37.652,20.561,39,18c-0.563,2.836-1.614,5.609-3.213,8.111c-0.776,1.267-1.767,2.402-2.821,3.464 c-1.077,1.043-2.281,1.948-3.518,2.755c-1.254,0.783-2.538,1.462-3.726,2.162c-1.199,0.686-2.251,1.455-2.921,2.492 c-0.686,1.03-0.937,2.38-0.996,3.758C21.736,42.131,21.882,43.556,22,45z"/><path fill="#689f38" d="M3.012 6.635L9 17.941 14 24 17 23.941 6.965 4.294z"/><path fill="#689f38" d="M5 4.562A2.317 0.938 0 1 0 5 6.438A2.317 0.938 0 1 0 5 4.562Z" transform="rotate(-33.53 5 5.5)"/><path fill="#c5e1a5" d="M27.185,26.065c-1.264-0.767-2.692-1.321-4.18-1.626C14.864,22.775,9,18,9,18 c2.043,5.618,7.215,8.366,11.788,10.777C22.78,27.563,24.903,26.612,27.185,26.065z"/><path fill="#c5e1a5" d="M17.595 33.254c.164-.64.428-1.182.76-1.642-.136-.126-.278-.246-.412-.375-1.924-1.79-3.515-3.898-4.941-6.154-.759-1.101-1.36-2.308-2.054-3.473C10.286 20.426 9.711 19.194 9 18c.293 1.342.628 2.685 1.048 4.004.497 1.288.92 2.621 1.595 3.847.57 1.28 1.367 2.443 2.135 3.628l1.322 1.661 1.461 1.542c.32.29.648.567.974.848C17.557 33.437 17.571 33.347 17.595 33.254zM18.095 39.163c-.223-.642-.261-1.294-.173-1.925-.01-.123-.004-.244-.01-.367-.262-.222-.526-.442-.788-.652-1.299-1.045-2.58-1.979-3.63-3.12C12.436 31.966 11.636 30.607 11 29c-.203 1.703.264 3.542 1.255 5.047.977 1.521 2.322 2.701 3.62 3.733.849.68 1.682 1.319 2.456 1.995C18.251 39.572 18.161 39.372 18.095 39.163zM22 45c-.194-1.943.659-3.952 1.878-5.499 1.221-1.577 2.743-2.842 4.309-3.935 1.566-1.101 3.206-2.027 4.777-2.987.78-.487 1.557-.965 2.261-1.526C35.947 30.506 36.574 29.871 37 29c.017.981-.479 1.947-1.068 2.734-.607.791-1.312 1.483-2.049 2.106-1.476 1.249-3.035 2.31-4.552 3.365-1.513 1.06-2.995 2.106-4.294 3.331C23.745 41.763 22.649 43.178 22 45z"/><path fill="#9ccc65" d="M34,16l-2,9c0,0-6,1-16,9C16,24,30,22,34,16z"/><path fill="#c5e1a5" d="M26,25c-4.806,0.983-10,4-10,9c0,7,4.877,9.877,6,11c0,0-3-3-3-8c0-8,16-8,20-19 C39,18,34.141,23.336,26,25z"/></svg>