<svg xmlns="http://www.w3.org/2000/svg" xmlns:xlink="http://www.w3.org/1999/xlink" viewBox="0 0 48 48"><path fill="#d84315" d="M42.714,36.875C43.843,36.288,45,35.688,45,34.5s-1.157-1.788-2.286-2.375 C38.143,29.75,34.714,25,26.143,25C18.884,25,13,29.253,13,34.5S18.884,44,26.143,44C34.714,44,38.143,39.25,42.714,36.875z"/><ellipse cx="26.5" cy="36.5" fill="#f4511e" rx="7.5" ry="3.5"/><path fill="#ef6c00" d="M39.508,4.492c-0.829-0.829-2.057-0.441-3.255-0.062c-4.851,1.534-10.563,0.611-16.549,6.597 c-5.069,5.069-6.208,12.149-2.544,15.813s10.744,2.525,15.813-2.544c5.986-5.986,5.063-11.698,6.597-16.549 C39.949,6.549,40.337,5.321,39.508,4.492z"/><path fill="#ff8f00" d="M30.436,9.564c-1.401-1.401-4.97-0.103-7.973,2.899c-3.002,3.002-4.3,6.572-2.899,7.973 s4.97,0.103,7.972-2.899S31.837,10.965,30.436,9.564z"/><g><path fill="#f9a825" d="M14.875,10.286C14.288,9.157,13.688,8,12.5,8s-1.788,1.157-2.375,2.286 C7.75,14.857,3,18.286,3,26.857C3,34.116,7.253,40,12.5,40S22,34.116,22,26.857C22,18.286,17.25,14.857,14.875,10.286z"/><ellipse cx="9.5" cy="26.5" fill="#ffc107" rx="3.5" ry="7.5"/></g></svg>