<svg xmlns="http://www.w3.org/2000/svg" xmlns:xlink="http://www.w3.org/1999/xlink" viewBox="0 0 48 48"><path fill="#ffb300" d="M41.5,37.2L41.5,37.2c0,0-1.4-0.6-2.1-3.6s-1.1-13.5-5.6-14.4C31.9,21,27.5,22,24,22 c-3.5,0-7.9-1-9.8-2.8c-4.5,0.9-4.9,11.4-5.6,14.4s-2.1,3.6-2.1,3.6v0C6.2,37.3,6,37.6,6,38c0,0.2,0,0.3,0.1,0.3 c0.1,0.2,0.2,0.3,0.3,0.4v0c0,0,4.6,3.2,17.6,3.2s17.6-3.2,17.6-3.2v0c0.1-0.1,0.3-0.3,0.3-0.4c0-0.1,0.1-0.2,0.1-0.3 C42,37.6,41.8,37.3,41.5,37.2z"/><path fill="#ffb300" d="M11.1,11.9c0,0,2.5,3.3,3.1,6.2c0.4,1.6,2.4,3.9,9.8,3.9s9.2-2.8,8-2c-0.2,0.1,3.2-1.6,5-6 L11.1,11.9z"/><path fill="#795548" d="M24.1,23c-0.1,0-0.1,0-0.2,0c-3.5,0-8.2-1-10.4-3.1c-0.4-0.4-0.4-1,0-1.4c0.4-0.4,1-0.4,1.4,0 c1.5,1.5,5.5,2.5,9.1,2.5c0,0,0.1,0,0.1,0c3.7,0,7.5-1.1,9-2.5c0.4-0.4,1-0.4,1.4,0c0.4,0.4,0.4,1,0,1.4C32.3,22,27.6,23,24.1,23z"/><path fill="#795548" d="M16,40c-0.6,0-1-0.4-1-1c0-0.7,0-1.4,0-2c0-3.1,0-5.8,0.5-9.1c0.2-1.3,0.5-2.4,0.8-3.5 c0-0.1,0.1-0.3,0.1-0.4c0.3-1.3,0.7-2.4,1.5-3c0.5-0.3,1-0.4,1.5-0.2c1.1,0.4,1.9,2,2.7,5.4l0,0.1c0.8,3.2,0.9,6,0.9,9.8 c0,0.6-0.4,1-1,1c0,0,0,0,0,0c-0.6,0-1-0.5-1-1c0-3.6-0.1-6.3-0.9-9.3l0-0.1c-0.6-2.4-1.1-3.4-1.3-3.7c-0.2,0.4-0.4,1.2-0.5,1.5 c-0.1,0.2-0.1,0.4-0.1,0.5c-0.3,1-0.5,2-0.7,3.2C16.9,31.3,17,33.9,17,37c0,0.7,0,1.3,0,2C17,39.6,16.6,40,16,40z"/><path fill="#ff9800" d="M37,13c2,4.6-0.9,7-7,7s-19-5.6-19-8.6c0-3,4-5.4,13-5.4C30.1,6,35.8,10.3,37,13z"/><path fill="#fff" d="M32.9,18.5C32.2,15.4,29.2,11,28,11c-0.8,0-1.8,1.3-3,1c-1.4-0.4-3-3-3.9-3c-1.4,0-3.7,3.8-5,6.8 c3.7,1.9,8.7,3.7,12.3,4.1C28.9,20,31.7,19.9,32.9,18.5z"/><path fill="#bdbdbd" d="M29 14c0 .6-.4 1-1 1s-1-.4-1-1 .4-1 1-1S29 13.4 29 14zM30 17c0 .6-.4 1-1 1s-1-.4-1-1 .4-1 1-1S30 16.4 30 17z"/></svg>