<svg xmlns="http://www.w3.org/2000/svg" xmlns:xlink="http://www.w3.org/1999/xlink" viewBox="0 0 48 48"><path fill="#ffa726" d="M6.422,13.155L9,8h24l2.578,5.155C35.855,13.711,36,14.323,36,14.944V39c0,2.209-1.791,4-4,4H10c-2.209,0-4-1.791-4-4V14.944C6,14.323,6.145,13.711,6.422,13.155z"/><path fill="#c60" d="M20,26L20,26c-2.761,0-5-2.239-5-5v-1h0c2.761,0,5,2.239,5,5V26z"/><path fill="#c60" d="M22,26L22,26c2.761,0,5-2.239,5-5v-1h0c-2.761,0-5,2.239-5,5V26z"/><path fill="#c60" d="M20,33L20,33c-2.761,0-5-2.239-5-5v-1h0c2.761,0,5,2.239,5,5V33z"/><path fill="#c60" d="M22,33L22,33c2.761,0,5-2.239,5-5v-1h0c-2.761,0-5,2.239-5,5V33z"/><path fill="#c60" d="M21,14c0,0-2,1.567-2,3.5s2,3.5,2,3.5s2-1.567,2-3.5S21,14,21,14z"/><polygon fill="#fb8c00" points="34,10 33,8 9.037,8 8,10"/><path fill="#ffa726" d="M33,8H9V5c0-0.552,0.448-1,1-1h22c0.552,0,1,0.448,1,1V8z"/><path fill="#efebe9" d="M20,40.99l10.07-9.231c1.092-1.001,2.767-1.001,3.859,0L44,40.99"/><path fill="#d7ccc8" d="M34,40.99h10l-10.07-9.231C33.174,31.066,39,35.99,34,40.99z"/><path fill="#64b5f6" d="M18,40.99h28c0,0-1.383,3.684-8.675,4.95C37.093,45.981,36.85,46,36.613,46l-9.294-0.006c-0.237,0-0.481-0.019-0.714-0.06C19.356,44.662,18,40.99,18,40.99z"/></svg>