<svg xmlns="http://www.w3.org/2000/svg" xmlns:xlink="http://www.w3.org/1999/xlink" viewBox="0 0 48 48"><path fill="#b0bec5" d="M24.515,21.485c-0.425-0.425-0.425-0.989,0-1.414l9.899-9.899c0.425-0.425,0.989-0.425,1.414,0 c0.425,0.425,0.425,0.989,0,1.414l-9.899,9.899C25.504,21.911,24.94,21.911,24.515,21.485z"/><path fill="#795548" d="M42.297,3.609c-0.781-0.781-2.047-0.781-2.828,0l-5.054,5.148c-0.781,0.781-0.781,2.047,0,2.828 c0.781,0.781,2.047,0.781,2.828,0l5.054-5.148C43.078,5.657,43.078,4.39,42.297,3.609z"/><path fill="#b0bec5" d="M22.071,21.485l-9.899-9.899c-0.425-0.425-0.425-0.989,0-1.414c0.425-0.425,0.989-0.425,1.414,0 l9.899,9.899c0.425,0.425,0.425,0.989,0,1.414S22.496,21.911,22.071,21.485z"/><path fill="#795548" d="M13.586,8.757L8.532,3.609c-0.781-0.781-2.047-0.781-2.828,0s-0.781,2.047,0,2.828l5.054,5.148 c0.781,0.781,2.047,0.781,2.828,0C14.367,10.805,14.367,9.538,13.586,8.757z"/><path fill="#7986cb" d="M41,14c0,9.398-7.602,15-17,15S7,23.398,7,14H41z"/><path fill="#37474f" d="M41,45H31c-0.553,0-1-0.448-1-1s0.447-1,1-1h8.78l-3.6-18H11.819l-3.6,18H17c0.553,0,1,0.448,1,1 s-0.447,1-1,1H7c-0.3,0-0.583-0.134-0.773-0.366c-0.189-0.231-0.266-0.536-0.207-0.83l4-20C10.113,23.336,10.523,23,11,23h26 c0.477,0,0.887,0.336,0.98,0.804l4,20c0.059,0.294-0.018,0.599-0.207,0.83C41.583,44.866,41.3,45,41,45z"/><path fill="#ff5722" d="M28,37c0,2.209-1.791,4-4,4s-4-1.791-4-4c0-3,4-6,4-6S28,34,28,37z"/><path fill="#ffc107" d="M26,38.25c0,1.105-0.895,2-2,2s-2-0.895-2-2c0-1.5,2-3.5,2-3.5S26,36.75,26,38.25z"/><path fill="#546e7a" d="M16,45L16,45c0-2.209,1.791-4,4-4h8c2.209,0,4,1.791,4,4v0"/><path fill="#c5cae9" d="M40.87,16c-0.07,0.69-0.2,1.36-0.37,2h-33c-0.17-0.64-0.3-1.31-0.37-2H40.87z"/><polygon fill="#7986cb" points="44,20 39,21 39,18 44,18"/><polygon fill="#7986cb" points="9,21 4,20 4,18 9,18"/></svg>