<?xml version="1.0" encoding="iso-8859-1"?><!-- Generator: Adobe Illustrator 19.1.1, SVG Export Plug-In . SVG Version: 6.00 Build 0)  --><svg xmlns="http://www.w3.org/2000/svg" xmlns:xlink="http://www.w3.org/1999/xlink" version="1.1" id="Layer_1" x="0px" y="0px" viewBox="0 0 48 48" style="enable-background:new 0 0 48 48;" xml:space="preserve" width="528" height="528">
<path style="fill:none;stroke:#1976D2;stroke-width:2;stroke-miterlimit:10;" d="M34,33h-4c-2.75,0-5-2.25-5-5v-7c0-2.75,2.25-5,5-5  h4c2.75,0,5,2.25,5,5v7C39,30.75,36.75,33,34,33z"/>
<path style="fill:#90CAF9;" d="M7,12h26v27c0,1.657-1.343,3-3,3H12c-1.657,0-3-1.343-3-3V17L7,12z"/>
<rect x="20" y="12" style="fill:#42A5F5;" width="2" height="18"/>
<path style="fill:#42A5F5;" d="M31,30H11v0c0-1.105,0.895-2,2-2h16C30.105,28,31,28.895,31,30L31,30z"/>
<rect x="17" y="4" style="fill:#3F51B5;" width="8" height="2"/>
<rect x="20" y="6" style="fill:#3F51B5;" width="2" height="6"/>
<path style="fill:#1976D2;" d="M33,12H9v0c0,0,0.063-4,4-4h16C32.938,8,33,12,33,12L33,12z"/>
<path style="fill:#1976D2;" d="M31,11H11v-1c0-1.105,0.895-2,2-2h16c1.105,0,2,0.895,2,2V11z"/>
<path style="fill:#E64A19;" d="M11,30v9c0,0.551,0.449,1,1,1h18c0.551,0,1-0.449,1-1v-9H11z"/>
<circle style="fill:#BF360C;" cx="15" cy="36" r="1"/>
<circle style="fill:#BF360C;" cx="17" cy="33" r="1"/>
<circle style="fill:#BF360C;" cx="21" cy="37" r="1"/>
<circle style="fill:#BF360C;" cx="27" cy="33" r="1"/>
</svg>