<svg xmlns="http://www.w3.org/2000/svg" xmlns:xlink="http://www.w3.org/1999/xlink" viewBox="0 0 48 48"><path fill="#fbc02d" d="M19,43h-8c-1.105,0-2-0.895-2-2V7c0-1.105,0.895-2,2-2h8c1.105,0,2,0.895,2,2v34 C21,42.105,20.105,43,19,43z"/><path fill="#ffca28" d="M22,8v32c0,0.552-0.448,1-1,1H9c-0.552,0-1-0.448-1-1V8c0-0.552,0.448-1,1-1h12 C21.552,7,22,7.448,22,8z"/><path fill="#fbc02d" d="M20.171,7L8,19.171v9.657L20.171,41H21c0.552,0,1-0.448,1-1V8c0-0.552-0.448-1-1-1H20.171z"/><path fill="#ffd54f" d="M22 8L8 22 8 26 22 40z"/><path fill="#fbc02d" d="M27,18v23c0,1.105,0.895,2,2,2h8c1.105,0,2-0.895,2-2V18H27z"/><path fill="#ffe57f" d="M33 9A7 9 0 1 0 33 27A7 9 0 1 0 33 9Z"/><path fill="#8bc34a" d="M30 18L28 18 28 9 30 10zM34 15L32 15 32 8 34 7z"/><path fill="#7cb342" d="M32 16L30 16 30 8 32 9z"/><path fill="#eee" d="M34 21L32 21 32 14 34 13z"/><path fill="#ff6f00" d="M38 16L36 16 36 10 38 9z"/><path fill="#e0e0e0" d="M36 19L34 19 34 9 36 8z"/><path fill="#7e57c2" d="M34 27L32 27 32 20 34 19z"/><path fill="#ff8f00" d="M38 27L36 27 36 13 38 12z"/><path fill="#ff6f00" d="M36 27L34 27 34 17 36 16z"/><path fill="#e0e0e0" d="M32 20L30 20 30 13 32 12z"/><path fill="#9575cd" d="M32 27L30 27 30 18 32 19z"/><path fill="#7e57c2" d="M30 27L28 27 28 15 30 16z"/><path fill="#ffca28" d="M33,29c-2.826,0-5.349-1.603-7-4.101V40c0,0.55,0.45,1,1,1h12c0.55,0,1-0.45,1-1V24.899 C38.349,27.397,35.826,29,33,29z"/><path fill="#fbc02d" d="M39,18c0,4.418-2.686,8-6,8s-6-3.582-6-8h-1v10.83L38.17,41H39c0.55,0,1-0.45,1-1V18H39z"/><path fill="#ffd54f" d="M33,27c-3.866,0-7-4.029-7-9v8l14,14V18C40,22.971,36.866,27,33,27z"/><path fill="#ffe57f" d="M33,25c-2.71,0-5-3.206-5-7h-2c0,4.971,3.134,9,7,9s7-4.029,7-9h-2C38,21.794,35.71,25,33,25z"/></svg>