<svg xmlns="http://www.w3.org/2000/svg" xmlns:xlink="http://www.w3.org/1999/xlink" viewBox="0 0 48 48"><circle cx="28" cy="20" r="18" fill="#424242"/><circle cx="28" cy="20" r="14" fill="#616161"/><path fill="#fff" d="M35.417,10.885c3.62,3.581,0,5.729-0.724,12.174c-0.624,5.559-7.24,8.593-13.032,2.864c-3.998-3.955-3.274-9.651,0.724-13.606S32.521,8.02,35.417,10.885z"/><circle cx="29" cy="17" r="4" fill="#ffca28"/><path fill="#ffb300" d="M29.157,13.015c0.192,0.134,0.379,0.278,0.55,0.449c1.562,1.562,1.562,4.095,0,5.657c-0.821,0.821-1.91,1.199-2.985,1.157c1.56,1.086,3.716,0.941,5.107-0.449c1.562-1.562,1.562-4.095,0-5.657C31.087,13.431,30.127,13.053,29.157,13.015z"/><path fill="#424242" d="M14.325,29.851l-10.383,9.23c-1.205,1.071-1.259,2.935-0.12,4.074s3.004,1.085,4.074-0.12l9.23-10.383L14.325,29.851z M6,42c-0.552,0-1-0.448-1-1s0.448-1,1-1s1,0.448,1,1S6.552,42,6,42z"/></svg>