<svg xmlns="http://www.w3.org/2000/svg" xmlns:xlink="http://www.w3.org/1999/xlink" viewBox="0 0 48 48"><path fill="#7cb342" d="M7.094,22.941c-0.731-3.33-5.18-4.263-3.846-5.242c0.859-0.562,5.906-2.604,9.374-1.234c3.336,1.317,4.688,3.864,5.302,5.626C18.691,24.292,19,29.002,19,29.002s-4.264-0.122-6.142-0.701C10.98,27.721,7.767,26.003,7.094,22.941z"/><path fill="#9ccc65" d="M14.027,23.414c-3.684-1.103-5.882,0.438-5.882,0.438c1.855-0.274,4.98,0.726,6.247,1.683L14.027,23.414z"/><path fill="#558b2f" d="M24.613,39.277c0,0,1.807-2.711,0-4.519c-1.807-1.807-2.712-3.711-9.037-3.615c-4.632,0.07-0.678,3.177,0.508,4.815c0.75,1.035,1.299,2.415,3.107,3.319C20.998,40.181,23.71,40.181,24.613,39.277z"/><path fill="#9ccc65" d="M12,18c-1,12,12,11,12,23h4C27,28,14,30,12,18z"/><path fill="#9ccc65" d="M5.583,18.307c2,0.708,4.375,1.958,8.25,7.292c0.792,0.443,1.083-1.167,1.083-1.167S10.375,17.723,5.583,18.307z"/><path fill="#558b2f" d="M21.701,16.405c0.825-4.48,11.217-7.64,13.334-7.416c1.299,0.21,5.152,1.507,4.619,5.774C39,20,38.154,20.801,36.999,23c-1.155,2.199-9.428,11.083-9.428,11.083s-4.908-6.481-6.062-8.681C20.354,23.203,20.877,20.878,21.701,16.405z"/><path fill="#7cb342" d="M31.172,29.077c0,0-2.386-3.691,0-6.151s3.58-5.051,11.931-4.921c6.115,0.095,0.895,4.324-0.671,6.554c-0.99,1.409-1.715,3.288-4.101,4.518S32.365,30.308,31.172,29.077z"/><path fill="#7cb342" d="M30.667,6.473C29.083,1.807,23.833,1.807,22,2c-1.125,0.182-4.423,1.321-5,5c-0.61,3.891,0,6.429,1,8.333C19,17.238,25,22,25,22s4.25-4.747,5.25-6.652C31.25,13.444,31.932,10.203,30.667,6.473z"/><path fill="#9ccc65" d="M41.38,20.264C34,22,29.064,27.852,25.973,38.736l1.998,0.081C29.982,29.891,36,23,41.38,20.264z"/><path fill="#689f38" d="M24,14.985C26.314,11.914,30,11,30,11c-0.026,0.02-2.646,2.023-4.726,5.361c-0.108,0.173-0.21,0.36-0.311,0.549L24,14.985z"/><path fill="#689f38" d="M25.163,15.198c-3.012-2.391-6.809-2.348-6.809-2.348c0.03,0.012,3.069,1.293,5.923,4c0.148,0.14,0.293,0.296,0.439,0.453L25.163,15.198z"/><path fill="#689f38" d="M23.471,9.235c2.149-2.851,5.571-3.7,5.571-3.7c-0.024,0.018-2.456,1.879-4.388,4.978c-0.1,0.161-0.195,0.335-0.289,0.51L23.471,9.235z"/><path fill="#689f38" d="M24.55,9.432c-2.797-2.219-6.322-2.18-6.322-2.18c0.028,0.012,2.85,1.2,5.499,3.714c0.137,0.13,0.272,0.275,0.407,0.421L24.55,9.432z"/><path fill="#c5e1a5" d="M23,5c0,0,1,24,1,32h4C28,28,25,11,23,5z"/><rect width="4" height="9" x="24" y="37" fill="#c5e1a5"/><path fill="#9ccc65" d="M34.815,23.89h1.326c-0.184-2.529-1.4-3.829-1.4-3.829C35.058,21.073,35.029,22.545,34.815,23.89z"/><path fill="#9ccc65" d="M34.426,24.372c3.684-1.103,5.882,0.438,5.882,0.438c-1.855-0.274-4.98,0.726-6.247,1.683L34.426,24.372z"/></svg>