<svg xmlns="http://www.w3.org/2000/svg" xmlns:xlink="http://www.w3.org/1999/xlink" viewBox="0 0 48 48"><path fill="#7cb342" d="M25.1,9.5C25.3,8.1,26.6,7,28,7c0.7,0,1.3,0.2,1.8,0.6c0.7,0.5,1.6,0.5,2.3,0C32.6,7.2,33.3,7,34,7 c1.5,0,2.7,1.1,3,2.5L42,38h-9h-4h-8L25.1,9.5z"/><path fill="#689f38" d="M29,38h4h3L32.8,8.5c0-0.4-0.1-0.8-0.3-1.2c-0.2,0.1-0.3,0.2-0.4,0.3c-0.7,0.5-1.6,0.5-2.3,0 C29.4,7.2,28.7,7,28,7c-1.5,0-2.7,1.1-3,2.5l-2.8,19.2L22,37.9l0,0.1H29z"/><path fill="#7cb342" d="M22.9,9.5C22.7,8.1,21.4,7,20,7c-0.7,0-1.3,0.2-1.8,0.6c-0.7,0.5-1.6,0.5-2.3,0C15.4,7.2,14.7,7,14,7 c-1.5,0-2.7,1.1-3,2.5L6,38h9h4h8L22.9,9.5z"/><path fill="#689f38" d="M26,37.9l-0.3-9L22.9,9.5C22.7,8.1,21.4,7,20,7c-0.7,0-1.3,0.2-1.8,0.6c-0.7,0.5-1.6,0.5-2.3,0 c-0.1-0.1-0.3-0.2-0.4-0.3c-0.1,0.3-0.2,0.7-0.2,1.1L12,38h1h2h4L26,37.9L26,37.9z"/><path fill="#689f38" d="M18.1,9.5C18.3,8.1,19.6,7,21,7c0.7,0,1.3,0.2,1.8,0.6c0.7,0.5,1.6,0.5,2.3,0C25.6,7.2,26.3,7,27,7 c1.5,0,2.7,1.1,3,2.5L32,38h-6h-4h-6L18.1,9.5z"/><path fill="#8bc34a" d="M23,38h-9l3.2-29.4C17.4,7.1,18.6,6,20.1,6l0,0c1.5,0,2.8,1.1,2.9,2.6L23,38z"/><path fill="#dcedc8" d="M17.4,36C17.4,36,17.4,36,17.4,36c-0.6-0.1-1-0.5-1-1.1l1.6-17c0.1-0.5,0.5-1,1.1-0.9 c0.5,0.1,1,0.5,0.9,1.1l-1.6,17C18.4,35.6,17.9,36,17.4,36z M19.6,14c0,0-0.1,0-0.1,0c-0.5-0.1-0.9-0.6-0.9-1.1L19,8.7 c0.1-0.5,0.6-0.9,1.1-0.9c0.5,0.1,0.9,0.6,0.9,1.1l-0.4,4.2C20.5,13.6,20.1,14,19.6,14z"/><path fill="#8bc34a" d="M34,38h-9l0-29.4C25.2,7.1,26.4,6,27.9,6l0,0c1.5,0,2.8,1.1,2.9,2.6L34,38z"/><path fill="#90caf9" d="M1,38c0,0,0,4,8,4c4,0,22,0,30,0s8-4,8-4H1"/><path fill="#dcedc8" d="M30.6 36c-.5 0-.9-.4-1-.9l-.2-2c-.1-.5.4-1 .9-1.1.6-.1 1 .4 1.1.9l.2 2C31.6 35.5 31.2 35.9 30.6 36 30.6 36 30.6 36 30.6 36zM30 30c-.5 0-.9-.4-1-.9l-.5-5c-.1-.5.4-1 .9-1.1.5 0 1 .4 1.1.9l.5 5C31.1 29.5 30.7 29.9 30 30 30.1 30 30 30 30 30z"/></svg>