<svg xmlns="http://www.w3.org/2000/svg" xmlns:xlink="http://www.w3.org/1999/xlink" viewBox="0 0 48 48"><path fill="#ffcc80" d="M37.592,29.135c-1.686-0.421-3.381,0.164-4.457,1.374C32.668,31.035,31,33,28,33c-0.367,0-0.7-0.034-1-0.089c-0.616-0.113-1.017-0.411-1.017-0.786c0-0.349,0.681-0.615,1.017-0.767c3.789-1.712,5.983-5.779,5.983-9.358c0,0,7.666-0.85,8.861-7.251c0.85-4.555-2.219-9.1-6.815-9.683C30.852,4.537,27.205,7.231,26.235,11c-0.165,0.639-0.252,1.125-0.252,2c0,0.5,0.017,0.875-0.983,1.278c-3.385,1.364-6.132,2.93-7,6.722c-1.551-0.654-2-2.46-2-3.5c0-2.413,1.915-4.462,1.993-4.544c1.349-1.368,1.343-3.57-0.019-4.931c-1.367-1.367-3.582-1.367-4.949,0c-0.412,0.412-4.043,4.178-4.043,9.475c0,3.028,1.338,6.943,4.276,9.632l-5.476,5.476c-1.994,1.994-2.441,5.612-0.781,7.893C8.213,42.167,10.045,43,11.875,43c1.535,0,3.071-0.586,4.242-1.758l2.773-2.773C21.32,40.357,24.957,42,29.5,42c7.51,0,10.678-4.657,11.365-7.408C41.469,32.181,40.003,29.737,37.592,29.135z"/><path fill="#ffb74d" d="M32.75,24.07c-0.15,0.64-0.35,1.29-0.62,1.91c-1.49-0.51-4.04-1.92-5.21-5.82c-0.89-2.95-2.73-4.37-3.9-5c0.62-0.32,1.29-0.6,1.98-0.88c0.07-0.03,0.13-0.06,0.19-0.08c1.33,1,2.82,2.69,3.64,5.39C29.75,22.66,31.7,23.72,32.75,24.07z"/><path fill="#ffb74d" d="M38.44,19.91c-0.67,0.47-1.37,0.83-2.03,1.12c-2.21-1.46-3.97-3.87-5.34-7.28c-1.12-2.8-3.75-3.67-4.46-3.85c0.26-0.64,0.61-1.23,1.03-1.77C29,8.59,31.68,9.86,32.93,13C34.35,16.54,36.12,18.78,38.44,19.91z"/><path fill="#ffb74d" d="M25,41.43c-0.7-0.17-1.38-0.39-2.02-0.65c-0.11-2.34-0.81-3.04-1.42-3.67c-0.49-0.5-1.05-1.06-1.18-2.12c-0.29-2.45-0.98-2.72-2.03-3.15l-0.1-0.04c-0.24-0.1-0.55-0.21-0.9-0.33c-1.63-0.61-4.08-1.5-5.48-2.94l1.38-1.405c1.06,1.15,3.3,1.915,4.79,2.465c0.37,0.13,0.7,0.25,0.96,0.36l0.1,0.04c1.55,0.62,2.87,1.42,3.27,4.77c0.04,0.35,0.19,0.52,0.61,0.95C23.82,36.56,24.98,37.73,25,41.43z"/><path fill="#ffb74d" d="M31.99,38.04c-0.06,1.48-0.42,2.83-0.8,3.87C30.66,41.97,30.09,42,29.5,42c-0.17,0-0.33,0-0.49-0.01c0.4-0.93,0.91-2.42,0.98-4.03c0.11-2.57-1.2-4.23-1.94-4.96c0.86-0.01,1.61-0.17,2.25-0.43h0.01C31.19,33.76,32.09,35.59,31.99,38.04z"/><path fill="#ffb74d" d="M41.94,14.06c-0.02,0.23-0.06,0.46-0.1,0.69c-0.09,0.46-0.2,0.89-0.36,1.29c-1.5-0.58-3.56-1.91-4.67-4.95c-1.28-3.5-2.99-5.32-3.79-6.02c0.65-0.09,1.32-0.09,2.01,0c0.29,0.04,0.57,0.09,0.85,0.16c0.92,1.17,1.95,2.85,2.81,5.18C39.48,12.56,40.86,13.59,41.94,14.06z"/><path fill="#ffb74d" d="M40.31,36.09c-0.3,0.62-0.71,1.26-1.22,1.89c-0.45-0.65-0.92-1.62-1.31-3.1c-0.49-1.9-1.34-1.89-2.52-1.88L35,33.01c-1.43,0-2.39-0.64-2.99-1.41c0.57-0.45,0.94-0.88,1.13-1.09c0.1-0.11,0.2-0.21,0.3-0.31c0.27,0.41,0.74,0.81,1.56,0.81L35.24,31c1.25-0.01,3.59-0.03,4.48,3.37C39.91,35.11,40.11,35.67,40.31,36.09z"/><path fill="#ffb74d" d="M17.31,40.05l-1.19,1.19c-0.16,0.16-0.32,0.3-0.49,0.43c-0.97-0.37-1.7-0.94-2.12-1.67c-0.35-0.6-0.58-1.25-0.81-1.88c-0.26-0.72-0.53-1.46-0.85-1.74C11.4,36,11.38,36,9.72,36c-1.01,0-2.26-0.22-3.34-1.13c0.24-0.66,0.57-1.28,1-1.81c0.37,0.4,1.08,0.97,2.33,0.94c1.89,0,2.45,0.01,3.44,0.87c0.72,0.62,1.08,1.61,1.43,2.57c0.2,0.55,0.41,1.11,0.66,1.56C15.47,39.4,16.13,39.86,17.31,40.05z"/><path fill="#ffb74d" d="M29.17,29.99c-0.19,0.16-0.38,0.3-0.58,0.44c-0.12,0.09-0.24,0.17-0.36,0.25c-0.39,0.26-0.8,0.48-1.23,0.68c-0.06,0.02-0.12,0.05-0.19,0.08C24.7,30.54,23,28.61,23,26c0-3.71-1.54-4.01-2.2-4.14c-1.37-0.28-2.26-0.58-2.8-0.86c0.17-0.72,0.4-1.37,0.7-1.94c0.22,0.14,0.94,0.52,2.5,0.83C23.72,20.4,25,22.45,25,26C25,28.54,27.4,29.85,29.17,29.99z"/><path fill="#ffb74d" d="M17.97,12.98c-0.12,0.13-0.74,0.83-1.25,1.83c-0.65-0.14-1.44-0.36-2-0.71c-1.09-0.68-1.89-1.58-2.99-2.82l-0.1-0.12c-0.29-0.33-0.4-0.44-0.65-0.45c0.41-0.69,0.83-1.26,1.18-1.69c0.3,0.17,0.62,0.43,0.96,0.82l0.11,0.12c1.02,1.15,1.7,1.91,2.55,2.44C16.28,12.71,17.39,12.92,17.97,12.98z"/><path fill="#ffb74d" d="M16.32,19.15c-0.98,0.47-2.23,0.72-3.93,0.97c-1.43,0.2-2.32,0.65-2.84,1.02c-0.12-0.42-0.23-0.83-0.31-1.23c-0.04-0.18-0.07-0.36-0.1-0.54c-0.02-0.1-0.04-0.19-0.05-0.29v-0.01c0.73-0.39,1.72-0.75,3.02-0.94c2.13-0.3,3.26-0.64,3.92-1.12C16.01,17.17,16,17.34,16,17.5C16,17.96,16.08,18.56,16.32,19.15z"/></svg>