<svg xmlns="http://www.w3.org/2000/svg" xmlns:xlink="http://www.w3.org/1999/xlink" viewBox="0 0 48 48"><path fill="#e0e0e0" d="M15.57,9.431c-0.595-0.596-1.694-0.562-3.092,0.092c-1.274,0.596-2.696,1.645-4.006,2.956c-1.311,1.31-2.36,2.733-2.956,4.006c-0.654,1.399-0.687,2.498-0.092,3.092C5.706,19.859,6.103,20,6.591,20c0.539,0,1.191-0.172,1.926-0.516c1.273-0.595,2.695-1.645,4.006-2.955C14.982,14.07,16.885,10.746,15.57,9.431z"/><path fill="#e0e0e0" d="M42.559,9.44c-0.637-0.637-1.788-0.582-3.326,0.163c-1.38,0.668-2.932,1.827-4.368,3.263c-2.696,2.695-4.814,6.308-3.428,7.693C31.73,20.853,32.132,21,32.63,21c0.585,0,1.303-0.202,2.133-0.603c1.38-0.668,2.932-1.827,4.368-3.264c1.437-1.436,2.596-2.987,3.265-4.367C43.14,11.228,43.197,10.078,42.559,9.44z"/><path fill="#e0e0e0" d="M35.423,27.558c-3.097-3.097-6.481-4.391-7.869-3.004c-0.706,0.706-0.738,1.949-0.091,3.499c0.591,1.414,1.69,2.966,3.095,4.37c1.404,1.404,2.956,2.503,4.37,3.095c0.739,0.309,1.41,0.463,1.984,0.463c0.63,0,1.146-0.185,1.514-0.554C39.813,34.041,38.523,30.657,35.423,27.558z"/><ellipse cx="23.999" cy="13.5" fill="#e0e0e0" rx="3" ry="8.5"/><path fill="#e0e0e0" d="M24.543,32.457c-1.353-1.356-4.682,0.509-7.124,2.955s-4.307,5.777-2.951,7.134C14.769,42.849,15.191,43,15.708,43c0.542,0,1.189-0.166,1.912-0.498c1.267-0.582,2.677-1.616,3.971-2.911C24.033,37.145,25.898,33.814,24.543,32.457z"/><ellipse cx="14.499" cy="26" fill="#e0e0e0" rx="7.5" ry="3"/><path fill="#bdbdbd" d="M14.5,27c-3.257,0-5.969-0.584-7.402-1.486C7.039,25.672,6.999,25.833,6.999,26c0,1.71,3.225,3,7.5,3c4.416,0,7.5-1.234,7.5-3c0-0.153-0.035-0.302-0.085-0.447C20.512,26.446,17.847,27,14.5,27z"/><path fill="#bdbdbd" d="M24.136,5.019c1.218,1.67,1.218,15.291,0,16.961c1.859-0.203,2.863-4.46,2.863-8.481S25.996,5.223,24.136,5.019z"/><path fill="#bdbdbd" d="M32.637,31.345c-2.226-2.224-3.966-4.683-4.902-6.924c-0.001-0.003-0.002-0.006-0.004-0.01c-0.06,0.046-0.123,0.089-0.177,0.143c-0.706,0.706-0.738,1.949-0.091,3.499c0.591,1.414,1.69,2.966,3.095,4.37c1.404,1.404,2.956,2.503,4.37,3.095c0.739,0.309,1.41,0.463,1.984,0.463c0.521,0,0.958-0.134,1.304-0.386C36.361,34.599,34.424,33.132,32.637,31.345z"/><path fill="#bdbdbd" d="M24.543,32.457c-0.084-0.084-0.176-0.156-0.275-0.216c-0.874,1.908-2.445,4.016-4.227,5.8c-1.883,1.885-3.934,3.389-5.778,4.235c-0.002,0.001-0.004,0.002-0.006,0.002c0.059,0.096,0.128,0.186,0.21,0.268C14.769,42.849,15.191,43,15.708,43c0.542,0,1.189-0.166,1.912-0.498c1.267-0.582,2.677-1.616,3.971-2.911C24.033,37.145,25.898,33.814,24.543,32.457z"/><path fill="#bdbdbd" d="M15.57,9.431c-0.028-0.028-0.063-0.048-0.094-0.074c-0.788,1.897-2.388,4.078-4.219,5.909c-1.787,1.787-3.727,3.218-5.463,4.03c-0.152,0.071-0.297,0.127-0.444,0.187c0.025,0.03,0.045,0.065,0.073,0.093C5.706,19.859,6.103,20,6.591,20c0.539,0,1.191-0.172,1.926-0.516c1.273-0.595,2.695-1.645,4.006-2.955C14.982,14.07,16.885,10.746,15.57,9.431z"/><path fill="#bdbdbd" d="M42.559,9.44c-0.084-0.084-0.177-0.154-0.278-0.213c-0.062,0.141-0.116,0.276-0.187,0.422c-1.003,2.07-2.741,4.396-4.897,6.551c-1.851,1.851-3.828,3.391-5.661,4.425C31.821,20.863,32.18,21,32.63,21c0.585,0,1.303-0.202,2.133-0.603c1.38-0.668,2.932-1.827,4.368-3.264c1.438-1.436,2.596-2.987,3.265-4.367C43.141,11.228,43.197,10.078,42.559,9.44z"/></svg>