<svg xmlns="http://www.w3.org/2000/svg" xmlns:xlink="http://www.w3.org/1999/xlink" viewBox="0 0 48 48"><path fill="#ffcc80" d="M45,23L28.71,6.711c-0.945-0.945-2.477-0.945-3.422,0L8,24h37V23z"/><path fill="#fff3e0" d="M25,10c-1.105,0-2,0.448-2,1c0,0.552,0.895,1,2,1c1.105,0,2-0.448,2-1C27,10.448,26.105,10,25,10z"/><path fill="#ffe0b2" d="M3,24h35L21.71,7.711c-0.945-0.945-2.477-0.945-3.422,0L3,23V24z"/><path fill="#ffd699" d="M38,24H3v-1l4-4c2-2,10.17-1.79,13.65-3.78c1.73-1,2.35-2.57,2.35-4.22c0-1.16-0.44-2.44-1.06-3.06 L38,24z"/><path fill="#bcaaa4" d="M3,22c-0.552,0-1,0.448-1,1v0.5C2,31.426,7.339,37.951,15,41l1,1h16l1-1 c7.661-3.049,13-9.574,13-17.5V23c0-0.552-0.448-1-1-1H3z"/><path fill="#795548" d="M15,41v3h18v-3H15z"/><path fill="#fff3e0" d="M27.841,16.159c-0.37-0.37-1.271-0.07-2.012,0.671c-0.741,0.741-1.041,1.642-0.671,2.012 c0.37,0.37,1.271,0.07,2.012-0.671C27.911,17.43,28.212,16.529,27.841,16.159z"/><ellipse cx="37" cy="19" fill="#fff3e0" rx="2" ry="1"/><path fill="#fff3e0" d="M11.159,17.159c0.37-0.37,1.271-0.07,2.012,0.671c0.741,0.741,1.041,1.642,0.671,2.012 c-0.37,0.37-1.271,0.07-2.012-0.671C11.089,18.43,10.788,17.529,11.159,17.159z"/><path fill="#fff3e0" d="M33.171,13.829c-0.741-0.741-1.642-1.041-2.012-0.671c-0.37,0.37-0.07,1.271,0.671,2.012 c0.741,0.741,1.642,1.041,2.012,0.671C34.212,15.471,33.911,14.57,33.171,13.829z"/><path fill="#fff3e0" d="M22.841,12.159c-0.37-0.37-1.271-0.07-2.012,0.671c-0.741,0.741-1.041,1.642-0.671,2.012 c0.37,0.37,1.271,0.07,2.012-0.671C22.911,13.43,23.212,12.529,22.841,12.159z"/><path fill="#fff3e0" d="M16.159,15.159c0.37-0.37,1.271-0.07,2.012,0.671c0.741,0.741,1.041,1.642,0.671,2.012 c-0.37,0.37-1.271,0.07-2.012-0.671C16.089,16.43,15.788,15.529,16.159,15.159z"/></svg>