<svg xmlns="http://www.w3.org/2000/svg" xmlns:xlink="http://www.w3.org/1999/xlink" viewBox="0 0 48 48"><ellipse cx="38.5" cy="18" fill="#212121" rx="2.5" ry="3"/><circle cx="39" cy="17" r="1" fill="#424242"/><ellipse cx="21.5" cy="16" fill="#212121" rx="2.5" ry="3"/><path fill="#aed581" d="M21.875,16.999c0-1.656-1.343-2.999-2.999-2.999c-0.442,0-0.858,0.101-1.236,0.273C17.314,12.969,16.144,12,14.739,12c-1.422,0-2.607,0.993-2.915,2.321C11.423,14.122,10.977,14,10.499,14C8.843,14,7.5,15.343,7.5,16.999c0,0.877,0.383,1.659,0.984,2.208c-0.032,0.219-0.053,0.44-0.053,0.665c0,2.97,2.824,5.378,6.308,5.378s6.308-2.408,6.308-5.378c0-0.252-0.027-0.497-0.067-0.74C21.532,18.589,21.875,17.834,21.875,16.999z"/><path fill="#689f38" d="M36.875,16.999c0-1.656-1.343-2.999-2.999-2.999c-0.442,0-0.858,0.101-1.236,0.273C32.314,12.969,31.144,12,29.739,12c-1.422,0-2.607,0.993-2.915,2.321C26.423,14.122,25.977,14,25.499,14c-1.656,0-2.999,1.343-2.999,2.999c0,0.877,0.383,1.659,0.984,2.208c-0.032,0.219-0.053,0.44-0.053,0.665c0,2.97,2.824,5.378,6.308,5.378s6.308-2.408,6.308-5.378c0-0.252-0.027-0.497-0.067-0.74C36.532,18.589,36.875,17.834,36.875,16.999z"/><path fill="#fff3e0" d="M37.06,23.686L32.948,21.9c-0.384-0.167-0.56-0.614-0.393-0.998l1.388-3.195c0.167-0.384,0.614-0.56,0.998-0.393l4.112,1.786c0.384,0.167,0.56,0.614,0.393,0.998l-1.388,3.195C37.891,23.677,37.444,23.853,37.06,23.686z"/><path fill="#fff3e0" d="M19.099,19.772l-4.011,1.952c-0.382,0.186-0.843,0.027-1.029-0.355l-1.514-3.111c-0.186-0.382-0.027-0.843,0.355-1.029l4.011-1.952c0.382-0.186,0.843-0.027,1.029,0.355l1.514,3.111C19.641,19.125,19.482,19.586,19.099,19.772z"/><path fill="#bf360c" d="M24.403,27.101c2.394,4.355,7.867,5.946,12.222,3.552s5.946-7.867,3.552-12.222L24.403,27.101z"/><path fill="#ff3d00" d="M26.156,26.137c1.864,3.391,6.115,4.627,9.506,2.763c3.391-1.864,4.627-6.115,2.763-9.506 L26.156,26.137z"/><path fill="#ff7043" d="M29.661,24.211c0.8,1.455,2.619,1.984,4.074,1.184s1.984-2.619,1.184-4.074L29.661,24.211z"/><ellipse cx="35.137" cy="26.906" fill="#ffb74d" rx=".5" ry="1" transform="rotate(-28.797 35.135 26.906)"/><ellipse cx="32.026" cy="27.475" fill="#ffb74d" rx=".5" ry="1" transform="rotate(-.911 31.964 27.424)"/><ellipse cx="37.058" cy="24.709" fill="#ffb74d" rx=".5" ry="1" transform="rotate(-56.681 37.06 24.71)"/><ellipse cx="36.971" cy="22.475" fill="#ffb74d" rx=".5" ry="1" transform="rotate(-88.797 36.97 22.474)"/><path fill="#8bc34a" d="M16.718,18.87c3.529-4.147,12.281-3.885,14.282-3.858c-0.158,3.393,0.39,10.783-3.619,14.374 c-2.87,2.533-6.173,2.25-8.091-2.456C15.202,26.429,14.258,21.834,16.718,18.87z"/><path fill="#dcedc8" d="M12.46,31.018c0,0,0.328-0.123,0.944-0.278c0.353-0.057,0.525-0.197,0.829-0.385 c0.263-0.098,0.632-0.311,1.043-0.615c0.172-0.139,0.411-0.303,0.583-0.443c0.172-0.139,0.411-0.303,0.624-0.533 c0.386-0.369,0.813-0.828,1.24-1.288c0.427-0.459,0.83-0.984,1.232-1.509c0.403-0.525,0.871-1.075,1.339-1.624 c0.468-0.55,0.936-1.099,1.429-1.583c0.493-0.484,0.961-1.033,1.478-1.452c0.493-0.484,1.035-0.836,1.511-1.164 s1.043-0.615,1.478-0.853c0.501-0.262,0.895-0.41,1.355-0.582c0.369-0.213,0.747-0.205,1.075-0.328 c0.616-0.156,0.944-0.278,0.944-0.278s-0.328,0.123-0.895,0.41c-0.263,0.098-0.657,0.246-0.961,0.434 c-0.369,0.213-0.805,0.451-1.215,0.754c-0.411,0.303-0.887,0.631-1.338,1.025s-0.903,0.787-1.306,1.312 c-0.427,0.459-0.83,0.984-1.232,1.509c-0.403,0.525-0.78,1.116-1.158,1.706c-0.378,0.591-0.756,1.181-1.068,1.747 c-0.378,0.591-0.69,1.157-1.068,1.747c-0.378,0.591-0.78,1.116-1.208,1.575c-0.214,0.23-0.427,0.459-0.641,0.689 s-0.427,0.459-0.665,0.623c-0.452,0.394-0.838,0.763-1.273,1c-0.411,0.303-0.846,0.541-1.108,0.639 c-0.657,0.246-0.985,0.369-0.985,0.369L12.46,31.018z"/><path fill="#fff3e0" d="M24.59,26.546l-4.537-1.279c-0.342-0.096-0.541-0.451-0.444-0.793l1.008-3.575c0.096-0.342,0.451-0.541,0.793-0.444l4.537,1.279c0.342,0.096,0.541,0.451,0.444,0.793l-1.008,3.575C25.287,26.443,24.932,26.642,24.59,26.546z"/><ellipse cx="31.5" cy="23" fill="#212121" rx="2.5" ry="3"/><circle cx="32" cy="22" r="1" fill="#424242"/><ellipse cx="12.5" cy="19" fill="#212121" rx="2.5" ry="3"/><circle cx="13" cy="18" r="1" fill="#424242"/><g><path fill="#bf360c" d="M22.292,25.101c-2.394,4.355-7.867,5.946-12.222,3.552S4.124,20.786,6.517,16.43L22.292,25.101z"/><path fill="#ff3d00" d="M20.539,24.137c-1.864,3.391-6.115,4.627-9.506,2.763s-4.627-6.115-2.763-9.506L20.539,24.137z"/><path fill="#ff7043" d="M17.034,22.211c-0.8,1.455-2.619,1.984-4.074,1.184s-1.984-2.619-1.184-4.074L17.034,22.211z"/><ellipse cx="11.558" cy="24.906" fill="#ffb74d" rx="1" ry=".5" transform="rotate(-61.203 11.56 24.908)"/><ellipse cx="14.669" cy="25.475" fill="#ffb74d" rx="1" ry=".5" transform="rotate(-89.089 14.669 25.475)"/><ellipse cx="17.385" cy="24.686" fill="#ffb74d" rx=".5" ry="1" transform="rotate(-31.207 17.383 24.686)"/><ellipse cx="9.637" cy="22.709" fill="#ffb74d" rx="1" ry=".5" transform="rotate(-33.322 9.635 22.709)"/><ellipse cx="9.724" cy="20.475" fill="#ffb74d" rx="1" ry=".5" transform="rotate(-1.146 9.753 20.483)"/></g><path fill="#006b6b" d="M18,36h12v4H18V36z"/><path fill="#00bcd4" d="M6,25c0,7.9,5.1,10.5,12.1,13h11.8c7-2.4,12.1-5.1,12.1-13H6z"/><path fill="#006b6b" d="M41.1,30c0.6-1.4,0.9-3,0.9-5H6c0,2,0.3,3.6,0.9,5H41.1z"/></svg>