<svg xmlns="http://www.w3.org/2000/svg" xmlns:xlink="http://www.w3.org/1999/xlink" viewBox="0 0 48 48"><path fill="#80cbc4" d="M40.5,29h-4c-0.829,0-1.5-0.672-1.5-1.5s0.671-1.5,1.5-1.5h4c1.378,0,2.5-1.121,2.5-2.5V19h-6.5c-0.829,0-1.5-0.672-1.5-1.5s0.671-1.5,1.5-1.5h7c1.378,0,2.5,1.121,2.5,2.5v5C46,26.532,43.533,29,40.5,29z M43.5,19h0.01H43.5z"/><path fill="#bcaaa4" d="M27.75,15.5c-0.1-0.2-1.2-1.9-1.2-3.5c0-1,0.4-1.6,0.7-2c0.2-0.4,0.3-0.6,0.3-1c0-0.9-0.6-2.1-0.8-2.5l-0.3-0.4l1.7-1.1l0.3,0.5c0.1,0.2,1.1,1.9,1.1,3.5c0,1-0.4,1.6-0.6,2s-0.4,0.6-0.4,1c0,0.9,0.6,2.1,0.9,2.5L27.75,15.5z M22.75,15.5c-0.1-0.2-1.2-1.9-1.2-3.5c0-1,0.4-1.6,0.7-2c0.2-0.4,0.3-0.6,0.3-1c0-0.9-0.6-2.1-0.8-2.5l-0.3-0.4l1.7-1.1l0.3,0.5c0.1,0.2,1.1,1.9,1.1,3.5c0,1-0.4,1.6-0.6,2s-0.4,0.6-0.4,1c0,0.9,0.6,2.1,0.9,2.5L22.75,15.5z M17.75,15.5c-0.1-0.2-1.2-1.9-1.2-3.5c0-1,0.4-1.6,0.7-2c0.2-0.4,0.3-0.6,0.3-1c0-0.9-0.6-2.1-0.9-2.5l-0.2-0.4l1.7-1.1l0.3,0.5c0.1,0.2,1.1,1.9,1.1,3.5c0,1-0.4,1.6-0.6,2s-0.4,0.6-0.4,1c0,0.9,0.6,2.1,0.9,2.5L17.75,15.5z"/><path fill="#b2dfdb" d="M8,14h30c1.105,0,2,0.895,2,2v3.993c0,1.994-0.298,3.976-0.884,5.882l0,0C37.264,31.893,31.703,36,25.406,36h-4.812c-6.297,0-11.858-4.107-13.71-10.126l0,0C6.298,23.969,6,21.986,6,19.993V16C6,14.895,6.895,14,8,14z"/><path fill="#43a047" d="M39.97,21c-0.08,1.65-0.37,3.29-0.85,4.87l-0.3,0.95C37.15,32.28,32.11,36,26.4,36h-6.8c-5.71,0-10.75-3.72-12.42-9.18l-0.3-0.95C6.4,24.29,6.11,22.65,6.03,21H39.97z"/><path fill="#80cbc4" d="M6.384,35h33.231c1.075,0,1.738,1.169,1.185,2.087l0,0C39.713,38.894,37.754,40,35.64,40H10.36c-2.114,0-4.073-1.106-5.161-2.913l0,0C4.646,36.169,5.31,35,6.384,35z"/></svg>