<svg xmlns="http://www.w3.org/2000/svg" xmlns:xlink="http://www.w3.org/1999/xlink" viewBox="0 0 48 48"><rect width="10" height="7" x="31" y="33" fill="#f44336"/><rect width="10" height="7" x="18" y="33" fill="#f44336"/><path fill="#ffa000" d="M43,25H5v-5h38V25z"/><path fill="#ffa000" d="M43,44H5v-5h38V44z"/><path fill="#90caf9" d="M13.222,5c0,0-3.556,0-4.444,0C8.778,10.739,7,10.367,7,13.032V20h8v-6.968C15,10.367,13.222,10.739,13.222,5z"/><path fill="#9c27b0" d="M13,6H9C8.448,6,8,5.552,8,5v0c0-0.552,0.448-1,1-1h4c0.552,0,1,0.448,1,1v0C14,5.552,13.552,6,13,6z"/><rect width="8" height="2" x="7" y="18" fill="#64b5f6"/><path fill="#90caf9" d="M23.222,5c0,0-3.556,0-4.444,0c0,5.739-1.778,5.367-1.778,8.032V20h8v-6.968C25,10.367,23.222,10.739,23.222,5z"/><path fill="#9c27b0" d="M23,6h-4c-0.552,0-1-0.448-1-1v0c0-0.552,0.448-1,1-1h4c0.552,0,1,0.448,1,1v0C24,5.552,23.552,6,23,6z"/><rect width="8" height="2" x="17" y="18" fill="#64b5f6"/><rect width="10" height="2" x="31" y="37" fill="#d32f2f"/><rect width="4" height="2" x="34" y="35" fill="#fff176"/><rect width="10" height="2" x="18" y="37" fill="#d32f2f"/><rect width="4" height="2" x="21" y="35" fill="#fff176"/><rect width="10" height="6" x="25" y="27" fill="#4caf50"/><rect width="10" height="2" x="25" y="31" fill="#388e3c"/><rect width="4" height="2" x="28" y="29" fill="#fff176"/></svg>