<svg xmlns="http://www.w3.org/2000/svg" xmlns:xlink="http://www.w3.org/1999/xlink" viewBox="0 0 48 48"><path fill="#689f38" d="M6.278,16.65C6.093,16.836,6,17.115,6,17.394c0,0.465,0.278,0.837,0.649,1.023c0.371,1.302,0.741,2.604,1.297,3.814c-0.185,0.186-0.278,0.465-0.278,0.744c0,0.651,0.556,1.209,1.205,1.209c0.649,1.116,1.39,2.232,2.131,3.349c0,0.093,0,0.186,0,0.279c0,0.651,0.556,1.209,1.205,1.209c0.741,0.837,1.483,1.674,2.224,2.418c-0.093,0.186-0.093,0.279-0.093,0.465c0,0.651,0.556,1.209,1.205,1.209c0.185,0,0.371,0,0.556-0.093c0.834,0.651,1.575,1.302,2.409,1.86c0,0.093,0,0.186,0,0.279c0,0.651,0.556,1.209,1.205,1.209c0.278,0,0.556,0,0.741-0.186c0.927,0.558,1.946,1.209,2.965,1.674c0.093,0.558,0.649,0.93,1.205,0.93c0.185,0,0.371,0,0.556-0.093c1.575,0.651,3.243,1.209,4.819,1.674c0.185,0.465,0.649,0.837,1.205,0.837c0.371,0,0.741-0.093,0.927-0.372c1.39,0.186,2.873,0.372,4.17,0.372c0.927,0,1.761-0.093,2.502-0.186c0.185,0.093,0.371,0.186,0.649,0.186c0.463,0,0.834-0.279,1.112-0.651c1.761-0.651,2.595-1.767,2.595-2.976c0-1.674-1.575-2.697-4.263-4.093l0,0c0-0.651-0.556-1.209-1.205-1.209c-0.185,0-0.463,0.093-0.649,0.186c-0.927-0.465-1.946-1.023-3.058-1.674c-0.093-0.558-0.649-0.93-1.205-0.93c-0.093,0-0.185,0.093-0.278,0.093c-1.112-0.651-2.224-1.488-3.429-2.325c-0.093-0.558-0.649-0.93-1.205-0.93l0,0c-1.205-0.93-2.409-2.046-3.707-3.349c0-0.093,0-0.186,0-0.279c0-0.651-0.556-1.209-1.205-1.209c-0.093,0-0.093,0-0.185,0c-1.205-1.395-2.502-2.976-3.707-4.651c0.093-0.186,0.185-0.372,0.185-0.651c0-0.651-0.556-1.209-1.205-1.209c0,0-0.093,0-0.185,0c-0.649-1.023-1.297-2.046-1.946-3.163c0.093-0.093,0.093-0.279,0.093-0.465c0-0.651-0.463-1.116-1.019-1.209C13.135,6.977,12.765,4,10.077,4c-2.78,0-3.985,3.162-3.985,8.929C6.093,14.232,6.185,15.441,6.278,16.65z"/><path fill="#558b2f" d="M6.278,16.65C6.093,16.836,6,17.115,6,17.394c0,0.465,0.278,0.837,0.649,1.023c0.371,1.302,0.741,2.604,1.297,3.814c-0.185,0.186-0.278,0.465-0.278,0.744c0,0.651,0.556,1.209,1.205,1.209c0.649,1.116,1.39,2.232,2.131,3.349c0,0.093,0,0.186,0,0.279c0,0.651,0.556,1.209,1.205,1.209c0.741,0.837,1.483,1.674,2.224,2.418c-0.093,0.186-0.093,0.279-0.093,0.465c0,0.651,0.556,1.209,1.205,1.209c0.185,0,0.371,0,0.556-0.093c0.834,0.651,1.575,1.302,2.409,1.86c0,0.093,0,0.186,0,0.279c0,0.651,0.556,1.209,1.205,1.209c0.278,0,0.556,0,0.741-0.186c0.927,0.558,1.946,1.209,2.965,1.674c0.093,0.558,0.649,0.93,1.205,0.93c0.185,0,0.371,0,0.556-0.093c1.575,0.651,3.243,1.209,4.819,1.674c0.185,0.465,0.649,0.837,1.205,0.837c0.371,0,0.741-0.093,0.927-0.372c1.39,0.186,2.873,0.372,4.17,0.372c0.927,0,1.761-0.093,2.502-0.186c0.185,0.093,0.371,0.186,0.649,0.186c0.463,0,0.834-0.279,1.112-0.651c1.761-0.651,2.595-1.767,2.595-2.976c-5.467,1.488-27.151,1.116-37.067-24.649C6.093,14.232,6.185,15.441,6.278,16.65z"/><path fill="#9ccc65" d="M12.579,12.371c0,0.558-0.371,0.93-0.927,0.93c-0.463,0-0.927-0.372-0.927-0.93s0.371-0.93,0.927-0.93C12.209,11.441,12.579,11.813,12.579,12.371z M14.433,22.603c0,0.558-0.371,0.93-0.927,0.93c-0.556,0-0.927-0.372-0.927-0.93s0.371-0.93,0.927-0.93C14.062,21.673,14.433,22.045,14.433,22.603z M17.213,19.813c0,0.558-0.371,0.93-0.927,0.93c-0.463,0-0.927-0.372-0.927-0.93s0.371-0.93,0.927-0.93C16.842,18.882,17.213,19.255,17.213,19.813z M20.919,29.114c0,0.558-0.371,0.93-0.927,0.93s-0.927-0.372-0.927-0.93s0.371-0.93,0.927-0.93S20.919,28.556,20.919,29.114z M24.626,30.044c0,0.558-0.371,0.93-0.927,0.93s-0.927-0.372-0.927-0.93c0-0.558,0.371-0.93,0.927-0.93S24.626,29.486,24.626,30.044z M30.186,34.695c0,0.558-0.371,0.93-0.927,0.93s-0.927-0.372-0.927-0.93s0.371-0.93,0.927-0.93S30.186,34.137,30.186,34.695z M36.673,35.625c0,0.558-0.371,0.93-0.927,0.93c-0.556,0-0.927-0.372-0.927-0.93s0.371-0.93,0.927-0.93C36.302,34.695,36.673,35.067,36.673,35.625z"/><path fill="#4a148c" d="M13.022,43C8,43,4,38.916,4,33.996c0-7.055,4.279-8.633,8.743-10.211c2.325-0.835,4.837-1.671,7.069-3.434c1.674-1.207,3.163-2.692,4.651-4.27c1.953-2.135,3.442-3.342,3.721-3.713c0.186-0.278,2.604-1.392,2.79-1.207c0,0,3.907-1.3,6.511,1.207s1.86,7.147,1.86,7.426C38.415,29.448,26.324,43,13.022,43z"/><path fill="#558b2f" d="M41.147,4L43,5.86c0,0-2.038,3.535-3.705,5.581c1.297,1.674,2.871,4.465,0.926,9.301c-1.945-0.558-3.705-4.651-3.705-4.651s-1.112,1.395-4.631,1.86c-0.278-3.442,0.926-4.651,0.926-4.651s-4.261,0.372-5.558-0.93c0,0,2.594-4.93,9.263-2.79C39.11,7.721,41.147,4,41.147,4z"/><path fill="#9575cd" d="M7.721,34.695c-0.465,0-0.837-0.279-0.93-0.744c0-0.186-0.651-4,5.209-6.604c0.651-0.279,1.302-0.558,1.953-0.837c4.744-2.046,9.581-4.186,13.58-9.115c0.279-0.372,0.93-0.465,1.302-0.186s0.465,0.93,0.186,1.302c-4.279,5.302-9.581,7.627-14.231,9.674c-0.651,0.279-1.302,0.558-1.86,0.837c-4.558,1.953-4.279,4.465-4.279,4.558c0.093,0.465-0.279,0.93-0.744,1.023C7.814,34.695,7.721,34.695,7.721,34.695z"/><path fill="#e0e0e0" d="M33.767,44c-1.1,0-2.181-0.404-3.023-1.118c-0.588,0.208-1.196,0.313-1.81,0.313c-2.978,0-5.401-2.423-5.401-5.402c0-3.537,2.864-5.006,5.166-6.186c1.499-0.768,2.794-1.432,2.794-2.389v-5.685l1.706,1.137l1.137-1.137l1.729,1.449v4.236c-0.031,0.649,1.172,1.284,2.445,1.955C40.826,32.397,44,34.071,44,37.794c0,2.979-2.423,5.402-5.401,5.402c-0.575,0-1.227-0.115-1.808-0.315C35.949,43.596,34.867,44,33.767,44z"/><path fill="#bdbdbd" d="M25.007,38.439c-0.025-0.143-0.043-0.287-0.055-0.432c-0.003-0.058-0.006-0.18-0.01-0.185l0.002-0.296c-0.006-0.253,0.028-0.574,0.077-0.854c0.097-0.575,0.314-1.12,0.652-1.678c0.671-1.126,1.89-2.15,3.026-3.387c-2.301,1.18-5.165,2.649-5.165,6.186c0,2.979,2.423,5.402,5.401,5.402c0.614,0,1.221-0.106,1.81-0.313C27.384,42.812,25.381,40.709,25.007,38.439z"/><path fill="#bdbdbd" d="M41.679,34.311c0.876,1.179,1.271,2.819,0.947,4.098c-1.039,4.097-5.346,4.258-5.789,4.336l-0.046,0.134c0.58,0.2,1.233,0.315,1.808,0.315c2.978,0,5.401-2.423,5.401-5.402c0-3.723-3.174-5.397-5.491-6.62l0,0C39.834,32.119,40.822,33.104,41.679,34.311z"/><path fill="#bdbdbd" d="M35.377,32.694c1.583,1.269,2.652,3.209,3.016,5.302c0.086,0.523,0.156,1.049,0.126,1.635c-0.032,0.586-0.185,1.171-0.438,1.712c-0.507,1.085-1.466,1.959-2.6,2.372c-0.573,0.205-1.156,0.3-1.775,0.291c-0.567-0.014-1.184-0.135-1.728-0.367c-1.103-0.459-2.011-1.361-2.44-2.444c-0.218-0.537-0.342-1.109-0.339-1.674c-0.001-0.142,0.008-0.28,0.019-0.422l0.044-0.389c0.036-0.26,0.078-0.517,0.135-0.77c0.243-1.007,0.602-1.975,1.15-2.83c-0.193,0.988-0.318,1.967-0.318,2.928c-0.002,0.24-0.001,0.478,0.012,0.715l0.026,0.356c0.013,0.105,0.026,0.216,0.047,0.321c0.081,0.425,0.214,0.829,0.425,1.188c0.424,0.715,1.076,1.256,1.828,1.512c0.38,0.128,0.756,0.199,1.182,0.19c0.374-0.002,0.786-0.07,1.146-0.207c0.737-0.263,1.364-0.805,1.747-1.498c0.194-0.346,0.32-0.731,0.388-1.134c0.055-0.404,0.061-0.876,0.048-1.339C36.983,36.294,36.411,34.416,35.377,32.694z"/></svg>