<svg xmlns="http://www.w3.org/2000/svg" xmlns:xlink="http://www.w3.org/1999/xlink" viewBox="0 0 48 48"><path fill="#ffa000" d="M25.225,25.291c0-6.601-4.05-11.909-9.113-11.909S7,18.69,7,25.291S11.05,37.2,16.112,37.2S25.225,31.892,25.225,25.291z"/><path fill="#fb8c00" d="M13.075,25.291c0-0.408,0.203-8.302,6.075-11.229l0,0c-0.54-0.272-1.148-0.476-1.755-0.544c-3.375,2.246-5.603,5.784-5.468,10.956c0.135,3.675,1.485,6.261,3.037,8.098C13.818,30.531,13.075,28.013,13.075,25.291z"/><path fill="#fb8c00" d="M16.045,16.512c-0.338,0.068-0.743,0.068-1.148,0.068c-1.215,0-2.565-0.272-3.915-1.157c-0.405,0.34-0.743,0.749-1.08,1.157c1.62,1.361,3.307,2.042,4.658,2.178C14.965,17.941,15.437,17.193,16.045,16.512z"/><path fill="#7cb342" d="M19.15,15.491c0,0-1.417-7.758-12.15-4.832C11.725,20.187,19.15,15.491,19.15,15.491z"/><path fill="#558b2f" d="M18.002,15.9c-1.215-1.633-2.97-2.858-4.86-3.675c-0.945-0.408-1.958-0.749-2.97-1.021C9.093,10.932,8.08,10.728,7,10.66c1.08-0.068,2.16,0.068,3.172,0.204c1.08,0.136,2.092,0.408,3.172,0.749c1.013,0.34,2.025,0.749,2.97,1.361c0.945,0.544,1.89,1.293,2.632,2.11L18.002,15.9z"/><path fill="#6d4c41" d="M19.15,15.423c-0.405,0-0.675-0.272-0.675-0.681c0-1.633-1.688-2.858-1.755-2.858c-0.337-0.204-0.405-0.612-0.202-0.953c0.202-0.34,0.608-0.408,0.945-0.204c0.135,0.136,2.363,1.633,2.363,4.015C19.825,15.151,19.555,15.423,19.15,15.423z"/><path fill="#ffb300" d="M31.3,25.291c0-6.601-4.05-11.909-9.113-11.909c-5.062,0-9.112,5.308-9.112,11.909S17.125,37.2,22.187,37.2C27.25,37.2,31.3,31.892,31.3,25.291z"/><path fill="#e1734c" d="M24.55,33.117c0,0.408-0.27,0.681-0.675,0.681S23.2,33.525,23.2,33.117c0-0.408,0.27-0.681,0.675-0.681S24.55,32.709,24.55,33.117z M27.25,31.756c0,0.408-0.27,0.681-0.675,0.681c-0.405,0-0.675-0.272-0.675-0.681c0-0.408,0.27-0.681,0.675-0.681C26.98,31.075,27.25,31.348,27.25,31.756z M25.9,29.034c0,0.408-0.27,0.681-0.675,0.681s-0.675-0.272-0.675-0.681c0-0.408,0.27-0.681,0.675-0.681S25.9,28.625,25.9,29.034z M28.6,28.353c0,0.408-0.27,0.681-0.675,0.681s-0.675-0.272-0.675-0.681s0.27-0.681,0.675-0.681S28.6,27.945,28.6,28.353z M28.6,24.951c0,0.408-0.27,0.681-0.675,0.681s-0.675-0.272-0.675-0.681s0.27-0.681,0.675-0.681S28.6,24.542,28.6,24.951z M27.925,21.548c0,0.408-0.27,0.681-0.675,0.681s-0.675-0.272-0.675-0.681s0.27-0.681,0.675-0.681S27.925,21.14,27.925,21.548z M25.9,25.631c0,0.408-0.27,0.681-0.675,0.681s-0.675-0.272-0.675-0.681s0.27-0.681,0.675-0.681S25.9,25.223,25.9,25.631z"/><path fill="#fff176" d="M32.194,9.825c0.972,0,6.806-0.975,6.806,7.8S26.361,42,8.861,42c-1.944,0-3.889-0.975-3.889-0.975L4,38.1c0,0,0.972-3.9,6.806-6.825s9.978-5.376,12.457-7.861c1.944-1.949,5.043-5.789,5.043-8.714c0-1.909,1.944-3.9,1.944-3.9"/><path fill="#fdd835" d="M5.944,39.075c0,0,6.806-1.95,12.639-4.875S37.056,22.5,33.167,9.825c0,0,5.833-0.975,5.833,7.8S26.361,42,8.861,42c-1.944,0-3.889-0.975-3.889-0.975L5.944,39.075z"/><path fill="#c0ca33" d="M38.089,12.69c-1.823-3.92-5.895-1.89-5.895-9.69c-2.917,0-4.861,1.95-4.861,1.95s2.917,2.925,2.917,5.85c1.944,0,3.512-0.153,3.686,4.631C35.25,9.845,38.089,12.69,38.089,12.69z"/><path fill="#c0ca33" d="M28.306,14.7c0,0-0.061-1.768,1.944-3.9s3.919-0.396,3.919-0.396l-0.233,5.027c0,0-0.851-3.169-2.188-3.25C28.929,12.011,28.306,14.7,28.306,14.7z"/><path fill="#6d4c41" d="M4,39.075l0.972,1.95h0.972v-1.95L4,38.1V39.075z"/><path fill="#827717" d="M32.275,3.075c-2.925,0-4.875,1.95-4.875,1.95h2.925L32.275,3.075z"/><path fill="#6d4c41" d="M41.649,24.34c-3.667-3.648-10.311-2.953-14.841,1.554s-5.229,11.118-1.562,14.766s10.311,2.953,14.841-1.554S45.316,27.989,41.649,24.34z"/><path fill="#7cb342" d="M35.651,23.1L35.651,23.1c2.086,0,3.89,0.697,5.216,2.017c3.231,3.214,2.529,9.141-1.563,13.213c-2.281,2.27-5.219,3.571-8.062,3.571c-2.087,0-3.891-0.697-5.217-2.017c-1.533-1.526-2.234-3.717-1.975-6.169c0.269-2.54,1.525-5.041,3.538-7.043C29.87,24.402,32.809,23.1,35.651,23.1"/><path fill="#558b2f" d="M26.734,36.864c-0.281-0.544-0.07-1.204,0.472-1.48l0,0c0.547-0.28,3.095-0.701,3.095-0.701s-1.54,2.38-2.083,2.655l0,0c-0.437,0.225-0.957,0.127-1.285-0.198l0,0C26.851,37.058,26.785,36.969,26.734,36.864z M28.691,37.808c0.273-0.544,2.522-2.202,2.522-2.202s-0.277,2.657-0.554,3.196l0,0c-0.277,0.54-0.941,0.758-1.488,0.479l0,0c0,0,0,0,0.004,0.003l0,0c-0.109-0.054-0.203-0.125-0.281-0.202l0,0C28.561,38.753,28.467,38.239,28.691,37.808z M26.07,33.585c0.035-0.61,0.559-1.068,1.168-1.038l0,0c0.61,0.031,2.698,0.841,2.698,0.841s-2.213,1.39-2.826,1.355l0,0c-0.281-0.015-0.527-0.136-0.715-0.323l0,0C26.179,34.206,26.054,33.91,26.07,33.585z M31.303,38.9c-0.039-0.607,1.437-2.901,1.437-2.901s0.731,2.166,0.767,2.769l0,0c0.035,0.61-0.429,1.127-1.039,1.166l0,0c-0.328,0.015-0.633-0.109-0.847-0.323l0,0C31.436,39.429,31.318,39.18,31.303,38.9z M26.905,30.475c0.265-0.544,0.926-0.773,1.476-0.505l0,0c0.551,0.26,1.807,1.918,1.807,1.918s-2.221,0.32-2.772,0.059l0,0c-0.113-0.058-0.215-0.127-0.3-0.213l0,0C26.792,31.413,26.694,30.91,26.905,30.475z M34.111,38.593c-0.27-0.548,0.059-2.893,0.059-2.893s1.664,1.382,1.929,1.926l0,0c0.262,0.547,0.039,1.204-0.511,1.472l0,0c-0.434,0.206-0.941,0.113-1.265-0.209l0,0C34.236,38.803,34.166,38.702,34.111,38.593z M28.749,27.91c0.429-0.427,1.128-0.431,1.562,0l0,0c0.429,0.427,0.88,2.43,0.88,2.43s-2.009-0.445-2.442-0.875l0,0C28.319,29.038,28.316,28.342,28.749,27.91z M35.66,34.703c0,0,2.087,0.553,2.52,0.984l0,0c0.429,0.427,0.434,1.123,0,1.554l0,0c-0.004,0.004-0.008,0.008-0.012,0.012l0,0c0,0-0.004,0.004-0.008,0.008l0,0c-0.429,0.427-1.129,0.431-1.562,0l0,0C36.17,36.833,35.66,34.703,35.66,34.703z M30.811,27.546c-0.269-0.548-0.039-1.205,0.512-1.473l0,0l0,0l0,0c0.542-0.268,1.207-0.043,1.476,0.505l0,0c0.266,0.544-0.096,2.731-0.096,2.731S31.006,28.031,30.811,27.546z M39.509,33.208L39.509,33.208c0.546,0.264,0.781,0.917,0.511,1.465l0,0c-0.266,0.544-0.926,0.773-1.476,0.513l0,0c-0.581-0.281-1.866-2.001-1.866-2.001S38.958,32.939,39.509,33.208z M33.404,26.396c-0.039-0.607,0.422-1.127,1.031-1.166l0,0c0,0,0,0,0.004,0.004l0,0c0.609-0.039,1.133,0.42,1.168,1.03l0,0c0.035,0.602-1.282,2.741-1.282,2.741S33.42,26.675,33.404,26.396z M36.96,31.647c0,0,2.24-1.273,2.849-1.241l0,0c0.605,0.035,1.074,0.556,1.039,1.157l0,0c-0.031,0.607-0.582,0.994-1.16,1.038C39.11,32.647,36.96,31.647,36.96,31.647z M36.251,26.353c0.277-0.54,0.941-0.758,1.485-0.482l0,0c0.542,0.276,0.761,0.936,0.484,1.477l0,0c-0.273,0.544-2.551,1.923-2.551,1.923S36.029,26.792,36.251,26.353z M38.696,27.814L38.696,27.814c0.539-0.28,1.207-0.066,1.488,0.47l0,0l0,0l0,0c0.277,0.54,0.07,1.204-0.476,1.484l0,0c-0.437,0.225-3.198,0.418-3.198,0.418S38.15,28.093,38.696,27.814z"/><path fill="#5d4037" d="M36.925,35.98c0.235-0.234,0.235-0.582,0.019-0.796c-0.126-0.121-0.673-0.348-1.34-0.565c0.204,0.676,0.42,1.234,0.541,1.363C36.359,36.195,36.709,36.195,36.925,35.98z M32.131,37.814c0.112,0.111,0.268,0.171,0.43,0.162c0.303-0.019,0.532-0.276,0.515-0.585c-0.014-0.224-0.178-0.836-0.372-1.477c-0.399,0.698-0.715,1.342-0.727,1.556C31.984,37.599,32.037,37.721,32.131,37.814z M34.943,37.472c0.268-0.13,0.383-0.464,0.251-0.74c-0.012-0.024-0.099-0.18-0.522-0.602c-0.151-0.151-0.316-0.306-0.474-0.45c-0.06,0.745-0.063,1.375,0.007,1.545c0.026,0.052,0.062,0.104,0.103,0.145C34.471,37.534,34.726,37.575,34.943,37.472z M38.225,33.224c-0.166-0.071-0.783-0.087-1.514-0.051c0.204,0.243,0.431,0.502,0.641,0.711c0.261,0.26,0.372,0.32,0.392,0.329c0.272,0.129,0.605,0.013,0.738-0.258c0.103-0.209,0.06-0.459-0.104-0.624C38.334,33.287,38.282,33.252,38.225,33.224z M31.317,35.484c-0.661,0.532-1.22,1.028-1.321,1.21c-0.11,0.214-0.07,0.469,0.101,0.637c0.04,0.04,0.087,0.074,0.138,0.1l0.001-0.002c0.132,0.067,0.282,0.08,0.422,0.035c0.141-0.045,0.255-0.143,0.323-0.274C31.073,37.008,31.203,36.298,31.317,35.484z M38.057,30.008c0.263-0.135,0.37-0.469,0.23-0.742c-0.024-0.046-0.057-0.092-0.098-0.131c-0.17-0.169-0.434-0.211-0.643-0.103c-0.178,0.096-0.666,0.612-1.191,1.227C37.17,30.179,37.88,30.083,38.057,30.008z M38.29,32.109c0.309-0.024,0.632-0.21,0.648-0.518c0.009-0.157-0.05-0.309-0.161-0.42c-0.097-0.096-0.224-0.153-0.358-0.161c-0.204,0.007-0.852,0.286-1.554,0.642C37.513,31.913,38.1,32.113,38.29,32.109z M28.635,35.92c0.167,0.167,0.43,0.207,0.641,0.099c0.181-0.109,0.648-0.698,1.142-1.391c-0.782,0.155-1.456,0.315-1.648,0.414c-0.13,0.066-0.226,0.178-0.271,0.315c-0.045,0.141-0.032,0.291,0.037,0.425C28.565,35.838,28.594,35.879,28.635,35.92z M29.998,29.911c0.125,0.119,0.65,0.318,1.284,0.501c-0.184-0.632-0.385-1.155-0.503-1.279c-0.215-0.214-0.566-0.214-0.781,0.001C29.783,29.348,29.783,29.696,29.998,29.911z M28.823,31.969c0.154,0.061,0.753,0.057,1.463-0.004c-0.192-0.227-0.404-0.467-0.602-0.663c-0.267-0.266-0.374-0.321-0.386-0.326c-0.138-0.068-0.288-0.076-0.427-0.029c-0.139,0.048-0.251,0.147-0.315,0.279c-0.103,0.212-0.06,0.465,0.104,0.63C28.701,31.897,28.756,31.935,28.823,31.969z M35.664,29.248c0.656-0.443,1.213-0.869,1.321-1.047c0.108-0.209,0.067-0.465-0.103-0.634c-0.041-0.041-0.089-0.075-0.141-0.102c-0.27-0.137-0.602-0.028-0.741,0.242C35.925,27.864,35.792,28.505,35.664,29.248z M31.722,28.386l0.009,0.018l0.008,0.019c0.001,0.001,0.052,0.095,0.282,0.323c0.197,0.196,0.445,0.413,0.679,0.607c0.071-0.697,0.083-1.292,0.016-1.457c-0.025-0.051-0.061-0.101-0.104-0.144c-0.167-0.167-0.42-0.209-0.628-0.105C31.705,27.782,31.589,28.113,31.722,28.386z M34.292,29.026c0.348-0.644,0.62-1.234,0.628-1.435c-0.01-0.164-0.092-0.28-0.159-0.347c-0.11-0.11-0.265-0.168-0.423-0.157l-0.072,0.004c-0.121,0.023-0.23,0.084-0.312,0.176c-0.094,0.106-0.142,0.241-0.137,0.382C33.851,27.806,34.051,28.372,34.292,29.026z M28.613,32.966c-0.307-0.015-0.57,0.218-0.587,0.52c-0.008,0.154,0.05,0.304,0.163,0.416c0.101,0.1,0.22,0.155,0.355,0.162c0.206-0.01,0.835-0.31,1.516-0.689C29.436,33.161,28.835,32.977,28.613,32.966z"/><path fill="#e6ee9c" d="M36.182,29.78c-1.222-1.216-3.437-0.984-4.947,0.518c-1.51,1.502-1.743,3.706-0.521,4.922l0,0 c1.222,1.216,3.437,0.984,4.947-0.518C37.172,33.2,37.405,30.997,36.182,29.78z"/></svg>