<svg xmlns="http://www.w3.org/2000/svg" xmlns:xlink="http://www.w3.org/1999/xlink" viewBox="0 0 48 48"><path fill="#64b5f6" d="M22.213,39.291l-9.351-7.119c-2.066-1.573-2.465-4.522-0.893-6.588L26.208,6.883 c1.573-2.066,4.522-2.465,6.588-0.893l9.351,7.119c2.066,1.573,2.465,4.522,0.893,6.588L28.801,38.399 C27.228,40.464,24.279,40.864,22.213,39.291z"/><path fill="#bbdefb" d="M20.31,39H8.69C6.1,39,4,36.9,4,34.31V10.69C4,8.1,6.1,6,8.69,6H20.31C22.9,6,25,8.1,25,10.69V34.31 C25,36.9,22.9,39,20.31,39z"/><path fill="#689f38" d="M23.098,31.727c-3.376-2.472-9.07-1.542-9.07-1.542s-0.578,5.781,3.951,9.692 s8.269,1.125,8.269,1.125S27.967,35.293,23.098,31.727z"/><path fill="#8bc34a" d="M29.668 42.487c.041-.056.081-.11.066-.208.092-.357-.116-.766-.475-.856-1.032-.331-1.97-.679-2.88-1.176.338-1.622.537-5.725-3.279-8.52-3.376-2.472-9.07-1.542-9.07-1.542s.448.667 1.255 1.769c.196.313 5.419 8.387 13.633 10.747C29.177 42.808 29.506 42.707 29.668 42.487zM32.225 44.154c-.096.068-.187.127-.279.186C32.036 44.283 32.129 44.221 32.225 44.154zM35.687 37.29c-.043.501-.115.961-.201 1.401C35.571 38.251 35.643 37.792 35.687 37.29zM32.346 44.068c.942-.686 2.044-1.868 2.733-3.848C34.392 42.179 33.293 43.364 32.346 44.068zM35.412 39.025c-.077.343-.164.671-.264.977C35.248 39.696 35.335 39.37 35.412 39.025z"/><path fill="#689f38" d="M28.104 22.641c0 0-6.29 4.617-6.918 11.93-.866 10.084 7.477 10.428 9.136 10.398-.776-1.103-1.539-2.461-2.16-4.126C24.61 32.433 28.104 22.641 28.104 22.641zM35.486 38.691c-.022.115-.049.224-.074.335C35.437 38.914 35.463 38.806 35.486 38.691zM32.346 44.068c-.041.03-.081.058-.121.086C32.266 44.125 32.304 44.099 32.346 44.068zM35.148 40.002c-.023.072-.045.148-.07.218C35.103 40.15 35.125 40.075 35.148 40.002z"/><path fill="#8bc34a" d="M31.945,44.34c0.092-0.059,0.183-0.117,0.279-0.186c0.04-0.028,0.08-0.056,0.121-0.086 c0.947-0.704,2.046-1.889,2.733-3.848c0.025-0.07,0.046-0.146,0.07-0.218c0.1-0.306,0.187-0.634,0.264-0.977 c0.025-0.111,0.051-0.22,0.074-0.335c0.086-0.439,0.158-0.9,0.201-1.401c0.722-8.41-7.583-14.649-7.583-14.649 s-3.494,9.792,0.057,18.201c0.621,1.666,1.384,3.023,2.16,4.126c0.182-0.003,0.287-0.011,0.287-0.011S31.183,44.814,31.945,44.34z"/><path fill="none" stroke="#fff" stroke-linecap="round" stroke-width="2" d="M18.496 9.714c1.73 0 3.132 1.402 3.132 3.132M38.454 14.73c1.376 1.048 1.643 3.013.595 4.389"/></svg>