<svg xmlns="http://www.w3.org/2000/svg" xmlns:xlink="http://www.w3.org/1999/xlink" viewBox="0 0 48 48"><path fill="#ffecb3" d="M45,7.42l-8.58,12.89L20.31,36.42L7.42,45c-1.55-1.93-2.73-4.45-3.49-7.29 c-0.02-0.09-0.05-0.18-0.07-0.27c-0.31-1.26-0.54-2.57-0.68-3.92c-0.01-0.02-0.01-0.04-0.01-0.06c-0.2-1.89-0.23-3.86-0.05-5.85 c0.01-0.07,0.01-0.15,0.02-0.22c0.11-1.32,0.33-2.65,0.65-3.96c0.01-0.03,0.01-0.06,0.02-0.09c0.48-2.14,1.21-4.24,2.21-6.23 c0.03-0.05,0.05-0.11,0.09-0.16c0.59-1.18,1.28-2.32,2.08-3.42c0.03-0.04,0.05-0.07,0.08-0.11c0.71-0.97,1.5-1.9,2.37-2.78 c0.88-0.87,1.81-1.66,2.78-2.35c0.04-0.03,0.07-0.05,0.11-0.08c1.1-0.82,2.24-1.51,3.42-2.1c0.05-0.04,0.11-0.06,0.16-0.09 c1.99-1,4.09-1.73,6.22-2.21h0.01c0.03-0.01,0.07-0.02,0.1-0.02c1.31-0.32,2.64-0.54,3.95-0.65c0.07-0.01,0.15-0.01,0.22-0.02 c1.99-0.18,3.96-0.15,5.85,0.05c0.02,0,0.04,0,0.06,0.01c1.36,0.14,2.68,0.37,3.95,0.69c0.08,0.02,0.16,0.04,0.24,0.06 C40.55,4.69,43.07,5.87,45,7.42z"/><path fill="#ffe082" d="M19.9 21.42c-.92 1.05-1.66 2.18-2.23 3.33l-11.56-7.8c.59-1.18 1.28-2.32 2.08-3.42L19.9 21.42zM24.75 17.67c-1.15.57-2.28 1.31-3.33 2.23L13.53 8.21c1.1-.82 2.24-1.51 3.42-2.1L24.75 17.67zM16.94 26.47c-.48 1.33-.76 2.66-.87 3.91L3.14 27.39c.11-1.32.33-2.65.65-3.96L16.94 26.47zM16.96 35.86l-13.1 1.58c-.31-1.26-.54-2.57-.68-3.92l12.85-1.57C16.08 33.49 16.41 34.85 16.96 35.86zM30.38 16.08c-1.26.1-2.59.38-3.91.87L23.44 3.79c1.31-.32 2.64-.54 3.95-.65L30.38 16.08zM37.47 3.87l-1.61 13.1c-1.02-.56-2.38-.89-3.92-.93l1.58-12.86C34.88 3.32 36.2 3.55 37.47 3.87z"/><path fill="#ffca2c" d="M39.894,13.87c-4.491-4.491-15.585-3.933-22.771,3.253c-7.186,7.186-7.744,18.279-3.253,22.771 c3.078,3.078,11.134-0.517,18.321-7.703C39.377,25.004,42.972,16.948,39.894,13.87z"/></svg>