<svg xmlns="http://www.w3.org/2000/svg" xmlns:xlink="http://www.w3.org/1999/xlink" viewBox="0 0 48 48"><path fill="#795548" d="M10,26c-0.094-0.655,0-4.319,0-5c0-7.72,6.28-14,14-14s14,6.28,14,14c0,0.681,0.094,4.345,0,5h3c0.077-0.657,0-4.322,0-5c0-9.389-7.611-17-17-17S7,11.611,7,21c0,0.678-0.077,4.343,0,5H10z"/><path fill="#ffd54f" d="M36.873,10.766c2.234-3.755,5.458-5.606,7.545-4.401c2.087,1.205,2.146,4.95-0.039,8.734 c-1.506,2.608-4.375,3.729-6.461,2.524C35.831,16.42,35.333,13.354,36.873,10.766z"/><path fill="#ffd54f" d="M36.873,10.766l7.506,4.333l-9.75,16.888l-7.506-4.333L36.873,10.766z"/><path fill="#ffb300" d="M34.559,16.94c0,0,2.006-1.579,4.306-2.09c2.3-0.511,4.031,0.649,4.031,0.649 s-2.008,1.502-4.308,2.012S34.559,16.94,34.559,16.94z M30.768,23.507c0,0,2.006-1.579,4.306-2.09 c2.3-0.51,4.031,0.649,4.031,0.649s-2.008,1.502-4.308,2.012C32.498,24.588,30.768,23.507,30.768,23.507z"/><path fill="#795548" d="M27.75,23.28h-1.5c0-1.542,0-2.56,1.72-4.28l1.061,1.06C27.75,21.341,27.75,21.83,27.75,23.28z"/><path fill="#4caf50" d="M26.377,19.813c1.344,0.968,1.558,2.971,1.558,2.971s-1.966,0.432-3.311-0.536 c-1.344-0.968-1.558-2.971-1.558-2.971S25.033,18.845,26.377,19.813z"/><path fill="#f44336" d="M33,26.28c0,3-3.742,6.743-5.992,4.515L27,30.788c-2.25,2.243-6-1.507-6-4.507c0-3.75,2.25-6,6-3.75 c0.127-0.075,0.255-0.15,0.382-0.218c0.9-0.48,1.71-0.69,2.415-0.683C31.838,21.668,33,23.595,33,26.28z"/><ellipse cx="24.002" cy="25.156" fill="#ffccbc" rx="1.609" ry=".962" transform="rotate(-67.741 24.002 25.156)"/><path fill="#558b2f" d="M20.781,22.559l0.019-0.007c-1.593-0.954-1.467-2.145-1.467-2.551h-3.667v0.046 c0,0.406,0.114,1.551-1.478,2.505l0.018,0.007C12.899,23.501,12,24.967,12,26.619l0.733,15.445c0,0.407,0.329,0.735,0.733,0.735 h8.067c0.406,0,0.733-0.329,0.733-0.735L23,26.619C23,24.967,22.094,23.502,20.781,22.559z"/><path fill="#d32f2f" d="M19.286,14.91c0.395,0,0.714-0.326,0.714-0.727v-1.455C20,12.326,19.681,12,19.286,12h-3.571 C15.32,12,15,12.326,15,12.727v1.455c0,0.401,0.32,0.727,0.714,0.727V20h3.571V14.91z"/><path fill="#ffc107" d="M15.667,19h3.667v1h-3.667V19z"/><path fill="#795548" d="M12,44h24c4.263-2.881,6.844-9.035,7-14H5.025C5.181,34.965,7.737,41.119,12,44z"/><path fill="#5d4037" d="M43,30H5c-1.105,0-2-0.895-2-2l0,0c0-1.105,0.895-2,2-2h38c1.105,0,2,0.895,2,2l0,0C45,29.105,44.105,30,43,30z"/><rect width="6" height="2" x="21" y="36" fill="#5d4037"/><rect width="6" height="2" x="25" y="40" fill="#5d4037"/><rect width="6" height="2" x="17" y="40" fill="#5d4037"/><rect width="6" height="2" x="25" y="32" fill="#5d4037"/><rect width="6" height="2" x="13" y="36" fill="#5d4037"/><rect width="6" height="2" x="9" y="32" fill="#5d4037"/><rect width="6" height="2" x="17" y="32" fill="#5d4037"/><path fill="#5d4037" d="M37,36v2h3.929c0.32-0.652,0.606-1.321,0.854-2H37z"/><path fill="#5d4037" d="M39.794,40H33v2h5.27C38.824,41.386,39.33,40.712,39.794,40z"/><path fill="#5d4037" d="M41,32v2h1.406c0.172-0.671,0.309-1.34,0.408-2H41z"/><path fill="#5d4037" d="M15,40H8.214c0.462,0.712,0.967,1.386,1.519,2H15V40z"/><rect width="6" height="2" x="33" y="32" fill="#5d4037"/><rect width="6" height="2" x="29" y="36" fill="#5d4037"/><path fill="#5d4037" d="M5.21,32c0.098,0.66,0.234,1.329,0.405,2H7v-2H5.21z"/><path fill="#5d4037" d="M11,36H6.233c0.247,0.679,0.532,1.348,0.849,2H11V36z"/></svg>