<svg xmlns="http://www.w3.org/2000/svg" xmlns:xlink="http://www.w3.org/1999/xlink" width="48" height="48" viewBox="0 0 48 48"><path fill="#E65100" d="M42.912,24.538l-10.408-9.052L23.463,5.064c-5.087,0.063-10.852,2.906-13.784,5.888C3.537,17.205,4.28,28.525,7.026,34.727c0.009,0.022,0.006,0.039,0.018,0.063c1.051,2.189-0.376,5.095,0.337,5.823c0.005,0.005,0.011,0.008,0.016,0.013c0.004,0.005,0.007,0.01,0.012,0.015c0.727,0.715,3.63-0.714,5.817,0.338c0.024,0.012,0.039,0.008,0.062,0.016c6.193,2.751,17.5,3.495,23.745-2.654C40.01,35.404,42.851,29.632,42.912,24.538z"/><path fill="#D84315" d="M21.477,10.934c-1.099,0.123-2.407,0.488-3.568,0.943c-1.187,0.463-2.33,1.058-3.398,1.773c-1.044,0.707-2.127,1.566-2.884,2.498c-0.809,0.967-1.448,2.104-1.952,3.311c-1,2.427-1.468,5.111-1.652,7.803c-0.172,2.697-0.087,5.432,0.276,8.135c-0.594-2.665-0.917-5.398-0.978-8.152c-0.045-2.75,0.185-5.551,1.035-8.266c0.433-1.352,1.028-2.681,1.871-3.888c0.884-1.253,1.876-2.211,2.99-3.159c1.11-0.925,2.326-1.729,3.621-2.397c1.32-0.667,2.607-1.211,4.195-1.567L21.477,10.934z"/><path fill="#D84315" d="M24.615 16.638c-1.848.548-3.807 1.489-5.517 2.616-.864.573-1.688 1.201-2.453 1.912-.724.677-1.406 1.488-2.008 2.343-1.212 1.722-2.176 3.66-2.979 5.665-.797 2.01-1.451 4.092-1.921 6.223.224-2.173.637-4.332 1.209-6.461.582-2.125 1.334-4.227 2.416-6.217.546-.998 1.165-1.948 1.937-2.858.741-.865 1.572-1.668 2.448-2.406 1.783-1.475 3.663-2.695 5.906-3.658L24.615 16.638zM28.796 21.322L10.458 37.561 26.673 19.201zM40.015 26.969c-.354 1.587-.896 2.873-1.562 4.194-.666 1.295-1.468 2.513-2.39 3.624-.947 1.116-1.899 2.108-3.152 2.995-1.205.844-2.533 1.442-3.883 1.877-2.714.854-5.513 1.085-8.263 1.04-2.753-.059-5.484-.383-8.148-.977 2.702.363 5.436.449 8.132.275 2.689-.185 5.372-.654 7.797-1.657 1.205-.505 2.339-1.146 3.305-1.956.928-.759 1.786-1.844 2.49-2.889.714-1.069 1.306-2.213 1.768-3.4.453-1.161.817-2.47.939-3.568L40.015 26.969z"/><path fill="#D84315" d="M34.194,24.345c-0.96,2.242-2.179,4.123-3.649,5.908c-0.736,0.876-1.538,1.709-2.401,2.451c-0.909,0.773-1.858,1.394-2.854,1.94c-1.988,1.085-4.089,1.84-6.213,2.422c-2.127,0.574-4.286,0.99-6.458,1.214c2.13-0.471,4.212-1.126,6.22-1.925c2.003-0.805,3.939-1.771,5.659-2.984c0.854-0.602,1.663-1.287,2.339-2.01c0.709-0.768,1.335-1.592,1.907-2.457c1.124-1.711,2.063-3.671,2.609-5.519L34.194,24.345z"/><path fill="#FB8C00" d="M11.765,36.352c-1.871-1.842-3.858-3.198-5.541-3.887c0.197,0.809,0.463,1.593,0.803,2.342c0.004,0.012,0.002,0.021,0.007,0.034c1.077,2.779-0.352,5.086,0.375,5.8c0.727,0.715,3.63-0.714,5.817,0.338c0.024,0.012,0.039,0.008,0.062,0.016c0.775,0.344,1.584,0.615,2.424,0.813C15.008,40.152,13.634,38.191,11.765,36.352z"/><g><path fill="#FB8C00" d="M42.678 27.031c1.288-5.77-1.674-10.688-6.243-15.3l-9.429 9.441c.873-.039 4.955.709 4.955 4.961 2.646-1.321 4.955-.709 7.078 2.835C40.445 25.659 42.678 27.031 42.678 27.031zM21.105 5.277c5.9-1.115 10.725 1.879 15.329 6.454l-9.429 9.441c.039-.874-.708-4.962-4.955-4.962 1.32-2.65.708-4.96-2.831-7.087C22.524 7.717 21.105 5.277 21.105 5.277z"/></g><path fill="#EF6C00" d="M32.51 13.083A3.249 1.395 0 1 0 32.51 15.873A3.249 1.395 0 1 0 32.51 13.083Z" transform="rotate(45.009 32.51 14.476)"/></svg>