<svg xmlns="http://www.w3.org/2000/svg" xmlns:xlink="http://www.w3.org/1999/xlink" viewBox="0 0 48 48"><path fill="#0097a7" d="M10 6H38V42H10z"/><path fill="#263238" d="M32,35H16l-3-15l3-1l-1-4c0,0,4-2,9-2s9,2,9,2l-1,4l3,1L32,35z"/><path fill="#ff6d00" d="M21 30L26 30 26 34 18 34 18 32z"/><path fill="#c5cae9" d="M38 6H10C9.4 6 9 5.6 9 5l0 0c0-.6.4-1 1-1h28c.6 0 1 .4 1 1l0 0C39 5.6 38.6 6 38 6zM38 44H10c-.6 0-1-.4-1-1l0 0c0-.6.4-1 1-1h28c.6 0 1 .4 1 1l0 0C39 43.6 38.6 44 38 44z"/><path fill="#ffab00" d="M10 8H38V10H10z"/><path fill="#006064" d="M20 38H28V40H20z"/><path fill="#ffab40" d="M32,36H16c-0.5,0-0.9-0.3-1-0.8l-3-15c-0.1-0.5,0.2-1,0.7-1.1l2.1-0.7L14,15.2 c-0.1-0.5,0.1-0.9,0.5-1.1C14.7,14,18.8,12,24,12s9.3,2,9.4,2.1c0.4,0.2,0.6,0.7,0.5,1.1l-0.8,3.1l2.1,0.7c0.5,0.2,0.8,0.7,0.7,1.1 l-3,15C32.9,35.7,32.5,36,32,36z M16.8,34h14.4l2.7-13.3l-2.2-0.7c-0.5-0.2-0.8-0.7-0.7-1.2l0.8-3.2C30.5,15,27.5,14,24,14 s-6.5,1-7.8,1.6l0.8,3.2c0.1,0.5-0.2,1-0.7,1.2l-2.2,0.7L16.8,34z"/><path fill="#fff" d="M19.2 18.6l-.5-1.9c3.6-.9 7-.9 10.6 0l-.5 1.9C25.5 17.8 22.5 17.8 19.2 18.6zM30.8 25c-1.6-.5-4.1-1-6.8-1s-5 .5-6.7 1l-.6-2.8c1.7-.6 4.2-1.2 7.3-1.2 3.1 0 5.7.7 7.4 1.3L30.8 25z"/><path fill="#ff9100" d="M25,31.5c0,0.8-0.9,1.5-2,1.5c-0.4,0-2,0-2,0s0-0.9,0-1.5c0-0.8,0.9-1.5,2-1.5S25,30.7,25,31.5z"/><path fill="#ffab00" d="M30 31c.2.8-.5 1.6-1.6 1.9-1.1.3-2.1-.1-2.3-.9-.2-.8.5-1.6 1.6-1.9C28.7 29.8 29.8 30.2 30 31zM21 32v2c0 0-4 0-4 0l0-1c-.2-.8.5-1.6 1.6-1.9C19.7 30.8 20.8 31.2 21 32z"/><path fill="#ffd600" d="M18,30c-0.2,0.8,0.5,1.6,1.6,1.9c1.1,0.3,2.1-0.1,2.3-0.9c0.2-0.8-0.5-1.6-1.6-1.9 C19.3,28.8,18.2,29.2,18,30z"/><path fill="#ff6d00" d="M28 33.5c0 .2 0 .3.1.5h2.9l.3-1.6C31 32.2 30.5 32 30 32 28.9 32 28 32.7 28 33.5zM19.9 33.5c0 .2 0 .3-.1.5h-2.9l-.3-1.6c.4-.3.8-.4 1.4-.4C19 32 19.9 32.7 19.9 33.5z"/><path fill="#ffd600" d="M27 31.7A1.7 2.3 0 1 0 27 36.3A1.7 2.3 0 1 0 27 31.7Z" transform="rotate(-45.001 27 34)"/><path fill="#ffab00" d="M25,29c0.2,0.8-0.5,1.6-1.6,1.9c-1.1,0.3-2.1-0.1-2.3-0.9c-0.2-0.8,0.5-1.6,1.6-1.9 C23.7,27.8,24.8,28.2,25,29z"/><path fill="#ffd600" d="M24 30c-.2.8.5 1.6 1.6 1.9 1.1.3 2.1-.1 2.3-.9.2-.8-.5-1.6-1.6-1.9C25.3 28.8 24.2 29.2 24 30zM22.4 32.1c-1.1-.3-2.1.1-2.3.9-.1.3 0 .7.2 1H24c0 0 0 0 0 0C24.2 33.2 23.5 32.4 22.4 32.1z"/></svg>