<svg xmlns="http://www.w3.org/2000/svg" xmlns:xlink="http://www.w3.org/1999/xlink" viewBox="0 0 48 48"><polygon fill="#81d4fa" points="34,8 28,9 22,8 22,5 34,5"/><polygon fill="#0277bd" points="38,14 34,15 30,14 30,9 34,9"/><polygon fill="#01579b" points="34,8 32,10 38,14"/><polygon fill="#039be5" points="30,14 29,30 30,44 38,44 38,14"/><polygon fill="#81d4fa" points="24,13 18,14 18,44 30,44 30,14"/><polygon fill="#b3e5fc" points="22,8 18,14 30,14 34,8"/><path fill="#29b6f6" d="M35,30c-1-2-1-5-5-5l-1,10l1,9h8V32C38,32,36,32,35,30z"/><path fill="#b3e5fc" d="M30,25c0,0-4,0-6-2s-3-3-6-2v23h12V25z"/><path fill="#43a047" d="M17,40v4h2v-4H17z"/><path fill="#4caf50" d="M20,32.478c0,3.953-2,8.166-2,8.166s-2-4.005-2-8.166S18,24,18,24S20,28.525,20,32.478z M14.455,42.494C16.307,42.183,18,40.667,18,40.667s-2.01-0.714-3.915-0.403s-3.704,1.815-3.704,1.815S12.656,42.805,14.455,42.494 z"/><path fill="#43a047" d="M14.455,42.494C16.307,42.183,18,40.667,18,40.667l-7.619,1.412 C10.381,42.079,12.656,42.805,14.455,42.494z"/><path fill="#4caf50" d="M11.961,39.16C14.571,40.511,18,40.667,18,40.667s-1.996-2.65-4.709-4.104C10.579,35.109,7,35,7,35 S9.35,37.81,11.961,39.16z"/><path fill="#43a047" d="M11.961,39.16C14.571,40.511,18,40.667,18,40.667L7,35C7,35,9.35,37.81,11.961,39.16z"/><path fill="#4caf50" d="M12.705,35.27C14.64,38.339,18,40.667,18,40.667s-0.611-3.968-2.648-7.196S10,28,10,28 S10.821,32.201,12.705,35.27z"/><path fill="#43a047" d="M12.705,35.27C14.64,38.339,18,40.667,18,40.667L10,28C10,28,10.821,32.201,12.705,35.27z"/><path fill="#4caf50" d="M25.619,42.079c0,0-1.799-1.504-3.704-1.815C20.01,39.952,18,40.667,18,40.667 s1.693,1.516,3.545,1.827C23.344,42.805,25.619,42.079,25.619,42.079z"/><path fill="#43a047" d="M25.619,42.079L18,40.667c0,0,1.693,1.516,3.545,1.827C23.344,42.805,25.619,42.079,25.619,42.079z"/><path fill="#4caf50" d="M29,35c0,0-3.579,0.108-6.291,1.563C19.996,38.017,18,40.667,18,40.667s3.429-0.156,6.039-1.507 C26.65,37.81,29,35,29,35z"/><path fill="#43a047" d="M29,35l-11,5.667c0.011,0.08,3.432-0.132,6.039-1.507C26.65,37.81,29,35,29,35z"/><path fill="#4caf50" d="M26,28c0,0-3.316,2.243-5.352,5.471S18,40.667,18,40.667s3.36-2.328,5.295-5.397 C25.179,32.201,26,28,26,28z"/><path fill="#43a047" d="M26,28l-8,12.667c0,0,3.36-2.328,5.295-5.397C25.179,32.201,26,28,26,28z M18,24v16.643 c0,0,2-4.213,2-8.166S18,24,18,24z"/></svg>