<svg xmlns="http://www.w3.org/2000/svg" xmlns:xlink="http://www.w3.org/1999/xlink" viewBox="0 0 48 48"><path fill="#c2865d" d="M6.998,42.994c-0.768,0-1.536-0.293-2.121-0.879c-1.172-1.171-1.172-3.071,0-4.242l22.071-19.924 l2.073,2.048L9.119,42.115C8.534,42.701,7.766,42.994,6.998,42.994z"/><path fill="#ffc107" d="M42.559,12.439c0.262,0.261,0.411,0.598,0.439,0.94c0,0,0.004,0.16,0,0.213 c-0.215,2.604-2,5.738-2,10.408c0,6.247,1,8,1,11c0,1.657-1.343,3-3,3s-3-1.343-3-3c0-2.225,3-10,0-10c-2,0-1.153,3-1.153,5.5 c0,1.381-1.119,2.5-2.5,2.5c-1.381,0-2.5-1.119-2.5-2.5c0-1.5,0.637-2.175,0.637-4.23c0-1.18-0.353-1.737-0.484-2.318 L42.559,12.439"/><path fill="#ffecb3" d="M38.998,36.5c-0.827,0-1.5-0.673-1.5-1.5c0-0.276,0.224-0.5,0.5-0.5s0.5,0.224,0.5,0.5 c0,0.276,0.224,0.5,0.5,0.5c0.276,0,0.5,0.224,0.5,0.5S39.274,36.5,38.998,36.5z"/><path fill="#ffc107" d="M34.998,40.5c0,1.381-1.119,2.5-2.5,2.5c-1.381,0-2.5-1.119-2.5-2.5c0-2.298,2.5-4.5,2.5-4.5 S34.998,38.219,34.998,40.5z"/><path fill="#ffecb3" d="M32.498,42c-1.101,0-1.5-0.897-1.5-1.5c0-0.276,0.224-0.5,0.5-0.5s0.5,0.224,0.5,0.5 c0.006,0.225,0.097,0.5,0.5,0.5c0.276,0,0.5,0.224,0.5,0.5S32.774,42,32.498,42z"/><path fill="#ffecb3" d="M32.345,32c-1.101,0-1.5-0.897-1.5-1.5c0-0.276,0.224-0.5,0.5-0.5s0.5,0.224,0.5,0.5 c0.006,0.225,0.097,0.5,0.5,0.5c0.276,0,0.5,0.224,0.5,0.5S32.621,32,32.345,32z"/><path fill="#ff9800" d="M20.998,21l1.089-3.992c1.204-4.414,4.408-8.007,8.656-9.706L33.998,6l7,7l-1.302,3.255 c-1.699,4.248-5.292,7.452-9.706,8.656L25.998,26L20.998,21z"/><path fill="#ffc107" d="M26.498,28c-0.384,0-0.768-0.146-1.061-0.439l-6-6c-0.586-0.585-0.586-1.536,0-2.121 c0.586-0.586,1.535-0.586,2.121,0l6,6c0.586,0.585,0.586,1.536,0,2.121C27.266,27.854,26.882,28,26.498,28z"/><path fill="#ffc107" d="M32.498,27c-0.384,0-0.768-0.146-1.061-0.439l-11-11c-0.586-0.585-0.586-1.536,0-2.121 c0.586-0.586,1.535-0.586,2.121,0l11,11c0.586,0.585,0.586,1.536,0,2.121C33.266,26.854,32.882,27,32.498,27z"/><path fill="#ffc107" d="M41.498,15c-0.384,0-0.768-0.146-1.061-0.439l-8-8c-0.586-0.585-0.586-1.536,0-2.121 c0.586-0.586,1.535-0.586,2.121,0l8,8c0.586,0.585,0.586,1.536,0,2.121C42.266,14.854,41.882,15,41.498,15z"/><path fill="#ffc107" d="M39.498,20c-0.384,0-0.768-0.146-1.061-0.439l-11-11c-0.586-0.585-0.586-1.536,0-2.121 c0.586-0.586,1.535-0.586,2.121,0l11,11c0.586,0.585,0.586,1.536,0,2.121C40.266,19.854,39.882,20,39.498,20z"/><path fill="#ffc107" d="M36.498,24c-0.384,0-0.768-0.146-1.061-0.439l-12-12c-0.586-0.585-0.586-1.536,0-2.121 c0.586-0.586,1.535-0.586,2.121,0l12,12c0.586,0.585,0.586,1.536,0,2.121C37.266,23.854,36.882,24,36.498,24z"/></svg>