<svg xmlns="http://www.w3.org/2000/svg" xmlns:xlink="http://www.w3.org/1999/xlink" width="48" height="48" viewBox="0 0 48 48"><path fill="#FFD54F" d="M30,13H18c-6.627,0-12,5-12,12s10,17,10,17h16c0,0,10-10,10-17S36.627,13,30,13L30,13z"/><path fill="#FFD54F" d="M12 12.001H36V16.000999999999998H12z"/><path fill="#FF9800" d="M16.844,40h14.312C34.072,36.932,40,29.718,40,25c0-2.781-1.028-5.223-2.737-7H10.738C9.028,19.777,8,22.219,8,25C8,29.729,13.928,36.936,16.844,40z"/><path fill="#FFC107" d="M22.749 30L21 27 22.749 24 26.251 24 28 27 26.251 30zM29.749 34L28 31 29.749 28 33.251 28 35 31 33.251 34zM22.749 38L21 35 22.749 32 26.251 32 28 35 26.251 38zM15.749 34L14 31 15.749 28 19.251 28 21 31 19.251 34zM15.749 26L14 23 15.749 20 19.251 20 21 23 19.251 26z"/><path fill="#795548" d="M37,12V8c0-1.104-0.896-2-2-2H13c-1.104,0-2,0.896-2,2v4H37z"/><path fill="#5D4037" d="M11 11.001H37V13H11z"/></svg>