<?xml version="1.0" encoding="utf-8"?><!-- Generator: Adobe Illustrator 15.0.0, SVG Export Plug-In . SVG Version: 6.00 Build 0)  --><!DOCTYPE svg PUBLIC "-//W3C//DTD SVG 1.1//EN" "http://www.w3.org/Graphics/SVG/1.1/DTD/svg11.dtd"><svg xmlns="http://www.w3.org/2000/svg" xmlns:xlink="http://www.w3.org/1999/xlink" version="1.1" x="0px" y="0px" width="528" height="528" viewBox="0 0 48 48" enable-background="new 0 0 48 48" xml:space="preserve">
<g>
	<path fill="#BCAAA4" d="M26.804,14l-0.318-0.456c-0.117-0.189-1.15-1.898-1.15-3.528c0-0.979,0.376-1.585,0.65-2.026   c0.218-0.352,0.35-0.563,0.35-0.974c0-0.898-0.613-2.09-0.851-2.474l-0.283-0.458l1.696-1.053l0.287,0.456   c0.117,0.189,1.15,1.898,1.15,3.528c0,0.98-0.376,1.586-0.65,2.028c-0.218,0.351-0.35,0.563-0.35,0.972   c0,0.898,0.613,2.09,0.851,2.474l0.314,0.458L26.804,14z"/>
	<path fill="#BCAAA4" d="M21.819,14l-0.318-0.456c-0.117-0.189-1.15-1.898-1.15-3.528c0-0.979,0.376-1.585,0.65-2.026   c0.218-0.352,0.35-0.563,0.35-0.974c0-0.898-0.613-2.09-0.851-2.474l-0.283-0.458l1.696-1.053L22.2,3.487   c0.117,0.189,1.15,1.898,1.15,3.528c0,0.98-0.376,1.586-0.65,2.028c-0.218,0.351-0.35,0.563-0.35,0.972   c0,0.898,0.613,2.09,0.851,2.474l0.314,0.458L21.819,14z"/>
	<path fill="#BCAAA4" d="M16.835,14l-0.318-0.456c-0.117-0.189-1.15-1.898-1.15-3.528c0-0.979,0.376-1.585,0.65-2.026   c0.218-0.352,0.35-0.563,0.35-0.974c0-0.898-0.613-2.09-0.851-2.474l-0.283-0.458l1.696-1.053l0.287,0.456   c0.117,0.189,1.15,1.898,1.15,3.528c0,0.98-0.376,1.586-0.65,2.028c-0.218,0.351-0.35,0.563-0.35,0.972   c0,0.898,0.613,2.09,0.851,2.474l0.314,0.458L16.835,14z"/>
</g>
<g>
	<path fill="none" stroke="#1E88E5" stroke-width="2" d="M34,28.214c0-2-1.439-3.214-3.215-3.214h-3.571   C25.439,25,24,26.438,24,28.214L23,30c0,1.775,1.439,3.214,3.214,3.214h3.571C32,33.214,34,30.214,34,28.214z"/>
	<circle fill="#1E88E5" cx="22" cy="39" r="2"/>
	<path fill="#1E88E5" d="M28,44c-0.421-1.696-2.944-3-6-3s-5.579,1.304-6,3H28z"/>
</g>
<path fill="#754138" d="M13.583,17l1.528,13.1c0,3.811,3.089,6.9,6.9,6.9c3.813,0,6.902-3.09,6.902-6.9l1.51-13.1H13.583z"/>
<polygon fill="#90CAF9" points="30.424,17.001 31,12 13,12 13.583,17.001 "/>
</svg>