<svg xmlns="http://www.w3.org/2000/svg" xmlns:xlink="http://www.w3.org/1999/xlink" viewBox="0 0 48 48"><path fill="#ffc107" d="M26,37.9c-4.4,4.4-10.1,5.8-14.5,1.4l-2.9-2.8c-4.4-4.4-3-10,1.4-14.3L22,10.4 c4.4-4.4,9.6-6.2,14-1.9l3.3,3.3c4.4,4.4,3,10-1.4,14.3L26,37.9z"/><path fill="#689f38" d="M29.2 14.1c1.7-1.6 3.9-5.3 3.2-6.7-.7-1.3-1.5-2-2.7-.6-.6.7-.9 1.5-1.1 2.4-.2 1.3-.4 1.8-1.7 1.7-1.3-.1-2.3-.3-2.2 1.3.1 1.6.5 2.2-1 3.2-1.6 1.1-3.6 1.3-5.2 2.4-.8.6-1 .9-.9 1.8.1.8.8 2.1.3 2.8-.9 1.2-1.2-.7-1.7-1.3-1.2-1.4-1.5 1.2-1.5 2 0 .5.3 1.4-.3 1.8-.6.4-.6-.1-1.1-.4-.5-.3-1.4-.6-1.8-.1-.5.5.2 1.7.3 2.4.1.5.2 1.5-.2 1.9-.5.4-1.2 0-1.8-.2-1.3-.3-3.4.3-3.6 1.8-.2 1 .1 1.2 1 1.7 2.6 1.3 7.1-.4 8.5-1.8L29.2 14.1zM18.8 33.9c-1.7 1.6-3.9 5.3-3.2 6.7.7 1.3 1.5 2 2.7.6.6-.7.9-1.5 1.1-2.4.2-1.3.4-1.8 1.7-1.7 1.3.1 2.3.3 2.2-1.3-.1-1.6-.5-2.2 1-3.2 1.6-1.1 3.6-1.3 5.2-2.4.8-.6 1-.9.9-1.8-.1-.8-.8-2.1-.3-2.8.9-1.2 1.2.7 1.7 1.3 1.2 1.4 1.5-1.2 1.5-2 0-.5-.3-1.4.3-1.8.6-.4.6.1 1.1.4.5.3 1.4.6 1.8.1.5-.5-.2-1.7-.3-2.4-.1-.5-.2-1.5.2-1.9.5-.4 1.2 0 1.8.2 1.3.3 3.4-.3 3.6-1.8.2-1-.1-1.2-1-1.7-2.6-1.3-7.1.4-8.5 1.8L18.8 33.9z"/><path fill="#d32f2f" d="M10.3,42c-1.1,0-2.2-0.4-3-1.3c-1.7-1.7-1.7-4.4,0-6L34.7,7.3c1.7-1.7,4.4-1.7,6,0 c1.7,1.7,1.7,4.4,0,6L13.3,40.8C12.4,41.6,11.4,42,10.3,42z"/><path fill="#ffeb3b" d="M13,36c-0.1,0-0.2,0-0.2,0c-0.5-0.1-0.9-0.7-0.7-1.2c0.8-3.3,2.7-3.6,4.1-3.7 c1.3-0.2,2.3-0.3,2.9-3.3c0.8-4.2,3.5-4.9,5.4-5.3c1.8-0.4,2.8-0.7,3.1-3.1c0.4-4,3.1-4.6,5-5c1.9-0.5,2.7-0.7,2.7-2.6 c0-0.6,0.4-1,1-1s1,0.4,1,1c0,3.6-2.5,4.1-4.3,4.6c-1.9,0.4-3.2,0.8-3.5,3.3c-0.4,3.8-2.8,4.4-4.6,4.8c-1.8,0.4-3.3,0.8-3.9,3.8 c-0.8,4.1-2.7,4.7-4.6,4.9c-1.3,0.1-1.9,0.2-2.4,2.2C13.9,35.7,13.4,36,13,36z"/></svg>