<?xml version="1.0" encoding="utf-8"?><!-- Generator: Adobe Illustrator 15.0.0, SVG Export Plug-In . SVG Version: 6.00 Build 0)  --><!DOCTYPE svg PUBLIC "-//W3C//DTD SVG 1.1//EN" "http://www.w3.org/Graphics/SVG/1.1/DTD/svg11.dtd"><svg xmlns="http://www.w3.org/2000/svg" xmlns:xlink="http://www.w3.org/1999/xlink" version="1.1" x="0px" y="0px" width="528" height="528" viewBox="0 0 48 48" enable-background="new 0 0 48 48" xml:space="preserve">
<polygon fill="#FFC107" points="24,45 15,23 24,23 33,23 "/>
<path fill="#EA9024" d="M25.607,34.995l2.192-2.192l0.845,0.844l0.82-2.006l-0.251-0.252l0.6-0.6l1.958-4.785l-0.408,0.408  l-2.23-2.229L30.316,23h-5.194l1.183,1.183l-2.148,2.148l-2.237-2.237L23.013,23h-5.016l1.094,1.094l-2.192,2.192l-0.938-0.938  l1.958,4.786l1.217,1.217l-0.51,0.51l0.821,2.008l1.104-1.104l2.229,2.229l-2.038,2.038l2.918,7.133l0.502-0.502l0.273,0.273  l2.937-7.178L25.607,34.995z M27.719,25.597l2.23,2.229L27.8,29.975l-2.229-2.229L27.719,25.597z M18.313,27.7l2.192-2.192  l2.237,2.237l-2.192,2.192L18.313,27.7z M21.964,31.352l2.192-2.192l2.229,2.229l-2.192,2.192L21.964,31.352z M21.964,38.639  l2.229-2.229l2.197,2.198l-2.229,2.229L21.964,38.639z"/>
<path fill="#68352A" d="M30,26c-1.309,0-2.541-0.32-3.633-0.878c0.551-0.646,1.021-1.36,1.414-2.122h-3.556  c-0.075,0.094-0.146,0.189-0.225,0.279c-0.079-0.09-0.15-0.186-0.225-0.279h-3.556c0.392,0.762,0.863,1.476,1.414,2.122  C20.541,25.68,19.309,26,18,26c-0.644,0-1.266-0.084-1.866-0.228l1.309,3.199C17.629,28.981,17.812,29,18,29  c2.213,0,4.272-0.663,6-1.793C25.728,28.337,27.787,29,30,29c0.188,0,0.371-0.019,0.557-0.028l1.309-3.199  C31.266,25.916,30.644,26,30,26z"/>
<circle fill="#E91E63" cx="24" cy="10" r="8"/>
<circle fill="#FFE0B2" cx="30" cy="18" r="8"/>
<circle fill="#FF80AB" cx="18" cy="18" r="8"/>
</svg>