<?xml version="1.0" encoding="utf-8"?><!-- Generator: Adobe Illustrator 15.0.0, SVG Export Plug-In . SVG Version: 6.00 Build 0)  --><!DOCTYPE svg PUBLIC "-//W3C//DTD SVG 1.1//EN" "http://www.w3.org/Graphics/SVG/1.1/DTD/svg11.dtd"><svg xmlns="http://www.w3.org/2000/svg" xmlns:xlink="http://www.w3.org/1999/xlink" version="1.1" x="0px" y="0px" width="528" height="528" viewBox="0 0 48 48" enable-background="new 0 0 48 48" xml:space="preserve">
<g>
	<circle fill="#FFB300" cx="16" cy="19.999" r="8"/>
	<circle fill="#FFB300" cx="17" cy="33.999" r="8"/>
</g>
<path fill="#90CAF9" d="M38,25.872c0-6.167-3.777-4.743-3.777-18.025c0,0-7.557,0-9.445,0C24.778,21.129,21,19.705,21,25.872v14.706  C21,41.363,21.635,42,22.417,42h14.167C37.365,42,38,41.363,38,40.578V25.872z"/>
<path fill="#9C27B0" d="M35,7.501C35,8.329,34.384,9,33.625,9h-8.25C24.616,9,24,8.329,24,7.501v-1C24,5.673,24.616,5,25.375,5h8.25  C34.384,5,35,5.673,35,6.501V7.501z"/>
<path fill="#FAFAFA" d="M36.111,38.68c0,0.263-0.211,0.475-0.473,0.475H23.361c-0.261,0-0.473-0.212-0.473-0.475V25.872  c0-2.052,0.462-2.984,1.161-4.396c0.631-1.272,1.341-2.72,1.865-5.092h7.172c0.523,2.372,1.234,3.819,1.865,5.092  c0.698,1.411,1.16,2.344,1.16,4.396V38.68z"/>
<path fill="#E91E63" d="M8,26.001L10,42h28l2-15.999H8z M15,39h-2v-4h2V39z M15,33h-2v-4h2V33z M20,39h-2v-4h2V39z M20,33h-2v-4h2  V33z M25,39h-2v-4h2V39z M25,33h-2v-4h2V33z M30,39h-2v-4h2V39z M30,33h-2v-4h2V33z M35,39h-2v-4h2V39z M35,33h-2v-4h2V33z"/>
<path fill="#AD1457" d="M41.494,24c0-0.552-0.447-1-1-1H7.506c-0.552,0-1,0.448-1,1v2.001c0,0.552,0.448,1,1,1h32.988  c0.553,0,1-0.448,1-1V24z"/>
<path fill="#4CAF50" d="M16,15.53c0,0-1-6.529-9-5.529C9,17.001,16,15.53,16,15.53z"/>
</svg>