<svg xmlns="http://www.w3.org/2000/svg" xmlns:xlink="http://www.w3.org/1999/xlink" viewBox="0 0 48 48"><polygon fill="#81d4fa" points="38,6 32,7 26,6 26,3 38,3"/><polygon fill="#0277bd" points="42,12 38,13 34,12 34,7 38,7"/><polygon fill="#01579b" points="38,6 36,8 42,12"/><polygon fill="#039be5" points="34,12 33,28 34,42 42,42 42,12"/><polygon fill="#81d4fa" points="28,11 22,12 22,42 34,42 34,12"/><polygon fill="#b3e5fc" points="26,6 22,12 34,12 38,6"/><path fill="#29b6f6" d="M39,28c-1-2-1-5-5-5l-1,10l1,9h8V30C42,30,40,30,39,28z"/><path fill="#b3e5fc" d="M34,23c0,0-4,0-6-2s-3-3-6-2v23h12V23z"/><rect width="16" height="22" x="6" y="20" fill="#ffca28"/><rect width="11" height="22" x="6" y="20" fill="#ffd54f"/><path fill="#bdbdbd" d="M28.38,38.32c-0.04,4.28-3.53,7.72-7.81,7.68c-2.65-0.02-4.98-1.38-6.35-3.42c-0.35-0.52-0.64-1.08-0.85-1.68c-0.02-0.06-0.05-0.13-0.06-0.2c-0.27-0.78-0.41-1.63-0.41-2.51c0.04-4.28,3.58-11.23,7.84-11.19c0.22,0,0.44,0.02,0.66,0.06c0,0.01,0,0.01,0.01,0.01c0.73,0.12,1.44,0.45,2.09,0.93c1.05,0.75,1.98,1.88,2.73,3.16C27.58,33.44,28.4,36.21,28.38,38.32z"/><path fill="#e0e0e0" d="M27.38,36.32c-0.04,4.28-3.53,7.72-7.81,7.68c-2.6-0.02-4.89-1.33-6.26-3.3c-0.27-0.78-0.41-1.63-0.41-2.51c0.04-4.28,3.58-11.23,7.84-11.19c0.22,0,0.44,0.02,0.66,0.06c0,0.01,0,0.01,0.01,0.01c0.73,0.12,1.44,0.45,2.09,0.93c1.05,0.75,1.98,1.88,2.73,3.16C26.97,32.93,27.39,34.8,27.38,36.32z"/></svg>