<svg xmlns="http://www.w3.org/2000/svg" xmlns:xlink="http://www.w3.org/1999/xlink" viewBox="0 0 48 48"><path fill="#f57f17" d="M26,8h-2c0-4.1,4.3-6.9,4.5-7l1.1,1.7C29.5,2.7,26,5,26,8z"/><path fill="#7cb342" d="M40.938,27.11c-0.071-0.786,0.953-1.711,0.827-2.487c-0.127-0.78-1.393-1.333-1.573-2.097c-0.182-0.771,0.702-1.832,0.468-2.58c-0.237-0.758-1.569-1.122-1.858-1.849c-0.294-0.74,0.42-1.922,0.075-2.622c-0.353-0.715-1.725-0.862-2.129-1.528c-0.415-0.683,0.082-1.972-0.384-2.593c-0.48-0.64-1.854-0.517-2.385-1.082c-0.548-0.583-0.35-1.95-0.95-2.442c-0.617-0.507-1.911-0.038-2.579-0.437c-0.681-0.407-0.893-1.771-1.624-2.054c-0.733-0.284-1.799,0.583-2.578,0.437c-0.763-0.144-1.441-1.342-2.244-1.342c-0.804,0-1.475,1.199-2.226,1.343C21,5.925,19.932,5.065,19.212,5.355C18.49,5.646,18.31,7.01,17.644,7.43c-0.652,0.412-1.953-0.024-2.55,0.499c-0.578,0.506-0.33,1.861-0.857,2.459c-0.506,0.575-1.878,0.489-2.337,1.14c-0.442,0.627,0.091,1.898-0.307,2.586c-0.386,0.666-1.752,0.828-2.097,1.542c-0.335,0.695,0.386,1.869,0.09,2.602c-0.29,0.718-1.624,1.058-1.877,1.806c-0.249,0.735,0.603,1.818,0.391,2.575c-0.211,0.75-1.502,1.229-1.678,1.994C6.247,25.395,7.2,26.39,7.06,27.16c-0.136,0.749-1.34,1.357-1.367,2.07c-0.029,0.757,1.131,1.446,1.217,2.159c0.089,0.745-0.869,1.692-0.666,2.387c0.209,0.714,1.529,0.995,1.847,1.652c0.321,0.665-0.28,1.87,0.14,2.473c0.42,0.602,1.764,0.458,2.271,0.995c0.503,0.532,0.277,1.862,0.853,2.326c0.569,0.459,1.825-0.04,2.455,0.349c0.622,0.385,0.733,1.73,1.403,2.043c0.664,0.31,1.77-0.466,2.469-0.229c0.695,0.236,1.1,1.524,1.819,1.684c0.718,0.16,1.631-0.836,2.362-0.755c0.732,0.081,1.405,1.253,2.14,1.253c0.732,0,1.398-1.171,2.117-1.25c0.727-0.08,1.633,0.916,2.339,0.757c0.714-0.161,1.104-1.449,1.787-1.688c0.691-0.241,1.799,0.525,2.45,0.208c0.657-0.32,0.735-1.663,1.343-2.058c0.612-0.398,1.873,0.075,2.426-0.395c0.555-0.472,0.288-1.79,0.773-2.332c0.484-0.541,1.825-0.422,2.231-1.03c0.401-0.601-0.221-1.792,0.095-2.455c0.309-0.649,1.628-0.915,1.847-1.62c0.211-0.682-0.723-1.649-0.604-2.382c0.114-0.702,1.31-1.319,1.331-2.065C42.159,28.549,41.006,27.856,40.938,27.11z"/><path fill="#ffd54f" d="M38.935,26.912C38.061,17.204,32.248,8,24.075,8c-5.108,0-9.276,2.779-10.927,8.224c-1.371,4.519-3.277,7.048-3.933,10.689c-1.671,9.279,6.687,15.382,14.86,15.382S39.781,36.305,38.935,26.912z"/><path fill="#f57c00" d="M35.782,26.52c-0.694-8.362-5.312-16.29-11.805-16.29c-4.114,0-7.708,2.535-8.701,7.535c-0.554,2.789-2.595,5.69-3.104,8.754c-1.327,7.992,5.312,13.249,11.805,13.249S36.453,34.61,35.782,26.52z"/><path fill="#ffd54f" d="M32.708,32.889c0.461-0.785,0.046-1.795-0.844-1.984c-2.133-0.454-5.235-0.935-6.94-0.366c-2.769,0.923-2.769,2.769-2.769,4.615c0,1.425,0.751,2.246,1.653,2.566c0.154,0.022,0.307,0.044,0.461,0.067C27.695,37.714,30.923,35.926,32.708,32.889z"/><path fill="#ffd54f" d="M27.682,22.45c-1.002,0.905-0.411,4.971,2.265,6.232c0.817,0.385,1.826,0.507,2.836,0.493c0.682-0.01,1.256-0.491,1.318-1.131c0.061-0.63,0.068-1.287,0.009-1.973c-0.087-0.998-0.246-1.987-0.47-2.95c-0.123-0.528-0.615-0.907-1.187-0.95C30.211,22,28.129,22.045,27.682,22.45z"/><path fill="#ffd54f" d="M20.308,31.462c0-0.923-3.692-1.846-4.615-1.846c-0.007,0-0.013,0-0.02,0c-0.936,0-1.55,0.948-1.217,1.822c0.661,1.732,1.818,3.161,3.245,4.223c0.667,0.497,1.631,0.26,1.987-0.492C20.287,33.902,20.308,32.094,20.308,31.462z"/><path fill="#ffd54f" d="M23.258,19.125c0.919-0.215,1.887-2.912,2.329-5.339c0.143-0.786-0.431-1.524-1.229-1.567c-0.102-0.005-0.204-0.008-0.307-0.008c-2.896,0-5.37,1.151-6.546,4.668c-0.325,0.687-0.428,1.467,0.41,1.909C19.493,19.568,22.154,19.383,23.258,19.125z"/><path fill="#ffd54f" d="M31.868,18.161c-0.59-1.152-1.281-2.187-2.061-3.058c-0.63-0.704-1.787-0.537-2.18,0.322c-0.661,1.446-1.201,3.063-1.363,4.049c-0.223,1.354,2.568,1.007,4.683,0.558C31.79,19.854,32.261,18.928,31.868,18.161z"/><path fill="#ffd54f" d="M15.042,27.121c2.423,1.105,7.647,2.477,9.881,1.081c1.169-0.731,0.923-5.93-1.846-6.923c-1.652-0.593-3.864-0.491-5.587-0.277c-0.967,0.12-1.805,0.695-2.174,1.541c-0.404,0.927-1.038,1.925-1.22,2.867C14.075,26.19,14.31,26.738,15.042,27.121z"/></svg>