<svg xmlns="http://www.w3.org/2000/svg" xmlns:xlink="http://www.w3.org/1999/xlink" viewBox="0 0 48 48"><path fill="#ec407a" d="M34,43H14c-2.2,0-4-1.8-4-4V15h28v24C38,41.2,36.2,43,34,43z"/><path fill="#c2185b" d="M33.5,43h-19C12,43,10,41,10,38.5l0,0c0-2.5,0-3.5,0-3.5h28c0,0,0,1,0,3.5l0,0C38,41,36,43,33.5,43z"/><path fill="#c2185b" d="M13 30A3 3 0 1 0 13 36A3 3 0 1 0 13 30Z"/><path fill="#c2185b" d="M17 33A3 3 0 1 0 17 39A3 3 0 1 0 17 33Z"/><path fill="#c2185b" d="M22.5 31A3.5 3.5 0 1 0 22.5 38A3.5 3.5 0 1 0 22.5 31Z"/><path fill="#c2185b" d="M26 34A2 2 0 1 0 26 38 2 2 0 1 0 26 34zM32 22A2 2 0 1 0 32 26 2 2 0 1 0 32 22zM21.5 24A1.5 1.5 0 1 0 21.5 27 1.5 1.5 0 1 0 21.5 24zM27.5 26A1.5 1.5 0 1 0 27.5 29 1.5 1.5 0 1 0 27.5 26z"/><path fill="#c2185b" d="M29.5 33A2.5 2.5 0 1 0 29.5 38A2.5 2.5 0 1 0 29.5 33Z"/><path fill="#c2185b" d="M34 31A4 4 0 1 0 34 39A4 4 0 1 0 34 31Z"/><path fill="#d81b60" d="M37,19C37,19,37,19,37,19c-3.2,0-6-1.3-6-3c0,2.2-3,4-7,4c-4,0-7-1.8-7-4c0,1.7-2.8,3-6,3 c0,0,0,0,0,0v2c0,0,0,0,0,0c2,0,4.1-0.5,5.6-1.4c1.6,1.5,4.2,2.4,7.3,2.4s5.7-0.9,7.3-2.4c1.5,0.9,3.6,1.4,5.6,1.4c0,0,0,0,0,0V19z"/><path fill="#90caf9" d="M34,44H14c-2.8,0-5-2.2-5-5V14h30v25C39,41.8,36.8,44,34,44z M11,16v23c0,1.7,1.3,3,3,3h20 c1.7,0,3-1.3,3-3V16H11z"/><path fill="#ffe0b2" d="M17,16c0,2.2,3,4,7,4s7-1.8,7-4c0,1.7,2.8,3,6,3c1.6,0,3-0.3,4-0.9c1.2-0.7,1.3-2.4,0.2-3.2L37,11H11 l-4.2,3.9c-1.1,0.9-1,2.6,0.2,3.2c1,0.5,2.5,0.9,4,0.9C14.2,19,17,17.7,17,16z"/><path fill="#64b5f6" d="M37 19v2c.7 0 1.4-.1 2-.2v-2C38.4 18.9 37.7 19 37 19zM11 19c-.7 0-1.4-.1-2-.2v2c.6.1 1.3.2 2 .2V19z"/><path fill="#8d6e63" d="M37,11H11c-0.6,0-1-0.4-1-1s0.4-1,1-1h26c0.6,0,1,0.4,1,1S37.6,11,37,11z"/><path fill="#a1887f" d="M37,17c-0.4,0-0.7-0.2-0.9-0.6l-3-6c-0.2-0.5,0-1.1,0.4-1.3c0.5-0.2,1.1,0,1.3,0.4l3,6 c0.2,0.5,0,1.1-0.4,1.3C37.3,17,37.2,17,37,17z"/><path fill="#a1887f" d="M33,15c-0.1,0-0.2,0-0.2,0c-0.5-0.1-0.9-0.7-0.7-1.2l1-4c0.1-0.5,0.7-0.9,1.2-0.7 c0.5,0.1,0.9,0.7,0.7,1.2l-1,4C33.9,14.7,33.4,15,33,15z"/><path fill="#ffd180" d="M37,9H11c-0.6,0-1-0.4-1-1V5c0-0.6,0.4-1,1-1h26c0.6,0,1,0.4,1,1v3C38,8.6,37.6,9,37,9z"/></svg>