<svg xmlns="http://www.w3.org/2000/svg" xmlns:xlink="http://www.w3.org/1999/xlink" viewBox="0 0 48 48"><path fill="#d84315" d="M5,37.335C5,41.87,8.045,45,13.144,45c3.886,0,7.725-0.081,11.93-4.971c7.991-9.293,5.141-18.691,13.285-27.664c0.42-0.463,0.978-1.014,1.537-1.551c-0.862-0.752-1.954-1.844-2.637-4.212c-1.36,1.415-3.454,4.156-7.548,8.564c-4.817,5.188-13.856,6.676-18.725,10.707C6.349,29.71,5,33.556,5,37.335z"/><path fill="#795548" d="M39.865,10.837c0.922-0.887,1.854-1.738,2.174-2.1c0.771-0.87,0.937-2.279,0.937-2.279l-1.1,0.36c0,0,1.099-1.067,1.099-2.182C42.976,3.765,42.83,3,42.83,3s-3.079,1.009-5.572,3.602C37.033,7.528,37.724,9.339,39.865,10.837z"/><path fill="#ffab91" d="M5,37.335c0,0.823,0.103,1.598,0.298,2.318c2.647,2.969,8.288-0.3,11.904-4.047c4.299-4.456,5.126-10.152,2.689-12.637c-0.459-0.468-1.593-0.684-2.844-0.559c-2.28,1.025-4.412,2.097-6.062,3.462C6.349,29.71,5,33.556,5,37.335z"/><path fill="#f44336" d="M11.804 27.307c2.697-2.908 6.099-3.806 7.203-2.212.431.622.73 1.9.268 3.701-.29 1.131-1.13 2.175-2.151 2.452-.387.105-.889-.077-3.534-1.415C11.772 28.912 11.062 28.106 11.804 27.307zM8.731 31.338c1.266-.985 3.783.259 4.409.517 1.863.768 3.68 1.145 2.345 2.767-1.969 2.391-6.679 4.838-7.907 4.461S6.926 32.742 8.731 31.338z"/></svg>