<svg xmlns="http://www.w3.org/2000/svg" xmlns:xlink="http://www.w3.org/1999/xlink" viewBox="0 0 48 48"><path fill="#546e7a" d="M41,13H7c-0.553,0-1,0.448-1,1v20.015c0,4.561,7.738,8,18,8s18-3.439,18-8V14 C42,13.448,41.553,13,41,13z"/><path fill="#eceff1" d="M24 7A17 7 0 1 0 24 21A17 7 0 1 0 24 7Z"/><path fill="#546e7a" d="M24,22c-10.262,0-18-3.439-18-8s7.738-8,18-8s18,3.439,18,8S34.262,22,24,22z M24,8 c-9.429,0-16,3.162-16,6s6.571,6,16,6s16-3.162,16-6S33.429,8,24,8z"/><path fill="none" stroke="#000" stroke-linecap="round" stroke-linejoin="round" stroke-width="2" d="M27,33.222c0,0-1.095,1.556-3,1.556s-3-1.556-3-1.556"/><path d="M17 25A2 2 0 1 0 17 29 2 2 0 1 0 17 25zM31 25A2 2 0 1 0 31 29 2 2 0 1 0 31 25z"/><path fill="#fff" d="M17 25A1 1 0 1 0 17 27 1 1 0 1 0 17 25zM31 25A1 1 0 1 0 31 27 1 1 0 1 0 31 25z"/><path fill="#ff9592" d="M7.086 36.832C8.764 36.356 10 34.83 10 33c0-2.209-1.791-4-4-4v5.015C6 35.018 6.393 35.962 7.086 36.832zM40.914 36.832C39.236 36.356 38 34.83 38 33c0-2.209 1.791-4 4-4v5.015C42 35.018 41.607 35.962 40.914 36.832z"/><path fill="#f48fb1" d="M24 11.042A9 2.958 0 1 0 24 16.958A9 2.958 0 1 0 24 11.042Z"/></svg>