<svg xmlns="http://www.w3.org/2000/svg" xmlns:xlink="http://www.w3.org/1999/xlink" viewBox="0 0 48 48"><path fill="#ffc107" d="M21.907 4H25.875V28.824H21.907z"/><path fill="#ffc107" d="M17.475 5.106H21.443V29.93H17.475z" transform="rotate(-4.211 19.457 17.52)"/><path fill="#ffc107" d="M13.287 8.132H17.256V32.956H13.287z" transform="rotate(-9.032 15.274 20.542)"/><path fill="#ffc107" d="M16.348 16.529H41.172V20.496H16.348z" transform="rotate(-85.796 28.76 18.513)"/><path fill="#ffc107" d="M20.47 17.249H45.294V21.217H20.47z" transform="rotate(-80.961 32.882 19.233)"/><path fill="#ffc107" d="M8.872 9.802H12.84V34.623000000000005H8.872z" transform="rotate(-13.657 10.856 22.213)"/><path fill="#ffc107" d="M25.228 21.535H50.051V25.504H25.228z" transform="rotate(-79.997 37.64 23.52)"/><path fill="#ffee58" d="M19.022 9.999H23.017999999999997V34.997H19.022z" transform="rotate(-4.44 21.011 22.507)"/><path fill="#ffee58" d="M13.582 21.398H38.582V25.393H13.582z" transform="rotate(-85.147 26.081 23.395)"/><path fill="#ffee58" d="M31.556 38.186L27.695 37.152 34.142 13 38.003 14.033z"/><path fill="#ffee58" d="M13.868 14.094H17.864V39.092H13.868z" transform="rotate(-14.984 15.868 26.592)"/><path fill="#f44336" d="M32.819,18c-0.834,3.423-4.465,6-8.819,6s-7.985-2.577-8.819-6H7.035l4.995,26c0,0,6.993-1,11.988-1 s11.987,1,11.987,1l4.996-26H32.819z"/><path fill="none" stroke="#000" stroke-linecap="round" stroke-linejoin="round" stroke-width="2" d="M27,35.222c0,0-1.095,1.556-3,1.556s-3-1.556-3-1.556"/><path d="M17 27A2 2 0 1 0 17 31 2 2 0 1 0 17 27zM31 27A2 2 0 1 0 31 31 2 2 0 1 0 31 27z"/><path fill="#fff" d="M17 27A1 1 0 1 0 17 29 1 1 0 1 0 17 27zM31 27A1 1 0 1 0 31 29 1 1 0 1 0 31 27z"/><g><path fill="#ff9592" d="M11.059 38.944C12.724 38.675 14 37.242 14 35.5c0-1.933-1.567-3.5-3.5-3.5-.261 0-.514.033-.759.088L11.059 38.944zM36.976 38.947l1.316-6.849C38.037 32.039 37.773 32 37.5 32c-1.933 0-3.5 1.567-3.5 3.5C34 37.253 35.294 38.693 36.976 38.947z"/></g></svg>