<svg xmlns="http://www.w3.org/2000/svg" xmlns:xlink="http://www.w3.org/1999/xlink" viewBox="0 0 48 48"><path fill="#5d4037" d="M2,25.063v5.752c0,1.952,1.604,3.556,3.587,3.575c1.197,0,2.205-0.415,3.271-0.854 c1.385-0.57,2.953-1.216,5.5-1.216c0.007,0,0.014,0,0.021,0c4.347,0.006,7.377,1.998,10.308,3.925 c2.833,1.862,5.762,3.788,9.716,3.788c4.663,0,8.051-1.882,10.068-5.593c1.001-1.842,1.53-4.063,1.53-6.424v-7.864L2,25.063z"/><path fill="#ef9a9a" d="M33.844,33.492c-3.173,0-5.537-1.624-8.274-3.504c-3.08-2.116-6.571-4.514-11.666-4.514 c-1.374,0-2.909,0.564-4.395,1.109c-1.251,0.459-2.544,0.934-3.403,0.934c-0.763,0-1.054-0.277-1.206-0.486 c-0.542-0.742-0.535-2.34,0.018-4.071C6.032,19.465,16.455,8.467,28.449,8.467c3.437,0,7.187,1.14,10.03,3.049 c2.29,1.537,5.02,4.277,5.019,8.604c0.062,3.763-1.718,8.227-4.327,10.878C37.544,32.653,35.751,33.492,33.844,33.492z"/><path fill="#ffcdd2" d="M28.449,9.967c3.103,0,6.627,1.071,9.195,2.794c2.89,1.94,4.355,4.415,4.355,7.408 c0.054,3.315-1.584,7.426-3.896,9.777c-1.335,1.357-2.768,2.045-4.258,2.045c-2.707,0-4.789-1.43-7.425-3.241 c-3.26-2.239-6.955-4.777-12.515-4.777c-1.641,0-3.304,0.611-4.912,1.201c-0.572,0.21-1.418,0.449-2.053,0.619 c-0.498,0.133-0.964-0.269-0.923-0.783c0.035-0.432,0.131-0.97,0.331-1.595C7.265,20.536,17.122,9.967,28.449,9.967 M28.449,6.967 C15.963,6.967,4.862,18.2,3.488,22.503c-1.029,3.225-0.555,6.514,2.617,6.514c2.246,0,5.577-2.043,7.798-2.043 c8.9,0,12.36,8.018,19.94,8.018c6.82,0,11.254-8.792,11.154-14.871C45,11.391,35.359,6.967,28.449,6.967L28.449,6.967z"/><path fill="#5d4037" d="M39.873,9.44c-3.24-2.174-7.511-3.473-11.424-3.473c-12.688,0-24.376,11.414-25.914,16.231 c-0.823,2.581-0.697,4.879,0.346,6.307c0.504,0.689,1.472,1.511,3.225,1.511c1.304,0,2.81-0.553,4.265-1.087 c1.28-0.47,2.604-0.956,3.533-0.956c4.318,0,7.334,2.071,10.251,4.075c2.822,1.938,5.741,3.943,9.689,3.943 c2.566,0,5.024-1.12,7.109-3.24c3.09-3.141,5.117-8.223,5.045-12.631C45.999,14.692,42.668,11.316,39.873,9.44z M39.527,31.349 c-1.186,1.206-3.134,2.643-5.684,2.643c-3.327,0-5.868-1.745-8.558-3.592c-3.021-2.074-6.443-4.426-11.383-4.426 c-1.285,0-2.778,0.548-4.223,1.079c-1.291,0.475-2.627,0.965-3.575,0.965c-0.743,0-1.271-0.226-1.609-0.691 c-0.643-0.88-0.664-2.611-0.055-4.519c1.141-3.578,11.782-14.84,24.008-14.84c3.532,0,7.386,1.171,10.31,3.133 c2.391,1.605,5.24,4.472,5.239,9.037C44.062,23.999,42.224,28.609,39.527,31.349z"/><path d="M28 24.778c-2.396 0-3.761-1.899-3.818-1.98-.318-.452-.209-1.076.242-1.394.451-.318 1.076-.208 1.394.242.029.04.84 1.131 2.182 1.131s2.153-1.091 2.187-1.138c.323-.444.946-.547 1.393-.228.446.32.554.936.238 1.385C31.761 22.879 30.396 24.778 28 24.778zM21 14A2 2 0 1 0 21 18 2 2 0 1 0 21 14zM35 14A2 2 0 1 0 35 18 2 2 0 1 0 35 14z"/><path fill="#fff" d="M21 14A1 1 0 1 0 21 16 1 1 0 1 0 21 14zM35 14A1 1 0 1 0 35 16 1 1 0 1 0 35 14z"/><path fill="#e57373" d="M36.5 20A1.5 1.5 0 1 0 36.5 23 1.5 1.5 0 1 0 36.5 20zM19.5 20A1.5 1.5 0 1 0 19.5 23 1.5 1.5 0 1 0 19.5 20z"/></svg>