<svg xmlns="http://www.w3.org/2000/svg" xmlns:xlink="http://www.w3.org/1999/xlink" viewBox="0 0 48 48"><path fill="#ffc107" d="M6,13.5C6,8,11.964,7,21.583,7S38,8,38,13.5c0,1.866-0.901,3.191-2.049,4.137 C35.323,18.155,35,19.005,35,19.864V39c0,1.657-1.231,3-2.75,3h-20.5C10.231,42,9,40.657,9,39V19.864 c0-0.859-0.323-1.709-0.951-2.228C6.901,16.691,6,15.366,6,13.5z"/><path fill="#ffc107" d="M32.25,43h-20.5C9.682,43,8,41.206,8,39V19.864c0-0.608-0.22-1.152-0.588-1.457 C5.812,17.089,5,15.438,5,13.5C5,6.579,13.192,6,21.583,6C30.01,6,39,6.58,39,13.5c0,1.938-0.812,3.589-2.413,4.909 C36.225,18.708,36,19.265,36,19.864V39C36,41.206,34.318,43,32.25,43z M21.583,8C10.816,8,7,9.439,7,13.5 c0,1.331,0.551,2.431,1.685,3.364c0.824,0.681,1.315,1.802,1.315,3V39c0,1.103,0.785,2,1.75,2h20.5c0.965,0,1.75-0.897,1.75-2 V19.864c0-1.199,0.492-2.319,1.315-2.998C36.449,15.931,37,14.83,37,13.5C37,9.542,32.677,8,21.583,8z"/><path fill="#ffee58" d="M10,13.5C10,8,15.964,7,25.583,7S42,8,42,13.5c0,1.866-0.901,3.191-2.049,4.137 C39.323,18.155,39,19.005,39,19.864V39c0,1.657-1.231,3-2.75,3h-20.5C14.231,42,13,40.657,13,39V19.864 c0-0.859-0.323-1.709-0.951-2.228C10.901,16.691,10,15.366,10,13.5z"/><path fill="#ffc107" d="M36.25,43h-20.5C13.682,43,12,41.206,12,39V19.864c0-0.608-0.22-1.152-0.588-1.457 C9.812,17.089,9,15.438,9,13.5C9,6.579,17.192,6,25.583,6C34.01,6,43,6.58,43,13.5c0,1.938-0.812,3.589-2.413,4.909 C40.225,18.708,40,19.265,40,19.864V39C40,41.206,38.318,43,36.25,43z M25.583,8C14.816,8,11,9.439,11,13.5 c0,1.331,0.551,2.431,1.685,3.364c0.824,0.681,1.315,1.802,1.315,3V39c0,1.103,0.785,2,1.75,2h20.5c0.965,0,1.75-0.897,1.75-2 V19.864c0-1.199,0.492-2.319,1.315-2.998C40.449,15.931,41,14.83,41,13.5C41,9.542,36.677,8,25.583,8z"/><path fill="none" stroke="#000" stroke-linecap="round" stroke-linejoin="round" stroke-width="2" d="M29,30.222c0,0-1.095,1.556-3,1.556s-3-1.556-3-1.556"/><path d="M19 22A2 2 0 1 0 19 26 2 2 0 1 0 19 22zM33 22A2 2 0 1 0 33 26 2 2 0 1 0 33 22z"/><path fill="#fff" d="M19 22A1 1 0 1 0 19 24 1 1 0 1 0 19 22zM33 22A1 1 0 1 0 33 24 1 1 0 1 0 33 22z"/><path fill="#ff9592" d="M38 27.05C37.835 27.027 37.671 27 37.5 27c-1.933 0-3.5 1.567-3.5 3.5s1.567 3.5 3.5 3.5c.171 0 .335-.027.5-.05V27.05zM14.5 27c-.171 0-.335.027-.5.05v6.899c.165.024.329.05.5.05 1.933 0 3.5-1.567 3.5-3.5S16.433 27 14.5 27z"/></svg>