<svg xmlns="http://www.w3.org/2000/svg" xmlns:xlink="http://www.w3.org/1999/xlink" viewBox="0 0 48 48"><path fill="#8bc34a" d="M24.046,12.364c8.721,0,16.115,5.525,18.821,13.208c0.349-1.489,2.207-2.747,2.131-4.48 c-0.088-2.006-3.731-3.231-5.163-4.642c-1.432-1.411-1.927-4.08-3.691-5.085c-1.74-0.992-4.329-0.089-6.316-0.612 C27.907,10.246,26.129,8,24.046,8c-2.083,0-3.861,2.246-5.781,2.751c-1.987,0.523-4.576-0.379-6.315,0.612 c-1.765,1.006-2.259,3.674-3.691,5.085c-1.432,1.411-5.167,2.636-5.255,4.642c-0.068,1.553,1.468,3.322,2.056,4.93 C7.627,18.101,15.153,12.364,24.046,12.364z"/><path fill="#795548" d="M5 29h6.578C11.846 28.387 12 27.712 12 27c0-2.761-2.239-5-5-5s-5 2.239-5 5c0 2.049 1.236 3.806 3 4.578V29zM42 29h-6.578C35.154 28.387 35 27.712 35 27c0-2.761 2.239-5 5-5s5 2.239 5 5c0 2.049-1.236 3.806-3 4.578V29z"/><path fill="#f44336" d="M19 9A5 5 0 1 0 19 19A5 5 0 1 0 19 9Z"/><path fill="#f44336" d="M11 14A5 5 0 1 0 11 24 5 5 0 1 0 11 14zM29 9A5 5 0 1 0 29 19 5 5 0 1 0 29 9z"/><path fill="#f44336" d="M37 14A5 5 0 1 0 37 24A5 5 0 1 0 37 14Z"/><path fill="#ffc107" d="M44,32c0-11.046-8.954-20-20-20S4,20.954,4,32H44z"/><path fill="#212121" d="M18 17A2 2 0 1 0 18 21A2 2 0 1 0 18 17Z"/><path fill="#fff" d="M18 17A1 1 0 1 0 18 19A1 1 0 1 0 18 17Z"/><path fill="#212121" d="M30 17A2 2 0 1 0 30 21A2 2 0 1 0 30 17Z"/><path fill="#fff" d="M30 17A1 1 0 1 0 30 19A1 1 0 1 0 30 17Z"/><path fill="none" stroke="#212121" stroke-linecap="round" stroke-width="2" d="M27,23 c-0.412,1.165-1.694,2-3,2c-1.306,0-2.588-0.835-3-2"/><path fill="#f57c00" d="M12 23A1 1 0 1 0 12 25 1 1 0 1 0 12 23zM16 23A1 1 0 1 0 16 25 1 1 0 1 0 16 23zM14 26A1 1 0 1 0 14 28 1 1 0 1 0 14 26zM32 23A1 1 0 1 0 32 25 1 1 0 1 0 32 23zM36 23A1 1 0 1 0 36 25 1 1 0 1 0 36 23zM34 26A1 1 0 1 0 34 28 1 1 0 1 0 34 26z"/></svg>