<svg xmlns="http://www.w3.org/2000/svg" xmlns:xlink="http://www.w3.org/1999/xlink" viewBox="0 0 48 48"><path fill="#f8bbd0" d="M31.948,17.378l-15.75,2.574C13.995,20.313,12,18.575,12,16.296v-0.019 c0-1.819,1.294-3.369,3.052-3.656l15.75-2.574C33.005,9.687,33,11.722,33,14l2-0.278C35,15.541,33.706,17.091,31.948,17.378z"/><path fill="#f8bbd0" d="M21.35 2c0 0 9.525 1 9.525 9l-11.641 3c0 0-4.233 0-4.233-3C15 7 21.35 7 21.35 2zM33.766 16.125c-.229-.47-.493-1.085-.643-1.06l-19.819 3.263C10.827 18.736 9 20.985 9 23.627v.008C9 26.928 12.123 29 15 29h4 3 10.5c3.59 0 6.5-2.91 6.5-6.5C39 19.344 36.75 16.715 33.766 16.125z"/><path fill="#f48fb1" d="M30.875,10c0.687-2.596-1.597-4.27-3.201-5.498C30.875,10,28,12,21,14C21,14,29.816,14,30.875,10z"/><path fill="#f48fb1" d="M30.802,10.047L30,11c4,3,1,8-9,9c0,0,14,1,14-6C35,12,33.005,9.687,30.802,10.047z"/><path d="M17 21A2 2 0 1 0 17 25 2 2 0 1 0 17 21zM31 21A2 2 0 1 0 31 25 2 2 0 1 0 31 21z"/><path fill="#fff" d="M17 21A1 1 0 1 0 17 23 1 1 0 1 0 17 21zM31 21A1 1 0 1 0 31 23 1 1 0 1 0 31 21z"/><path fill="none" stroke="#000" stroke-linecap="round" stroke-width="2" d="M26,25 c-0.305,0.636-1.139,1-2,1c-0.861,0-1.695-0.364-2-1"/><path fill="#f48fb1" d="M32.5,16c-0.698,0,0.13-0.204-0.5,0c0.17,0.055-0.163-0.068,0,0c2.348,0.98,4,3.297,4,6 c0,7.5-15,7-15,7s10.802,0,11.5,0c3.59,0,6.5-2.91,6.5-6.5S36.09,16,32.5,16z"/><path fill="#ff8a65" d="M23.118,46.39L16,31h16l-7.118,15.39C24.506,47.203,23.494,47.203,23.118,46.39z"/><path fill="#f0744d" d="M33 31H15c-.552 0-1-.448-1-1v0c0-.552.448-1 1-1h18c.552 0 1 .448 1 1v0C34 30.552 33.552 31 33 31zM17.766 34.819L18.661 36.753 24 31.414 29.339 36.753 30.234 34.819 26.414 31 21.586 31z"/><path fill="#f0744d" d="M26.128 43.697L27.01 41.788 16.457 31.989 18.669 36.772z"/><path fill="#f0744d" d="M21.872 43.697L29.331 36.772 31.543 31.989 20.99 41.788z"/></svg>