<svg xmlns="http://www.w3.org/2000/svg" xmlns:xlink="http://www.w3.org/1999/xlink" viewBox="0 0 48 48"><path fill="#ffd54f" d="M39.833,14.369L26.251,42.603c-0.896,1.862-3.565,1.862-4.461,0L8.167,14.286 C18.937,8.332,29.501,8.105,39.833,14.369z"/><path fill="#ff9800" d="M39.797,14.433c-0.452,0-0.911-0.093-1.347-0.289c-4.298-1.932-9.287-2.702-14.51-2.702 c-5.142,0-10.154,0.741-14.411,2.619c-1.612,0.71-3.507,0.022-4.24-1.532c-0.733-1.555-0.024-3.391,1.584-4.101 C11.958,6.186,17.845,5,23.896,5c6.149,0,12.114,1.22,17.251,3.531c1.603,0.72,2.299,2.561,1.553,4.112 C42.159,13.77,41.004,14.433,39.797,14.433z"/><path fill="none" stroke="#000" stroke-linecap="round" stroke-linejoin="round" stroke-width="2" d="M27,23.2c0,0-1.1,1.6-3,1.6s-3-1.6-3-1.6"/><path d="M17 16A2 2 0 1 0 17 20 2 2 0 1 0 17 16zM31 16A2 2 0 1 0 31 20 2 2 0 1 0 31 16z"/><path fill="#fff" d="M17 16A1 1 0 1 0 17 18 1 1 0 1 0 17 16zM31 16A1 1 0 1 0 31 18 1 1 0 1 0 31 16z"/><path fill="#ff9592" d="M31.495 31.702l3.452-7.176C34.369 24.201 33.711 24 33 24c-2.209 0-4 1.791-4 4C29 29.676 30.033 31.107 31.495 31.702zM16 24c-1.027 0-1.954.398-2.662 1.035l3.319 6.899C18.552 31.619 20 29.984 20 28 20 25.791 18.209 24 16 24z"/></svg>