<svg xmlns="http://www.w3.org/2000/svg" xmlns:xlink="http://www.w3.org/1999/xlink" viewBox="0 0 48 48"><path fill="#ffe082" d="M40,27.703c0-2.59-0.605-5.652-1.66-8.703h0.008C35.734,11.457,30.293,4,24,4S12.266,11.457,9.652,19 H9.66C8.602,22.051,8,25.113,8,27.703C8,29.938,8.457,32.063,9.258,34h-0.02C11.656,39.871,17.355,44,24,44s12.344-4.129,14.762-10 h-0.023C39.543,32.063,40,29.938,40,27.703z"/><path fill="none" stroke="#000" stroke-linecap="round" stroke-linejoin="round" stroke-width="2" d="M27,34.222c0,0-1.095,1.556-3,1.556s-3-1.556-3-1.556"/><path d="M17 26A2 2 0 1 0 17 30 2 2 0 1 0 17 26zM31 26A2 2 0 1 0 31 30 2 2 0 1 0 31 26z"/><path fill="#fff" d="M17 26A1 1 0 1 0 17 28 1 1 0 1 0 17 26zM31 26A1 1 0 1 0 31 28 1 1 0 1 0 31 26z"/><path fill="#ff9592" d="M9.61 31c-.429 0-.834.088-1.213.23.212.956.495 1.885.861 2.77h-.02c.521 1.265 1.202 2.442 2.004 3.522 1.091-.586 1.841-1.724 1.841-3.048C13.083 32.555 11.528 31 9.61 31zM38.474 31C36.555 31 35 32.555 35 34.474c0 1.301.723 2.421 1.781 3.016.792-1.071 1.465-2.237 1.98-3.49h-.023c.371-.893.658-1.829.871-2.794C39.251 31.081 38.873 31 38.474 31z"/></svg>