<svg xmlns="http://www.w3.org/2000/svg" xmlns:xlink="http://www.w3.org/1999/xlink" viewBox="0 0 48 48"><path fill="#f44336" d="M31.133,46H16.867c-0.995,0-1.839-0.732-1.98-1.717L11.01,17.142 c-0.041-0.287,0.044-0.578,0.234-0.797C11.435,16.126,11.71,16,12,16h24c0.29,0,0.565,0.126,0.755,0.345 c0.19,0.219,0.275,0.51,0.234,0.797l-3.877,27.141C32.972,45.268,32.128,46,31.133,46z"/><path fill="#4fc3f7" d="M25.244,13.241l-1.941-0.481l2.727-11c0.101-0.406,0.444-0.707,0.86-0.753l9-1l0.221,1.987 l-8.307,0.923L25.244,13.241z"/><path fill="#b3e5fc" d="M38,18H10c-0.552,0-1-0.448-1-1v-1c0-2.206,1.794-4,4-4h22c2.206,0,4,1.794,4,4v1 C39,17.552,38.552,18,38,18z"/><path d="M24 35.778c-2.396 0-3.761-1.899-3.818-1.98-.318-.452-.209-1.076.242-1.394.451-.318 1.076-.208 1.394.242.029.04.84 1.131 2.182 1.131s2.153-1.091 2.187-1.138c.323-.444.946-.547 1.393-.228.446.32.554.936.238 1.385C27.761 33.879 26.396 35.778 24 35.778zM17 25A2 2 0 1 0 17 29 2 2 0 1 0 17 25zM31 25A2 2 0 1 0 31 29 2 2 0 1 0 31 25z"/><path fill="#fff" d="M17 25A1 1 0 1 0 17 27 1 1 0 1 0 17 25zM31 25A1 1 0 1 0 31 27 1 1 0 1 0 31 25z"/><path fill="#ff9592" d="M12.849 30.014l.844 5.912C15.015 35.608 16 34.427 16 33.008 16 31.347 14.653 30 12.992 30 12.943 30 12.897 30.012 12.849 30.014zM34.308 35.912l.842-5.897C35.1 30.013 35.052 30 35 30c-1.657 0-3 1.343-3 3C32 34.418 32.986 35.599 34.308 35.912z"/></svg>