<svg xmlns="http://www.w3.org/2000/svg" xmlns:xlink="http://www.w3.org/1999/xlink" viewBox="0 0 48 48"><path fill="#f5ce85" d="M37 13L11 13 15 42 33 42z"/><path fill="#795548" d="M39,15v-2.5c0-0.828-0.672-1.5-1.5-1.5h-27C9.672,11,9,11.672,9,12.5V15H39z"/><path fill="#4e342e" d="M36 6L12 8 11 11 37 11z"/><path fill="none" stroke="#000" stroke-linecap="round" stroke-linejoin="round" stroke-width="2" d="M27,26.2c0,0-1.1,1.6-3,1.6s-3-1.6-3-1.6"/><path d="M17 19A2 2 0 1 0 17 23 2 2 0 1 0 17 19zM31 19A2 2 0 1 0 31 23 2 2 0 1 0 31 19z"/><path fill="#fff" d="M17 19A1 1 0 1 0 17 21 1 1 0 1 0 17 19zM31 19A1 1 0 1 0 31 21 1 1 0 1 0 31 19z"/><path fill="#ff9592" d="M34 33c.084 0 .162-.02.245-.025l1.067-7.737C34.899 25.094 34.462 25 34 25c-2.209 0-4 1.791-4 4S31.791 33 34 33zM13.755 32.975C13.838 32.98 13.916 33 14 33c2.209 0 4-1.791 4-4s-1.791-4-4-4c-.462 0-.899.094-1.312.238L13.755 32.975z"/></svg>