<svg xmlns="http://www.w3.org/2000/svg" xmlns:xlink="http://www.w3.org/1999/xlink" viewBox="0 0 48 48"><path fill="#ffd54f" d="M32.301,45H15.699c-1,0-1.801-0.699-2-1.602L10,24h28l-3.699,19.398 C34.102,44.301,33.301,45,32.301,45z"/><path fill="#9575cd" d="M13,14c-3,0-6,2.722-6,6.957C7,26.151,11,30,19,30c8.312,0,12-6,16-6c1.391,0,2.669,0.72,2.611,2.054 C39.028,25.479,41,23.946,41,20c0-3.559-3.898-7.748-9-9c-0.944-5.194-4.979-8.23-8-9c0,3.368-5,2.535-5,6C13,8,13,14,13,14z"/><path fill="#ffb300" d="M35,24c-4,0-7.69,6-16,6c-3.52,0-6.27-0.75-8.24-2.03l0.49,2.58C13.26,31.46,15.81,32,19,32 c5.49,0,9.24-2.38,11.97-4.12C32.57,26.87,33.94,26,35,26c2,0,2.17,2.38,2.17,2.38l0.44-2.33v-0.01C37.66,24.72,36.39,24,35,24z"/><path fill="#212121" d="M24 42.778c-2.396 0-3.761-1.9-3.818-1.981-.318-.451-.209-1.075.243-1.393.451-.32 1.075-.211 1.393.242.029.04.84 1.132 2.182 1.132 1.349 0 2.174-1.12 2.182-1.132.318-.452.941-.562 1.394-.243s.561.941.243 1.394C27.761 40.878 26.397 42.778 24 42.778zM19 34A2 2 0 1 0 19 38 2 2 0 1 0 19 34zM29 34A2 2 0 1 0 29 38 2 2 0 1 0 29 34z"/><path fill="#fff" d="M19 34A1 1 0 1 0 19 36 1 1 0 1 0 19 34zM29 34A1 1 0 1 0 29 36 1 1 0 1 0 29 34z"/><path fill="#5e35b1" d="M23.35 11c-2.85-.03-5.27-1.15-6.32-2.74C17.6 8.09 18.24 8 18.98 8 19.88 9.41 21.45 10.49 23.35 11zM33.79 11.58c-.73 1.94-3.43 3.38-6.66 3.42 2.32-.62 4.15-2.11 4.87-4C32.62 11.15 33.22 11.34 33.79 11.58zM24.2 20.95C23.81 20.99 23.41 21 23 21c-5.4 0-10.14-2.48-12.78-6.2C11.08 14.28 12.04 14 13 14 14.99 17.83 19.21 20.58 24.2 20.95z"/></svg>