<svg xmlns="http://www.w3.org/2000/svg" xmlns:xlink="http://www.w3.org/1999/xlink" viewBox="0 0 48 48"><path fill="#43a047" d="M23,24C22.4,24,23.5,24.1,23,24c-0.6-0.1-6.4,0.7-7.6,0.8c-2.3,0.3-4.5,1.2-6.4,2.5 c-1,0.7-1.9,1.5-2.9,2.4c0.7,0.1,1.3,0.4,1.9,0.5c1.4,0.3,2.9,0.1,4.2-0.2c1.6-0.4,3.2-1.1,4.7-1.8C18.4,27.6,21.7,24.8,23,24"/><path fill="#43a047" d="M36.1 10C36.1 10 36.1 10 36.1 10L36.1 10C36 10.1 36.1 10.1 36.1 10c-.2.1-.4.4-.6.5-.3.2-.6.3-.9.4-.5.3-.9.5-1.4.8-.9.6-1.8 1.2-2.6 1.9-1.7 1.5-3.1 3.3-4.3 5.2-1 1.5-2.3 3.6-3.2 5.1-.1.3.2.2.3.3 2.1-2 4.8-3.4 7.2-5.2 1.8-1.4 3.9-3 4.9-5.1.6-1.2.8-2.7.8-4C36.1 10 36.1 10 36.1 10zM23 24c0 0-1.7 1.8-2.1 2.3-1.3 1.6-2.6 3.3-3.7 5-.7 1.1-1.4 2.1-2 3.3-.5 1-1.2 2.6-1 3.8 0 0 2.3-1.3 2.5-1.5 2-1.4 3.7-3.3 4.6-5.7.8-2.1 1.3-4.2 1.5-6.4 0-.1.1-.3 0-.4C22.7 24.5 23.1 24 23 24M23 24c.4-3.1 1.4-9 1.1-12.1-.1-.9-.3-1.8-.6-2.6-.3-.9-.8-1.8-1.3-2.5-.4-.6-1.1-1.1-1.5-1.8-1.5 2.7-1.5 6.3-.9 9.3.6 3.1 1.2 6.1 2.8 8.9C23 24 23 24 23 24"/><path fill="#43a047" d="M23,24c0.7,0.1,1.8,0.7,2.4,0.9c0.6,0.2,1.3,0.4,1.9,0.6c1.3,0.3,2.6,0.6,4,0.7 c2.7,0.2,5.4-0.2,7.9-1.2c1.3-0.6,2.6-1.3,3.8-2c-0.7-0.3-1.4-0.7-2.1-1c-1.5-0.6-3.3-0.9-4.9-0.9c-1.9,0-3.9,0.4-5.8,0.9 C28.5,22.3,24.6,23.4,23,24C22.2,24.3,23.6,23.7,23,24"/><path fill="#43a047" d="M23 24C23.3 23.8 23 24 23 24c2 1 5.1 5 6.2 6.8 1.1 1.8 2.3 3.8 2.7 5.9.4 1.9 0 3.7-.5 5.5-1-1.1-2.1-2.1-3-3.3-1.6-2-2.9-4.1-3.7-6.6L23 24zM23 24c-1.1-1.5-3.8-4.2-5.3-5.3-.8-.6-1.6-1.2-2.3-1.8-1.6-1.1-3.3-2-5.2-2.2-1.2-.1-2.4-.1-3.6 0 1.6 1.8 3.2 3.5 5.2 4.8 2.1 1.4 4.4 2.3 6.8 3 1.4.5 2.8.9 4.2 1.3"/><path fill="#8bc34a" d="M10.9 25.3c.6.1 1.2.2 1.7.2.9-.3 1.8-.6 2.8-.7 1.1-.2 7-.9 7.6-.8 0 0-3.2-1.6-5.1-1.9-1.5-.3-4.5-.7-6-.8-1.2-.1-2.3 0-3.5.1-1 .1-2.3.3-3.2.9-.1 0-.1.1-.2.1 0 0 1.7 1.3 2 1.4C8.1 24.6 9.5 25.1 10.9 25.3zM26.2 18.9c1.2-1.8 2.5-3.6 4.1-5 .9-2.1 1.4-4.5 1.1-6.8C24 9.2 23 24 23 24s0 0 .1-.1C23.9 22.4 25.2 20.4 26.2 18.9zM23.3 24.3c-.1 0-.2-.1-.3-.1-.1.1-.2.3-.1.3 0 .1 0 .2 0 .3C23 24.6 23.1 24.4 23.3 24.3zM17.1 31.3c1.1-1.7 2.4-3.4 3.7-5 .4-.4 1.7-1.8 2-2.2 0 0 0 0 0 0 .1-.1-2.1 1.1-3 1.6-1 .5-2 1.1-3 1.6-2.5 1.5-4.6 3.5-6.2 5.9-.5.7-.9 1.4-1.3 2.1.2-.4 1.2-.4 1.6-.5 2-.5 3.9-1.4 5.6-2.5C16.7 32 16.9 31.7 17.1 31.3z"/><path fill="#8bc34a" d="M36 21.1c.1 0 .1 0 .2 0 .9-.6 1.8-1.3 2.6-2.1.9-1 2-2.4 3.6-3.1-.2 0-.3.1-.5.1-.8.1-1.6 0-2.4 0-.8 0-1.6.2-2.4.3-1.6.2-3 .7-4.5 1.3C31 18.3 29.4 19 27.9 20c-.8.5-1.6 1-2.3 1.6C24.9 22.3 24 22.9 23 24c.2-.1.3-.1 0 0 1.6-.6 5.6-1.7 7.2-2.1C32.1 21.5 34.1 21.1 36 21.1zM23 24v.4c0 0 .4-.1.8-.2C23.5 24.1 23.2 24 23 24z"/><path fill="#8bc34a" d="M23.1 24.2c.3-.1 1.8.2 2 .3.4.1.9.2 1.3.3.9.2 1.8.5 2.7.7 1.8.4 3.7.9 5.4 1.7.9.4 1.8 1 2.6 1.7 1.4 1.3 2.7 2.9 3.5 4.7-2.7-.1-5.2-.7-7.7-1.8-2.4-1.1-4.2-2.6-6.1-4.3-1.1-1-2.7-2.3-3.9-3.2M23 24L23 24C23 24 23 24 23 24 23 24 23 24 23 24z"/><path fill="#8bc34a" d="M24.7,32.4L23,24c0,0-0.8,3.2-1.1,5.3c-0.2,1.6-0.5,4.8-0.5,6.4c0,1.2,0.1,2.5,0.3,3.7 c0.2,1,0.4,2.5,1.1,3.3c0,0.1,0.1,0.2,0.1,0.2c0,0,1.2-1.9,1.3-2.2c0.6-1.4,1-2.8,1.2-4.3c0.1-0.6,0.1-1.2,0.1-1.8 C25.2,33.9,24.9,33.2,24.7,32.4z"/><path fill="#37474f" d="M22 -2.9H26V50.800000000000004H22z" transform="rotate(-45.001 24 24)"/></svg>