<svg xmlns="http://www.w3.org/2000/svg" xmlns:xlink="http://www.w3.org/1999/xlink" viewBox="0 0 48 48"><path fill="#bf360c" d="M21.4 32.4c-.4 0-.7-.2-.9-.6-.6-1.4-1.6-2.6-2.9-3.3-.4-.2-.6-.8-.4-1.2.2-.4.8-.6 1.2-.4 1.7.9 3 2.4 3.7 4.2.2.5 0 1-.5 1.2C21.6 32.4 21.5 32.4 21.4 32.4zM28.4 26.9c-.3 0-.6-.1-.8-.4-1.2-1.7-4.2-4.3-6.8-4.6-.5-.1-.9-.5-.8-1 .1-.5.5-.9 1-.8 3.3.4 6.8 3.4 8.2 5.4.3.4.2 1-.2 1.3C28.8 26.9 28.6 26.9 28.4 26.9zM25 29.9c-.3 0-.7-.2-.8-.5-.8-1.8-2.3-3.2-4.2-4-.5-.2-.7-.7-.5-1.2.2-.5.7-.7 1.2-.5 2.2.9 4.1 2.7 5.1 4.9.2.5 0 1-.4 1.2C25.2 29.9 25.1 29.9 25 29.9z"/><path fill="#dd2c00" d="M34.5,34.2c-0.3,0.1-4.2,2.4-5.6,3.2c-1.8,1-3.6,1.7-4.6,1.7c-0.1,0-0.1,0-0.2,0c0,0,0,0,0,0l0,0 c-0.3,1.3-0.8,2.5-1.5,3.5c1.1,0.2,2.2,0.3,3.1,0.3c3.2,0,5.8-0.3,7.8-0.8c1.1-0.1,3.1-1.1,3.1-1.1c1-0.5,1.4-2.8-1.2-2.1 C38.8,35.7,37.5,32.4,34.5,34.2z"/><path fill="#ff5722" d="M22.2 38.7L22.2 38.7C22.2 38.7 22.2 38.7 22.2 38.7 19 37.5 17 33.7 17 31c0-2.2 1.9-5.1 3.6-6.8.7-.6 1.6-2.7-.2-3.2-1.8-3.5-3.5-3.1-5.3-8.1-2.6-.9-5.5 5.2-5.5 5.2-5.1 13.7 3.1 21.5 10.9 24C21.4 41.1 21.9 40 22.2 38.7zM35.3 39.1c0 0-4.9 2.7-11.7 2-.3.6-.5 1.1-.9 1.6 1.1.2 2.2.3 3.1.3 3.2 0 5.8-.3 7.8-.8 1.1-.1 3.1-1.1 3.1-1.1 1-.5 1.4-2.8-1.2-2.1 0 0 0 0 0 0L35.3 39.1z"/><path fill="#ff5722" d="M32.5,13l7.6-5c0,0-4,0.7-6.7,1c0.8-0.4,4.1-2,4-2c-18.1,1.9-20.1,2.9-21.8,4.6 c-2.4,2.1,3,10.7,5.8,10.4c5.6-2.9,13-6.4,15-9L32.5,13z"/><path fill="#ffccbc" d="M24.2 39.1C24.2 39.1 24.2 39.1 24.2 39.1c-.3 0-.7-.1-1-.1 0 0-.1 0-.1 0-.3-.1-.6-.1-.9-.3 0 0 0 0 0 0h0c-.3 1.3-.9 2.4-1.7 3.4h0c.3.1.6.2.9.3.3.1.7.2 1.1.3h0C23.4 41.6 23.9 40.4 24.2 39.1L24.2 39.1zM19.4 36.7c-.5-.5-.9-1.1-1.2-1.7l0 0c-1.2 1.4-2.7 2.6-4.4 3.4.6.5 1.2.9 1.8 1.3C17 38.9 18.3 37.9 19.4 36.7zM17 31c0-.3 0-.6.1-1-1.5.3-3 .5-4.6.5-1.4 0-2.7-.1-4-.4.2.7.4 1.4.7 2.1 1.1.1 2.2.2 3.3.2 1.5 0 3.1-.1 4.6-.4C17.1 31.8 17 31.4 17 31zM18.2 27.5c.4-.6.8-1.2 1.2-1.8 0 0 0 0 0 0-4-.7-7.6-2.6-10.4-5.3-.2.8-.4 1.5-.5 2.2C11.2 25 14.5 26.7 18.2 27.5zM21.3 22c-2.4 0-6.4-6-6.2-9.1-.7-.2-1.4 0-2 .5 0 .8.2 1.7.6 2.8 1.1 3 4.1 7.4 7.2 7.7.4-.5.7-1.3.6-2 0 0 0 0 0 0C21.4 22 21.3 22 21.3 22z"/><path fill="#3e2723" d="M33.4,9c0,1.1-0.9,2-2,2s-2-0.9-2-2s0.9-2,2-2S33.4,7.9,33.4,9z"/><path fill="#37474f" d="M22 -2.9H26V50.800000000000004H22z" transform="rotate(-45.001 24 24)"/></svg>