<svg xmlns="http://www.w3.org/2000/svg" xmlns:xlink="http://www.w3.org/1999/xlink" viewBox="0 0 48 48"><path fill="#388e3c" d="M41,6c-2,4-10.1,3.9-12.5,8.6c-0.5,1-0.8,2-1,3c0,0.1,0,0.1,0,0.2c-0.4,2.4-2.2,2.8-2.2,2.8l0,0 c-1.4,0.5-2.8,1.3-4,2.5c-0.9,0.9-1.5,1.8-2,2.8c0,0,0,0,0,0c-0.9,1.4-2.2,1.8-3.1,1.9c-0.3,0-0.6,0-0.9,0c0,0,0,0,0,0v0 c-0.8,0.1-1.6,0.2-2.4,0.5c-2,0.6-3.7,1.8-4.8,3.3c-0.6,0.8-2.3,2.6-2.3,2.6s0.8,2.2,1.1,3.2c0.9,2.7,3.6,4.4,7,4.4 c1.1,0,2.2-0.2,3.3-0.5c1.9-0.6,3.5-1.7,4.6-3.1l0,0c0,0,0,0,0-0.1c0.1-0.1,0.1-0.1,0.2-0.2c0.2-0.2,0.3-0.4,0.4-0.6 c0.6-0.6,1.5-1.4,3-1.8c0.3,0,0.6-0.1,0.9-0.2c0,0,0,0,0.1,0c0,0,0,0,0,0c1.6-0.4,3.3-1.3,4.6-2.7c1.4-1.4,2.4-3.1,2.7-4.9l0,0 c0,0,0.4-2,2.4-2.7c0,0,0,0,0,0c1.9-0.8,3.5-2.4,4.6-4.5C43.5,14.5,41.4,7.2,41,6z"/><path fill="#9ccc65" d="M29.6 24.6c-1.5-1.5-4.5-1-6.7 1.2-2.2 2.2-2.7 5.1-1.2 6.7 1.5 1.5 4.5 1 6.6-1.2C30.6 29.1 31.1 26.1 29.6 24.6zM36.4 13.5c-1.9-1-4.6.5-5.9 3.2-1.4 2.7-1 5.7.9 6.7 1.9 1 4.6-.5 5.9-3.2S38.3 14.4 36.4 13.5zM20.3 33.3c-.7-2-3.6-2.9-6.5-1.9-2.9 1-4.7 3.4-4.1 5.4.7 2 3.6 2.9 6.5 1.9C19.1 37.7 20.9 35.3 20.3 33.3z"/><path fill="#f1f8e9" d="M14.7 33.7c-.3-.6-1.2-.7-2-.4-.8.4-1.3 1.2-1 1.7.3.6 1.2.7 2 .4C14.6 35 15 34.3 14.7 33.7zM25.1 27.3c-.5-.4-1.3-.2-2 .4s-.8 1.6-.3 2c.5.4 1.3.3 2-.4C25.4 28.7 25.5 27.8 25.1 27.3zM32.8 17.3c-.6-.2-1.3.3-1.6 1.2s0 1.7.6 1.9c.6.2 1.3-.4 1.6-1.2C33.6 18.3 33.4 17.5 32.8 17.3z"/><path fill="#37474f" d="M22 -2.9H26V50.800000000000004H22z" transform="rotate(-45.001 24 24)"/></svg>