<svg xmlns="http://www.w3.org/2000/svg" xmlns:xlink="http://www.w3.org/1999/xlink" viewBox="0 0 48 48"><path fill="#fbc02d" d="M36.7,7.2c-0.5,0-1,0.1-1.2,0.1c-1.3,0.1-5.9,0.7-11.6,6.3c-1.1,0.7-4.6,3.4-5,6.9l0,0.2 c-0.1,0.9-0.3,2.8-1.6,3.4c-2.6,1.1-4.9,2.5-5.4,2.9C9,28.7,4.7,33,6.4,37.9c0.9,2.6,3,4.1,5.7,4.1c1.8,0,3.5-0.7,4.3-1.1 c1.8-0.4,10.2-2.5,12-9.6c0.1-0.2,0.3-0.6,0.4-1c0.6-1.6,1.6-4.2,3.5-5.8c0.2-0.2,0.7-0.6,1.4-1.2c1.4-1.3,3.6-3.1,5.1-4.5l0.1-0.1 c0.3-0.3,2.8-3,2.9-6.8C42.5,2.3,38.4,7.3,36.7,7.2z"/><path fill="#d84315" d="M13.3,29c0,0-6,3.7-4.5,8.1c1.5,4.4,6.7,1.5,6.7,1.5s9-1.5,10.5-8.1c0,0,1.4-2.4,0.9-3.7 c-0.3-0.6-1.8-0.3-2.6-0.7c-1-0.5-2.6-0.7-5-0.1C16.3,26.8,13.3,29,13.3,29z"/><path fill="#d84315" d="M24.4,16.2c0,0-6.4,4.3-2.9,7.8c3.6,3.6,7.1,0,7.9-0.7c0.7-0.7,6.4-5.7,6.4-5.7s2.1-2.1,2.1-5 s-3.6-2.1-3.6-2.1S30.1,10.5,24.4,16.2z"/><path fill="#a52e0e" d="M26.9 27c-2.1 2.6-7.5 7.9-17.9 10.6 1.7 3.6 6.5 1 6.5 1s9-1.5 10.5-8.1C26 30.5 27.3 28.3 26.9 27zM37.4 11C37.4 11.1 37.4 11.1 37.4 11c-1.7 2.9-6.1 8.9-15.7 13.1 0 0 0 0 0 0 3.5 3.3 7-.2 7.7-.9.7-.7 6.4-5.7 6.4-5.7s2.1-2.1 2.1-5C38 11.9 37.8 11.4 37.4 11z"/><path fill="#37474f" d="M22 -3H26V50.7H22z" transform="rotate(-45.001 24 23.836)"/></svg>