<svg xmlns="http://www.w3.org/2000/svg" xmlns:xlink="http://www.w3.org/1999/xlink" viewBox="0 0 48 48"><path fill="#cacaca" d="M34,13c0,3.866-3.134,7-7,7c-1.933,0-6,0-6,0V6c0,0,2.134,0,6,0S34,9.134,34,13z"/><path fill="#bdbdbd" d="M41,24c0,3.866-3.134,7-7,7c-1.933,0-6,0-6,0V17c0,0,2.134,0,6,0S41,20.134,41,24z"/><path fill="#adadad" d="M41.024,28.049c-1.096,0-6.61-0.004-10.024-0.01v-0.061c1.208-0.912,2-2.347,2-3.978c0-2.761-2.239-5-5-5c-1.246,0-14,0-14,0c-2.761,0-5,2.239-5,5c0,1.631,0.79,3.068,2,3.979V30c-1.684,0-3.176,0-4,0c-2.761,0-5,2.239-5,5s2.239,5,5,5v2c0,0,32.098,0,34.024,0C44.877,42,48,38.877,48,35.024C48,31.172,44.877,28.049,41.024,28.049z"/><circle cx="7" cy="35" r="7" fill="#e0e0e0"/><circle cx="21" cy="35" r="7" fill="#e0e0e0"/><circle cx="14" cy="24" r="7" fill="#e0e0e0"/><circle cx="21" cy="13" r="7" fill="#e0e0e0"/><circle cx="28" cy="24" r="7" fill="#e0e0e0"/><circle cx="35" cy="35" r="7" fill="#e0e0e0"/><circle cx="20" cy="10" r="1" fill="#cacaca"/><circle cx="25" cy="13" r="1" fill="#cacaca"/><circle cx="19" cy="16" r="1" fill="#cacaca"/><circle cx="13" cy="21" r="1" fill="#cacaca"/><circle cx="15" cy="27" r="1" fill="#cacaca"/><circle cx="25" cy="23" r="1" fill="#cacaca"/><circle cx="31" cy="21" r="1" fill="#cacaca"/><circle cx="29" cy="27" r="1" fill="#cacaca"/><circle cx="23" cy="32" r="1" fill="#cacaca"/><circle cx="19" cy="38" r="1" fill="#cacaca"/><circle cx="7" cy="32" r="1" fill="#cacaca"/><circle cx="9" cy="38" r="1" fill="#cacaca"/><circle cx="3" cy="35" r="1" fill="#cacaca"/><circle cx="33" cy="39" r="1" fill="#cacaca"/><circle cx="32" cy="35" r="1" fill="#cacaca"/><circle cx="37" cy="32" r="1" fill="#cacaca"/></svg>