<svg xmlns="http://www.w3.org/2000/svg" xmlns:xlink="http://www.w3.org/1999/xlink" width="48" height="48" viewBox="0 0 48 48"><path fill="#4CAF50" d="M20.874,15.086C22.635,15.04,23,12.179,23,12c0-5,2.492-6.398,2.891-6.664C26.811,4.721,27.387,5.081,28,6c0.602,0.902,1.037,2.007,0.158,2.63C27.563,9.042,25,9,25,12c0,0.142,0.387,3.04,2.126,3.086H20.874z"/><path fill="#FF9800" d="M18 27.5c0 7.456 2 13.5-3 13.5S5 34.956 5 27.5C5 20.043 10 14 15 14S18 20.043 18 27.5zM30 27.5c0 7.456-2 13.5 3 13.5s10-6.044 10-13.5C43 20.043 38 14 33 14S30 20.043 30 27.5z"/><path fill="#FF9800" d="M23,28c0,7.732,0,14-5,14s-8-6.268-8-14c0-7.733,3-14,8-14S23,20.267,23,28z M25,28c0,7.732,0,14,5,14s8-6.268,8-14c0-7.733-3-14-8-14S25,20.267,25,28z"/><path fill="#FF9800" d="M31,28.5c0,8.009-2,14.5-7,14.5s-7-6.491-7-14.5c0-8.008,2-14.5,7-14.5S31,20.492,31,28.5z"/><g><path fill="#F57C00" d="M20.874 15.086C20.375 14.589 14 18 14 28.5c0 9.5 5.729 13.251 6.298 12.881C17.988 38.973 17 34.113 17 28.5 17 22.439 18.148 17.253 20.874 15.086zM27.702 41.381C28.271 41.751 34 38 34 28.5c0-10.5-6.375-13.911-6.874-13.414C29.852 17.253 31 22.439 31 28.5 31 34.113 30.012 38.973 27.702 41.381z"/><path fill="#F57C00" d="M33.307 40.932C34.818 40.714 41 37 41 28c0-13-9.415-13.938-9.754-13.846C35.491 15.111 38 20.936 38 28 38 33.832 36.291 38.828 33.307 40.932zM7 28c0 9 6.432 12.936 7.776 12.982C11.741 38.912 10 33.885 10 28c0-6.881 2.38-12.589 6.426-13.766C16.027 14.087 7 16 7 28z"/></g></svg>