<svg xmlns="http://www.w3.org/2000/svg" xmlns:xlink="http://www.w3.org/1999/xlink" width="48" height="48" viewBox="0 0 48 48"><path fill="#FFE57F" d="M38,21c0-2.17,1.73-3.926,3.885-3.988c-0.127-4.226-0.315-7.924-0.315-7.924c-16.076,1.325-32.276,4.611-32.276,4.611c-2.151,0.426-2.582,0.852-3.012,2.553c0,0-0.861,3.403,0.43,10.636S12.749,37.1,14.888,37.1c0,0,17.515,1.649,26.682,0.482c0,0,0.362-6.85,0.422-12.583C39.786,24.994,38,23.206,38,21z"/><path fill="#FFB300" d="M15.075,35.153l-0.094-0.009h-0.094c-0.994,0-5.079-2.148-6.23-8.597c-1.18-6.613-0.462-9.807-0.458-9.823c0.15-0.595,0.237-0.744,0.24-0.754c0.046-0.034,0.274-0.164,1.251-0.356c0.153-0.031,14.905-3.004,29.999-4.399l1.973-0.158c-0.054-1.209-0.093-1.969-0.093-1.969c-16.076,1.325-32.276,4.611-32.276,4.611c-2.151,0.426-2.582,0.852-3.012,2.553c0,0-0.861,3.403,0.43,10.636S12.749,37.1,14.888,37.1c0,0,9.56,0.9,18.25,0.9c3.072,0,6.037-0.113,8.432-0.418c0,0,0.041-0.786,0.099-2.047c-2.4,0.309-6.404,0.51-8.53,0.51C24.646,36.045,15.17,35.162,15.075,35.153z"/><path fill="#FFA000" d="M6.13,17.195c0.073-0.629,0.151-0.943,0.151-0.943c0.43-1.701,0.86-2.127,3.012-2.553c0,0,16.2-3.286,32.276-4.611c0,0-13.456-0.688-16.38-0.974s-5.479,0-6.919,0.448c-1.441,0.447-6.138,2.402-6.138,2.402C5.677,13.457,6.129,17.195,6.13,17.195L6.13,17.195z"/><path fill="#FFC400" d="M22 18A4 4 0 1 0 22 26 4 4 0 1 0 22 18zM33 14A2 2 0 1 0 33 18 2 2 0 1 0 33 14zM16.5 27A2.5 2.5 0 1 0 16.5 32 2.5 2.5 0 1 0 16.5 27zM12.5 20A1.5 1.5 0 1 0 12.5 23 1.5 1.5 0 1 0 12.5 20zM33 25A3 3 0 1 0 33 31 3 3 0 1 0 33 25z"/></svg>