<svg xmlns="http://www.w3.org/2000/svg" xmlns:xlink="http://www.w3.org/1999/xlink" viewBox="0 0 48 48"><path fill="#e64a19" d="M42.648,17.669c-0.223-0.188-0.518-0.267-0.808-0.223c-0.554,0.088-0.993,0.201-1.417,0.31c-0.796,0.204-1.547,0.397-3.094,0.397c-1.543,0-2.293-0.193-3.088-0.397c-0.88-0.226-1.79-0.461-3.582-0.461c-1.8,0-2.711,0.235-3.593,0.461c-0.793,0.204-1.542,0.396-3.077,0.396c-1.538,0-2.285-0.193-3.077-0.398c-0.771-0.199-1.567-0.405-2.97-0.45c-0.278-0.009-0.534,0.091-0.728,0.277c-0.195,0.186-0.305,0.442-0.305,0.709v10.441v1.628v5.495c0,0.532,0.428,0.969,0.967,0.986c1.179,0.038,1.834,0.207,2.529,0.387c0.879,0.227,1.789,0.462,3.584,0.462c1.792,0,2.702-0.234,3.582-0.461c0.794-0.205,1.545-0.398,3.088-0.398c1.536,0,2.284,0.193,3.077,0.397c0.881,0.227,1.793,0.461,3.593,0.461c1.803,0,2.715-0.235,3.598-0.461c0.379-0.097,0.76-0.196,1.231-0.271C42.644,36.881,43,36.469,43,35.984v-5.495v-1.628V18.42C43,18.131,42.872,17.856,42.648,17.669z"/><path fill="#d84315" d="M18.048,17.307c-0.199-0.011-0.407-0.011-0.638-0.011c-1.804,0-2.719,0.234-3.605,0.461c-0.8,0.204-1.555,0.397-3.108,0.397c-1.559,0-2.315-0.194-3.114-0.398c-0.424-0.109-0.862-0.221-1.415-0.309c-0.291-0.045-0.589,0.036-0.813,0.223C5.13,17.856,5,18.13,5,18.42v10.442v1.628v5.495c0,0.484,0.358,0.896,0.845,0.974c0.47,0.075,0.849,0.173,1.228,0.27c0.888,0.228,1.806,0.463,3.623,0.463c1.811,0,2.729-0.235,3.616-0.461c0.798-0.204,1.551-0.397,3.097-0.397c0.191,0.002,0.364,0,0.527,0.009c0.27,0.013,0.546-0.081,0.748-0.268C18.886,36.387,19,36.127,19,35.856v-5.495v-1.628V18.292C19,17.768,18.582,17.335,18.048,17.307z"/><path fill="#ffca28" d="M44,35.57c-0.8,0-1.48,0.039-2.16,0.128c-0.55,0.079-0.99,0.178-1.42,0.266c-0.79,0.178-1.54,0.345-3.09,0.345c-1.54,0-2.29-0.168-3.09-0.345c-0.88-0.197-1.79-0.395-3.58-0.395c-1.8,0-2.71,0.197-3.59,0.395c-0.8,0.178-1.54,0.345-3.08,0.345s-2.28-0.168-3.08-0.345c-0.55-0.118-1.11-0.247-1.91-0.326c-0.31-0.03-0.66-0.049-1.06-0.059c-0.27-0.01-0.53,0.079-0.73,0.237c-0.19,0.158-0.3,0.385-0.3,0.612v3.723c0,0.464,0.45,0.848,1,0.848H44c0.55,0,1-0.385,1-0.848v-3.733C45,35.955,44.55,35.57,44,35.57z"/><path fill="#ffa000" d="M19,35.639c-0.301-0.029-0.642-0.048-1.028-0.058c-0.002,0-0.004-0.001-0.006-0.001c-0.198-0.01-0.406-0.01-0.637-0.01c-1.792,0-2.702,0.202-3.582,0.397c-0.794,0.176-1.545,0.343-3.088,0.343c-1.549,0-2.3-0.167-3.094-0.343c-0.421-0.094-0.856-0.191-1.417-0.268C5.465,35.611,4.783,35.57,4,35.57c-0.552,0-1,0.381-1,0.85v3.729C3,40.619,3.448,41,4,41h13.91h0.001H19V35.639z"/><path fill="#ffca28" d="M44,24.704c-0.8,0-1.48,0.049-2.16,0.148c-0.55,0.079-0.99,0.187-1.42,0.296c-0.79,0.197-1.54,0.375-3.09,0.375c-1.54,0-2.29-0.178-3.09-0.375c-0.88-0.217-1.79-0.444-3.58-0.444c-1.8,0-2.71,0.227-3.59,0.444c-0.8,0.197-1.54,0.375-3.08,0.375s-2.29-0.178-3.08-0.375c-0.55-0.138-1.11-0.286-1.91-0.365c-0.31-0.03-0.66-0.059-1.06-0.069c-0.26-0.01-0.53,0.089-0.73,0.266c-0.19,0.178-0.3,0.424-0.3,0.681v3.22c0,0.503,0.43,0.927,0.97,0.947c0.44,0.01,0.8,0.039,1.12,0.089c0.55,0.069,0.97,0.168,1.41,0.276c0.88,0.217,1.78,0.444,3.58,0.444c1.79,0,2.7-0.227,3.58-0.444c0.8-0.197,1.55-0.375,3.09-0.375s2.28,0.178,3.08,0.375c0.88,0.217,1.79,0.444,3.59,0.444s2.72-0.227,3.6-0.444c0.38-0.089,0.76-0.187,1.22-0.257c0.57-0.079,1.16-0.118,1.85-0.118c0.55,0,1-0.424,1-0.947v-3.22C45,25.129,44.55,24.704,44,24.704z"/><path fill="#ffa000" d="M18.073,24.721c-0.008-0.001-0.015-0.005-0.024-0.006c-0.198-0.01-0.407-0.011-0.638-0.011c-1.802,0-2.717,0.224-3.602,0.441c-0.799,0.196-1.554,0.381-3.105,0.381c-1.558,0-2.313-0.185-3.112-0.382c-0.423-0.104-0.861-0.212-1.424-0.298c-0.688-0.098-1.374-0.143-2.161-0.143C3.45,24.704,3,25.128,3,25.649v3.221c0,0.522,0.45,0.945,1.006,0.945c0.684,0,1.275,0.039,1.85,0.12c0.469,0.072,0.849,0.166,1.227,0.258c0.887,0.218,1.804,0.443,3.62,0.443c1.809,0,2.727-0.225,3.613-0.442c0.797-0.196,1.55-0.38,3.095-0.38c0.16,0,0.3,0.002,0.439,0.007c0.011,0.001,0.019,0.006,0.03,0.007c0.44,0.01,0.8,0.039,1.12,0.089v-1.038v-3.221v-0.875C18.727,24.757,18.415,24.733,18.073,24.721z"/><path fill="#ffe082" d="M45,13.823v1.963c0-0.523-0.45-0.947-1-0.947c-0.8,0-1.48,0.049-2.16,0.148c-0.55,0.079-0.99,0.187-1.42,0.296c-0.79,0.197-1.54,0.375-3.09,0.375c-1.54,0-2.29-0.178-3.09-0.375c-0.88-0.217-1.79-0.444-3.58-0.444c-1.8,0-2.71,0.227-3.59,0.444c-0.8,0.197-1.54,0.375-3.08,0.375s-2.29-0.178-3.08-0.375c-0.57-0.148-1.16-0.296-2-0.375v-1.075c0-0.503-0.4-0.917-0.93-0.957c1.39,0.039,2.17,0.247,2.93,0.434c0.8,0.197,1.54,0.385,3.08,0.385s2.28-0.178,3.08-0.385c0.88-0.217,1.79-0.444,3.59-0.444c1.79,0,2.7,0.227,3.58,0.444c0.8,0.197,1.55,0.385,3.09,0.385c1.55,0,2.3-0.187,3.09-0.385c0.43-0.099,0.87-0.207,1.42-0.296c0.68-0.099,1.36-0.148,2.16-0.148C44.55,12.866,45,13.29,45,13.823z"/><path fill="#ffca28" d="M19,13.852v1.973c-0.28-0.03-0.68,0.02-1.03,0.01H17.9c-0.17-0.01-0.36-0.01-0.57-0.01c-0.15,0-0.29,0-0.42,0.01c-1.52,0.03-2.35,0.237-3.16,0.434c-0.8,0.197-1.55,0.375-3.09,0.375c-1.55,0-2.3-0.178-3.09-0.375c-0.42-0.109-0.86-0.217-1.42-0.306C5.47,15.875,4.78,15.825,4,15.825c-0.55,0-1,0.424-1,0.947v-2.95c0-0.533,0.45-0.957,1-0.957c0.78,0,1.47,0.049,2.15,0.148c0.56,0.089,1,0.197,1.42,0.296c0.79,0.197,1.54,0.385,3.09,0.385c1.54,0,2.29-0.187,3.09-0.385c0.88-0.217,1.79-0.444,3.58-0.444c0.2,0,0.39,0,0.57,0.01h0.08C18.51,12.915,19,13.349,19,13.852z"/><path fill="#ffca28" d="M44,14.839c-0.8,0-1.48,0.049-2.16,0.148c-0.55,0.079-0.99,0.187-1.42,0.296c-0.79,0.197-1.54,0.375-3.09,0.375c-1.54,0-2.29-0.178-3.09-0.375c-0.88-0.217-1.79-0.444-3.58-0.444c-1.8,0-2.71,0.227-3.59,0.444c-0.8,0.197-1.54,0.375-3.08,0.375s-2.29-0.178-3.08-0.375c-0.55-0.138-1.12-0.286-1.91-0.365c-0.03,0-0.06-0.01-0.09-0.01c-0.28-0.03-0.59-0.049-0.94-0.059H17.9c-0.24,0-0.5,0.099-0.69,0.266c-0.19,0.178-0.3,0.424-0.3,0.681v2.19c0,0.069,0.01,0.128,0.02,0.187c0.03,0.128,0.08,0.237,0.14,0.345c0.04,0.049,0.08,0.099,0.12,0.138c0.06,0.059,0.12,0.109,0.19,0.148c0.03,0.02,0.07,0.04,0.11,0.059l0.18,0.059c0.03,0,0.05,0.02,0.08,0.02c0.02,0.01,0.04,0.01,0.06,0.01c0.02,0.01,0.05,0.01,0.07,0.01c0.33,0.01,0.62,0.03,0.88,0.049c0.08,0.01,0.16,0.02,0.24,0.03c0.33,0.039,0.62,0.099,0.89,0.158c0.17,0.039,0.35,0.079,0.52,0.128c0.66,0.168,1.34,0.335,2.39,0.404c0.18,0.01,0.36,0.02,0.56,0.03c0.2,0.01,0.41,0.01,0.63,0.01c1.79,0,2.7-0.227,3.58-0.444c0.1-0.03,0.2-0.049,0.3-0.069c0.2-0.049,0.4-0.099,0.62-0.138c0.11-0.02,0.23-0.039,0.35-0.059c0.48-0.059,1.05-0.109,1.82-0.109s1.34,0.049,1.82,0.109c0.12,0.02,0.23,0.04,0.34,0.059c0.22,0.04,0.42,0.089,0.62,0.138c0.1,0.02,0.2,0.039,0.3,0.069c0.88,0.217,1.79,0.444,3.59,0.444s2.72-0.227,3.6-0.444c0.09-0.03,0.19-0.049,0.29-0.069c0.28-0.069,0.58-0.138,0.93-0.187c0.57-0.079,1.16-0.118,1.85-0.118c0.42,0,0.79-0.247,0.93-0.602c0.02-0.049,0.04-0.109,0.05-0.158c0.01-0.069,0.02-0.138,0.02-0.217v-2.19C45,15.263,44.55,14.839,44,14.839z"/><path fill="#ffa000" d="M18.91,14.908c-0.251-0.027-0.531-0.044-0.837-0.055c-0.006-0.001-0.012-0.004-0.018-0.005h-0.07c-0.171-0.01-0.362-0.01-0.573-0.01c-0.151,0-0.292,0-0.422,0.01c-1.529,0.03-2.363,0.237-3.178,0.434c-0.805,0.197-1.559,0.375-3.108,0.375c-1.559,0-2.313-0.178-3.107-0.375c-0.422-0.109-0.865-0.217-1.428-0.306c-0.684-0.089-1.378-0.138-2.162-0.138C3.453,14.839,3,15.263,3,15.786v2.19c0,0.079,0.01,0.148,0.02,0.217c0.09,0.434,0.503,0.76,0.986,0.76c0.684,0,1.277,0.039,1.85,0.118c0.473,0.069,0.845,0.168,1.227,0.257c0.111,0.03,0.221,0.049,0.332,0.079c0.794,0.187,1.7,0.365,3.288,0.365c1.81,0,2.725-0.227,3.61-0.444c0.101-0.03,0.201-0.049,0.302-0.069c0.201-0.049,0.402-0.099,0.623-0.138c0.111-0.02,0.221-0.039,0.342-0.059c0.483-0.059,1.056-0.109,1.83-0.109h0.399c0.02,0.01,0.05,0.01,0.07,0.01c0.33,0.01,0.62,0.03,0.88,0.049c0.08,0.01,0.16,0.02,0.24,0.03v-1.056v-2.19v-0.878C18.97,14.918,18.94,14.908,18.91,14.908z"/><path fill="#689f38" d="M33.46,12.357c-1.845,0.933-4.101,0.451-5.038-1.078c-0.938-1.528-0.203-3.524,1.642-4.457c3.34-1.69,7.901-0.37,7.901-0.37S36.8,10.667,33.46,12.357z"/><path fill="#8bc34a" d="M34,9.413c0,1.907-1.343,3.453-3,3.453s-3-1.546-3-3.453C28,5.96,31,3,31,3S34,5.96,34,9.413z"/><circle cx="24" cy="23" r="1" fill="#ff7043"/><circle cx="30" cy="32" r="1" fill="#ff7043"/><circle cx="34" cy="34" r="1" fill="#ff7043"/><circle cx="41" cy="32" r="1" fill="#ff7043"/><circle cx="38" cy="23" r="1" fill="#ff7043"/><circle cx="40.5" cy="21.5" r=".5" fill="#ff7043"/><circle cx="37.5" cy="32.5" r=".5" fill="#ff7043"/><circle cx="28.5" cy="22.5" r=".5" fill="#ff7043"/><circle cx="32.5" cy="21.5" r="1.5" fill="#ff7043"/><circle cx="24.5" cy="33.5" r="1.5" fill="#ff7043"/><circle cx="11.5" cy="22.5" r="1.5" fill="#e64a19"/><circle cx="16" cy="22" r="1" fill="#e64a19"/><circle cx="8" cy="33" r="1" fill="#e64a19"/><circle cx="15" cy="33" r="1" fill="#e64a19"/><circle cx="7.5" cy="21.5" r=".5" fill="#e64a19"/><circle cx="11.5" cy="34.5" r=".5" fill="#e64a19"/></svg>