<svg xmlns="http://www.w3.org/2000/svg" xmlns:xlink="http://www.w3.org/1999/xlink" viewBox="0 0 48 48"><path fill="#A1887F" d="M10.4,39.9c-0.3-0.1-0.6-0.1-0.8,0.1c0-0.4-0.2-0.7-0.6-0.9C8.8,39,8.6,39,8.4,39c0-0.2,0-0.3-0.1-0.5c-0.2-0.5-0.8-0.7-1.3-0.5c0,0-0.1,0.1-0.3,0.2c-0.2,0.1-0.4,0.3-0.7,0.5c-0.5,0.5-1.2,1.1-1.7,1.9c-0.5,0.7-0.9,1.6-1.1,2.2c-0.1,0.3-0.2,0.6-0.2,0.8C3,43.9,3,44,3,44s0-0.1,0.1-0.3c0.1-0.2,0.2-0.4,0.4-0.7c0.3-0.5,0.9-1.2,1.5-1.7c0.6-0.5,1.4-0.9,1.9-1.2c0.2-0.1,0.3-0.1,0.5-0.2c-0.1,0.1-0.2,0.3-0.3,0.5c-0.3,0.6-0.8,1.4-1.4,2.1C5.2,43.3,4.6,44,4,44.4c-0.1,0.1-0.3,0.2-0.4,0.3c-0.1,0.1-0.2,0.1-0.3,0.2C3.1,44.9,3,45,3,45s0.1,0,0.3-0.1c0.1,0,0.2,0,0.4-0.1c0.1,0,0.3-0.1,0.5-0.2c0.7-0.3,1.5-0.8,2.3-1.4c0.8-0.6,1.5-1.2,2-1.8c0.2-0.2,0.3-0.3,0.4-0.4c0,0.1-0.1,0.3-0.2,0.4c-0.3,0.6-0.6,1.4-1.1,2.1C7.1,44.4,6.5,45,6,45.4c-0.3,0.2-0.5,0.4-0.7,0.4C5.1,45.9,5,46,5,46s0.1,0,0.3-0.1c0.2,0,0.5-0.1,0.8-0.3c0.7-0.3,1.5-0.7,2.2-1.4c0.7-0.6,1.4-1.3,1.8-1.9c0.2-0.3,0.4-0.5,0.5-0.7c0.1-0.2,0.2-0.3,0.2-0.3c0-0.1,0.1-0.2,0.1-0.3C11.2,40.7,10.9,40.1,10.4,39.9z"/><path fill="#DCEDC8" d="M11,41c-1,0-2-0.4-2.8-1.2c-1.6-1.6-1.6-4.1,0-5.7L19,25c1.6-1.6,6.3-5.4,7.8-3.8c1.6,1.6-1.3,5.3-2.8,6.8L13.8,39.8C13,40.6,12,41,11,41z"/><path fill="#33691E" d="M46 2L25 25 20 23 39 2z"/><path fill="#558B2F" d="M44 4L44 10 26 25 20 23z"/><path fill="#689F38" d="M32 7L38 7 28 22 22 22z"/><path fill="#7CB342" d="M40 16L26 26 22 23 40 9z"/><path fill="#9CCC65" d="M25 13L31 13 25 23 19 25z"/><path fill="#AED581" d="M35,22v-7L19,25c5.1,0,5,3,5,3L35,22z"/></svg>