<svg xmlns="http://www.w3.org/2000/svg"  viewBox="0 0 48 48" width="48px" height="48px"><path fill="#ffeb3b" d="M34,1c-3.866,0-7,3.134-7,7s3.134,7,7,7s7-3.134,7-7S37.866,1,34,1z"/><path fill="#fffde7" d="M33,1h2v7h-2V1z"/><path fill="#fffde7" d="M26.875,7h14v2h-14V7z"/><path fill="#fffde7" d="M28.343,3.757l1.414-1.414l9.9,9.899l-1.414,1.414L28.343,3.757z"/><path fill="#fffde7" d="M29.757,13.657l-1.414-1.414l9.9-9.9l1.414,1.414L29.757,13.657z"/><path fill="#ffc107" d="M34,1.5c3.585,0,6.5,2.915,6.5,6.5c0,3.584-2.915,6.5-6.5,6.5c-3.584,0-6.5-2.916-6.5-6.5	C27.5,4.415,30.416,1.5,34,1.5 M34,0c-4.419,0-8,3.581-8,8s3.581,8,8,8s8-3.581,8-8S38.419,0,34,0L34,0z"/><path fill="#bbdefb" d="M13,9c0,22.275,2.156,31.648,2.7,35.3c0.2,1,1,1.7,2,1.7h12.6c1,0,1.8-0.7,2-1.7	C32.844,40.648,35,31.275,35,9H13z"/><path fill="#fdd835" d="M32.959,40.322C33.63,36.118,34.54,29.197,34.871,18H13.129c0.332,11.197,1.241,18.118,1.912,22.322	C15.195,41.293,16.032,42,17.015,42h13.97C31.968,42,32.805,41.293,32.959,40.322z"/><circle cx="27" cy="39" r="1" fill="#fff59d"/><circle cx="23" cy="35" r="1" fill="#fff59d"/><circle cx="29.5" cy="31.5" r="1.5" fill="#fff59d"/><circle cx="24.375" cy="26.375" r="1.5" fill="#fff59d"/><circle cx="30" cy="23" r="2" fill="#fff59d"/><path fill="#ffb300" d="M34,16c0.313,0,0.62-0.023,0.924-0.058C34.972,13.778,35,11.473,35,9h-8.931	C26.562,12.945,29.921,16,34,16z"/><path fill="#fff59d" d="M18,42c0,0,0.113-13.318,0.007-31h-3c0.105,17.579,1.575,26.522,2.34,31H18z"/><path fill="#fff" d="M18.039,18c-0.007-2.237-0.018-4.576-0.032-7h-3c0.015,2.512,0.06,4.828,0.125,7H18.039z"/></svg>