<svg xmlns="http://www.w3.org/2000/svg" xmlns:xlink="http://www.w3.org/1999/xlink" viewBox="0 0 48 48"><ellipse cx="12.516" cy="12.031" fill="#d4e157" rx="7.5" ry="7"/><ellipse cx="35" cy="17.031" fill="#d4e157" rx="7.984" ry="7"/><ellipse cx="18.016" cy="29.969" fill="#c0ca33" rx="8" ry="7"/><path fill="#afb42b" d="M17.008,35c-2.313,0-4.419-0.641-6.016-1.684c1.359,2.174,3.997,3.653,7.024,3.653c4.411,0,8-3.14,8-7c0-0.268-0.021-0.532-0.055-0.793C25.473,32.446,21.645,35,17.008,35z"/><ellipse cx="28.016" cy="35.969" fill="#d4e157" rx="8" ry="7"/><path fill="#c0ca33" d="M11.508,17c-2.123,0-4.062-0.601-5.555-1.587c1.28,2.155,3.741,3.619,6.563,3.619c4.135,0,7.5-3.14,7.5-7c0-0.275-0.022-0.546-0.055-0.813C19.491,14.465,15.881,17,11.508,17z"/><path fill="#c0ca33" d="M33.992,22c-2.331,0-4.45-0.65-6.05-1.705c1.341,2.219,3.999,3.736,7.058,3.736c4.403,0,7.984-3.14,7.984-7c0-0.275-0.023-0.545-0.058-0.812C42.429,19.466,38.614,22,33.992,22z"/><path fill="#c0ca33" d="M27.008,41c-2.313,0-4.419-0.641-6.016-1.684c1.359,2.174,3.997,3.652,7.023,3.652c4.411,0,8-3.14,8-7c0-0.268-0.021-0.532-0.055-0.793C35.473,38.446,31.645,41,27.008,41z"/></svg>