<svg xmlns="http://www.w3.org/2000/svg" xmlns:xlink="http://www.w3.org/1999/xlink" width="48" height="48" viewBox="0 0 48 48"><path fill="#B2EBF2" d="M6.001,10c0-2.209,1.791-4,3.999-4h28c2.21,0,4,1.791,4,4v28c0,2.209-1.791,4-3.999,4h-28c-2.21,0-4-1.791-4-4V10z"/><path fill="#26C6DA" d="M41.999,19.501l0.001-9.5c0-2.21-1.791-4-4.001-4h-6.54L6.001,31.458v6.543C6.001,40.209,7.791,42,10,42h9.501L41.999,19.501z"/><path fill="#00838F" d="M8.97 28.525H10.97V33.524H8.97z" transform="rotate(-45.001 9.97 31.025)"/><path fill="#00838F" d="M13.566 24.55H15.566V32.549H13.566z" transform="rotate(-45.001 14.565 28.55)"/><path fill="#00838F" d="M16.041 21.454H18.041V26.454H16.041z" transform="rotate(-45.001 17.04 23.954)"/><path fill="#00838F" d="M20.637 17.478H22.637V25.477H20.637z" transform="rotate(-45.001 21.637 21.478)"/><path fill="#00838F" d="M23.111 14.383H25.111V19.381999999999998H23.111z" transform="rotate(-45.001 24.111 16.883)"/><path fill="#00838F" d="M27.708 10.408H29.708V18.407H27.708z" transform="rotate(-45.001 28.708 14.408)"/><path fill="#00838F" d="M30.183 7.311H32.183V12.311H30.183z" transform="rotate(-45.001 31.183 9.812)"/><path fill="#00838F" d="M33.378 6.001L38.074 10.697 39.489 9.283 36.207 6.001zM6.001 35.673L9.576 39.195 10.99 37.781 6.001 32.844z"/></svg>