<svg xmlns="http://www.w3.org/2000/svg" xmlns:xlink="http://www.w3.org/1999/xlink" width="48" height="48" viewBox="0 0 48 48"><path fill="#FF4081" d="M41 19.445c0 1.556 0 1.556 0 1.556H7l0-1.556c0-6.61 8.093-8.445 17-8.445C32.907 11 41 12.835 41 19.445zM41 28.555c0-1.556 0-1.556 0-1.556H7c0 0 0 0 0 1.556C7 35.165 15.093 37 24 37S41 35.165 41 28.555z"/><path fill="#F48FB1" d="M41,24c0,1.104-0.896,2-2,2H9c-1.104,0-2-0.896-2-2l0,0c0-1.104,0.896-2,2-2h30C40.104,22,41,22.896,41,24L41,24z"/><g><path fill="#D81B60" d="M42 20c0-.553-.447-1-1-1H7c-.552 0-1 .447-1 1v1c0 .553.448 1 1 1h34c.553 0 1-.447 1-1V20zM42 27c0-.553-.447-1-1-1H7c-.552 0-1 .447-1 1v1c0 .553.448 1 1 1h34c.553 0 1-.447 1-1V27z"/></g></svg>