<svg xmlns="http://www.w3.org/2000/svg" xmlns:xlink="http://www.w3.org/1999/xlink" width="48" height="48" viewBox="0 0 48 48"><path fill="#EA8711" d="M19,44c-5,0-6-6.85-6-19s4.029-22,9-22s9,9.85,9,22s-1,19-6,19"/><path fill="#FFC107" d="M25 37c0 1.104-.896 2-2 2h-2c-1.104 0-2-.896-2-2l0 0c0-1.104.896-2 2-2h2C24.104 35 25 35.896 25 37L25 37zM25 32c0-1.104-.896-2-2-2h-2c-1.104 0-2 .896-2 2l0 0c0 1.104.896 2 2 2h2C24.104 34 25 33.104 25 32L25 32zM25 27c0-1.104-.896-2-2-2h-2c-1.104 0-2 .896-2 2l0 0c0 1.104.896 2 2 2h2C24.104 29 25 28.104 25 27L25 27zM25 22c0-1.104-.896-2-2-2h-2c-1.104 0-2 .896-2 2l0 0c0 1.104.896 2 2 2h2C24.104 24 25 23.104 25 22L25 22zM25 17c0-1.104-.896-2-2-2h-2c-1.104 0-2 .896-2 2l0 0c0 1.104.896 2 2 2h2C24.104 19 25 18.104 25 17L25 17zM25 12c0-1.104-.896-2-2-2h-2c-1.104 0-2 .896-2 2l0 0c0 1.104.896 2 2 2h2C24.104 14 25 13.104 25 12L25 12zM32 32c0-1.104-.896-2-2-2h-2c-1.104 0-2 .896-2 2l0 0c0 1.104.896 2 2 2h2C31.104 34 32 33.104 32 32L32 32zM32 27c0-1.104-.896-2-2-2h-2c-1.104 0-2 .896-2 2l0 0c0 1.104.896 2 2 2h2C31.104 29 32 28.104 32 27L32 27zM32 22c0-1.104-.896-2-2-2h-2c-1.104 0-2 .896-2 2l0 0c0 1.104.896 2 2 2h2C31.104 24 32 23.104 32 22L32 22zM32 17c0-1.104-.896-2-2-2h-2c-1.104 0-2 .896-2 2l0 0c0 1.104.896 2 2 2h2C31.104 19 32 18.104 32 17L32 17zM31 12c0-1.104-.896-2-2-2h-1c-1.104 0-2 .896-2 2l0 0c0 1.104.896 2 2 2h1C30.104 14 31 13.104 31 12L31 12zM15 7c0 1.104.896 2 2 2l0 0c1.104 0 2-.896 2-2l0 0c0-1.104-.896-2-2-2l0 0C15.896 5 15 5.896 15 7L15 7zM20 7c0 1.104.896 2 2 2l0 0c1.104 0 2-.896 2-2l0 0c0-1.104-.896-2-2-2l0 0C20.896 5 20 5.896 20 7L20 7zM25 7c0 1.104.896 2 2 2l0 0c1.104 0 2-.896 2-2l0 0c0-1.104-.896-2-2-2l0 0C25.896 5 25 5.896 25 7L25 7zM13 12c0 1.104.896 2 2 2h1c1.104 0 2-.896 2-2l0 0c0-1.104-.896-2-2-2h-1C13.896 10 13 10.896 13 12L13 12zM12 17c0 1.104.896 2 2 2h2c1.104 0 2-.896 2-2l0 0c0-1.104-.896-2-2-2h-2C12.896 15 12 15.896 12 17L12 17zM12 22c0 1.104.896 2 2 2h2c1.104 0 2-.896 2-2l0 0c0-1.104-.896-2-2-2h-2C12.896 20 12 20.896 12 22L12 22zM12 27c0 1.104.896 2 2 2h2c1.104 0 2-.896 2-2l0 0c0-1.104-.896-2-2-2h-2C12.896 25 12 25.896 12 27L12 27z"/><path fill="#4CAF50" d="M41,33.705C28.958,21.706,23,39,23,39S18.759,27.635,7,21c7.792,7.482,0.142,24,15.583,24C36.75,45,27.542,28.2,41,33.705z"/><path fill="#388E3C" d="M41,33.705C28.958,21.706,23,45,23,45S13,24,7,21c7.792,7.482,7,24,15.583,24C32,45,28,26,41,33.705z"/></svg>