<svg xmlns="http://www.w3.org/2000/svg" xmlns:xlink="http://www.w3.org/1999/xlink" viewBox="0 0 48 48"><path fill="#263238" d="M38.566,16.801l-0.393,0.92c0,0,0,0,0,0l-28.346,0l-0.393-0.92C5.879,18.318,4,20.303,4,22.542 c0,4.894,4.924,19.095,20,19.095s20-14.201,20-19.095C44,20.303,42.121,18.318,38.566,16.801z"/><ellipse cx="24" cy="21.637" fill="#b71c1c" rx="19" ry="7.255"/><path fill="#263238" d="M24,30c-9.695,0-20-2.804-20-8s10.305-8,20-8s20,2.804,20,8S33.695,30,24,30z M24,16 c-10.607,0-18,3.162-18,6s7.393,6,18,6s18-3.162,18-6S34.607,16,24,16z"/><path fill="#efebe9" d="M25.74,8H22.26C15.302,5.391,9.13,13.172,10,21c0,1.922,6.314,4,14,4s14-2.078,14-4 C38.87,13.172,32.698,5.391,25.74,8z"/><path fill="#ffb74d" d="M34.016,8.474C31.47,6.493,28.475,5.971,25.563,7h-3.127c-2.913-1.029-5.908-0.507-8.452,1.474 c-3.503,2.726-5.502,7.781-4.983,12.591C9.11,24.115,16.837,26,24,26s14.89-1.885,14.999-4.935 C39.518,16.255,37.519,11.2,34.016,8.474z M11,21l-0.006-0.11c-0.463-4.159,1.232-8.514,4.219-10.837 c1.015-0.79,2.477-1.572,4.284-1.572c0.322,0,0.656,0.031,0.999,0.085c-2.816,2.76-4.344,8.762-4.442,14.623 C12.927,22.489,11.129,21.515,11,21z M18.047,23.561C18.098,15.646,20.801,9,24,9c3.199,0,5.902,6.645,5.953,14.56 C28.238,23.826,26.249,24,24,24S19.762,23.826,18.047,23.561z M37.002,20.982c-0.13,0.525-1.928,1.504-5.057,2.205 c-0.098-5.854-1.622-11.847-4.432-14.611c2.264-0.351,4.081,0.547,5.273,1.476C35.773,12.376,37.469,16.731,37.002,20.982z"/></svg>