<svg xmlns="http://www.w3.org/2000/svg" xmlns:xlink="http://www.w3.org/1999/xlink" viewBox="0 0 48 48"><path fill="#90caf9" d="M23.661,17h2.678c6.039,0,10.596,5.5,9.497,11.461L32.73,42.22C32.627,42.676,32.222,43,31.755,43H18.245c-0.467,0-0.873-0.324-0.975-0.78l-3.106-13.759C13.065,22.5,17.622,17,23.661,17z"/><path fill="#90caf9" d="M28,19h-3h-3l-1.302-1.736c-1.018-1.357-1.069-3.208-0.128-4.619L23,9h2h2l2.43,3.645c0.941,1.411,0.889,3.262-0.128,4.619L28,19z"/><path fill="#ffa000" d="M28,10h-6c-0.552,0-1-0.448-1-1v0c0-0.552,0.448-1,1-1h6c0.552,0,1,0.448,1,1v0C29,9.552,28.552,10,28,10z"/><path fill="#ffc107" d="M23,4h4c0.552,0,1,0.448,1,1v3h-6V5C22,4.448,22.448,4,23,4z"/><path fill="#90caf9" d="M30.5,19c-1.93,0-3.5-1.57-3.5-3.5s1.57-3.5,3.5-3.5s3.5,1.57,3.5,3.5S32.43,19,30.5,19z M30.5,14c-0.827,0-1.5,0.673-1.5,1.5s0.673,1.5,1.5,1.5s1.5-0.673,1.5-1.5S31.327,14,30.5,14z"/><path fill="#bf360c" d="M14.164,28.461L17.27,42.22c0.103,0.456,0.508,0.78,0.975,0.78h13.509c0.467,0,0.873-0.324,0.975-0.78l3.106-13.759c0.355-1.926,0.113-3.801-0.573-5.461H14.737C14.052,24.66,13.809,26.535,14.164,28.461z"/><rect width="2" height="2.333" x="24" y="35.667" fill="#ffc107"/><path fill="#ffc107" d="M31,34l-1.333-0.667l1.333-2h-2l-0.027-1.324l-1.541,0.773l0.235-3.449L26.333,28l-1.329-2l-1.338,2 l-1.333-0.667l0.235,3.429l-1.541-0.752c0,0-0.03,1.316-0.027,1.323h-2l1.333,2L19,34l2.667,1.333v1.333 c0,0,3.148-0.173,3.333-0.173s3.333,0.173,3.333,0.173v-1.333L31,34z"/></svg>