<svg xmlns="http://www.w3.org/2000/svg" xmlns:xlink="http://www.w3.org/1999/xlink" viewBox="0 0 48 48"><path fill="#fbc02d" d="M22 4H26V29H22z"/><path fill="#fbc02d" d="M17.556 5.113H21.552V30.113H17.556z" transform="rotate(-4.211 19.552 17.616)"/><path fill="#fbc02d" d="M13.338 8.161H17.335V33.16H13.338z" transform="rotate(-9.032 15.339 20.66)"/><path fill="#fbc02d" d="M16.029 16.64H41.028999999999996V20.635H16.029z" transform="rotate(-85.796 28.53 18.638)"/><path fill="#fbc02d" d="M20.566 17.719H45.565V21.715H20.566z" transform="rotate(-80.961 33.066 19.716)"/><path fill="#fbc02d" d="M8.893 9.843H12.889000000000001V34.84H8.893z" transform="rotate(-13.657 10.89 22.342)"/><path fill="#fbc02d" d="M36.119 35.266L32.25 34.323 38.131 10.032 42 10.976z"/><path fill="#ffee58" d="M19.023 9.999H23.019V34.998H19.023z" transform="rotate(-4.44 21.011 22.508)"/><path fill="#ffee58" d="M13.582 21.398H38.582V25.393H13.582z" transform="rotate(-85.147 26.081 23.396)"/><path fill="#ffee58" d="M31.556 38.186L27.695 37.152 34.142 13 38.003 14.033z"/><path fill="#ffee58" d="M13.868 14.094H17.864V39.092H13.868z" transform="rotate(-14.984 15.867 26.592)"/><path fill="#f44336" d="M35.169,21c-1.341,2.281-5.894,3.875-11.204,3.875S14.103,23.281,12.087,21H8.143L11,41l4,3 c0,0,4.029-2,9-2s9,2,9,2l4-3l2.857-20H35.169z"/><path fill="#ffa726" d="M24 24c.009 0 .017 0 .025 0l.17-2.003C24.13 21.997 24.066 22 24 22c-.345 0-.683-.01-1.016-.025l.155 2.008C23.424 23.993 23.71 24 24 24zM19.092 23.471l-.162-2.1c-.395-.105-.773-.219-1.128-.344l.158 2.152C18.325 23.286 18.703 23.383 19.092 23.471zM16.931 22.843c.266.098.539.191.821.277l-.357-2.247c-.408-.159-.784-.328-1.127-.507L16.931 22.843zM30.818 20.792l-.056.021c-.738.298-1.583.557-2.521.757l-.176 2.071c.846-.153 1.648-.352 2.394-.591.048-.015.095-.032.143-.047.333-.111.656-.228.965-.354l.688-2.577C31.839 20.327 31.36 20.57 30.818 20.792zM12.033 20L11.497 18 7.779 18 8.265 20zM40.299 18L36.944 18 36.41 20 39.815 20z"/><path fill="#fdd835" d="M22.984 21.975c-.328-.015-.649-.039-.964-.067-.05-.005-.098-.01-.148-.015-1.067-.106-2.054-.285-2.943-.521l.162 2.1c.921.208 1.901.361 2.928.447v-.016l.001.016c.367.031.74.052 1.118.065L22.984 21.975zM26.682 21.833c-.218.028-.441.05-.666.071-.585.055-1.192.087-1.82.092L24.025 24c.679-.001 1.343-.031 1.991-.086.174-.015.345-.034.516-.052.525-.057 1.036-.13 1.533-.22l.176-2.071C27.746 21.676 27.225 21.764 26.682 21.833zM36.832 18h-2.564l-.598.844c-.296.418-.78.837-1.416 1.228l-.688 2.577c1.425-.582 2.578-1.324 3.348-2.173.141-.156.273-.314.388-.476h1.108l.204-.763L36.944 18H36.832zM16.268 20.367c-.899-.47-1.566-.996-1.938-1.522L13.732 18h-2.235l.535 2h.665c.175.248.389.486.625.718.858.842 2.096 1.57 3.608 2.125L16.268 20.367z"/><path fill="#ffc107" d="M11.784 22c2.346 2.425 6.825 4 12.216 4s9.87-1.575 12.216-4h3.499L40 20h-4.697c-1.649 2.329-6.08 4-11.303 4-5.223 0-9.654-1.671-11.303-4H8l.286 2H11.784zM27 29.125c1.208 0 2 4.721 2 10.875h2c0-6.627-1.763-12-3.937-12-1.237 0-2.341 1.615-3.062 4.14C23.279 29.615 22.175 28 20.938 28 18.763 28 17 33.373 17 40h2c0-6.154.792-10.875 2-10.875 1.208 0 2 4.194 2 9.875h2C25 33.319 25.792 29.125 27 29.125z"/></svg>