<svg xmlns="http://www.w3.org/2000/svg" xmlns:xlink="http://www.w3.org/1999/xlink" viewBox="0 0 48 48"><path fill="#4e342e" d="M19,28v12c0,1.105-0.895,2-2,2h0c-1.105,0-2-0.895-2-2V29"/><path fill="#f9a825" d="M24.128,48h-0.255C22.286,48,21,46.714,21,45.128V36h6v9.128C27,46.714,25.714,48,24.128,48z"/><path fill="#4e342e" d="M34.082,36H13.918C12.859,36,12,35.141,12,34.082V11.805C12,5.285,17.285,0,23.805,0h0.39C30.715,0,36,5.285,36,11.805v22.277C36,35.141,35.141,36,34.082,36z"/><path fill="#4e342e" d="M23,25v12c0,1.105-0.895,2-2,2h0c-1.105,0-2-0.895-2-2V26"/><path fill="#a1887f" d="M24.195,0h-0.39C22.838,0,21.899,0.117,21,0.337V8c0,1.105,0.895,2,2,2s2-0.895,2-2v4c0,1.105,0.895,2,2,2s2-0.895,2-2V7c0,1.105,0.895,2,2,2s2-0.895,2-2V3.962C30.841,1.534,27.701,0,24.195,0z"/></svg>