<svg xmlns="http://www.w3.org/2000/svg" xmlns:xlink="http://www.w3.org/1999/xlink" viewBox="0 0 48 48"><path fill="#ffb300" d="M43.721,25.841l-0.497-1.199c-0.169-0.407-0.169-0.876-0.001-1.282l0.498-1.201 c0.569-1.378,0.257-2.949-0.797-4.004l-0.919-0.919c-0.312-0.312-0.49-0.743-0.49-1.184v-1.3c0-1.491-0.891-2.824-2.269-3.395 l-1.2-0.497c-0.413-0.171-0.735-0.493-0.906-0.906l-0.497-1.2c-0.57-1.378-1.903-2.269-3.395-2.269h-1.3 c-0.44,0-0.872-0.179-1.184-0.49l-0.919-0.92c-1.055-1.052-2.626-1.364-4.005-0.796l-1.2,0.498c-0.409,0.167-0.876,0.167-1.281,0 l-1.201-0.498c-1.377-0.571-2.949-0.257-4.004,0.797l-0.919,0.919c-0.312,0.312-0.743,0.49-1.184,0.49h-1.3 c-1.491,0-2.824,0.891-3.395,2.269l-0.497,1.2c-0.171,0.413-0.493,0.735-0.906,0.906l-1.2,0.497 c-1.378,0.57-2.269,1.903-2.269,3.395v1.3c0,0.44-0.179,0.872-0.49,1.184l-0.92,0.919c-1.053,1.055-1.365,2.626-0.796,4.005 l0.497,1.199c0.169,0.407,0.169,0.876,0.001,1.282l-0.498,1.201c-0.569,1.378-0.257,2.949,0.797,4.004l0.919,0.919 c0.312,0.312,0.49,0.743,0.49,1.184v1.3c0,1.491,0.891,2.824,2.269,3.395l1.2,0.497c0.413,0.171,0.735,0.493,0.906,0.906l0.497,1.2 c0.57,1.378,1.903,2.269,3.395,2.269h1.3c0.44,0,0.872,0.179,1.184,0.49l0.919,0.92c1.055,1.052,2.626,1.364,4.005,0.796 l1.199-0.497c0.408-0.17,0.876-0.169,1.282-0.001l1.201,0.498c0.457,0.189,0.935,0.281,1.408,0.281 c0.954-0.001,1.891-0.374,2.596-1.078l0.919-0.919c0.312-0.312,0.743-0.49,1.184-0.49h1.3c1.491,0,2.824-0.891,3.395-2.269 l0.497-1.2c0.171-0.413,0.493-0.735,0.906-0.906l1.2-0.497c1.378-0.57,2.269-1.903,2.269-3.395v-1.3c0-0.44,0.179-0.872,0.49-1.184 l0.92-0.919C43.978,28.791,44.29,27.22,43.721,25.841z"/><path fill="#ffee58" d="M41.747,25.657l-0.447-1.079c-0.152-0.366-0.152-0.788-0.001-1.154l0.448-1.081 c0.512-1.24,0.231-2.654-0.717-3.603l-0.827-0.827c-0.28-0.28-0.441-0.669-0.441-1.065v-1.17c0-1.342-0.801-2.542-2.041-3.055 l-1.08-0.447c-0.372-0.154-0.662-0.444-0.816-0.816l-0.447-1.08c-0.513-1.24-1.713-2.041-3.055-2.041h-1.17 c-0.396,0-0.785-0.161-1.065-0.441L29.261,6.97c-0.949-0.946-2.363-1.228-3.604-0.716l-1.08,0.448c-0.368,0.15-0.788,0.15-1.153,0 l-1.081-0.448c-1.239-0.514-2.654-0.231-3.603,0.717l-0.827,0.827c-0.28,0.28-0.669,0.441-1.065,0.441h-1.17 c-1.342,0-2.542,0.801-3.055,2.041l-0.447,1.08c-0.154,0.372-0.444,0.662-0.816,0.816l-1.08,0.447 c-1.24,0.513-2.041,1.713-2.041,3.055v1.17c0,0.396-0.161,0.785-0.441,1.065L6.97,18.739c-0.947,0.949-1.229,2.363-0.716,3.604 l0.447,1.079c0.152,0.366,0.152,0.788,0.001,1.154l-0.448,1.081c-0.512,1.24-0.231,2.654,0.717,3.603l0.827,0.827 c0.28,0.28,0.441,0.669,0.441,1.065v1.17c0,1.342,0.801,2.542,2.041,3.055l1.08,0.447c0.372,0.154,0.662,0.444,0.816,0.816 l0.447,1.08c0.513,1.24,1.713,2.041,3.055,2.041h1.17c0.396,0,0.785,0.161,1.065,0.441l0.827,0.828 c0.949,0.946,2.363,1.228,3.604,0.716l1.079-0.447c0.367-0.153,0.788-0.152,1.154-0.001l1.081,0.448 C26.069,41.917,26.498,42,26.925,42c0.859-0.001,1.701-0.337,2.336-0.97l0.827-0.827c0.28-0.28,0.669-0.441,1.065-0.441h1.17 c1.342,0,2.542-0.801,3.055-2.041l0.447-1.08c0.154-0.372,0.444-0.662,0.816-0.816l1.08-0.447c1.24-0.513,2.041-1.713,2.041-3.055 v-1.17c0-0.396,0.161-0.785,0.441-1.065l0.828-0.827C41.978,28.311,42.259,26.897,41.747,25.657z"/><path fill="#fdd835" d="M39.775,25.472l-0.398-0.959c-0.135-0.326-0.135-0.701-0.001-1.026l0.398-0.961 c0.455-1.102,0.205-2.359-0.637-3.203l-0.735-0.735c-0.249-0.249-0.392-0.594-0.392-0.947v-1.04c0-1.193-0.712-2.259-1.815-2.715 l-0.96-0.398c-0.33-0.137-0.588-0.394-0.725-0.725l-0.398-0.96c-0.456-1.102-1.522-1.815-2.715-1.815h-1.04 c-0.352,0-0.698-0.143-0.947-0.392l-0.735-0.736c-0.844-0.841-2.101-1.091-3.204-0.637l-0.96,0.398 c-0.327,0.134-0.701,0.134-1.025,0l-0.961-0.398c-1.101-0.457-2.359-0.205-3.203,0.637l-0.735,0.735 C18.34,9.847,17.994,9.99,17.642,9.99h-1.04c-1.193,0-2.259,0.712-2.715,1.815l-0.398,0.96c-0.137,0.33-0.394,0.588-0.725,0.725 l-0.96,0.398c-1.102,0.456-1.815,1.522-1.815,2.715v1.04c0,0.352-0.143,0.698-0.392,0.947l-0.736,0.735 c-0.842,0.844-1.092,2.101-0.637,3.204l0.398,0.959c0.135,0.326,0.135,0.701,0.001,1.026l-0.398,0.961 c-0.455,1.102-0.205,2.359,0.637,3.203l0.735,0.735c0.249,0.249,0.392,0.594,0.392,0.947v1.04c0,1.193,0.712,2.259,1.815,2.715 l0.96,0.398c0.33,0.137,0.588,0.394,0.725,0.725l0.398,0.96c0.456,1.102,1.522,1.815,2.715,1.815h1.04 c0.352,0,0.698,0.143,0.947,0.392l0.735,0.736c0.844,0.841,2.101,1.091,3.204,0.637l0.959-0.398 c0.327-0.136,0.701-0.135,1.026-0.001l0.961,0.398C25.839,39.926,26.221,40,26.6,40c0.763-0.001,1.512-0.299,2.076-0.862 l0.735-0.735c0.249-0.249,0.594-0.392,0.947-0.392h1.04c1.193,0,2.259-0.712,2.715-1.815l0.398-0.96 c0.137-0.33,0.394-0.588,0.725-0.725l0.96-0.398c1.102-0.456,1.815-1.522,1.815-2.715v-1.04c0-0.352,0.143-0.698,0.392-0.947 l0.736-0.735C39.98,27.832,40.23,26.575,39.775,25.472z"/><path fill="#d81b60" d="M24 11c-1.103 0-2 .957-2 2.134S23.333 17 24 17s2-2.69 2-3.866S25.103 11 24 11zM24 37c-1.103 0-2-.957-2-2.134S23.333 31 24 31s2 2.69 2 3.866S25.103 37 24 37zM33.192 14.808c-.78-.78-2.091-.737-2.923.094s-1.791 3.677-1.32 4.148 3.316-.488 4.148-1.32C33.93 16.899 33.972 15.587 33.192 14.808zM14.808 33.192c-.78-.78-.737-2.091.094-2.923s3.677-1.791 4.148-1.32-.488 3.316-1.32 4.148C16.899 33.93 15.587 33.972 14.808 33.192zM37 24c0-1.103-.957-2-2.134-2S31 23.333 31 24s2.69 2 3.866 2S37 25.103 37 24zM11 24c0-1.103.957-2 2.134-2S17 23.333 17 24s-2.69 2-3.866 2S11 25.103 11 24zM33.192 33.192c.78-.78.737-2.091-.094-2.923-.832-.832-3.677-1.791-4.148-1.32s.488 3.316 1.32 4.148C31.101 33.93 32.413 33.972 33.192 33.192zM14.808 14.808c.78-.78 2.091-.737 2.923.094s1.791 3.677 1.32 4.148-3.316-.488-4.148-1.32S14.028 15.587 14.808 14.808z"/></svg>