<svg xmlns="http://www.w3.org/2000/svg" xmlns:xlink="http://www.w3.org/1999/xlink" width="48" height="48" viewBox="0 0 48 48"><path fill="#90CAF9" d="M33,26c0-6.5-4-5-4-19c0,0-8,0-10,0c0,14-4,12.5-4,19v15.5c0,0.828,0.672,1.5,1.5,1.5h15c0.828,0,1.5-0.672,1.5-1.5V26z"/><path fill="#9C27B0" d="M30,6.5C30,7.328,29.328,8,28.5,8h-9C18.672,8,18,7.328,18,6.5v-1C18,4.672,18.672,4,19.5,4h9C29.328,4,30,4.672,30,5.5V6.5z"/><path fill="#FAFAFA" d="M31,39.5c0,0.276-0.224,0.5-0.5,0.5h-13c-0.276,0-0.5-0.224-0.5-0.5V26c0-2.164,0.489-3.146,1.229-4.634c0.668-1.341,1.421-2.866,1.975-5.366h7.594c0.554,2.5,1.307,4.025,1.975,5.366C30.511,22.854,31,23.836,31,26V39.5z"/></svg>