<svg xmlns="http://www.w3.org/2000/svg" xmlns:xlink="http://www.w3.org/1999/xlink" viewBox="0 0 48 48"><polygon fill="#81d4fa" points="32,5 26,6 18,5 18,2 32,2"/><polygon fill="#0277bd" points="36,11 32,12 28,11 28,6 32,6"/><polygon fill="#01579b" points="32,5 30,7 36,11"/><polygon fill="#039be5" points="28,11 27,29 28,46 36,46 36,11"/><polygon fill="#81d4fa" points="21,10 14,11 14,46 28,46 28,11"/><polygon fill="#b3e5fc" points="18,5 14,11 28,11 32,5"/><path fill="#29b6f6" d="M33,29c-1-2-1-5-5-5l-1,10l1,12h8V31C36,31,34,31,33,29z"/><path fill="#b3e5fc" d="M28,24c0,0-5,0-7-2s-4-3-7-2v26h14V24z"/></svg>