<svg xmlns="http://www.w3.org/2000/svg" xmlns:xlink="http://www.w3.org/1999/xlink" viewBox="0 0 48 48"><path fill="#caf0ff" d="M5,35V9.18C5,6.871,6.871,5,9.18,5h29.64C41.129,5,43,6.871,43,9.18V35H5z"/><path fill="#b0bec5" d="M32.5 23A1.5 1.5 0 1 0 32.5 26A1.5 1.5 0 1 0 32.5 23Z"/><path fill="#94a3a8" d="M40,33H25c-0.552,0-1-0.448-1-1v0c0-0.552,0.448-1,1-1h15c0.552,0,1,0.448,1,1v0 C41,32.552,40.552,33,40,33z"/><path fill="#b0bec5" d="M39.975,31c-0.228-3.903-3.456-7-7.415-7s-7.188,3.097-7.415,7H39.975z"/><path fill="#fff" d="M28.5,28.5c-0.09,0-0.18-0.023-0.261-0.073c-0.235-0.145-0.31-0.452-0.166-0.688 c0.304-0.496,1.182-1.704,2.774-2.216c0.263-0.082,0.544,0.06,0.629,0.324c0.084,0.263-0.061,0.544-0.324,0.629 c-1.309,0.42-2.034,1.472-2.226,1.784C28.832,28.415,28.668,28.5,28.5,28.5z"/><path fill="#7bbdea" d="M28.262 21.5c-.087 0-.174-.022-.254-.069-.238-.14-.317-.446-.177-.685l.133-.224c.368-.614.536-.894.536-1.768 0-.455-.223-.838-.459-1.243-.186-.319-.378-.65-.462-1.026-.2-.904-.029-1.801.524-2.739.141-.238.447-.315.685-.177.238.14.317.446.177.685-.419.71-.553 1.369-.409 2.015.05.225.195.475.35.739.265.456.595 1.022.595 1.747 0 1.15-.284 1.625-.678 2.281l-.13.218C28.6 21.412 28.433 21.5 28.262 21.5zM32.262 21.5c-.087 0-.174-.022-.254-.069-.238-.14-.317-.446-.177-.685l.133-.224c.368-.614.536-.894.536-1.768 0-.455-.223-.838-.459-1.243-.186-.319-.378-.65-.462-1.026-.2-.904-.029-1.801.524-2.739.14-.238.447-.315.685-.177.238.14.317.446.177.685-.419.71-.553 1.369-.409 2.015.05.225.195.475.35.739.265.456.595 1.022.595 1.747 0 1.15-.284 1.625-.678 2.281l-.13.218C32.6 21.412 32.433 21.5 32.262 21.5zM36.262 21.5c-.087 0-.174-.022-.254-.069-.238-.14-.317-.446-.177-.685l.133-.224c.368-.614.536-.894.536-1.768 0-.455-.223-.838-.459-1.243-.186-.319-.378-.65-.462-1.026-.2-.904-.029-1.801.524-2.739.14-.238.446-.315.685-.177.238.14.317.446.177.685-.419.71-.553 1.369-.409 2.015.05.225.195.475.35.739.265.456.595 1.022.595 1.747 0 1.15-.284 1.625-.678 2.281l-.13.218C36.6 21.412 36.433 21.5 36.262 21.5z"/><path fill="#39dee2" d="M43,33H5v5.723C5,41.085,6.915,43,9.277,43h29.445C41.085,43,43,41.085,43,38.723V33z"/><path fill="#ffc107" d="M14.5 10A4.5 4.5 0 1 0 14.5 19A4.5 4.5 0 1 0 14.5 10Z"/><path fill="#ffc107" d="M14.5 22.5c-.276 0-.5-.224-.5-.5V7c0-.276.224-.5.5-.5S15 6.724 15 7v15C15 22.276 14.776 22.5 14.5 22.5zM18.253 21L10.747 8"/><path fill="#ffc107" d="M18.253 21.5c-.172 0-.341-.09-.433-.25l-7.506-13c-.139-.239-.057-.545.183-.683.238-.14.545-.057.683.183l7.506 13c.139.239.057.545-.183.683C18.424 21.479 18.338 21.5 18.253 21.5zM20.939 18.357L8.061 10.643"/><path fill="#ffc107" d="M20.938 18.857c-.088 0-.177-.022-.257-.071L7.805 11.071c-.237-.142-.314-.449-.172-.686.142-.237.449-.316.686-.172l12.877 7.715c.237.142.314.449.172.686C21.273 18.771 21.108 18.857 20.938 18.857zM10.747 21L18.253 8"/><path fill="#ffc107" d="M10.747,21.5c-0.085,0-0.171-0.021-0.25-0.067c-0.239-0.138-0.321-0.443-0.183-0.683l7.506-13 c0.138-0.239,0.444-0.32,0.683-0.183c0.239,0.138,0.321,0.443,0.183,0.683l-7.506,13C11.088,21.41,10.919,21.5,10.747,21.5z"/><g><path fill="#ffc107" d="M8.061 18.357L20.939 10.643M8.062 18.857c-.17 0-.335-.087-.429-.243-.143-.236-.065-.544.172-.686l12.877-7.715c.234-.145.543-.065.686.172.143.236.065.544-.172.686L8.318 18.786C8.238 18.835 8.149 18.857 8.062 18.857z"/></g><g><path fill="#ffc107" d="M22,15H7c-0.276,0-0.5-0.224-0.5-0.5S6.724,14,7,14h15c0.276,0,0.5,0.224,0.5,0.5S22.276,15,22,15z"/></g></svg>