<svg xmlns="http://www.w3.org/2000/svg" xmlns:xlink="http://www.w3.org/1999/xlink" width="48" height="48" viewBox="0 0 48 48"><path fill="#F44336" d="M24 6A4 4 0 1 0 24 14A4 4 0 1 0 24 6Z"/><path fill="#795548" d="M41,26c0-4.419-7.611-8-17-8S7,21.581,7,26c0,1.061,0.501,1.551,1.385,1.688C8.814,29.534,15.454,31,24,31c8.484,0,15.063-1.445,15.575-3.271C40.497,27.685,41,27.217,41,26z"/><path fill="#FF80AB" d="M35 41L13 41 8 27 10 29 12 27 14 29 16 27 18 29 20 27 22 29 24 27 26 29 28 27 30 29 32 27 34 29 36 27 38 29 40 27z"/><path fill="#5D4037" d="M41,26c0-0.371-0.072-0.734-0.177-1.093l-0.865-0.698L38,26.172l-0.586-0.586L36,24.172l-1.414,1.414L34,26.172l-0.586-0.586L32,24.172l-1.414,1.414L30,26.172l-0.586-0.586L28,24.172l-1.414,1.414L26,26.172l-0.586-0.586L24,24.172l-1.414,1.414L22,26.172l-0.586-0.586L20,24.172l-1.414,1.414L18,26.172l-0.586-0.586L16,24.172l-1.414,1.414L14,26.172l-0.586-0.586L12,24.172l-1.414,1.414L10,26.172l-2-1.88l-0.917,0.933C7.031,25.479,7,25.738,7,26c0,0.977,0.44,1.454,1.198,1.634L8,27l2,2l2-2l2,2l2-2l2,2l2-2l2,2l2-2l2,2l2-2l2,2l2-2l2,2l2-2l2,2l2-2l-0.221,0.705C40.568,27.602,41,27.121,41,26z"/><path fill="#F8BBD0" d="M20 27L18 29 20.126 41 21.417 41zM16 27L14 29 17 41 18.501 41zM12 27L10 29 14 41 15.458 41zM27.988 27L26 29 25.386 41 26.583 41zM31.988 27L30 29 28.167 41 29.458 41zM36 27L34 29 31.083 41 32.5 41.042zM24 27L22 29 22.751 41 24 41zM38 29L40 27 35 41 33.792 41z"/><path fill="#FFE0B2" d="M34.913,17.692c0,4.52-4.885,1.723-10.913,1.723s-10.913,2.797-10.913-1.723C13.087,13.171,17.972,11,24,11S34.913,13.171,34.913,17.692z"/></svg>