<svg xmlns="http://www.w3.org/2000/svg" xmlns:xlink="http://www.w3.org/1999/xlink" width="48" height="48" viewBox="0 0 48 48"><path fill="#4E342E" d="M11.836,31c0.057,0.361,0.116,0.722,0.18,1.079c0.633,3.568,1.554,6.741,2.984,6.952L22,40c0.46,0.186,1.474,0.479,2,0.479c0.527,0,1.54-0.294,2-0.479l7-0.969c1.431-0.211,2.352-3.384,2.984-6.952c0.063-0.357,0.123-0.718,0.18-1.079H11.836z"/><path fill="#795548" d="M24,7C14.059,7,7,15.059,7,25c0,6,14.643,15.227,14.643,15.227h0.012C22.314,40.707,23.121,41,24,41c0.883,0,1.692-0.295,2.354-0.78h0.045C26.398,40.22,41,31,41,25C41,15.059,33.941,7,24,7z"/><path fill="#BCAAA4" d="M15.087 8.334L24 41 18.774 6.76C17.459 7.15 16.223 7.674 15.087 8.334zM6.536 20.373L24 41 8.048 16.022C7.38 17.393 6.88 18.855 6.536 20.373zM6 25c0 1.006.563 2.467 1.18 3.233S24 41 24 41L6.134 22.754C6.054 23.496 6 24.244 6 25zM9.617 13.373l14.109 26.96L12.454 10.232C11.387 11.164 10.436 12.216 9.617 13.373zM35.594 10.271L24 41l14.419-27.573C37.604 12.266 36.658 11.207 35.594 10.271zM39.952 16.022L24 41l17.464-20.627C41.12 18.855 40.62 17.393 39.952 16.022zM42 25c0-.756-.054-1.504-.134-2.246L24 41c0 0 16.293-12.166 16.826-12.771S42 26.006 42 25zM28.981 6.693L24 41l8.665-32.797C31.526 7.568 30.294 7.063 28.981 6.693zM24 6c-.662 0-1.307.037-1.939.101L24 41l1.939-34.899C25.307 6.037 24.662 6 24 6z"/></svg>