<svg xmlns="http://www.w3.org/2000/svg" xmlns:xlink="http://www.w3.org/1999/xlink" viewBox="0 0 48 48"><path fill="#ff9800" d="M4.028,25c0-3.129-0.296-7.09,1.051-9.727C6.549,12.395,9.776,9.904,12.443,8 c3.516-2.511,6.835-4,11.571-4c2.298,0,4.509,0.35,6.579,0.997C34.287,6.153,36.268,8.254,38.74,11C41.889,14.496,44,18.037,44,23 c0,4.777-1.492,7.348-4.208,11c-3.564,4.793-9.184,10-15.779,10c-3.402,0-6.623-1.637-9.467-3c-4.701-2.253-7.607-4.271-9.467-9 C4.222,29.82,4.028,27.465,4.028,25z"/><path fill="#ffc107" d="M4.038,23.25C4.435,33.117,12.536,41,22.5,41C32.717,41,41,32.717,41,22.5 c0-9.964-7.883-18.065-17.75-18.462c-0.062,0.002-0.136-0.001-0.199,0.001C18.825,4.231,15.712,5.666,12.443,8 c-2.666,1.904-5.893,4.395-7.364,7.273c-0.949,1.857-1.079,4.369-1.076,6.786C4.035,22.475,4.052,22.877,4.038,23.25z"/><path fill="#ff9800" d="M22 13A1 1 0 1 0 22 15 1 1 0 1 0 22 13zM14 12A1 1 0 1 0 14 14 1 1 0 1 0 14 12zM10 18A1 1 0 1 0 10 20 1 1 0 1 0 10 18zM21.483 18.034A1.483 1.483 0 1 0 21.483 21 1.483 1.483 0 1 0 21.483 18.034zM12.422 23A1.483 1.483 0 1 0 12.422 25.966 1.483 1.483 0 1 0 12.422 23zM19 24.017A.983.983 0 1 0 19 25.983.983.983 0 1 0 19 24.017zM18 30.033A.967.967 0 1 0 18 31.967.967.967 0 1 0 18 30.033zM26 33A1 1 0 1 0 26 35 1 1 0 1 0 26 33zM32 33.967A1 1 0 1 0 32 35.967 1 1 0 1 0 32 33.967zM36 27.967A1 1 0 1 0 36 29.967 1 1 0 1 0 36 27.967zM33 15A1 1 0 1 0 33 17 1 1 0 1 0 33 15zM12 30A1 1 0 1 0 12 32 1 1 0 1 0 12 30zM24.517 26.967A1.483 1.483 0 1 0 24.517 29.933 1.483 1.483 0 1 0 24.517 26.967zM22.483 37A1.483 1.483 0 1 0 22.483 39.965999999999994 1.483 1.483 0 1 0 22.483 37zM33.578 22A1.483 1.483 0 1 0 33.578 24.966 1.483 1.483 0 1 0 33.578 22zM19.517 8A1.483 1.483 0 1 0 19.517 10.966000000000001 1.483 1.483 0 1 0 19.517 8zM27 21.983999999999998A.983.983 0 1 0 27 23.95.983.983 0 1 0 27 21.983999999999998zM28 15.999999999999998A.967.967 0 1 0 28 17.933999999999997.967.967 0 1 0 28 15.999999999999998z"/><path fill="#5d4037" d="M25.968 7.001c.553-.018 1.014.416 1.031.969.018.551-.416 1.014-.969 1.031C25.479 9.018 24 8.063 24 8.063S25.416 7.018 25.968 7.001zM16.053 27.001c.552.031.974.502.942 1.053-.03.553-.502.975-1.054.945C15.39 28.967 14 27.889 14 27.889S15.5 26.969 16.053 27.001zM32 27c0 .553-.448 1-1 1-.553 0-1-.447-1-1s1-2 1-2S32 26.447 32 27zM12 15c0 .553-.448 1-1 1-.553 0-1-.447-1-1s1-2 1-2S12 14.447 12 15zM13.877 21.236c-.254.49-.857.682-1.348.428-.49-.254-.682-.858-.428-1.348C12.357 19.824 13.911 19 13.911 19S14.132 20.746 13.877 21.236zM25.877 17.46c-.254.49-.857.682-1.348.428-.49-.254-.682-.858-.428-1.348.255-.492 1.809-1.316 1.809-1.316S26.132 16.97 25.877 17.46zM31.736 13.15c-.374.406-1.006.434-1.412.061-.407-.375-.435-1.008-.061-1.414.374-.406 2.09-.797 2.09-.797S32.11 12.742 31.736 13.15zM21.968 23c.553-.018 1.014.416 1.03.969.018.551-.415 1.014-.968 1.031C21.478 25.016 20 24.063 20 24.063S21.415 23.018 21.968 23zM20.004 32.911c.05-.551.536-.957 1.086-.906.551.051.956.535.906 1.086-.05.551-1.177 1.902-1.177 1.902S19.954 33.461 20.004 32.911zM17.969 15.001c.553-.018 1.014.416 1.03.969.018.551-.415 1.014-.968 1.031-.553.016-2.03-.938-2.03-.938S17.416 15.018 17.969 15.001zM32.258 32.967c-.539.117-1.072-.223-1.189-.764-.117-.539.224-1.072.764-1.189C32.372 30.897 34 31.565 34 31.565S32.799 32.85 32.258 32.967zM17.212 34.977c-.539.117-1.072-.223-1.189-.764-.117-.539.224-1.072.764-1.189.54-.117 2.168.551 2.168.551S17.753 34.86 17.212 34.977zM29.259 20.977c-.54.117-1.072-.223-1.19-.764-.118-.539.224-1.072.764-1.19C29.373 18.907 31 19.575 31 19.575S29.799 20.86 29.259 20.977zM37.999 17.958c.022.549-.405 1.018-.957 1.041-.552.021-1.019-.406-1.042-.957-.022-.555.915-2.041.915-2.041S37.976 17.405 37.999 17.958zM28.877 30.46c-.254.49-.857.682-1.348.428-.49-.254-.682-.858-.428-1.348.255-.492 1.809-1.316 1.809-1.316S29.132 29.97 28.877 30.46zM16.212 22.977c-.539.117-1.072-.225-1.189-.764-.117-.539.224-1.072.764-1.189.54-.117 2.168.551 2.168.551S16.753 22.86 16.212 22.977zM37.212 24.967c-.539.117-1.072-.225-1.189-.764-.117-.539.224-1.072.764-1.189.54-.117 2.168.551 2.168.551S37.753 24.85 37.212 24.967zM8 27c0 .553-.448 1-1 1-.553 0-1-.447-1-1s1-2 1-2S8 26.447 8 27z"/></svg>