<svg xmlns="http://www.w3.org/2000/svg" xmlns:xlink="http://www.w3.org/1999/xlink" width="48" height="48" viewBox="0 0 48 48"><path fill="#64B5F6" d="M6,10c0-2.209,1.791-4,4-4h28c2.209,0,4,1.791,4,4v28c0,2.209-1.791,4-4,4H10c-2.209,0-4-1.791-4-4V10z"/><path fill="#FFF" d="M23.985 31.797h-2.884l-4.218-9.705v9.705H14V17h2.884l4.228 9.715V17h2.874V31.797zM31.204 31.797c-.078-.17-.156-.454-.235-.854C30.472 31.647 29.799 32 28.948 32c-.89 0-1.626-.305-2.212-.914-.585-.61-.878-1.4-.878-2.368 0-1.151.355-2.043 1.064-2.673.709-.631 1.731-.952 3.065-.966h.844v-.884c0-.495-.082-.844-.245-1.047-.164-.203-.402-.305-.717-.305-.693 0-1.039.42-1.039 1.26h-2.776c0-1.016.368-1.854 1.104-2.516.736-.66 1.666-.99 2.791-.99 1.164 0 2.064.313 2.702.939s.956 1.522.956 2.688v5.173c.013.948.145 1.689.393 2.226v.173H31.204zM29.566 29.744c.307 0 .569-.064.785-.193s.375-.281.48-.457v-2.287h-.667c-.471 0-.842.156-1.113.468s-.407.729-.407 1.25C28.645 29.338 28.951 29.744 29.566 29.744z"/></svg>