<svg xmlns="http://www.w3.org/2000/svg" xmlns:xlink="http://www.w3.org/1999/xlink" viewBox="0 0 48 48"><path fill="#8bc34a" d="M37,17c2.4-2.4,3.8-1.9,1.4-4.3l-3.1-3.1c-2.4-2.4-2.9-1-5.3,1.4L7.8,30.5c-2.4,2.4-2.4,6.2,0,8.6 l1.1,1.1c2.4,2.4,6.2,2.4,8.6,0L37,17z"/><path fill="#689f38" d="M38,9v1c-1.4-1.4-2.6-2.4-4-1L10,32.1c-1.4,1.4-5.8,4-1.6,7.5c0.1,0.1,0.1,0.1,0.2,0.1 c-0.1-0.1-0.2-0.1-0.2-0.1c3.8,4.5,6.4-0.7,7.8-2L39,13C40.4,11.6,39.4,10.4,38,9z M8.6,39.8c0.1,0.1,0.2,0.2,0.3,0.3 C8.8,40,8.7,39.9,8.6,39.8z M9.1,40.3C9.2,40.3,9.2,40.3,9.1,40.3C9.2,40.3,9.2,40.3,9.1,40.3z M9.9,40.9C10,41,10,41,10.1,41.1 C10,41,10,41,9.9,40.9z M35.2,15c0,0-7.8,7.8-14.7,14.8c-4.9,4.9-6.7,8.2-7.5,9.5c-1.5,0.2-2.9,0.2-4-0.3c-0.4-1.3-0.1-2.8,0.2-4.3 c2-1.2,4.9-3.2,8.9-7.2c6.9-7,14.6-14.7,14.6-14.7c0.4-0.4,1.6,0.1,2,0.5C35.1,13.7,35.6,14.6,35.2,15z"/><path fill="#558b2f" d="M40.5,9.4c3,0.4,1.5,2.6,1,2.7c2.5,1.4,1.5,3.3,0.7,2.9c0.4,0.6,0.8,0.8,0.8,2.5 c0,0.4-0.6,1.1-2.1,0.4c0.5,0.6,1.2,2.1,0.7,3c-0.3,0.4-1,0.4-1.2,0.1c0.1,0.8,0.1,3.3-1.1,3.7c-1.6,0.8-1.9-0.6-2.5-1.4 c-0.3,2.3-2.5,1.1-2.3-0.1c-2.3,1.5-3-0.4-2.2-1.4c-1.8,1.6-3.2,0.6-2.6-0.8c-0.7,0.8-4.1,0.7-2.6-2.2c-0.4,0.4-3.4,0.4-1.9-1.6 c-1.5,0.6-3.9-1-1.4-2.5c-1.6,0-3-1.2-1.5-2.2c-2.5-0.8-0.4-1.9,0.7-2.5c-0.5-0.3-2.1-0.8,0.3-1.6c-0.8-0.8,0.7-1.2,2.9-1 c-0.7-0.8,0.3-2.9,4.1-0.7c-0.7-1.8,0.7-2.2,2.6-1.2c-0.3-0.8,2.1-0.6,2.6,0.6c1-1.2,3.3-0.7,3,1.1C39.5,6.5,41.7,7.8,40.5,9.4z"/><path fill="#7cb342" d="M34.6,9.2c-0.1-0.9-0.9-1.8-1.9-1.7c-0.5,0-1.1,1.1-0.5,1.4C31.8,8,30.3,8,29.5,8.1 c-0.5,0.1-1,0.4-0.9,1c0.1,0.7,0.8,0.7,1.3,0.9c-0.9-0.6-2.8-0.2-3.5,0.6c-0.2,0.3-0.6,0.9-0.4,1.2c0.2,0.3,1,0.4,1.4,0.3 c-0.9,0.2-2,1.1-2.2,2c-0.1,0.4,0,0.9,0.4,1c0.4,0.1,1.3,0,1.5-0.5c-0.4,0.5-0.5,1.5-0.4,2c0.3,1.1,2,1.5,2.4,0.2 c-0.3,0.5-0.4,1.5-0.2,2c0.4,0.7,2.3,0.7,2.1-0.2c-0.4,0.7,0.3,1.6,0.8,1.9c0.9,0.6,2.9,1,3-0.6c0,0.9,4.9-6.1,4.1-5.9 c0.6-0.1,1.5-0.7,1.1-1.5c-0.4-0.8-2-1-2.6-0.4c0.4-0.3,1.7-1.4,0.9-1.9c-0.7-0.5-1.9-0.3-2.4,0.4c0.5-0.4,1.1-0.9,1.1-1.7 c0-0.4-0.5-0.7-0.9-0.8c-0.3-0.1-0.8-0.1-1.1,0.1c-0.2,0.1-0.3,0.5-0.4,0.6"/><path fill="#33691e" d="M33.8,12c-0.7,0.4-1,1-0.4,1.7c-0.7-0.5-3.4,0-2.8,1.4c0.2,0.5,1.1,0.3,1.5,0.2 c-0.7,0.3-2.1,1.2-2.1,2.2c0,1.3,2.1,1.7,2.5,0.6c-0.3,1-0.9,2.3,0,3.2c1.1,1.1,3,0.3,3.5-1c-0.5,1.1,0.6,2,1.6,1.4 c1.2-0.7,1.2-2,0.3-2.9c0.8,0.3,1.8,0.2,2.3-0.6c0.9-1.6-0.8-1.9-2-1.9c0.6-0.2,2-1.5,1.5-2.4c-0.6-1.1-2.5-0.5-3.3,0.4 c0.4-0.4,0.9-1.1,0.5-1.5c-0.8-0.9-1.4,0.4-1.4,1.3C35.5,13.9,35.3,11.6,33.8,12z"/><path fill="#37474f" d="M22 -2.9H26V50.800000000000004H22z" transform="rotate(-45.001 24 24)"/><path fill="#dcedc8" d="M9.1 33c-.2-1.1-.3-2.2 0-3.5l-1.3 1.1c-2.1 2.1-2.3 5.5-.6 7.9C5.7 36.1 7.7 34.2 9.1 33zM15.3 38.7c-1.3 1.6-3.1 3.8-5.5 2.2 2.4 1.7 5.6 1.4 7.8-.7l1.5-1.8C17.8 38.8 16.5 38.9 15.3 38.7z"/><path fill="#dcedc8" d="M8.4,39.7c-1.2-1.2-1.1-3,0-4.2c0.8-0.9,2.6-1.9,2.6-1.9s-0.8,2.8,0,3.5c0.8,0.8,3.5,0.1,3.4,0 c0,0-0.6,1.4-1.8,2.6C11.2,41,9.5,40.9,8.4,39.7z"/></svg>