<svg xmlns="http://www.w3.org/2000/svg" xmlns:xlink="http://www.w3.org/1999/xlink" viewBox="0 0 48 48"><path fill="#00bcd4" d="M27,16c-9,0-16,7-16,7l-3,2l3,2.1C15,30,20,34,27,34c7,0,17-7,17-10S34,16,27,16z"/><path fill="#4dd0e1" d="M31.6,16.6c-1,2.3-1.6,4.8-1.6,7.4c0,3.2,0.9,6.3,2.4,8.9C37.5,31.2,44,26.8,44,24 S37,17.7,31.6,16.6z"/><path fill="#fff" d="M37,22c0,1.1-0.9,2-2,2s-2-0.9-2-2s0.9-2,2-2S37,20.9,37,22z"/><path fill="#0277bd" d="M36,22c0,0.6-0.4,1-1,1s-1-0.4-1-1s0.4-1,1-1S36,21.4,36,22z"/><path fill="#006064" d="M27 16c1.4 0 3 .2 4.6.6-.1-.5-.8-3.8-2.6-5.6-2.4.1-11.4 3.4-14 6 .6.9 1 1.6 1.3 2.1C19.1 17.5 22.8 16 27 16zM4 17c1 1 2 5.7 2 8 0 2.3-1 7-2 8 3-1 6.2-4.3 7-5.9 0 0 0 0 0 0L9 25l2-2C11 23 9 19 4 17zM29.2 37c-4.1.2-4.9-.2-6.4-.5.9-1.8 6.5-6.9 7.5-6.4l-.1.5C31.2 31.1 30.2 35.1 29.2 37z"/><path fill="#0097a7" d="M30,24c0-2.6,0.6-5.2,1.6-7.4c-0.7-0.2-2-0.4-2-0.4C28.6,18.7,28,21.3,28,24c0,3.3,0.8,6.6,2.4,9.5 c0.6-0.2,1.4-0.3,2-0.6C30.9,30.3,30,27.2,30,24z"/><path fill="#37474f" d="M22 -2.9H26V50.800000000000004H22z" transform="rotate(-45.001 24 24)"/></svg>