<svg xmlns="http://www.w3.org/2000/svg" xmlns:xlink="http://www.w3.org/1999/xlink" viewBox="0 0 48 48"><path fill="#ad1457" d="M34 41H14c-.6 0-1-.4-1-1s.4-1 1-1h20c.6 0 1 .4 1 1S34.6 41 34 41M32 37H15c-.6 0-1-.4-1-1s.4-1 1-1h17c.6 0 1 .4 1 1S32.6 37 32 37M31 33H16c-.6 0-1-.4-1-1s.4-1 1-1h15c.6 0 1 .4 1 1S31.6 33 31 33M29 29H19c-.6 0-1-.4-1-1s.4-1 1-1h10c.6 0 1 .4 1 1S29.6 29 29 29"/><path fill="#ad1457" d="M15,44h-4c0-12.6,6.5-18.8,12-21.8C32,17.3,33,7.9,33,4h4c0,4.6-1.2,15.8-12,21.8 C18.4,29.4,15,35.5,15,44z"/><path fill="#f50057" d="M14 16c0 .6.4 1 1 1h14c.5-.7.9-1.3 1.3-2H15C14.4 15 14 15.4 14 16zM20 19c-.6 0-1 .4-1 1s.4 1 1 1h5c.9-.6 1.7-1.3 2.4-2H20zM13 13h18.3c.3-.7.5-1.3.7-2H13c-.6 0-1 .4-1 1S12.4 13 13 13zM13 9h19.5c.1-.7.2-1.4.3-2H13c-.6 0-1 .4-1 1S12.4 9 13 9z"/><path fill="#f50057" d="M37,44h-4c0-8.5-3.4-14.6-10-18.2C12.2,19.8,11,8.6,11,4h4c0,3.9,1,13.3,10,18.2 C30.5,25.2,37,31.4,37,44z"/><path fill="#37474f" d="M22 -2.9H26V50.800000000000004H22z" transform="rotate(-45.001 24 24)"/></svg>