<svg xmlns="http://www.w3.org/2000/svg" xmlns:xlink="http://www.w3.org/1999/xlink" viewBox="0 0 48 48"><path fill="#f44336" d="M23,37C11.038,37,3,32.981,3,27v-6c2-4,4.668-4.974,6.999-5c1.822-0.021,3.93,0.561,7.001,1c5.631,0.804,10.148-5,16-5c4,0,10,2,12,8v6C45,31.018,41.183,37,23,37z"/><path fill="#ffccbc" d="M33,11c-3.488,0-5.887,1.302-8.207,2.562C22.483,14.816,20.301,16,17,16c-1.038,0-1.897-0.201-2.893-0.435C12.976,15.3,11.694,15,10,15c-3.484,0-7,1.855-7,6c0,5.981,8.038,10,20,10c18.183,0,22-5.982,22-11C45,14.533,40.29,11,33,11z M5,21c0-3.807,4.165-4,5-4c1.463,0,2.575,0.261,3.651,0.513C14.673,17.752,15.73,18,17,18c3.809,0,6.319-1.363,8.747-2.68c1.706-0.926,3.346-1.805,5.388-2.152c0.741-0.126,1.362,0.621,1.101,1.326c-0.683,1.845-2.216,3.062-3.829,4.32c-1.231,0.96-2.544,1.987-3.406,3.341c-4.036-1.789-9.32-1.229-15.748,1.668c-1.778,0.801-3.913-0.241-4.204-2.169C5.016,21.44,5,21.221,5,21z M42.371,22.822C39.94,27.847,30.828,29,23,29c-3.423,0-6.512-0.343-9.126-0.967c-1.951-0.465-2.005-3.221-0.096-3.837c4.207-1.357,7.7-1.424,10.436-0.203c-0.229,0.942,0.074,1.258,0.371,2.527c0.108,0.461,0.519,0.771,0.973,0.771c0.075,0,0.152-0.009,0.229-0.026c0.537-0.126,0.871-0.664,0.745-1.202c-0.406-1.731,0.023-2.629,0.452-3.257c0.512-0.75,1.505-0.995,2.332-0.621c1.508,0.682,2.805,0.934,3.957,0.934c1.644,0,2.995-0.504,4.26-0.974c1.197-0.446,2.276-0.847,3.522-0.786c0.138,0.007,0.348,0.038,0.575,0.078C42.263,21.551,42.651,22.242,42.371,22.822z M41.655,19.411c-1.891-0.227-3.431,0.343-4.821,0.861c-1.67,0.623-3.179,1.177-5.293,0.605c-0.755-0.204-0.983-1.196-0.39-1.707c1.507-1.297,2.88-2.859,3.326-5.18c0.103-0.534,0.611-0.88,1.149-0.802c3.759,0.545,6.287,2.299,7.09,4.918C42.926,18.795,42.371,19.497,41.655,19.411z"/><path fill="#37474f" d="M3.564,6.393l2.828-2.828l37.972,37.971l-2.828,2.828L3.564,6.393z"/></svg>