<svg xmlns="http://www.w3.org/2000/svg" xmlns:xlink="http://www.w3.org/1999/xlink" viewBox="0 0 48 48"><path fill="#e65100" d="M22.4,8.7c-3.5,1-6.9,2.9-9.8,5.8c-6.1,6-8.1,14.3-5.4,20.2c0,0,0,0,0,0c1.1,2.7-0.3,5,0.4,5.7 c0.7,0.7,3.6-0.7,5.7,0.3c0,0,0,0,0.1,0c6.1,2.7,14.5,0.8,20.6-5.3c2.9-2.9,4.9-6.3,5.9-9.7L22.4,8.7z"/><path fill="#ffa726" d="M25.7,22.6L25.7,22.6c-5.5-5.4-8.3-9.4-8.2-12c0-0.9,0.4-1.4,0.6-1.5c4.3-4.2,10.1-3.3,16,2.5 c0.7,0.7,1.2,1.2,1.3,1.4c0.3,0.2,1.2,0.9,2.2,1.9c5.1,5.1,5.8,10.6,1.9,15.2c-0.2,0.2-0.6,0.6-1.5,0.6 C35.5,30.8,31.3,28.1,25.7,22.6z"/><path fill="#fb8c00" d="M11.8,36.3c-1.8-1.8-3.8-3.1-5.4-3.8c0.2,0.8,0.5,1.6,0.8,2.3c0,0,0,0,0,0c1.1,2.7-0.3,5,0.4,5.7 c0.7,0.7,3.6-0.7,5.7,0.3c0,0,0,0,0.1,0c0.8,0.3,1.6,0.6,2.4,0.8C15,40,13.7,38.1,11.8,36.3z"/><path fill="#aa3304" d="M36.5 32.6c.4-.6.8-1.2 1.2-1.9-2.5-.1-6.6-2.8-12-8.1v0l0 0c-5.4-5.3-8.1-9.3-8.2-11.8-.6.4-1.3.8-1.9 1.2.6 3 3.4 6.9 8.7 12.1C30.7 30.3 34.3 32.1 36.5 32.6zM39.1 10.1c.3-1.1.1-2.2-.4-3.2-.6.3-1.3.4-2 .4v0c.5.8.7 1.5.5 2.3-.5 1.9-2.8 3.5-3.7 4-.5.3-.7.9-.4 1.3 0 .1.1.2.2.2.3.3.8.4 1.2.2C34.6 15.3 38.4 13.2 39.1 10.1z"/><path fill="#aa3304" d="M36.1,11.5c0.6-0.6,1-2.4,0.4-3c-0.6-0.6-0.6-1.5,0-2.1s1.6-0.6,2.1,0c0.6,0.6,1.4,3.7-0.5,5.8"/><path fill="#37474f" d="M22 -3H26V50.7H22z" transform="rotate(-45.001 24 23.836)"/></svg>