<svg xmlns="http://www.w3.org/2000/svg" xmlns:xlink="http://www.w3.org/1999/xlink" viewBox="0 0 48 48"><path fill="#90caf9" d="M30,45H18c0,0-5-12-5-22.5c0-3.5,1-5.5,5.5-5.5s6.5,0,11,0s5.5,2,5.5,5.5C35,33,30,45,30,45z"/><path fill="#42a5f5" d="M22,15h4v13h-4V15z"/><path fill="#eee" d="M29,42c1.2-3.2,3.2-9.6,3.8-15.9c-2.4,1.5-6.2,0.8-8.6-0.1c-1.4-0.5-2.7-1.3-4.2-1.7 c-0.8-0.2-1.5-0.6-2.3-0.8c-0.8-0.2-1.8-0.1-2.6,0.1c0.3,7.1,2.7,14.7,4,18.3H29z"/><path fill="#3f51b5" d="M26,15h-4V3l4,4V15z"/><path fill="#1976d2" d="M33,15.5c0,0.8-0.7,1.5-1.5,1.5h-15c-0.8,0-1.5-0.7-1.5-1.5v-2c0-0.8,0.7-1.5,1.5-1.5h15 c0.8,0,1.5,0.7,1.5,1.5V15.5z"/><path fill="#90a4ae" d="M20 32c0 .6-.4 1-1 1s-1-.4-1-1 .4-1 1-1S20 31.4 20 32zM22 29c0 .6-.4 1-1 1s-1-.4-1-1 .4-1 1-1S22 28.4 22 29zM24 32c0 .6-.4 1-1 1s-1-.4-1-1 .4-1 1-1S24 31.4 24 32z"/><path fill="#37474f" d="M22 -2.9H26V50.800000000000004H22z" transform="rotate(-45.001 24 24)"/></svg>