<svg xmlns="http://www.w3.org/2000/svg" xmlns:xlink="http://www.w3.org/1999/xlink" viewBox="0 0 48 48"><path fill="#4e342e" d="M11.8,32c0.1,0.4,0.1,0.7,0.2,1.1c0.6,3.6,1.6,6.7,3,7l7,1c0.5,0.2,1.5,0.5,2,0.5s1.5-0.3,2-0.5l7-1 c1.4-0.2,2.4-3.4,3-7c0.1-0.4,0.1-0.7,0.2-1.1H11.8z"/><path fill="#795548" d="M24,8C14.1,8,7,16.1,7,26c0,6,14.6,15.2,14.6,15.2h0c0.7,0.5,1.5,0.8,2.3,0.8c0.9,0,1.7-0.3,2.4-0.8 h0C26.4,41.2,41,32,41,26C41,16.1,33.9,8,24,8z"/><path fill="#bcaaa4" d="M15.1 9.3L24 42 18.8 7.8C17.5 8.1 16.2 8.7 15.1 9.3zM6.5 21.4L24 42 8 17C7.4 18.4 6.9 19.9 6.5 21.4zM6 26c0 1 .6 2.5 1.2 3.2C7.8 30 24 42 24 42L6.1 23.8C6.1 24.5 6 25.2 6 26zM9.6 14.4l14.1 27L12.5 11.2C11.4 12.2 10.4 13.2 9.6 14.4zM35.6 11.3L24 42l14.4-27.6C37.6 13.3 36.7 12.2 35.6 11.3zM40 17L24 42l17.5-20.6C41.1 19.9 40.6 18.4 40 17zM42 26c0-.8-.1-1.5-.1-2.2L24 42c0 0 16.3-12.2 16.8-12.8C41.4 28.6 42 27 42 26zM29 7.7L24 42l8.7-32.8C31.5 8.6 30.3 8.1 29 7.7zM24 7c-.7 0-1.3 0-1.9.1L24 42l1.9-34.9C25.3 7 24.7 7 24 7z"/><path fill="#37474f" d="M22 -2.9H26V50.800000000000004H22z" transform="rotate(-45.001 24 24)"/></svg>