<svg xmlns="http://www.w3.org/2000/svg" xmlns:xlink="http://www.w3.org/1999/xlink" viewBox="0 0 48 48"><path fill="#8BC34A" d="M5 15L5 33 24 42 43 33 43 15 24 6z"/><path fill="#7CB342" d="M24 6L24 42 43 33 43 15z"/><path fill="#FF1744" d="M5 27L5 33 24 42 43 33 43 27 24 36z"/><path fill="#D50000" d="M24 42L43 33 43 27 24 36z"/><path fill="#FFC107" d="M24 30L5 21 5 27 24 36 43 27 43 21z"/><path fill="#FFB300" d="M24 30L24 36 43 27 43 21z"/><path fill="#689F38" d="M5 15L24 6 43 15 24 24z"/><path fill="#F1F8E9" d="M22,13c0,0.552-0.448,1-1,1s-1-0.448-1-1s0.448-1,1-1S22,12.448,22,13z M16,13c-0.552,0-1,0.448-1,1s0.448,1,1,1c0.552,0,1-0.448,1-1S16.552,13,16,13z M21,16c-0.552,0-1,0.448-1,1s0.448,1,1,1s1-0.448,1-1S21.552,16,21,16z M27,17c-0.552,0-1,0.448-1,1s0.448,1,1,1s1-0.448,1-1S27.552,17,27,17z M32,13c-0.552,0-1,0.448-1,1s0.448,1,1,1s1-0.448,1-1S32.552,13,32,13z"/></svg>