<svg xmlns="http://www.w3.org/2000/svg" xmlns:xlink="http://www.w3.org/1999/xlink" viewBox="0 0 48 48"><path fill="#5d4037" d="M5 11H41V13H5z"/><path fill="#5d4037" d="M5 7H41.1V9H5z" transform="rotate(-3.191 22.983 7.999) scale(.99995)"/><path fill="#ffe082" d="M13.7,28.1c0.3-0.2,0.7-0.5,1.2-0.6c0.4-0.1,0.7-0.2,1.1-0.2c0,0,0,0,0.1,0c0.9,0,1.9,0.4,2.6,1.2 c0.4,0.4,0.8,0.6,1.2,0.6c0,0,0.1,0,0.1,0c0.6,0,1.1-0.4,1.3-0.6c0.1-0.1,0.7-0.7,1.6-1c0.4-0.1,0.7-0.2,1.1-0.2c0,0,0.1,0,0.1,0 c0.9,0,1.8,0.4,2.6,1.2c0.4,0.4,0.9,0.6,1.2,0.6c0,0,0,0,0,0c0.6,0,1.1-0.4,1.3-0.6c0.6-0.6,1.6-1.1,2.7-1.2c0,0,0.1,0,0.1,0 c0.9,0,1.8,0.3,2.6,1.2c0.4,0.4,0.8,0.6,1.2,0.6c0,0,0.1,0,0.1,0c0.1,0,0.3,0,0.4-0.1c0.5-0.2,0.9-0.5,0.9-0.5 c0.1-0.1,0.7-0.7,1.6-1c0.4-0.1,0.7-0.2,1.1-0.2c0,0,0.1,0,0.1,0c0.8,0,1.6,0.3,2.2,0.8c0.1,0,0.3-0.1,0.4-0.2c0.4-0.4,0.4-1,0-1.4 c-1.1-1.1-2.4-1.4-3.8-1c-0.9,0.3-1.6,0.9-1.6,1c0,0-0.4,0.3-0.9,0.5c-0.6,0.2-1.2,0.1-1.7-0.5c-2-2-4.3-1.1-5.4,0 c-0.3,0.3-1.4,1.2-2.6,0c-1.1-1.1-2.4-1.4-3.8-1c-0.9,0.3-1.6,0.9-1.6,1c-0.3,0.3-1.4,1.2-2.6,0c-1.1-1.1-2.4-1.4-3.8-1 c-0.9,0.3-1.6,0.9-1.6,1c-0.4,0.4-0.4,1,0,1.4C13.4,27.9,13.6,28,13.7,28.1z"/><path fill="#ffe082" d="M12,36.1C12,36.1,12,36,12,36.1c0-0.4,0.1-0.8,0.2-1.2c0.3-0.9,0.9-1.6,1-1.6 c0.2-0.2,0.6-0.7,0.6-1.3c0,0,0-0.1,0-0.1c0-0.4-0.2-0.8-0.6-1.2c-0.8-0.9-1.2-1.8-1.2-2.6c0,0,0-0.1,0-0.1c0-1.1,0.6-2.1,1.2-2.7 c0.2-0.2,0.6-0.7,0.6-1.3c0,0,0-0.1,0-0.1c0-0.4-0.2-0.8-0.6-1.2C12.4,21.9,12,21,12,20.1c0,0,0-0.1,0-0.1c0-0.4,0.1-0.7,0.2-1.1 c0.3-0.9,0.9-1.6,1-1.6c0.2-0.2,0.6-0.7,0.6-1.3c0,0,0-0.1,0-0.1c0-0.4-0.2-0.8-0.6-1.2C12.4,13.9,12,13,12,12.1c0,0,0-0.1,0-0.1 c0-0.4,0.1-0.7,0.2-1.1c0.2-0.5,0.4-0.9,0.6-1.2c0-0.2-0.1-0.3-0.2-0.4c-0.4-0.4-1-0.4-1.4,0c-0.1,0.1-0.7,0.7-1,1.6 c-0.4,1.3-0.1,2.7,1,3.8c1.2,1.2,0.3,2.3,0,2.6c-0.1,0.1-0.7,0.7-1,1.6c-0.4,1.3-0.1,2.7,1,3.8c1.2,1.2,0.3,2.3,0,2.6 c-1.1,1.1-2,3.4,0,5.4c1.2,1.2,0.3,2.3,0,2.6c-0.1,0.1-0.7,0.7-1,1.6c-0.4,1.3-0.1,2.7,1,3.8c0.2,0.2,0.4,0.3,0.7,0.3 c0.3,0,0.5-0.1,0.7-0.3c0.1-0.1,0.2-0.3,0.2-0.4C12.3,37.6,12,36.9,12,36.1z"/><path fill="#ffc107" d="M27.9 31c-.9 0-1.9-.4-2.6-1.2-1.2-1.2-2.3-.3-2.6 0-1.1 1.1-3.4 2-5.4 0-1.2-1.2-2.3-.3-2.6 0-.4.4-1 .4-1.4 0-.4-.4-.4-1 0-1.4.1-.1.7-.7 1.6-1 1.3-.5 2.7-.1 3.8 1 1.2 1.2 2.3.3 2.6 0 .1-.1.7-.7 1.6-1 1.3-.4 2.7-.1 3.8 1 1.2 1.2 2.3.3 2.6 0 1.1-1.1 3.4-2 5.4 0 .6.6 1.1.7 1.7.5.5-.2.9-.5.9-.5.1-.1.7-.7 1.6-1 1.3-.4 2.7-.1 3.8 1 .4.4.4 1 0 1.4-.4.4-1 .4-1.4 0-.6-.6-1.1-.7-1.7-.5-.5.2-.9.5-.9.5-.1.1-.7.7-1.6 1-1.3.4-2.7.1-3.8-1-1.2-1.2-2.3-.3-2.6 0-.1.1-.7.7-1.6 1C28.7 30.9 28.3 31 27.9 31zM10.2 34.9c.3-.9.9-1.6 1-1.6.2-.2.6-.7.6-1.3 0 0 0-.1 0-.1 0-.4-.2-.8-.6-1.2-.8-.8-1.2-1.8-1.2-2.6 0-.1 0-.1 0-.1 0-1.1.6-2.1 1.2-2.7.2-.2.6-.7.6-1.3 0 0 0-.1 0-.1 0-.4-.2-.8-.6-1.2C10.4 21.9 10 21 10 20.1c0 0 0-.1 0-.1 0-.4.1-.7.2-1.1.3-.9.9-1.6 1-1.6.2-.2.6-.7.6-1.3 0 0 0-.1 0-.1 0-.4-.2-.8-.6-1.2C10.4 13.9 10 13 10 12.1c0 0 0-.1 0-.1 0-.4.1-.7.2-1.1.2-.5.4-.9.6-1.2 0-.2-.1-.3-.2-.4-.4-.4-1-.4-1.4 0-.1.1-.7.7-1 1.6-.4 1.3-.1 2.7 1 3.8 1.2 1.2.3 2.3 0 2.6-.1.1-.7.7-1 1.6-.4 1.3-.1 2.7 1 3.8 1.2 1.2.3 2.3 0 2.6-1.1 1.1-2 3.4 0 5.4 1.2 1.2.3 2.3 0 2.6-.4.4-.4 1 0 1.4C9.4 34.9 9.6 35 9.9 35 10 35 10.1 35 10.2 34.9 10.2 34.9 10.2 34.9 10.2 34.9z"/><path fill="#ffc107" d="M13.9,39c-0.3,0-0.5-0.1-0.7-0.3c-1.1-1.1-1.4-2.4-1-3.8c0.3-0.9,0.9-1.6,1-1.6 c0.3-0.3,1.2-1.4,0-2.6c-2-2-1.1-4.3,0-5.4c0.3-0.3,1.2-1.4,0-2.6c-1.1-1.1-1.4-2.4-1-3.8c0.3-0.9,0.9-1.6,1-1.6 c0.3-0.3,1.2-1.4,0-2.6c-1.1-1.1-1.4-2.4-1-3.8c0.3-0.9,0.9-1.6,1-1.6c0.4-0.4,1-0.4,1.4,0c0.4,0.4,0.4,1,0,1.4 c-0.3,0.3-1.2,1.4,0,2.6c1.1,1.1,1.4,2.4,1,3.8c-0.3,0.9-0.9,1.6-1,1.6c-0.3,0.3-1.2,1.4,0,2.6c1.1,1.1,1.4,2.4,1,3.8 c-0.3,0.9-0.9,1.6-1,1.6c-0.3,0.3-1.2,1.4,0,2.6c1.1,1.1,1.4,2.4,1,3.8c-0.3,0.9-0.9,1.6-1,1.6c-0.3,0.3-1.2,1.4,0,2.6 c0.4,0.4,0.4,1,0,1.4C14.4,38.9,14.1,39,13.9,39z"/><path fill="#ffc107" d="M38.7,24.4c-0.4-0.4-1-0.4-1.4,0c0,0-0.4,0.3-0.9,0.5c-0.6,0.2-1.2,0.1-1.7-0.5c-2-2-4.3-1.1-5.4,0 c-0.3,0.3-1.4,1.2-2.6,0c-1.1-1.1-2.4-1.4-3.8-1c-0.9,0.3-1.6,0.9-1.6,1c-0.3,0.3-1.4,1.2-2.6,0c-1.1-1.1-2.4-1.4-3.8-1 c-0.2,0.1-0.5,0.2-0.6,0.3v2c0.2-0.1,0.4-0.2,0.6-0.3c0.4-0.1,0.7-0.2,1.1-0.2c0,0,0.1,0,0.1,0c0.9,0,1.9,0.4,2.6,1.2 c0.4,0.4,0.8,0.6,1.2,0.6c0,0,0.1,0,0.1,0c0.6,0,1.1-0.4,1.3-0.6c0.1-0.1,0.7-0.7,1.6-1c0.4-0.1,0.7-0.2,1.1-0.2c0,0,0.1,0,0.1,0 c0.9,0,1.8,0.4,2.6,1.2c0.4,0.4,0.9,0.6,1.3,0.6c0,0,0,0,0,0c0.6,0,1.1-0.4,1.3-0.6c0.6-0.6,1.6-1.1,2.7-1.2c0,0,0.1,0,0.1,0 c0.9,0,1.8,0.3,2.6,1.2c0.4,0.4,0.8,0.6,1.2,0.6c0,0,0.1,0,0.1,0c0.1,0,0.3,0,0.4-0.1c0.5-0.2,0.9-0.5,0.9-0.5 c0.1-0.1,0.7-0.7,1.6-1c0,0,0,0,0,0C39.1,25.1,39,24.7,38.7,24.4z"/><path fill="#00bcd4" d="M5,29c0,7.9,5.1,10.6,12.1,13h11.8C35.9,39.6,41,36.9,41,29H5z"/><path fill="#0097a7" d="M40.1,34c0.6-1.4,0.9-3,0.9-5H5c0,2,0.3,3.6,0.9,5H40.1z"/></svg>