<svg xmlns="http://www.w3.org/2000/svg" xmlns:xlink="http://www.w3.org/1999/xlink" viewBox="0 0 48 48"><polygon fill="#81d4fa" points="34,8 28,9 22,8 22,5 34,5"/><polygon fill="#0277bd" points="38,14 34,15 30,14 30,9 34,9"/><polygon fill="#01579b" points="34,8 32,10 38,14"/><polygon fill="#039be5" points="30,14 29,30 30,44 38,44 38,14"/><polygon fill="#81d4fa" points="24,13 17.958,14 17.958,44 30,44 30,14"/><polygon fill="#b3e5fc" points="22,8 18,14 30,14 34,8"/><path fill="#29b6f6" d="M35,30c-1-2-1-5-5-5l-1,10l1,9h8V32C38,32,36,32,35,30z"/><path fill="#b3e5fc" d="M29.958,25c0,0-4,0-6-2s-3-3-6-2v23h12V25z"/><polygon fill="#d88a19" points="29.42,44 26.58,44 11.29,28.71 12.71,27.29"/><path fill="#f9a825" d="M20,31c0,1-0.895,2-2,2s-2-1-2-2c0-2,1-3,2-7C19,28,20,29,20,31z"/><path fill="#f9a825" d="M14.364,27.536c0.707,0.707,0.781,2.047,0,2.828c-0.781,0.781-2.121,0.707-2.828,0 C10.121,28.95,10.121,27.536,8,24C11.536,26.121,12.95,26.121,14.364,27.536z"/><path fill="#f9a825" d="M15,32c1,0,2,0.895,2,2s-1,2-2,2c-2,0-3-1-7-2C12,33,13,32,15,32z"/><path fill="#f9a825" d="M19,36c1,0,2,0.895,2,2s-1,2-2,2c-2,0-3-1-7-2C16,37,17,36,19,36z"/><path fill="#f9a825" d="M23,40c1,0,2,0.895,2,2s-1,2-2,2c-2,0-3-1-7-2C20,41,21,40,23,40z"/><path fill="#f9a825" d="M24,35c0,1-0.895,2-2,2s-2-1-2-2c0-2,1-3,2-7C23,32,24,33,24,35z"/><path fill="#f9a825" d="M28,39c0,1-0.895,2-2,2s-2-1-2-2c0-2,1-3,2-7C27,36,28,37,28,39z"/></svg>