<svg xmlns="http://www.w3.org/2000/svg" xmlns:xlink="http://www.w3.org/1999/xlink" viewBox="0 0 48 48"><path fill="#ffa000" d="M33.9,21.8c-0.4,0.4-1,0.4-1.4,0l-6.3-6.3c-0.4-0.4-0.4-1,0-1.4l4.2-4.2c0.4-0.4,1-0.4,1.4,0 l6.3,6.3c0.4,0.4,0.4,1,0,1.4L33.9,21.8z"/><path fill="#ffca28" d="M36.6 14.7L42 7.4 40.6 6l-7.3 5.4L36.6 14.7zM36.7 23.2c.8-.8.8-2 0-2.8l-9.1-9.1c-.8-.8-2-.8-2.8 0L6.6 29.5c-.8.8-.8 2 0 2.8l9.1 9.1c.8.8 2 .8 2.8 0L36.7 23.2z"/><path fill="#37474f" d="M22 -2.9H26V50.800000000000004H22z" transform="rotate(-45.001 24 24)"/></svg>