<svg xmlns="http://www.w3.org/2000/svg" xmlns:xlink="http://www.w3.org/1999/xlink" viewBox="0 0 48 48"><path fill="#7cb342" d="M41.7,9c0.4-0.4,0.4-0.9,0-1.3c-0.4-0.4-0.9-0.4-1.3,0c0.4-0.4,0.4-0.9,0-1.3 c-0.4-0.4-0.9-0.4-1.3,0c-2.2,2.2-9.1-1.3-14.3,3.9c-4.5,4.6-13.6,15-13.6,15C8,29.8,7,34.7,10.3,38c3.3,3.3,8.1,2.3,12.6-1 c0,0,10.6-8.9,15.1-13.5C43.4,18.1,39.5,11.2,41.7,9z"/><path fill="#f1f8e9" d="M31.4 25c-1.2 0-4.3-1.1-4.3-2.3 0-1.2 3.1-2.3 4.3-2.3s2.1 1 2.1 2.3S32.6 25 31.4 25zM26.9 29.5c-1.2 0-4.3-1.2-4.3-2.3 0-1.1 3.1-2.3 4.3-2.3s2.1 1 2.1 2.3C29 28.5 28.1 29.5 26.9 29.5zM22.4 34.1c-1.2 0-4.3-1.2-4.3-2.3 0-1.1 3.1-2.3 4.3-2.3 1.2 0 2.1 1 2.1 2.3C24.5 33.1 23.5 34.1 22.4 34.1zM17.6 36.9c-.9 0-3.1-.8-3.1-1.7 0-.8 2.2-1.7 3.1-1.7.8 0 1.5.7 1.5 1.7C19.1 36.2 18.4 36.9 17.6 36.9zM37.6 15.4c-.7 0-2.5-.7-2.5-1.3 0-.7 1.8-1.3 2.5-1.3.7 0 1.2.6 1.2 1.3C38.8 14.9 38.3 15.4 37.6 15.4zM23.2 16.7c0 1.2 1.1 4.3 2.3 4.3 1.1 0 2.3-3.1 2.3-4.3 0-1.2-1-2.1-2.3-2.1C24.2 14.5 23.2 15.5 23.2 16.7zM18.7 21.3c0 1.2 1.1 4.3 2.3 4.3s2.3-3.1 2.3-4.3-1-2.2-2.3-2.1C19.7 19.1 18.7 20.1 18.7 21.3zM14.1 25.8c0 1.2 1.1 4.3 2.3 4.3s2.3-3.1 2.3-4.3-1-2.2-2.3-2.2C15.1 23.7 14.1 24.6 14.1 25.8zM11.3 30.6c0 .9.8 3.1 1.6 3.1.8 0 1.6-2.2 1.6-3.1 0-.9-.7-1.5-1.6-1.5C12.1 29.1 11.3 29.7 11.3 30.6zM35.1 20c-1 0-3.5-.9-3.5-1.9s2.5-1.9 3.5-1.9c1 0 1.7.8 1.7 1.9S36 20 35.1 20zM28.1 12.9c0 1 1 3.6 1.9 3.6 1 0 1.9-2.6 1.9-3.6 0-1-.9-1.8-1.9-1.8S28.1 11.9 28.1 12.9zM32.7 10.5c0 .7.7 2.5 1.3 2.5s1.3-1.8 1.3-2.5c0-.7-.6-1.2-1.3-1.2C33.3 9.2 32.7 9.8 32.7 10.5z"/><path fill="#d4e157" d="M10.9,38.6c7.4-7.5,21.3-21.3,21.7-21.8c0.6-0.7,7.8-9.1,7.8-9.1s-8.4,7.2-9.1,7.8L9.6,37.3 L10.9,38.6z"/><path fill="#558b2f" d="M37.5 24.4c1.1-1.1 2.2-2.5 2.8-4.1.6-1.6.8-3.2.8-4.8 0-1.6-.2-3.1-.1-4.7-.2 1.6-.2 3.1-.3 4.7-.1 1.6-.4 3.2-1.1 4.6-.3.7-.8 1.4-1.2 1.9-.5.6-1.1 1.1-1.7 1.6-2.4 2.1-4.8 4.2-7.3 6.2L22.2 36c-1.7 1.1-3.5 2-5.2 2.1-4.6.2-4.5-1-6 .5.7.6 1.5 1.1 2.4 1.5 1.2.5 2.5.8 3.8.7 2.6-.2 4.7-1.4 6.6-2.8l.1-.1 0 0c2.4-2.2 4.7-4.4 7-6.6C33 29 35.3 26.8 37.5 24.4zM23.7 10.6c1.1-1.1 2.5-2.2 4.1-2.8C29.3 7.2 31 7.1 32.6 7c1.6 0 3.1.3 4.7.1-1.6.2-3.1.1-4.7.3-1.6.1-3.1.4-4.5 1.1-.7.3-1.3.8-1.9 1.2-.6.5-1.1 1.1-1.6 1.7-2.1 2.4-4.2 4.9-6.2 7.3L12.2 26c-1.1 1.7-2 3.5-2.1 5.3-.2 4.6 1 4.5-.5 6-.6-.7-1.1-1.5-1.5-2.4-.5-1.2-.8-2.5-.7-3.8.2-2.6 1.4-4.8 2.8-6.6l.1-.1 0 0c2.2-2.4 4.4-4.7 6.6-7C19.1 15.1 21.4 12.9 23.7 10.6z"/><path fill="#558b2f" d="M9.3 37c0 0-4.8-3.9-2.9-11.6C8.4 30.2 9.3 36 9.3 36M11.1 38.8c0 0 3.8 4.8 11.5 2.9-4.8-1.9-10.6-2.9-10.6-2.9"/><path fill="#37474f" d="M22.2 -3H26.2V50.7H22.2z" transform="rotate(-45.001 24.164 23.836)"/></svg>