<svg xmlns="http://www.w3.org/2000/svg" xmlns:xlink="http://www.w3.org/1999/xlink" viewBox="0 0 48 48"><path fill="#90caf9" d="M33,27c0-6.5-4-5-4-19c0,0-8,0-10,0c0,14-4,12.5-4,19v15.5c0,0.8,0.7,1.5,1.5,1.5h15 c0.8,0,1.5-0.7,1.5-1.5V27z"/><path fill="#9c27b0" d="M30,7.5C30,8.3,29.3,9,28.5,9h-9C18.7,9,18,8.3,18,7.5v-1C18,5.7,18.7,5,19.5,5h9 C29.3,5,30,5.7,30,6.5V7.5z"/><path fill="#fafafa" d="M31,40.5c0,0.3-0.2,0.5-0.5,0.5h-13c-0.3,0-0.5-0.2-0.5-0.5V27c0-2.2,0.5-3.1,1.2-4.6 c0.7-1.3,1.4-2.9,2-5.4h7.6c0.6,2.5,1.3,4,2,5.4c0.7,1.5,1.2,2.5,1.2,4.6V40.5z"/><path fill="#37474f" d="M22 -2.9H26V50.800000000000004H22z" transform="rotate(-45.001 24 24)"/></svg>