<?xml version="1.0" encoding="utf-8"?><!-- Generator: Adobe Illustrator 19.1.1, SVG Export Plug-In . SVG Version: 6.00 Build 0)  --><svg xmlns="http://www.w3.org/2000/svg" xmlns:xlink="http://www.w3.org/1999/xlink" version="1.1" x="0px" y="0px" viewBox="0 0 48 48" enable-background="new 0 0 48 48" xml:space="preserve" width="528" height="528">
<path fill="#C0CA33" d="M31.5,25c-3,0-5.5-2.5-5.5-5.5s2.5-5.5,5.5-5.5s5.5,2.5,5.5,5.5S34.5,25,31.5,25z M31.5,16  c-1.9,0-3.5,1.6-3.5,3.5s1.6,3.5,3.5,3.5s3.5-1.6,3.5-3.5S33.4,16,31.5,16z M29,7L29,7c0-0.6-0.4-1-1-1l-8,0c-0.6,0-1,0.4-1,1v0  c0,0.6,0.4,1,1,1l8,0C28.6,8,29,7.6,29,7z"/>
<path fill="#E6EE9C" d="M20,8l0,11c0,1.3-0.9,2.6-2.1,3C12.6,23.7,9,27.5,9,32c0,5.1,5.7,10.8,7.5,12.5c0.3,0.3,0.8,0.5,1.2,0.5  h12.8c0.3,0,0.7-0.1,1-0.3c3-2,7.6-8,7.6-12.7c0-4.5-3.6-8.3-8.9-10c-1.3-0.4-2.1-1.6-2.1-3l0-11H20z"/>
<path fill="#B2EBF2" d="M31,45"/>
<path fill="#B2EBF2" d="M31,45c0.1,0,0.5-0.2,1-0.7"/>
<path fill="#B2EBF2" d="M31,45C31,45,31,45,31,45"/>
<path fill="#AFB42B" d="M12.4,28c-0.9,1.2-1.4,2.6-1.4,4c0,3.4,3.5,7.9,6.8,11h12.6c2.7-1.9,6.6-7.2,6.6-11c0-1.4-0.5-2.8-1.4-4  H12.4z"/>
<rect x="21" y="3" fill="#795548" width="6" height="3"/>
<rect x="21" y="6" fill="#AFB42B" width="6" height="2"/>
<path fill="#F0F4C3" d="M13,32c0,2.1,2.6,5.7,6,9c-2.9-3-4-7.8-4-9c0-1.8,1-3.1,2.9-4c-1,0-2.2,0-3.4,0C13.5,29.2,13,30.6,13,32z"/>
<path fill="#F9FBE7" d="M23,16c0,5.4-2,8.8-4.9,9.8c-1.6,0.5-2.8,1.3-3.6,2.2c1.1,0,2.3,0,3.4,0c0.3-0.1,0.5-0.2,0.8-0.3  C20.9,27,23,24.5,23,16z"/>
</svg>