<svg xmlns="http://www.w3.org/2000/svg" xmlns:xlink="http://www.w3.org/1999/xlink" viewBox="0 0 48 48"><path fill="#546e7a" d="M38.5 15c-.3 0-.5-.1-.7-.3-.4-.4-.4-1 0-1.4l1.5-1.5c.9-.9.9-2.3 0-3.1-.9-.9-2.3-.9-3.1 0l-1.5 1.5c-.4.4-1 .4-1.4 0s-.4-1 0-1.4l1.5-1.5c1.6-1.6 4.3-1.6 6 0 1.6 1.6 1.6 4.3 0 6l-1.5 1.5C39.1 14.9 38.8 15 38.5 15zM10.2 42c-1.1 0-2.2-.4-3-1.2-1.6-1.6-1.6-4.3 0-6l1.5-1.5c.4-.4 1-.4 1.4 0s.4 1 0 1.4l-1.5 1.5c-.9.9-.9 2.3 0 3.1.9.9 2.3.9 3.1 0l1.5-1.5c.4-.4 1-.4 1.4 0s.4 1 0 1.4l-1.5 1.5C12.4 41.6 11.3 42 10.2 42z"/><path fill="#607d8b" d="M43,24c0,10.5-8.5,19-19,19S5,34.5,5,24S13.5,5,24,5S43,13.5,43,24z"/><path fill="#ffd54f" d="M40,24c0,8.8-7.2,16-16,16S8,32.8,8,24S15.2,8,24,8S40,15.2,40,24z"/><path fill="#fff3e0" d="M17.5,17c0.3,0,0.5-0.2,0.5-0.5S17.8,16,17.5,16S17,16.2,17,16.5S17.2,17,17.5,17z M19.5,18 c-0.3,0-0.5,0.2-0.5,0.5s0.2,0.5,0.5,0.5s0.5-0.2,0.5-0.5S19.8,18,19.5,18z M22.5,16c-0.3,0-0.5,0.2-0.5,0.5s0.2,0.5,0.5,0.5 s0.5-0.2,0.5-0.5S22.8,16,22.5,16z M33.5,26c-0.3,0-0.5,0.2-0.5,0.5s0.2,0.5,0.5,0.5s0.5-0.2,0.5-0.5S33.8,26,33.5,26z M35.5,24 c-0.3,0-0.5,0.2-0.5,0.5s0.2,0.5,0.5,0.5s0.5-0.2,0.5-0.5S35.8,24,35.5,24z M38.5,24c-0.3,0-0.5,0.2-0.5,0.5s0.2,0.5,0.5,0.5 s0.5-0.2,0.5-0.5S38.8,24,38.5,24z M37.5,27c-0.3,0-0.5,0.2-0.5,0.5s0.2,0.5,0.5,0.5s0.5-0.2,0.5-0.5S37.8,27,37.5,27z M34.5,30 c-0.3,0-0.5,0.2-0.5,0.5s0.2,0.5,0.5,0.5s0.5-0.2,0.5-0.5S34.8,30,34.5,30z M30.5,30c-0.3,0-0.5,0.2-0.5,0.5s0.2,0.5,0.5,0.5 s0.5-0.2,0.5-0.5S30.8,30,30.5,30z M30.5,20c0.3,0,0.5-0.2,0.5-0.5S30.8,19,30.5,19S30,19.2,30,19.5S30.2,20,30.5,20z M34.5,21 c0.3,0,0.5-0.2,0.5-0.5S34.8,20,34.5,20S34,20.2,34,20.5S34.2,21,34.5,21z M34.5,16c0.3,0,0.5-0.2,0.5-0.5S34.8,15,34.5,15 S34,15.2,34,15.5S34.2,16,34.5,16z M31.5,12c-0.3,0-0.5,0.2-0.5,0.5s0.2,0.5,0.5,0.5s0.5-0.2,0.5-0.5S31.8,12,31.5,12z M27.5,13 c-0.3,0-0.5,0.2-0.5,0.5s0.2,0.5,0.5,0.5s0.5-0.2,0.5-0.5S27.8,13,27.5,13z M23.5,11c0.3,0,0.5-0.2,0.5-0.5S23.8,10,23.5,10 S23,10.2,23,10.5S23.2,11,23.5,11z M19.5,12c0.3,0,0.5-0.2,0.5-0.5S19.8,11,19.5,11S19,11.2,19,11.5S19.2,12,19.5,12z M11.5,21 c-0.3,0-0.5,0.2-0.5,0.5s0.2,0.5,0.5,0.5s0.5-0.2,0.5-0.5S11.8,21,11.5,21z M14.5,24c-0.3,0-0.5,0.2-0.5,0.5s0.2,0.5,0.5,0.5 s0.5-0.2,0.5-0.5S14.8,24,14.5,24z M10.5,25c-0.3,0-0.5,0.2-0.5,0.5s0.2,0.5,0.5,0.5s0.5-0.2,0.5-0.5S10.8,25,10.5,25z M12.5,16 c-0.3,0-0.5,0.2-0.5,0.5s0.2,0.5,0.5,0.5s0.5-0.2,0.5-0.5S12.8,16,12.5,16z M23.5,24c-0.3,0-0.5,0.2-0.5,0.5s0.2,0.5,0.5,0.5 s0.5-0.2,0.5-0.5S23.8,24,23.5,24z M23.5,21c-0.3,0-0.5,0.2-0.5,0.5s0.2,0.5,0.5,0.5s0.5-0.2,0.5-0.5S23.8,21,23.5,21z M16.5,21 c-0.3,0-0.5,0.2-0.5,0.5s0.2,0.5,0.5,0.5s0.5-0.2,0.5-0.5S16.8,21,16.5,21z M9.5,21C9.2,21,9,21.2,9,21.5S9.2,22,9.5,22 s0.5-0.2,0.5-0.5S9.8,21,9.5,21z M9.5,19c0.3,0,0.5-0.2,0.5-0.5S9.8,18,9.5,18S9,18.2,9,18.5S9.2,19,9.5,19z M37.5,19 c0.3,0,0.5-0.2,0.5-0.5S37.8,18,37.5,18S37,18.2,37,18.5S37.2,19,37.5,19z M37.5,22c0.3,0,0.5-0.2,0.5-0.5S37.8,21,37.5,21 S37,21.2,37,21.5S37.2,22,37.5,22z M36.5,32c-0.3,0-0.5,0.2-0.5,0.5s0.2,0.5,0.5,0.5s0.5-0.2,0.5-0.5S36.8,32,36.5,32z M31.5,27 c-0.3,0-0.5,0.2-0.5,0.5s0.2,0.5,0.5,0.5s0.5-0.2,0.5-0.5S31.8,27,31.5,27z M27.5,22c-0.3,0-0.5,0.2-0.5,0.5s0.2,0.5,0.5,0.5 s0.5-0.2,0.5-0.5S27.8,22,27.5,22z M29.5,26c0.3,0,0.5-0.2,0.5-0.5S29.8,25,29.5,25S29,25.2,29,25.5S29.2,26,29.5,26z M30.5,34 c-0.3,0-0.5,0.2-0.5,0.5s0.2,0.5,0.5,0.5s0.5-0.2,0.5-0.5S30.8,34,30.5,34z M26.5,34c-0.3,0-0.5,0.2-0.5,0.5s0.2,0.5,0.5,0.5 s0.5-0.2,0.5-0.5S26.8,34,26.5,34z M26.5,29c-0.3,0-0.5,0.2-0.5,0.5s0.2,0.5,0.5,0.5s0.5-0.2,0.5-0.5S26.8,29,26.5,29z M21.5,31 c-0.3,0-0.5,0.2-0.5,0.5s0.2,0.5,0.5,0.5s0.5-0.2,0.5-0.5S21.8,31,21.5,31z M18.5,30c-0.3,0-0.5,0.2-0.5,0.5s0.2,0.5,0.5,0.5 s0.5-0.2,0.5-0.5S18.8,30,18.5,30z M18.5,10c0.3,0,0.5-0.2,0.5-0.5S18.8,9,18.5,9S18,9.2,18,9.5S18.2,10,18.5,10z M17.5,34 c-0.3,0-0.5,0.2-0.5,0.5s0.2,0.5,0.5,0.5s0.5-0.2,0.5-0.5S17.8,34,17.5,34z M20.5,37c-0.3,0-0.5,0.2-0.5,0.5s0.2,0.5,0.5,0.5 s0.5-0.2,0.5-0.5S20.8,37,20.5,37z M24.5,38c-0.3,0-0.5,0.2-0.5,0.5s0.2,0.5,0.5,0.5s0.5-0.2,0.5-0.5S24.8,38,24.5,38z M29.5,37 c-0.3,0-0.5,0.2-0.5,0.5s0.2,0.5,0.5,0.5s0.5-0.2,0.5-0.5S29.8,37,29.5,37z M12.5,31c-0.3,0-0.5,0.2-0.5,0.5s0.2,0.5,0.5,0.5 s0.5-0.2,0.5-0.5S12.8,31,12.5,31z M19.5,24c-0.3,0-0.5,0.2-0.5,0.5s0.2,0.5,0.5,0.5s0.5-0.2,0.5-0.5S19.8,24,19.5,24z"/><path fill="#ff6f41" d="M18.1,17.1c-0.3,1.7-1.3,2.9-1.6,2.9c-0.3-0.1-0.8-1.6-0.5-3.3c0.3-1.7,1-3,1.6-2.9 C18.2,14,18.4,15.4,18.1,17.1z"/><path fill="#37474f" d="M16.6 20c0 0-1.6-1-1.6-3.5 0-2.5 1.6-3.5 1.6-3.5V20zM16.6 20c0 0 1.8-.4 2.7-2.7.9-2.3-.2-3.8-.2-3.8L16.6 20z"/><path fill="#ff6f41" d="M36,24.1c1.7-0.2,3.2,0.3,3.2,0.6s-1.3,1.1-3,1.5c-1.4,0.3-3.2-0.6-3.2-0.6 C33,24.9,34.3,24.3,36,24.1z"/><path fill="#37474f" d="M39.2 24.6c0 0-.5 1.8-2.9 2.5-.8-.8-1.6-1.1-1.6-1.1L39.2 24.6zM39.2 24.6c0 0-.9-1.6-3.4-1.7-2.5-.1-3.6 1.4-3.6 1.4L39.2 24.6z"/><path fill="#ff6f41" d="M23.3,33.4c1,1.4,1.2,3,1,3.1c-0.3,0.2-1.6-0.5-2.6-2c-1-1.4-1.4-2.8-1-3.1 C21.1,31.1,22.3,32,23.3,33.4z"/><path fill="#37474f" d="M24.2 36.5c0 0-1.8.4-3.6-1.4-1.8-1.8-1.4-3.6-1.4-3.6L24.2 36.5zM24.3 36.5c0 0 1-1.5 0-3.8-1-2.3-2.9-2.5-2.9-2.5L24.3 36.5z"/><path fill="#e57373" d="M13.5,23.1c1.8-0.4,3.2,0.6,3.7,1.5l0.2,0c0,0,0.4,0.5,0.6,3c0.1,1.9-0.6,3.4-0.6,3.4 c-0.1-0.1-0.3-0.4-0.4-0.5c-0.2,0.1-0.4,0.3-0.4,0.3s-1.1-2.3-1.4-3c-0.3-0.9-0.6-1.8-0.6-1.8l0.2-0.2c0,0-1.2-1.2-1.6,0.5 c-0.3,1.3-0.2,3.1,0.1,3.5c0.8,0.7,1,1.4,1.2,2.1c-0.3,0.3-0.7,0.3-1.2,0.1c-0.3-0.2-0.7-1.1-0.9-1.8C12.1,29,9.9,24.3,13.5,23.1z"/><path fill="#37474f" d="M17.4,29c0,0.2-0.1,0.3-0.3,0.3s-0.3-0.1-0.3-0.3s0.1-0.3,0.3-0.3S17.4,28.8,17.4,29z"/><path fill="#cc5e5e" d="M11.8 24.5l1.7 1.2c0 0 0 0 0 0L12 24.2C11.9 24.3 11.8 24.4 11.8 24.5zM13 28.1l-1.3.2c0 .1 0 .1.1.2L13 28.1zM11.5 26.8l1.6-.1c0 0 0 0 0 0l-1.7-.1C11.5 26.7 11.5 26.8 11.5 26.8zM14.5 23l-.2 2.5c0 0 0 0 0 0l.6-2.5C14.7 23 14.6 23 14.5 23zM14.7 25.9l2.5-1.3c-.1-.1-.2-.2-.3-.4L14.7 25.9z"/><path fill="#e57373" d="M25.3,17.9c0.9,0.8,0.9,1.9,0.6,2.5l0.1,0.1c0,0-0.1,0.4-1.3,1.4c-0.9,0.8-2,0.9-2,0.9 c0-0.1,0.1-0.3,0.1-0.4c-0.1,0-0.3-0.1-0.3-0.1s0.8-1.4,1-1.8c0.3-0.5,0.7-1,0.7-1l0.2,0c0,0,0.2-1.1-0.8-0.6 c-0.8,0.3-1.6,1.1-1.8,1.3c-0.1,0.7-0.3,1-0.6,1.4c-0.2,0-0.4-0.3-0.5-0.6c0-0.2,0.3-0.8,0.6-1.1C21.7,19.3,23.3,16.5,25.3,17.9z"/><path fill="#37474f" d="M23.7,21.8c-0.1-0.1-0.2-0.1-0.3,0c-0.1,0.1-0.1,0.2,0,0.3c0.1,0.1,0.2,0.1,0.3,0 C23.8,22,23.8,21.9,23.7,21.8z"/><path fill="#cc5e5e" d="M23.9 17.5l0 1.3c0 0 0 0 0 0l.2-1.3C24.1 17.5 24 17.5 23.9 17.5zM22.5 19.5L22 18.9c0 0-.1.1-.1.1L22.5 19.5zM22.6 18.2l.7.8c0 0 0 0 0 0l-.5-.9C22.7 18.2 22.6 18.2 22.6 18.2zM25.7 18.3l-1.4.8c0 0 0 0 0 0l1.5-.6C25.8 18.5 25.7 18.4 25.7 18.3zM24.3 19.6l1.6.8c0-.1.1-.2.1-.3L24.3 19.6z"/><path fill="#e57373" d="M35.7,31.7c1.2,1,1.1,2.4,0.8,3.2l0.1,0.1c0,0-0.2,0.5-1.8,1.9c-1.2,1-2.6,1.2-2.6,1.2 c0-0.1,0.1-0.4,0.1-0.5c-0.2-0.1-0.4-0.1-0.4-0.1s1-1.9,1.3-2.4c0.4-0.6,0.9-1.3,0.9-1.3l0.2,0.1c0,0,0.2-1.4-1.1-0.8 c-1,0.4-2.1,1.4-2.3,1.7c-0.1,0.9-0.4,1.3-0.8,1.8c-0.3,0-0.5-0.3-0.7-0.7c0-0.3,0.4-1,0.8-1.5C31.1,33.6,33.1,29.9,35.7,31.7z"/><path fill="#37474f" d="M33.7,36.8c-0.1-0.1-0.2-0.1-0.3-0.1c-0.1,0.1-0.1,0.2-0.1,0.3c0.1,0.1,0.2,0.1,0.3,0.1 C33.8,37.1,33.8,36.9,33.7,36.8z"/><path fill="#cc5e5e" d="M34 31.2l0 1.7c0 0 0 0 0 0l.3-1.7C34.2 31.2 34.1 31.2 34 31.2zM32.2 33.8l-.8-.8c0 0-.1.1-.1.1L32.2 33.8zM32.3 32.2l.9 1 0 0L32.4 32C32.4 32.1 32.3 32.1 32.3 32.2zM36.3 32.3l-1.8 1.1c0 0 0 0 0 0l2-.8C36.4 32.5 36.3 32.4 36.3 32.3zM34.5 33.9l2.1 1c0-.1.1-.2.1-.3L34.5 33.9z"/><path fill="#ffecb3" d="M26.1 32.2c-.5 0-.8-.2-1-.4-.8-.6-.9-2-.9-3.3 0-1.8 1.2-3.3 2.7-3.3 1.5 0 2.7 1.5 2.7 3.3 0 1.7-1.4 3.3-3.2 3.6C26.3 32.2 26.2 32.2 26.1 32.2zM26.9 26.3c-.9 0-1.7 1-1.7 2.3 0 .5 0 2.1.5 2.5.1.1.2.2.5.1 1.2-.2 2.4-1.3 2.4-2.6C28.6 27.3 27.8 26.3 26.9 26.3zM10.8 24.1c-.2 0-.4 0-.5-.1-.9-.2-1.7-.8-2.2-1.6-.9-1.4-.6-3.6.7-4.8.5-.5 1-.5 1.3-.5 1 .1 1.8 1.2 2.5 2.2.5.7.7 1.5.6 2.3-.1.8-.5 1.5-1.1 1.9C11.7 24 11.3 24.1 10.8 24.1zM9.9 18.3c-.1 0-.2 0-.4.2-.9.8-1.3 2.4-.6 3.5l0 0c.4.6 1 1 1.6 1.1.3.1.7.1 1.1-.2.4-.2.6-.7.6-1.2 0-.6-.1-1.2-.5-1.7C11.5 19.6 10.6 18.3 9.9 18.3 9.9 18.3 9.9 18.3 9.9 18.3zM17.1 39.1c-.2 0-.3 0-.5 0-.7-.2-1.4-.6-1.9-1.3l0 0c-.8-1.2-.5-3 .6-4.1.4-.4.9-.4 1.1-.4.9.1 1.5 1 2.1 1.9.9 1.3.7 2.9-.4 3.6C17.9 39 17.5 39.1 17.1 39.1zM16.3 34.2c-.1 0-.2 0-.3.1-.7.6-1 1.9-.4 2.8l0 0c.3.5.8.8 1.3.9.2 0 .6.1.9-.1.6-.4.7-1.4.1-2.2C17.6 35.3 16.9 34.3 16.3 34.2 16.3 34.2 16.3 34.2 16.3 34.2zM26.7 12.3c-1.3 0-2.4-.8-2.6-1.9-.2-1.3.8-2.5 2.4-2.8l0 0c1.4-.3 3 .7 3.5 2.2.2.6.1 1-.1 1.2-.4.7-1.6 1-2.6 1.2C27 12.2 26.9 12.3 26.7 12.3zM26.6 8.6c-1 .2-1.7.9-1.5 1.6.1.7 1 1.2 2 1 .4-.1 1.6-.3 1.9-.7 0-.1.1-.2 0-.4C28.7 9.2 27.6 8.4 26.6 8.6L26.6 8.6zM34.1 21.1c-1.3 0-2.4-.8-2.6-1.9-.2-1.3.8-2.5 2.4-2.8 1.4-.3 3 .7 3.5 2.2.2.6.1 1-.1 1.2-.4.7-1.6 1-2.6 1.2C34.5 21.1 34.3 21.1 34.1 21.1zM34.4 17.4c-.1 0-.2 0-.3 0-1 .2-1.7.9-1.5 1.6.1.7 1.1 1.2 2 1 1.1-.2 1.7-.4 1.9-.7 0-.1.1-.2 0-.4C36.2 18.2 35.3 17.4 34.4 17.4z"/><path fill="#37474f" d="M27.9,19c0.4-2.1,2.4-4.1,3.1-4c0.7,0.1,2.1,2.7,1.7,4.8s-1.7,3-3,2.8C28.4,22.4,27.6,21.1,27.9,19z"/><path fill="#ff6f41" d="M29.4,19.6c0.2-0.9,1.1-1.8,1.4-1.8s0.9,1.2,0.8,2.1c-0.2,0.9-0.8,1.3-1.3,1.2 C29.6,21.1,29.2,20.5,29.4,19.6z"/></svg>