<svg xmlns="http://www.w3.org/2000/svg" xmlns:xlink="http://www.w3.org/1999/xlink" viewBox="0 0 48 48"><path fill="#8bc34a" d="M30,6c0,1.1-0.9,2-2,2s-2-0.9-2-2c0-1.1,0.9-2,2-2S30,4.9,30,6z"/><path fill="#8bc34a" d="M25,13h-2c0-8,4.4-8.8,4.6-8.9L28,8C27.8,8.1,25,7.7,25,13z"/><path fill="#ff3d00" d="M19,44c-1.4,0-2.8-0.6-3.8-1.7C8.2,34.1,8,20.5,8,19c0-2.8,2.2-5,5-5c2.8,0,5,2.2,5,5 c0,3.1,0.9,12.2,4.8,16.8c1.8,2.1,1.6,5.3-0.5,7.1C21.3,43.6,20.2,44,19,44z"/><path fill="#ff3d00" d="M29,44c-1,0-1.9-0.3-2.8-0.8c-2.3-1.5-2.9-4.6-1.4-6.9c5-7.6,5.2-17.2,5.2-17.3c0-2.8,2.3-5,5-5 c0,0,0,0,0,0c2.8,0,5,2.2,5,5c0,0.5-0.1,12.6-6.8,22.8C32.2,43.2,30.6,44,29,44z"/><path fill="#ff3d00" d="M33.9,15.5c-0.3-2.6-2.6-4.4-5.2-4.5c0,0,0,0,0,0c-0.1,0-0.3,0-0.4,0c-0.1,0-0.1,0-0.2,0 c0,0-0.1,0-0.1,0c-0.3,0-0.6,0.1-0.9,0.2c0,0,0,0-0.1,0c-1.3,0.3-2.5,0.8-3.1,0.8c-0.8,0-2.3-0.8-4.1-1c0,0,0,0,0,0c0,0,0,0-0.1,0 c-0.2,0-0.3,0-0.5,0c0,0,0,0,0,0c-2.6,0-4.9,1.9-5.2,4.4c0,0.4-1.1,10.3,3.4,22.3c0.4,1.1,1.3,2.7,2.3,3.8C20.6,43,22.2,44,24,44 c1.9,0,3.5-1.1,4.3-2.6c0.9-1.1,1.7-2.6,2.1-3.6C34.9,25.8,33.9,15.9,33.9,15.5z"/><path fill="#dd2c00" d="M35.6 14c-.2 0-.5-.1-.7-.1-.5 0-.9.1-1.3.2.2.4.3.8.4 1.3 0 .4 1 10.3-3.5 22.2-.4 1.1-1.2 2.5-2.1 3.6-.2.5-.5.9-.9 1.2C35.9 39.3 36.8 18.8 35.6 14zM19.9 41.5c-1-1.1-1.9-2.7-2.3-3.8-4.5-12-3.5-21.8-3.4-22.3.1-.4.2-.8.3-1.2C14 14.1 13.4 14 13 14c-.2 0-.5 0-.7.1C11 18.9 12 39.9 20.8 42.7 20.4 42.4 20.1 42 19.9 41.5z"/><path fill="#ff9e80" d="M17 18c-.6 0-1-.4-1-1 0-1.4 1.3-4 3-4 .6 0 1 .4 1 1 0 .5-.4 1-1 1-.4.2-1 1.4-1 2C18 17.5 17.6 18 17 18zM19.1 15L19.1 15 19.1 15zM19 34c-.4 0-.7-.2-.9-.6C16 29.3 16 22.3 16 22c0-.6.4-1 1-1 .6 0 1 .4 1 1 0 .1 0 6.8 1.9 10.6.2.5 0 1.1-.4 1.3C19.3 34 19.2 34 19 34z"/></svg>