<svg xmlns="http://www.w3.org/2000/svg" xmlns:xlink="http://www.w3.org/1999/xlink" viewBox="0 0 48 48"><path fill="#fca538" d="M41.745,15.959c0-2.557-35.49-2.557-35.49,0c0,1.41,3.365,8.971,3.858,10.03c1.013,2.178,5.365,5.401,13.887,5.401s12.882-2.983,13.887-5.401C38.296,25.006,41.745,17.368,41.745,15.959z"/><path fill="#ffb74d" d="M24 5A19 9.087 0 1 0 24 23.174A19 9.087 0 1 0 24 5Z"/><path fill="#ffc268" d="M24,20.696c-9.614,0-17.555-3.416-18.819-7.848C5.065,13.253,5,13.666,5,14.087c0,5.019,8.507,9.087,19,9.087s19-4.068,19-9.087c0-0.421-0.065-0.834-0.181-1.239C41.555,17.28,33.614,20.696,24,20.696z"/><path fill="#fb8d03" d="M24 8.166A13.722 5.278 0 1 0 24 18.722A13.722 5.278 0 1 0 24 8.166Z"/><path fill="#795548" d="M19.812 9.486c.234 1.147-1.016 1.164-1.304 1.953-.113.308.014.676-.139.967-.142.27-.474.375-.777.406-.525.052-1.053-.043-1.573-.139-.742-.137-1.5-.18-2.229-.388-.66-.188-1.231-.912-1.857-.881-.256.013-.589-.035-.645-.285-.058-.259.236-.439.437-.614.156-.136.272-.311.403-.472.708-.876 1.721-1.028 2.686-1.481.451-.212.806-.488 1.306-.628.381-.106.762-.213 1.143-.319.363-.101.775-.197 1.097-.001.367.223.427.72.698 1.001C19.355 8.912 19.714 9.004 19.812 9.486zM30.37 8.733c.058.063.122.123.2.182.321.242.657.417.929.725.042.047.084.102.086.165.004.127-.146.197-.271.222-.376.074-.766.046-1.144.108-.286.046-.561.143-.834.239-.45.158-.906.319-1.3.587-.339.23-.637.54-1.028.661-.391.12-.923-.069-.959-.477-.03-.344.3-.651.246-.991-.185-1.156-2.48-.545-3.095-1.014-.085-.065-.158-.16-.152-.266.009-.157.178-.249.326-.304.656-.244 1.321-.287 1.94-.609.701-.364 1.408-.538 2.205-.53.802.009 1.839.161 2.421.775C30.112 8.386 30.216 8.566 30.37 8.733zM38.125 13.223c-.007.113-.032.237-.079.374-.293.863-1.483 1.872-2.354 2.14-.337.104-.794-.059-.825-.41-.026-.296.258-.56.211-.853-.159-.994-2.134-.469-2.663-.873-.073-.056-.136-.137-.131-.229.008-.135.153-.214.28-.261.413-.154.853-.212 1.268-.357.564-.197.675-.045 1.196.252.121.069.248.138.387.144.233.01.43-.154.623-.285C36.639 12.458 38.202 11.946 38.125 13.223zM24.252 13.526c-.004.066-.019.138-.046.217-.155.457-.597.841-1.002 1.077-.47.273-.929.114-1.341-.23-.122-.102-.221-.228-.318-.354-.029-.037-.058-.074-.086-.111-.07-.09-.143-.229-.241-.291-.081-.051-.197-.024-.283-.089-.042-.032-.079-.08-.076-.133.005-.079.089-.124.163-.152.24-.089.496-.123.737-.207.293-.102.624-.057.926-.03.3.027.448.012.721-.085C23.778 13.006 24.284 13.002 24.252 13.526zM16.668 16.717c-.016.064-.047.13-.094.197-.273.383-.896.544-1.448.572-.641.033-1.194-.367-1.656-.929-.137-.167-.24-.346-.343-.524-.03-.052-.06-.105-.091-.157-.074-.128-.143-.307-.256-.42-.094-.094-.245-.126-.343-.238-.048-.055-.087-.122-.074-.174.019-.077.134-.08.232-.07.318.034.647.132.967.172.388.048.799.266 1.176.45.374.183.564.244.925.287C16.156 15.942 16.797 16.202 16.668 16.717z"/><path fill="#fca538" d="M41.154,37.685c-0.672-0.221-26.949-6.183-27.467-6.283s-2.509-0.332-3.093,1.998c-0.438,1.747,0.587,2.675,1.362,2.842c0.527,0.113,26.676,6.419,27.422,6.618c1.052,0.28,3.019,0.344,3.535-1.798C43.448,38.836,42.249,38.045,41.154,37.685z"/><path fill="#ffb74d" d="M41.154,37.685c-0.672-0.221-1.785-0.017-2.369,2.313c-0.438,1.747-0.154,2.663,0.592,2.862c1.052,0.28,3.019,0.344,3.535-1.798C43.448,38.836,42.249,38.045,41.154,37.685z"/><path fill="#795548" d="M11.975,33.805c0,0,28.475,6.23,29.104,6.347c-0.894-0.202-1.088-0.699-0.988-1.098c0.137-0.544,0.707-0.636,1.041-0.544c0.89,0.244,1.101,1.454,0.906,2.169c-0.196,0.715-1.032,1.742-1.752,1.543c-0.542-0.15-0.828-0.571-0.692-0.967c0.156-0.455,0.641-0.622,1.166-0.478C40.449,40.457,11.975,33.805,11.975,33.805z"/></svg>