<?xml version="1.0" encoding="utf-8"?><!-- Generator: Adobe Illustrator 15.0.0, SVG Export Plug-In . SVG Version: 6.00 Build 0)  --><!DOCTYPE svg PUBLIC "-//W3C//DTD SVG 1.1//EN" "http://www.w3.org/Graphics/SVG/1.1/DTD/svg11.dtd"><svg xmlns="http://www.w3.org/2000/svg" xmlns:xlink="http://www.w3.org/1999/xlink" version="1.1" x="0px" y="0px" width="528" height="528" viewBox="0 0 48 48" enable-background="new 0 0 48 48" xml:space="preserve">
<g>
	<path fill="#F48FB1" d="M34.717,17.486c-0.548,0-4.203-3.655-4.203-4.202l-1.04-5.653c0-0.548,0.443-0.99,0.989-0.99   c0,0,5.654-0.36,8.455,2.441c2.802,2.801,2.441,8.454,2.441,8.454c0,0.547-0.444,0.99-0.99,0.99L34.717,17.486z"/>
	<path fill="#FF80AB" d="M34.413,25.744l-1.048-6.906c-0.412-1.651-2.414-3.79-4.203-4.203l-6.714-1.012   c-2.337-0.55-4.811,0.551-5.773,2.749l-5.771,16.523l4.202,4.201l16.559-5.854C33.864,30.279,35.101,27.942,34.413,25.744z"/>
</g>
<path fill="#F8BBD0" d="M33.365,17.437c-0.387,0.388-3.189-2.414-2.802-2.802l5.554-8.354c0.387-0.387,2.101-0.7,4.201,1.401  c2.102,2.101,1.788,3.814,1.401,4.201L33.365,17.437z"/>
<polygon fill="#9FA8DA" points="12.304,38.497 9.503,35.696 6,40.6 7.4,42 "/>
<path fill="#3F51B5" d="M8.803,34.996c-0.389,0.387-0.389,1.014,0,1.4l2.801,2.802c0.387,0.388,1.014,0.388,1.4,0l2.102-2.102  l-4.202-4.201L8.803,34.996z"/>
<g>
	<path fill="#E91E63" d="M26.464,18.958c-0.796,0.416-2.757,0.477-3.125-0.295c-0.564-0.768,0.645-1.784,1.636-2.207   c1.188-0.428,5.272-0.637,5.272-0.637S27.849,18.523,26.464,18.958z"/>
	<path fill="#E91E63" d="M32.181,17.753c0,0-0.208,4.085-0.637,5.272c-0.423,0.991-1.439,2.2-2.208,1.636   c-0.771-0.368-0.71-2.328-0.294-3.125C29.477,20.151,32.181,17.753,32.181,17.753z"/>
	
		<rect x="28.943" y="15.095" transform="matrix(0.707 0.7072 -0.7072 0.707 20.7255 -17.8566)" fill="#E91E63" width="5.942" height="1.98"/>
</g>
</svg>