<svg xmlns="http://www.w3.org/2000/svg" xmlns:xlink="http://www.w3.org/1999/xlink" viewBox="0 0 48 48"><path fill="#ef6c00" d="M19.361,11.016C19.164,13.485,19,16.719,19,21c0,1.35-0.178,2.995-0.384,4.901C18.327,28.568,18,31.592,18,35v4v0.5c0,1.378,1.122,2.5,2.5,2.5s2.5-1.122,2.5-2.5V39c0-17.638,0.454-27.446,1-31.728c0.546,4.281,1,14.09,1,31.728v0.5c0,1.378,1.122,2.5,2.5,2.5s2.5-1.122,2.5-2.5V39v-4c0-3.408-0.327-6.432-0.616-9.101C29.178,23.995,29,22.35,29,21c0-4.28-0.164-7.514-0.361-9.983C28.578,10.016,27,4,24,4S19.406,10.031,19.361,11.016z"/><path fill="#ff9800" d="M35.969,19.687c-0.258-9.043-2.983-14.333-4.05-16.062c-0.232-0.376-0.566-0.794-0.645-0.875C30.822,2.289,30.197,2,29.5,2C28.119,2,27,3.119,27,4.5c0,1.75,1,6.027,1,16.5c0,1.404,0.181,3.075,0.39,5.009C28.676,28.651,29,31.647,29,35v4v0.5c0,0.828-0.672,1.5-1.5,1.5S26,40.328,26,39.5V39c0-5.125,0-35-2-35s-2,29.875-2,35v0.5c0,0.828-0.672,1.5-1.5,1.5S19,40.328,19,39.5V39v-4c0-3.353,0.324-6.349,0.61-8.991C19.819,24.075,20,22.404,20,21c0-10.473,1-14.75,1-16.5C21,3.119,19.881,2,18.5,2c-0.697,0-1.322,0.289-1.774,0.75c-0.079,0.081-0.413,0.499-0.645,0.875c-1.068,1.729-3.792,7.019-4.05,16.062C10.771,21.101,10,22.958,10,25c0,2.026,0.759,3.87,2,5.279c0,2.151,0,4.618,0,6.721c0,4.971,4.029,9,9,9c1.054,0,2.06-0.19,3-0.523C24.94,45.81,25.946,46,27,46c4.971,0,9-4.029,9-9c0-2.102,0-4.569,0-6.721c1.241-1.409,2-3.254,2-5.279C38,22.958,37.229,21.101,35.969,19.687z"/><path fill="#f57c00" d="M32,36c0.553,0,1-0.447,1-1c0-4.372-0.736-7.957-0.965-8.965C32.289,25.176,33,22.455,33,19c0-3.088-0.988-7.074-1.03-7.242c-0.134-0.537-0.676-0.865-1.212-0.728c-0.536,0.134-0.861,0.677-0.728,1.212C30.039,12.281,31,16.161,31,19c0,3.794-0.939,6.655-0.948,6.684c-0.061,0.181-0.068,0.374-0.022,0.559C30.039,26.281,31,30.193,31,35C31,35.553,31.447,36,32,36z"/><path fill="#f57c00" d="M16,36c-0.553,0-1-0.447-1-1c0-4.372,0.736-7.957,0.965-8.965C15.711,25.176,15,22.455,15,19c0-3.088,0.988-7.074,1.03-7.242c0.134-0.537,0.676-0.865,1.212-0.728c0.536,0.134,0.861,0.677,0.728,1.212C17.961,12.281,17,16.161,17,19c0,3.794,0.939,6.655,0.948,6.684c0.061,0.181,0.068,0.374,0.022,0.559C17.961,26.281,17,30.193,17,35C17,35.553,16.553,36,16,36z"/></svg>