<?xml version="1.0" encoding="utf-8"?><!-- Generator: Adobe Illustrator 15.0.0, SVG Export Plug-In . SVG Version: 6.00 Build 0)  --><!DOCTYPE svg PUBLIC "-//W3C//DTD SVG 1.1//EN" "http://www.w3.org/Graphics/SVG/1.1/DTD/svg11.dtd"><svg xmlns="http://www.w3.org/2000/svg" xmlns:xlink="http://www.w3.org/1999/xlink" version="1.1" x="0px" y="0px" width="528" height="528" viewBox="0 0 48 48" enable-background="new 0 0 48 48" xml:space="preserve">
<path fill="#546E7A" d="M26,5.5C26,6.328,25.328,7,24.5,7h-1C22.672,7,22,6.328,22,5.5v-1C22,3.672,22.672,3,23.5,3h1  C25.328,3,26,3.672,26,4.5V5.5z"/>
<path fill="#BBDEFB" d="M32,26.5c0,0.828-0.672,1.5-1.5,1.5h-13c-0.828,0-1.5-0.672-1.5-1.5v-9c0-0.828,0.672-1.5,1.5-1.5h13  c0.828,0,1.5,0.672,1.5,1.5V26.5z"/>
<rect x="23" y="16" fill="#64B5F6" width="2" height="11"/>
<path fill="#5D4037" d="M32,24.5c0-0.828-0.672-1.5-1.5-1.5h-13c-0.828,0-1.5,0.672-1.5,1.5v12c0,0.828,0.672,1.5,1.5,1.5h13  c0.828,0,1.5-0.672,1.5-1.5V24.5z"/>
<g>
	<circle fill="#4E342E" cx="23.5" cy="29.5" r="1.5"/>
	<circle fill="#4E342E" cx="29.5" cy="22.5" r="1.5"/>
	<circle fill="#4E342E" cx="19.5" cy="32.5" r="1.5"/>
	<circle fill="#4E342E" cx="27.5" cy="34.5" r="1.5"/>
	<circle fill="#4E342E" cx="23.5" cy="33.5" r="1.5"/>
	<circle fill="#4E342E" cx="28.5" cy="29.5" r="1.5"/>
	<circle fill="#4E342E" cx="17.5" cy="33.5" r="1.5"/>
	<circle fill="#4E342E" cx="18.5" cy="21.5" r="1.5"/>
	<circle fill="#4E342E" cx="19.5" cy="24.5" r="1.5"/>
</g>
<g>
	<path fill="#FF5722" d="M20.5,21c-0.197,0-0.385,0.041-0.558,0.11C19.976,21.235,20,21.364,20,21.5c0,0.631-0.391,1.168-0.942,1.39   C19.23,23.528,19.808,24,20.5,24c0.828,0,1.5-0.672,1.5-1.5S21.328,21,20.5,21z"/>
	<circle fill="#FF5722" cx="24.5" cy="35.5" r="1.5"/>
	<circle fill="#FF5722" cx="29.5" cy="26.5" r="1.5"/>
	<circle fill="#FF5722" cx="20.582" cy="36.582" r="1.5"/>
	<circle fill="#FF5722" cx="19.5" cy="27.5" r="1.5"/>
</g>
<g>
	<path fill="#F0F4C3" d="M18.5,23c-0.631,0-1.168-0.391-1.39-0.942C16.472,22.23,16,22.808,16,23.5c0,0.828,0.672,1.5,1.5,1.5   s1.5-0.672,1.5-1.5c0-0.197-0.041-0.385-0.11-0.558C18.765,22.976,18.636,23,18.5,23z"/>
	<circle fill="#F0F4C3" cx="25.5" cy="27.5" r="1.5"/>
	<circle fill="#F0F4C3" cx="28.5" cy="36.5" r="1.5"/>
</g>
<g>
	<circle fill="#795548" cx="17.5" cy="29.5" r="1.5"/>
	<circle fill="#795548" cx="21.5" cy="26.5" r="1.5"/>
	<circle fill="#795548" cx="26.5" cy="31.5" r="1.5"/>
	<circle fill="#795548" cx="29.5" cy="33.5" r="1.5"/>
	<circle fill="#795548" cx="26.5" cy="23.5" r="1.5"/>
	<circle fill="#795548" cx="21.5" cy="32" r="1.5"/>
</g>
<g>
	<circle fill="#558B2F" cx="23.5" cy="23.5" r="1.5"/>
	<circle fill="#558B2F" cx="18.5" cy="34.34" r="1.5"/>
	<circle fill="#558B2F" cx="30.5" cy="30.5" r="1.5"/>
	<circle fill="#558B2F" cx="30.5" cy="23.5" r="1.5"/>
</g>
<g>
	<path fill="#90A4AE" d="M32,43.5c0,0.828-0.672,1.5-1.5,1.5h-13c-0.828,0-1.5-0.672-1.5-1.5v-4c0-0.828,0.672-1.5,1.5-1.5h13   c0.828,0,1.5,0.672,1.5,1.5V43.5z"/>
	<path fill="#90A4AE" d="M32,12.444C32,14.408,30.408,16,28.444,16h-8.889C17.592,16,16,14.408,16,12.444l0,0   c0-1.963,1.925-5.443,8-5.443C30.074,7.001,32,10.481,32,12.444L32,12.444z"/>
</g>
</svg>