<svg xmlns="http://www.w3.org/2000/svg" xmlns:xlink="http://www.w3.org/1999/xlink" width="48" height="48" viewBox="0 0 48 48"><path fill="#EF6C00" d="M24 25A19 6.5 0 1 0 24 38A19 6.5 0 1 0 24 25Z"/><path fill="#EF6C00" d="M24 19A19 6.5 0 1 0 24 32A19 6.5 0 1 0 24 19Z"/><path fill="#EF6C00" d="M24 13A19 6.5 0 1 0 24 26A19 6.5 0 1 0 24 13Z"/><path fill="#EF6C00" d="M24 7A19 6.5 0 1 0 24 20A19 6.5 0 1 0 24 7Z"/><g><path fill="#FFCC80" d="M24,38c-10,0-18.178-2.645-18.926-6H5c0,6,9.06,9,19,9s19-3,19-9h-0.074C42.178,35.355,34,38,24,38z"/><path fill="#FFCC80" d="M24,32c-10,0-18.178-2.645-18.926-6H5c0,6,9.06,9,19,9s19-3,19-9h-0.074C42.178,29.355,34,32,24,32z"/><path fill="#FFCC80" d="M24,26c-10,0-18.178-2.645-18.926-6H5c0,6,9.06,9,19,9s19-3,19-9h-0.074C42.178,23.355,34,26,24,26z"/><path fill="#FFCC80" d="M24,20c-10,0-18.178-2.645-18.926-6H5c0,6,9.06,9,19,9s19-3,19-9h-0.074C42.178,17.355,34,20,24,20z"/></g><g><path fill="#BF360C" d="M24 10A12 3.5 0 1 0 24 17A12 3.5 0 1 0 24 10Z"/><path fill="#BF360C" d="M31 32.5c0 1.381-1.119 2.5-2.5 2.5l0 0c-1.381 0-2.5-1.119-2.5-2.5V16.25c0-1.381 5-1.381 5 0V32.5zM22 23.161c0 1.381-1.119 2.5-2.5 2.5l0 0c-1.381 0-2.5-1.119-2.5-2.5v-7.125c0-1.381 5-1.381 5 0V23.161zM26 13c0 1.104-.896 2-2 2l0 0c-1.104 0-2-.896-2-2v6c0-1.104.896-2 2-2l0 0c1.104 0 2 .896 2 2V13zM31 12v6c0-1.104.9-2 1.396-2C32.396 16 31 13.104 31 12zM17 12v6c0-1.104-.9-2-1.396-2C15.604 16 17 13.104 17 12z"/></g></svg>