<svg xmlns="http://www.w3.org/2000/svg" xmlns:xlink="http://www.w3.org/1999/xlink" viewBox="0 0 48 48"><polygon fill="#ff8f00" points="30,45 18,45 17,43.031 17,36 31,36 31,43.031"/><rect width="14" height="2" x="17" y="41" fill="#ef6c00"/><path fill="#afb42b" d="M36.511,9.673L32.886,4H15.114l-3.625,5.673c-1.451,2.1-1.869,4.759-1.132,7.212L16.101,37h15.798 l5.744-20.115C38.38,14.433,37.963,11.773,36.511,9.673z"/><path fill="#827717" d="M18.255,34l-5.19-17.949c-0.493-1.621-0.226-3.304,0.722-4.657L16.632,7h14.736l2.846,4.394 c0.947,1.354,1.215,3.036,0.733,4.616L29.745,34H18.255z"/><ellipse cx="24" cy="18.5" fill="#afb42b" rx="3.889" ry="5.5"/><path fill="#ffcc80" d="M29,18.5c0,3.59-2.233,6.5-5,6.5s-5-2.91-5-6.5c0-2.03,0.711-3.83,1.833-5.03L24,20l3.167-6.53 C28.289,14.67,29,16.47,29,18.5z"/></svg>