<svg xmlns="http://www.w3.org/2000/svg" xmlns:xlink="http://www.w3.org/1999/xlink" viewBox="0 0 48 48"><path fill="#ff9800" d="M23,43.95V27.414L11.125,39.289C14.461,42.099,18.632,43.731,23,43.95z"/><path fill="#ff9800" d="M25,4.051v18.535L37.898,9.688C34.514,6.4,29.986,4.303,25,4.051z"/><path fill="#ff9800" d="M26.414,26l11.898,11.898C41.38,34.74,43.433,30.593,43.898,26H26.414z"/><path fill="#ff9800" d="M25,27.414v16.535c4.487-0.227,8.605-1.943,11.85-4.685L25,27.414z"/><path fill="#ff9800" d="M26.414,24H44c0-4.877-1.79-9.364-4.736-12.85L26.414,24z"/><path fill="#ffd54f" d="M25,27.414v13.535c3.666-0.218,7.037-1.602,9.728-3.807L25,27.414z"/><path fill="#ffd54f" d="M25,7.051v15.535l10.78-10.78C32.941,9.061,29.163,7.299,25,7.051z"/><path fill="#ffd54f" d="M23,27.414l-9.752,9.752c2.764,2.257,6.179,3.573,9.752,3.784V27.414z"/><path fill="#ffd54f" d="M26.414,24H41c0-4.054-1.453-7.793-3.858-10.728L26.414,24z"/><path fill="#ffd54f" d="M26.414,26l9.78,9.78c2.523-2.61,4.224-6.012,4.675-9.78H26.414z"/><g><circle cx="36.5" cy="28.5" r="1.5" fill="#ff3d00"/></g><g><path fill="#689f38" d="M27.95,12.472c0,0,1.71-2.088-0.905-3.338C25.278,11.318,27.95,12.472,27.95,12.472z"/></g><g><path fill="#689f38" d="M18.733,38.015c0,0,0.419-2.666-2.468-2.423C15.845,38.371,18.733,38.015,18.733,38.015z"/></g><g><path fill="#689f38" d="M33.023,28.622c0,0-0.341-2.677-3.046-1.637C30.349,29.771,33.023,28.622,33.023,28.622z"/></g><g><path fill="#689f38" d="M28.464,38.187c0,0,2.698,0.055,2.066-2.773C27.72,35.373,28.464,38.187,28.464,38.187z"/></g><g><path fill="#689f38" d="M39.177,20.372c0,0-2.066-1.737-3.35,0.861C37.989,23.029,39.177,20.372,39.177,20.372z"/></g><g><path fill="#ff3d00" d="M31,22c2.209,0,4-1.791,4-4c0-0.741-0.215-1.425-0.566-2.02l-5.454,5.454 C29.575,21.785,30.259,22,31,22z"/><path fill="#ff3d00" d="M33.02,14.566C32.425,14.215,31.741,14,31,14c-2.209,0-4,1.791-4,4c0,0.741,0.215,1.425,0.566,2.02 L33.02,14.566z"/></g><g><path fill="#ff3d00" d="M23,32.184c-1.163,0.413-2,1.512-2,2.816s0.837,2.403,2,2.816V32.184z"/><path fill="#ff3d00" d="M25,32.184v5.633c1.163-0.413,2-1.512,2-2.816S26.163,32.597,25,32.184z"/></g></svg>