<svg xmlns="http://www.w3.org/2000/svg" xmlns:xlink="http://www.w3.org/1999/xlink" width="48" height="48" viewBox="0 0 48 48"><path fill="#d1c4e9" d="M6,24l2.243,14.752C8.615,41.195,10.716,43,13.187,43h2.905c0.207-0.581,0.756-1,1.408-1s1.202,0.419,1.408,1h4.184c0.207-0.581,0.756-1,1.408-1s1.202,0.419,1.408,1h4.184c0.207-0.581,0.756-1,1.408-1s1.202,0.419,1.408,1h2.905c2.471,0,4.572-1.805,4.943-4.248L43,24H6z"/><path fill="#d1c4e9" d="M40.757,10.248C40.385,7.805,38.284,6,35.813,6h-2.905c-0.207,0.581-0.756,1-1.408,1s-1.202-0.419-1.408-1h-4.184c-0.207,0.581-0.756,1-1.408,1s-1.202-0.419-1.408-1h-4.184c-0.207,0.581-0.756,1-1.408,1s-1.202-0.419-1.408-1h-2.905c-2.471,0-4.572,1.805-4.943,4.248L6,25h37L40.757,10.248z"/><polygon fill="#b39ddb" points="43.3,23 5.7,23 6.6,28 42.4,28"/><path fill="#b39ddb" d="M31.5,7c-0.652,0-1.202-0.419-1.408-1H30v11.5c0,0.828,0.672,1.5,1.5,1.5s1.5-0.672,1.5-1.5V6h-0.092C32.702,6.581,32.152,7,31.5,7z"/><path fill="#b39ddb" d="M24.5,7c-0.652,0-1.202-0.419-1.408-1H23v11.5c0,0.828,0.672,1.5,1.5,1.5s1.5-0.672,1.5-1.5V6h-0.092C25.702,6.581,25.152,7,24.5,7z"/><path fill="#b39ddb" d="M17.5,7c-0.652,0-1.202-0.419-1.408-1H16v11.5c0,0.828,0.672,1.5,1.5,1.5s1.5-0.672,1.5-1.5V6h-0.092C18.702,6.581,18.152,7,17.5,7z"/><ellipse cx="24.5" cy="26.5" fill="#b39ddb" rx="5.5" ry="2.5"/><path fill="#dcd3ee" d="M44,26H5c-1.105,0-2-0.895-2-2v0c0-1.105,0.895-2,2-2h39c1.105,0,2,0.895,2,2v0C46,25.105,45.105,26,44,26z"/><ellipse cx="24.5" cy="24.5" fill="#dcd3ee" rx="5.5" ry="2.5"/><path fill="#b39ddb" d="M31.5,32c-0.828,0-1.5,0.672-1.5,1.5V43h0.092c0.207-0.581,0.756-1,1.408-1s1.202,0.419,1.408,1H33v-9.5C33,32.672,32.328,32,31.5,32z"/><path fill="#b39ddb" d="M24.5,32c-0.828,0-1.5,0.672-1.5,1.5V43h0.092c0.207-0.581,0.756-1,1.408-1s1.202,0.419,1.408,1H26v-9.5C26,32.672,25.328,32,24.5,32z"/><path fill="#b39ddb" d="M17.5,32c-0.828,0-1.5,0.672-1.5,1.5V43h0.092c0.207-0.581,0.756-1,1.408-1s1.202,0.419,1.408,1H19v-9.5C19,32.672,18.328,32,17.5,32z"/></svg>