<svg xmlns="http://www.w3.org/2000/svg" xmlns:xlink="http://www.w3.org/1999/xlink" width="48" height="48" viewBox="0 0 48 48"><path fill="#FFC107" d="M22.02 4H26.016V29H22.02z"/><path fill="#FFC107" d="M17.557 5.113H21.552999999999997V30.113H17.557z" transform="rotate(-4.211 19.558 17.62)"/><path fill="#FFC107" d="M13.338 8.161H17.335V33.16H13.338z" transform="rotate(-9.032 15.34 20.659)"/><path fill="#FFC107" d="M26.923 6.113H30.918V31.113H26.923z" transform="rotate(-175.789 28.92 18.614)"/><path fill="#FFC107" d="M31.076 6.841H35.072V31.84H31.076z" transform="rotate(-170.968 33.073 19.341)"/><path fill="#FFC107" d="M8.892 9.844H12.888V34.842H8.892z" transform="rotate(-13.657 10.887 22.34)"/><path fill="#FFC107" d="M35.865 11.158H39.862V36.157H35.865z" transform="rotate(10.003 37.864 23.658)"/><g><path fill="#FFEE58" d="M19.023 10H23.019V35H19.023z" transform="rotate(-4.44 21.008 22.504)"/><path fill="#FFEE58" d="M24.085 10.895H28.080000000000002V35.894999999999996H24.085z" transform="rotate(4.863 26.079 23.382)"/><path fill="#FFEE58" d="M31.556 38.186L27.695 37.152 34.142 13 38.003 14.033z"/><path fill="#FFEE58" d="M13.87 14.094H17.866V39.092H13.87z" transform="rotate(165.016 15.867 26.593)"/></g><path fill="#F44336" d="M35.826,18c-0.953,5.673-5.87,10-11.809,10s-10.855-4.327-11.809-10H7.035l4.995,26c0,0,6.993-1,11.988-1s11.987,1,11.987,1l4.996-26H35.826z"/><g><path fill="#C62828" d="M40.425 21l.576-3h-5.175c-.177 1.053-.491 2.059-.923 3H40.425zM13.132 21c-.431-.941-.746-1.947-.923-3H7.035l.576 3H13.132z"/><path fill="#C62828" d="M35.82,18C34.866,23.673,29.944,28,24,28s-10.866-4.327-11.82-10h-3.03C10.132,25.327,16.409,31,24,31c7.592,0,13.868-5.673,14.851-13H35.82z"/></g></svg>