<svg xmlns="http://www.w3.org/2000/svg" xmlns:xlink="http://www.w3.org/1999/xlink" viewBox="0 0 48 48"><path fill="#bf360c" d="M23.3 31.4c-.4 0-.7-.2-.9-.6-.6-1.4-1.6-2.6-2.9-3.3-.4-.2-.6-.8-.4-1.2.2-.4.8-.6 1.2-.4 1.7.9 3 2.4 3.7 4.2.2.5 0 1-.5 1.2C23.6 31.4 23.4 31.4 23.3 31.4zM30.3 25.9c-.3 0-.6-.1-.8-.4-1.1-1.7-4.2-4.3-6.8-4.6-.5-.1-.9-.5-.8-1 .1-.5.5-.9 1-.8 3.3.4 6.8 3.4 8.2 5.4.3.4.2 1-.2 1.3C30.7 25.9 30.5 25.9 30.3 25.9zM26.9 28.9c-.3 0-.7-.2-.8-.5-.8-1.8-2.3-3.2-4.2-4-.5-.2-.7-.7-.5-1.2.2-.5.7-.7 1.2-.5 2.2.9 4.1 2.7 5.1 4.9.2.5 0 1-.4 1.2C27.1 28.9 27 28.9 26.9 28.9z"/><path fill="#dd2c00" d="M36.5,33.2c-0.3,0.1-4.2,2.4-5.6,3.2c-1.8,1-3.6,1.7-4.6,1.7c-0.1,0-0.1,0-0.2,0l0,0 c-0.3,1.3-0.8,2.5-1.5,3.5c1.1,0.2,2.2,0.3,3.1,0.3c3.2,0,5.8-0.3,7.8-0.8c1.1-0.1,3.1-1.1,3.1-1.1c1-0.5,1.4-2.8-1.2-2.1 C40.7,34.7,39.4,31.4,36.5,33.2z"/><path fill="#ff5722" d="M24.1 37.7C24.1 37.7 24.1 37.7 24.1 37.7 24.1 37.7 24.1 37.7 24.1 37.7c-3.3-1.2-5.2-5-5.2-7.7 0-2.2 1.9-5.1 3.6-6.8.7-.6 1.6-2.7-.2-3.2-1.8-3.5-3.5-3.1-5.3-8.1-2.6-.9-5.5 5.2-5.5 5.2-5.1 13.7 3.1 21.5 10.9 24h0C23.3 40.1 23.9 39 24.1 37.7zM37.2 38.1c0 0-4.9 2.7-11.7 2-.3.6-.5 1.1-.9 1.6 1.1.2 2.2.3 3.1.3 3.2 0 5.8-.3 7.8-.8 1.1-.1 3.1-1.1 3.1-1.1 1-.5 1.4-2.8-1.2-2.1 0 0 0 0 0 0L37.2 38.1z"/><path fill="#ff5722" d="M34.4,12L42,7c0,0-4,0.7-6.7,1c0.8-0.4,4.1-2,4-2c-18.1,1.9-20.1,2.9-21.8,4.6 c-2.4,2.1,3,10.7,5.8,10.4c5.6-2.9,13-6.4,15-9L34.4,12z"/><path fill="#ffccbc" d="M26.1 38.1c-.3 0-.7-.1-1-.1 0 0-.1 0-.1 0-.3-.1-.6-.1-.9-.3 0 0 0 0 0 0 0 0 0 0 0 0-.3 1.3-.9 2.4-1.7 3.4.3.1.6.2.9.3.3.1.7.2 1.1.3 0 0 0 0 0 0C25.3 40.6 25.8 39.4 26.1 38.1L26.1 38.1zM21.3 35.7c-.5-.5-.9-1.1-1.2-1.7v0c-1.2 1.4-2.7 2.6-4.4 3.4.6.5 1.2.9 1.8 1.3C18.9 37.9 20.2 36.9 21.3 35.7zM18.9 30c0-.3 0-.6.1-1-1.5.3-3 .5-4.6.5-1.4 0-2.7-.1-4-.4.2.7.4 1.4.7 2.1 1.1.1 2.2.2 3.3.2 1.5 0 3.1-.1 4.6-.4C19 30.8 18.9 30.4 18.9 30zM20.1 26.5c.3-.6.8-1.2 1.2-1.8 0 0 0 0 0 0-4-.7-7.6-2.6-10.4-5.3-.2.8-.4 1.5-.5 2.2C13.1 24 16.5 25.7 20.1 26.5zM23.2 21c-2.4 0-6.4-6-6.2-9.1-.7-.2-1.4 0-2 .5 0 .8.2 1.7.6 2.8 1.1 3 4.1 7.4 7.2 7.7.4-.5.7-1.3.6-2 0 0 0 0 0 0C23.3 21 23.2 21 23.2 21z"/><path fill="#3e2723" d="M35.3,8c0,1.1-0.9,2-2,2c-1.1,0-2-0.9-2-2s0.9-2,2-2C34.4,6,35.3,6.9,35.3,8z"/></svg>