<svg xmlns="http://www.w3.org/2000/svg" xmlns:xlink="http://www.w3.org/1999/xlink" width="48" height="48" viewBox="0 0 48 48"><path fill="#B2EBF2" d="M6,10c0-2.209,1.791-4,3.999-4h28c2.21,0,4,1.791,4,4v28c0,2.209-1.791,4-3.999,4H10c-2.21,0-4-1.791-4-4V10z"/><path fill="#00838F" d="M27.861 29.329c-1.665 0-3.512-1.094-3.717-1.219-.048-.023-2.35-1.249-3.545-1.992l-.143-.09-4.077-5.033 1.854-1.901c.238-.258.76-.619 1.637-.619 1.559 0 3.488 1.175 3.703 1.309.023.009 2.269 1.168 3.547 1.998l5.386 4.121-2.646 2.649C29.541 28.894 28.913 29.329 27.861 29.329zM18.248 38.725L18.248 38.725c-1.188 0-2.5-.475-3.797-1.372-.738-.516-5.52-3.826-5.52-3.826l-.89-.616 4.38-5.476 6.139 4.407 3.707 4.381-1.538 1.53C20.097 38.388 19.237 38.725 18.248 38.725zM35.719 20.281l-6.854-4.798-3.126-3.854 1.602-1.642c1.318-1.411 3.965-1.254 6.249.502.7.491 5.479 3.799 5.479 3.799l.891.616L35.719 20.281z"/><g><path fill="#00BCD4" d="M29.609 28.797l3.762-3.705c.883-.884.736-2.649-.368-4.416 0 0-2.939-4.651-4.359-7.416s-1.121-3.447-1.121-3.447l-3.97 4.047c-.881.881-.736 2.646.368 4.416 0 0 3.086 5.014 4.359 7.283C29.781 28.234 29.609 28.797 29.609 28.797zM20.516 37.969l3.762-3.705c.883-.884.736-2.649-.368-4.416 0 0-2.939-4.729-4.359-7.494s-1.121-3.447-1.121-3.447l-3.97 4.047c-.881.881-.736 2.646.368 4.416 0 0 3.086 5.092 4.359 7.361C20.688 37.406 20.516 37.969 20.516 37.969z"/></g></svg>