<svg xmlns="http://www.w3.org/2000/svg" xmlns:xlink="http://www.w3.org/1999/xlink" viewBox="0 0 48 48"><path fill="#5d4037" d="M22.629,20.085c-0.448-0.85-1.07-1.555-1.668-2.196c-3.669-3.93-8.891-0.69-11.111,2.282c-1.03,1.379-2.048,2.774-2.98,4.223c-0.933,1.451-1.774,2.969-2.399,4.585c-0.366,0.946-0.637,1.828-0.508,2.851c0.128,1.018,0.481,2.015,1.071,2.862c0.873,1.254,2.478,2.518,4.065,2.106c0.694-0.18,1.343-0.517,1.927-0.932c3.177-2.255,11.036-4.024,12.692-9.353C24.36,24.438,23.714,22.145,22.629,20.085z"/><path fill="#f9a825" d="M32.294,4.871c-1.295,0.712-2.879,0.828-4.337,0.476c-1.28-0.309-2.461-1.473-3.821-1.266c-1.198,0.182-2.22,0.938-3.192,1.622c-1.199,0.845-2.772,1.789-2.913,3.328c-0.122,1.328,1.015,2.785,1.89,3.718c0.878,0.935,1.99,1.65,3.057,2.348c5.105,3.341,7.603,1.377,9.175,0.837c1.713-0.588,3.4-1.427,4.659-2.773c1.564-1.673,2.639-4.639,1.955-6.873C38.2,4.436,35.469,3.125,32.294,4.871z"/><path fill="#212121" d="M24.468,42.624c-1.25,0-2.499-0.476-3.45-1.427l1.414-1.414c1.123,1.121,2.95,1.123,4.072,0 l1.414,1.414C26.967,42.148,25.718,42.624,24.468,42.624z"/><path fill="#6d4c41" d="M38.708,24c-2.109-0.226-4.4,0.948-6.219,2.04c-3.913,2.349-7.028,6.302-8.281,10.638c-0.657,2.275,0,5.369,3.003,6.739c4.601,2.099,8.398-1.977,10.878-3.676c3.441-2.357,6.731-5.617,5.728-10.144C43.24,26.989,41.466,24.295,38.708,24z"/><path fill="#3e2723" d="M5.606,33.964c1.557-0.488,3.101-0.797,4.364-1.509c0.681-0.367,1.161-0.714,1.452-1.199c0.3-0.48,0.461-1.191,0.849-2.043c0.193-0.419,0.455-0.852,0.785-1.228c0.337-0.379,0.718-0.674,1.09-0.913c0.744-0.479,1.482-0.792,2.165-1.121c1.376-0.63,2.593-1.27,3.069-2.915c0.263,0.785,0.114,1.752-0.372,2.526c-0.478,0.783-1.178,1.347-1.839,1.838c-0.675,0.477-1.351,0.88-1.916,1.289c-0.57,0.421-0.909,0.787-1.215,1.373c-0.299,0.568-0.511,1.434-1.148,2.244c-0.31,0.398-0.703,0.742-1.122,0.99c-0.441,0.234-0.828,0.378-1.238,0.513C8.859,34.343,7.186,34.223,5.606,33.964z"/><path fill="#3e2723" d="M15.409,29.717c0.765-0.267,1.528-0.445,2.207-0.719c0.681-0.258,1.277-0.604,1.72-1.066c0.227-0.221,0.404-0.471,0.52-0.737c0.106-0.281,0.217-0.697,0.364-1.028c0.351-0.838,1.061-1.539,1.926-1.706c-0.38,0.78-0.61,1.425-0.715,2.086c-0.083,0.416-0.131,0.772-0.314,1.218c-0.208,0.448-0.507,0.836-0.849,1.152c-0.699,0.619-1.571,0.953-2.406,1.066c-0.842,0.107-1.649,0.048-2.442-0.103L15.409,29.717z"/><path fill="#3e2723" d="M13.58,20.251c-0.959,0.735-1.458,1.556-1.751,2.491c-0.313,0.929-0.498,1.975-0.827,3.072c-0.323,1.085-0.807,2.27-1.695,3.205C8.425,29.958,7.178,30.481,6,30.442c0.921-0.77,1.609-1.508,2.049-2.368c0.455-0.848,0.725-1.8,1.038-2.835c0.316-1.027,0.649-2.165,1.352-3.221c0.154-0.264,0.402-0.505,0.609-0.737c0.228-0.225,0.51-0.409,0.759-0.593c0.295-0.135,0.584-0.263,0.873-0.352C12.989,20.286,13.292,20.26,13.58,20.251z"/><path fill="#3e2723" d="M13.896,25.341c-0.309-0.833-0.477-1.679-0.319-2.652c0.139-0.953,0.895-2.028,1.894-2.427c0.238-0.13,0.487-0.177,0.727-0.257c0.124-0.04,0.249-0.054,0.362-0.111c0.234-0.083,0.515-0.273,0.871-0.502c0.704-0.471,1.582-0.859,2.493-0.869l0.01,0.018c-0.518,0.769-0.947,1.368-1.416,2.024c-0.239,0.321-0.554,0.701-1.037,1.007c-0.239,0.15-0.503,0.265-0.766,0.344c-0.142,0.059-0.294,0.097-0.417,0.161c-0.524,0.221-0.871,0.535-1.228,1.121c-0.366,0.574-0.609,1.373-1.066,2.154L13.896,25.341z"/><path fill="#4e342e" d="M36.923,27.076c-0.69,0.249-1.365,0.454-1.915,0.77c-0.559,0.317-0.902,0.671-1.196,1.196c-0.311,0.508-0.658,1.279-1.344,1.903c-0.633,0.574-1.247,0.913-1.645,1.275c-0.384,0.334-0.655,0.82-0.91,1.391c-0.247,0.574-0.393,1.222-0.691,1.974c-0.25,0.743-0.879,1.544-1.597,1.893c-0.717,0.378-1.478,0.51-2.213,0.486l-0.013-0.058c0.645-0.34,1.244-0.71,1.675-1.175c0.461-0.467,0.612-0.943,0.733-1.569c0.177-1.219,0.314-3.042,1.658-4.363c0.633-0.621,1.281-0.972,1.721-1.329c0.418-0.292,0.743-0.811,1.274-1.437c0.271-0.303,0.603-0.615,0.984-0.844c0.389-0.22,0.798-0.352,1.194-0.436c0.8-0.13,1.552-0.075,2.277,0.105L36.923,27.076z"/><path fill="#4e342e" d="M34.422,31.255c0.045-0.852,0.882-1.539,1.741-1.754c0.431-0.114,0.871-0.139,1.28-0.116c0.415,0.028,0.771,0.063,1.219,0.19c0.406,0.125,0.524,0.146,0.837,0.194l0.807,0.116c0.46,0.07,1.05-0.067,1.886-0.369c0.004,0.853-0.566,1.739-1.544,2.077c-0.235,0.09-0.486,0.123-0.728,0.148c-0.198,0.008-0.401,0.024-0.615,0.004c-0.407-0.008-0.986-0.187-1.255-0.309c-0.236-0.097-0.59-0.199-0.883-0.292c-0.301-0.09-0.585-0.167-0.871-0.214c-0.556-0.096-1.18-0.089-1.834,0.347L34.422,31.255z"/><path fill="#4e342e" d="M42.79,34.006c-1.203,1.06-2.871,1.278-3.965,1.843c-1.093,0.482-1.855,1.373-2.72,2.563c-0.839,1.151-1.93,2.502-3.457,3.178c-1.517,0.674-3.143,0.652-4.58,0.273c1.465-0.302,2.856-0.691,3.898-1.481c1.067-0.751,1.753-1.849,2.56-3.083c0.415-0.606,0.857-1.268,1.464-1.862c0.596-0.596,1.419-1.078,2.243-1.289C39.908,33.75,41.259,34.04,42.79,34.006z"/><path fill="#4e342e" d="M35.742,32.744c-0.584,0.795-1.088,1.391-1.352,1.987l-0.4,1.005c-0.161,0.389-0.337,0.839-0.632,1.274c-0.556,0.894-1.428,1.517-2.276,1.885c-0.862,0.381-1.754,0.564-2.667,0.593l-0.076-0.199c0.671-0.62,1.369-1.101,1.95-1.65c0.608-0.523,1.071-1.055,1.388-1.646c0.168-0.289,0.303-0.644,0.487-1.038c0.175-0.402,0.446-0.865,0.803-1.261c0.763-0.794,1.775-1.114,2.737-1.035L35.742,32.744z"/><path fill="#f57f17" d="M24.024,6.625c1.08,0.152,2.071,0.509,3.02,0.737c0.94,0.244,1.864,0.426,2.632,0.355c0.384-0.035,0.709-0.134,1.024-0.304c0.161-0.091,0.311-0.178,0.494-0.321c0.278-0.199,0.568-0.382,0.881-0.487c1.271-0.468,2.424-0.105,3.408,0.314c-0.503,0.32-1.04,0.435-1.487,0.623c-0.451,0.191-0.847,0.378-1.147,0.612c-0.154,0.112-0.281,0.237-0.399,0.364c-0.204,0.196-0.461,0.425-0.744,0.595c-0.565,0.363-1.26,0.551-1.9,0.578c-1.299,0.042-2.397-0.393-3.348-0.925c-0.95-0.563-1.751-1.227-2.508-1.996L24.024,6.625z"/><path fill="#f57f17" d="M30.359,14.741c-0.356,0.391-0.944,0.524-1.466,0.538c-0.265-0.002-0.525-0.028-0.778-0.065 c-0.255-0.059-0.54-0.131-0.774-0.239c-0.984-0.414-1.68-1.011-2.361-1.49c-0.678-0.492-1.32-0.933-2.051-1.288 c-0.725-0.379-1.533-0.651-2.444-0.986l-0.008-0.164c0.893-0.409,1.907-0.507,2.913-0.359c1.008,0.154,1.959,0.618,2.748,1.175 c0.801,0.552,1.433,1.206,2.014,1.702c0.15,0.132,0.285,0.231,0.445,0.35c0.17,0.12,0.342,0.229,0.519,0.321 c0.354,0.207,0.713,0.358,1.198,0.397L30.359,14.741z"/><path fill="#f57f17" d="M29.159,11.556c0.737-0.151,1.409-0.146,2.027-0.228c0.624-0.06,1.119-0.148,1.564-0.329c0.441-0.175,1.094-0.534,1.871-0.632c0.762-0.093,1.529,0.018,2.211,0.445l0.006,0.141c-0.637,0.497-1.19,0.779-1.69,1.085c-0.494,0.278-0.995,0.594-1.811,0.83c-0.819,0.228-1.682,0.117-2.358-0.139C30.285,12.465,29.687,12.082,29.159,11.556z"/></svg>