<svg xmlns="http://www.w3.org/2000/svg" xmlns:xlink="http://www.w3.org/1999/xlink" viewBox="0 0 48 48"><path fill="#90caf9" d="M44,24c0,11.044-8.956,20-20,20S4,35.044,4,24S12.956,4,24,4S44,12.956,44,24z"/><path fill="#bbdefb" d="M24,41c-9.374,0-17-7.626-17-17S14.626,7,24,7s17,7.626,17,17S33.374,41,24,41z M24,9.413 C15.957,9.413,9.413,15.957,9.413,24S15.957,38.587,24,38.587S38.587,32.043,38.587,24S32.043,9.413,24,9.413z"/><path fill="#fff" d="M39,24c0,8.282-6.716,15-15,15S9,32.282,9,24S15.718,9,24,9S39,15.718,39,24z"/><path fill="#ffcc80" d="M17,31.239c0.649,0.848,1,0.58,1,1.761c0,0.871-1.221,1.282-2,0c-0.804,1.307-2,0.779-2,0 c0-1.156,0.487-0.977,1-1.761V24h2V31.239z"/><path fill="#9c8177" d="M17,28h-2c-1.223-2.398-4-4.068-4-7.429C11,18.715,12.381,15,16,15l0,0c3.619,0,5,3.715,5,5.571 C21,23.932,18.25,25.683,17,28z"/><path fill="#ffd54f" d="M37.329,24.592c-0.256,3.132-1.706,6.751-4.88,9.88c-4.066,4.009-8.495,2.253-9.061,0 c-0.212-0.647-1.598-4.116,2.589-8.412C29.052,22.906,29.764,24.236,32,22C36,18,37.625,20.969,37.329,24.592z"/><path fill="#27ba4d" d="M23 11A1 1 0 1 0 23 13 1 1 0 1 0 23 11zM21 13A1 1 0 1 0 21 15 1 1 0 1 0 21 13zM27 14A1 1 0 1 0 27 16 1 1 0 1 0 27 14zM30 15A1 1 0 1 0 30 17 1 1 0 1 0 30 15zM33 16A1 1 0 1 0 33 18 1 1 0 1 0 33 16zM31 18A1 1 0 1 0 31 20 1 1 0 1 0 31 18zM25 20A1 1 0 1 0 25 22 1 1 0 1 0 25 20zM29 12A1 1 0 1 0 29 14 1 1 0 1 0 29 12zM32 13A1 1 0 1 0 32 15 1 1 0 1 0 32 13zM26 11A1 1 0 1 0 26 13 1 1 0 1 0 26 11zM25 17A1 1 0 1 0 25 19 1 1 0 1 0 25 17zM28 20A1 1 0 1 0 28 22 1 1 0 1 0 28 20zM28 17A1 1 0 1 0 28 19 1 1 0 1 0 28 17zM24 14A1 1 0 1 0 24 16 1 1 0 1 0 24 14zM22 16A1 1 0 1 0 22 18 1 1 0 1 0 22 16z"/></svg>