<svg xmlns="http://www.w3.org/2000/svg" xmlns:xlink="http://www.w3.org/1999/xlink" viewBox="0 0 48 48"><path fill="#ffd54f" d="M32,18v26c0,1.1-0.9,2-2,2H18c-1.1,0-2-0.9-2-2V18c0-4.19,2.81-4.17,3.72-7L24,10l4.28,1 C29.19,13.83,32,13.81,32,18z"/><path fill="#ffecb3" d="M28.28,11h-8.56C19.9,10.46,20,9.81,20,9V6l4-1l4,1v3C28,9.81,28.1,10.46,28.28,11z"/><rect width="16" height="22" x="16" y="19" fill="#ffb300"/><path fill="#ffb300" d="M28,6h-8V2c0-0.552,0.448-1,1-1h6c0.552,0,1,0.448,1,1V6z"/><ellipse cx="24" cy="30" fill="#fffde7" rx="5" ry="7"/><path fill="#f57c00" d="M24,24c1.935,0,4,0.464,4,6s-2.065,6-4,6s-4-0.464-4-6S22.065,24,24,24 M24,22c-5,0-6,4-6,8s1,8,6,8 s6-4,6-8S29,22,24,22L24,22z"/></svg>