<svg xmlns="http://www.w3.org/2000/svg" xmlns:xlink="http://www.w3.org/1999/xlink" viewBox="0 0 48 48"><path fill="#546e7a" d="M37.292,42h-2.584C33.767,42,33,41.233,33,40.292v-2.417h6v2.417C39,41.233,38.233,42,37.292,42z M13.375,42h-2.666C9.767,42,9,41.233,9,40.292v-2.417h6.083v2.417C15.083,41.233,14.316,42,13.375,42z"/><path fill="#cfd8dc" d="M39.583,40H8.416C7.084,40,6,38.999,6,37.666v-27.25C6,9.084,7.084,8,8.416,8h31.167C40.916,8,42,9.084,42,10.416v27.25C42,38.999,40.916,40,39.583,40z"/><path fill="#ff1744" d="M36.5,10c-0.828,0-1.5,0.672-1.5,1.5s0.672,1.5,1.5,1.5s1.5-0.672,1.5-1.5S37.328,10,36.5,10z"/><rect width="32" height="21" x="8" y="15" fill="#37474f"/><circle cx="11.5" cy="11.5" r="1.5" fill="#37474f"/><circle cx="15.5" cy="11.5" r="1.5" fill="#37474f"/><circle cx="19.5" cy="11.5" r="1.5" fill="#37474f"/><circle cx="23.5" cy="11.5" r="1.5" fill="#37474f"/><path fill="#37474f" d="M22.167,8V7.708C22.167,6.767,21.4,6,20.458,6h-8.5c-0.942,0-1.708,0.767-1.708,1.708V8H22.167z"/><path fill="#37474f" d="M37.75,8V7.708C37.75,6.767,36.983,6,36.042,6h-6.375c-0.942,0-1.709,0.767-1.709,1.708V8H37.75z"/><path fill="#546e7a" d="M8,32h32v2H8V32z"/><path fill="#bcaaa4" d="M28.75,32H15.164C13.969,32,13,30.985,13,29.733v0C13,24.91,16.732,21,21.336,21h7.414c2.899,0,5.25,2.462,5.25,5.5v0C34,29.538,31.649,32,28.75,32z"/><path fill="#bcaaa4" d="M35.519,19.484L35.519,19.484c0.4,0.487,0.33,1.206-0.158,1.607l-1.764,1.449l-1.449-1.764 l1.764-1.449C34.4,18.926,35.119,18.997,35.519,19.484z"/><path fill="#8d6e63" d="M26.396,26.987l-0.008-0.035c-1.089-1.326-1.214-3.786,0.963-4.675l4.797-1.501l1.449,1.764 l-2.308,4.265C30.201,28.474,27.485,28.313,26.396,26.987z"/><circle cx="34.795" cy="18.602" r="1.141" fill="#bcaaa4"/><circle cx="36.244" cy="20.366" r="1.141" fill="#bcaaa4"/><path fill="#8d6e63" d="M23.742,25H15l3.527,4.544c0.799,0.997,2.561-0.233,1.634-1.554l-0.751-1.216L23.742,25z"/></svg>