<svg xmlns="http://www.w3.org/2000/svg" xmlns:xlink="http://www.w3.org/1999/xlink" viewBox="0 0 48 48"><path fill="#ffcc80" d="M20.199,32.78c2.859,2.859,3.574,6.434,0.715,9.293c-2.859,2.859-6.434,2.145-9.293-0.715 c-2.369-2.369-6.434-9.293-3.574-12.152S17.83,30.411,20.199,32.78z"/><rect width="2" height="13.648" x="13.481" y="28.816" fill="#fb8c00" transform="rotate(-45.001 14.48 35.64)"/><path fill="#ffcc80" d="M20.653,15.042c2.045,3.444,1.835,7.037-1.654,9.056s-6.766,0.446-8.812-2.999 c-1.694-2.853-3.88-10.481-0.391-12.5S18.959,12.189,20.653,15.042z"/><rect width="1.999" height="13.519" x="13.398" y="9.589" fill="#fb8c00" transform="rotate(-30.706 14.396 16.348)"/><path fill="#ffcc80" d="M29.33,17.074c-3.818-1.331-6.017-4.238-4.686-8.056s4.86-4.73,8.678-3.399 c3.163,1.102,9.835,5.569,8.505,9.387C40.496,18.825,32.493,18.177,29.33,17.074z"/><rect width="2" height="13.648" x="32.235" y="5.188" fill="#fb8c00" transform="rotate(-70.786 33.235 12.012)"/><path fill="#ffcc80" d="M20.307,34.264c0.006-1.24,0.378-2.571,1.068-3.9c1.524-2.934,6.86-8.836,10.461-7.026 c3.601,1.81,1.866,9.521,0.341,12.456c-1.84,3.542-5.02,5.294-8.621,3.484c-0.804-0.404-1.45-0.896-1.947-1.456"/><rect width="13.471" height="2" x="20.96" y="30.308" fill="#fb8c00" transform="rotate(-62.561 27.695 31.308)"/></svg>