<?xml version="1.0" encoding="utf-8"?><!-- Generator: Adobe Illustrator 15.0.0, SVG Export Plug-In . SVG Version: 6.00 Build 0)  --><!DOCTYPE svg PUBLIC "-//W3C//DTD SVG 1.1//EN" "http://www.w3.org/Graphics/SVG/1.1/DTD/svg11.dtd"><svg xmlns="http://www.w3.org/2000/svg" xmlns:xlink="http://www.w3.org/1999/xlink" version="1.1" x="0px" y="0px" width="528" height="528" viewBox="0 0 48 48" enable-background="new 0 0 48 48" xml:space="preserve">
<g>
	<path fill="#FFB300" d="M41.501,37.154L41.5,37.137c0,0-1.375-0.574-2.063-3.574s-1.125-13.493-5.625-14.368   C31.925,21.017,27.527,22.016,24,22c-3.528,0.016-7.925-0.983-9.813-2.806c-4.5,0.875-4.938,11.368-5.625,14.368   S6.5,37.137,6.5,37.137l-0.001,0.018C6.206,37.328,6,37.634,6,38c0,0.152,0.026,0.258,0.07,0.347   c0.066,0.178,0.185,0.321,0.333,0.435l-0.001,0.018C6.401,38.799,11,42,24,42s17.599-3.201,17.599-3.201l-0.001-0.018   c0.148-0.113,0.266-0.257,0.332-0.435C41.975,38.258,42,38.152,42,38C42,37.634,41.794,37.328,41.501,37.154z"/>
	<path fill="#FFB300" d="M11.083,11.896c0,0,2.458,3.291,3.104,6.201C14.542,19.693,16.632,22,24,22c7.367,0,9.246-2.756,8-1.999   c-0.187,0.112,3.162-1.556,5-6.001L11.083,11.896z"/>
</g>
<g>
	<path fill="none" stroke="#795548" stroke-width="2" stroke-linecap="round" d="M14.188,19.194C16.075,21.017,20.472,22.016,24,22   c3.527,0.016,7.925-0.983,9.813-2.806"/>
	<path fill="none" stroke="#795548" stroke-width="2" stroke-linecap="round" d="M16,39c0-4.007-0.161-7.049,0.456-11.023   c0.175-1.128,0.416-2.247,0.747-3.34c0.213-0.704,0.54-2.432,1.185-2.86c1.41-0.937,2.511,3.88,2.715,4.706   C21.91,29.745,22.014,32.63,22,36"/>
</g>
<path fill="#FF9800" d="M37,13.001c2,4.583-0.883,7-7,7c-6.118,0-19-5.591-19-8.585C11,8.426,15,6,24,6  C30.117,6,35.805,10.26,37,13.001z"/>
<path fill="#FFFFFF" d="M32.906,18.467C32.24,15.361,29.232,11,28,11c-0.822,0-1.768,1.289-3,1c-1.37-0.436-3-3-3.945-3  c-1.413,0-3.744,3.78-5.011,6.793c3.694,1.921,8.675,3.652,12.31,4.098C28.941,19.963,31.727,19.93,32.906,18.467z"/>
<g>
	<circle fill="#BDBDBD" cx="28" cy="14" r="1"/>
	<circle fill="#BDBDBD" cx="29" cy="17" r="1"/>
</g>
</svg>