<svg xmlns="http://www.w3.org/2000/svg" xmlns:xlink="http://www.w3.org/1999/xlink" width="48" height="48" viewBox="0 0 48 48"><path fill="#aed581" d="M22.875,16.999c0-1.656-1.343-2.999-2.999-2.999c-0.442,0-0.858,0.101-1.236,0.273 C18.314,12.969,17.144,12,15.739,12c-1.422,0-2.607,0.993-2.915,2.321C12.423,14.122,11.977,14,11.499,14 C9.843,14,8.5,15.343,8.5,16.999c0,0.877,0.383,1.659,0.984,2.208c-0.032,0.219-0.053,0.44-0.053,0.665 c0,2.97,2.824,5.378,6.308,5.378s6.308-2.408,6.308-5.378c0-0.252-0.027-0.497-0.067-0.74 C22.532,18.589,22.875,17.834,22.875,16.999z"/><path fill="#689f38" d="M37.875,16.999c0-1.656-1.343-2.999-2.999-2.999c-0.442,0-0.858,0.101-1.236,0.273 C33.314,12.969,32.144,12,30.739,12c-1.422,0-2.607,0.993-2.915,2.321C27.423,14.122,26.977,14,26.499,14 c-1.656,0-2.999,1.343-2.999,2.999c0,0.877,0.383,1.659,0.984,2.208c-0.032,0.219-0.053,0.44-0.053,0.665 c0,2.97,2.824,5.378,6.308,5.378s6.308-2.408,6.308-5.378c0-0.252-0.027-0.497-0.067-0.74 C37.532,18.589,37.875,17.834,37.875,16.999z"/><path fill="#8bc34a" d="M27.718,20.87c3.529-4.147,12.281-3.885,14.282-3.858c-0.158,3.393,0.39,10.783-3.619,14.374c-2.87,2.533-6.173,2.25-8.091-2.456C26.202,28.429,25.258,23.834,27.718,20.87z"/><path fill="#ff5252" d="M10.202,30.723c4.458,3.121,10.601,2.038,13.723-2.42L7.783,17C4.662,21.458,5.745,27.601,10.202,30.723z"/><path fill="#ff8a65" d="M11.991,28.168c3.047,2.133,7.246,1.393,9.379-1.654l-11.033-7.725C8.204,21.835,8.945,26.035,11.991,28.168z"/><circle cx="23.5" cy="22.5" r="7" fill="#c5e1a5"/><path fill="#558b2f" d="M23.5,30c-4.136,0-7.5-3.364-7.5-7.5s3.364-7.5,7.5-7.5s7.5,3.364,7.5,7.5S27.636,30,23.5,30z M23.5,16c-3.584,0-6.5,2.916-6.5,6.5s2.916,6.5,6.5,6.5s6.5-2.916,6.5-6.5S27.084,16,23.5,16z"/><circle cx="23.5" cy="18.878" r="1.25" fill="#fffde7"/><circle cx="20.453" cy="23.75" r="1.25" fill="#fffde7"/><circle cx="26.547" cy="23.75" r="1.25" fill="#fffde7"/><path fill="#006b6b" d="M18,37h12v4H18V37z"/><path fill="#dcedc8" d="M23.46,33.018c0,0,0.328-0.123,0.944-0.278c0.353-0.057,0.525-0.197,0.829-0.385c0.263-0.098,0.632-0.311,1.043-0.615c0.172-0.139,0.411-0.303,0.583-0.443c0.172-0.139,0.411-0.303,0.624-0.533c0.386-0.369,0.813-0.828,1.24-1.288c0.427-0.459,0.83-0.984,1.232-1.509c0.403-0.525,0.871-1.075,1.339-1.624c0.468-0.55,0.936-1.099,1.429-1.583c0.493-0.484,0.961-1.033,1.478-1.452c0.493-0.484,1.035-0.836,1.511-1.164c0.476-0.328,1.043-0.615,1.478-0.853c0.501-0.262,0.895-0.41,1.355-0.582c0.369-0.213,0.747-0.205,1.075-0.328c0.616-0.156,0.944-0.278,0.944-0.278s-0.328,0.123-0.895,0.41c-0.263,0.098-0.657,0.246-0.961,0.434c-0.369,0.213-0.805,0.451-1.215,0.754c-0.411,0.303-0.887,0.631-1.338,1.025s-0.903,0.787-1.306,1.312c-0.427,0.459-0.83,0.984-1.232,1.509c-0.403,0.525-0.78,1.116-1.158,1.706c-0.378,0.591-0.756,1.181-1.068,1.747c-0.378,0.591-0.69,1.157-1.068,1.747c-0.378,0.591-0.78,1.116-1.208,1.575c-0.214,0.23-0.427,0.459-0.641,0.689c-0.214,0.23-0.427,0.459-0.665,0.623c-0.452,0.394-0.838,0.763-1.273,1c-0.411,0.303-0.846,0.541-1.108,0.639c-0.657,0.246-0.985,0.369-0.985,0.369L23.46,33.018z"/><path fill="#00bcd4" d="M6,26c0,7.9,5.1,10.5,12.1,13h11.8c7-2.4,12.1-5.1,12.1-13H6z"/><path fill="#006b6b" d="M41.1,31c0.6-1.4,0.9-3,0.9-5H6c0,2,0.3,3.6,0.9,5H41.1z"/></svg>