<svg xmlns="http://www.w3.org/2000/svg" xmlns:xlink="http://www.w3.org/1999/xlink" viewBox="0 0 48 48"><path fill="#c62828" d="M24 4A20 20 0 1 0 24 44A20 20 0 1 0 24 4Z"/><path fill="#ef9a9a" d="M24 6A18 18 0 1 0 24 42A18 18 0 1 0 24 6Z"/><path fill="#eee" d="M14 20A3 3 0 1 0 14 26 3 3 0 1 0 14 20zM23 10A2 2 0 1 0 23 14 2 2 0 1 0 23 10zM34 16A3 3 0 1 0 34 22 3 3 0 1 0 34 16zM20 32A2 2 0 1 0 20 36 2 2 0 1 0 20 32zM25 22A2 2 0 1 0 25 26 2 2 0 1 0 25 22zM32 31A2 2 0 1 0 32 35 2 2 0 1 0 32 31z"/></svg>