<?xml version="1.0" encoding="utf-8"?><!-- Generator: Adobe Illustrator 15.0.0, SVG Export Plug-In . SVG Version: 6.00 Build 0)  --><!DOCTYPE svg PUBLIC "-//W3C//DTD SVG 1.1//EN" "http://www.w3.org/Graphics/SVG/1.1/DTD/svg11.dtd"><svg xmlns="http://www.w3.org/2000/svg" xmlns:xlink="http://www.w3.org/1999/xlink" version="1.1" x="0px" y="0px" width="528" height="528" viewBox="0 0 48 48" enable-background="new 0 0 48 48" xml:space="preserve">
<path fill="#90A4AE" d="M32,10.444c0-1.963-1.926-5.443-8-5.443c-6.075,0-8,3.48-8,5.443c0,0.01,0.003,0.019,0.003,0.027  c0,0.01-0.003,0.019-0.003,0.028v2c0,0.828,0.671,1.5,1.5,1.5h2.056h8.889H30.5c0.828,0,1.5-0.672,1.5-1.5v-2  c0-0.01-0.003-0.019-0.003-0.028C31.997,10.463,32,10.454,32,10.444z"/>
<path fill="#90CAF9" d="M32,41.5c0,0.828-0.672,1.5-1.5,1.5h-13c-0.828,0-1.5-0.672-1.5-1.5v-26c0-0.828,0.672-1.5,1.5-1.5h13  c0.828,0,1.5,0.672,1.5,1.5V41.5z"/>
<path fill="#EEEEEE" d="M18,22v17.5c0,0.276,0.224,0.5,0.5,0.5h1h9h1c0.276,0,0.5-0.224,0.5-0.5V22H18z"/>
<g>
	<circle fill="#37474F" cx="24" cy="7.001" r="1"/>
	<circle fill="#37474F" cx="20" cy="8.001" r="1"/>
	<circle fill="#37474F" cx="28" cy="8.001" r="1"/>
</g>
<g>
	<circle fill="#B0BEC5" cx="23" cy="37.001" r="1"/>
	<circle fill="#B0BEC5" cx="25" cy="34.001" r="1"/>
	<circle fill="#B0BEC5" cx="27" cy="37.001" r="1"/>
</g>
</svg>