<svg xmlns="http://www.w3.org/2000/svg" xmlns:xlink="http://www.w3.org/1999/xlink" width="48" height="48" viewBox="0 0 48 48"><path fill="#90A4AE" d="M32,10.444c0-1.963-1.926-5.443-8-5.443c-6.075,0-8,3.48-8,5.443c0,0.01,0.003,0.019,0.003,0.027c0,0.01-0.003,0.019-0.003,0.028v2c0,0.828,0.671,1.5,1.5,1.5h2.056h8.889H30.5c0.828,0,1.5-0.672,1.5-1.5v-2c0-0.01-0.003-0.019-0.003-0.028C31.997,10.463,32,10.454,32,10.444z"/><path fill="#90CAF9" d="M32,41.5c0,0.828-0.672,1.5-1.5,1.5h-13c-0.828,0-1.5-0.672-1.5-1.5v-26c0-0.828,0.672-1.5,1.5-1.5h13c0.828,0,1.5,0.672,1.5,1.5V41.5z"/><path fill="#EEE" d="M18,22v17.5c0,0.276,0.224,0.5,0.5,0.5h1h9h1c0.276,0,0.5-0.224,0.5-0.5V22H18z"/><path fill="#37474F" d="M24 6.001A1 1 0 1 0 24 8.001000000000001 1 1 0 1 0 24 6.001zM20 7.0009999999999994A1 1 0 1 0 20 9.001 1 1 0 1 0 20 7.0009999999999994zM28 7.0009999999999994A1 1 0 1 0 28 9.001 1 1 0 1 0 28 7.0009999999999994z"/><g><path fill="#B0BEC5" d="M23 36.001A1 1 0 1 0 23 38.001 1 1 0 1 0 23 36.001zM25 33.001A1 1 0 1 0 25 35.001 1 1 0 1 0 25 33.001zM27 36.001A1 1 0 1 0 27 38.001 1 1 0 1 0 27 36.001z"/></g></svg>