<svg xmlns="http://www.w3.org/2000/svg" xmlns:xlink="http://www.w3.org/1999/xlink" viewBox="0 0 48 48"><path fill="#ffca28" d="M42.87,38.06c-0.25,0.85-0.85,1.59-1.71,1.99c-2.58,1.22-6.07,2.54-10.31,3.31c-0.56,0.1-1.14,0.19-1.74,0.27c-1.46,0.2-3.01,0.33-4.62,0.37c-8.1,0.19-14.57-2.07-18.6-3.97c-0.84-0.39-1.43-1.11-1.68-1.94c-0.22-0.74-0.18-1.57,0.17-2.32c2.9-6.19,6.32-12.75,10.35-19.54c2.06-3.47,4.14-6.75,6.22-9.86c1.24-1.86,3.94-1.86,5.17,0.01c2.06,3.11,4.13,6.4,6.17,9.85c4.02,6.77,7.45,13.33,10.4,19.53C43.04,36.51,43.08,37.33,42.87,38.06z"/><path fill="#ffa000" d="M31.09,41.46c-0.05,0.56-0.12,1.13-0.19,1.69c-0.01,0.07-0.03,0.15-0.05,0.21c-0.56,0.1-1.14,0.19-1.74,0.27c-0.16-0.2-0.23-0.46-0.2-0.73c0.05-0.38,0.1-0.77,0.13-1.15c0.51-4.73,0.37-9.49-0.41-14.17c-0.88-5.31-2.58-10.47-5.03-15.32c-0.25-0.49-0.06-1.1,0.44-1.35c0.49-0.24,1.09-0.05,1.34,0.44c1.57,3.1,2.84,6.32,3.79,9.63c0.34,1.15,0.64,2.32,0.89,3.49c0.21,0.92,0.39,1.85,0.54,2.78C31.39,31.95,31.55,36.72,31.09,41.46z"/><circle cx="13.758" cy="35.22" r="1.951" fill="#ffe082"/><circle cx="15.709" cy="30.342" r=".976" fill="#ffe082"/><circle cx="20.587" cy="40.098" r=".976" fill="#ffa000"/><circle cx="30.342" cy="22.538" r="1.951" fill="#ffa000"/><circle cx="33.269" cy="27.415" r=".976" fill="#ffe082"/><path fill="#ffa000" d="M42.87,38.06c-0.25,0.85-0.85,1.59-1.71,1.99c-2.58,1.22-6.07,2.54-10.31,3.31c-0.56,0.1-1.14,0.19-1.74,0.27c-1.46,0.2-3.01,0.33-4.62,0.37c-8.1,0.19-14.57-2.07-18.6-3.97c-0.84-0.39-1.43-1.11-1.68-1.94C8.42,39.89,16.16,42.5,26,42c1.05-0.05,2.06-0.14,3.04-0.25c0.7-0.08,1.39-0.18,2.05-0.29C36.04,40.69,40.04,39.27,42.87,38.06z"/><circle cx="20.5" cy="18.5" r="2.5" fill="#ffe082"/></svg>