<svg xmlns="http://www.w3.org/2000/svg" xmlns:xlink="http://www.w3.org/1999/xlink" viewBox="0 0 48 48"><path fill="#ffcc80" d="M35,3L11.38,7.374c-2.036,0.377-3.629,1.97-4.006,4.006L3,35L35,3z"/><path fill="#ffb74d" d="M45,13L35,3L3,35l10,10L45,13z"/><path fill="#ffa726" d="M8 24A1 1 0 1 0 8 26 1 1 0 1 0 8 24zM10 18A1 1 0 1 0 10 20 1 1 0 1 0 10 18zM14 16A1 1 0 1 0 14 18 1 1 0 1 0 14 16zM18 13A1 1 0 1 0 18 15 1 1 0 1 0 18 13zM25 7A1 1 0 1 0 25 9 1 1 0 1 0 25 7zM12 11A1 1 0 1 0 12 13 1 1 0 1 0 12 11zM18 9A1 1 0 1 0 18 11 1 1 0 1 0 18 9z"/><path fill="#fff3e0" d="M9.5,41.5c2.133-2.133,4.267-2.133,6.4-4.267c2.133-2.133,2.108-4.241,4.267-6.4 c2.133-2.133,3.733-1.6,6.4-4.267s2.133-4.267,4.267-6.4c2.159-2.159,4.267-2.133,6.4-4.267c2.133-2.133,2.133-4.267,4.267-6.4l-4-4 c-2.133,2.133-2.133,4.267-4.267,6.4s-4.241,2.108-6.4,4.267c-2.133,2.133-1.6,3.733-4.267,6.4s-4.267,2.133-6.4,4.267 c-2.159,2.159-2.133,4.267-4.267,6.4S7.633,35.367,5.5,37.5L9.5,41.5z"/><path fill="#c74343" d="M6.207,38.207l-1.414-1.414c1.182-1.182,2.34-1.761,3.46-2.321c1.022-0.512,1.988-0.994,2.939-1.945 c0.948-0.948,1.426-1.906,1.931-2.92c0.559-1.122,1.138-2.282,2.335-3.48c1.132-1.132,2.142-1.602,3.119-2.055 c1.028-0.479,1.999-0.929,3.282-2.212c1.282-1.282,1.733-2.253,2.211-3.28c0.454-0.978,0.923-1.987,2.056-3.119 c1.198-1.198,2.358-1.776,3.48-2.336c1.014-0.506,1.971-0.983,2.919-1.931c0.952-0.952,1.435-1.918,1.946-2.94 c0.56-1.12,1.139-2.278,2.321-3.46l1.414,1.414c-0.952,0.952-1.435,1.918-1.946,2.94c-0.56,1.12-1.139,2.278-2.321,3.46 c-1.178,1.179-2.329,1.752-3.441,2.307c-1.024,0.51-1.991,0.992-2.959,1.96c-0.882,0.882-1.241,1.654-1.656,2.548 c-0.505,1.087-1.078,2.319-2.61,3.852c-1.533,1.533-2.766,2.105-3.853,2.611c-0.894,0.415-1.666,0.773-2.547,1.655 c-0.967,0.968-1.449,1.935-1.959,2.958c-0.555,1.113-1.128,2.264-2.307,3.442c-1.181,1.181-2.339,1.76-3.459,2.32 C8.125,36.771,7.159,37.255,6.207,38.207z"/><path fill="#689f38" d="M10.207,42.207l-1.414-1.414c1.182-1.182,2.34-1.761,3.46-2.321c1.022-0.512,1.988-0.994,2.939-1.945 c0.948-0.948,1.426-1.906,1.931-2.92c0.559-1.122,1.138-2.282,2.335-3.48c1.132-1.132,2.142-1.602,3.119-2.055 c1.028-0.479,1.999-0.929,3.282-2.212c1.282-1.282,1.733-2.253,2.211-3.28c0.454-0.978,0.923-1.987,2.056-3.119 c1.198-1.198,2.358-1.776,3.48-2.336c1.014-0.506,1.971-0.983,2.919-1.931c0.952-0.952,1.435-1.918,1.946-2.94 c0.56-1.12,1.139-2.278,2.321-3.46l1.414,1.414c-0.952,0.952-1.435,1.918-1.946,2.94c-0.56,1.12-1.139,2.278-2.321,3.46 c-1.178,1.179-2.329,1.752-3.441,2.307c-1.024,0.51-1.991,0.992-2.959,1.96c-0.882,0.882-1.241,1.654-1.656,2.548 c-0.505,1.087-1.078,2.319-2.61,3.852c-1.533,1.533-2.766,2.105-3.853,2.611c-0.894,0.415-1.666,0.773-2.547,1.655 c-0.967,0.968-1.449,1.935-1.959,2.958c-0.555,1.113-1.128,2.264-2.307,3.442c-1.181,1.181-2.339,1.76-3.459,2.32 C12.125,40.771,11.159,41.255,10.207,42.207z"/></svg>