<svg xmlns="http://www.w3.org/2000/svg" xmlns:xlink="http://www.w3.org/1999/xlink" viewBox="0 0 48 48"><polygon fill="#dc3d31" points="30,16 18,16 19.33,10 20,7 20,6 28,6 28,7 28.67,10"/><path fill="#dc3d31" d="M33.828,19.828L30,16H18l-3.828,3.828C13.421,20.579,13,21.596,13,22.657V41c0,2.209,1.791,4,4,4h14c2.209,0,4-1.791,4-4V22.657C35,21.596,34.579,20.579,33.828,19.828z"/><path fill="#e8eaf6" d="M28,26c0-2.209-1.791-4-4-4s-4,1.791-4,4h-3v14h14V26H28z"/><polygon fill="#c52844" points="28.67,10 19.33,10 20,7 20,6 28,6 28,7"/><path fill="#e8eaf6" d="M30,5c0,1.1-0.9,2-2,2h-8c-0.55,0-1.05-0.22-1.41-0.59C18.22,6.05,18,5.55,18,5c0-1.1,0.9-2,2-2h8c0.55,0,1.05,0.22,1.41,0.59C29.78,3.95,30,4.45,30,5z"/><path fill="#c5cae9" d="M30,5c0,1.1-0.9,2-2,2h-8c-0.55,0-1.05-0.22-1.41-0.59C18.22,6.05,18,5.55,18,5H30z"/><rect width="14" height="2" x="17" y="38" fill="#c5cae9"/></svg>