<?xml version="1.0" encoding="iso-8859-1"?><!-- Generator: Adobe Illustrator 19.2.1, SVG Export Plug-In . SVG Version: 6.00 Build 0)  --><svg xmlns="http://www.w3.org/2000/svg" xmlns:xlink="http://www.w3.org/1999/xlink" version="1.1" x="0px" y="0px" viewBox="0 0 48 48" style="enable-background:new 0 0 48 48;" xml:space="preserve" width="528" height="528">
<circle style="fill:#B71C1C;" cx="28" cy="18" r="3"/>
<circle style="fill:#B71C1C;" cx="25" cy="17" r="3"/>
<circle style="fill:#B71C1C;" cx="17" cy="17" r="3"/>
<circle style="fill:#B71C1C;" cx="14" cy="18" r="3"/>
<circle style="fill:#B71C1C;" cx="11" cy="19" r="3"/>
<circle style="fill:#B71C1C;" cx="31" cy="19" r="3"/>
<circle style="fill:#B71C1C;" cx="21" cy="16" r="3"/>
<path style="fill:none;stroke:#90CAF9;stroke-width:2;stroke-linecap:round;stroke-miterlimit:10;" d="M37,22.129  c0,0,0-1.647,0-2.629c0-2.485,2.015-4.5,4.5-4.5s4.5,2.015,4.5,4.5S43.985,24,41.5,24"/>
<path style="fill:#90CAF9;" d="M24.979,36h-5.897C11.276,36,7.12,30.106,6,24.86C4.98,20.084,1,17,1,17v-2c0,0,9.081,3,20.75,3  s16.398-2.993,18.093-3.729c0,0-3.374,2.782-1.844,7.596C38,29.719,32.784,36,24.979,36z"/>
<rect x="14" y="35" style="fill:#64B5F6;" width="16" height="2"/>
<path style="fill:#90CAF9;" d="M30,37H14c-1.105,0-2,0.895-2,2v1h20v-1C32,37.895,31.105,37,30,37z"/>
</svg>