<svg xmlns="http://www.w3.org/2000/svg" xmlns:xlink="http://www.w3.org/1999/xlink" viewBox="0 0 48 48"><path fill="#8d6e63" d="M12 3H36V43H12z"/><path fill="#6d4c41" d="M18 5L20 3 20 11 18 9zM26 5L28 3 28 11 26 9zM34 5L36 3 36 11 34 9zM18 13L20 11 20 19 18 17zM26 13L28 11 28 19 26 17zM34 13L36 11 36 19 34 17zM18 21L20 19 20 27 18 25zM26 21L28 19 28 27 26 25zM34 21L36 19 36 27 34 25zM18 29L20 27 20 35 18 33zM26 29L28 27 28 35 26 33zM34 29L36 27 36 35 34 33zM18 37L20 35 20 43 18 41zM26 37L28 35 28 43 26 41zM34 37L36 35 36 43 34 41z"/><g><path fill="#a1887f" d="M22 5H26V9H22zM30 5H34V9H30zM14 5H18V9H14zM22 13H26V17H22zM30 13H34V17H30zM14 13H18V17H14zM22 21H26V25H22zM30 21H34V25H30zM14 21H18V25H14zM22 29H26V33H22zM30 29H34V33H30zM14 29H18V33H14zM22 37H26V41H22zM30 37H34V41H30zM14 37H18V41H14z"/></g><g><path fill="#4e342e" d="M12 11L14 9 18 9 20 11zM20 11L22 9 26 9 28 11zM28 11L30 9 34 9 36 11zM12 19L14 17 18 17 20 19zM20 19L22 17 26 17 28 19zM28 19L30 17 34 17 36 19zM12 27L14 25 18 25 20 27zM20 27L22 25 26 25 28 27zM28 27L30 25 34 25 36 27zM12 35L14 33 18 33 20 35zM20 35L22 33 26 33 28 35zM28 35L30 33 34 33 36 35zM12 43L14 41 18 41 20 43zM20 43L22 41 26 41 28 43zM28 43L30 41 34 41 36 43z"/></g><path fill="#ff3d00" d="M36,45H12c-1.105,0-2-0.895-2-2V22l28,5v16C38,44.1,37.1,45,36,45z"/><g><path fill="#dd2c00" d="M12,43V22.385L10,22v21c0,1.105,0.895,2,2,2h24c1.1,0,2-0.9,2-2v-8h-2l0,8H12z"/><path fill="#dd2c00" d="M38 36L38 28 10 22 10 24 33 41z"/></g><path fill="#ffd740" d="M10 22L38 25 39.991 29 34.991 34z"/><path fill="#ffe57f" d="M10 22L34.991 34 30 26z"/></svg>