<svg xmlns="http://www.w3.org/2000/svg" xmlns:xlink="http://www.w3.org/1999/xlink" width="48" height="48" viewBox="0 0 48 48"><path fill="#7CB342" d="M41.731,7.877c0.357-0.36,0.358-0.944,0-1.304c-0.359-0.359-0.939-0.359-1.299,0c0.359-0.359,0.359-0.943,0.001-1.303c-0.36-0.36-0.939-0.36-1.299,0c-2.204,2.212-9.099-1.295-14.28,3.909c-4.545,4.562-13.633,14.991-13.633,14.991c-3.245,4.562-4.247,9.391-0.957,12.691c3.289,3.303,8.099,2.297,12.642-0.962c0,0,10.565-8.944,15.108-13.507C43.424,16.964,39.537,10.08,41.731,7.877z"/><path fill="#F1F8E9" d="M31.45 23.867c-1.183 0-4.284-1.151-4.284-2.304s3.101-2.305 4.283-2.305c1.185 0 2.144 1.031 2.144 2.305C33.593 22.835 32.633 23.867 31.45 23.867zM26.897 28.438c-1.183 0-4.283-1.153-4.283-2.305s3.101-2.305 4.283-2.305c1.184 0 2.143 1.033 2.143 2.305C29.04 27.406 28.081 28.438 26.897 28.438zM22.363 32.991c-1.184 0-4.284-1.153-4.284-2.304 0-1.151 3.101-2.306 4.283-2.306s2.144 1.033 2.143 2.306C24.506 31.959 23.545 32.991 22.363 32.991zM17.6 35.79c-.849 0-3.074-.827-3.074-1.652s2.226-1.654 3.074-1.652c.848-.001 1.536.74 1.536 1.653C19.135 35.05 18.448 35.79 17.6 35.79zM37.592 14.345c-.681 0-2.468-.665-2.468-1.327.001-.664 1.787-1.327 2.468-1.327s1.233.593 1.232 1.326C38.824 13.749 38.273 14.345 37.592 14.345zM23.207 15.591c0 1.189 1.148 4.303 2.296 4.303 1.146 0 2.294-3.113 2.296-4.303-.002-1.186-1.028-2.15-2.297-2.15C24.235 13.44 23.207 14.403 23.207 15.591zM18.654 20.163c0 1.188 1.148 4.301 2.296 4.301s2.296-3.113 2.297-4.301c-.001-1.189-1.029-2.151-2.297-2.15C19.684 18.013 18.654 18.974 18.654 20.163zM14.119 24.715c-.001 1.188 1.148 4.302 2.296 4.302 1.146 0 2.295-3.113 2.296-4.3-.001-1.188-1.029-2.151-2.297-2.151C15.147 22.565 14.118 23.528 14.119 24.715zM11.332 29.498c0 .853.824 3.086 1.646 3.086.822-.002 1.646-2.233 1.645-3.085 0-.854-.735-1.544-1.646-1.544C12.07 27.955 11.332 28.646 11.332 29.498zM35.068 18.916c-.961 0-3.481-.937-3.481-1.871 0-.934 2.521-1.873 3.481-1.871.96-.001 1.739.839 1.739 1.873C36.807 18.078 36.029 18.916 35.068 18.916zM28.072 11.786c0 .999.967 3.621 1.932 3.621.966-.002 1.932-2.622 1.931-3.62 0-1.002-.863-1.813-1.931-1.813C28.938 9.975 28.072 10.785 28.072 11.786zM32.69 9.355c0 .686.66 2.478 1.322 2.478.659 0 1.32-1.792 1.32-2.478 0-.684-.592-1.238-1.321-1.238S32.689 8.672 32.69 9.355z"/><path fill="#D4E157" d="M10.934,37.494c7.445-7.476,21.256-21.342,21.71-21.798c0.648-0.651,7.789-9.123,7.789-9.123s-8.439,7.168-9.086,7.822L9.635,36.19L10.934,37.494z"/><g><path fill="#558B2F" d="M23.742,9.542c1.126-1.123,2.507-2.227,4.055-2.801c1.546-0.614,3.195-0.789,4.801-0.819c1.611-0.044,3.131,0.26,4.711,0.104c-1.603,0.237-3.114,0.144-4.695,0.262c-1.582,0.085-3.151,0.409-4.547,1.078c-0.697,0.333-1.348,0.751-1.937,1.244c-0.591,0.485-1.093,1.072-1.633,1.673c-2.117,2.388-4.167,4.852-6.207,7.319l-6.077,7.312c-1.114,1.68-1.997,3.503-2.091,5.262c-0.245,4.596,0.956,4.538-0.495,6.009c-0.603-0.692-1.146-1.472-1.53-2.363c-0.521-1.182-0.756-2.524-0.663-3.809c0.191-2.597,1.414-4.755,2.767-6.575l0.052-0.072l0.023-0.026c2.161-2.38,4.385-4.693,6.616-7.005C19.144,14.042,21.405,11.761,23.742,9.542z"/><path fill="#558B2F" d="M9.336 35.858c0 0-4.804-3.857-2.883-11.572 1.921 4.822 2.883 10.607 2.883 10.607M11.122 37.651c0 0 3.843 4.822 11.528 2.893-4.803-1.928-10.567-2.893-10.567-2.893"/><path fill="#558B2F" d="M37.468,23.323c1.119-1.131,2.22-2.517,2.792-4.071c0.61-1.552,0.785-3.208,0.815-4.821c0.042-1.615-0.214-3.096-0.057-4.68c-0.235,1.607-0.19,3.077-0.307,4.668c-0.086,1.586-0.409,3.161-1.075,4.563c-0.332,0.699-0.75,1.354-1.24,1.945c-0.481,0.592-1.067,1.099-1.665,1.639c-2.379,2.127-4.833,4.184-7.291,6.23l-7.282,6.102c-1.673,1.121-3.487,2.006-5.24,2.102c-4.576,0.244-4.521-0.961-5.984,0.496c0.689,0.604,1.466,1.148,2.353,1.536c1.176,0.521,2.516,0.759,3.793,0.664c2.587-0.19,4.737-1.419,6.55-2.775l0.072-0.053l0.026-0.024c2.371-2.168,4.676-4.4,6.975-6.644C32.986,27.939,35.259,25.671,37.468,23.323z"/></g></svg>