<svg xmlns="http://www.w3.org/2000/svg" xmlns:xlink="http://www.w3.org/1999/xlink" viewBox="0 0 48 48"><path fill="#3e2723" d="M35.25,41c-7.5,0-22.5,0-22.5,0C6.5,41,4,37,4,37h40C44,37,41.5,41,35.25,41z"/><path fill="#5d4037" d="M46.5,37h-45C0.672,37,0,36.328,0,35.5l0,0C0,34.672,0.672,34,1.5,34h45c0.828,0,1.5,0.672,1.5,1.5 l0,0C48,36.328,47.328,37,46.5,37z"/><rect width="20" height="20" x="20" y="14" fill="#d7ccc8"/><rect width="12" height="20" x="8" y="14" fill="#bcaaa4"/><path fill="#689f38" d="M36.46,13.484c-1.845,0.946-4.101,0.457-5.038-1.093c-0.938-1.549-0.203-3.572,1.642-4.518 c3.34-1.713,7.901-0.375,7.901-0.375S39.8,11.771,36.46,13.484z"/><path fill="#8bc34a" d="M37,10.5c0,1.933-1.343,3.5-3,3.5s-3-1.567-3-3.5C31,7,34,4,34,4S37,7,37,10.5z"/></svg>