<svg xmlns="http://www.w3.org/2000/svg" xmlns:xlink="http://www.w3.org/1999/xlink" width="48" height="48" viewBox="0 0 48 48"><path fill="#388E3C" d="M40.815,5c-2.087,4.212-10.556,4.08-13.015,9.106c-0.501,1.023-0.847,2.095-1.031,3.163c-0.017,0.076-0.034,0.144-0.049,0.233c-0.41,2.536-2.265,2.965-2.265,2.965l0.007,0.007c-1.501,0.495-2.951,1.389-4.185,2.634c-0.913,0.92-1.618,1.938-2.125,2.99c-0.007,0.011-0.013,0.017-0.02,0.027c-0.949,1.456-2.354,1.904-3.28,2.036c-0.308,0-0.617,0.017-0.926,0.045c-0.01-0.001-0.021-0.002-0.021-0.002l-0.001,0.005c-0.831,0.076-1.663,0.247-2.484,0.519c-2.07,0.685-3.865,1.933-5.051,3.512C5.718,33.107,4,35.007,4,35.007s0.806,2.29,1.161,3.381C6.071,41.189,8.922,43,12.422,43c1.152,0,2.313-0.191,3.453-0.568c1.943-0.643,3.634-1.783,4.816-3.226l-0.001,0.015c0,0,0.006-0.013,0.018-0.034c0.073-0.089,0.15-0.175,0.219-0.267c0.162-0.215,0.309-0.435,0.443-0.657c0.593-0.676,1.608-1.522,3.158-1.928c0.329-0.041,0.657-0.105,0.984-0.186c0.022-0.003,0.042-0.008,0.063-0.01c0.008-0.005,0.012-0.009,0.019-0.014c1.715-0.44,3.391-1.411,4.792-2.823c1.456-1.467,2.459-3.268,2.862-5.105l0.005,0.008c0,0,0.398-2.079,2.491-2.804c0.006-0.007,0.009-0.012,0.014-0.019c1.935-0.859,3.677-2.532,4.797-4.765C43.392,13.904,41.251,6.229,40.815,5z"/><path fill="#9CCC65" d="M25 23.976A5.813 4.024 0 1 0 25 32.024A5.813 4.024 0 1 0 25 23.976Z" transform="rotate(-45.001 24.997 28)"/><path fill="#9CCC65" d="M37.156 12.312c2.006 1.004 2.443 4.142.976 7.006-1.467 2.867-4.279 4.375-6.287 3.371-2.006-1.004-2.444-4.143-.978-7.007C32.335 12.814 35.149 11.306 37.156 12.312zM18.862 33.575c.672 2.244-1.184 4.929-4.145 5.991-2.963 1.063-5.908.106-6.58-2.142-.673-2.243 1.184-4.928 4.145-5.99C15.244 30.37 18.19 31.329 18.862 33.575z"/><g><path fill="#F1F8E9" d="M12.416 33.598A1.662 1.149 0 1 0 12.416 35.896A1.662 1.149 0 1 0 12.416 33.598Z" transform="rotate(-24.646 12.414 34.746)"/><path fill="#F1F8E9" d="M23.414 27.294999999999998A1.662 1.149 0 1 0 23.414 29.593A1.662 1.149 0 1 0 23.414 27.294999999999998Z" transform="rotate(-46.701 23.415 28.444)"/><path fill="#F1F8E9" d="M32.79 17.231A1.661 1.15 0 1 0 32.79 19.531A1.661 1.15 0 1 0 32.79 17.231Z" transform="rotate(-71.886 32.79 18.382)"/></g></svg>