<svg xmlns="http://www.w3.org/2000/svg" xmlns:xlink="http://www.w3.org/1999/xlink" viewBox="0 0 48 48"><path fill="#b71c1c" d="M31,18c0,1.7-1.3,3-3,3s-3-1.3-3-3s1.3-3,3-3S31,16.3,31,18z"/><path fill="#b71c1c" d="M28 17c0 1.7-1.3 3-3 3s-3-1.3-3-3 1.3-3 3-3S28 15.3 28 17zM20 17c0 1.7-1.3 3-3 3s-3-1.3-3-3 1.3-3 3-3S20 15.3 20 17z"/><path fill="#b71c1c" d="M17,18c0,1.7-1.3,3-3,3s-3-1.3-3-3s1.3-3,3-3S17,16.3,17,18z"/><path fill="#b71c1c" d="M14 19c0 1.7-1.3 3-3 3s-3-1.3-3-3 1.3-3 3-3S14 17.3 14 19zM34 19c0 1.7-1.3 3-3 3s-3-1.3-3-3 1.3-3 3-3S34 17.3 34 19zM24 16c0 1.7-1.3 3-3 3s-3-1.3-3-3 1.3-3 3-3S24 14.3 24 16z"/><path fill="#90caf9" d="M41.5,25c-0.6,0-1-0.4-1-1s0.4-1,1-1c1.9,0,3.5-1.6,3.5-3.5S43.4,16,41.5,16S38,17.6,38,19.5v2.6 c0,0.6-0.4,1-1,1s-1-0.4-1-1v-2.6c0-3,2.5-5.5,5.5-5.5s5.5,2.5,5.5,5.5S44.5,25,41.5,25z"/><path fill="#90caf9" d="M25,36h-5.9c-7.8,0-12-5.9-13.1-11.1C5,20.1,1,17,1,17v-2c0,0,9.1,3,20.8,3s16.4-3,18.1-3.7 c0,0-3.4,2.8-1.8,7.6C38,29.7,32.8,36,25,36z"/><path fill="#64b5f6" d="M14,35h16v2H14V35z"/><path fill="#90caf9" d="M30,37H14c-1.1,0-2,0.9-2,2v1h20v-1C32,37.9,31.1,37,30,37z"/></svg>