<svg xmlns="http://www.w3.org/2000/svg" xmlns:xlink="http://www.w3.org/1999/xlink" viewBox="0 0 48 48"><path fill="#7986cb" d="M9,44c-2.8,0-5-2.2-5-5c0-1.7,0.8-3.2,2.2-4.1C7,34.3,8,34,9,34h1v2H9c-0.6,0-1.2,0.2-1.7,0.5 C6.5,37.1,6,38,6,39c0,1.7,1.3,3,3,3c1.7,0,3-1.3,3-3c0-4.2,0.1-4.5,2.4-6.8L40.3,6.3l1.4,1.4L15.8,33.6C14,35.4,14,35.4,14,39 C14,41.8,11.8,44,9,44z"/><path fill="#f44336" d="M27.7,30.8l-4.9,4.9c-0.4,0.4-1.2,0.4-1.5-0.2c-0.8-1.2-2-3.4-3.4-4.8c-1.5-1.5-4.1-3.1-5.5-4.1 c-0.5-0.4-0.6-1.1-0.1-1.5l4.9-4.9c0.5-0.5,1.2-0.4,1.5,0.2c0.7,1.1,1.6,3,3.4,4.7c1.9,1.9,4.2,3.3,5.5,4.1 C28.1,29.6,28.1,30.4,27.7,30.8z"/><path fill="#ff8a80" d="M23.5,35c-2.3-2.3-3.6-4.8-4.8-7.1c-1.1-2-2-3.9-3.6-5.5l1.4-1.4c1.8,1.8,2.8,3.8,4,6 c1.2,2.2,2.4,4.5,4.4,6.6L23.5,35z"/><path fill="#f44336" d="M31.8,26.7l3.9-3.9c0.4-0.4,0.4-1.2-0.2-1.5c-1.2-0.8-3.4-2-4.8-3.4c-1.5-1.5-3.1-4.1-4.1-5.5 c-0.4-0.5-1.1-0.6-1.5-0.1l-3.9,3.9C21.1,16.4,21,16.7,21,17c0,0.3,2.3,4.3,4,6c1.9,1.9,5.7,4,6,4C31.3,27,31.6,26.9,31.8,26.7z"/><path fill="#ff8a80" d="M33.6,24.9c-2.1-2.1-4.4-3.3-6.6-4.4c-2.2-1.1-4.2-2.2-6-4l1.4-1.4c1.6,1.6,3.5,2.6,5.5,3.6 c2.4,1.2,4.8,2.5,7.1,4.8L33.6,24.9z"/><path fill="#f44336" d="M43.7,14.8l-4.9,4.9c-0.4,0.4-1.2,0.4-1.5-0.2c-0.8-1.2-2-3.4-3.4-4.8c-1.5-1.5-4.1-3.1-5.5-4.1 c-0.5-0.4-0.6-1.1-0.1-1.5l4.9-4.9c0.5-0.5,1.2-0.4,1.5,0.2c0.7,1.1,1.6,3,3.4,4.7c1.9,1.9,4.2,3.3,5.5,4.1 C44.1,13.6,44.2,14.4,43.7,14.8z"/><path fill="#ff8a80" d="M39.5,19c-2.3-2.3-3.6-4.8-4.8-7.1c-1.1-2-2-3.9-3.6-5.5L32.5,5c1.8,1.8,2.8,3.8,4,6 c1.2,2.2,2.4,4.5,4.4,6.6L39.5,19z"/></svg>