<svg xmlns="http://www.w3.org/2000/svg" xmlns:xlink="http://www.w3.org/1999/xlink" viewBox="0 0 48 48"><path fill="#3e2723" d="M35.097,44.24c-0.36,0.95-0.97,1.76-1.989,1.76H14.902c-1.02,0-1.63-0.81-1.989-1.76 c-0.62-1.62-1.25-4.27-0.68-8.24c0.78-5.48,3.669-11.48,5.699-16L24,19l6.068,1c2.029,4.52,4.929,10.52,5.709,16 C36.347,39.97,35.717,42.62,35.097,44.24z"/><path fill="#cfd8dc" d="M17.93,20c1.18-2.64,2.07-4.77,2.07-6c0-1.82-0.25-3.5-1-5l5-1l5,1c-0.75,1.5-1,3.18-1,5 c0,1.23,0.89,3.36,2.07,6H17.93z"/><ellipse cx="24" cy="36" fill="#f9a825" rx="7" ry="5"/><polygon fill="#b71c1c" points="30,6 29,9 19,9 18,6 24,5"/><polygon fill="#e53935" points="31,6 17,6 16,2 32,2"/></svg>