<svg xmlns="http://www.w3.org/2000/svg" xmlns:xlink="http://www.w3.org/1999/xlink" viewBox="0 0 48 48"><path fill="#2196f3" d="M43 14.2H31.2v-1.8l11.8 0v-1.8H31.2V8.8H43V6.9L29.6 6 26 9v5l3.6 3L43 16.1V14.2zM4 39c0 0 2 4 10 4 4 0 12 0 20 0s10-4 10-4H4"/><path fill="#ffe082" d="M37 39v-5.7c-2.7-2.3-6.6-3.8-11-4.2C25.3 29 24.7 29 24 29c-8.4 0-15.4 4.3-16.7 10H37zM39 39V6c0-.6-.4-1-1-1s-1 .4-1 1v33H39z"/><path fill="#3f51b5" d="M26,14l0.2-5H5.8C4.8,9,4,9.8,4,10.8v1.4c0,1,0.8,1.8,1.8,1.8H26z"/><path fill="#ffb300" d="M33 27c-2.9 0-4-2.4-4-4 0-1.2.8-3 3-3 .6 0 1 .4 1 1s-.4 1-1 1c-.8 0-1 .6-1 1 0 .5.2 2 2 2 1.9 0 2-1.7 2-2V6c0-.6.4-1 1-1s1 .4 1 1v17C37 24.6 35.9 27 33 27zM9.3 39c.8-2.7 3.2-4.9 6.5-6.4-2.4 1.7-4 3.9-4.6 6.4h2c.8-2.7 3.2-4.9 6.5-6.4-2.4 1.7-4 3.9-4.6 6.4h2c.8-2.7 3.2-4.9 6.5-6.4-2.4 1.7-4 3.9-4.6 6.4h2c.8-2.7 3.2-4.9 6.5-6.4-2.4 1.7-4 3.9-4.6 6.4h2c.8-2.7 3.2-4.9 6.5-6.4-2.4 1.7-4 3.9-4.6 6.4h2c.7-2.1 2.3-4 4.7-5.4.1.1.3.2.4.3-1.6 1.5-2.7 3.3-3.2 5.2h2c.5-1.5 1.4-2.8 2.7-4 .4.3.7.7 1 1v-2.7c-2.7-2.3-6.6-3.9-11-4.2C25.3 29 24.7 29 24 29c-8.4 0-15.4 4.3-16.7 10H9.3zM41 39V6c0-.6-.4-1-1-1s-1 .4-1 1v33H41z"/><path fill="#ffb300" d="M37,39V6c0-0.6-0.4-1-1-1s-1,0.4-1,1v33H37z"/></svg>