<svg xmlns="http://www.w3.org/2000/svg" xmlns:xlink="http://www.w3.org/1999/xlink" viewBox="0 0 48 48"><path fill="#DD9F05" d="M10.973,30h26.055c2.452,0,4.711,1.329,5.902,3.473l0.793,1.427c0.203,0.365,0.301,0.737,0.307,1.1c0.03,1.58-1.662,3.001-3.952,3.001H7.923c-2.818,0-4.729-2.15-3.645-4.101l0.793-1.427C6.261,31.329,8.521,30,10.973,30z M5.041,9.473l-0.793,1.427C3.165,12.85,5.076,15,7.893,15h32.154c2.291,0,3.982-1.421,3.952-3.001c-0.007-0.363-0.105-0.735-0.307-1.1L42.9,9.473C41.709,7.329,40,6,36.998,6H10.943C8.056,6,6.232,7.329,5.041,9.473z"/><path fill="#FFC107" d="M44,38.999c0.03,1.58-1.615,3-3.905,3H24.077V42H8c-2.291,0-4.029-1.42-4-3c0.002-0.126,0.001-1.826,0-2.609C4.23,37.806,5.824,39,7.923,39h32.154c2.165,0,3.775-1.272,3.923-2.745C43.999,36.955,43.997,38.866,44,38.999z M43.952,12.411C43.71,13.817,42.136,15,40.047,15H7.893c-2.201,0-3.842-1.313-3.941-2.818c0.001,0.623,0.002,2.679,0,2.818c-0.03,1.58,1.662,3,3.952,3H40c2.291,0,3.982-1.421,3.952-3.001C43.95,14.875,43.951,13.202,43.952,12.411z M38,11c0,1.1-0.9,2-2,2h-6c-1.1,0-2-0.9-2-2c0-1.1,0.9-2,2-2h6C37.1,9,38,9.9,38,11z M33,11c0-0.55-0.45-1-1-1h-2c-0.55,0-1,0.45-1,1s0.45,1,1,1h2C32.55,12,33,11.55,33,11z M37,11c0-0.55-0.45-1-1-1h-1c-0.55,0-1,0.45-1,1s0.45,1,1,1h1C36.55,12,37,11.55,37,11z"/><path fill="#1565C0" d="M40,18H7.905c-1.177,0-2.19-0.378-2.898-0.957l0.041,18.332c0,1.45,1.175,2.625,2.625,2.625h32.702C41.825,38,43,36.825,43,35.375v-18.39C42.29,17.595,41.214,18,40,18z"/><path fill="#FFEB3B" d="M13.959,29.582c0-0.357-0.091-0.627-0.274-0.809c-0.182-0.182-0.514-0.372-0.996-0.569c-0.878-0.333-1.51-0.723-1.895-1.17c-0.385-0.447-0.578-0.976-0.578-1.585c0-0.738,0.262-1.331,0.785-1.778C11.525,23.224,12.19,23,12.996,23c0.537,0,1.017,0.113,1.438,0.34c0.421,0.227,0.745,0.546,0.972,0.96s0.34,0.882,0.34,1.408h-1.763c0-0.409-0.087-0.721-0.262-0.935s-0.426-0.322-0.755-0.322c-0.309,0-0.549,0.091-0.722,0.274c-0.172,0.182-0.259,0.428-0.259,0.737c0,0.241,0.096,0.458,0.289,0.653s0.533,0.396,1.023,0.605c0.854,0.309,1.475,0.688,1.862,1.137c0.387,0.449,0.581,1.021,0.581,1.715c0,0.762-0.243,1.358-0.728,1.787C14.526,31.785,13.866,32,13.032,32c-0.566,0-1.081-0.116-1.546-0.349s-0.829-0.566-1.092-0.999C10.131,30.219,10,29.708,10,29.118h1.775c0,0.505,0.098,0.872,0.295,1.101c0.197,0.229,0.517,0.343,0.963,0.343C13.65,30.562,13.959,30.235,13.959,29.582z M18.826,28.835V32h-1.82v-9h3.071c0.892,0,1.603,0.276,2.133,0.828c0.53,0.552,0.796,1.269,0.796,2.151s-0.262,1.578-0.786,2.089c-0.524,0.511-1.251,0.766-2.18,0.766H18.826z M18.826,27.321h1.251c0.347,0,0.615-0.113,0.805-0.34c0.19-0.227,0.285-0.556,0.285-0.989c0-0.449-0.097-0.807-0.291-1.072s-0.454-0.401-0.78-0.405h-1.269V27.321z M27.064,30.158h-2.479L24.103,32h-1.922l2.813-9h1.663l2.831,9h-1.941L27.064,30.158z M24.981,28.644h1.681l-0.841-3.208L24.981,28.644z M32.333,23l1.67,6.509L35.667,23H38v9h-1.792v-2.435l0.164-3.752L34.604,32H33.39l-1.768-6.188l0.164,3.752V32H30v-9H32.333z"/></svg>