<svg xmlns="http://www.w3.org/2000/svg" xmlns:xlink="http://www.w3.org/1999/xlink" width="48" height="48" viewBox="0 0 48 48"><path fill="#546E7A" d="M26,5.5C26,6.328,25.328,7,24.5,7h-1C22.672,7,22,6.328,22,5.5v-1C22,3.672,22.672,3,23.5,3h1C25.328,3,26,3.672,26,4.5V5.5z"/><path fill="#BBDEFB" d="M32,26.5c0,0.828-0.672,1.5-1.5,1.5h-13c-0.828,0-1.5-0.672-1.5-1.5v-9c0-0.828,0.672-1.5,1.5-1.5h13c0.828,0,1.5,0.672,1.5,1.5V26.5z"/><path fill="#64B5F6" d="M23 16H25V27H23z"/><path fill="#5D4037" d="M32,24.5c0-0.828-0.672-1.5-1.5-1.5h-13c-0.828,0-1.5,0.672-1.5,1.5v12c0,0.828,0.672,1.5,1.5,1.5h13c0.828,0,1.5-0.672,1.5-1.5V24.5z"/><path fill="#4E342E" d="M23.5 28A1.5 1.5 0 1 0 23.5 31 1.5 1.5 0 1 0 23.5 28zM29.5 21A1.5 1.5 0 1 0 29.5 24 1.5 1.5 0 1 0 29.5 21zM19.5 31A1.5 1.5 0 1 0 19.5 34 1.5 1.5 0 1 0 19.5 31zM27.5 33A1.5 1.5 0 1 0 27.5 36 1.5 1.5 0 1 0 27.5 33zM23.5 32A1.5 1.5 0 1 0 23.5 35 1.5 1.5 0 1 0 23.5 32zM28.5 28A1.5 1.5 0 1 0 28.5 31 1.5 1.5 0 1 0 28.5 28z"/><path fill="#4E342E" d="M17.5 32A1.5 1.5 0 1 0 17.5 35 1.5 1.5 0 1 0 17.5 32zM18.5 20A1.5 1.5 0 1 0 18.5 23 1.5 1.5 0 1 0 18.5 20zM19.5 23A1.5 1.5 0 1 0 19.5 26 1.5 1.5 0 1 0 19.5 23z"/><g><path fill="#FF5722" d="M20.5 21c-.197 0-.385.041-.558.11C19.976 21.235 20 21.364 20 21.5c0 .631-.391 1.168-.942 1.39C19.23 23.528 19.808 24 20.5 24c.828 0 1.5-.672 1.5-1.5S21.328 21 20.5 21zM24.5 34A1.5 1.5 0 1 0 24.5 37 1.5 1.5 0 1 0 24.5 34zM29.5 25A1.5 1.5 0 1 0 29.5 28 1.5 1.5 0 1 0 29.5 25zM20.582 35.082A1.5 1.5 0 1 0 20.582 38.082 1.5 1.5 0 1 0 20.582 35.082zM19.5 26A1.5 1.5 0 1 0 19.5 29 1.5 1.5 0 1 0 19.5 26z"/></g><g><path fill="#F0F4C3" d="M18.5 23c-.631 0-1.168-.391-1.39-.942C16.472 22.23 16 22.808 16 23.5c0 .828.672 1.5 1.5 1.5s1.5-.672 1.5-1.5c0-.197-.041-.385-.11-.558C18.765 22.976 18.636 23 18.5 23zM25.5 26A1.5 1.5 0 1 0 25.5 29 1.5 1.5 0 1 0 25.5 26zM28.5 35A1.5 1.5 0 1 0 28.5 38 1.5 1.5 0 1 0 28.5 35z"/></g><g><path fill="#795548" d="M17.5 28A1.5 1.5 0 1 0 17.5 31 1.5 1.5 0 1 0 17.5 28zM21.5 25A1.5 1.5 0 1 0 21.5 28 1.5 1.5 0 1 0 21.5 25zM26.5 30A1.5 1.5 0 1 0 26.5 33 1.5 1.5 0 1 0 26.5 30zM29.5 32A1.5 1.5 0 1 0 29.5 35 1.5 1.5 0 1 0 29.5 32zM26.5 22A1.5 1.5 0 1 0 26.5 25 1.5 1.5 0 1 0 26.5 22zM21.5 30.5A1.5 1.5 0 1 0 21.5 33.5 1.5 1.5 0 1 0 21.5 30.5z"/></g><g><path fill="#558B2F" d="M23.5 22A1.5 1.5 0 1 0 23.5 25 1.5 1.5 0 1 0 23.5 22zM18.5 32.84A1.5 1.5 0 1 0 18.5 35.84 1.5 1.5 0 1 0 18.5 32.84zM30.5 29A1.5 1.5 0 1 0 30.5 32 1.5 1.5 0 1 0 30.5 29zM30.5 22A1.5 1.5 0 1 0 30.5 25 1.5 1.5 0 1 0 30.5 22z"/></g><g><path fill="#90A4AE" d="M32 43.5c0 .828-.672 1.5-1.5 1.5h-13c-.828 0-1.5-.672-1.5-1.5v-4c0-.828.672-1.5 1.5-1.5h13c.828 0 1.5.672 1.5 1.5V43.5zM32 12.444C32 14.408 30.408 16 28.444 16h-8.889C17.592 16 16 14.408 16 12.444l0 0c0-1.963 1.925-5.443 8-5.443C30.074 7.001 32 10.481 32 12.444L32 12.444z"/></g></svg>