<svg xmlns="http://www.w3.org/2000/svg" xmlns:xlink="http://www.w3.org/1999/xlink" viewBox="0 0 48 48"><path fill="#7986cb" d="M11,42c-2.8,0-5-2.2-5-5c0-1.7,0.8-3.2,2.2-4.1C9,32.3,10,32,11,32h1v2h-1c-0.6,0-1.2,0.2-1.7,0.5 C8.5,35.1,8,36,8,37c0,1.7,1.3,3,3,3s3-1.3,3-3c0-4.2,0.1-4.5,2.4-6.8L40.3,6.3l1.4,1.4L17.8,31.6C16,33.4,16,33.4,16,37 C16,39.8,13.8,42,11,42z"/><path fill="#ff5722" d="M34.6,13.3c-2.5-2.5-3.2-5.1-3.2-5.2l3-0.7c0,0,0.5,1.9,2.4,3.7c1.9,1.9,3.9,2.5,3.9,2.5l-0.8,2.9 C39.7,16.6,37.1,15.8,34.6,13.3z"/><path fill="#6d4c41" d="M36 20.5c-.4.4-1 .4-1.4 0l-7.1-7.1c-.4-.4-.4-1 0-1.4l2.1-2.1c.4-.4 1-.4 1.4 0l7.1 7.1c.4.4.4 1 0 1.4L36 20.5zM27.5 28.9c-.4.4-1 .4-1.4 0l-7.1-7.1c-.4-.4-.4-1 0-1.4l2.1-2.1c.4-.4 1-.4 1.4 0l7.1 7.1c.4.4.4 1 0 1.4L27.5 28.9z"/><path fill="#ffc107" d="M17.6,30.3c-2.6-2.6-3.2-5.1-3.3-5.4l-0.5-2l4-0.9l0.5,2c0,0.1,0.5,1.8,2.2,3.5 c1.8,1.8,3.7,2.4,3.7,2.4l2,0.6L25,34.3l-2-0.6C22.8,33.6,20.1,32.8,17.6,30.3z"/><path fill="#8bc34a" d="M26.1,21.8c-2.6-2.6-3.2-5.1-3.3-5.4l-0.5-2l4-0.9l0.5,2c0,0.1,0.5,1.8,2.2,3.5 c1.8,1.8,3.7,2.4,3.7,2.4l2,0.6l-1.1,3.9l-2-0.6C31.3,25.2,28.6,24.4,26.1,21.8z"/></svg>