<svg xmlns="http://www.w3.org/2000/svg" xmlns:xlink="http://www.w3.org/1999/xlink" viewBox="0 0 48 48"><path fill="#8bc34a" d="M34.178,5.578c-10.044-5.577-17.625-1.504-23.684,8.247C6.839,19.707,6.7,27.148,7.752,30.196c0.89,2.776,2.069,5.87-1.814,11.694c-1.941,1.941,0.176,3.823,2.117,2.852c1.908-0.954,6.266-5.054,11.383-4.852c6.598,0.046,15.235-0.866,20.165-9.816C44.938,20.39,44.222,11.156,34.178,5.578z"/><path fill="#ccff90" d="M10.214,39.311c0.31-0.426,2.876-3.762,3.357-4.377C16.796,30.806,23.993,19.912,27,6.765C27,21.327,17.639,34.857,10.214,39.311z"/><path fill="#ccff90" d="M18.19,31.825l-2,0.037c-0.139-7.417-3.393-13.916-3.393-13.916C12.975,18.123,18.036,23.61,18.19,31.825z"/><path fill="#ccff90" d="M22.099,21.505C21.383,15.187,18.91,9.507,18.91,9.507c0.157,0.154,4.376,4.71,5.177,11.772L22.099,21.505z"/><path fill="#ccff90" d="M23.282,23.153l-1.47-1.356c5.228-5.666,15.948-5.658,16.342-5.653C38.155,16.144,27.9,18.148,23.282,23.153z"/><path fill="#ccff90" d="M17.594,32.452l-0.942-1.764c5.665-3.025,16.112-2.586,16.474-2.548C33.125,28.14,22.711,29.721,17.594,32.452z"/></svg>