<?xml version="1.0" encoding="utf-8"?><!-- Generator: Adobe Illustrator 15.0.0, SVG Export Plug-In . SVG Version: 6.00 Build 0)  --><!DOCTYPE svg PUBLIC "-//W3C//DTD SVG 1.1//EN" "http://www.w3.org/Graphics/SVG/1.1/DTD/svg11.dtd"><svg xmlns="http://www.w3.org/2000/svg" xmlns:xlink="http://www.w3.org/1999/xlink" version="1.1" x="0px" y="0px" width="528" height="528" viewBox="0 0 48 48" enable-background="new 0 0 48 48" xml:space="preserve">
<g>
	<path fill="#2196F3" d="M44,12.908l-15.726,5.135c-0.79,0.23-1.25,1.059-1.024,1.845l0.563,2.05   c0.225,0.791,1.046,1.242,1.836,1.015L44,19.957V12.908z"/>
	<path fill="#2196F3" d="M4.066,26.318C4.662,28.4,11.65,36.497,23.06,33.234c11.409-3.264,8.616-13.073,8.616-13.073   s-0.441-1.542-0.459-1.601C31.217,18.561,3.467,24.243,4.066,26.318z"/>
</g>
<path fill="#3F51B5" d="M31.217,18.561c1.131,3.935-1.886,8.253-9.386,10.395C14.333,31.1,4.885,29.172,4.066,26.318  c-0.819-2.848,6.171-9.473,13.672-11.62C25.235,12.557,30.086,14.621,31.217,18.561z"/>
<path fill="#CFD8DC" d="M7.144,25.443c1.874,1.119,8.252,2.269,13.868,0.662c5.129-1.466,8.203-4.204,7.467-6.761h0.001  l-9.259-5.021l-3.408-2.137c-0.718-0.398-1.622-0.141-2.021,0.578l-2.246,4.723l-4.438,7.965L7.144,25.443z"/>
<g>
	<circle fill="#78909C" cx="14.152" cy="21.846" r="1.015"/>
	<circle fill="#78909C" cx="15.265" cy="18.367" r="1.015"/>
	<circle fill="#78909C" cx="18.056" cy="20.73" r="1.015"/>
</g>
</svg>