<svg xmlns="http://www.w3.org/2000/svg" xmlns:xlink="http://www.w3.org/1999/xlink" viewBox="0 0 48 48"><path fill="#43a047" d="M26.719,4.814c-1.032,1.176-4.957,0.366-4.707-1.209C22.23,2.227,23.03,0.945,24.356,0c0.544,0.619,1.087,1.239,1.631,1.858C25.188,3.061,25.612,4.327,26.719,4.814z"/><path fill="#ffb300" d="M37.833,31.388c-0.242-1.535-0.764-2.986-1.511-4.305C33.656,22.376,32,17.166,32,11.757v-1.411 C32,7.393,29.607,5,26.655,5h-5.309C18.393,5,16,7.393,16,10.345l0,1.439c0,5.332-1.514,10.526-4.209,15.126 C10.651,28.856,10,31.101,10,33.495c0,0.054,0,0.109,0.001,0.163c0.075,6.117,5.584,10.244,12.233,10.244 c1.25,0.006,2.497,0.012,3.747,0.018c6.104,0,11.688-3.882,12-9.721C38.03,33.283,37.984,32.343,37.833,31.388z"/><path fill="#43a047" d="M27,5h-6v0c0-1.105,0.895-2,2-2h2C26.105,3,27,3.895,27,5L27,5z"/><path fill="#ffa000" d="M15.32,34.399l0-0.168c0-2.384,0.406-4.731,1.175-6.789c1.946-5.206,2.974-10.997,2.974-16.748v-1.56c0-1.816,0.589-3.269,1.346-4.082c-1.116,0.112-2.122,0.557-2.929,1.248c-0.266,0.859-0.418,1.815-0.418,2.834v1.56c0,5.515-0.984,11.064-2.847,16.048c-0.852,2.279-1.302,4.869-1.302,7.489l0,0.184c0.024,3.075,0.85,5.809,2.227,7.899c1.275,0.674,2.71,1.152,4.247,1.396C17.144,42.201,15.354,38.695,15.32,34.399z"/><path fill="#ffa000" d="M33.461,26.939c-1.944-5.379-2.929-10.854-2.929-16.274v-1.53c0-1.018-0.151-1.975-0.418-2.834c-0.806-0.691-1.813-1.136-2.929-1.248c0.758,0.813,1.346,2.266,1.346,4.082v1.53c0,5.652,1.025,11.356,3.048,16.954c0.501,1.388,0.835,2.877,0.99,4.428c0.098,0.969,0.131,1.949,0.098,2.912c-0.138,4.033-1.89,7.327-4.397,8.775c1.513-0.245,2.95-0.733,4.235-1.425c1.272-1.957,2.065-4.469,2.162-7.282c0.036-1.053,0-2.124-0.107-3.181C34.388,30.132,34.019,28.481,33.461,26.939z"/><path fill="#ffa000" d="M21.612,27.241c0.769-5.142,1.175-10.863,1.175-16.546v-1.56c0-1.92,0.238-3.32,0.482-4.135h-1.923c-0.051,0-0.099,0.014-0.15,0.015c-0.359,1.529-0.408,3.3-0.408,4.12v1.56c0,5.585-0.399,11.205-1.153,16.25c-0.332,2.216-0.507,4.736-0.507,7.287l0,0.179c0.01,3.304,0.431,6.97,1.452,9.393c0.543,0.058,1.092,0.098,1.654,0.098c0.209,0.001,0.418,0.002,0.627,0.003c-0.757-1.206-1.717-4.249-1.733-9.5l0-0.173C21.127,31.778,21.295,29.361,21.612,27.241z"/><path fill="#ffa000" d="M28.867,35.007c0.014-1.026,0-2.069-0.042-3.101c-0.067-1.669-0.211-3.274-0.427-4.771c-0.786-5.441-1.185-10.983-1.185-16.471v-1.53c0-0.82-0.05-2.591-0.408-4.12C26.754,5.014,26.706,5,26.655,5h-1.923c0.243,0.815,0.482,2.215,0.482,4.135v1.53c0,5.583,0.406,11.221,1.206,16.757c0.207,1.428,0.344,2.964,0.409,4.565c0.04,0.996,0.054,2.002,0.04,2.993c-0.067,4.926-1.009,7.776-1.711,8.936c0.275,0.001,0.55,0.003,0.825,0.004c0.481,0,0.956-0.032,1.428-0.08C28.348,41.617,28.822,38.307,28.867,35.007z"/></svg>