<svg xmlns="http://www.w3.org/2000/svg" xmlns:xlink="http://www.w3.org/1999/xlink" viewBox="0 0 48 48"><path fill="#e65100" d="M13.2,15.2c-5-2.7-9.3-11.6-9.4-11.9l1.8-0.9c0,0.1,4.2,8.7,8.6,11L13.2,15.2z"/><path fill="#7cb342" d="M14.7,8.7L15,6.4l1.8,2.1l2.6-2.8L20.5,8l2.8-1.8l0.4,2.8l4.3-1.8l-0.1,2.9l2.3-1.2L29.8,12l3.8,0.1 l-1,2.3l3.3,1.6L34,17.5l2.9,1.1L35,21l3,0.4l-2.1,2.3l2.8,0.7l-1.6,2.2l3.5,0.1l-1.1,1.9l2.9,0.3L41,30.8l2.8,0.5l-1.8,2.1 l2.8,1.2l-2.1,0.9l2.8,2.2l-1.9,0.2l1.1,3.2l-3.4-0.9L40.9,43l-2.2-1.4L37.2,44l-2.1-2.2l-1.9,2.9l-2.1-2.8l-2,2.4L27.5,42 l-1.9,2.4l-1-2.8l-2.4,1.6l-0.4-3l-2.8,2l-0.5-2.9l-2.8,1.5L15.5,38l-2.2,1.5l-0.1-2.8l-2.6,0.7l0.1-2.9l-2.8,0.2l0.8-2.9l-3.1-0.5 l1.2-2.5l-2.9-1.3l1.6-2.3l-2.4-1.6l1.7-2.1L3,19.2l2-1.3l-1.2-2.7l2.2-0.7l0.7-2.6L8.9,13l0.2-3.3l2.7,1.2L12,7.3L14.7,8.7z"/><path fill="#7cb342" d="M18.3,7c18.9,0,17.5,16.6,20.3,19.3c4,3.9,5.4,7.7,5.4,12.2c0,2.3-5.9,4.5-13.3,4.5S4,38.6,4,19.5 c0-7.4,6.5-7.6,6.5-7.6S12.4,7,18.3,7z"/><path fill="#fff" d="M30.7,41c-3.7,0-9.9-1.1-15.1-4.3C9.2,32.8,6,27,6,19.5c0-5.1,3.8-5.6,4.6-5.6l1.3-0.1 c0,0,12.1,15.8,30.2,24.6C41.4,39.2,37.4,41,30.7,41z"/><path fill="#263238" d="M12.9 20.6c0 0-4.5.3-4.1 2C9.4 24.3 11.7 23.6 12.9 20.6zM15.3 26.4c0 0-4.5.7-3.9 2.3C12.1 30.4 14.4 29.5 15.3 26.4zM19.2 31c0 0-4.2 1.8-3.2 3.2C17 35.6 19 34.3 19.2 31zM24.6 34.5c0 0-3.5 2.5-2.2 3.6C23.6 39.2 25.1 37.5 24.6 34.5zM30.3 36.2c0 0-2.7 2.5-1.6 3.3S31.1 38.7 30.3 36.2z"/></svg>