<svg xmlns="http://www.w3.org/2000/svg" xmlns:xlink="http://www.w3.org/1999/xlink" viewBox="0 0 48 48"><path fill="#388e3c" d="M5,27c-0.051-0.238-0.095-0.598,0-1c0.949-4,13.75-4,19-4s18.051,0,19,4 c0.095,0.402,0.051,0.762,0,1c-0.115,1.678-0.627,7.009-4.865,11.133C35.339,40.853,30.935,43,24,43c-2.947,0-9.279,0-14.135-4.867 C5.689,33.947,5.115,28.677,5,27z"/><path fill="#fbc02d" d="M40.46,27.99C37.18,29.19,31.04,30,24,30c-0.33,0-0.67,0-1-0.01c-3.58-0.03-6.9-0.28-9.69-0.68 c-2.36-0.34-4.34-0.79-5.77-1.32C9.44,26.27,16.09,25,24,25S38.56,26.27,40.46,27.99z"/><ellipse cx="27.5" cy="27" fill="#f57f17" rx="3.5" ry="1"/><path fill="#f57f17" d="M23,28.99c-3.58-0.03-6.9-0.28-9.69-0.68C14.01,27.55,15.85,27,18,27C20.75,27,22.99,27.89,23,28.99 z"/><path fill="#7cb342" d="M24,31c-7.429,0-20-1.053-20-5s12.571-5,20-5s20,1.053,20,5S31.429,31,24,31z M24,23 c-11.126,0-17.635,1.974-18.004,3.032C6.365,27.026,12.874,29,24,29c11.014,0,17.503-1.935,17.991-3C41.503,24.935,35.014,23,24,23 z"/><path fill="#616161" d="M43.504,14.99l-1.068-0.767c-0.535-0.384-1.279-0.26-1.661,0.276C37.85,18.666,34.925,22.833,32,27 c0.333,0,0.667,0,1,0s0.667,0,1,0s0.667,0,1,0c2.926-3.451,5.853-6.903,8.779-10.354C44.159,16.112,44.036,15.372,43.504,14.99z"/><path fill="none" stroke="#2a97f3" stroke-linecap="round" stroke-linejoin="round" stroke-width="2" d="M26.151,15C17.231,15,10,12.985,10,10.5S17.231,6,26.151,6C29.859,6,33.274,6.348,36,6.933"/><polyline fill="none" stroke="#2a97f3" stroke-linecap="round" stroke-linejoin="round" stroke-width="2" points="24,12 27,15 24,18"/></svg>