<svg xmlns="http://www.w3.org/2000/svg" xmlns:xlink="http://www.w3.org/1999/xlink" width="48" height="48" viewBox="0 0 48 48"><path fill="#90CAF9" d="M9 32A2 2 0 1 0 9 36 2 2 0 1 0 9 32zM12 38A2 2 0 1 0 12 42 2 2 0 1 0 12 38zM40.68 21.165l-2.966-2.964c-.409-.411-1.073-.411-1.484 0-.409.41-1.072.41-1.481 0l-5.934-5.93c-.41-.41-.41-1.074 0-1.483.41-.408.41-1.07.001-1.48l-2.968-2.966c-.409-.409-1.073-.409-1.483 0L7.307 23.39c-.409.408-.409 1.071 0 1.479L22.14 39.693c.41.409 1.074.409 1.482 0L40.68 22.647C41.091 22.237 41.091 21.574 40.68 21.165z"/><path fill="#ECEFF1" d="M25.848 34.504L12.499 21.165 17.69 15.977 22.882 10.788 36.229 24.129 31.039 29.315z"/><g><path fill="#3F51B5" d="M28.815 9.308c.409.41.409 1.073-.001 1.48-.41.409-.41 1.073 0 1.483l5.934 5.93c.409.41 1.072.41 1.481 0 .411-.411 1.075-.411 1.484 0l2.911 2.909c.633-.998.423-2.142-.417-3.517 0 0-2.023-3.366-4.719-6.063-2.696-2.694-6.067-4.717-6.067-4.717-1.393-.891-2.528-1.063-3.522-.418L28.815 9.308zM19.358 31.356L15.65 31.356 15.65 27.65z"/></g></svg>