<svg xmlns="http://www.w3.org/2000/svg" xmlns:xlink="http://www.w3.org/1999/xlink" viewBox="0 0 48 48"><path fill="#00c853" d="M24 4A20 20 0 1 0 24 44A20 20 0 1 0 24 4Z"/><path fill="#64dd17" d="M24,44C12.954,44,4,35.046,4,24S12.954,4,24,4V44z"/><path fill="#c6ff00" d="M41.843 33H24v4h15.18C40.222 35.785 41.114 34.442 41.843 33zM39.18 11H24v4h17.843C41.114 13.558 40.222 12.215 39.18 11zM43.082 18H24v12h19.082C43.677 28.106 44 26.091 44 24S43.677 19.894 43.082 18z"/><g><path fill="#fff9c4" d="M8.82 37H24v-4H6.157C6.886 34.442 7.778 35.785 8.82 37zM6.157 15H24v-4H8.82C7.778 12.215 6.886 13.558 6.157 15zM4 24c0 2.091.323 4.106.918 6H24V18H4.918C4.323 19.894 4 21.909 4 24z"/></g></svg>