<?xml version="1.0" encoding="utf-8"?><!-- Generator: Adobe Illustrator 15.0.0, SVG Export Plug-In . SVG Version: 6.00 Build 0)  --><!DOCTYPE svg PUBLIC "-//W3C//DTD SVG 1.1//EN" "http://www.w3.org/Graphics/SVG/1.1/DTD/svg11.dtd"><svg xmlns="http://www.w3.org/2000/svg" xmlns:xlink="http://www.w3.org/1999/xlink" version="1.1" x="0px" y="0px" width="528" height="528" viewBox="0 0 48 48" enable-background="new 0 0 48 48" xml:space="preserve">
<path fill="#90CAF9" d="M30,45H18c0,0-5-12-5-22.5c0-3.5,1-5.5,5.5-5.5s6.5,0,11,0s5.5,2,5.5,5.5C35,33,30,45,30,45z"/>
<rect x="22" y="15" fill="#42A5F5" width="4" height="13"/>
<path fill="#EEEEEE" d="M28.998,42c1.162-3.247,3.182-9.578,3.807-15.879c-2.359,1.52-6.217,0.779-8.638-0.09  c-1.427-0.512-2.66-1.291-4.168-1.685c-0.777-0.203-1.535-0.577-2.335-0.752c-0.827-0.181-1.76-0.097-2.635,0.074  c0.25,7.063,2.66,14.666,3.974,18.331H28.998z"/>
<polygon fill="#3F51B5" points="26,15 22,15 22,3 26,7 "/>
<path fill="#1976D2" d="M33,15.5c0,0.828-0.672,1.5-1.5,1.5h-15c-0.829,0-1.5-0.672-1.5-1.5v-2c0-0.828,0.671-1.5,1.5-1.5h15  c0.828,0,1.5,0.672,1.5,1.5V15.5z"/>
<g>
	<circle fill="#90A4AE" cx="19" cy="32" r="1"/>
	<circle fill="#90A4AE" cx="21" cy="29" r="1"/>
	<circle fill="#90A4AE" cx="23" cy="32" r="1"/>
</g>
</svg>