<svg xmlns="http://www.w3.org/2000/svg" xmlns:xlink="http://www.w3.org/1999/xlink" width="48" height="48" viewBox="0 0 48 48"><path fill="#90CAF9" d="M30,45H18c0,0-5-12-5-22.5c0-3.5,1-5.5,5.5-5.5s6.5,0,11,0s5.5,2,5.5,5.5C35,33,30,45,30,45z"/><path fill="#42A5F5" d="M22 15H26V28H22z"/><path fill="#EEE" d="M28.998,42c1.162-3.247,3.182-9.578,3.807-15.879c-2.359,1.52-6.217,0.779-8.638-0.09c-1.427-0.512-2.66-1.291-4.168-1.685c-0.777-0.203-1.535-0.577-2.335-0.752c-0.827-0.181-1.76-0.097-2.635,0.074c0.25,7.063,2.66,14.666,3.974,18.331H28.998z"/><path fill="#3F51B5" d="M26 15L22 15 22 3 26 7z"/><path fill="#1976D2" d="M33,15.5c0,0.828-0.672,1.5-1.5,1.5h-15c-0.829,0-1.5-0.672-1.5-1.5v-2c0-0.828,0.671-1.5,1.5-1.5h15c0.828,0,1.5,0.672,1.5,1.5V15.5z"/><path fill="#90A4AE" d="M19 31A1 1 0 1 0 19 33 1 1 0 1 0 19 31zM21 28A1 1 0 1 0 21 30 1 1 0 1 0 21 28zM23 31A1 1 0 1 0 23 33 1 1 0 1 0 23 31z"/></svg>