<svg xmlns="http://www.w3.org/2000/svg" xmlns:xlink="http://www.w3.org/1999/xlink" viewBox="0 0 48 48"><path fill="#bcaaa4" d="M33.055,43h-19.11C12.871,43,12,42.129,12,41.055v-27.11C12,12.871,12.871,12,13.945,12h19.11C34.129,12,35,12.871,35,13.945v27.11C35,42.129,34.129,43,33.055,43z"/><path fill="#8d6e63" d="M36.308,19H11.692C11.31,19,11,18.69,11,18.308v-3.372C11,13.314,12.314,12,13.935,12h20.129C35.686,12,37,13.314,37,14.935v3.372C37,18.69,36.69,19,36.308,19z"/><path fill="#8d6e63" d="M11.692,37h24.615C36.69,37,37,37.31,37,37.692v3.372C37,42.686,35.686,44,34.065,44H13.935C12.314,44,11,42.686,11,41.065v-3.372C11,37.31,11.31,37,11.692,37z"/><path fill="#ff7043" d="M37,12H11V5.886C11,5.397,11.397,5,11.886,5h24.228C36.603,5,37,5.397,37,5.886V12z"/><rect width="26" height="2" x="11" y="10" fill="#f4511e"/><rect width="2" height="6" x="13" y="5" fill="#f4511e"/><rect width="2" height="6" x="17" y="5" fill="#f4511e"/><rect width="2" height="6" x="21" y="5" fill="#f4511e"/><rect width="2" height="6" x="25" y="5" fill="#f4511e"/><rect width="2" height="6" x="29" y="5" fill="#f4511e"/><rect width="2" height="6" x="33" y="5" fill="#f4511e"/><rect width="24" height="18" x="12" y="19" fill="#fdd835"/><path fill="#a1887f" d="M16,19h-2v-4c0-1.105,0.895-2,2-2h0V19z"/><rect width="2" height="7" x="14" y="37" fill="#a1887f"/><circle cx="24" cy="28" r="9" fill="#fff"/><path fill="#ff9100" d="M23.979,20c-1.646,1.514-2.329,3.168-1.806,5h3.613C26.408,23.066,25.64,21.435,23.979,20z"/><path fill="#ff9100" d="M24.021,36c1.646-1.514,2.329-3.168,1.806-5h-3.613C21.592,32.934,22.36,34.565,24.021,36z"/><path fill="#ff9100" d="M29.642,22.328c-2.234-0.094-3.887,0.594-4.813,2.258l2.554,2.554C29.192,26.213,29.802,24.517,29.642,22.328z"/><path fill="#ff9100" d="M18.358,33.672c2.234,0.094,3.887-0.594,4.813-2.258l-2.554-2.554C18.808,29.787,18.198,31.483,18.358,33.672z"/><path fill="#ff9100" d="M18.328,22.358c-0.094,2.234,0.594,3.887,2.258,4.813l2.554-2.554C22.213,22.808,20.517,22.198,18.328,22.358z"/><path fill="#ff9100" d="M29.672,33.642c0.094-2.234-0.594-3.887-2.258-4.813l-2.554,2.554C25.787,33.192,27.483,33.802,29.672,33.642z"/><path fill="#ff9100" d="M16,28.021c1.514,1.646,3.168,2.329,5,1.806v-3.613C19.066,25.592,17.435,26.36,16,28.021z"/><path fill="#ff9100" d="M32,27.979c-1.514-1.646-3.168-2.329-5-1.806v3.613C28.934,30.408,30.565,29.64,32,27.979z"/><circle cx="24" cy="28" r="5" fill="#ffee58"/><circle cx="21" cy="28" r="1" fill="#ffc107"/><circle cx="27" cy="28" r="1" fill="#ffc107"/><circle cx="24" cy="31" r="1" fill="#ffc107"/><circle cx="24" cy="25" r="1" fill="#ffc107"/><circle cx="24" cy="28" r="1" fill="#ffc107"/></svg>