<svg xmlns="http://www.w3.org/2000/svg" xmlns:xlink="http://www.w3.org/1999/xlink" viewBox="0 0 48 48"><path fill="#e0e0e0" d="M44,17.723C44,9,37,10,33,8s-4-4-9.498-4c-2.28,0-4.421,1.091-5.967,2.767 c-0.58,0.63-1.041,1.242-1.402,1.838c-1.741,2.878-4.048,5.419-6.873,7.244C6.095,17.894,4,21.45,4,25.5 c0,4.827,2.977,8.951,7.194,10.652c2.302,0.929,4.267,2.481,5.979,4.278C19.267,42.63,22.223,44,25.5,44c8.5,0,9.157-3.921,12.5-8 c2.941-3.589,6-3.5,6-10L44,17.723z"/><circle cx="29" cy="23" r="8" fill="#ffa000"/><path fill="#fff" d="M25,21c-0.213,0-0.427-0.067-0.608-0.207c-0.438-0.336-0.521-0.964-0.184-1.402 C25.356,17.894,27.148,17,29,17c1.029,0,1.745,0.267,2.39,0.539c0.508,0.215,0.747,0.802,0.531,1.311 c-0.215,0.508-0.802,0.746-1.311,0.531C30.1,19.165,29.657,19,29,19c-1.234,0-2.433,0.602-3.207,1.609 C25.596,20.865,25.299,21,25,21z"/></svg>