<svg xmlns="http://www.w3.org/2000/svg"  viewBox="0 0 48 48" width="48px" height="48px"><circle cx="9.584" cy="20.468" r="4.469" fill="#f57c00"/><path fill="#bcaaa4" d="M8.204,40.999c-0.351,0-0.701-0.088-0.964-0.351c-0.526-0.526-0.526-1.315,0-1.841L28.717,17.33	c0.526-0.526,1.315-0.526,1.841,0c0.526,0.526,0.526,1.315,0,1.841L9.168,40.648C8.905,40.911,8.555,40.999,8.204,40.999z"/><path fill="#e57373" d="M42.886,17.445c0,6.844-5.599,12.443-12.443,12.443S18,24.289,18,17.445S23.599,5.002,30.443,5.002	S42.886,10.601,42.886,17.445z"/><path fill="#e53935" d="M25.999,29.088c1.422,0.533,2.844,0.8,4.444,0.8c0.444,0,0.889,0,1.333-0.089	c-2.489-2.666-2.755-6.666-1.333-12.354C24.399,21.8,24.844,26.333,25.999,29.088z M19.067,12.379C18.356,13.89,18,15.667,18,17.445	c0,0.356,0,0.8,0.089,1.155c2.489-2.577,6.044-3.2,12.354-1.155C26.088,11.49,21.822,11.49,19.067,12.379z M35.509,6.069	c-1.511-0.711-3.288-1.067-5.066-1.067c-0.356,0-0.8,0-1.155,0.089c2.577,2.489,3.2,6.044,1.155,12.354	C36.398,13.09,36.398,8.824,35.509,6.069z M42.886,17.445c0-0.356,0-0.8-0.089-1.155c-2.489,2.577-6.044,3.2-12.354,1.155	c4.355,5.955,8.621,5.955,11.376,5.066C42.53,21,42.886,19.223,42.886,17.445z"/><path fill="#e53935" d="M29.287,5.091c-0.8,0.089-1.511,0.178-2.222,0.444c3.377,2.133,4.266,7.555,3.377,11.91	c-3.111-8.177-9.688-7.288-10.132-7.199c-0.444,0.622-0.889,1.333-1.244,2.133c0.711-0.267,1.6-0.444,2.577-0.444	c2.489,0,5.688,1.244,8.799,5.51C32.576,11.135,31.865,7.58,29.287,5.091z M18.089,18.6c0.089,0.8,0.178,1.511,0.444,2.222	c1.422-2.044,5.688-4.799,11.91-3.377C22.444,21,23.51,27.044,23.777,27.933c0.711,0.444,1.422,0.8,2.222,1.155	c-1.155-2.755-1.6-7.199,4.444-11.643c-2.577-0.889-4.711-1.244-6.399-1.244C21.377,16.201,19.6,17.09,18.089,18.6z"/><path fill="#e53935" d="M39.242,22.955c-2.489,0-5.688-1.244-8.799-5.51c-1.422,5.777-1.155,9.688,1.333,12.354	c0.711-0.089,1.511-0.267,2.133-0.444c-3.288-2.577-4.088-7.288-3.555-11.91c3.733,8.354,9.688,7.288,10.132,7.199	c0.444-0.622,0.889-1.333,1.244-2.133C41.019,22.778,40.219,22.955,39.242,22.955z"/><path fill="#e53935" d="M42.797,16.29c-0.089-0.8-0.178-1.511-0.444-2.222c-3.111,4.799-10.932,3.555-11.998,3.377	c0,0,7.288-2.222,7.199-10.132c-0.622-0.444-1.333-0.889-2.133-1.155c0.889,2.755,0.8,7.021-5.066,11.376	c2.577,0.889,4.711,1.244,6.399,1.244C39.508,18.689,41.286,17.801,42.797,16.29z"/><path fill="#8e24aa" d="M24.031,38l-4.479-2.969C18.888,34.591,18,35.067,18,35.865v4.27c0,0.797,0.888,1.274,1.552,0.834 L24.031,38z"/><path fill="#8e24aa" d="M29.925,38l4.479-2.969c0.665-0.441,1.552,0.036,1.552,0.834v4.27c0,0.797-0.888,1.274-1.552,0.834 L29.925,38z"/><circle cx="27" cy="38" r="5" fill="#ab47bc"/><path fill="#ffa000" d="M9.584,20.456l2.111-3.928c-0.629-0.338-1.347-0.529-2.111-0.529s-1.482,0.192-2.111,0.529	L9.584,20.456z"/><path fill="#ffa000" d="M7.473,24.408c0.629,0.338,1.347,0.529,2.111,0.529s1.482-0.192,2.111-0.529L9.584,20.48	L7.473,24.408z"/><path fill="#ffa000" d="M13.524,22.579c0.338-0.629,0.529-1.347,0.529-2.111s-0.192-1.482-0.529-2.111l-3.928,2.111	L13.524,22.579z"/><path fill="#ffa000" d="M5.644,18.357c-0.338,0.629-0.529,1.347-0.529,2.111s0.192,1.482,0.529,2.111l3.928-2.111	L5.644,18.357z"/></svg>