<svg xmlns="http://www.w3.org/2000/svg" xmlns:xlink="http://www.w3.org/1999/xlink" viewBox="0 0 48 48"><path fill="#8D6E63" d="M4,44c0,0,0.4-0.9,1.2-2.3C5.6,41,6,40.2,6.6,39.2c0.3-0.5,0.6-1,0.9-1.5c0.2-0.3,0.4-0.5,0.6-0.7c0.2-0.2,0.5-0.4,0.7-0.7c3.8-3.8,8.7-8.8,13.7-13.8s10-10,13.7-13.8c0.2-0.2,0.5-0.5,0.7-0.7c0.2-0.3,0.4-0.5,0.7-0.6c0.5-0.3,1-0.6,1.5-0.9c1-0.6,1.8-1,2.5-1.4C43.2,4.4,44,4,44,4s-0.4,0.8-1.2,2.3C42.4,7,42,7.8,41.4,8.8c-0.3,0.5-0.6,1-0.9,1.5c-0.1,0.3-0.4,0.5-0.6,0.7c-0.2,0.2-0.5,0.4-0.7,0.7c-3.8,3.8-8.7,8.8-13.7,13.8s-10,10-13.7,13.8c-0.2,0.2-0.5,0.5-0.7,0.7c-0.2,0.3-0.4,0.5-0.7,0.6c-0.5,0.3-1,0.6-1.5,0.9c-0.9,0.6-1.8,1-2.5,1.4C4.9,43.6,4,44,4,44z"/><path fill="#FFD54F" d="M7 26L12 19 27 34 19 43z"/><path fill="#FFB300" d="M12,25.5c0-0.8,0.7-1.5,1.5-1.5c0.8,0,1.5,0.7,1.5,1.5S14.3,27,13.5,27C12.7,27,12,26.3,12,25.5z M14,31c0.6,0,1-0.4,1-1s-0.4-1-1-1c-0.6,0-1,0.4-1,1S13.4,31,14,31z"/><path fill="#9E9D24" d="M29 8.3A9.3 10.7 0 1 0 29 29.7A9.3 10.7 0 1 0 29 8.3Z" transform="rotate(-45.001 29 19)"/><path fill="#C0CA33" d="M24.5 12.5A2.9 2 0 1 0 24.5 16.5A2.9 2 0 1 0 24.5 12.5Z" transform="rotate(-45.001 24.5 14.5)"/></svg>