<?xml version="1.0" encoding="iso-8859-1"?><!-- Generator: Adobe Illustrator 19.1.1, SVG Export Plug-In . SVG Version: 6.00 Build 0)  --><svg xmlns="http://www.w3.org/2000/svg" xmlns:xlink="http://www.w3.org/1999/xlink" version="1.1" id="Layer_1" x="0px" y="0px" viewBox="0 0 48 48" style="enable-background:new 0 0 48 48;" xml:space="preserve" width="528" height="528">
<path style="fill:none;stroke:#0097A7;stroke-width:2;stroke-linecap:round;stroke-linejoin:round;stroke-miterlimit:10;" d="M34,21  c0-2.401,2.599-5,5-5c3.063,0,5,1.75,5,5c0,6.436-9.809,4.319-11.719,9"/>
<path style="fill:#00BCD4;" d="M3,9c0,17,9,25,9,25h16c0,0,9-7.962,9-25H3z"/>
<rect x="12" y="34" style="fill:#FFC107;" width="16" height="2"/>
<path style="fill:#0097A7;" d="M28,36H12c0,0-3,1.21-3,4h22C31,37.21,28,36,28,36z"/>
<rect x="3" y="9" style="fill:#FFC107;" width="34" height="2"/>
<circle style="fill:#E0F7FA;" cx="8" cy="15" r="1"/>
<circle style="fill:#E0F7FA;" cx="12" cy="19" r="1"/>
<circle style="fill:#E0F7FA;" cx="16" cy="23" r="1"/>
<circle style="fill:#E0F7FA;" cx="20" cy="27" r="1"/>
<circle style="fill:#E0F7FA;" cx="20" cy="19" r="1"/>
<circle style="fill:#E0F7FA;" cx="24" cy="15" r="1"/>
<circle style="fill:#E0F7FA;" cx="16" cy="15" r="1"/>
<circle style="fill:#E0F7FA;" cx="8" cy="23" r="1"/>
<circle style="fill:#E0F7FA;" cx="12" cy="27" r="1"/>
<circle style="fill:#E0F7FA;" cx="16" cy="31" r="1"/>
<circle style="fill:#E0F7FA;" cx="24" cy="23" r="1"/>
<circle style="fill:#E0F7FA;" cx="28" cy="19" r="1"/>
<circle style="fill:#E0F7FA;" cx="32" cy="15" r="1"/>
<circle style="fill:#E0F7FA;" cx="32" cy="23" r="1"/>
<circle style="fill:#E0F7FA;" cx="28" cy="27" r="1"/>
<circle style="fill:#E0F7FA;" cx="24" cy="31" r="1"/>
</svg>