<svg xmlns="http://www.w3.org/2000/svg"  viewBox="0 0 48 48" width="48px" height="48px"><path fill="#0097a7" d="M35.375,31c-0.104,0-0.211-0.017-0.316-0.052c-0.524-0.174-0.807-0.74-0.632-1.265	c0.866-2.599,4.193-3.586,6.866-4.379c0.945-0.28,1.837-0.545,2.3-0.803C45.189,23.612,46,22.769,46,20.625	C46,18.879,44.905,17,42.5,17c-2.627,0-3.994,2.044-4.396,3.956c-0.114,0.54-0.646,0.887-1.185,0.772	c-0.541-0.113-0.886-0.645-0.772-1.185C36.685,17.986,38.672,15,42.5,15c3.572,0,5.5,2.898,5.5,5.625c0,3.262-1.65,4.63-3.434,5.624	c-0.656,0.365-1.606,0.647-2.705,0.974c-2.11,0.626-5.001,1.483-5.538,3.094C36.184,30.735,35.794,31,35.375,31z"/><path fill="#00bcd4" d="M6,9c0,17,9,25,9,25h16c0,0,9-8,9-25H6z"/><path fill="#ffc107" d="M15,34h16v2H15V34z"/><path fill="#ffc107" d="M6,9h34v2H6V9z"/><path fill="#e0f7fa" d="M12,15c0,0.6-0.4,1-1,1s-1-0.4-1-1s0.4-1,1-1S12,14.4,12,15z M16,19c0,0.6-0.4,1-1,1s-1-0.4-1-1	s0.4-1,1-1S16,18.4,16,19z M20,23c0,0.6-0.4,1-1,1s-1-0.4-1-1s0.4-1,1-1S20,22.4,20,23z M24,27c0,0.6-0.4,1-1,1s-1-0.4-1-1	s0.4-1,1-1S24,26.4,24,27z M24,19c0,0.6-0.4,1-1,1s-1-0.4-1-1s0.4-1,1-1S24,18.4,24,19z M32,19c0,0.6-0.4,1-1,1s-1-0.4-1-1	s0.4-1,1-1S32,18.4,32,19z M20,15c0,0.6-0.4,1-1,1s-1-0.4-1-1s0.4-1,1-1S20,14.4,20,15z M28,15c0,0.6-0.4,1-1,1s-1-0.4-1-1	s0.4-1,1-1S28,14.4,28,15z M12,23c0,0.6-0.4,1-1,1s-1-0.4-1-1s0.4-1,1-1S12,22.4,12,23z M16,27c0,0.6-0.4,1-1,1s-1-0.4-1-1	s0.4-1,1-1S16,26.4,16,27z M20,31c0,0.6-0.4,1-1,1s-1-0.4-1-1s0.4-1,1-1S20,30.4,20,31z M28,23c0,0.6-0.4,1-1,1s-1-0.4-1-1	s0.4-1,1-1S28,22.4,28,23z M36,15c0,0.6-0.4,1-1,1s-1-0.4-1-1s0.4-1,1-1S36,14.4,36,15z M36,23c0,0.6-0.4,1-1,1s-1-0.4-1-1	s0.4-1,1-1S36,22.4,36,23z M32,27c0,0.6-0.4,1-1,1s-1-0.4-1-1s0.4-1,1-1S32,26.4,32,27z M28,31c0,0.6-0.4,1-1,1s-1-0.4-1-1	s0.4-1,1-1S28,30.4,28,31z"/><path fill="#0097a7" d="M4,34v1c0,0,4.3,5,8,5h22c3.7,0,8-5,8-5v-1H4z"/></svg>