<?xml version="1.0" encoding="utf-8"?><!-- Generator: Adobe Illustrator 15.0.0, SVG Export Plug-In . SVG Version: 6.00 Build 0)  --><!DOCTYPE svg PUBLIC "-//W3C//DTD SVG 1.1//EN" "http://www.w3.org/Graphics/SVG/1.1/DTD/svg11.dtd"><svg xmlns="http://www.w3.org/2000/svg" xmlns:xlink="http://www.w3.org/1999/xlink" version="1.1" x="0px" y="0px" width="528" height="528" viewBox="0 0 48 48" enable-background="new 0 0 48 48" xml:space="preserve">
<g>
	<path fill="#0097A7" d="M14,22c-2,0-6-7-6-7H6.5H6H3.5H3v1h0.5c3,1,2.5,4,3.5,10s6,7,6,7S16,22,14,22z"/>
	<path fill="#0097A7" d="M33,16.001C33,13.526,29.971,11,25,11s-8,2.526-8,5.001s3.029,3.958,8,3.958S33,18.476,33,16.001z"/>
	<path fill="#0097A7" d="M35.943,15.317l-4.375,1.363l0.892,2.864l4.376-1.363c2.105-0.655,4.352,0.523,5.013,2.645   c0.005,0.016,0.385,1.71-0.077,4.542l-0.127,0.8c-0.503,3.218-0.826,4.39-2.454,4.896l-2.864,0.893l0.892,2.864l2.864-0.893   c3.557-1.107,4.05-4.254,4.527-7.297l0.123-0.781c0.582-3.574,0.041-5.741-0.023-5.932C43.561,16.234,39.628,14.169,35.943,15.317z   "/>
	<circle fill="#0097A7" cx="25" cy="9.001" r="2"/>
</g>
<g>
	<path fill="#4DD0E1" d="M34,38c2,0-19,0-17,0s2,3,2,3h13C32,41,32,38,34,38z"/>
	<path fill="#4DD0E1" d="M16,14c0,0-4,10-4,17s4.925,9,11,9h5c6.075,0,11-2,11-9s-5-17-5-17H16z"/>
</g>
</svg>