<svg xmlns="http://www.w3.org/2000/svg" xmlns:xlink="http://www.w3.org/1999/xlink" viewBox="0 0 48 48"><path fill="#4caf50" d="M3.5,10v13.308c0,0.448,0.15,0.883,0.427,1.235l10.934,13.921l28.688-14.576L28.085,8.579 C27.71,8.208,27.204,8,26.677,8H5.5C4.395,8,3.5,8.895,3.5,10z"/><path fill="#388e3c" d="M16.5,25L3.904,8.806C3.654,9.14,3.5,9.55,3.5,10v13.308c0,0.448,0.15,0.883,0.427,1.235 l10.934,13.921l1.639-0.833V25z"/><path fill="#ffecb3" d="M41.5,40h-24c-1.657,0-3-1.343-3-3V26c0-1.657,1.343-3,3-3h24c1.657,0,3,1.343,3,3v11 C44.5,38.657,43.157,40,41.5,40z"/><ellipse cx="18" cy="26" fill="#ffd54f" rx="1.5" ry="1"/><ellipse cx="27" cy="30" fill="#ffd54f" rx="1.5" ry="1"/><ellipse cx="22" cy="33" fill="#ffd54f" rx="1.5" ry="1"/><path fill="#ffd54f" d="M17.391,30.293c-0.757,0.391-1.098,1.024-0.761,1.414c0.336,0.391,1.223,0.391,1.979,0 c0.757-0.391,1.098-1.024,0.761-1.414C19.034,29.902,18.148,29.902,17.391,30.293z"/><path fill="#ffd54f" d="M30.391,36.293c-0.757,0.391-1.098,1.024-0.761,1.414c0.336,0.391,1.223,0.391,1.979,0 c0.757-0.391,1.098-1.024,0.761-1.414C32.034,35.902,31.148,35.902,30.391,36.293z"/><path fill="#ffd54f" d="M22.609,36.293c0.757,0.391,1.098,1.024,0.761,1.414c-0.336,0.391-1.223,0.391-1.979,0 c-0.757-0.391-1.098-1.024-0.761-1.414C20.966,35.902,21.852,35.902,22.609,36.293z"/><path fill="#ffd54f" d="M31.609,32.293c0.757,0.391,1.098,1.024,0.761,1.414c-0.336,0.391-1.223,0.391-1.979,0 c-0.757-0.391-1.098-1.024-0.761-1.414C29.966,31.902,30.852,31.902,31.609,32.293z"/><path fill="#ffd54f" d="M25.391,25.293c-0.757,0.391-1.098,1.024-0.761,1.414c0.336,0.391,1.223,0.391,1.979,0 c0.757-0.391,1.098-1.024,0.761-1.414C27.034,24.902,26.148,24.902,25.391,25.293z"/><ellipse cx="22.5" cy="28.5" fill="#ffd54f" rx="1" ry="1.5"/><path fill="#ffd54f" d="M41.609,36.293c0.757,0.391,1.098,1.024,0.761,1.414c-0.336,0.391-1.223,0.391-1.979,0 c-0.757-0.391-1.098-1.024-0.761-1.414C39.966,35.902,40.852,35.902,41.609,36.293z"/><ellipse cx="40.5" cy="31.5" fill="#ffd54f" rx="1" ry="1.5"/><ellipse cx="26.5" cy="35.5" fill="#ffd54f" rx="1" ry="1.5"/><ellipse cx="31.5" cy="27.5" fill="#ffd54f" rx="1" ry="1.5"/><ellipse cx="17.5" cy="36.5" fill="#ffd54f" rx="1" ry="1.5"/><ellipse cx="36" cy="26" fill="#ffd54f" rx="1.5" ry="1"/><path fill="#ffd54f" d="M35.391,30.293c-0.757,0.391-1.098,1.024-0.761,1.414c0.336,0.391,1.223,0.391,1.979,0 c0.757-0.391,1.098-1.024,0.761-1.414S36.148,29.902,35.391,30.293z"/><path fill="#ffd54f" d="M40.391,25.293c-0.757,0.391-1.098,1.024-0.761,1.414s1.223,0.391,1.979,0 c0.757-0.391,1.098-1.024,0.761-1.414S41.148,24.902,40.391,25.293z"/><ellipse cx="35.5" cy="36.5" fill="#ffd54f" rx="1" ry="1.5"/></svg>