<svg xmlns="http://www.w3.org/2000/svg" xmlns:xlink="http://www.w3.org/1999/xlink" viewBox="0 0 48 48"><path fill="#d7ccc8" d="M35.954 8.046c-.256-1.391-1.657-2.381-3.194-1.94-.8.23-1.442.891-1.663 1.693C31 8.149 30.979 8.49 31.02 8.811c.146 1.152-.256 2.304-1.077 3.125l-5.503 5.503 2.121 2.121 5.503-5.503c.821-.821 1.973-1.222 3.126-1.077.321.041.661.019 1.01-.077.802-.221 1.464-.863 1.694-1.663C38.335 9.704 37.346 8.302 35.954 8.046zM43.937 16.044c.127-.572.096-1.202-.414-1.922-.449-.633-1.159-1.094-1.936-1.121C40.167 12.953 39 14.09 39 15.5c0 .006 0 .012 0 .018.008 1.057-.491 2.051-1.437 2.524l-7.234 3.617 1.342 2.684 7.842-3.921c.867-.434 1.865-.294 2.691.214.571.351 1.293.477 2.05.255.777-.228 1.41-.861 1.637-1.639C46.341 17.703 45.34 16.292 43.937 16.044z"/><path fill="#bf360c" d="M31,19c0-3.155,1.064-4.943,1.064-4.943l-2.121-2.121C27.242,14.637,18,14,18,14L31,19z"/><path fill="#e64a19" d="M2,36c0,0,6.895,6,18,6s20-6.438,20-12s-8-11-8-11s-8.145-5-14-5C1.999,14,2,36,2,36z"/><path fill="#d84315" d="M39.337,27.112c-0.701-1.62-1.868-3.138-3.076-4.417C28.519,23.64,15,28,15,28s2.5,6,10,6C31.679,34,34.771,32.404,39.337,27.112z"/><path fill="#ff7043" d="M18,14c7.778,0,11.393,4,16,4c3.129,0,3.563,0,3.563,0l1.312,2.781C38.875,20.781,32.241,32,24,32c-6,0-9-4-9-4s-1.167-3-5-3c-5,0-8,11-8,11S2,14,18,14z"/><path fill="#f4511e" d="M13,20c0,0.552-0.448,1-1,1s-1-0.448-1-1s0.448-1,1-1S13,19.448,13,20z M16,17c-0.552,0-1,0.448-1,1s0.448,1,1,1c0.552,0,1-0.448,1-1S16.552,17,16,17z M16,21c-0.552,0-1,0.448-1,1s0.448,1,1,1c0.552,0,1-0.448,1-1S16.552,21,16,21z"/></svg>