<svg xmlns="http://www.w3.org/2000/svg" xmlns:xlink="http://www.w3.org/1999/xlink" viewBox="0 0 48 48"><path fill="#558b2f" d="M15.801,17.255c-0.138-0.236-0.426-0.325-0.663-0.194C14.21,17.571,12,19.052,12,21.565C12,24.109,13,25,13,25s3.75-0.509,3.75-4.071C16.75,19.146,16.157,17.863,15.801,17.255z"/><path fill="#c0ca33" d="M8,44H6C6,27.029,16.521,14.789,35.623,9.536l0.531,1.929C17.999,16.457,8,28.012,8,44z"/><path fill="#c0ca33" d="M28.705,19.463c-1.843-1.198-6.017-1.462-7.47-1.463v-2c0.237,0,5.843,0.021,8.56,1.787L28.705,19.463z"/><path fill="#c0ca33" d="M21.515,17.951l-1.584-1.221l0.792,0.61l-0.799-0.602c0.013-0.017,1.243-1.734,1.243-5.517h2C23.167,15.753,21.582,17.863,21.515,17.951z"/><path fill="#c0ca33" d="M7.975,41.06l-1.581-1.224C6.546,39.639,10.21,35,18.104,35c1.363,0,2.346,0.249,3.297,0.49C22.39,35.741,23.412,36,25,36c2.965,0,5.177-1.02,5.199-1.03l0.854,1.809C30.948,36.829,28.436,38,25,38c-1.838,0-3.034-0.303-4.09-0.571C20.002,37.199,19.218,37,18.104,37C11.238,37,8.105,40.894,7.975,41.06z"/><path fill="#689f38" d="M35.934,4.134c-0.229-0.21-0.585-0.17-0.75,0.097C34.668,5.072,34,6.566,34,8.289C34,9.967,35,11,35,11s3,0,3-2.711C38,6.296,36.65,4.792,35.934,4.134z"/><path fill="#558b2f" d="M37.972,10C35.817,10,35,11,35,11s0.398,3,4.089,3c1.126,0,2.019-0.186,2.545-0.331c0.297-0.082,0.446-0.403,0.321-0.679C41.52,12.018,40.33,10,37.972,10z"/><path fill="#7cb342" d="M41.493,6.002c-1.666,0.014-4.126,0.159-5.366,1.623C34.977,8.981,35,11,35,11s0,0,1.502,0c4.602,0,5.398-2.427,5.497-4.47C42.013,6.24,41.784,5.999,41.493,6.002z"/><path fill="#689f38" d="M31.557,16C28.735,16,28,18,28,18s1.632,1.638,3.938,1c1.29-0.357,1.826-1.399,2.036-2.019c0.09-0.267-0.057-0.551-0.33-0.635C33.161,16.199,32.359,16,31.557,16z"/><path fill="#558b2f" d="M28,18c0,0-2,0.774-2,2.837c0,1.522,0.691,2.523,1.135,3.009c0.2,0.219,0.537,0.197,0.735-0.024c0.676-0.755,1.13-1.77,1.13-2.856C29,18.658,28,18,28,18z"/><path fill="#7cb342" d="M28,18c0,1.888,0.452,2.68,1.002,3.398c0.9,1.176,2.577,1.507,3.449,1.6c0.306,0.033,0.559-0.219,0.549-0.528c-0.059-1.819-0.427-2.598-1.243-3.337C30.504,18,28,18,28,18z"/><path fill="#689f38" d="M32.744,30.416c-0.058-0.317-0.379-0.498-0.671-0.38C31.058,30.447,29,31.529,29,33.554C29,35.23,29.999,36,29.999,36S33,35.551,33,33.048C33,32.006,32.854,31.014,32.744,30.416z"/><path fill="#558b2f" d="M35.979,39.075c-0.265-0.877-1.084-2.854-3.188-3.45C30.803,35.062,29.999,36,29.999,36s0.001,4,3.678,4c0.908,0,1.591-0.178,1.994-0.322C35.922,39.589,36.055,39.327,35.979,39.075z"/><path fill="#7cb342" d="M36.688,33.788C36.002,33.495,34.68,33,33.576,33c-3.065,0-3.577,3-3.577,3s1.022,1,2.811,1c2.424,0,3.612-1.488,4.139-2.539C37.077,34.205,36.954,33.902,36.688,33.788z"/><path fill="#558b2f" d="M22,12c0,0-0.895-1.194,0.125-3.019c0.85-1.521,2.415-1.893,3.128-1.984c0.232-0.029,0.448,0.1,0.528,0.321C25.884,7.601,26,8.044,26,8.603C26,10.994,24.375,12,22,12z"/><path fill="#689f38" d="M19.227,9c-1.731,0-2.729,0.873-3.104,1.287c-0.121,0.133-0.152,0.317-0.094,0.487c0.221,0.647,0.975,2.211,3.086,2.211C21.266,12.985,22,12,22,12S21.579,9,19.227,9z"/><path fill="#7cb342" d="M20.026,5.038c-0.285-0.118-0.6,0.047-0.672,0.352C19.206,6.011,19,7.112,19,8.424C19,11.234,22,12,22,12s1-1.017,1-3.321C23,6.537,21.003,5.445,20.026,5.038z"/><path fill="#558b2f" d="M17,36.003c0,0,0.006,2.004,1.63,3.144c0.851,0.597,2.107,0.789,2.826,0.851c0.301,0.026,0.563-0.223,0.543-0.525c-0.182-2.728-1.712-3.974-3.243-3.974C17.627,35.5,17,36.003,17,36.003z"/><path fill="#689f38" d="M20.448,32C18.532,32,17,33,17,36c0,0,0.319,0,1.516,0c2.302,0,3.129-1.91,3.471-3.393C22.06,32.295,21.813,32,21.486,32H20.448z"/><path fill="#689f38" d="M16.759,22C13.507,22,13,25,13,25s1.33,1,3.547,1c1.983,0,3.027-1.512,3.393-2.184c0.107-0.197,0.067-0.431-0.093-0.589C19.407,22.794,18.379,22,16.759,22z"/><path fill="#7cb342" d="M9.905,19.005c-0.243-0.035-0.468,0.114-0.542,0.35C9.215,19.826,9,20.651,9,21.476C9,24.245,11,25,13,25c0,0,1-1.007,1-2.517C14,19.845,11.011,19.166,9.905,19.005z"/></svg>