<svg xmlns="http://www.w3.org/2000/svg" xmlns:xlink="http://www.w3.org/1999/xlink" viewBox="0 0 48 48"><path fill="#8bc34a" d="M25,21.4c-12.2,0-18-8.4-18.2-8.7c-0.5-0.7-0.3-1.6,0.4-2.1c0.7-0.5,1.6-0.3,2.1,0.4 c0.2,0.3,5.7,8.3,17.6,7.3c0.8-0.1,1.5,0.6,1.6,1.4c0.1,0.8-0.6,1.5-1.4,1.6C26.4,21.3,25.7,21.4,25,21.4z"/><path fill="#8bc34a" d="M18.6,28.2c7.1,2.6,17.5-3.7,19.9-5.1c-4.2-1.9-6.9-13.3-14.2-14.9c-5.2-1.1-9,1.5-8.1,8.5 C11.6,20.1,13.6,26.3,18.6,28.2z"/><path fill="#689f38" d="M24.3,8.2c7.4,1.5,10.1,13,14.2,14.9c0,0,0,0,0,0c-3.4,0.1-10.2-0.7-22.4-6.4c0,0,0,0,0,0 C15.3,9.7,19.1,7.2,24.3,8.2z"/><path fill="#00bcd4" d="M6,26c0,7.9,5.1,10.5,12.1,13h11.8C36.9,36.6,42,33.9,42,26H6z"/><path fill="#00bcd4" d="M18,37h12v4H18V37z"/><path fill="#006b6b" d="M41.1,31c0.6-1.4,0.9-3,0.9-5H6c0,2,0.3,3.6,0.9,5H41.1z"/></svg>