<svg xmlns="http://www.w3.org/2000/svg" xmlns:xlink="http://www.w3.org/1999/xlink" viewBox="0 0 48 48"><path fill="#ffb300" d="M42.975,42.026c0,0.1-0.1,0.2-0.1,0.3s-0.2,0.3-0.301,0.4C42.574,42.726,38,46,25,46c-7,0-11.929-0.916-14.708-1.72c-2.769-0.804-3.918-1.606-3.918-1.606c-0.1-0.1-0.2-0.2-0.299-0.4c-0.1,0-0.1-0.1-0.1-0.3c0.001-0.4,0.201-0.7,0.501-0.799c0,0,1.401-0.598,2.105-3.597c0.503-2.179,0.753-9.619,1.939-14.037c0.09-0.34,0.181-0.66,0.281-0.97c0.06-0.2,0.131-0.4,0.201-0.59c0.261-0.71,0.913-1.909,1.003-1.999c2.997,2.004,9.496,3.012,12.996,3.018c3.5,0.005,10.001-0.987,13.004-2.982c0.09,0.09,0.738,1.291,0.997,2.001c0.07,0.19,0.139,0.39,0.199,0.59c0.1,0.31,0.189,0.63,0.279,0.97c1.173,4.422,1.404,11.862,1.901,14.043c0.696,3.001,1.095,3.603,1.095,3.603C42.776,41.326,42.976,41.626,42.975,42.026z"/><path fill="#ff9800" d="M39.481,23.58l-0.59,0.249c-0.15,0.07-0.29,0.12-0.44,0.179c-4.002,1.424-9.193,2.138-13.453,2.132s-9.449-0.732-13.437-2.168c-0.16-0.06-0.3-0.11-0.45-0.181l-0.59-0.251c0.09-0.34,0.181-0.66,0.281-0.97c0.06-0.2,0.131-0.4,0.201-0.59c0.261-0.71,0.913-1.909,1.003-1.999c2.997,2.004,9.496,3.012,12.996,3.018c3.5,0.005,10.001-0.987,13.004-2.982c0.09,0.09,0.738,1.291,0.997,2.001c0.07,0.19,0.139,0.39,0.199,0.59C39.302,22.92,39.391,23.24,39.481,23.58z"/><path fill="#8d6e63" d="M33.266,45.581c-0.264-0.081-0.528-0.162-0.781-0.277c-1.678-0.701-2.864-1.878-3.262-3.294c-0.99-3.371,1.5-4.342,3.88-5.236c0.625-0.251,1.288-0.491,1.887-0.787c0.196-0.088,0.403-0.209,0.599-0.296c2.711-1.383,5.739-2.965,8.254-0.048c1.012,1.198,1.362,2.636,1.044,4.201c-0.471,2.146-2.25,4.222-4.574,5.318l0,0C38.083,46.102,35.491,46.265,33.266,45.581z"/><path fill="#ffb300" d="M37.605,20.689l-0.911,0.389c-0.08,0.04-0.17,0.07-0.25,0.1c-3.692,1.315-7.573,1.969-11.443,1.963s-7.749-0.671-11.437-1.997c-0.08-0.03-0.17-0.06-0.25-0.1l-0.909-0.391c-2.398-1.674-3.272-5.655-2.389-7.674c0.472-1.089,1.872-1.577,3.383-1.805c1.31-0.198,2.69-0.186,3.62-0.185l16,0.024c1.23,0.002,2.47-0.006,3.58,0.135c1.6,0.192,2.899,0.674,3.417,1.875C40.893,15.043,40.007,19.022,37.605,20.689z"/><path fill="#ff9800" d="M37.017,12.618c-0.001,1-0.423,1.989-1.244,2.888l-0.01,0.01c-1.302,1.448-3.634,2.645-6.835,3.17c-0.02,0-0.03,0.01-0.05,0.01c0,0,0,0-0.01,0c-1.17,0.198-2.46,0.306-3.86,0.304c-1.1-0.002-2.13-0.073-3.09-0.195c-0.67-0.091-1.3-0.202-1.899-0.343c-2.209-0.503-3.938-1.346-5.117-2.357c-1.238-1.052-1.887-2.283-1.885-3.523c0.001-0.48,0.131-0.96,0.382-1.409c0.28-0.04,0.56-0.069,0.84-0.099c1.04-0.099,2.05-0.087,2.78-0.086l16,0.024c1.1,0.002,2.2-0.007,3.21,0.105c0.13,0,0.25,0.02,0.37,0.031C36.868,11.617,37.018,12.108,37.017,12.618z"/><path fill="#8d6e63" d="M26.417,12.927L26.417,12.927c-2.161,0.305-4.515-0.349-6.04-1.666c-1.095-0.973-1.676-2.167-1.682-3.501c0.02-3.271,2.922-3.558,5.502-3.839c0.179-0.029,0.385-0.04,0.565-0.069c0.565-0.069,1.14-0.208,1.696-0.321c2.084-0.476,4.284-0.949,5.534,1.933c0.536,1.202,0.415,2.602-0.302,3.892c-0.103,0.201-0.232,0.383-0.361,0.565C30.239,11.455,28.427,12.555,26.417,12.927z"/><path fill="#4e342e" d="M26.998,18.913c-0.52,0.049-1.07,0.078-1.63,0.078C25.247,19,25.127,19,25.007,19c-0.82-0.001-1.61-0.042-2.36-0.113c0,0-0.01,0.01-0.02,0c-0.24-0.02-0.48-0.051-0.71-0.081c-0.3-0.04-0.6-0.091-0.89-0.141c0.162-1.5,1.434-2.668,2.984-2.666C25.642,16.001,26.96,17.293,26.998,18.913z"/><path fill="#5d4037" d="M26.474,14.712c-0.102,1.3-0.734,2.409-1.855,3.237c-0.1,0.08-0.21,0.15-0.32,0.209c-0.49,0.319-1.051,0.558-1.651,0.728c0,0-0.01,0.01-0.02,0c-0.24-0.02-0.48-0.051-0.71-0.081c-0.67-0.091-1.3-0.202-1.899-0.343c-2.209-0.503-3.938-1.346-5.117-2.357c-0.3-0.26-0.569-0.521-0.809-0.801c0,0,0-0.01-0.01-0.02c-0.06-0.11-0.12-0.23-0.169-0.35c-0.598-1.331-0.626-2.701-0.034-3.82c0.01,0,0.01-0.01,0.01-0.01c1.394-2.678,3.463-1.985,5.432-1.312c0.52,0.171,1.069,0.362,1.599,0.492c0.17,0.05,0.37,0.081,0.54,0.121c0.76,0.171,1.549,0.342,2.269,0.593c0.75,0.261,1.429,0.602,1.918,1.133C26.227,12.722,26.545,13.542,26.474,14.712z"/><path fill="#795548" d="M36.144,14.426c-0.04,0.22-0.111,0.42-0.181,0.63c-0.05,0.15-0.1,0.29-0.181,0.43c0,0.01,0,0.01-0.01,0.02l-0.01,0.01c-1.302,1.448-3.634,2.645-6.835,3.17c-0.02,0-0.03,0.01-0.05,0.01c0,0,0,0-0.01,0c-1.07,0.178-2.24,0.287-3.5,0.295c-0.41-0.231-0.769-0.511-1.069-0.832c-0.469-0.481-0.808-1.041-1.017-1.691c-0.717-2.321,0.635-3.489,2.366-4.336c0.56-0.279,1.161-0.518,1.741-0.757c0.17-0.07,0.36-0.139,0.52-0.219c0.11-0.05,0.23-0.1,0.34-0.15c0.4-0.179,0.801-0.409,1.181-0.608c1.852-1.007,3.803-2.054,5.85,0.309c0.1,0.12,0.2,0.24,0.279,0.36C36.208,12.006,36.406,13.197,36.144,14.426z"/><circle cx="29" cy="6" r="1" fill="#795548"/><circle cx="27" cy="9" r="1" fill="#795548"/><circle cx="25.5" cy="6.5" r=".5" fill="#795548"/><path fill="#795548" d="M44.89,39.84c-0.47,2.15-2.25,4.23-4.58,5.32C38.99,45.71,37.55,46,36.14,46c-0.99,0-1.96-0.14-2.87-0.42c-0.27-0.08-0.53-0.16-0.78-0.28c-1.68-0.7-2.87-1.87-3.27-3.29c-0.1-0.34-0.16-0.66-0.2-0.96C30.67,42.85,33.18,44,36,44c4.39,0,8.04-2.79,8.84-6.49C45.03,38.24,45.05,39.03,44.89,39.84z"/><circle cx="41" cy="37" r="1" fill="#5d4037"/><circle cx="37" cy="38" r="1" fill="#5d4037"/><circle cx="39.5" cy="40.5" r=".5" fill="#5d4037"/><circle cx="34.5" cy="40.5" r=".5" fill="#5d4037"/></svg>