<svg xmlns="http://www.w3.org/2000/svg" xmlns:xlink="http://www.w3.org/1999/xlink" viewBox="0 0 48 48"><path fill="#78909c" d="M9,11V7c0-1.105,0.895-2,2-2h26c1.105,0,2,0.895,2,2v4H9z"/><path fill="#795548" d="M10,13l-0.992,1.488C8.351,15.474,8,16.632,8,17.817V39c0,2.209,1.791,4,4,4h25c1.657,0,3-1.343,3-3 V17.817c0-1.185-0.351-2.343-1.008-3.328L38,13H10z"/><rect width="32" height="20" x="8" y="18" fill="#97c95c"/><rect width="2" height="2" x="11" y="7" fill="#546e7a"/><rect width="2" height="2" x="15" y="7" fill="#546e7a"/><rect width="2" height="2" x="19" y="7" fill="#546e7a"/><rect width="2" height="2" x="23" y="7" fill="#546e7a"/><rect width="2" height="2" x="27" y="7" fill="#546e7a"/><rect width="2" height="2" x="31" y="7" fill="#546e7a"/><rect width="2" height="2" x="35" y="7" fill="#546e7a"/><rect width="28" height="2" x="10" y="11" fill="#6d4c41"/><g><rect width="4.21" height="2" x="24.656" y="21.239" fill="#2e7d32" transform="rotate(-45.001 26.761 22.24)"/><polygon fill="#2e7d32" points="25.275,24.961 24.039,23.725 25.039,20.225 26.961,20.775 28.225,22.039 28.775,23.961"/><path fill="#ff7d19" d="M25.494,23.506c-1.524-1.524-3.515-2.004-4.601-0.917c-2.918,2.918-6.33,9.475-7.826,12.513 c-0.262,0.532,0.299,1.093,0.831,0.831c3.038-1.497,9.596-4.909,12.513-7.826C27.497,27.021,27.018,25.03,25.494,23.506z"/><path fill="#ef6c00" d="M21.71,27.71C21.51,27.9,21.26,28,21,28s-0.51-0.1-0.71-0.29l-1.93-1.93 c0.39-0.59,0.8-1.14,1.19-1.65l2.16,2.16C22.1,26.68,22.1,27.32,21.71,27.71z"/><path fill="#ef6c00" d="M21.92,31.5c-0.58,0.37-1.17,0.73-1.76,1.08l-0.87-0.87c-0.39-0.39-0.39-1.03,0-1.42 s1.03-0.39,1.42,0L21.92,31.5z"/><path fill="#ef6c00" d="M16.71,32.71C16.51,32.9,16.26,33,16,33s-0.51-0.1-0.71-0.29l-0.66-0.66c0.31-0.59,0.65-1.21,1-1.84 l1.08,1.08C17.1,31.68,17.1,32.32,16.71,32.71z"/></g><g><polygon fill="#a1887f" points="26,32 24,33 25.5,33.5 25,35 26.5,34.5 27,36 28,34 29,31"/><path fill="#fff59d" d="M33.182,25c0,0-0.682,1-2.682,1c-1.818,0-5.5,0-5.5,4c0,3,2,5,5,5c4,0,4-3.682,4-5.5 c0-2,1-2.682,1-2.682L33.182,25z"/><path fill="#ffe082" d="M33,28c0,0,0,3.25-1.375,4.625S26.8,34,26.8,34s2.2-1.25,3.575-2.625C32,29.75,33,28,33,28z"/><path fill="#ffe082" d="M32,27c0,0-3.25,0-4.625,1.375S26,33.2,26,33.2s1.25-2.2,2.625-3.575C30.25,28,32,27,32,27z"/></g></svg>