<svg xmlns="http://www.w3.org/2000/svg" xmlns:xlink="http://www.w3.org/1999/xlink" viewBox="0 0 48 48"><path fill="#388e3c" d="M417.737,3585.436c-9.565-2.542-29.772-7.142-44.837-10.167 c-38.38-7.626-44.478-9.926-61.576-22.756c-24.272-18.278-41.25-53.622-41.13-85.698c0.12-12.225,1.913-20.94,3.946-18.641 c0.478,0.605,2.152,4.115,3.587,7.747c7.293,17.793,28.457,44.907,46.511,59.553c9.207,7.505,27.739,14.888,27.739,11.015 c0-1.331-6.337-9.32-13.87-17.309c-7.054-7.626-9.446-10.773-22.717-30.261c-13.75-20.456-31.685-57.011-43.761-89.572 c-11.717-31.592-20.326-56.769-26.065-75.652c-9.685-32.318-18.413-57.858-19.967-58.343c-1.913-0.726-7.174,16.583-18.174,59.553 c-17.098,67.3-24.391,90.419-41.848,132.542c-11.957,28.687-27.739,51.685-59.783,86.909 c-17.576,19.488-42.565,38.128-57.63,43.212c-9.804,3.389-10.641,1.695-3.228-6.657c34.913-39.823,55.12-69.358,76.522-111.36 c18.054-35.708,30.489-71.173,53.087-152.514c5.739-20.82,18.413-73.836,22.478-94.414c4.543-22.877,9.565-45.27,10.88-48.781 c0.478-1.089,2.272-2.542,4.065-3.026c4.065-1.09,23.674-1.09,27.859,0c6.217,1.815,7.413,6.778,16.022,63.911 c5.739,38.613,10.641,61.732,20.446,96.229c16.62,58.827,34.315,101.918,45.076,108.939c1.554,0.968,9.207,2.905,17.217,4.237 c31.087,5.205,56.076,19.125,73.772,41.276c11.837,14.767,14.946,25.661,17.935,61.974c1.554,19.246,2.511,24.693,6.098,36.192 c2.272,7.505,3.826,14.283,3.587,15.13C439.139,3590.883,437.226,3590.641,417.737,3585.436z" transform="matrix(.1 0 0 -.1 0 362)"/></svg>