<svg xmlns="http://www.w3.org/2000/svg" xmlns:xlink="http://www.w3.org/1999/xlink" viewBox="0 0 48 48"><path fill="#9e9d24" d="M38,28c-1,0-3.5,0.3-4.2-0.1c-2.3-1.1-2.3-4.6,0.1-5.7c1.1-0.5,1.9-0.2,4.1-0.2c3.3,0,6-2.7,6-6 s-2.7-6-6-6c-5.6,0-5.4,5.1-7.3,6c-3.1,1.5-5.4,0.2-5.5-3.2C25.2,11.3,26,10,26,8c0-2.8-2.2-5-5-5s-5,2.2-5,5c0,3,1.8,2.7,2.5,5.8 c0.5,2.1-1.9,3.9-3.8,2.5C13.8,15.6,13,12,9,12c-2.8,0-5,2.2-5,5s2.2,5,5,5c0.8,0,2.8-0.1,3.9,0.6c1.7,1.1,1.6,3,0.3,3.8 c-1,0.7-2.3,0.6-3.2,0.6c-2.8,0-5,2.2-5,5s2.2,5,5,5c4.3,0,4.2-3.5,6.4-4.7c1.9-1,3.6-0.2,3.9,2c0.2,1.4-1.2,2.1-1.2,4.7 c0,2.8,2.2,5,5,5s4.9-2.2,5-5c0.1-2.8-2.2-3.3-2.3-4.9c-0.1-1.6,1.6-2.4,3-1.5c3.3,2,2,7.4,8.2,7.4c3.3,0,6-2.7,6-6S41.3,28,38,28z"/><path fill="#c0ca33" d="M8 32.5c-.3 0-.5-.2-.5-.5 0-1.4 1.1-2.5 2.5-2.5.3 0 .5.2.5.5s-.2.5-.5.5c-.8 0-1.5.7-1.5 1.5C8.5 32.3 8.3 32.5 8 32.5zM34.9 15.9c-.1 0-.2 0-.2-.1-.2-.1-.3-.4-.2-.7.9-1.8 1.5-2.7 3.6-2.7.3 0 .5.2.5.5s-.2.5-.5.5c-1.5 0-1.8.4-2.7 2.1C35.2 15.8 35 15.9 34.9 15.9zM19 8.5c-.3 0-.5-.2-.5-.5 0-1.4 1.1-2.5 2.5-2.5.3 0 .5.2.5.5S21.3 6.5 21 6.5c-.8 0-1.5.7-1.5 1.5C19.5 8.3 19.3 8.5 19 8.5zM7 17.5c-.3 0-.5-.2-.5-.5 0-1.4 1.1-2.5 2.5-2.5.3 0 .5.2.5.5S9.3 15.5 9 15.5c-.8 0-1.5.7-1.5 1.5C7.5 17.3 7.3 17.5 7 17.5z"/></svg>