<svg xmlns="http://www.w3.org/2000/svg" xmlns:xlink="http://www.w3.org/1999/xlink" width="48" height="48" viewBox="0 0 48 48"><path fill="#E6EE9C" d="M5.716,35.772L5.716,35.772c8.297,8.3,21.75,8.3,30.046,0.001c8.297-8.301,8.297-21.758,0-30.059h-0.001L5.716,35.772z"/><path fill="#FF1744" d="M32.899,32.91c6.717-6.72,6.717-17.613,0-24.332L8.577,32.91C15.294,39.63,26.184,39.63,32.899,32.91z"/><path fill="#5D4037" d="M29.681 27.456c.592.593.592 1.554 0 2.146-.593.593-1.554.593-2.146 0-.593-.593-1.074-3.221-1.074-3.221S29.088 26.862 29.681 27.456zM31.654 22.052c.825.146 1.377.935 1.23 1.759-.146.825-.934 1.376-1.759 1.229-.825-.145-3.098-2.088-3.098-2.088S30.83 21.905 31.654 22.052zM31.238 16.356c.825-.135 1.605.429 1.738 1.257.135.828-.429 1.607-1.257 1.739-.827.133-3.55-.965-3.55-.965S30.411 16.488 31.238 16.356zM22.151 31.559c.146.825.933 1.378 1.758 1.232.825-.146 1.376-.935 1.229-1.761-.146-.825-2.088-3.098-2.088-3.098S22.005 30.734 22.151 31.559zM16.37 31.143c-.134.825.43 1.606 1.257 1.739.827.135 1.607-.429 1.739-1.257.133-.826-.965-3.552-.965-3.552S16.503 30.315 16.37 31.143z"/><path fill="#558B2F" d="M20.739,43C15.039,43,9.34,40.829,5,36.487l1.431-1.43c7.89,7.891,20.725,7.892,28.616,0.001c3.824-3.827,5.932-8.911,5.931-14.313c0-5.405-2.106-10.488-5.932-14.314L36.476,5C40.684,9.208,43,14.799,43,20.745c0.002,5.943-2.316,11.536-6.523,15.744C32.139,40.829,26.438,43,20.739,43z"/></svg>