<svg xmlns="http://www.w3.org/2000/svg" xmlns:xlink="http://www.w3.org/1999/xlink" viewBox="0 0 48 48"><path fill="#90a4ae" d="M32,10.4c0-2-1.9-5.4-8-5.4s-8,3.5-8,5.4c0,0,0,0,0,0c0,0,0,0,0,0v2c0,0.8,0.7,1.5,1.5,1.5h13 c0.8,0,1.5-0.7,1.5-1.5V10.4C32,10.5,32,10.5,32,10.4C32,10.5,32,10.5,32,10.4z"/><path fill="#90caf9" d="M32,41.5c0,0.8-0.7,1.5-1.5,1.5h-13c-0.8,0-1.5-0.7-1.5-1.5v-26c0-0.8,0.7-1.5,1.5-1.5h13 c0.8,0,1.5,0.7,1.5,1.5V41.5z"/><path fill="#eee" d="M18,22v17.5c0,0.3,0.2,0.5,0.5,0.5h11c0.3,0,0.5-0.2,0.5-0.5V22H18z"/><path fill="#90a4ae" d="M24 37c0 .6-.4 1-1 1s-1-.4-1-1 .4-1 1-1S24 36.4 24 37zM26 34c0 .6-.4 1-1 1s-1-.4-1-1 .4-1 1-1S26 33.4 26 34zM28 37c0 .6-.4 1-1 1s-1-.4-1-1 .4-1 1-1S28 36.4 28 37z"/><path fill="#37474f" d="M25 7c0 .6-.4 1-1 1s-1-.4-1-1 .4-1 1-1S25 6.4 25 7zM21 8c0 .6-.4 1-1 1s-1-.4-1-1 .4-1 1-1S21 7.4 21 8zM29 8c0 .6-.4 1-1 1s-1-.4-1-1 .4-1 1-1S29 7.4 29 8z"/><path fill="#37474f" d="M22 -2.9H26V50.800000000000004H22z" transform="rotate(-45.001 24 24)"/></svg>