<svg xmlns="http://www.w3.org/2000/svg" xmlns:xlink="http://www.w3.org/1999/xlink" viewBox="0 0 48 48"><path fill="#f1cb83" d="M25.056,23.652c-0.847-0.643-1.621-1.387-2.269-2.245c-1.038-1.372-1.722-2.992-2.219-4.652c-0.481-1.607-0.635-3.242-1.704-4.575c-1.357-1.692-3.547-2.54-5.621-2.035c-1.508,0.367-2.774,1.364-3.565,2.749c-0.16,0.281-0.301,0.571-0.427,0.87c-0.337,0.806-0.557,1.667-0.714,2.533c-0.927,5.11,0.394,10.265,3.202,14.383L21,31L25.056,23.652z"/><path fill="#f6dfb3" d="M40.682,13.974c0.36,0.85,0.594,1.76,0.762,2.674c1.411,7.7-2.061,15.496-8.063,20.067c-4.409,3.358-10.109,4.892-15.535,4.065c-2.07-0.315-4.198-1.02-5.606-2.622c-1.563-1.777-1.918-4.556-0.934-6.719c0.803-1.766,2.515-2.706,4.223-3.315c2.101-0.748,4.224-1.33,6.211-2.393c1.713-0.917,3.306-2.123,4.502-3.689c1.107-1.449,1.837-3.158,2.367-4.911c0.513-1.696,0.677-3.422,1.818-4.83c1.448-1.786,3.784-2.681,5.996-2.148c1.609,0.387,2.959,1.44,3.803,2.902C40.397,13.351,40.548,13.658,40.682,13.974z"/><path fill="#f1cb83" d="M40.13,27.96c-1.43,3.44-3.78,6.49-6.75,8.75c-4.41,3.36-10.11,4.9-15.53,4.07c-2.07-0.32-4.2-1.02-5.61-2.62c-0.28-0.31-0.52-0.66-0.71-1.03c1.02,0.31,2.09,0.52,3.16,0.65c6.65,0.83,13.64-0.71,19.04-4.07C36.27,32.13,38.44,30.17,40.13,27.96z"/><path fill="#99877e" d="M29.966,26.861c-2.115,2.894-6.464,3.848-7.976,2.528c-1.553-1.29,0.196-3.472,2.336-5.496c2.187-2.033,3.972-3.405,5.512-2.937C31.325,21.382,32.108,23.99,29.966,26.861z"/><path fill="#f6dfb3" d="M23.496,27.932c-0.269-0.51,0.71-1.173,2.205-2.586c1.246-1.157,2.202-1.916,2.854-2.263c0.338-0.18,0.758,0.084,0.727,0.466c-0.04,0.51-0.333,1.387-1.101,2.158C27.156,26.734,26.084,27.615,25,28C24.042,28.34,23.699,28.316,23.496,27.932z"/></svg>