<?xml version="1.0" encoding="utf-8"?><!-- Generator: Adobe Illustrator 15.0.0, SVG Export Plug-In . SVG Version: 6.00 Build 0)  --><!DOCTYPE svg PUBLIC "-//W3C//DTD SVG 1.1//EN" "http://www.w3.org/Graphics/SVG/1.1/DTD/svg11.dtd"><svg xmlns="http://www.w3.org/2000/svg" xmlns:xlink="http://www.w3.org/1999/xlink" version="1.1" x="0px" y="0px" width="528" height="528" viewBox="0 0 48 48" enable-background="new 0 0 48 48" xml:space="preserve">
<path fill="#558B2F" d="M28.974,17.479L29,17.469c-2.172-1.297-2-2.917-2-3.469h-5v0.063c0,0.552,0.156,2.109-2.016,3.406  l0.024,0.01C18.226,18.76,17,20.754,17,23l1,21c0,0.553,0.448,1,1,1h11c0.553,0,1-0.447,1-1l1-21  C32,20.754,30.764,18.761,28.974,17.479z"/>
<path fill="#D32F2F" d="M27,7.001c0.553,0,1-0.448,1-1V4c0-0.552-0.447-1-1-1h-5c-0.552,0-1,0.448-1,1v2.001c0,0.552,0.448,1,1,1V14  h5V7.001z"/>
<rect x="22" y="13" fill="#FFC107" width="5" height="1"/>
<path fill="#FFECB3" d="M27.949,24c-0.244-1.693-1.688-3-3.449-3s-3.205,1.307-3.45,3h-2.003l0.682,15h9.541l0.683-15H27.949z"/>
<rect x="21" y="26" fill="#AFB42B" width="7" height="2"/>
<path fill="#33691E" d="M29.97,45c-0.305-2.803-3.108-5-5.47-5s-5.165,2.197-5.47,5H29.97z"/>
</svg>