<svg xmlns="http://www.w3.org/2000/svg"  viewBox="0 0 48 48" width="48px" height="48px"><path fill="#558b2f" d="M18.974,17.479L19,17.469c-2.172-1.297-2-2.917-2-3.469h-5v0.063c0,0.552,0.156,2.109-2.016,3.406 l0.024,0.01C8.226,18.76,7,20.754,7,23l1,20c0,0.553,0.448,1,1,1h11c0.553,0,1-0.447,1-1l1-20 C22,20.754,20.764,18.761,18.974,17.479z"/><path fill="#d32f2f" d="M17,8.001c0.553,0,1-0.448,1-1V5c0-0.552-0.447-1-1-1h-5c-0.552,0-1,0.448-1,1v2.001 c0,0.552,0.448,1,1,1V14h5V8.001z"/><path fill="#ffc107" d="M12,13h5v1h-5V13z"/><path fill="#ffecb3" d="M14.5,21c-1.761,0-3.205,1.307-3.45,3h-2l0.702,14h9.498l0.699-14h-1.999 C17.705,22.307,16.261,21,14.5,21z"/><path fill="#afb42b" d="M11,26h7v2h-7V26z"/><path fill="#33691e" d="M19.97,44c-0.305-2.803-3.108-4-5.47-4s-5.165,1.197-5.47,4H19.97z"/><g><path fill="#90caf9" d="M34,40.585V27.149h-2v13.437C30.962,41.867,27,43,27,43v1h12v-1C39,43,35.038,41.867,34,40.585z"/><path fill="#90caf9" d="M40.982,22C40.851,18.055,40,15,40,15H26c0,0-0.851,3.055-0.982,7H40.982z"/><path fill="#e53935" d="M25.068,21C25.027,21.64,25,22.308,25,23c0,4.418,3.582,8,8,8s8-3.582,8-8 c0-0.692-0.027-1.36-0.068-2H25.068z"/><path fill="#ff8a80" d="M27.072,21C27.028,21.638,27,22.306,27,23c0,2.074,1.058,3.904,2.661,4.982 C29.156,26.415,29,24.229,29,23c0-0.694,0.031-1.363,0.078-2H27.072z"/><path fill="#fafafa" d="M29.639,17h-2.042c-0.191,0.977-0.413,2.381-0.525,4h2.006C29.203,19.314,29.455,17.879,29.639,17z"/></g></svg>