<svg xmlns="http://www.w3.org/2000/svg" xmlns:xlink="http://www.w3.org/1999/xlink" viewBox="0 0 48 48"><path fill="#e64a19" d="M12,43c-1.8,0-3.6-1-4.5-2.8C7.4,39.9,4,33,4,24S7.4,8.1,7.5,7.8c1.2-2.5,4.2-3.5,6.7-2.3 c2.5,1.2,3.5,4.2,2.3,6.7c0,0-2.5,5.2-2.5,11.8c0,6.6,2.5,11.7,2.5,11.8c1.2,2.5,0.2,5.5-2.3,6.7C13.5,42.8,12.7,43,12,43z"/><path fill="#cc3b15" d="M12,40c-0.9,0-1.7-0.5-2.2-1.3c-0.1-0.2-3.3-6-3.3-14.7c0-8.8,3.2-14.5,3.3-14.7 c0.7-1.2,2.2-1.6,3.4-0.9c1.2,0.7,1.6,2.2,0.9,3.4c0,0-2.7,4.9-2.7,12.3s2.7,12.2,2.7,12.3c0.7,1.2,0.2,2.7-1,3.4 C12.8,39.9,12.4,40,12,40z"/><path fill="#9e1818" d="M6.6 27c-.4 0-.8-.2-.9-.6-.2-.5 0-1.1.6-1.3l4.9-2c.5-.2 1.1 0 1.3.6.2.5 0 1.1-.6 1.3l-4.9 2C6.8 27 6.7 27 6.6 27zM7.4 33c-.4 0-.8-.2-.9-.6-.2-.5 0-1.1.6-1.3l4.7-1.9c.5-.2 1.1 0 1.3.6.2.5 0 1.1-.6 1.3L7.8 33C7.7 33 7.5 33 7.4 33zM6.7 20.9c-.4 0-.8-.2-.9-.6-.2-.5 0-1.1.6-1.3l5.4-2.2c.5-.2 1.1 0 1.3.6.2.5 0 1.1-.6 1.3l-5.4 2.2C7 20.9 6.9 20.9 6.7 20.9zM9.1 38.2c-.4 0-.8-.2-.9-.6-.2-.5 0-1.1.6-1.3l4.6-1.9c.5-.2 1.1 0 1.3.6s0 1.1-.6 1.3l-4.6 1.9C9.3 38.1 9.2 38.2 9.1 38.2zM8 14.9c-.4 0-.8-.3-.9-.7-.2-.5.1-1.1.6-1.3l6.2-2.3c.5-.2 1.1.1 1.3.6.2.5-.1 1.1-.6 1.3l-6.2 2.3C8.2 14.9 8.1 14.9 8 14.9z"/><path fill="#e64a19" d="M26,43c-1.8,0-3.6-1-4.5-2.8C21.4,39.9,18,33,18,24s3.4-15.9,3.5-16.2c1.2-2.5,4.2-3.5,6.7-2.3 c2.5,1.2,3.5,4.2,2.3,6.7c0,0-2.5,5.2-2.5,11.8c0,6.6,2.5,11.7,2.5,11.8c1.2,2.5,0.2,5.5-2.3,6.7C27.5,42.8,26.7,43,26,43z"/><path fill="#cc3b15" d="M26,40c-0.9,0-1.7-0.5-2.2-1.3c-0.1-0.2-3.3-6-3.3-14.7c0-8.8,3.2-14.5,3.3-14.7 c0.7-1.2,2.2-1.6,3.4-0.9c1.2,0.7,1.6,2.2,0.9,3.4c0,0-2.7,4.9-2.7,12.3s2.7,12.2,2.7,12.3c0.7,1.2,0.2,2.7-1,3.4 C26.8,39.9,26.4,40,26,40z"/><path fill="#9e1818" d="M20.6 27c-.4 0-.8-.2-.9-.6-.2-.5 0-1.1.6-1.3l4.9-2c.5-.2 1.1 0 1.3.6s0 1.1-.6 1.3l-4.9 2C20.8 27 20.7 27 20.6 27zM21.4 33c-.4 0-.8-.2-.9-.6-.2-.5 0-1.1.6-1.3l4.7-1.9c.5-.2 1.1 0 1.3.6.2.5 0 1.1-.6 1.3L21.8 33C21.7 33 21.5 33 21.4 33zM20.7 20.9c-.4 0-.8-.2-.9-.6-.2-.5 0-1.1.6-1.3l5.4-2.2c.5-.2 1.1 0 1.3.6.2.5 0 1.1-.6 1.3l-5.4 2.2C21 20.9 20.9 20.9 20.7 20.9zM23.1 38.2c-.4 0-.8-.2-.9-.6-.2-.5 0-1.1.6-1.3l4.6-1.9c.5-.2 1.1 0 1.3.6.2.5 0 1.1-.6 1.3l-4.6 1.9C23.3 38.1 23.2 38.2 23.1 38.2zM22 14.9c-.4 0-.8-.3-.9-.7-.2-.5.1-1.1.6-1.3l6.2-2.3c.5-.2 1.1.1 1.3.6.2.5-.1 1.1-.6 1.3l-6.2 2.3C22.2 14.9 22.1 14.9 22 14.9z"/><path fill="#e64a19" d="M40,43c-1.8,0-3.6-1-4.5-2.8C35.4,39.9,32,33,32,24s3.4-15.9,3.5-16.2c1.2-2.5,4.2-3.5,6.7-2.3 c2.5,1.2,3.5,4.2,2.3,6.7c0,0-2.5,5.2-2.5,11.8c0,6.6,2.5,11.7,2.5,11.8c1.2,2.5,0.2,5.5-2.3,6.7C41.5,42.8,40.7,43,40,43z"/><path fill="#cc3b15" d="M40,40c-0.9,0-1.7-0.5-2.2-1.3c-0.1-0.2-3.3-6-3.3-14.7c0-8.8,3.2-14.5,3.3-14.7 c0.7-1.2,2.2-1.6,3.4-0.9c1.2,0.7,1.6,2.2,0.9,3.4c0,0-2.7,4.9-2.7,12.3s2.7,12.2,2.7,12.3c0.7,1.2,0.2,2.7-1,3.4 C40.8,39.9,40.4,40,40,40z"/><path fill="#9e1818" d="M34.6 27c-.4 0-.8-.2-.9-.6-.2-.5 0-1.1.6-1.3l4.9-2c.5-.2 1.1 0 1.3.6s0 1.1-.6 1.3l-4.9 2C34.8 27 34.7 27 34.6 27zM35.4 33c-.4 0-.8-.2-.9-.6-.2-.5 0-1.1.6-1.3l4.7-1.9c.5-.2 1.1 0 1.3.6.2.5 0 1.1-.6 1.3L35.8 33C35.7 33 35.5 33 35.4 33zM34.7 20.9c-.4 0-.8-.2-.9-.6-.2-.5 0-1.1.6-1.3l5.4-2.2c.5-.2 1.1 0 1.3.6.2.5 0 1.1-.6 1.3l-5.4 2.2C35 20.9 34.9 20.9 34.7 20.9zM37.1 38.2c-.4 0-.8-.2-.9-.6-.2-.5 0-1.1.6-1.3l4.6-1.9c.5-.2 1.1 0 1.3.6.2.5 0 1.1-.6 1.3l-4.6 1.9C37.3 38.1 37.2 38.2 37.1 38.2zM36 14.9c-.4 0-.8-.3-.9-.7-.2-.5.1-1.1.6-1.3l6.2-2.3c.5-.2 1.1.1 1.3.6.2.5-.1 1.1-.6 1.3l-6.2 2.3C36.2 14.9 36.1 14.9 36 14.9z"/></svg>