<svg xmlns="http://www.w3.org/2000/svg" xmlns:xlink="http://www.w3.org/1999/xlink" viewBox="0 0 48 48"><path fill="#558b2f" d="M17,33c0,0-5-3-7-12S8,8,6,6s1-3,4-1s6,3,9,12S17,33,17,33z"/><path fill="#9ccc65" d="M16,26c-1.719-11.141-4-16-7-19c2,4,4,10,5,19c1,8,3,13,6,18c1.455,2.425,4,2,4,2s0-1,0-3C24,40,18.125,36.39,16,26z"/><path fill="#558b2f" d="M31.15,33c0,0,5.987-2.956,7.85-11s0.534-11.344,2.397-13.132s-0.932-2.681-3.726-0.894c-2.795,1.788-5.589,2.681-8.384,10.725S31.15,33,31.15,33z"/><path fill="#9ccc65" d="M32.352,28c-2.977,9.89-8,12.602-8,15.303c0,1.8,0,2.7,0,2.7s2.545,0.383,4-1.8c3-4.501,4.648-8.271,6-16.203c1.648-9,3-15,5-19C36.352,12,35,17,32.352,28z"/><path fill="#7cb342" d="M24,36c0,0-7-12.065-7-21.935S21.2,2,24,2C24,5.29,24,36,24,36z"/><path fill="#7cb342" d="M24,36c0,0,7-12.065,7-21.935S26.8,2,24,2C24,5.29,24,36,24,36z"/><path fill="#689f38" d="M24,20.985C26.314,17.914,30,17,30,17c-0.026,0.02-2.646,2.023-4.726,5.361c-0.108,0.173-0.21,0.36-0.311,0.549L24,20.985z"/><path fill="#689f38" d="M24.187,20.985C21.8,17.914,18,17,18,17c0.027,0.02,2.728,2.023,4.873,5.361c0.111,0.173,0.216,0.36,0.32,0.549L24.187,20.985z"/><path fill="#689f38" d="M24,14c1.929-2.552,5-3,5-3c-0.022,0.016-2.771,2.328-4.771,5.327L24,14z"/><path fill="#689f38" d="M24.188,14.203C22.187,11.651,19,11,19,11c0.023,0.016,3.208,2.932,4.354,4.91L24.188,14.203z"/><path fill="#c5e1a5" d="M25,24h-2c0,9-1,16-1,19c0,3.314,2,3,2,3s2,0.314,2-3C26,40,25,30,25,24z"/><path fill="#c5e1a5" d="M24,5c0,0-1,15-1,19h2C25,20,24,8,24,5z"/><path fill="#ffeb3b" d="M32.061,27.146c0.391,0.391,0.391,1.024,0,1.414c-0.391,0.391-1.024,0.391-1.414,0c-0.391-0.391-1.098-1.731-0.707-2.121C30.33,26.049,31.67,26.756,32.061,27.146z"/><path fill="#ffeb3b" d="M34,25c0,0.552-0.448,1-1,1s-1-0.448-1-1s0.448-2,1-2S34,24.448,34,25z"/><path fill="#ffeb3b" d="M36.354,24.561c-0.391,0.391-1.024,0.391-1.414,0c-0.391-0.391-0.391-1.024,0-1.414c0.391-0.391,1.731-1.098,2.121-0.707C37.451,22.83,36.744,24.17,36.354,24.561z"/><path fill="#ffeb3b" d="M35.354,28.561c-0.391,0.391-1.024,0.391-1.414,0c-0.391-0.391-0.391-1.024,0-1.414c0.391-0.391,1.731-1.098,2.121-0.707C36.451,26.83,35.744,28.17,35.354,28.561z"/><path fill="#ffeb3b" d="M17.061,18.146c0.391,0.391,0.391,1.024,0,1.414c-0.391,0.391-1.024,0.391-1.414,0c-0.391-0.391-1.098-1.731-0.707-2.121C15.33,17.049,16.67,17.756,17.061,18.146z"/><path fill="#ffeb3b" d="M19,16c0,0.552-0.448,1-1,1s-1-0.448-1-1s0.448-2,1-2S19,15.448,19,16z"/><path fill="#ffeb3b" d="M20.354,19.561c-0.391,0.391-1.024,0.391-1.414,0c-0.391-0.391-0.391-1.024,0-1.414c0.391-0.391,1.731-1.098,2.121-0.707C21.451,17.83,20.744,19.17,20.354,19.561z"/></svg>