<svg xmlns="http://www.w3.org/2000/svg" xmlns:xlink="http://www.w3.org/1999/xlink" viewBox="0 0 48 48"><path fill="#ec7b3d" d="M35.974,12.994c-0.675,0.552-24.267,23.9-24.714,24.372c-0.446,0.472-2.007,2.387,0.027,4.536c1.525,1.612,3.167,1.161,3.854,0.467c0.467-0.472,24.332-23.46,25.032-24.104c0.988-0.908,2.356-2.909,0.473-4.862C38.688,11.373,37.074,12.094,35.974,12.994z"/><path fill="#f2a880" d="M35.974,12.994c-0.675,0.552-1.472,2.174,0.562,4.323c1.525,1.612,2.936,1.592,3.637,0.948c0.988-0.908,2.356-2.909,0.473-4.862C38.688,11.373,37.074,12.094,35.974,12.994z"/><path fill="#795548" d="M40.811,13.311c0,0-1.506,1.633-2.044,2.209c0.802-0.795,1.447-0.667,1.795-0.299c0.475,0.503,0.192,1.156-0.124,1.442c-0.843,0.764-2.239,0.181-2.852-0.495c-0.613-0.677-1.126-2.226-0.443-2.841c0.514-0.464,1.141-0.482,1.463-0.079c0.369,0.463,0.222,1.077-0.275,1.528C38.868,14.664,40.811,13.311,40.811,13.311z"/><path fill="#bf6332" d="M23.374,25.365c-5.985,5.912-11.893,11.766-12.114,12c-0.446,0.472-2.007,2.387,0.027,4.536c0.261,0.275,0.524,0.472,0.786,0.636c0.635-0.36,1.179-0.854,1.539-1.466C13.898,40.594,18.739,32.809,23.374,25.365z"/><path fill="#ed834a" d="M24.895,6.47C24.376,7.17,7.22,35.585,6.903,36.152c-0.317,0.567-1.361,2.806,1.137,4.391c1.873,1.189,3.355,0.35,3.851-0.491c0.337-0.572,17.845-28.705,18.366-29.5c0.735-1.122,1.572-3.397-0.732-4.83C27.13,4.234,25.741,5.329,24.895,6.47z"/><path fill="#f2a880" d="M24.895,6.47c-0.519,0.7-0.712,2.08,1.786,3.666c1.873,1.189,3.055,1.212,3.576,0.417c0.735-1.122,1.572-3.397-0.732-4.83C27.13,4.234,25.741,5.329,24.895,6.47z"/><path fill="#795548" d="M9.05,39.085c0,0,18.321-30.881,18.702-31.571c-0.583,0.967-1.239,1.001-1.667,0.729c-0.584-0.371-0.469-1.074-0.233-1.428c0.63-0.947,2.126-0.724,2.887-0.218s1.636,1.882,1.125,2.646c-0.385,0.575-0.988,0.747-1.399,0.435c-0.471-0.359-0.479-0.99-0.108-1.549C27.864,8.369,9.05,39.085,9.05,39.085z"/></svg>