<svg xmlns="http://www.w3.org/2000/svg" xmlns:xlink="http://www.w3.org/1999/xlink" viewBox="0 0 48 48"><path fill="#aed581" d="M12.7,45C7.3,45,3,40.6,3,35.3s5.6-8.3,10.4-10c2.5-0.9,5.2-1.8,7.6-3.7c1.8-1.3,3.4-2.9,5-4.6 c3-3,6-7,9-7c0,0,2,0,4,2c0.856,0.856,2,1.882,2,3c0,0,0,6-5,15C31.385,38.307,22.978,45,12.7,45z"/><path fill="#7cb342" d="M41,15c0-0.602-0.336-1.177-0.776-1.713C39.57,13.15,39.104,13.046,39,13 c-0.503-0.224,0-1-2.914,6.594c-3.836,8.632-9.285,15.561-14.576,18.534C19.298,39.371,15,41,11,41 c-2.119,0-3.114-0.235-4.583-0.909c-0.506-0.229-1.097-0.009-1.326,0.492c-0.098,0.213-0.099,0.44-0.047,0.651 c0.21,0.271,0.432,0.532,0.669,0.779c0.075,0.059,0.151,0.132,0.229,0.231C7.683,43.942,10.057,45,12.7,45 c10.278,0,18.685-6.693,23.3-15C41,21,41,15,41,15z"/><path fill="#c5e1a5" d="M5,41c-0.427-1.829-0.383-3.866,0.402-5.716c0.765-1.859,2.188-3.382,3.742-4.565 c3.144-2.369,6.88-3.566,9.95-5.292c2.996-1.876,5.637-4.578,8.271-7.2c1.331-1.313,2.638-2.664,4.038-3.934 c0.696-0.637,1.409-1.263,2.168-1.834C34.32,11.883,35.127,11.357,36,11c-1.569,1.039-2.763,2.486-3.998,3.875l-3.612,4.298 c-2.464,2.836-4.957,5.715-8.284,7.907c-1.705,1.05-3.446,1.768-5.141,2.527c-1.682,0.775-3.348,1.523-4.84,2.505 c-1.504,0.955-2.837,2.144-3.745,3.659C5.457,37.284,5.077,39.115,5,41z"/><path fill="#9ccc65" d="M5,40c3.028-2.228,6.422-3.749,9.402-5.534c1.552-0.901,2.876-1.757,4.232-2.852 c1.352-1.068,2.677-2.227,3.968-3.418c1.29-1.191,2.561-2.417,3.754-3.677c0.618-0.633,1.142-1.25,1.728-1.927 c0.59-0.7,1.192-1.383,1.795-2.059l3.606-4.028c0.614-0.664,1.183-1.359,1.771-2.054c0.299-0.345,0.581-0.701,0.869-1.059 l0.438-0.536c0.137-0.155,0.231-0.34,0.104-0.561c0.225,0.111,0.27,0.471,0.177,0.7l-0.181,0.678 c-0.138,0.445-0.283,0.891-0.442,1.331c-0.315,0.882-0.701,1.734-1.091,2.585c-0.808,1.685-1.755,3.288-2.733,4.839 c-0.49,0.776-0.988,1.539-1.491,2.29c-0.507,0.774-1.119,1.577-1.714,2.298c-1.207,1.47-2.507,2.819-3.877,4.103 c-1.373,1.28-2.81,2.491-4.375,3.592c-0.77,0.563-1.6,1.068-2.471,1.556c-0.898,0.498-1.733,0.828-2.626,1.193 c-1.767,0.697-3.583,1.194-5.379,1.588C8.657,39.421,6.869,39.778,5,40z"/><path fill="#8d6e63" d="M5.5 38.803A1.273 1.697 0 1 0 5.5 42.197A1.273 1.697 0 1 0 5.5 38.803Z" transform="rotate(-45.001 5.5 40.5)"/><path fill="#558b2f" d="M45,5l-2-2c0,0-1.144,2.08-2.832,3.991c-1.011,1.144-2.412,1.834-3.902,2.166C35,9.438,35,10,35,10 c0,0.6,0.599,1.045,1.366,1.506l-0.026,0.037c-0.464,0.649-0.422,1.584,0.188,2.099c0.286,0.242,0.631,0.357,0.972,0.357 c0.468,0,0.929-0.219,1.222-0.628l0.025-0.035C39.243,14.126,39.565,15,41,15c0,0,0.527-0.527,0.433-1.962 c-0.097-1.488,0.318-2.969,1.155-4.202C43.882,6.93,45,5,45,5z"/></svg>