<?xml version="1.0" standalone="no"?>
<!DOCTYPE svg PUBLIC "-//W3C//DTD SVG 20010904//EN"
 "http://www.w3.org/TR/2001/REC-SVG-20010904/DTD/svg10.dtd">
<svg version="1.0" xmlns="http://www.w3.org/2000/svg"
 width="2560.000000pt" height="2560.000000pt" viewBox="0 0 2560.000000 2560.000000"
 preserveAspectRatio="xMidYMid meet">
<metadata>
Created by potrace 1.11, written by Peter Selinger 2001-2013
</metadata>
<g transform="translate(0.000000,2560.000000) scale(0.100000,-0.100000)"
fill="#000000" stroke="none">
<path d="M9398 22515 c-1 -1 -93 -6 -203 -10 -110 -3 -249 -8 -310 -10 -114
-4 -283 -13 -370 -20 -27 -2 -99 -7 -160 -10 -60 -3 -128 -8 -150 -10 -37 -5
-99 -9 -258 -20 -63 -4 -173 -14 -227 -20 -19 -2 -66 -7 -105 -10 -38 -3 -86
-8 -105 -10 -19 -2 -60 -7 -90 -10 -30 -3 -71 -8 -90 -10 -19 -2 -60 -7 -90
-10 -30 -3 -122 -15 -205 -25 -82 -11 -170 -22 -195 -25 -50 -6 -112 -14 -150
-20 -14 -2 -72 -11 -130 -20 -58 -8 -115 -17 -127 -19 -11 -3 -43 -8 -70 -12
-26 -3 -57 -8 -68 -10 -11 -2 -79 -13 -150 -24 -72 -11 -141 -23 -155 -26 -36
-7 -376 -73 -440 -85 -30 -6 -104 -22 -165 -36 -60 -14 -121 -27 -135 -29 -14
-3 -31 -7 -39 -10 -8 -2 -28 -7 -45 -10 -46 -7 -552 -137 -696 -178 -69 -20
-132 -38 -140 -40 -172 -47 -851 -284 -971 -339 -19 -9 -56 -25 -84 -35 -27
-11 -75 -31 -105 -45 -30 -14 -77 -35 -105 -47 -192 -85 -530 -262 -663 -346
-29 -19 -54 -34 -56 -34 -18 0 -398 -269 -461 -327 -11 -10 -43 -36 -70 -58
-47 -38 -274 -261 -341 -335 -17 -19 -53 -64 -80 -100 -27 -36 -54 -70 -60
-77 -6 -6 -26 -35 -45 -65 -18 -29 -37 -54 -41 -56 -5 -2 -8 -7 -8 -11 0 -5
-22 -46 -48 -92 -79 -138 -184 -390 -197 -474 -2 -11 -4 -20 -5 -20 -7 0 -47
-220 -45 -247 0 -16 -2 -28 -7 -28 -13 0 -8 -1213 5 -1229 8 -10 9 -13 1 -8
-9 5 -11 -40 -9 -167 2 -96 6 -179 10 -185 3 -6 2 -11 -4 -11 -10 0 -9 -25 1
-36 4 -3 3 -16 -2 -29 -5 -13 -7 -25 -4 -27 2 -3 7 -168 10 -369 3 -200 7
-409 8 -464 1 -55 5 -106 9 -112 5 -7 4 -13 -1 -13 -10 0 -7 -54 4 -72 5 -7 2
-8 -6 -3 -9 5 -11 4 -6 -3 4 -7 9 -101 12 -209 2 -109 6 -250 9 -313 7 -172
18 -468 19 -527 0 -29 3 -53 6 -53 3 0 5 -52 5 -115 0 -63 2 -115 5 -115 3 0
5 -33 4 -73 0 -39 3 -80 8 -89 6 -12 5 -18 -2 -18 -6 0 -9 -4 -6 -8 4 -7 18
-191 19 -242 0 -8 4 -20 9 -27 5 -6 5 -13 1 -16 -5 -3 -7 -20 -6 -39 1 -18 4
-69 7 -113 5 -83 12 -172 22 -285 3 -36 7 -92 9 -125 7 -104 14 -208 20 -260
2 -27 7 -80 10 -116 3 -37 8 -84 10 -105 2 -22 7 -73 10 -114 3 -41 8 -86 10
-100 2 -14 7 -54 10 -90 3 -36 8 -83 10 -105 3 -22 7 -67 10 -100 3 -33 8 -71
11 -85 3 -14 8 -53 10 -86 2 -34 6 -77 10 -95 3 -19 8 -50 10 -69 5 -56 14
-123 19 -150 2 -14 7 -52 10 -84 3 -32 7 -62 9 -65 2 -3 7 -37 11 -75 3 -38 8
-72 10 -75 2 -3 6 -28 9 -56 13 -105 16 -121 21 -143 3 -12 8 -44 11 -70 8
-68 12 -97 14 -97 3 0 9 -39 12 -68 1 -16 6 -31 10 -33 5 -3 6 -9 3 -14 -3 -4
0 -32 5 -61 6 -30 13 -70 16 -89 2 -19 7 -46 10 -60 6 -25 21 -107 30 -165 3
-16 8 -37 11 -45 3 -8 7 -33 9 -54 2 -22 9 -45 14 -51 5 -7 8 -14 5 -17 -3 -3
6 -58 20 -124 14 -65 27 -128 29 -139 7 -36 56 -249 66 -287 18 -70 29 -113
36 -143 4 -16 9 -36 11 -42 1 -7 4 -19 6 -25 2 -7 9 -33 16 -58 7 -25 15 -54
18 -65 7 -35 9 -39 26 -95 35 -118 68 -236 73 -259 3 -13 10 -34 16 -45 6 -12
11 -22 10 -23 -1 -2 -2 -4 -1 -5 0 -2 2 -10 4 -18 1 -8 12 -42 23 -75 10 -33
27 -85 36 -115 9 -30 21 -64 25 -75 5 -11 20 -56 34 -100 30 -91 93 -270 106
-300 13 -29 35 -88 37 -100 2 -10 105 -270 123 -310 11 -24 38 -85 76 -175 40
-93 75 -169 136 -295 29 -60 54 -112 54 -115 6 -33 305 -585 398 -735 7 -10
30 -49 51 -85 47 -78 69 -112 221 -345 65 -99 121 -182 124 -185 3 -3 11 -13
16 -22 16 -28 158 -222 172 -236 7 -7 13 -17 13 -21 0 -5 10 -19 22 -33 13
-13 35 -42 51 -63 27 -40 77 -107 100 -135 7 -8 68 -85 137 -170 68 -85 134
-166 146 -180 12 -14 54 -63 94 -110 62 -73 111 -128 225 -254 313 -348 734
-773 976 -984 23 -20 56 -50 73 -66 17 -16 47 -40 66 -55 19 -14 37 -28 40
-32 5 -6 89 -71 136 -106 16 -12 50 -37 77 -57 26 -20 51 -36 56 -36 5 0 11
-4 13 -8 2 -5 37 -31 78 -58 41 -27 77 -52 78 -56 2 -5 7 -8 11 -8 5 0 71 -39
147 -86 154 -95 507 -275 684 -348 63 -27 129 -54 145 -61 125 -55 502 -185
655 -226 139 -38 329 -88 352 -94 254 -57 489 -102 618 -120 14 -2 39 -6 55
-9 17 -3 48 -7 70 -11 23 -3 50 -7 60 -9 11 -2 49 -7 85 -11 70 -7 92 -10 155
-19 22 -4 67 -9 100 -12 33 -3 78 -7 100 -8 114 -11 197 -17 265 -21 41 -2
131 -7 200 -11 257 -16 950 -10 1255 11 90 6 209 15 255 19 25 3 78 7 119 11
41 4 82 8 92 10 10 2 46 6 81 10 35 3 70 8 78 10 8 2 40 7 70 10 30 3 62 7 70
10 8 2 35 6 60 9 25 3 54 8 65 10 11 2 40 7 65 10 77 12 312 56 375 71 276 64
351 82 500 125 184 53 412 127 509 164 34 13 103 41 155 61 367 142 833 386
1114 584 139 97 146 102 242 175 226 174 289 231 660 601 323 323 503 514 673
715 26 30 62 71 81 90 19 19 33 36 33 37 -1 2 7 13 17 25 36 42 186 224 213
259 51 64 153 196 178 229 14 18 31 39 38 46 6 7 12 15 12 19 0 4 6 13 13 20
19 22 29 35 71 95 22 30 43 57 48 58 4 2 8 7 8 12 0 9 147 221 175 253 8 9 12
17 8 17 -3 0 1 8 10 18 20 22 98 140 208 317 48 77 104 165 123 197 20 31 36
61 36 67 0 6 5 11 10 11 6 0 10 6 10 13 0 7 8 22 18 33 9 11 18 26 20 34 2 8
8 17 13 18 5 2 9 8 9 14 0 5 17 40 39 76 49 85 65 114 131 237 29 55 58 103
64 107 6 4 8 8 4 8 -7 0 123 263 141 285 4 6 11 23 14 37 4 15 14 33 22 42 8
8 15 20 15 26 0 7 9 29 19 49 23 42 87 180 108 234 8 20 18 37 22 37 4 0 8 6
8 13 0 27 136 323 157 344 62 58 284 127 476 148 25 3 55 7 67 9 12 3 64 8
115 11 51 4 116 8 143 11 59 5 694 4 880 -1 259 -7 672 -8 765 -1 175 13 309
26 330 31 8 3 31 7 50 9 39 5 101 15 134 22 11 2 37 7 56 10 61 11 342 82 410
104 36 12 70 23 75 24 6 1 24 7 40 13 17 6 71 26 120 43 50 18 113 43 142 56
28 13 54 24 57 24 6 0 182 82 276 130 72 36 93 47 185 100 46 27 288 182 295
190 3 3 25 19 50 35 24 17 51 35 60 42 8 7 42 32 75 57 33 25 67 51 75 58 8 7
44 38 80 68 107 90 139 119 258 236 62 60 115 108 117 105 3 -2 5 0 5 6 0 5
12 23 28 39 28 31 114 129 152 174 12 14 29 34 38 45 66 77 246 320 277 373 6
9 12 19 15 22 6 5 98 152 141 225 13 22 27 42 31 43 4 2 8 7 8 12 0 5 37 80
82 167 46 87 83 160 83 163 1 5 21 49 65 145 10 22 36 85 58 140 21 55 43 109
47 120 4 11 9 25 11 30 2 6 22 69 45 140 37 118 52 167 64 218 2 9 6 21 9 25
6 10 17 61 18 82 0 8 5 21 11 28 5 6 7 12 3 12 -3 0 -1 11 4 26 6 14 12 43 15
66 3 22 7 43 9 47 2 3 7 23 10 44 3 20 9 53 12 73 3 20 8 46 10 58 8 32 22
130 30 201 1 17 5 44 8 60 29 188 24 739 -9 985 -34 254 -54 376 -75 450 -6
19 -12 46 -14 60 -3 14 -9 40 -15 58 -5 18 -9 33 -9 35 3 8 -70 253 -88 295
-8 18 -12 38 -9 43 4 5 1 9 -4 9 -6 0 -11 7 -11 15 0 8 -4 23 -9 33 -5 9 -31
71 -57 137 -26 66 -76 176 -110 245 -33 69 -61 129 -62 134 0 5 -4 12 -10 15
-5 3 -26 38 -47 76 -22 39 -43 71 -47 73 -4 2 -8 8 -8 14 0 6 -18 37 -40 70
-22 33 -40 64 -40 69 0 5 -4 9 -8 9 -4 0 -16 15 -27 33 -18 31 -149 211 -170
233 -22 23 -101 118 -115 138 -22 31 -318 325 -384 381 -33 28 -96 79 -140
113 -45 35 -90 71 -102 80 -42 34 -279 195 -299 203 -9 4 -60 34 -158 93 -115
69 -428 213 -602 276 -49 17 -99 36 -110 41 -40 18 -384 117 -465 134 -8 2
-45 10 -83 19 -70 16 -260 51 -337 61 -25 3 -56 8 -70 10 -14 2 -53 7 -87 10
-34 3 -71 8 -83 10 -100 19 -701 27 -865 11 -111 -10 -327 -36 -345 -41 -8 -2
-35 -6 -60 -10 -25 -3 -106 -19 -180 -35 -74 -17 -145 -31 -157 -33 l-23 -2
-3 520 c-2 286 -7 545 -10 575 -4 30 -8 71 -11 90 -2 19 -6 42 -9 50 -3 8 -8
29 -10 45 -10 59 -40 178 -54 215 -8 20 -8 21 -18 55 -4 17 -11 35 -15 40 -4
6 -15 30 -24 55 -57 145 -230 445 -273 473 -7 4 -13 12 -13 18 0 18 -216 268
-279 323 -13 12 -47 43 -75 69 -28 27 -85 76 -126 110 -41 34 -77 64 -80 67
-22 25 -305 222 -430 299 -202 125 -683 376 -740 386 -3 0 -14 6 -25 12 -11 6
-87 39 -170 73 -82 34 -159 66 -170 70 -11 5 -47 18 -80 30 -33 11 -69 25 -80
30 -70 32 -514 179 -800 263 -106 32 -491 133 -537 142 -9 2 -43 11 -75 19
-63 17 -335 78 -448 101 -38 7 -81 16 -95 19 -22 4 -102 20 -155 31 -81 17
-390 73 -438 80 -68 9 -113 16 -137 21 -13 3 -40 7 -60 10 -19 2 -60 9 -90 14
-30 5 -73 12 -95 15 -22 4 -69 11 -105 16 -36 6 -85 12 -110 14 -25 3 -58 7
-75 10 -48 8 -92 14 -225 30 -69 9 -141 18 -160 20 -19 3 -60 7 -90 10 -30 3
-75 7 -100 10 -25 3 -70 7 -100 10 -53 5 -102 10 -200 20 -25 3 -76 7 -115 10
-38 3 -86 7 -105 10 -19 2 -78 7 -130 10 -52 3 -115 8 -140 10 -78 7 -201 15
-300 20 -52 3 -124 8 -160 10 -36 2 -146 7 -245 11 -99 3 -214 8 -255 11 -89
5 -1467 13 -1472 8z m1452 -998 c52 -3 167 -8 255 -11 88 -4 187 -8 220 -11
33 -3 107 -7 165 -10 58 -3 128 -8 155 -10 28 -2 97 -7 155 -10 58 -3 121 -8
140 -10 32 -4 85 -9 220 -20 25 -3 70 -7 100 -9 30 -3 87 -8 125 -12 39 -3 84
-8 100 -10 17 -2 55 -6 85 -9 30 -3 69 -8 86 -10 17 -2 57 -7 90 -10 32 -4 70
-8 84 -10 14 -3 52 -7 85 -10 33 -3 67 -7 75 -10 8 -2 40 -7 70 -10 30 -3 66
-8 80 -10 14 -3 39 -7 55 -9 80 -12 181 -27 295 -45 69 -12 141 -23 160 -25
103 -15 357 -61 560 -103 69 -14 145 -29 170 -34 40 -8 250 -55 290 -65 8 -2
44 -11 80 -19 36 -9 75 -19 88 -21 68 -13 468 -121 622 -168 203 -61 611 -199
695 -236 11 -4 94 -38 185 -75 375 -152 712 -328 980 -513 52 -36 97 -68 100
-71 3 -4 21 -18 40 -31 19 -13 37 -27 40 -30 3 -3 32 -27 65 -55 88 -72 305
-295 305 -313 0 -2 14 -21 30 -42 17 -21 30 -43 30 -49 0 -6 4 -11 9 -11 18 0
127 -240 147 -325 15 -65 22 -103 29 -165 7 -62 9 -619 2 -626 -2 -2 -1 -22 3
-43 4 -20 4 -46 0 -57 -4 -10 -5 -28 -3 -39 6 -28 4 -105 -3 -116 -3 -5 0 -9
6 -9 6 0 8 -5 4 -11 -9 -16 -11 -150 -1 -156 4 -2 4 -10 0 -16 -10 -16 -11
-138 -1 -158 4 -9 4 -20 0 -23 -4 -4 -8 -82 -9 -174 -1 -92 -4 -296 -6 -453
-3 -157 -2 -290 2 -295 9 -13 22 -15 144 -15 152 1 354 39 579 110 239 76 520
154 628 175 14 2 68 13 120 24 52 11 122 23 155 27 32 4 68 9 80 11 91 18 592
26 740 12 150 -15 218 -23 340 -42 246 -38 606 -134 770 -206 22 -9 72 -30
110 -45 172 -70 461 -232 630 -353 119 -85 249 -196 365 -312 154 -153 177
-179 271 -305 40 -55 77 -101 82 -103 4 -2 7 -9 7 -14 0 -6 18 -35 40 -64 22
-29 40 -56 40 -59 0 -6 84 -156 109 -195 9 -14 38 -74 64 -135 26 -60 52 -118
57 -127 6 -10 10 -22 10 -28 0 -6 9 -29 19 -53 20 -43 64 -182 96 -297 9 -36
20 -72 23 -80 3 -8 4 -19 3 -23 -1 -5 4 -27 10 -50 13 -48 27 -127 33 -179 2
-21 7 -50 10 -65 11 -50 24 -190 25 -271 1 -24 5 -31 14 -26 9 6 9 4 1 -7 -7
-9 -10 -45 -7 -99 4 -101 4 -84 -1 -195 -5 -104 -16 -249 -21 -285 -2 -14 -6
-45 -9 -70 -3 -25 -8 -56 -11 -70 -3 -14 -8 -41 -11 -60 -16 -106 -18 -117
-27 -140 -3 -8 -8 -31 -11 -50 -5 -38 -67 -267 -85 -313 -6 -16 -9 -32 -6 -37
3 -5 2 -10 -3 -12 -4 -1 -18 -32 -31 -68 -61 -171 -180 -431 -260 -570 -18
-30 -35 -63 -38 -72 -3 -10 -9 -18 -14 -18 -5 0 -9 -6 -9 -12 0 -11 -40 -77
-67 -113 -5 -5 -21 -30 -37 -55 -32 -50 -182 -250 -218 -291 -13 -15 -41 -48
-63 -75 -132 -158 -308 -328 -481 -464 -11 -8 -40 -31 -64 -51 -48 -38 -264
-185 -315 -213 -16 -9 -57 -33 -90 -52 -78 -46 -257 -132 -369 -178 -94 -39
-335 -122 -376 -129 -14 -3 -45 -10 -70 -17 -25 -7 -52 -14 -60 -15 -8 -2 -36
-8 -63 -14 -26 -6 -64 -14 -85 -17 -20 -4 -44 -8 -52 -9 -8 -2 -40 -6 -70 -10
-30 -4 -66 -9 -80 -11 -119 -19 -413 -22 -910 -9 -448 12 -802 8 -1035 -10
-139 -12 -191 -16 -205 -20 -8 -2 -44 -7 -80 -10 -36 -4 -81 -10 -100 -15 -19
-5 -51 -11 -70 -14 -77 -12 -241 -57 -347 -94 -216 -78 -371 -171 -508 -307
-80 -79 -125 -130 -125 -141 0 -3 -11 -20 -24 -37 -20 -28 -86 -143 -85 -150
1 -4 -20 -56 -42 -105 -52 -115 -68 -151 -92 -207 -14 -33 -28 -67 -31 -75 -3
-8 -10 -22 -15 -30 -5 -8 -18 -35 -29 -60 -86 -194 -313 -630 -457 -881 -41
-72 -75 -133 -75 -135 0 -3 -5 -10 -10 -17 -19 -22 -90 -137 -84 -137 2 0 0
-6 -6 -13 -6 -6 -30 -41 -53 -77 -88 -138 -197 -305 -205 -315 -5 -6 -17 -24
-28 -40 -10 -17 -21 -32 -24 -35 -4 -3 -21 -27 -40 -55 -19 -27 -67 -94 -107
-148 -40 -54 -73 -100 -73 -103 0 -2 -9 -14 -19 -26 -21 -25 -171 -218 -199
-256 -9 -13 -27 -34 -39 -48 -12 -13 -34 -41 -50 -61 -15 -21 -30 -40 -33 -43
-5 -5 -156 -182 -190 -223 -8 -10 -26 -31 -40 -46 -14 -15 -52 -57 -85 -95
-33 -37 -78 -87 -100 -111 -22 -23 -71 -76 -109 -116 -242 -261 -609 -618
-780 -757 -115 -94 -446 -324 -521 -362 -17 -8 -45 -25 -64 -37 -63 -42 -436
-221 -587 -282 -281 -113 -618 -217 -925 -287 -146 -33 -127 -29 -314 -63
-164 -30 -211 -38 -279 -46 -22 -3 -51 -7 -65 -9 -71 -12 -182 -26 -231 -31
-30 -2 -75 -7 -100 -9 -80 -8 -204 -19 -250 -22 -25 -1 -94 -6 -155 -10 -238
-16 -1144 -8 -1290 11 -16 2 -70 7 -120 10 -125 8 -259 22 -420 45 -178 24
-427 66 -566 95 -376 76 -897 241 -1197 376 -162 73 -291 139 -411 206 -75 43
-140 80 -145 82 -34 14 -372 248 -416 287 -8 8 -51 43 -95 80 -221 182 -681
639 -976 968 -24 27 -53 59 -64 71 -76 81 -105 115 -105 124 0 6 -4 11 -8 11
-10 0 -195 215 -201 233 -2 6 -12 18 -21 27 -18 15 -153 185 -259 325 -17 22
-37 47 -45 55 -8 8 -20 27 -27 43 -7 15 -15 27 -19 27 -3 0 -31 35 -60 78 -30
42 -58 78 -62 80 -4 2 -8 8 -8 13 0 9 -38 68 -51 79 -18 16 -127 189 -122 194
4 3 2 6 -4 6 -11 0 -123 174 -123 190 0 5 -3 10 -7 12 -13 5 -253 409 -253
424 0 2 -11 22 -25 44 -14 22 -25 46 -25 54 0 8 -4 16 -9 18 -11 4 -155 292
-264 528 -46 98 -135 311 -182 430 -20 52 -40 104 -45 115 -5 11 -18 47 -30
80 -13 33 -26 69 -31 80 -19 48 -89 254 -89 264 0 6 -4 19 -10 29 -5 9 -21 55
-36 102 -47 155 -86 285 -89 303 -2 9 -7 22 -10 27 -3 5 -8 18 -10 28 -2 10
-20 79 -40 153 -21 74 -39 145 -42 158 -2 13 -8 32 -14 43 -5 10 -8 18 -5 18
2 0 0 17 -6 38 -5 20 -13 53 -18 72 -4 19 -11 44 -13 55 -3 11 -15 63 -27 115
-12 52 -24 104 -26 115 -3 11 -8 34 -11 50 -8 45 -11 60 -13 60 -2 0 -5 15
-19 90 -6 33 -13 71 -16 85 -14 66 -26 127 -30 150 -2 14 -9 50 -15 80 -6 30
-13 64 -14 75 -2 11 -6 34 -9 50 -4 17 -9 46 -11 65 -2 19 -7 46 -10 60 -9 39
-16 81 -21 125 -3 22 -7 51 -10 65 -6 29 -36 223 -40 260 -2 14 -5 39 -8 55
-3 17 -8 53 -11 80 -4 28 -8 61 -11 75 -2 14 -7 47 -10 75 -3 27 -8 51 -10 54
-3 2 1 11 8 19 8 11 9 14 0 9 -7 -5 -12 -1 -11 10 0 10 -2 36 -5 58 -11 76
-21 170 -21 207 -1 21 -4 38 -7 38 -3 0 -6 6 -6 13 -1 24 -13 153 -18 192 -10
81 -20 185 -29 295 -3 36 -8 81 -10 100 -3 19 -8 71 -11 115 -3 44 -7 96 -9
115 -2 19 -7 76 -11 125 -3 50 -8 111 -10 136 -2 25 -7 88 -10 140 -3 52 -8
123 -10 159 -3 36 -7 106 -10 155 -2 50 -5 90 -5 90 -1 0 -9 133 -15 255 -3
58 -7 139 -10 180 -2 41 -7 145 -10 230 -3 85 -8 198 -10 250 -9 207 -21 585
-30 955 -13 574 -15 703 -19 1433 -3 414 -8 757 -11 762 -3 6 -3 10 2 10 7 0
8 80 1 178 -2 23 -1 42 2 42 3 0 5 15 6 33 1 37 10 85 26 142 6 22 12 45 14
52 3 15 98 210 116 238 80 124 229 295 348 399 132 115 344 264 540 379 102
61 475 248 577 291 383 160 755 293 1128 401 50 14 97 28 105 31 122 35 653
167 760 188 14 3 124 25 245 50 121 25 234 47 250 50 17 3 39 8 50 10 11 2 40
7 65 11 56 9 72 12 135 25 28 5 73 12 100 15 28 3 57 8 65 10 8 2 33 7 55 10
23 3 50 7 60 9 11 2 45 7 75 11 30 4 64 9 75 11 10 2 37 6 60 9 22 3 47 8 55
10 8 2 38 7 65 10 28 3 82 9 120 15 39 5 90 12 115 15 25 3 61 7 80 10 19 2
55 7 80 9 25 3 83 10 130 15 79 10 135 15 250 26 41 4 105 9 220 20 25 2 73 7
108 10 34 3 88 7 120 10 137 12 163 14 272 20 63 4 135 8 160 10 74 6 259 16
360 20 52 2 183 6 290 10 107 4 197 8 199 10 5 6 1342 -2 1451 -8z"/>
<path d="M4235 19643 c-22 -9 -42 -19 -45 -23 -3 -3 -32 -21 -65 -39 -142 -79
-309 -205 -421 -316 -50 -50 -144 -169 -144 -183 0 -6 -3 -12 -7 -14 -8 -3
-68 -117 -68 -128 0 -3 -3 -9 -6 -15 -4 -5 -10 -23 -14 -40 -5 -16 -9 -34 -11
-40 -18 -69 -23 -214 -10 -290 14 -77 57 -200 86 -245 9 -14 34 -52 56 -85 73
-112 266 -291 414 -385 30 -19 57 -37 60 -40 3 -4 34 -22 70 -42 36 -19 88
-48 115 -63 28 -15 55 -30 60 -34 6 -4 35 -18 65 -31 30 -12 86 -37 125 -55
187 -85 405 -165 700 -255 132 -41 466 -130 535 -144 14 -2 63 -13 110 -24 95
-23 230 -51 425 -88 180 -34 187 -35 210 -38 24 -4 101 -17 130 -22 11 -3 49
-9 85 -14 36 -5 74 -11 85 -14 11 -2 43 -7 70 -10 28 -4 61 -9 75 -11 115 -18
253 -37 290 -41 25 -3 56 -6 70 -9 14 -2 52 -7 85 -10 33 -3 76 -8 95 -10 234
-28 294 -34 505 -50 44 -3 96 -8 115 -10 19 -2 71 -7 115 -10 44 -4 98 -9 120
-10 22 -2 87 -7 145 -10 58 -3 132 -8 165 -10 33 -3 125 -7 205 -10 80 -4 177
-8 215 -10 438 -23 1572 -23 1945 0 30 2 127 6 215 10 238 11 438 22 515 30
19 2 76 6 125 10 50 3 101 8 115 10 14 2 66 6 115 10 50 3 101 8 115 10 14 2
61 6 105 10 44 3 91 8 105 10 14 2 52 6 85 10 33 3 94 10 135 15 41 5 100 12
130 15 91 10 282 36 369 50 13 2 45 7 70 11 25 3 57 8 71 10 14 2 41 7 60 10
19 3 46 7 60 10 14 2 41 7 60 10 19 3 42 7 50 9 8 2 35 7 60 10 25 3 56 8 70
10 14 3 36 7 50 10 357 66 749 154 1015 229 6 1 30 8 55 15 25 6 56 16 70 20
14 5 66 21 115 36 159 48 446 152 550 199 28 13 79 36 115 52 36 15 112 53
170 83 58 30 119 61 135 69 17 9 51 31 77 49 26 18 51 33 55 33 3 0 49 32 102
71 143 107 294 266 361 380 53 89 96 194 103 249 1 14 5 30 8 35 8 13 4 179
-5 230 -30 174 -120 329 -286 495 -64 64 -215 185 -285 227 -224 136 -250 147
-330 141 -142 -12 -228 -110 -229 -260 0 -36 25 -108 37 -108 6 0 8 -3 4 -6
-10 -10 58 -71 105 -95 94 -47 274 -176 347 -248 65 -64 132 -154 137 -183 1
-5 2 -9 4 -10 5 -7 10 -47 11 -84 1 -44 -38 -136 -72 -173 -11 -11 -19 -23
-19 -25 0 -10 -116 -116 -175 -161 -56 -43 -124 -85 -135 -85 -6 0 -10 -4 -10
-8 0 -5 -19 -17 -42 -28 -24 -10 -49 -25 -57 -32 -11 -11 -17 -10 -35 2 -212
138 -304 191 -489 279 -160 77 -485 206 -632 251 -66 21 -131 41 -145 46 -173
64 -674 189 -1060 265 -98 19 -379 68 -455 80 -22 3 -47 7 -55 10 -8 2 -42 7
-75 10 -32 4 -62 8 -65 10 -3 1 -32 6 -65 10 -32 3 -62 8 -65 10 -3 1 -36 6
-75 9 -38 4 -77 9 -85 11 -8 2 -40 6 -70 10 -30 3 -91 9 -135 15 -77 9 -146
16 -250 25 -27 2 -75 7 -105 10 -30 3 -80 8 -110 10 -30 2 -77 6 -105 9 -27 3
-90 7 -140 11 -49 3 -115 8 -145 10 -30 3 -111 7 -180 10 -69 2 -177 7 -240
10 -404 21 -1199 21 -1605 0 -55 -2 -152 -7 -215 -10 -110 -5 -242 -13 -340
-20 -171 -13 -224 -17 -239 -20 -9 -2 -61 -6 -116 -10 -55 -4 -107 -9 -115
-10 -8 -2 -49 -6 -90 -9 -88 -8 -84 -8 -355 -41 -27 -4 -68 -8 -90 -11 -52 -6
-82 -10 -125 -18 -19 -3 -53 -8 -75 -11 -22 -3 -51 -7 -65 -10 -14 -2 -43 -7
-65 -10 -134 -19 -384 -63 -622 -111 -13 -2 -33 -6 -45 -8 -119 -22 -577 -131
-618 -147 -14 -5 -36 -11 -50 -14 -110 -21 -655 -205 -785 -265 -11 -5 -49
-21 -85 -35 -96 -39 -323 -151 -420 -208 -96 -56 -222 -138 -231 -150 -7 -10
-160 78 -261 150 -65 47 -164 142 -216 207 -32 40 -62 123 -62 171 0 131 156
306 410 461 36 21 76 44 90 50 77 34 139 124 144 210 5 75 -9 120 -52 173 -67
82 -189 113 -287 74z"/>
<path d="M20107 15744 c-1 -1 -47 -5 -102 -9 -136 -10 -233 -21 -265 -30 -8
-2 -31 -7 -50 -10 -19 -3 -48 -8 -65 -11 -16 -3 -55 -12 -85 -20 -30 -8 -64
-17 -74 -19 -29 -7 -147 -46 -181 -60 -16 -7 -52 -21 -80 -30 -62 -22 -269
-124 -350 -173 -119 -72 -335 -235 -335 -253 0 -5 -5 -9 -11 -9 -13 0 -174
-161 -240 -240 -103 -122 -248 -344 -256 -390 -1 -8 -5 -51 -8 -95 -8 -112 -9
-119 -30 -305 -3 -25 -7 -64 -10 -88 -2 -23 -7 -47 -10 -52 -3 -6 -1 -10 5
-10 7 0 8 -6 2 -17 -5 -10 -12 -47 -16 -83 -3 -36 -9 -87 -13 -115 -4 -27 -7
-67 -7 -87 -1 -21 -3 -38 -6 -38 -3 0 -6 -8 -6 -17 -1 -21 -12 -127 -18 -163
-3 -14 -7 -50 -11 -81 -3 -31 -7 -65 -9 -76 -3 -11 -7 -46 -10 -78 -4 -32 -9
-72 -11 -89 -3 -17 -7 -47 -9 -66 -5 -44 -15 -114 -21 -160 -10 -68 -15 -105
-20 -150 -2 -25 -6 -54 -9 -66 -2 -12 -7 -45 -11 -75 -3 -30 -10 -80 -15 -113
-5 -32 -9 -61 -8 -65 0 -3 -1 -8 -2 -11 -2 -6 -4 -23 -14 -105 -4 -33 -9 -67
-11 -75 -2 -8 -7 -40 -10 -70 -3 -30 -7 -66 -9 -80 -3 -14 -10 -63 -16 -110
-6 -47 -13 -96 -15 -110 -2 -14 -7 -50 -10 -80 -4 -30 -9 -63 -11 -74 -2 -10
-6 -44 -9 -75 -4 -31 -9 -67 -11 -81 -16 -84 -10 -93 41 -62 60 37 272 109
370 127 17 2 39 7 50 9 11 2 45 7 75 11 30 4 64 9 75 11 65 12 245 19 495 19
255 -1 380 -5 575 -20 279 -22 459 -29 675 -29 227 0 245 1 435 39 654 130
1213 517 1563 1082 27 45 53 91 57 102 3 12 11 21 17 21 6 0 9 3 5 6 -3 4 4
25 16 48 24 43 82 176 93 211 2 6 12 37 24 70 11 32 22 68 24 80 2 11 9 32 14
46 6 15 8 30 5 33 -4 3 -1 6 6 6 7 0 10 4 7 8 -3 5 3 46 13 93 18 82 31 174
34 234 0 17 6 33 12 37 6 5 6 8 -2 8 -7 0 -10 7 -7 15 9 22 10 215 2 228 -4 6
-2 19 3 29 5 10 6 18 1 18 -5 0 -9 17 -9 38 -1 43 -9 115 -23 192 -6 30 -13
69 -16 85 -5 33 -12 56 -44 160 -166 537 -572 935 -1150 1129 -129 43 -320 87
-440 101 -30 4 -57 8 -60 10 -15 9 -463 27 -473 19z m353 -999 c36 -4 67 -8
70 -10 3 -2 26 -6 52 -9 124 -17 314 -89 420 -160 65 -43 144 -119 184 -178
16 -24 31 -45 34 -48 14 -13 71 -162 84 -221 26 -116 37 -300 22 -389 -2 -14
-7 -43 -10 -65 -3 -22 -10 -55 -15 -72 -5 -18 -7 -33 -4 -33 3 0 0 -7 -7 -15
-7 -8 -10 -15 -6 -15 10 0 -35 -112 -91 -225 -30 -60 -90 -152 -143 -219 -34
-44 -170 -175 -226 -217 -183 -141 -411 -239 -639 -276 -86 -14 -408 -8 -685
12 -148 11 -459 27 -580 30 -58 2 -110 3 -116 4 -6 1 -10 13 -8 29 2 15 6 50
9 77 3 28 8 61 10 75 2 14 7 45 10 70 3 25 8 56 10 70 2 14 7 50 11 80 3 30 7
64 9 75 5 36 18 140 20 165 2 14 4 25 5 25 1 0 3 18 5 40 4 48 13 127 20 175
3 19 8 55 10 80 3 25 7 59 9 75 2 17 6 55 10 85 3 30 9 78 11 105 3 28 8 70
11 95 3 25 7 59 9 75 1 17 4 30 4 30 1 0 3 26 5 57 3 49 8 64 41 105 114 141
285 278 462 368 143 73 388 140 553 152 41 3 76 6 77 7 6 5 293 -2 353 -9z"/>
</g>
</svg>
