<?xml version="1.0" encoding="utf-8"?>
<!-- Generator: Adobe Illustrator 16.0.0, SVG Export Plug-In . SVG Version: 6.00 Build 0)  -->
<!DOCTYPE svg PUBLIC "-//W3C//DTD SVG 1.1//EN" "http://www.w3.org/Graphics/SVG/1.1/DTD/svg11.dtd">
<svg version="1.1" id="d6af144a-e925-4ddf-847c-b38e3205da29"
	 xmlns="http://www.w3.org/2000/svg" xmlns:xlink="http://www.w3.org/1999/xlink" x="0px" y="0px" width="903.77px"
	 height="657.14px" viewBox="0 0 903.77 657.14" enable-background="new 0 0 903.77 657.14" xml:space="preserve">
<title>eating_together</title>
<ellipse opacity="0.1" enable-background="new    " cx="63.87" cy="514.57" rx="45" ry="16"/>
<ellipse opacity="0.1" enable-background="new    " cx="790.85" cy="580.72" rx="45" ry="16"/>
<path opacity="0.1" enable-background="new    " d="M532.89,18.43c-68.48,26.45-142.71,27.68-211.66,2.78
	C223.51-14.07,95.89-23.1,48.6,138.57c-80.71,276.211,84.41,374.801,84.41,374.801s115.28,25.84,179.108,72.529
	c90.67,66.32,201.71,88.49,306.312,57.391c66.89-19.891,124.22-52.521,140.609-105.91c45.841-149.319,16.739-239.069,99.699-278.439
	s36.801-185.22-22.199-188.53c-59-3.31-198,30.52-241-36.77C580.21,9.75,556.76,9.2,532.89,18.43z"/>
<path fill="none" stroke="#535461" stroke-width="2" stroke-miterlimit="10" d="M789.03,582.99c0,0,12-40.84-2.26-70.9
	c-6.073-12.566-7.904-26.77-5.22-40.469c1.325-6.496,3.243-12.855,5.729-19"/>
<path fill="#3498DB" d="M778.4,433.63c0,5,9.062,19.52,9.062,19.52s9.06-14.51,9.06-19.52c0-5.006-4.059-9.064-9.065-9.064
	c-5.006,0-9.063,4.059-9.063,9.064H778.4z"/>
<path fill="#3498DB" d="M763.42,461.361c2.72,4.199,18.22,11.459,18.22,11.459s-0.28-17.109-3-21.311
	c-2.72-4.199-8.33-5.398-12.53-2.68c-4.2,2.721-5.398,8.33-2.68,12.531H763.42L763.42,461.361z"/>
<path fill="#3498DB" d="M764.07,508.73c4.47,2.25,21.51,0.699,21.51,0.699s-8.88-14.629-13.35-16.879
	c-4.468-2.254-9.917-0.459-12.17,4.01S759.602,506.476,764.07,508.73L764.07,508.73z"/>
<path fill="#3498DB" d="M772.64,544.47c4,3,21.08,4.32,21.08,4.32s-6.28-15.92-10.3-18.891c-4.023-2.979-9.698-2.131-12.677,1.895
	C767.768,535.818,768.615,541.494,772.64,544.47L772.64,544.47z"/>
<path fill="#3498DB" d="M800.658,473.791c-3.59,3.49-20.318,7.1-20.318,7.1s4.1-16.607,7.688-20.1
	c3.59-3.488,9.327-3.406,12.815,0.184C804.331,464.564,804.248,470.302,800.658,473.791z"/>
<path fill="#3498DB" d="M810.15,515.701c-4.47,2.25-21.51,0.699-21.51,0.699s8.88-14.629,13.35-16.83
	c4.468-2.254,9.917-0.457,12.17,4.01c2.254,4.469,0.458,9.918-4.01,12.17V515.701L810.15,515.701z"/>
<path fill="#3498DB" d="M813.78,557.71c-4,3-21.08,4.32-21.08,4.32s6.28-15.92,10.302-18.893c4.021-2.977,9.696-2.129,12.675,1.896
	C818.652,549.058,817.803,554.734,813.78,557.71z"/>
<path fill="none" stroke="#535461" stroke-width="2" stroke-miterlimit="10" d="M63.89,514.691c0,0,25.69-87.121-4.8-151.32
	c-12.8-26.931-17-57.149-11.13-86.371c2.83-13.858,6.924-27.429,12.229-40.54"/>
<path fill="#3498DB" d="M41.22,195.91c0,10.68,19.34,41.66,19.34,41.66s19.33-31,19.33-41.66
	c0.007-10.681-8.646-19.346-19.327-19.353c-10.682-0.007-19.346,8.646-19.353,19.327c0,0.009,0,0.017,0,0.025L41.22,195.91
	L41.22,195.91z"/>
<path fill="#3498DB" d="M9.25,255.08c5.81,9,38.88,24.46,38.88,24.46s-0.602-36.52-6.41-45.48
	c-6.012-8.829-18.042-11.113-26.871-5.101C6.315,234.771,3.85,246.26,9.25,255.06V255.08z"/>
<path fill="#3498DB" d="M10.64,356.201c9.54,4.809,45.91,1.489,45.91,1.489s-19-31.22-28.49-36
	c-9.538-4.811-21.169-0.978-25.979,8.56c-4.812,9.539-0.979,21.17,8.56,25.98l0,0L10.64,356.201L10.64,356.201z"/>
<path fill="#3498DB" d="M28.89,432.47c8.59,6.35,45,9.221,45,9.221s-13.398-34.001-22-40.32c-8.588-6.352-20.698-4.539-27.05,4.049
	C18.488,414.007,20.302,426.119,28.89,432.47L28.89,432.47z"/>
<path fill="#3498DB" d="M88.74,281.57c-7.66,7.44-43.36,15.15-43.36,15.15s8.74-35.46,16.398-42.9
	c7.663-7.456,19.921-7.288,27.375,0.375c7.456,7.663,7.288,19.919-0.375,27.375l0,0H88.74z"/>
<path fill="#3498DB" d="M108.99,371.08c-9.54,4.812-45.91,1.49-45.91,1.49s19-31.22,28.488-36c9.538-4.811,21.17-0.979,25.98,8.561
	c4.811,9.537,0.978,21.17-8.561,25.979l0,0v-0.03H108.99z"/>
<path fill="#3498DB" d="M116.74,460.74c-8.592,6.35-45,9.221-45,9.221s13.398-34,22-40.32c8.588-6.352,20.697-4.539,27.05,4.053
	C127.141,442.279,125.328,454.388,116.74,460.74L116.74,460.74z"/>
<path fill="#3498DB" d="M379.15,299.79l-55.729-7.22c-2.262-0.29-4-1.15-3.94-1.9l0,0c0.1-0.75,2-1.1,4.31-0.77l55.61,8.05
	c1.53,0.22,2.69,0.8,2.62,1.31l0,0C381.948,299.74,380.67,299.99,379.15,299.79z"/>
<path fill="#3498DB" d="M379.5,300.74l-55.9-5.78c-2.271-0.23-4.2,0.19-4.271,0.94l0,0c-0.068,0.75,1.74,1.54,4,1.74l56,5
	c1.54,0.14,2.802-0.16,2.852-0.67l0,0C382.22,301.43,381.03,300.9,379.5,300.74z"/>
<path fill="#3498DB" d="M463.36,342.791l55.72-7.221c2.262-0.29,4-1.15,3.94-1.9l0,0c-0.1-0.75-2-1.1-4.311-0.77l-55.609,8.051
	c-1.53,0.219-2.69,0.799-2.62,1.309l0,0C460.55,342.74,461.828,342.99,463.36,342.791z"/>
<path fill="#3498DB" d="M463,343.74l55.898-5.779c2.271-0.229,4.2,0.189,4.271,0.939l0,0c0.068,0.75-1.74,1.54-4,1.74l-56,5
	c-1.54,0.141-2.802-0.16-2.852-0.67l0,0C460.28,344.43,461.47,343.9,463,343.74z"/>
<rect x="265.44" y="402.64" fill="#40414D" width="13.59" height="194.859"/>
<rect x="562.26" y="402.64" fill="#40414D" width="13.59" height="194.859"/>
<path fill="#DFE6F5" d="M260.25,386.78h314c12.148,0,22,9.851,22,22v2.921l0,0h-358l0,0v-2.921
	C238.25,396.63,248.1,386.78,260.25,386.78z"/>
<path opacity="0.1" enable-background="new    " d="M259.25,386.78h314c12.148,0,22,9.851,22,22v2.921l0,0h-358l0,0v-2.921
	C237.25,396.63,247.1,386.78,259.25,386.78z"/>
<path fill="#DFE6F5" d="M260.25,382.24h314c12.148,0,22,9.85,22,22v2.92l0,0h-358l0,0v-2.92
	C238.25,392.089,248.1,382.24,260.25,382.24z"/>
<circle fill="#FFD77C" stroke="#FFAB50" stroke-miterlimit="10" cx="417.25" cy="339.19" r="27.19"/>
<circle fill="#FFD77C" stroke="#FFAB50" stroke-miterlimit="10" cx="417.25" cy="339.19" r="21.55"/>
<circle fill="#FFD77C" stroke="#FFAB50" stroke-miterlimit="10" cx="417.25" cy="339.19" r="16.42"/>
<circle fill="#FFD77C" stroke="#FFAB50" stroke-miterlimit="10" cx="417.25" cy="339.19" r="9.229"/>
<circle fill="#FFD77C" stroke="#FFAB50" stroke-miterlimit="10" cx="401.39" cy="353.92" r="27.19"/>
<circle fill="#FFD77C" stroke="#FFAB50" stroke-miterlimit="10" cx="401.39" cy="353.92" r="21.55"/>
<circle fill="#FFD77C" stroke="#FFAB50" stroke-miterlimit="10" cx="401.39" cy="353.919" r="16.42"/>
<circle fill="#FFD77C" stroke="#FFAB50" stroke-miterlimit="10" cx="401.39" cy="353.92" r="9.23"/>
<circle fill="#FFD77C" stroke="#FFAB50" stroke-miterlimit="10" cx="433.11" cy="353.92" r="27.19"/>
<circle fill="#FFD77C" stroke="#FFAB50" stroke-miterlimit="10" cx="433.11" cy="353.92" r="21.55"/>
<circle fill="#FFD77C" stroke="#FFAB50" stroke-miterlimit="10" cx="433.11" cy="353.919" r="16.42"/>
<circle fill="#FFD77C" stroke="#FFAB50" stroke-miterlimit="10" cx="433.11" cy="353.92" r="9.23"/>
<path fill="#3498DB" d="M360.6,346h113.29l0,0v5.32c0,22.092-17.909,40-40,40H400.6c-22.092,0-40-17.908-40-40V346L360.6,346z"/>
<path opacity="0.1" enable-background="new    " d="M463.67,345.99c-0.613,24.574-20.709,44.178-45.29,44.18h-22.49
	c3.28,0.75,6.635,1.133,10,1.142h22.66c25.028,0.012,45.329-20.271,45.34-45.3c0-0.008,0-0.014,0-0.021H463.67z"/>
<rect x="274.5" y="551.05" fill="#40414D" width="294.56" height="13.59"/>
<rect x="152.17" y="503.589" fill="#40414D" width="11.89" height="108.182"/>
<rect x="246.08" y="503.589" fill="#40414D" width="11.89" height="108.182"/>
<path fill="#F6C6CD" d="M267.49,485.759c0,7.221-24.479,13.08-54.68,13.08s-53.49-5.85-53.49-13.08c0-7.229,23.29-13.08,53.49-13.08
	S267.49,478.57,267.49,485.759z"/>
<path fill="#40414D" d="M142.66,485.75H267.48l0,0v10.9c0,5.799-4.701,10.5-10.5,10.5l0,0H160.66c-9.941,0-18-8.059-18-18V485.75
	L142.66,485.75z"/>
<path fill="#40414D" d="M121.463,360.669l2.575-0.58c3.771-0.853,7.519,1.516,8.369,5.287l31.175,138.105l0,0l-3.902,0.881
	c-6.82,1.539-13.597-2.742-15.137-9.564l-28.387-125.756c-0.852-3.771,1.516-7.518,5.286-8.369
	C121.45,360.673,121.456,360.671,121.463,360.669z"/>
<rect x="672.43" y="505.509" fill="#40414D" width="11.89" height="108.182"/>
<rect x="578.52" y="505.509" fill="#40414D" width="11.89" height="108.182"/>
<path fill="#F6C6CD" d="M569.02,487.679c0,7.221,24.48,13.08,54.68,13.08c30.2,0,53.49-5.85,53.49-13.08
	c0-7.229-23.3-13.109-53.49-13.109C593.51,474.57,569.02,480.46,569.02,487.679z"/>
<path fill="#40414D" d="M675.828,509.08H579.51c-5.799,0-10.5-4.701-10.5-10.5v-10.9l0,0h124.818l0,0v3.4
	C693.828,501.021,685.771,509.08,675.828,509.08z"/>
<path fill="#40414D" d="M676.826,506.281l-3.901-0.881l0,0l31.179-138.124c0.852-3.771,4.599-6.138,8.369-5.286l2.575,0.58
	c3.771,0.852,6.139,4.6,5.287,8.37l-28.392,125.776C690.406,503.529,683.643,507.808,676.826,506.281z"/>
<path fill="#B8616E" d="M601.89,561.919c0,0,2.648,29.17-10.61,32.711c-13.26,3.539-0.88,17.68,9.722,15
	c10.6-2.68,49.51-16.801,52.158-38c2.65-21.201-26.52-28.291-26.52-28.291L601.89,561.919z"/>
<path opacity="0.05" enable-background="new    " d="M601.89,561.919c0,0,2.648,29.17-10.61,32.711
	c-13.26,3.539-0.88,17.68,9.722,15c10.6-2.68,49.51-16.801,52.158-38c2.65-21.201-26.52-28.291-26.52-28.291L601.89,561.919z"/>
<path fill="#B8616E" d="M607.22,562.8c0,0,2.648,29.17-10.61,32.709c-13.26,3.541-0.88,17.682,9.72,15
	c10.602-2.68,49.512-16.799,52.16-38c2.65-21.199-26.52-28.289-26.52-28.289L607.22,562.8z"/>
<path opacity="0.1" enable-background="new    " d="M634.618,545.121l-24.729,18.57c0,0,0.11,1.26,0.18,3.27
	c9.34-2.561,29.69-9.361,30-20C638.291,546.238,636.472,545.625,634.618,545.121z"/>
<rect x="608.538" y="290.95" fill="#F8BDC5" width="10.61" height="7.96"/>
<path fill="#758AC8" d="M608.99,419.57c0,0-16.85,13.24-30.688,16.381c-8.229,1.779-16.206,4.57-23.75,8.309l-31.83,16.184
	c-5.874,2.953-9.846,8.689-10.54,15.229c-0.91,9,2.71,20.84,24.31,27.881l68.07,56.58l21.22-17.68l-72.49-55.68l55.7-34.48
	L608.99,419.57L608.99,419.57z"/>
<path opacity="0.1" enable-background="new    " d="M608.99,419.57c0,0-16.85,13.24-30.688,16.381
	c-8.229,1.779-16.206,4.57-23.75,8.309l-31.83,16.184c-5.874,2.953-9.846,8.689-10.54,15.229c-0.91,9,2.71,20.84,24.31,27.881
	l68.07,56.58l21.22-17.68l-72.49-55.68l55.7-34.48L608.99,419.57L608.99,419.57z"/>
<path fill="#F8BDC5" d="M599.26,360.35c0,0-32.71,0.88-55.7-16.8c-22.99-17.68-48.62-12.381-43.32-1.77
	c5.3,10.608,32.71,19.448,37.13,20.328c4.42,0.881,68.07,18.57,68.07,18.57L599.26,360.35z"/>
<path opacity="0.05" enable-background="new    " d="M599.26,360.35c0,0-32.71,0.88-55.7-16.8c-22.99-17.68-48.62-12.381-43.32-1.77
	c5.3,10.608,32.71,19.448,37.13,20.328c4.42,0.881,68.07,18.57,68.07,18.57L599.26,360.35z"/>
<path fill="#758AC8" d="M602.8,411.63l-10.61,31.83c0,0-59.67,36.689-64.54,41.549c-3.78,3.781-8.84,18.57,8.84,30.941
	c17.682,12.369,66.3,51.279,66.3,51.279s37.132-8,34.48-23l-61-44.199c0,0,26.52-23,53.93-19.451
	c27.41,3.551,31.83-1.771,31.83-1.771s21.222-21.238,14.142-41.537C669.09,416.97,602.8,411.63,602.8,411.63z"/>
<path fill="#F8BDC5" d="M589.538,267.57c0,0,30.062,32.71,28.29,42.43c-1.77,9.72,23.87-28.29,23.87-28.29s-8-19.45-6.188-40.67
	L589.538,267.57z"/>
<path opacity="0.1" enable-background="new    " d="M615.77,297.57c2.051-2.165,4.21-4.224,6.47-6.17
	c4.523-3.709,8.674-7.853,12.392-12.37c6.188-8,29.17,26.52,29.17,26.52s14.14,15.91,12.38,53.93c-1.76,38.02,2.21,88.85,2.21,88.85
	l-5.352,1.49c-9.136,3.049-19.174,1.623-27.1-3.85c-7.06-4.881-16-10-22.8-10.461c-13.26-0.879-25.2-8.398-25.2-8.398
	s5.75-13.701-3.09-57.91c-8.84-44.211,13.688-75.631,13.688-75.631S610.32,303.19,615.77,297.57z"/>
<path fill="#348CDB" d="M681.48,444.339l-5.3,1.771l-3.15,1.049c-9.136,3.051-19.175,1.625-27.1-3.852
	c-7.05-4.867-16-10-22.8-10.461c-13.24-0.889-28.24-10.607-28.24-10.607s8.84-11.49,0-55.699c-8.84-44.21,13.7-75.59,13.7-75.59
	s1.778,9.57,7.229,3.94c2.047-2.163,4.202-4.219,6.46-6.16c4.523-3.709,8.674-7.853,12.392-12.37c6.188-8,29.17,26.52,29.17,26.52
	s14.14,15.91,12.38,53.93c-0.19,4-0.271,8.12-0.28,12.29C675.81,404.68,681.48,444.339,681.48,444.339z"/>
<path opacity="0.1" enable-background="new    " d="M631.09,357.701l0.88,19.449c0,0-46.86,2.65-56.58-7.07
	c-9.72-9.72,26.5,28.59,34.5,30.94c7.51,2.21,26.898,4.16,37.07,4.36c5.936,0.19,11.425-3.139,14-8.49
	c1.185-2.578,1.567-5.452,1.1-8.25c-1.771-11.49,0-36.25,0-36.25L631.09,357.701z"/>
<path fill="#F8BDC5" d="M631.09,355.93l0.88,19.45c0,0-46.86,2.648-56.58-7.07c-9.72-9.721-44.89-7.57-44.2,0
	c0.44,4.859,23.87,20.33,38,21.22s32.7,7.37,40.7,9.72c7.51,2.211,26.898,4.16,37.07,4.36c5.936,0.19,11.425-3.138,14-8.489
	c1.185-2.578,1.567-5.453,1.1-8.25c-1.771-11.49,0-36.25,0-36.25L631.09,355.93z"/>
<path opacity="0.1" enable-background="new    " d="M641.698,299.35c0,0-20.33,2.65-17.68,32.71c2.65,30.061,6.19,32.71,6.19,32.71
	s30.06-2.649,33.59-3.54c3.529-0.891,1.77-33.59,1.77-33.59S664.68,298.47,641.698,299.35z"/>
<path fill="#3498DB" d="M641.698,298.47c0,0-20.33,2.65-17.68,32.71c2.65,30.06,6.19,32.71,6.19,32.71s30.06-2.65,33.59-3.54
	c3.529-0.89,1.77-33.59,1.77-33.59S664.68,297.57,641.698,298.47z"/>
<path opacity="0.1" enable-background="new    " d="M634.18,260.01c-1.392-7,1.46-9.16,2.21-18.12l-46,26.52
	c0,0,5.27,5.74,11.26,13.11c2.677,0.677,5.429,1.013,8.19,1C621.89,282.57,628.48,269.63,634.18,260.01z"/>
<circle fill="#F8BDC5" cx="608.98" cy="248.96" r="32.71"/>
<path opacity="0.1" enable-background="new    " d="M617.23,239.03c-5,3.18-5.07,10.37-1.85,15.35c3.22,4.98,8.77,8.27,14.108,11.37
	c1.55,0.9,3.262,1.83,5,1.63c1.338-0.261,2.577-0.887,3.58-1.81c3.737-2.916,7.303-6.044,10.682-9.37
	c4.858-4.78,9.528-10.67,8.77-17.34c-0.86-7.57-8.34-13.27-11.36-20.44c-2.54-6-1.778-12.73-4-18.86c-2.22-6.13-10-11.8-15.818-8.59
	c-2.15,1.18-3.45,3.29-5.25,4.88c-4.46,3.94-11.65,4.33-17.75,2.53c-6.102-1.8-7.91-9.15-16.42-9.17c4.229,1.49,7.09,5.9,6.438,9.92
	c-3.41,1.93-7.89,0.83-12,0.76c-4.108-0.07-9,2.23-8.29,5.93c0.62,3,4.95,5.23,4.312,8.23c-7.514,3.958-15.701,6.468-24.142,7.4
	c-1.528,0.17,9.19,9.08,10.41,9.67c4.47,2.14,9.84,3.71,14.57,5.35C591.07,240.9,604.23,242.48,617.23,239.03z"/>
<path fill="#916168" d="M617.23,238.14c-5,3.18-5.07,10.37-1.85,15.35c3.22,4.979,8.77,8.27,14.108,11.37
	c1.55,0.9,3.262,1.83,5,1.63c1.338-0.261,2.577-0.888,3.58-1.81c3.737-2.916,7.303-6.044,10.682-9.37
	c4.858-4.78,9.528-10.67,8.77-17.34c-0.86-7.57-8.34-13.27-11.36-20.44c-2.54-6-1.778-12.73-4-18.86c-2.22-6.13-10-11.8-15.818-8.59
	c-2.15,1.18-3.45,3.29-5.25,4.88c-4.46,3.94-11.65,4.33-17.75,2.53c-6.102-1.8-7.91-9.15-16.42-9.17c4.229,1.49,7.09,5.9,6.438,9.92
	c-3.41,1.93-7.89,0.83-12,0.76c-4.108-0.07-9,2.23-8.29,5.93c0.62,3,4.95,5.23,4.312,8.23c-7.514,3.957-15.701,6.467-24.142,7.4
	c-1.528,0.17,9.19,9.08,10.41,9.67c4.47,2.14,9.84,3.71,14.57,5.35C591.07,240.02,604.23,241.57,617.23,238.14z"/>
<path opacity="0.1" fill="#FFFFFF" enable-background="new    " d="M656.18,559.46c1.42,3.273,1.914,6.875,1.43,10.41
	c-2.65,21.219-41.55,35.359-52.16,38c-5.59,1.4-11.68-1.871-14.229-5.801c1.64,4.621,8.7,9.17,15.12,7.568
	c10.608-2.648,49.51-16.801,52.159-38C659.077,567.435,658.264,563.158,656.18,559.46z"/>
<path fill="#594C76" d="M301.75,558.25c0,0-12,15-7,21s30,17.471,38,17c8.5-0.5,37,1,38-12c0,0,2-6-24-7s-18-28-18-28L301.75,558.25
	z"/>
<path opacity="0.1" enable-background="new    " d="M158.75,432.25c0,0-12,41,24,48l39-2c0,0,55-11,70-3c0,0,6,1,4,9s3,62,3,62v18
	c0,0,34,0,38-4c0,0-3-16,0-29s-5-54-5-54l-0.79-24.68c-0.12-6.209-3.585-11.869-9.062-14.799c-1.893-1.004-3.998-1.539-6.14-1.561
	c0,0-68-11-92-9S158.75,432.25,158.75,432.25z"/>
<path fill="#8B9CD1" d="M158.75,431.25c0,0-12,41,24,48l39-2c0,0,55-11,70-3c0,0,6,1,4,9s3,62,3,62v18c0,0,34,0,38-4c0,0-3-16,0-29
	s-5-54-5-54l-0.79-24.68c-0.12-6.209-3.585-11.869-9.062-14.799c-1.893-1.004-3.998-1.539-6.14-1.561c0,0-68-11-92-9
	S158.75,431.25,158.75,431.25z"/>
<path fill="#F8BDC5" d="M261.75,350.25c0,0,8,10,13,0s16-43,16-43s27-29,36-20s-22,25-22,25s-11,61-21,62s-25,0-25,0l-5-11
	L261.75,350.25z"/>
<path opacity="0.05" enable-background="new    " d="M261.75,350.25c0,0,8,10,13,0s16-43,16-43s27-29,36-20s-22,25-22,25
	s-11,61-21,62s-25,0-25,0l-5-11L261.75,350.25z"/>
<path fill="#EB6475" d="M225.75,300.25c0,0,18,21,20,28c2,7,24,25,24,25s-16,12-13,18s-21-20-21-20l-28-41L225.75,300.25z"/>
<path opacity="0.1" enable-background="new    " d="M225.75,300.25c0,0,18,21,20,28c2,7,24,25,24,25s-16,12-13,18s-21-20-21-20
	l-28-41L225.75,300.25z"/>
<path fill="#F8BDC5" d="M237.75,276.25c0,0-9,29-9,40s-38-3-37-9s22-28,23-37S237.75,276.25,237.75,276.25z"/>
<path opacity="0.1" enable-background="new    " d="M207.75,296.25c0,0-35-9-40,42c-5,51,4,57-11,88s102,4,102,4s-6-7-25-4l-9-27
	c0,0-3-12,14-12s9-35,9-35s-9-30-14-33S219.75,298.25,207.75,296.25z"/>
<path fill="#EB6475" d="M207.75,294.25c0,0-35-9-40,42c-5,51,4,57-11,88s102,4,102,4s-6-7-25-4l-9-27c0,0-3-12,14-12s9-35,9-35
	s-9-30-14-33S219.75,296.25,207.75,294.25z"/>
<path fill="#F8BDC5" d="M242.75,366.25c0,0,73,8,85,6c0,0,53.6-6.6,40,7c-1,1-36,9-40,8s-89,0-89,0l-1-10L242.75,366.25z"/>
<path opacity="0.1" enable-background="new    " d="M186.75,341.25l53,48c0,0,10-20,13-20s-36-59-36-59s-10-12-16-6
	S176.75,306.25,186.75,341.25z"/>
<path fill="#EB6475" d="M185.75,339.25l53,48c0,0,10-20,13-20s-36-59-36-59s-10-12-16-6S175.75,304.25,185.75,339.25z"/>
<circle fill="#F8BDC5" cx="228.75" cy="261.25" r="33"/>
<path opacity="0.1" enable-background="new    " d="M257.65,252.96c5.602,2.21,12.46-0.44,15.762-5.47
	c3.3-5.03,3.198-11.88,0.42-17.22c-2.78-5.34-7.92-9.22-13.59-11.24c-3.44-1.22-7.271-1.92-9.91-4.44
	c-1.67-1.59-2.66-3.74-3.91-5.68c-4.67-7.28-13-11.58-21.47-13.27c-8.472-1.69-17.23-1.09-25.852-0.49c-3.22,0.23-7,0.81-8.46,3.69
	c-1.09,2.16-0.38,4.75-0.52,7.16c-0.45,7.67-9,11.92-16.472,13.76c-7.47,1.84-16.13,3.57-19.77,10.33
	c-3.26,6.07-0.93,13.43,0.08,20.25c1.727,11.913-0.854,24.051-7.28,34.23c-3.27,5.13-7.479,9.69-10.07,15.2
	c-2.863,6.157-3.527,13.112-1.88,19.7c0.49,1.93,1.182,3.89,0.84,5.85c-0.392,1.611-1.167,3.104-2.26,4.35
	c-8.862,11.342-22.113,18.396-36.47,19.42c1.14,4.291,5.29,7,9.24,9c6.739,3.468,13.843,6.179,21.18,8.08
	c4.93,1.281,10.09,2.19,15.11,1.32c5.02-0.869,9.908-3.82,12-8.479c1.198-2.7,1.38-5.75,2.438-8.512
	c2.391-6.188,8.76-9.93,12.18-15.619c3.271-5.439,4.54-6.08,5.37-12.359c0.83-6.279,2.66-13.06,7.82-16.75c5.4-3.87,13-3.13,19-0.16
	c6,2.97,9.71,1.81,14.72,6.17c8.789,7.635,18.626,13.972,29.21,18.82c-1-8.72-2.608-18.45-9.688-23.64c-2-1.49-4.53-2.63-5.59-4.91
	c-1.69-3.63,1.198-8.06-0.11-11.85s-6.29-5.19-8.5-8.63c-1.88-2.92-1.37-6.89,0.39-9.89c1.762-3,4.54-5.22,7.312-7.32
	c2.46-1.86,4.953-3.676,7.479-5.45c2.283-1.449,4.334-3.236,6.08-5.3c1-1.37,1.66-4.37,3.05-5.34
	C249.03,245.85,254.41,251.69,257.65,252.96z"/>
<path fill="#916168" d="M256.65,251.96c5.602,2.21,12.46-0.44,15.762-5.47c3.3-5.03,3.198-11.88,0.42-17.22
	c-2.78-5.34-7.92-9.22-13.59-11.24c-3.44-1.22-7.271-1.92-9.91-4.44c-1.67-1.59-2.66-3.74-3.91-5.68
	c-4.67-7.28-13-11.58-21.47-13.27c-8.472-1.69-17.23-1.09-25.852-0.49c-3.22,0.23-7,0.81-8.46,3.69c-1.09,2.16-0.38,4.75-0.52,7.16
	c-0.45,7.67-9,11.92-16.472,13.76c-7.47,1.84-16.13,3.57-19.77,10.33c-3.26,6.07-0.93,13.43,0.08,20.25
	c1.727,11.913-0.854,24.051-7.28,34.23c-3.27,5.13-7.479,9.69-10.07,15.2c-2.863,6.157-3.527,13.112-1.88,19.7
	c0.49,1.93,1.182,3.89,0.84,5.85c-0.392,1.611-1.167,3.104-2.26,4.35c-8.862,11.34-22.113,18.396-36.47,19.419
	c1.14,4.291,5.29,7,9.24,9c6.739,3.467,13.843,6.178,21.18,8.08c4.93,1.281,10.09,2.189,15.11,1.32c5.02-0.869,9.908-3.82,12-8.479
	c1.198-2.7,1.38-5.75,2.438-8.511c2.391-6.189,8.76-9.931,12.18-15.619c3.271-5.44,4.54-6.082,5.37-12.36s2.66-13.06,7.82-16.75
	c5.4-3.87,13-3.13,19-0.16c6,2.97,9.71,1.81,14.72,6.17c8.789,7.635,18.626,13.972,29.21,18.82c-1-8.72-2.608-18.45-9.688-23.64
	c-2-1.49-4.53-2.63-5.59-4.91c-1.69-3.63,1.198-8.06-0.11-11.85s-6.29-5.19-8.5-8.63c-1.88-2.92-1.37-6.89,0.39-9.89
	c1.762-3,4.54-5.22,7.312-7.32c2.46-1.86,4.953-3.676,7.479-5.45c2.283-1.449,4.334-3.236,6.08-5.3c1-1.37,1.66-4.37,3.05-5.34
	C248.03,244.85,253.41,250.69,256.65,251.96z"/>
<g opacity="0.1">
	<path fill="#FFFFFF" d="M327.61,557.13c0.075-2.662,0.458-5.307,1.141-7.881l-0.5,0.17
		C327.75,551.958,327.535,554.544,327.61,557.13z"/>
	<path fill="#FFFFFF" d="M332.75,594.25c-8,0.471-33-11-38-17c-0.657-0.813-1.062-1.799-1.16-2.84
		c-0.297,1.705,0.123,3.455,1.16,4.84c5,6,30,17.471,38,17c8.5-0.5,37,1,38-12c0.073-0.359,0.023-0.732-0.142-1.059
		C368.32,595.169,341.038,593.759,332.75,594.25z"/>
</g>
<rect x="372.25" y="295.75" fill="#FFD77C" stroke="#FFAB50" stroke-width="0.25" stroke-miterlimit="10" width="1" height="41"/>
<rect x="373.25" y="295.75" fill="#FFD77C" stroke="#FFAB50" stroke-width="0.25" stroke-miterlimit="10" width="1" height="41"/>
<rect x="374.25" y="295.75" fill="#FFD77C" stroke="#FFAB50" stroke-width="0.25" stroke-miterlimit="10" width="1" height="41"/>
<rect x="375.25" y="295.75" fill="#FFD77C" stroke="#FFAB50" stroke-width="0.25" stroke-miterlimit="10" width="1" height="41"/>
<rect x="376.25" y="295.75" fill="#FFD77C" stroke="#FFAB50" stroke-width="0.25" stroke-miterlimit="10" width="1" height="41"/>
<rect x="377.25" y="295.75" fill="#FFD77C" stroke="#FFAB50" stroke-width="0.25" stroke-miterlimit="10" width="1" height="41"/>
<rect x="378.25" y="295.75" fill="#FFD77C" stroke="#FFAB50" stroke-width="0.25" stroke-miterlimit="10" width="1" height="41"/>
</svg>
