<?xml version="1.0" encoding="utf-8"?>
<!-- Generator: Adobe Illustrator 16.0.0, SVG Export Plug-In . SVG Version: 6.00 Build 0)  -->
<!DOCTYPE svg PUBLIC "-//W3C//DTD SVG 1.1//EN" "http://www.w3.org/Graphics/SVG/1.1/DTD/svg11.dtd">
<svg version="1.1" id="b97bb7d6-95f0-447b-bc12-1d70469e6c4d"
	 xmlns="http://www.w3.org/2000/svg" xmlns:xlink="http://www.w3.org/1999/xlink" x="0px" y="0px" width="578.002px"
	 height="621.926px" viewBox="0 0 578.002 621.926" enable-background="new 0 0 578.002 621.926" xml:space="preserve">
<path fill="#F2F2F2" d="M366.643,352.859l-249.85,64.34c-17.646,4.522-35.624-6.092-40.187-23.729L1.047,100.044
	C-3.477,82.397,7.138,64.42,24.774,59.857L257.219,0l59.494,26.634l73.658,286.04C394.894,330.32,384.279,348.297,366.643,352.859z"
	/>
<path fill="#FFFFFF" d="M27.143,69.057c-12.559,3.25-20.118,16.052-16.897,28.618l75.562,293.427
	c3.249,12.56,16.051,20.119,28.617,16.897l249.85-64.339c12.559-3.249,20.118-16.051,16.897-28.617L308.654,33.435l-52.285-23.407
	L27.143,69.057z"/>
<path fill="#F2F2F2" d="M316.078,28.147l-38.668,9.958c-5.878,1.514-11.87-2.024-13.384-7.903l-7.354-28.56
	c-0.095-0.367,0.127-0.742,0.494-0.836c0.149-0.039,0.309-0.025,0.45,0.038l58.569,26.011c0.347,0.154,0.503,0.56,0.35,0.907
	C316.449,27.953,316.281,28.095,316.078,28.147z"/>
<path fill="#CCCCCC" d="M295.735,278.728l-113.753,29.293c-2.939,0.757-5.936-1.012-6.692-3.952
	c-0.757-2.939,1.013-5.935,3.952-6.692l0,0l113.752-29.293c2.939-0.757,5.936,1.012,6.692,3.952
	C300.443,274.975,298.675,277.971,295.735,278.728z"/>
<path fill="#CCCCCC" d="M322.312,291.036l-135.705,34.945c-2.939,0.754-5.934-1.019-6.688-3.958
	c-0.753-2.936,1.013-5.926,3.947-6.686l135.705-34.945c2.939-0.757,5.936,1.012,6.692,3.951
	C327.021,287.283,325.252,290.279,322.312,291.036z"/>
<circle id="a597741b-ffcf-4aba-98b0-6652ef5d57c9" fill="#E6E6E6" cx="135.555" cy="323.878" r="19.423"/>
<path fill="#FFFFFF" d="M283.639,227.896l-151.074,38.889c-9.091,2.329-18.352-3.14-20.701-12.226l-31.66-122.991
	c-2.329-9.091,3.14-18.352,12.226-20.701l151.075-38.889c9.091-2.33,18.352,3.14,20.701,12.225l31.659,122.991
	C298.195,216.286,292.725,225.547,283.639,227.896z"/>
<path fill="#E6E6E6" d="M283.639,227.896l-151.074,38.889c-9.091,2.329-18.352-3.14-20.701-12.226l-31.66-122.991
	c-2.329-9.091,3.14-18.352,12.226-20.701l151.075-38.889c9.091-2.33,18.352,3.14,20.701,12.225l31.659,122.991
	C298.195,216.286,292.725,225.547,283.639,227.896z M92.927,112.805c-8.017,2.073-12.842,10.245-10.787,18.266l31.66,122.99
	c2.073,8.017,10.244,12.842,18.266,10.787l151.075-38.889c8.017-2.073,12.842-10.245,10.787-18.266l-31.66-122.991
	c-2.073-8.017-10.244-12.842-18.266-10.787L92.927,112.805z"/>
<path id="b056fd3f-f1a0-44f0-b006-deff0bee637d" fill="#F2F2F2" d="M235.84,113.333l-76.245,19.627
	c-1.383,0.386-2.829-0.365-3.309-1.719c-0.438-1.385,0.332-2.863,1.717-3.3c0.045-0.014,0.091-0.027,0.136-0.039l77.613-19.979
	C238.887,109.512,238.062,112.762,235.84,113.333L235.84,113.333z"/>
<path id="f1ea6668-a825-428d-96fe-a2c4e1b5a672" fill="#F2F2F2" d="M239.283,126.708l-76.246,19.627
	c-1.383,0.386-2.829-0.365-3.309-1.719c-0.437-1.385,0.332-2.863,1.718-3.3c0.045-0.014,0.09-0.027,0.136-0.039l77.613-19.979
	C242.33,122.886,241.505,126.135,239.283,126.708L239.283,126.708z"/>
<path id="ee9aa382-a9c9-40d0-8ed3-22ec2dd616d6" fill="#E6E6E6" d="M148.514,158.192l-23.269,5.99
	c-1.583,0.406-3.195-0.546-3.604-2.128l-7.068-27.459c-0.406-1.583,0.546-3.195,2.128-3.604l23.269-5.99
	c1.583-0.405,3.194,0.547,3.604,2.128l7.068,27.46C151.049,156.171,150.096,157.783,148.514,158.192L148.514,158.192z"/>
<path id="be954d2b-d8b8-4d26-80a0-a319e99a4b10" fill="#F2F2F2" d="M246.11,154.148l-116.365,29.954
	c-1.383,0.386-2.829-0.365-3.309-1.719c-0.437-1.385,0.332-2.863,1.718-3.3c0.045-0.014,0.09-0.027,0.136-0.039l117.733-30.306
	C249.158,150.326,248.333,153.576,246.11,154.148L246.11,154.148z"/>
<path id="baaae9e4-1b4d-40c2-8a9d-f2abb078b489" fill="#F2F2F2" d="M249.553,167.526L133.189,197.48
	c-1.384,0.386-2.829-0.365-3.309-1.719c-0.438-1.385,0.331-2.863,1.717-3.3c0.045-0.014,0.09-0.027,0.136-0.039l117.733-30.306
	C252.601,163.704,251.777,166.954,249.553,167.526z"/>
<path id="a91bf4c9-37f6-4391-92ed-1882bd0ce21c" fill="#F2F2F2" d="M252.995,180.895l-116.364,29.954
	c-1.384,0.386-2.829-0.365-3.309-1.719c-0.438-1.385,0.331-2.863,1.717-3.3c0.045-0.014,0.09-0.027,0.136-0.039l117.733-30.306
	C256.043,177.073,255.219,180.323,252.995,180.895L252.995,180.895z"/>
<path id="efb98e07-468b-4c85-9a64-ee4cc5493d6f" fill="#F2F2F2" d="M256.438,194.272l-116.364,29.954
	c-1.384,0.386-2.829-0.365-3.309-1.719c-0.438-1.385,0.331-2.863,1.717-3.3c0.045-0.014,0.09-0.027,0.136-0.039l117.733-30.306
	C259.486,190.45,258.662,193.7,256.438,194.272z"/>
<path id="aeb1db98-32e5-40b8-ab89-fdad6a3263dc" fill="#F2F2F2" d="M259.88,207.642l-116.364,29.954
	c-1.383,0.386-2.829-0.365-3.309-1.719c-0.438-1.385,0.331-2.863,1.717-3.3c0.045-0.014,0.091-0.027,0.136-0.039l117.733-30.306
	C262.928,203.82,262.103,207.07,259.88,207.642z"/>
<path id="be265de5-288f-49a7-867d-c42e7cdbf4db" fill="#FFFFFF" d="M136.988,330.686c-0.423,0.11-0.87,0.08-1.274-0.088l-0.024-0.01
	l-5.292-2.243c-1.032-0.436-1.516-1.625-1.08-2.657s1.625-1.516,2.657-1.081c0.004,0.002,0.007,0.003,0.011,0.005l3.429,1.458
	l4.493-10.569c0.438-1.03,1.629-1.511,2.659-1.072l0,0h0.001l-0.027,0.069l0.028-0.069c1.029,0.439,1.509,1.629,1.072,2.66
	l-5.286,12.427c-0.248,0.581-0.753,1.013-1.365,1.169L136.988,330.686z"/>
<path fill="#E6E6E6" d="M462.475,464.678h-258c-18.217-0.021-32.979-14.783-33-33v-303c0.021-18.217,14.783-32.979,33-33h240.027
	l50.973,40.629v295.371C495.455,449.895,480.692,464.657,462.475,464.678z"/>
<path fill="#FFFFFF" d="M204.475,105.178c-12.973,0.015-23.485,10.527-23.5,23.5v303c0.015,12.973,10.527,23.485,23.5,23.5h258
	c12.973-0.015,23.485-10.527,23.5-23.5V140.883l-44.796-35.705H204.475z"/>
<path fill="#3498DB" d="M412.295,193.282H294.831c-3.035-0.003-5.493-2.466-5.49-5.501c0.004-3.03,2.46-5.486,5.49-5.489h117.464
	c3.035-0.003,5.498,2.454,5.501,5.489c0.004,3.035-2.454,5.498-5.489,5.501C412.302,193.282,412.299,193.282,412.295,193.282z"/>
<path fill="#3498DB" d="M434.963,211.829H294.831c-3.035,0-5.496-2.46-5.496-5.495c0-3.035,2.461-5.496,5.496-5.496h140.132
	c3.035,0,5.496,2.46,5.496,5.496C440.459,209.368,437.998,211.829,434.963,211.829z"/>
<path fill="#CCCCCC" d="M412.295,265.405h-117.46c-3.034-0.004-5.498,2.453-5.502,5.488c-0.004,3.035,2.453,5.499,5.487,5.502
	c0.005,0,0.01,0,0.015,0h117.46c3.035-0.004,5.492-2.467,5.488-5.502C417.779,267.864,415.324,265.41,412.295,265.405z"/>
<path fill="#CCCCCC" d="M434.965,283.956h-140.13c-3.034-0.004-5.498,2.453-5.502,5.488c-0.004,3.035,2.453,5.498,5.487,5.502
	c0.005,0,0.01,0,0.015,0h140.13c3.035-0.004,5.492-2.467,5.488-5.502C440.449,286.414,437.994,283.959,434.965,283.956z"/>
<path fill="#CCCCCC" d="M412.295,359.518H294.831c-3.035-0.004-5.493-2.467-5.49-5.502c0.004-3.03,2.46-5.486,5.49-5.489h117.464
	c3.035-0.003,5.498,2.454,5.501,5.489c0.004,3.035-2.454,5.498-5.489,5.502C412.302,359.518,412.299,359.518,412.295,359.518z"/>
<path fill="#CCCCCC" d="M434.963,378.064H294.831c-3.035,0-5.496-2.461-5.496-5.496s2.461-5.495,5.496-5.495h140.132
	c3.035,0,5.496,2.46,5.496,5.495S437.998,378.064,434.963,378.064z"/>
<circle id="abdb8e2f-a218-463c-85f4-c869fef49971" fill="#3498DB" cx="245.916" cy="197.06" r="19.423"/>
<path id="ba7dbbd6-0052-44b1-a552-47a8298b8d3e" fill="#FFFFFF" d="M243.991,204.469c-0.438,0-0.862-0.141-1.212-0.403l-0.021-0.016
	l-4.565-3.492c-0.89-0.681-1.059-1.954-0.378-2.844c0.681-0.89,1.953-1.06,2.844-0.379c0.001,0.001,0.002,0.002,0.003,0.003
	l2.957,2.267l6.986-9.115c0.682-0.889,1.954-1.057,2.843-0.376l0,0l0.001,0l-0.044,0.061l0.045-0.061
	c0.888,0.683,1.056,1.955,0.375,2.844l-8.218,10.716c-0.386,0.5-0.981,0.793-1.613,0.791L243.991,204.469z"/>
<path fill="#CCCCCC" d="M267.335,280.176c0.004,10.727-8.688,19.426-19.415,19.43c-0.002,0-0.003,0-0.005,0
	c-0.167,0.003-0.334-0.003-0.5-0.02c-10.723-0.275-19.192-9.19-18.918-19.914c0.275-10.723,9.191-19.192,19.914-18.917
	C258.942,261.024,267.338,269.641,267.335,280.176z"/>
<circle id="e4a71040-498e-4958-ad41-c2d79154b8f7" fill="#CCCCCC" cx="245.916" cy="363.295" r="19.423"/>
<path fill="#CCCCCC" d="M494.483,137.614h-39.929c-6.07,0-10.991-4.921-10.991-10.991l0,0V97.132c0-0.379,0.308-0.687,0.688-0.687
	c0.154,0,0.305,0.052,0.426,0.148l50.233,39.795c0.297,0.235,0.348,0.667,0.111,0.965
	C494.891,137.518,494.693,137.614,494.483,137.614z"/>
<path fill="#3498DB" d="M267.335,280.176c0.004,10.727-8.688,19.426-19.415,19.43c-0.002,0-0.003,0-0.005,0
	c-0.167,0.003-0.334-0.003-0.5-0.02c-5.092-12.701-3.686-27.085,3.771-38.56C260.513,262.625,267.333,270.711,267.335,280.176z"/>
<path fill="#3498DB" d="M289.335,270.905c0.006-3.035,2.465-5.494,5.5-5.5h29.271c1.71,3.478,2.925,7.177,3.609,10.99h-32.88
	C291.802,276.395,289.342,273.939,289.335,270.905z"/>
<path fill="#3498DB" d="M328.395,283.956c0.002,3.712-0.489,7.408-1.46,10.99h-32.101c-3.034,0.004-5.498-2.453-5.502-5.487
	c-0.004-3.035,2.453-5.499,5.487-5.502c0.005,0,0.01,0,0.015,0H328.395z"/>
<path fill="#3F3D56" d="M400.817,351.732c-1.726,2.83-5.418,3.725-8.247,1.998l-70.005-42.7c-2.829-1.726-3.724-5.418-1.998-8.247
	c1.726-2.829,5.418-3.723,8.247-1.998l70.005,42.7C401.648,345.212,402.543,348.904,400.817,351.732z"/>
<path fill="#3F3D56" d="M330.812,309.033c-13.805,22.631-43.343,29.788-65.975,15.983c-22.632-13.804-29.787-43.342-15.982-65.974
	c13.804-22.632,43.342-29.788,65.974-15.983l0,0C337.434,256.883,344.585,286.396,330.812,309.033z M259.099,265.291
	c-10.354,16.974-4.986,39.127,11.987,49.48s39.127,4.986,49.48-11.988c10.354-16.974,4.986-39.126-11.987-49.48
	C291.602,242.974,269.468,248.337,259.099,265.291z"/>
<circle fill="#A0616A" cx="484.603" cy="267.172" r="24.561"/>
<path fill="#A0616A" d="M483.016,404.863c-1.857-5.785,1.327-11.98,7.113-13.837c0.396-0.128,0.8-0.232,1.209-0.313
	c0.481-0.094,0.969-0.154,1.459-0.18l25.871-41.523l-23.632-22.467c-3.775-3.59-3.927-9.56-0.338-13.335s9.56-3.927,13.335-0.338
	c0.041,0.04,0.083,0.079,0.123,0.12l32.63,32.174l0.065,0.08c2.073,3.153,1.831,7.293-0.594,10.184l-36.25,42.873
	c0.107,0.344,0.198,0.693,0.27,1.047c1.188,5.959-2.679,11.753-8.639,12.941c-0.408,0.082-0.821,0.14-1.236,0.174
	c-0.313,0.027-0.623,0.041-0.932,0.041C488.701,412.484,484.484,409.402,483.016,404.863z"/>
<polygon fill="#A0616A" points="444.151,609.001 431.891,609 426.059,561.712 444.153,561.713 "/>
<path fill="#2F2E41" d="M447.277,620.885l-39.53-0.001v-0.5c0-8.498,6.889-15.387,15.386-15.387c0.001,0,0.001,0,0.001,0h0.001
	l24.144,0.001L447.277,620.885z"/>
<polygon fill="#A0616A" points="566.008,592.05 555.473,598.322 526.268,560.676 541.815,551.419 "/>
<path fill="#2F2E41" d="M574.773,600.661l-33.966,20.224l-0.256-0.43c-4.348-7.301-1.953-16.744,5.348-21.092h0.001l0.001-0.001
	l20.745-12.352L574.773,600.661z"/>
<path fill="#2F2E41" d="M424.512,588.176c-8.213-96.706-13.099-186.545,16.925-223.193l0.231-0.285l50.526,20.211l0.083,0.182
	c0.17,0.371,16.974,37.333,13.055,62.194l12.462,57.328l40.636,68.041c1.275,2.134,0.578,4.897-1.557,6.172
	c-0.159,0.096-0.324,0.181-0.494,0.256l-17.659,7.77c-2.06,0.896-4.466,0.145-5.648-1.766l-44.204-72.08L463.9,457.719
	c-0.341-0.755-1.229-1.091-1.984-0.749c-0.485,0.219-0.817,0.679-0.874,1.208l-13.841,130.097c-0.239,2.29-2.172,4.027-4.475,4.024
	h-13.728C426.665,592.285,424.722,590.5,424.512,588.176z"/>
<path fill="#3498DB" d="M441.607,365.749l-0.241-0.115l-0.037-0.265c-1.888-13.211,0.347-27.888,6.64-43.625
	c6.411-15.919,23.513-24.744,40.202-20.743l0,0c9.404,2.317,17.406,8.47,22.061,16.964c4.595,8.406,5.455,18.354,2.373,27.425
	c-7.934,23.2-18.227,44.907-18.329,45.124l-0.216,0.453L441.607,365.749z"/>
<path fill="#A0616A" d="M386.481,332.846c4.769-3.766,11.688-2.952,15.452,1.816c0.259,0.327,0.498,0.669,0.718,1.023
	c0.257,0.418,0.483,0.854,0.679,1.303l47.954,9.693l12.769-30.004c2.04-4.793,7.58-7.024,12.373-4.984
	c4.793,2.041,7.024,7.58,4.984,12.373c-0.022,0.052-0.045,0.104-0.068,0.154l-18.71,41.831l-0.052,0.089
	c-2.229,3.047-6.19,4.27-9.748,3.01l-52.853-18.94c-0.284,0.222-0.579,0.429-0.885,0.619c-5.166,3.2-11.948,1.606-15.147-3.56
	c-0.22-0.354-0.419-0.721-0.597-1.097c-0.135-0.283-0.257-0.569-0.365-0.858C381.334,340.839,382.744,335.81,386.481,332.846z"/>
<path fill="#2F2E41" d="M573.332,293.475c-2.366-4.192-5.813-8.031-10.369-9.581c-5.885-2.001-12.257,0.13-18.308,1.552
	c-4.661,1.096-9.531,1.767-14.23,0.842c-4.697-0.925-9.23-3.659-11.367-7.944c-3.146-6.304-0.496-13.821-0.688-20.863
	c-0.359-13.987-11.988-25.035-25.976-24.676c-2.01,0.052-4.007,0.342-5.948,0.866c-5.793-1.672-11.039-1.827-14.622,2.627
	c-9.389,0-17,7.611-17,17h16.255c-0.771,4.145,0.11,8.427,2.454,11.931c2.87,4.216,7.859,7.266,8.82,12.274
	c0.931,4.854-2.368,9.458-5.829,12.986c-3.461,3.528-7.476,7.024-8.556,11.846c-0.662,3.661,0.09,7.437,2.104,10.565
	c2.01,3.091,4.504,5.837,7.386,8.136c12.985,11.125,28.418,19.02,45.038,23.041c11.704,2.816,24.506,3.547,35.371-1.637
	c17.509-8.354,24.931-29.318,16.577-46.827C574.098,294.889,573.727,294.175,573.332,293.475z"/>
<path fill="#CCCCCC" d="M577.002,621.926h-190c-0.553,0-1-0.448-1-1c0-0.553,0.447-1,1-1h190c0.552,0,1,0.447,1,1
	C578.002,621.478,577.553,621.926,577.002,621.926z"/>
</svg>
